<svg id="Layer_1" data-name="Layer 1" xmlns="http://www.w3.org/2000/svg" viewBox="0 0 108.79 156.4"><path d="M108.44,202.2,83.6,182.64c5.43-7.1,10.58-14.18,16.11-20.94,3.68-4.49,5.67-9.24,5.14-15.11-2.75-30.24,7.07-57.76,18.53-84.93,1.8-4.29,3.15-8.79,5.19-13,.67-1.36,2.89-2,4.41-2.9.86,1.43,2.52,2.89,2.45,4.27q-.84,18-2.34,35.89c-.12,1.36-2,3.27-3.38,3.72-6.88,2.16-9.61,5.25-9.77,12.55-.23,10.49-.35,21-.28,31.48,0,1.43,1.41,2.84,2.16,4.26.81-1.38,2.26-2.74,2.32-4.16.42-10.15.53-20.32.81-30.47,0-1.8,0-3.84.83-5.31a6.23,6.23,0,0,1,4-2.91c1.17-.12,3.22,1.37,3.67,2.59a27.87,27.87,0,0,1,2,9.13c.19,18.16.31,36.32,0,54.48-.14,9.78-3.27,18.56-10.85,25.4C119.25,191.62,114.08,196.8,108.44,202.2Z" transform="translate(-83.6 -45.8)"/><path d="M143,89.25c-.81-13.44-1.67-26.23-2.25-39-.07-1.43,1.43-2.93,2.2-4.39,1.55.9,4,1.48,4.49,2.77,7.4,20.63,18.08,40.22,21.52,62.08,1.93,12.25,1.91,24.84,2.31,37.3.16,4.9,1.26,9,4.39,12.84,5.66,7,11,14.23,16.77,21.84l-24.88,19.53c-6.72-6.45-13.55-12.33-19.54-19-5.41-6-7.42-13.71-7.46-21.75-.1-18.32-.05-36.64,0-55,0-2.15-.07-4.57.85-6.37,1.08-2.1,3.21-3.64,4.89-5.43,1.55,2.06,4.18,4,4.45,6.22.78,6.25.61,12.62.76,19,.11,4.82,0,9.67.31,14.48.09,1.27,1.52,2.44,2.33,3.66.83-1.23,2.39-2.47,2.39-3.69,0-11.49,0-23-.7-34.46C155.4,92.66,150,89.92,143,89.25Z" transform="translate(-83.6 -45.8)"/></svg>