<svg xmlns="http://www.w3.org/2000/svg" viewBox="0 0 153.31 217.39"><defs><style>.cls-1{fill:#231f20;}.cls-2{fill:#309746;}.cls-3{fill:#297339;}.cls-4{fill:#48b649;}.cls-5{fill:#fff;}</style></defs><g id="Layer_2" data-name="Layer 2"><g id="Layer_1-2" data-name="Layer 1"><path class="cls-1" d="M.75,212.74a26.43,26.43,0,0,1,2.64-1.06c1.79.33,2.5-.3,2.16-2.19-.4-2.19-.61-4.41-.9-6.62a8.63,8.63,0,0,0-.38-3.5l.05-.81.13-.52a3.12,3.12,0,0,1,2.88-1.92l1.77-.27c1.88.29,2.65-.33,2.22-2.36-.4-1.84-.53-3.74-.78-5.61l-.24-2.16.11-1.78.2-.38,1.55-1.06c1.92.14,2.6-.68,2.13-2.57-.52-2.14-.27-4.33-.35-6.5a65.25,65.25,0,0,1,3.45-14.54c.17-1.5,1.59-2.38,1.87-3.82,2.85-3.18,1.71-7,1.74-10.64l.18-27.26c0-.44,0-.9-.67-.87-.83-.07-1.39-.42-1.4-1.34-2.11-1.06-1.6-3-1.61-4.77,0-1.94-.06-3.88-.1-5.82A4.35,4.35,0,0,1,19.27,101l.8-.32c1.2-.1,2.31-.27,2.3-1.89-.05-5.33-.06-10.66-.09-16l0-.44V80.65L24,79.18c1.09.21,1.78.1,1.73-1.34A26.75,26.75,0,0,1,26.14,71,57.2,57.2,0,0,0,28,57.77a16.47,16.47,0,0,0,7.71-.06c.51-.15,1-.36,1-1S36,56,35.58,55.9a18.92,18.92,0,0,0-6.67-.09c-1.27.14-1.08,1-1.21,1.81-.61.54-1,0-1.48-.27l-.1-.92,1-1.21c1.48-.59,2.73-3.91,1.67-5.45-1.76-2.53-2.36-5.39-3-8.27a36.87,36.87,0,0,1,.75-8.83c.59-2.57,2.5-4.36,3.82-6.5,1.17.16,3,1.32,2.81-1.15s-.77-5.09.89-7.41c.09-.13,0-.42,0-.64l.13-.11c.81.52.58,1.27.3,1.92a9.68,9.68,0,0,0,1.08,9.89,17.32,17.32,0,0,1,2.71,10c0,1.09,0,2.18,0,3.27-.58,2.63-1.09,5.28-2.87,7.43A2.46,2.46,0,0,0,35,50.78a5.06,5.06,0,0,0,3,5.66c0,.15,0,.35-.11.42C35,59,36.39,61.93,36.68,64.59c.25,2.17.78,4.31,1.18,6.46.11,2.26.56,4.5.26,6.78-.09.73-.1,1.36,1,1.49,2.2.25,2.75,1.76,2.55,3.76a17.8,17.8,0,0,0,.1,2.41q-.08,6.74-.13,13.47c0,2.18,1.92,1.45,3,2A4,4,0,0,1,46.57,105c-.08,1.08.06,2.19,0,3.27-.17,2.21,1,4.77-1.65,6.35,0,0,0,.14,0,.21.06,1.08-.65,1.4-1.53,1.54-.27-.07-.33,0-.24.28-.26,4-.18,7.91-.05,11.87l.21.45.6-.4,7.37-5.09c4.49-2.75,9.05-5.37,13.25-8.55l.4-.18a.31.31,0,0,0,.42-.29l.43-.26c.76-.28,1.76-.62,1.91-1.32.52-2.51,2.56-3.57,4.3-5,2.36-1.28,2.57-2.5.73-4.12a2.15,2.15,0,0,1,.26-2.47c.49-.14,1-.28.63-1,0-.93,1.16-2.09-.49-2.73a.26.26,0,0,0-.17-.34c0-.29,0-.57,0-.85l.06-.15.24-4.7c.05-.42.1-.85.16-1.27.65-.36,1.23-.75,1.17-1.64-.1-1.4.55-2.87-.55-4.17a1.26,1.26,0,0,1,.14-1.79c.86-.67.75.4,1.08.74s.88.39,1.15-.25c.17-.41.41-.83.94-.54a1,1,0,0,1,.4,1.15,12.49,12.49,0,0,1-.61,1.6c-.3,1.7-.8,3.42.74,4.86A1.06,1.06,0,0,1,78,91.73c-1.21,1.7-.83,3.23.37,4.74.15.19.09.56.12.85s-.21.33-.32.5l0,.06c-1.37,1.21-.49,2.45.16,3.46.52.8,1,1.39.4,2.32-1.71,2.86-1.61,3.16,1.54,4.77,1.58,1.18,3.21,2.27,3.51,4.51.13,1,1.19,1.18,2,1.52l0,.17.16,0,.58.32a61.19,61.19,0,0,0,8.25,5.34c4.92,3.41,10,6.53,14.8,10.18A123.45,123.45,0,0,1,124.23,144h0a73.76,73.76,0,0,1,9.44,14.93A41.57,41.57,0,0,1,137,176.5c0,1.44-.5,2.79-.53,4.25,0,1.31.07,1.81,1.45,1.81,1.76,0,2.42,1.1,2.32,2.76-.06.87-.1,1.75-.15,2.62l-.12.72a1,1,0,0,0-.15,1l-.3,3a.36.36,0,0,0-.09.56,4.07,4.07,0,0,0-.14,2.24c-.14.35.07.34.31.3.86.13,1.72.27,2.58.38,4,.55,4.08.66,4,4.59A1.6,1.6,0,0,0,146,202l-.08.91c-.29,2.39-.52,4.79-.9,7.17-.21,1.31.3,1.61,1.5,1.7a7.18,7.18,0,0,1,6.7,4.78l.07.87M46.12,176.45c0,.51-.07,1-.09,1.52-.1,2.53,1.81,1.41,2.95,1.58,1.34.2,2.18-.23,1.68-1.81.29-1.31-.15-2.58-.26-3.86-.11-1.5-1.34-1.73-2.54-1.71A1.78,1.78,0,0,0,46,174.08,23.54,23.54,0,0,0,46.12,176.45Zm-4.91-3.87c-1.23,0-1.38.88-1.37,1.82a34.1,34.1,0,0,1,0,3.5c-.21,1.86.68,2.15,2.29,2.13,2,0,2.86-.71,2.52-2.74-.12-.72-.12-1.45-.18-2.18C44.6,172.7,43.17,172.29,41.21,172.58ZM37.1,78.86a20.66,20.66,0,0,0,.08-3c-.53-4.19-1.21-8.37-1.7-12.57S35,58.9,30.64,59.11c-.84-.36-1.31-.42-1.71.75-.71,2-.13,4.18-.71,6.2A41.84,41.84,0,0,0,26.73,77.2c0,1.73.42,2.44,2.17,2l7.87,0C37,79.22,37.17,79.16,37.1,78.86ZM28,45.45a6.07,6.07,0,0,0,1,2.42c1.88,3.13,4.54,3.24,6.18,0a18.93,18.93,0,0,0,0-17.75C33.57,26.85,31,26.9,29,30a10.32,10.32,0,0,0-.63,1.39c-.25.25-.65.47-.72.76C26.75,36.59,26.11,41.05,28,45.45ZM39.47,188.39a20.69,20.69,0,0,0,.12,4.59h.67v-5c.36-1.48.69-3,2.4-3.53a2.45,2.45,0,0,1,2.88,1.31c.66,1.77.42,3.62.39,5.44,0,1.2.34,1.74,1.62,1.69,2.12-.1,4.24-.14,6.37-.09,1.37,0,1.8-.58,1.74-1.86a31,31,0,0,1,0-3.73A3.72,3.72,0,0,1,59,183.7a3.49,3.49,0,0,1,3.23,3.54c.09,1.38,0,2.78,0,4.17,0,.4-.16,1,.44,1.07s.79-.51.8-1c0-1.39,0-2.78.06-4.17A3.85,3.85,0,0,1,67,183.6c1.77,0,3.12,1.56,3.18,3.76,0,1.18,0,2.35,0,3.52s.41,1.54,1.53,1.51c2.34,0,4.69-.13,7,0,1.86.12,2.19-.79,1.83-2.23a7.25,7.25,0,0,1,.14-4.3,3.08,3.08,0,0,1,2.93-2.25,3.32,3.32,0,0,1,3.21,2.24c.62,1.39.34,2.89.44,4.34,0,.7-.35,1.59.67,2.07.66-1.1.3-2.22.33-3.28a9.37,9.37,0,0,1,.36-3,3.1,3.1,0,0,1,3.19-2.22,2.85,2.85,0,0,1,2.73,2.39c.5,1.76.12,3.48.25,5.21.06.82.15,1.39,1.18,1.42,2.41.07,4.82.21,7.22.36,1.25.08,1.71-.45,1.67-1.67a29.23,29.23,0,0,1,0-4.39c.14-1.37.76-2.63,2.39-2.69a2.64,2.64,0,0,1,2.82,2.53c.22,1.66.09,3.36.16,5,0,.53-.28,1.2.67,1.63.92-1.65.37-3.42.44-5.08.08-1.81.28-3.47,2.5-3.72,1.62-.17,2.81,1.38,2.91,3.68a25.84,25.84,0,0,1,0,3.52c-.14,1.57.56,2.05,2,2a36.76,36.76,0,0,1,4.8.34c1.26.17,1.52-.37,1.49-1.47a30.45,30.45,0,0,1,.09-4.38,2.54,2.54,0,0,1,2-2.4,2.21,2.21,0,0,1,2.26,1,4,4,0,0,1,.58,2.51c.08,1.58-.36,3.22.38,5,.24-.3.39-.4.4-.51.06-1.39,0-2.78.14-4.16.14-2.07,1.33-3.55,2.75-3.35,1.9.28,2.38,1.75,2.44,3.39.06,1.39,0,2.79,0,4.18,0,.46-.14,1.16.66,1.1.57,0,.5-.62.55-1,.3-2.61.56-5.23.9-7.84.18-1.36-.2-2-1.69-2.07-5.68-.46-11.34-1.13-17-1.58-6.2-.49-12.4-.77-18.61-1-14.63-.62-29.24-1-43.87-.2a58.89,58.89,0,0,0-6.77.2C39,182,27.7,183,16.43,184c-4,.36-4,.24-3.81,4a3.64,3.64,0,0,0,0,.88c.7,2,0,4.41,1.45,6.3a24.34,24.34,0,0,0,.3-4.32c0-2.58,1.22-4.31,2.85-4.27s2.31,1.47,2.41,4.27c0,1.27-.44,2.65.45,4,.63-.81.35-1.57.38-2.27a32.25,32.25,0,0,1,.1-3.94c.24-1.46,1.09-2.77,2.73-2.64,1.42.11,2,1.36,2.06,2.73,0,.8,0,1.61,0,2.42.06,3.7-.61,3.39,3.37,3.38h.44c3.87-.12,4.5-.77,4.51-4.64,0-.52,0-1,0-1.54.13-1.88,1.06-3.49,2.88-3.64s2.64,1.51,2.8,3.29C39.44,188.1,39.46,188.25,39.47,188.39ZM40.55,81.52c.09-.25.05-.42-.26-.39l-.5-.49c0-.26-.08-.42-.38-.32H32l-.49,0-5.66,0c-1.75-.38-2.39.42-2.38,2.11,0,5.09.09,10.19,0,15.28,0,2,.65,2.46,2.39,1.69a44.52,44.52,0,0,1,13.29.26c1.24.25,1.57-.17,1.56-1.29Q40.59,90,40.55,81.52ZM42,115.33c.52-.34,1.59.37,1.65-.86l.08-1.3c.65-.32,1.7,0,1.78-1.22s-.78-1.37-1.48-1.62a33.28,33.28,0,0,0-23.57-.06c-2.43.92-2.41,1.21-.59,2.85.15.14.34.36.33.53-.15,1.51,1,1.53,2,1.75,0,5.45,0,10.9,0,16.34,0,.4-.76,1.44.59,1.39a20.85,20.85,0,0,0,0-6.26c.25-.68.64-1.16,1.47-.93s.71.87.68,1.43c-.26,4.31.74,8.56.49,12.87-.09,1.67,0,3.35.05,5-1.72.35-4.25-.21-3.42,3,.08.32-.09.74.35.93s.69-.14.86-.43c.72-1.24,2-2.1,2.38-3.57,1.42-1.21,3.47-2.49,3.37-4.25-.22-4.38,1.49-8.54,1.1-12.89-.09-1.1-.17-2.21,1.56-2.22s1.72.95,1.69,2.15c-.07,2.71-.23,5.45,1.32,7.85,3.06-1.67,5-4,4.2-7.8,0-.07,0-.15,0-.22-.28-1.52.5-1.76,1.74-1.45,0,.93,0,1.86.06,2.79,0,.44-.2,1.13.63,1.07s.66-.64.65-1.14c0-.93-.08-1.86-.12-2.78C42,122.67,42,119,42,115.33Zm82.54,81.19c-5.51-.64-11-.94-16.57-1.13-4.45-.15-8.89-.34-13.34-.51a357.84,357.84,0,0,0-37.63.19c-7-.28-14,.38-21,.69-9.34.41-18.58,1.69-27.89,2.35-1.22.09-1.73.6-1.6,1.79.33,3.11.73,6.22,1,9.34.15,1.78,1.11,2,2.64,1.94,1.71-.1,1.48-1.25,1.5-2.34.05-2.1-.25-4.21,1.09-6.14a3.71,3.71,0,0,1,4.42-1.51,3.33,3.33,0,0,1,2.51,3.46c0,1.39.06,2.79,0,4.18-.06,1.18.44,1.52,1.56,1.49,2.41-.06,4.83.05,7.24-.06,4.39-.22,4.39-.26,4.39-4.66,0-.52,0-1,0-1.54a4.88,4.88,0,0,1,4.48-4.61c2.14-.06,4.07,2,4.22,4.5a21.65,21.65,0,0,1,0,3.51c-.19,1.72.55,2.08,2.14,2A90.39,90.39,0,0,0,54,208.93c3.84.19,3.84.19,3.82-3.7,0-.8,0-1.61,0-2.41,0-3,1.7-4.8,4.45-4.85a4.6,4.6,0,0,1,4.86,4.58,43.23,43.23,0,0,1,0,4.83c-.06,1.27.46,1.62,1.67,1.61q6.26-.08,12.5,0c1.22,0,1.72-.37,1.66-1.63-.07-1.68-.07-3.36,0-5A4.38,4.38,0,0,1,87.51,198a4.46,4.46,0,0,1,4.66,4.48c0,1.68,0,3.37,0,5.05,0,1.12.34,1.55,1.49,1.57,3.14,0,6.28.24,9.42.29,5.25.1,5.25.08,5.36-5.24V204c.1-2.7,1.74-4.49,4.14-4.49a4.62,4.62,0,0,1,4.29,4.45c.06,1.53,0,3.07,0,4.61,0,.84.18,1.38,1.2,1.4,2.18,0,4.36.15,6.54.23.51,0,1,.14,1.52.15,5.07.16,5.07.15,5.11-4.89,0-2.88,1.2-4.36,3.45-4.35s4.08,1.8,4.15,4.42c0,1.46,0,2.93,0,4.39,0,1.25.91,1.4,1.84,1.3s2.15.65,2.33-.83c.42-3.54.67-7.1,1-10.66.08-1-.38-1.48-1.38-1.57ZM66.7,116.33c-2.54.84-4.37,2.83-6.62,4.17C51.42,125.68,43,131.24,35.5,138A73.82,73.82,0,0,0,22,154.41a42.28,42.28,0,0,0-5.8,16.89c-.12,1,0,1.43,1.27,1.71,1.89.44,3.54.56,5.22-.55a2.19,2.19,0,0,1,2.51.14c1.81,1.42,2.65-.76,4-1,1.56-.26,2.77,1.75,4.32.45a2.12,2.12,0,0,1,.36-.25,3.69,3.69,0,0,1,3.95-.1c.74.47,1.34.7,1.62-.43,1.59-.19,3.23-1.15,4.71.44.5.54.85-.28,1.28-.43,1.35-.49,2.7-1.44,4.14-.5a2.48,2.48,0,0,0,2.6.06c3-1.09,6.17.49,9.19-.58.11,0,.27.06.42.1,2.79.69,5.57-.65,8.45,0,1,.23,2.44-.63,3.77-.35l1.32.84c1.35-.06,2.4-1.53,3.83-.94,1.67.69,3.28.18,4.89.21,2.52,0,5,.21,7.58.17,1.47,0,3,.21,4.59.17,2.48-.06,5,.41,7.53.3,1.6-.07,3.29.24,5,.23,2.42,0,4.91.33,7.38.47a42.52,42.52,0,0,0,4.81.4c2.32-.1,4.73.56,7.16.7,1.78.1,3.58.75,5.56.4,1.15-.2,1.54-.44,1.37-1.57a44.77,44.77,0,0,0-3.29-11.79c-4.84-10.75-12.73-19-21.74-26.26-6.73-5.44-14.3-9.63-21.37-14.54-3.91-2.71-7.73-4.11-12.37-3.06l-.85,0a30.47,30.47,0,0,0-3.43-.27C70.23,115.58,68.26,114.68,66.7,116.33Zm8.55,95a92.16,92.16,0,0,0-11.39-.17c-9.94.18-19.86.52-29.8.91-9.48.37-18.94,1.14-28.42,1.48A8.48,8.48,0,0,0,.9,215c-.46.32-1.11.71-.83,1.38s.89.11,1.34.08c9.09-.58,18.18-1.35,27.29-1.72,7.74-.31,15.48-.74,23.21-.82,21-.19,42-.41,63,.66,11.66.59,23.33,1.06,35,2.21.35,0,.83.15.94-.29a1.35,1.35,0,0,0-.3-1,4.47,4.47,0,0,0-3.21-1.68c-5.09-.45-10.17-.95-15.26-1.23-9.55-.52-19.11-1.06-28.67-1.28C94,211.15,84.61,211.32,75.25,211.32ZM31.75,100a35.64,35.64,0,0,0-7.3.79c-6.24,1.25-6.2,1.25-6,7.48,0,1.36.25,1.51,1.61,1.07a36.84,36.84,0,0,1,24.09.06c1.16.4,1.59.44,1.52-.92a25.7,25.7,0,0,1,0-3.51,2.85,2.85,0,0,0-2.53-3.43A47.83,47.83,0,0,0,31.75,100ZM75.57,114.3v.1h4a1.38,1.38,0,0,0,.65-.06c.72-.42,2,.1,2.2-1a2.76,2.76,0,0,0-1.28-2.85c-.82-.61-1.75-1.06-2.6-1.63-2.15-1.46-2.53-3.36-1-5.51.37-.54.52-.9-.13-1.19a2.27,2.27,0,0,1-1-3.21c.82-1.72-.12-3.14-.17-4.68,0-.91-.65-1.83.24-2.67.34-.31.14-.69-.18-.93a.83.83,0,0,0-1,.08c-.35.23-.52.46-.2.87.92,1.17.56,2.59.34,3.8a7.87,7.87,0,0,0-.12,3c.18,1.13.37,2.82-.94,3.82-.62.48-.27.76.06,1.22a3.49,3.49,0,0,1-.91,5.19A24,24,0,0,0,70,111.15c-1.52,1.53-1.09,2.81,1,3.11A35.28,35.28,0,0,0,75.57,114.3Zm-10,91c0-.95,0-1.9,0-2.84a3,3,0,0,0-3.11-3,3,3,0,0,0-3.19,3.14c-.05,1.23.14,2.49,0,3.71-.26,2.16.43,2.94,2.72,2.79C65.62,208.88,65.63,209,65.59,205.32Zm18.76-.18h0c0,1,0,1.9,0,2.85,0,.45,0,1,.6,1,1.67.05,3.35.06,5,0,.56,0,.66-.5.66-1a58,58,0,0,0,0-5.9,2.79,2.79,0,0,0-3.18-2.65,2.9,2.9,0,0,0-3.06,2.81C84.27,203.24,84.35,204.19,84.35,205.14Zm-49.71.75c0,4.3,0,4.3,4.08,3.76a3.15,3.15,0,0,1,.44,0c.63,0,.89-.37.88-1,0-1.75.08-3.51,0-5.25a2.39,2.39,0,0,0-2.68-2.33,2.61,2.61,0,0,0-2.66,2.43A21.52,21.52,0,0,0,34.64,205.89Zm80.78.78a24.25,24.25,0,0,0,0-3.25,2.76,2.76,0,0,0-2.86-2.49,2.37,2.37,0,0,0-2.6,2.17c-.18,1.88-.07,3.78-.09,5.68a.76.76,0,0,0,.77.86c1.51.07,3.21.69,4.48-.08C116.05,209,115.27,207.38,115.42,206.67Zm17.13.56h0a5.66,5.66,0,0,1,0,1.09c-.37,2.05.59,2.74,2.51,2.55a17.07,17.07,0,0,1,1.75.07c.37,0,.85-.09.83-.51-.11-2.23.61-4.56-.61-6.65a2.42,2.42,0,0,0-2.81-1.24,2.24,2.24,0,0,0-1.68,2.5Zm-114.36,0h0c0-.73,0-1.47,0-2.2a2.27,2.27,0,0,0-2.09-2.39,2.18,2.18,0,0,0-2.71,1.92,47.56,47.56,0,0,0-.17,5.48c0,.42.22.62.62.76,2.44.9,4.32-.35,4.34-2.91ZM126.91,181.7c2.43,0,2.43,0,2.57-2.38.05-.87.18-1.74.29-2.61.23-1.77-.68-3.09-2.18-3.17a2.58,2.58,0,0,0-2.81,2.82,9.8,9.8,0,0,1-.2,2.17C123.93,181.26,124.2,181.65,126.91,181.7Zm-56.67-6.16c0,3.71,0,3.64,3.21,3.56,1.32,0,1.63-.56,1.56-1.72s0-2.19,0-3.28c0-1.64-.67-2.77-2.36-2.8s-2.45,1-2.41,2.71C70.25,174.52,70.23,175,70.24,175.54ZM81,176a20.68,20.68,0,0,0,0-2.38c-.18-1.36-.85-2.38-2.38-2.32a2.13,2.13,0,0,0-2.32,2.5,12,12,0,0,1,0,2.61c-.38,2.3.61,2.77,2.76,2.75C82,179.12,80.74,177.09,81,176Zm-18.29,0c0-.59,0-1.17,0-1.75a2.37,2.37,0,0,0-1.51-2.62,2.5,2.5,0,0,0-2.62.54,2.23,2.23,0,0,0-.9,2.86,7,7,0,0,1,.32,2.35c.12,1.27.62,1.88,2.06,1.83C62.78,179.11,62.79,179.2,62.74,176Zm36.41-.19h0c0-.65,0-1.31,0-2a2.18,2.18,0,0,0-3.06-2,2.31,2.31,0,0,0-1.62,2.15c0,1.71-.5,3.45.25,5.12,0,.06.13.07.19.11,2.12,1.27,4.15.18,4.2-2.27Zm-30.3.26c0-1,.06-1.69,0-2.42a2.2,2.2,0,0,0-2.38-2.29,2.23,2.23,0,0,0-2.35,2.36c0,.87,0,1.75,0,2.62.05,2.8.09,2.69,2.82,2.81C70,179.26,68.5,177.07,68.85,176.05ZM88.28,176c0,3.17,0,3,2.22,3.23,2,.18,2.8-.51,2.57-2.53a8.41,8.41,0,0,1,.17-2.39,2.28,2.28,0,0,0-1.94-2.73c-1.32-.37-2.21.4-2.74,1.6A7.88,7.88,0,0,0,88.28,176Zm18.37.54c-.1,3.48-.09,3.37,2.58,3.51,3,.16,2.08-2,2.17-3.46.18-3.22-.47-4.32-2.26-4.34S106.74,173.38,106.65,176.5ZM24,181.3c1-.25,2.73.53,2.6-1.6a31.38,31.38,0,0,0-.5-4.11,2.23,2.23,0,0,0-2.47-2,2.21,2.21,0,0,0-2.2,2.5,30.11,30.11,0,0,1,.34,3.25C21.73,181,22.3,181.67,24,181.3Zm99.67-5c.1-2.12-.6-3.14-2.18-3.24s-2.39.85-2.53,2.39a14,14,0,0,1-.22,2.61c-.54,1.93.19,2.6,2.07,2.77s2.77-.21,2.59-2.27A8.41,8.41,0,0,1,123.68,176.32ZM15.25,177.69c.14,1,.32,2.22.5,3.45a1,1,0,0,0,1,.94c3,.35,4-.67,3.45-3.65a6.73,6.73,0,0,1-.12-1.09c0-1.79-.65-3-2.66-3S15.34,176,15.25,177.69Zm102.34-2c.17-1.71-.43-3-2.26-3.06s-2.48,1.19-2.52,2.88a23.61,23.61,0,0,1-.25,3.26c-.25,1.57,1,1.54,1.78,1.51s2.48,1,2.84-.9C117.4,178.18,117.46,176.93,117.59,175.7Zm13.19,4.1c-.13,1.17,0,1.89,1.53,2,3.15.26,3.13.35,3.3-2.93a18.88,18.88,0,0,0,.3-1.91c-.1-1.24-.23-2.55-1.92-2.68-1.52-.12-2.57.36-2.76,2.05C131.1,177.49,130.93,178.65,130.78,179.8Zm-73.9-3.68a7.27,7.27,0,0,0-.37-2.79,2.38,2.38,0,0,0-4-.91c-.57.59-.6,5.92,0,6.46a1.42,1.42,0,0,0,.57.26C55.78,179.94,56.92,179.1,56.88,176.12Zm48.39.09h.06c0-.66,0-1.32,0-2a2.35,2.35,0,0,0-3.48-2c-1.15.55-2,6.34-1,7.16l.18.11a2.79,2.79,0,0,0,4.27-2.39C105.28,176.79,105.27,176.5,105.27,176.21Zm-71.55-.48c.08,4.75.37,5.05,3.36,4.46,1.21-.24,1.6-.73,1.48-1.89-.15-1.37.1-2.78-.42-4.13a2.22,2.22,0,0,0-2.8-1.48C33.49,173.11,33.62,174.6,33.72,175.73Zm-1.4,2a18.31,18.31,0,0,0,0-2.25c-.21-1.49-1.06-2.51-2.6-2.39s-2.24,1.2-2.14,2.75a21,21,0,0,0,.21,2.38c.51,2.91.51,2.81,3.37,2.32C33.48,180.15,31.9,178.43,32.32,177.73Zm54.58-2.06h0c0-.81.07-1.62,0-2.41a2.18,2.18,0,0,0-3.05-1.79c-1.28.53-2.18,6.52-1.1,7.41a1.13,1.13,0,0,0,.18.12,2.61,2.61,0,0,0,4-2.24C86.91,176.4,86.9,176,86.9,175.67Zm-1,13.7c0-.65.05-1.32,0-2-.15-1.37-.76-2.48-2.3-2.39-1.38.08-2,1.1-2,2.44s.07,2.48,0,3.73c0,.88.26,1.28,1.21,1.39C85.75,192.91,86,192.75,85.88,189.37Zm7.93.61c0-1,0-1.78,0-2.51-.11-1.42-.82-2.4-2.33-2.32s-2,1-2,2.41a25.86,25.86,0,0,1,0,3.05c-.17,1.6.39,2,2,2.18C94.43,193.08,93.78,191.22,93.81,190Zm-32.61-.31a22.91,22.91,0,0,0,0-2.36c-.14-1.31-.84-2.23-2.24-2.17a2,2,0,0,0-2,2.15c0,.94,0,1.88,0,2.83,0,2.77,0,2.7,2.75,2.6S60.68,190.56,61.2,189.67Zm3.59-.37v2.18c0,1.29,1,1.13,1.72,1s2.08.68,2.27-.83A34.8,34.8,0,0,0,69,187.1,2,2,0,0,0,67.17,185a2,2,0,0,0-2.26,1.89A17.38,17.38,0,0,0,64.79,189.3Zm-23.43,1c0,.31.09,1.17.14,2s.63.92,1.23.82,1.76.42,1.83-.57c.12-1.87.66-3.74.19-5.63a1.45,1.45,0,0,0-1.15-1.17,1.56,1.56,0,0,0-1.65.79C41.24,187.55,41.4,188.66,41.36,190.31Zm74.44.15h0c0-.72.06-1.46,0-2.18-.11-1.16-.54-2.26-1.9-2.22s-1.56,1.14-1.58,2.22c0,1.24.09,2.48,0,3.7-.15,1.68.9,1.61,2,1.71,1.41.13,1.56-.62,1.47-1.7C115.76,191.48,115.8,191,115.8,190.46Zm-10-.68h0c0,.81,0,1.61,0,2.42s.57,1.1,1.28,1,2,.54,2.06-.53a14,14,0,0,0-.22-5.87,1.52,1.52,0,0,0-1.67-1.14,1.54,1.54,0,0,0-1.4,1.46A23.08,23.08,0,0,0,105.84,189.78ZM35,190.22h0c0,.73,0,1.46,0,2.19s.25,1.3,1.12,1.15,2,.42,2.1-.91a36.72,36.72,0,0,0-.05-5,1.43,1.43,0,0,0-1.38-1.45,1.55,1.55,0,0,0-1.66,1.43A22.75,22.75,0,0,0,35,190.22Zm-4.64-50.34c1.75-1.53,3.77-2.79,2.68-5.14a8.64,8.64,0,0,1-.66-3.54c0-1.09,0-2.18,0-3.28,0-.44,0-.94-.63-.94a.6.6,0,0,0-.57.77C31.79,131.75,29.74,135.55,30.34,139.88ZM15.71,191.72c0,.8,0,1.32,0,1.83s-.27,1.27.45,1.53a2.23,2.23,0,0,0,2.1-.32c.79-.7.38-1.78.31-2.66-.11-1.47.71-3.95-1.39-4S15.93,190.56,15.71,191.72Zm113.45-.28h0c0-.74.06-1.47,0-2.2-.1-1-.44-2-1.62-2-1,0-1.38,1-1.42,1.94-.07,1.39,0,2.79,0,4.18s1,1.14,1.85,1.26c1,.15,1.32-.32,1.29-1.24C129.14,192.76,129.16,192.1,129.16,191.44Zm6,.68h.07a18.86,18.86,0,0,0-.17-2.61c-.18-.87-.58-1.79-1.69-1.65-.94.13-1.21,1-1.24,1.82q-.09,2.19-.06,4.38c0,1.38,1.17,1,1.94,1.18s1.17-.34,1.15-1.14S135.11,192.77,135.11,192.12Zm-110.68-.36c0-1.18.05-2,0-2.79s-.38-1.52-1.23-1.6-1.28.67-1.46,1.38c-.42,1.65-.13,3.35-.17,5,0,.69.47.77,1,.8C25.29,194.72,24.26,192.69,24.43,191.76ZM32,54.5c.65-.57,2.11,1,2.3-1.18.25-3-1.79-2-3.18-2.15-1.88-.22-1,1.37-1.17,2.1C29.54,55.27,31.23,54.08,32,54.5Z"/><path class="cls-1" d="M30.58,16.4c.06-.65.12-1.3.17-1.95.28-1.35.94-2.68-.86-3.7-.91-.51-.08-1,.53-1.31,1.11-.58,1-1.37.06-1.92A5.17,5.17,0,0,1,28,3.68C28.49,1.91,29.29.44,31.32.07s3.43.71,4.51,2.3l0,3a.9.9,0,0,0-.47.87c-.33.28-.66.57-1,.84-1.76,1.4-1.74,1.64.28,2.71l.09.43-1,1c-.3-.08-.4,0-.34.33a2.83,2.83,0,0,0-.09,2.21,1.89,1.89,0,0,0,.32,2l.56,1L34,17c-2.8-1-1.1-3.4-1.7-5.08-.24-.67,1.11-1.86-.28-1.84-1,0,.17,1.17-.07,1.84C31.45,13.37,33.08,15.52,30.58,16.4ZM29.26,3.89c0,1.46,1.64,3.29,2.67,3,1.54-.4,2.92-1.15,3-3a2.9,2.9,0,0,0-3-2.81A2.75,2.75,0,0,0,29.26,3.89Zm3,4.47L32.17,8s-.13.09-.13.14a2.69,2.69,0,0,0,0,.4Z"/><path class="cls-2" d="M33.6,15.82a1.89,1.89,0,0,1-.32-2C34,14.38,33.68,15.12,33.6,15.82Z"/><path class="cls-2" d="M35.38,6.28a.9.9,0,0,1,.47-.87C36.64,6.21,36,6.22,35.38,6.28Z"/><path class="cls-2" d="M146,202a1.6,1.6,0,0,1,.18-1.28A1.6,1.6,0,0,1,146,202Z"/><path class="cls-2" d="M139.83,189.66a1,1,0,0,1,.15-1A1,1,0,0,1,139.83,189.66Z"/><path class="cls-2" d="M43.89,128.6l-.6.4-.21-.45Z"/><path class="cls-3" d="M78.19,97.82l.32-.5A.39.39,0,0,1,78.19,97.82Z"/><path class="cls-3" d="M4.45,198l-.13.52Z"/><path class="cls-2" d="M139.61,195.71c-.24,0-.45,0-.31-.3Z"/><path class="cls-2" d="M139.44,193.17a.36.36,0,0,1,.09-.56Z"/><path class="cls-2" d="M34.75,10.26l-.09-.43a3.15,3.15,0,0,1,.22.29S34.8,10.21,34.75,10.26Z"/><path class="cls-2" d="M65.33,114.49a.31.31,0,0,1-.42.29Z"/><path class="cls-2" d="M43.13,116.68c-.09-.24,0-.35.24-.28A.31.31,0,0,1,43.13,116.68Z"/><path class="cls-2" d="M33.37,11.59c-.06-.29,0-.41.34-.33Z"/><path class="cls-2" d="M85.94,114.59l-.16,0,0-.17A.21.21,0,0,1,85.94,114.59Z"/><path class="cls-4" d="M76.31,115.77c4.64-1,8.46.35,12.37,3.06,7.07,4.91,14.64,9.1,21.37,14.54,9,7.29,16.9,15.51,21.74,26.26a44.77,44.77,0,0,1,3.29,11.79c.17,1.13-.22,1.37-1.37,1.57-2,.35-3.78-.3-5.56-.4-2.43-.14-4.84-.8-7.16-.7a42.52,42.52,0,0,1-4.81-.4c-2.47-.14-5-.48-7.38-.47-1.72,0-3.41-.3-5-.23-2.57.11-5.05-.36-7.53-.3-1.59,0-3.12-.2-4.59-.17-2.55,0-5.06-.12-7.58-.17-1.61,0-3.22.48-4.89-.21-1.43-.59-2.48.88-3.83.94C75.73,152.51,75.65,134.14,76.31,115.77Z"/><path class="cls-4" d="M74.05,170c-1.33-.28-2.81.58-3.77.35-2.88-.68-5.66.66-8.45,0-.15,0-.31-.14-.42-.1-3,1.07-6.22-.51-9.19.58a2.48,2.48,0,0,1-2.6-.06c-1.44-.94-2.79,0-4.14.5-.43.15-.78,1-1.28.43-1.48-1.59-3.12-.63-4.71-.44-3.11-1.91-4.11-5-4.47-8.34-.72-6.88,2.24-12.66,5.69-18.21,1.56-2.52,2.94-5.21,5.08-7.35l9.4-9.42a7.83,7.83,0,0,0,1.69-2.25,9.88,9.88,0,0,1,4.58-4.44,13.32,13.32,0,0,0,5.24-4.93c1.56-1.65,3.53-.75,5.33-.81a30.47,30.47,0,0,1,3.43.27c.21,14.29-.75,28.58-.45,42.87,0,2.27.09,4.53,0,6.79A9.5,9.5,0,0,1,74.05,170Z"/><path class="cls-4" d="M124.58,210.15c-2.18-.08-4.36-.2-6.54-.23-1,0-1.21-.56-1.2-1.4,0-1.54.06-3.08,0-4.61a4.62,4.62,0,0,0-4.29-4.45c-2.4,0-4,1.79-4.14,4.49v.22c-.11,5.32-.11,5.34-5.36,5.24-3.14,0-6.28-.25-9.42-.29-1.15,0-1.54-.45-1.49-1.57.07-1.68.07-3.37,0-5.05A4.46,4.46,0,0,0,87.51,198a4.38,4.38,0,0,0-4.57,4.34c-.08,1.68-.08,3.36,0,5,.06,1.26-.44,1.65-1.66,1.63q-6.26-.1-12.5,0c-1.21,0-1.73-.34-1.67-1.61a43.23,43.23,0,0,0,0-4.83A4.6,4.6,0,0,0,62.23,198c-2.75.05-4.42,1.85-4.45,4.85,0,.8,0,1.61,0,2.41,0,3.89,0,3.89-3.82,3.7-.93-1.35-2.53-1.18-3.84-1.6-3.09-1-3.85-3.28-1.82-5.7A28.45,28.45,0,0,1,52.62,198c1.39-1.13,3.44-1.25,4.42-3a357.84,357.84,0,0,1,37.63-.19c4.45.17,8.89.36,13.34.51,5.53.19,11.06.49,16.57,1.13Z"/><path class="cls-3" d="M66.7,116.33a13.32,13.32,0,0,1-5.24,4.93,9.88,9.88,0,0,0-4.58,4.44A7.83,7.83,0,0,1,55.19,128l-9.4,9.42c-2.14,2.14-3.52,4.83-5.08,7.35-3.45,5.55-6.41,11.33-5.69,18.21.36,3.37,1.36,6.43,4.47,8.34-.28,1.13-.88.9-1.62.43a3.69,3.69,0,0,0-3.95.1,2.12,2.12,0,0,0-.36.25c-1.55,1.3-2.76-.71-4.32-.45-1.37.24-2.21,2.42-4,1a2.19,2.19,0,0,0-2.51-.14c-1.68,1.11-3.33,1-5.22.55-1.24-.28-1.39-.69-1.27-1.71A42.28,42.28,0,0,1,22,154.41,73.82,73.82,0,0,1,35.5,138c7.51-6.8,15.92-12.36,24.58-17.54C62.33,119.16,64.16,117.17,66.7,116.33Z"/><path class="cls-4" d="M57.05,181.48c14.63-.81,29.24-.42,43.87.2,6.21.27,12.41.55,18.61,1,5.67.45,11.33,1.12,17,1.58,1.49.12,1.87.71,1.69,2.07-.34,2.61-.6,5.23-.9,7.84-.05.42,0,1-.55,1-.8.06-.65-.64-.66-1.1,0-1.39,0-2.79,0-4.18-.06-1.64-.54-3.11-2.44-3.39-1.42-.2-2.61,1.28-2.75,3.35-.09,1.38-.08,2.77-.14,4.16,0,.11-.16.21-.4.51-.74-1.74-.3-3.38-.38-5a4,4,0,0,0-.58-2.51,2.21,2.21,0,0,0-2.26-1,2.54,2.54,0,0,0-2,2.4,30.45,30.45,0,0,0-.09,4.38c0,1.1-.23,1.64-1.49,1.47a36.76,36.76,0,0,0-4.8-.34c-1.48,0-2.18-.47-2-2a25.84,25.84,0,0,0,0-3.52c-.1-2.3-1.29-3.85-2.91-3.68-2.22.25-2.42,1.91-2.5,3.72-.07,1.66.48,3.43-.44,5.08-1-.43-.65-1.1-.67-1.63-.07-1.68.06-3.38-.16-5a2.64,2.64,0,0,0-2.82-2.53c-1.63.06-2.25,1.32-2.39,2.69a29.23,29.23,0,0,0,0,4.39c0,1.22-.42,1.75-1.67,1.67-2.4-.15-4.81-.29-7.22-.36-1,0-1.12-.6-1.18-1.42-.13-1.73.25-3.45-.25-5.21a2.85,2.85,0,0,0-2.73-2.39A3.1,3.1,0,0,0,88.62,186a9.37,9.37,0,0,0-.36,3c0,1.06.33,2.18-.33,3.28-1-.48-.62-1.37-.67-2.07-.1-1.45.18-3-.44-4.34a3.32,3.32,0,0,0-3.21-2.24,3.08,3.08,0,0,0-2.93,2.25,7.25,7.25,0,0,0-.14,4.3c.36,1.44,0,2.35-1.83,2.23-2.33-.15-4.68-.07-7,0-1.12,0-1.61-.34-1.53-1.51s.07-2.34,0-3.52c-.06-2.2-1.41-3.77-3.18-3.76a3.85,3.85,0,0,0-3.43,3.67c-.09,1.39,0,2.78-.06,4.17,0,.53-.08,1.13-.8,1s-.44-.67-.44-1.07c0-1.39.07-2.79,0-4.17A3.49,3.49,0,0,0,59,183.7a3.72,3.72,0,0,0-3.35,3.5,31,31,0,0,0,0,3.73c.06,1.28-.37,1.89-1.74,1.86-2.13,0-4.25,0-6.37.09-1.28.05-1.65-.49-1.62-1.69,0-1.82.27-3.67-.39-5.44a45.23,45.23,0,0,1,4.87-1.93C52.6,183,55.22,183.33,57.05,181.48Z"/><path class="cls-3" d="M57,195.07c-1,1.7-3,1.82-4.42,3a28.45,28.45,0,0,0-4.31,3.61c-2,2.42-1.27,4.72,1.82,5.7,1.31.42,2.91.25,3.84,1.6a90.39,90.39,0,0,1-10.27.58c-1.59,0-2.33-.33-2.14-2a21.65,21.65,0,0,0,0-3.51c-.15-2.55-2.08-4.56-4.22-4.5a4.88,4.88,0,0,0-4.48,4.61c0,.51,0,1,0,1.54,0,4.4,0,4.44-4.39,4.66-2.41.11-4.83,0-7.24.06-1.12,0-1.62-.31-1.56-1.49.08-1.39,0-2.79,0-4.18a3.33,3.33,0,0,0-2.51-3.46,3.71,3.71,0,0,0-4.42,1.51c-1.34,1.93-1,4-1.09,6.14,0,1.09.21,2.24-1.5,2.34-1.53.1-2.49-.16-2.64-1.94-.26-3.12-.66-6.23-1-9.34-.13-1.19.38-1.7,1.6-1.79,9.31-.66,18.55-1.94,27.89-2.35C43,195.45,50,194.79,57,195.07Z"/><path class="cls-3" d="M75.25,211.32c9.36,0,18.73-.17,28.08.05,9.56.22,19.12.76,28.67,1.28,5.09.28,10.17.78,15.26,1.23a4.47,4.47,0,0,1,3.21,1.68,1.35,1.35,0,0,1,.3,1c-.11.44-.59.32-.94.29-11.62-1.15-23.29-1.62-35-2.21-21-1.07-42-.85-63-.66-7.73.08-15.47.51-23.21.82-9.11.37-18.2,1.14-27.29,1.72-.45,0-1,.63-1.34-.08S.44,215.36.9,215a8.48,8.48,0,0,1,4.74-1.5c9.48-.34,18.94-1.11,28.42-1.48,9.94-.39,19.86-.73,29.8-.91A92.16,92.16,0,0,1,75.25,211.32Z"/><path class="cls-2" d="M25.54,145.27c0-1.68-.14-3.36-.05-5,.25-4.31-.75-8.56-.49-12.87,0-.56.08-1.21-.68-1.43s-1.22.25-1.47.93a23,23,0,0,0,0,6.26c-1.35.05-.58-1-.59-1.39-.06-5.44,0-10.89,0-16.34,1.65.2,2-1.05,2.17-2.18.2-1.29.92-1.63,2.05-1.81a33,33,0,0,1,17.35,1.76l-.08,1.3c-.64.11-1.53-.24-1.65.86,0,3.67-.09,7.34-.13,11l-1.22.06c-1.24-.31-2-.07-1.74,1.45,0,.07,0,.15,0,.22.84,3.82-1.14,6.13-4.2,7.8-1.55-2.4-1.39-5.14-1.32-7.85,0-1.2,0-2.16-1.69-2.15s-1.65,1.12-1.56,2.22c.39,4.35-1.32,8.51-1.1,12.89.1,1.76-1.95,3-3.37,4.25Z"/><path class="cls-2" d="M25.83,80.34l5.66,0,.23.54.26-.52h7.43l.38.32.5.49.26.39q0,8.43.11,16.87c0,1.12-.32,1.54-1.56,1.29a44.52,44.52,0,0,0-13.29-.26Q25.83,89.88,25.83,80.34Z"/><path class="cls-3" d="M57.05,181.48c-1.83,1.85-4.45,1.5-6.64,2.34a45.23,45.23,0,0,0-4.87,1.93,2.45,2.45,0,0,0-2.88-1.31c-1.71.53-2,2.05-2.4,3.53l-.79.42c0-.14,0-.29,0-.43-.16-1.78-.89-3.44-2.8-3.29s-2.75,1.76-2.88,3.64c0,.51,0,1,0,1.54,0,3.87-.64,4.52-4.51,4.64h-.44c-4,0-3.31.32-3.37-3.38,0-.81,0-1.62,0-2.42-.07-1.37-.64-2.62-2.06-2.73-1.64-.13-2.49,1.18-2.73,2.64a32.25,32.25,0,0,0-.1,3.94c0,.7.25,1.46-.38,2.27-.89-1.31-.41-2.69-.45-4-.1-2.8-.84-4.23-2.41-4.27s-2.81,1.69-2.85,4.27a24.34,24.34,0,0,1-.3,4.32c-1.49-1.89-.75-4.26-1.45-6.3a3.64,3.64,0,0,1,0-.88c-.19-3.76-.18-3.64,3.81-4,11.27-1,22.53-2,33.85-2.31A58.89,58.89,0,0,1,57.05,181.48Z"/><path class="cls-3" d="M31.75,100a47.83,47.83,0,0,1,11.37,1.54,2.85,2.85,0,0,1,2.53,3.43,25.7,25.7,0,0,0,0,3.51c.07,1.36-.36,1.32-1.52.92A36.84,36.84,0,0,0,20,109.29c-1.36.44-1.57.29-1.61-1.07-.17-6.23-.21-6.23,6-7.48A35.64,35.64,0,0,1,31.75,100Z"/><path class="cls-3" d="M124.58,210.15V196.52l18,1.59c1,.09,1.46.59,1.38,1.57-.31,3.56-.56,7.12-1,10.66-.18,1.48-1.51.73-2.33.83s-1.82,0-1.84-1.3c0-1.46,0-2.93,0-4.39-.07-2.62-1.76-4.41-4.15-4.42s-3.43,1.47-3.45,4.35c0,5,0,5.05-5.11,4.89C125.6,210.29,125.09,210.2,124.58,210.15Z"/><path class="cls-2" d="M28.39,31.37A10.32,10.32,0,0,1,29,30c1.93-3.08,4.55-3.13,6.17.15a18.93,18.93,0,0,1,0,17.75c-1.64,3.23-4.3,3.12-6.18,0a6.07,6.07,0,0,1-1-2.42c1.23-.21,1-1.2.82-1.89a23.46,23.46,0,0,1,.39-10.31C29.33,32.51,29.61,31.6,28.39,31.37Z"/><path class="cls-5" d="M124.24,144h14.49v14.95l-5,0A73.76,73.76,0,0,0,124.24,144Z"/><path class="cls-2" d="M30.64,59.11C35,58.9,35,58.9,35.48,63.25s1.17,8.38,1.7,12.57a20.66,20.66,0,0,1-.08,3l-.33.3-7.87,0c-1-2.35-.33-4.83.18-7A59.65,59.65,0,0,0,30.64,59.11Z"/><path class="cls-3" d="M75.57,114.3a35.28,35.28,0,0,1-4.6,0c-2.1-.3-2.53-1.58-1-3.11a24,24,0,0,1,3.52-2.59,3.49,3.49,0,0,0,.91-5.19c-.33-.46-.68-.74-.06-1.22,1.31-1,1.12-2.69.94-3.82a7.87,7.87,0,0,1,.12-3c.22-1.21.58-2.63-.34-3.8-.32-.41-.15-.64.2-.87a.83.83,0,0,1,1-.08c.32.24.52.62.18.93-.89.84-.27,1.76-.24,2.67,0,1.54,1,3,.17,4.68a2.27,2.27,0,0,0,1,3.21c.65.29.5.65.13,1.19-1.51,2.15-1.13,4,1,5.51.85.57,1.78,1,2.6,1.63a2.76,2.76,0,0,1,1.28,2.85c-.24,1.14-1.48.62-2.2,1a1.38,1.38,0,0,1-.65.06h-4Z"/><path class="cls-3" d="M43.77,113.17a33,33,0,0,0-17.35-1.76c-1.13.18-1.85.52-2.05,1.81-.18,1.13-.52,2.38-2.17,2.18-1-.22-2.11-.24-2-1.75,0-.17-.18-.39-.33-.53-1.82-1.64-1.84-1.93.59-2.85a33.28,33.28,0,0,1,23.57.06c.7.25,1.55.49,1.48,1.62S44.42,112.85,43.77,113.17Z"/><path class="cls-3" d="M65.59,205.32c0,3.71,0,3.56-3.6,3.8-2.29.15-3-.63-2.72-2.79.15-1.22,0-2.48,0-3.71a3,3,0,0,1,3.19-3.14,3,3,0,0,1,3.11,3C65.64,203.42,65.59,204.37,65.59,205.32Z"/><path class="cls-3" d="M84.35,205.14c0-.95-.08-1.9,0-2.84a2.9,2.9,0,0,1,3.06-2.81,2.79,2.79,0,0,1,3.18,2.65,58,58,0,0,1,0,5.9c0,.46-.1,1-.66,1-1.67,0-3.35,0-5,0-.58,0-.6-.53-.6-1,0-1,0-1.9,0-2.85Z"/><path class="cls-3" d="M34.64,205.89a21.52,21.52,0,0,1,0-2.41,2.61,2.61,0,0,1,2.66-2.43A2.39,2.39,0,0,1,40,203.38c.13,1.74,0,3.5,0,5.25,0,.62-.25,1-.88,1a3.15,3.15,0,0,0-.44,0C34.61,210.19,34.61,210.19,34.64,205.89Z"/><path class="cls-3" d="M115.42,206.67c-.15.71.63,2.3-.33,2.89-1.27.77-3,.15-4.48.08a.76.76,0,0,1-.77-.86c0-1.9-.09-3.8.09-5.68a2.37,2.37,0,0,1,2.6-2.17,2.76,2.76,0,0,1,2.86,2.49A24.25,24.25,0,0,1,115.42,206.67Z"/><path class="cls-3" d="M25.83,80.34q0,9.54,0,19.08c-1.74.77-2.43.35-2.39-1.69.12-5.09.06-10.19,0-15.28C23.44,80.76,24.08,80,25.83,80.34Z"/><path class="cls-3" d="M30.64,59.11a59.65,59.65,0,0,1-1.56,13.08c-.51,2.17-1.22,4.65-.18,7-1.75.45-2.19-.26-2.17-2a41.84,41.84,0,0,1,1.49-11.14c.58-2,0-4.15.71-6.2C29.33,58.69,29.8,58.75,30.64,59.11Z"/><path class="cls-3" d="M132.55,207.23V205a2.24,2.24,0,0,1,1.68-2.5,2.42,2.42,0,0,1,2.81,1.24c1.22,2.09.5,4.42.61,6.65,0,.42-.46.51-.83.51a17.07,17.07,0,0,0-1.75-.07c-1.92.19-2.88-.5-2.51-2.55a5.66,5.66,0,0,0,0-1.09Z"/><path class="cls-3" d="M18.19,207.21v.66c0,2.56-1.9,3.81-4.34,2.91-.4-.14-.63-.34-.62-.76a47.56,47.56,0,0,1,.17-5.48,2.18,2.18,0,0,1,2.71-1.92A2.27,2.27,0,0,1,18.2,205c0,.73,0,1.47,0,2.2Z"/><path class="cls-4" d="M126.91,181.7c-2.71,0-3-.44-2.33-3.17a9.8,9.8,0,0,0,.2-2.17,2.58,2.58,0,0,1,2.81-2.82c1.5.08,2.41,1.4,2.18,3.17-.11.87-.24,1.74-.29,2.61C129.34,181.72,129.34,181.74,126.91,181.7Z"/><path class="cls-4" d="M70.24,175.54c0-.51,0-1,0-1.53,0-1.67.72-2.75,2.41-2.71S75,172.46,75,174.1c0,1.09-.06,2.19,0,3.28s-.24,1.69-1.56,1.72C70.25,179.18,70.25,179.25,70.24,175.54Z"/><path class="cls-4" d="M81,176c-.29,1.11.93,3.14-2,3.16-2.15,0-3.14-.45-2.76-2.75a12,12,0,0,0,0-2.61,2.13,2.13,0,0,1,2.32-2.5c1.53-.06,2.2,1,2.38,2.32A20.68,20.68,0,0,1,81,176Z"/><path class="cls-4" d="M62.74,176c0,3.22,0,3.13-2.65,3.21-1.44.05-1.94-.56-2.06-1.83a7,7,0,0,0-.32-2.35,2.23,2.23,0,0,1,.9-2.86,2.5,2.5,0,0,1,2.62-.54,2.37,2.37,0,0,1,1.51,2.62C62.71,174.81,62.74,175.39,62.74,176Z"/><path class="cls-4" d="M99.15,175.79v1.1c-.05,2.45-2.08,3.54-4.2,2.27-.06,0-.16,0-.19-.11-.75-1.67-.27-3.41-.25-5.12a2.31,2.31,0,0,1,1.62-2.15,2.18,2.18,0,0,1,3.06,2c0,.66,0,1.32,0,2Z"/><path class="cls-4" d="M68.85,176.05c-.35,1,1.11,3.21-1.9,3.08-2.73-.12-2.77,0-2.82-2.81,0-.87,0-1.75,0-2.62a2.23,2.23,0,0,1,2.35-2.36,2.2,2.2,0,0,1,2.38,2.29C68.91,174.36,68.85,175.09,68.85,176.05Z"/><path class="cls-4" d="M88.28,176a7.88,7.88,0,0,1,.28-2.82c.53-1.2,1.42-2,2.74-1.6a2.28,2.28,0,0,1,1.94,2.73,8.41,8.41,0,0,0-.17,2.39c.23,2-.54,2.71-2.57,2.53C88.26,179,88.24,179.13,88.28,176Z"/><path class="cls-4" d="M106.65,176.5c.09-3.12.78-4.31,2.49-4.29s2.44,1.12,2.26,4.34c-.09,1.45.78,3.62-2.17,3.46C106.56,179.87,106.55,180,106.65,176.5Z"/><path class="cls-3" d="M24,181.3c-1.71.37-2.28-.35-2.23-2a30.11,30.11,0,0,0-.34-3.25,2.21,2.21,0,0,1,2.2-2.5,2.23,2.23,0,0,1,2.47,2,31.38,31.38,0,0,1,.5,4.11C26.74,181.83,25,181.05,24,181.3Z"/><path class="cls-4" d="M123.68,176.32a8.41,8.41,0,0,0-.27,2.26c.18,2.06-.76,2.44-2.59,2.27s-2.61-.84-2.07-2.77a14,14,0,0,0,.22-2.61c.14-1.54,1-2.49,2.53-2.39S123.78,174.2,123.68,176.32Z"/><path class="cls-3" d="M15.25,177.69c.09-1.74.05-3.32,2.19-3.34s2.65,1.2,2.66,3a6.73,6.73,0,0,0,.12,1.09c.51,3-.45,4-3.45,3.65a1,1,0,0,1-1-.94C15.57,179.91,15.39,178.69,15.25,177.69Z"/><path class="cls-4" d="M117.59,175.7c-.13,1.23-.19,2.48-.41,3.69-.36,1.89-1.87.87-2.84.9s-2,.06-1.78-1.51a23.61,23.61,0,0,0,.25-3.26c0-1.69.69-3,2.52-2.88S117.76,174,117.59,175.7Z"/><path class="cls-4" d="M130.78,179.8c.15-1.15.32-2.31.45-3.46.19-1.69,1.24-2.17,2.76-2.05,1.69.13,1.82,1.44,1.92,2.68a18.88,18.88,0,0,1-.3,1.91c-.17,3.28-.15,3.19-3.3,2.93C130.81,181.69,130.65,181,130.78,179.8Z"/><path class="cls-4" d="M56.88,176.12c0,3-1.1,3.82-3.83,3a1.42,1.42,0,0,1-.57-.26c-.58-.54-.55-5.87,0-6.46a2.38,2.38,0,0,1,4,.91A7.27,7.27,0,0,1,56.88,176.12Z"/><path class="cls-4" d="M105.27,176.21c0,.29,0,.58,0,.87a2.79,2.79,0,0,1-4.27,2.39l-.18-.11c-1-.82-.12-6.61,1-7.16a2.35,2.35,0,0,1,3.48,2c0,.66,0,1.32,0,2Z"/><path class="cls-3" d="M33.72,175.73c-.1-1.13-.23-2.62,1.62-3a2.22,2.22,0,0,1,2.8,1.48c.52,1.35.27,2.76.42,4.13.12,1.16-.27,1.65-1.48,1.89C34.09,180.78,33.8,180.48,33.72,175.73Z"/><path class="cls-3" d="M74.05,170a9.5,9.5,0,0,0,.94-4.59c.11-2.26.07-4.52,0-6.79-.3-14.29.66-28.58.45-42.87l.85,0c-.66,18.37-.58,36.74-.94,55.11Z"/><path class="cls-3" d="M32.32,177.73c-.42.7,1.16,2.42-1.17,2.81-2.86.49-2.86.59-3.37-2.32a21,21,0,0,1-.21-2.38c-.1-1.55.6-2.64,2.14-2.75s2.39.9,2.6,2.39A18.31,18.31,0,0,1,32.32,177.73Z"/><path class="cls-4" d="M86.9,175.67c0,.36,0,.73,0,1.09a2.61,2.61,0,0,1-4,2.24,1.13,1.13,0,0,1-.18-.12c-1.08-.89-.18-6.88,1.1-7.41a2.18,2.18,0,0,1,3.05,1.79c.08.79,0,1.6,0,2.41Z"/><path class="cls-3" d="M85.88,189.37c.07,3.38-.13,3.54-3,3.2-.95-.11-1.23-.51-1.21-1.39,0-1.25,0-2.49,0-3.73s.6-2.36,2-2.44c1.54-.09,2.15,1,2.3,2.39C85.93,188.05,85.88,188.72,85.88,189.37Z"/><path class="cls-3" d="M93.81,190c0,1.24.62,3.1-2.28,2.81-1.64-.16-2.2-.58-2-2.18a25.86,25.86,0,0,0,0-3.05c0-1.36.57-2.34,2-2.41s2.22.9,2.33,2.32C93.85,188.2,93.81,188.93,93.81,190Z"/><path class="cls-3" d="M61.2,189.67c-.52.89,1.15,3-1.57,3.05s-2.75.17-2.75-2.6c0-1,0-1.89,0-2.83a2,2,0,0,1,2-2.15c1.4-.06,2.1.86,2.24,2.17A22.91,22.91,0,0,1,61.2,189.67Z"/><path class="cls-4" d="M30.58,16.4c2.5-.88.87-3,1.4-4.51.24-.67-.89-1.82.07-1.84,1.39,0,0,1.17.28,1.84.6,1.68-1.1,4.12,1.7,5.08,0,.22.12.51,0,.64C32.4,19.93,33,22.45,33.17,25s-1.64,1.31-2.81,1.15c0-.45,0-.89,0-1.33,1.46-1.84,1.11-3.92.38-5.8a3.86,3.86,0,0,1-.1-2.65Z"/><path class="cls-3" d="M44.5,175.11c.06.73.06,1.46.18,2.18.34,2-.56,2.71-2.52,2.74-1.61,0-2.5-.27-2.29-2.13a34.1,34.1,0,0,0,0-3.5c0-.94.14-1.79,1.37-1.82C41.64,174.29,43,174.82,44.5,175.11Z"/><path class="cls-3" d="M64.79,189.3a17.38,17.38,0,0,1,.12-2.4A2,2,0,0,1,67.17,185,2,2,0,0,1,69,187.1a34.8,34.8,0,0,1-.23,4.57c-.19,1.51-1.48.7-2.27.83s-1.72.27-1.72-1Z"/><path class="cls-3" d="M41.36,190.31c0-1.65-.12-2.76.59-3.72a1.56,1.56,0,0,1,1.65-.79A1.45,1.45,0,0,1,44.75,187c.47,1.89-.07,3.76-.19,5.63-.07,1-1.19.47-1.83.57s-1.19,0-1.23-.82S41.38,190.62,41.36,190.31Z"/><path class="cls-3" d="M115.8,190.46c0,.51,0,1,0,1.53.09,1.08-.06,1.83-1.47,1.7-1.15-.1-2.2,0-2-1.71.1-1.22,0-2.46,0-3.7,0-1.08.3-2.18,1.58-2.22s1.79,1.06,1.9,2.22c.07.72,0,1.46,0,2.18Z"/><path class="cls-3" d="M105.84,189.78a23.08,23.08,0,0,1,0-2.63,1.54,1.54,0,0,1,1.4-1.46,1.52,1.52,0,0,1,1.67,1.14,14,14,0,0,1,.22,5.87c-.11,1.07-1.33.46-2.06.53s-1.31-.09-1.28-1,0-1.61,0-2.42Z"/><path class="cls-3" d="M35,190.22a22.75,22.75,0,0,1,.17-2.62,1.55,1.55,0,0,1,1.66-1.43,1.43,1.43,0,0,1,1.38,1.45,36.72,36.72,0,0,1,.05,5c-.1,1.33-1.32.78-2.1.91S35,193.21,35,192.41s0-1.46,0-2.19Z"/><path class="cls-3" d="M30.34,139.88c-.6-4.33,1.45-8.13.8-12.13a.6.6,0,0,1,.57-.77c.59,0,.63.5.63.94,0,1.1,0,2.19,0,3.28a8.64,8.64,0,0,0,.66,3.54C34.11,137.09,32.09,138.35,30.34,139.88Z"/><path class="cls-5" d="M21.84,71c.5,0,1,0,1.51,0,1.21-.06,1.56.24,1.31,1.63a24.74,24.74,0,0,0-.63,6.6l-1.7,1.47c-1-1.62-.34-3.39-.46-5.09C21.76,74,21.84,72.49,21.84,71Z"/><path class="cls-3" d="M28.39,31.37c1.22.23.94,1.14.78,1.88a23.46,23.46,0,0,0-.39,10.31c.16.69.41,1.68-.82,1.89-1.85-4.4-1.21-8.86-.29-13.32C27.74,31.84,28.14,31.62,28.39,31.37Z"/><path class="cls-4" d="M46.12,176.45a23.54,23.54,0,0,1-.14-2.37,1.78,1.78,0,0,1,1.88-1.91c1.2,0,2.43.21,2.54,1.71.11,1.28.55,2.55.26,3.86Z"/><path class="cls-3" d="M27.7,57.62c.13-.79-.06-1.67,1.21-1.81a18.92,18.92,0,0,1,6.67.09c.45.11,1.1.14,1.09.84s-.5.82-1,1a16.47,16.47,0,0,1-7.71.06A.17.17,0,0,1,27.7,57.62Z"/><path class="cls-3" d="M15.71,191.72c.22-1.16-.68-3.65,1.48-3.61s1.28,2.52,1.39,4c.07.88.48,2-.31,2.66a2.23,2.23,0,0,1-2.1.32c-.72-.26-.4-1-.45-1.53S15.71,192.52,15.71,191.72Z"/><path class="cls-3" d="M129.16,191.44c0,.66,0,1.32,0,2,0,.92-.31,1.39-1.29,1.24-.82-.12-1.88.13-1.85-1.26s0-2.79,0-4.18c0-.92.4-1.89,1.42-1.94,1.18-.05,1.52,1,1.62,2,.07.73,0,1.46,0,2.2Z"/><path class="cls-3" d="M135.11,192.12c0,.65,0,1.31,0,2s-.29,1.31-1.15,1.14-1.93.2-1.94-1.18,0-2.92.06-4.38c0-.83.3-1.69,1.24-1.82,1.11-.14,1.51.78,1.69,1.65a18.86,18.86,0,0,1,.17,2.61Z"/><path class="cls-3" d="M24.43,191.76c-.17.93.86,3-1.84,2.82-.57,0-1.06-.11-1-.8,0-1.68-.25-3.38.17-5,.18-.71.58-1.46,1.46-1.38s1.17.84,1.23,1.6S24.43,190.58,24.43,191.76Z"/><path class="cls-2" d="M32,54.5c-.77-.42-2.46.77-2.05-1.23.14-.73-.71-2.32,1.17-2.1,1.39.16,3.43-.83,3.18,2.15C34.11,55.54,32.65,53.93,32,54.5Z"/><path class="cls-3" d="M46.12,176.45l4.54,1.29c.5,1.58-.34,2-1.68,1.81-1.14-.17-3,.95-2.95-1.58C46.05,177.46,46.09,177,46.12,176.45Z"/><path class="cls-3" d="M25.54,145.27l.17,0c-.37,1.47-1.66,2.33-2.38,3.57-.17.29-.41.63-.86.43s-.27-.61-.35-.93C21.29,145.06,23.82,145.62,25.54,145.27Z"/><path class="cls-4" d="M44.5,175.11c-1.52-.29-2.86-.82-3.29-2.53C43.17,172.29,44.6,172.7,44.5,175.11Z"/><path class="cls-3" d="M40.69,126.4l1.22-.06c0,.92.1,1.85.12,2.78,0,.5,0,1.09-.65,1.14s-.6-.63-.63-1.07C40.7,128.26,40.71,127.33,40.69,126.4Z"/><path class="cls-4" d="M39.47,188.39l.79-.42v5h-.67A20.69,20.69,0,0,1,39.47,188.39Z"/><path class="cls-3" d="M22.81,133.13a23,23,0,0,1,0-6.26A20.85,20.85,0,0,1,22.81,133.13Z"/><path class="cls-3" d="M42,115.33c.12-1.1,1-.75,1.65-.86C43.63,115.7,42.56,115,42,115.33Z"/><path class="cls-3" d="M32,80.33l-.26.52-.23-.54Z"/><path class="cls-3" d="M36.77,79.16l.33-.3C37.17,79.16,37,79.22,36.77,79.16Z"/><path class="cls-2" d="M10.41,183.94l.2-.38Z"/><path class="cls-3" d="M39.79,80.64l-.38-.32C39.71,80.22,39.8,80.38,39.79,80.64Z"/><path class="cls-3" d="M40.55,81.52l-.26-.39C40.6,81.1,40.64,81.27,40.55,81.52Z"/><path class="cls-5" d="M22.28,82.83c-.31-.18-.25-.32,0-.44Z"/><path class="cls-1" d="M29.34,17.32l.44-.88.84-.05a3.86,3.86,0,0,0,.1,2.65c.73,1.88,1.08,4-.38,5.8a7,7,0,0,1,.13-3.4c.5-1.22-.37-2-1.07-2.86Z"/><path class="cls-3" d="M29.34,17.32l.06,1.26-.53.05C28.92,18.15,28.73,17.59,29.34,17.32Z"/><path class="cls-3" d="M29.26,3.89a2.75,2.75,0,0,1,2.62-2.81,2.9,2.9,0,0,1,3,2.81c-.07,1.87-1.45,2.62-3,3C30.9,7.18,29.29,5.35,29.26,3.89Z"/><path class="cls-4" d="M32.3,8.36l-.23.17a2.69,2.69,0,0,1,0-.4c0-.05.09-.09.13-.14Z"/></g></g></svg>