<svg xmlns="http://www.w3.org/2000/svg" viewBox="0 0 79.28 62.9"><defs><style>.cls-1{fill:#231f20;}.cls-2{fill:#dfdfdf;}.cls-3{fill:#c69b6f;}</style></defs><g id="Layer_2" data-name="Layer 2"><g id="Layer_1-2" data-name="Layer 1"><polygon class="cls-1" points="39.1 62.64 0 59.72 1.19 7.95 40.07 0 39.1 62.64"/><polygon class="cls-1" points="79.28 59.95 39.44 62.9 40.06 0.01 78.22 8.11 79.28 59.95"/><path class="cls-2" d="M5.18,50.1a22.33,22.33,0,0,1-4-4.21c-.26-.36-.36-.51.22-.65A6.64,6.64,0,0,0,5.46,42a18,18,0,0,0,2.23-6.45c.16-.94.27-1.89.47-2.84.08.82.14,1.64.24,2.45a16.06,16.06,0,0,0,2.23,7A3.94,3.94,0,0,0,13.3,44,3.87,3.87,0,0,0,17,42.6a12.1,12.1,0,0,0,2.65-5.26c.06-.2.11-.41.18-.7.24.78.42,1.49.67,2.18a7.94,7.94,0,0,0,3,4.17c1.83,1.21,3.25,1,4.64-.7.23-.29.45-.59.65-.9a25.28,25.28,0,0,0,2.79-6.5,11.59,11.59,0,0,1,.53-1.49c.14,1,.26,1.93.42,2.89a29.87,29.87,0,0,0,2.8,9.33,11.08,11.08,0,0,0,1.35,2,3.83,3.83,0,0,0,6.23,0,13.78,13.78,0,0,0,2.48-4.52,40.24,40.24,0,0,0,1.9-8.4,5.89,5.89,0,0,1,.26-1.26c.23.75.43,1.5.68,2.24a21.27,21.27,0,0,0,3,6.44c1.62,2.12,3.21,2.24,5.42.44a9.32,9.32,0,0,0,2.89-5.21c.06-.21.11-.41.19-.7A15.86,15.86,0,0,0,61.45,41a7.5,7.5,0,0,0,2,2.33,3.66,3.66,0,0,0,5.15-.72,12.94,12.94,0,0,0,2.24-5.32,29.15,29.15,0,0,0,.53-4.05,2.28,2.28,0,0,1,.1-.57,39.89,39.89,0,0,0,.77,4.5A14.59,14.59,0,0,0,74.86,43a6.12,6.12,0,0,0,3.38,2.26c.47.11.55.19.24.6a22.37,22.37,0,0,1-3.81,4,.74.74,0,0,0-.24.4h3.12c.41,0,.81,0,1.22,0,.19,0,.29,0,.29.25s-.1.27-.29.26c-.72,0-1.44,0-2.16,0-.28,0-.38,0-.37.33q0,1.17,0,2.34c0,.33.13.38.41.37h2.11c.17,0,.4-.1.41.24s-.22.27-.39.25c-.38,0-.51.09-.49.48a14.24,14.24,0,0,1,0,1.46c0,.45-.11,1,.63.81.18,0,.22.11.23.27s-.12.25-.3.25c-.78,0-1.56,0-2.34,0-.39,0-.57.08-.53.51,0,.59,0,1.17,0,1.75l1.73-.06c.31,0,.62-.08.93-.07s.55-.23.59.22-.33.3-.54.32c-.6.07-1.2.1-1.81.14l-14.82,1-15.63,1c-2,.14-4,.31-5.95.43a51.33,51.33,0,0,1-5.26-.27c-2-.11-4.08-.27-6.12-.41l-9.75-.67L11.88,61l-9.8-.67c-.45,0-.9-.05-1.35-.07-.21,0-.45,0-.42-.33s.26-.23.43-.22c.82.05,1.64.08,2.45.18.37,0,.43-.07.42-.39,0-.6.2-1.38-.1-1.76s-1.13-.1-1.73-.14c-.35,0-.7,0-1,0-.19,0-.29-.05-.29-.26s.11-.29.29-.26c.54.09.6-.2.57-.64a11.89,11.89,0,0,1,0-1.58c0-.39-.06-.6-.5-.53-.18,0-.4.07-.39-.26s.21-.23.37-.23c.73,0,1.45,0,2.17,0,.3,0,.41-.07.4-.39,0-.76,0-1.53,0-2.29,0-.28,0-.4-.38-.38-.64,0-1.29,0-1.93,0-.19,0-.51.17-.5-.26s.29-.23.46-.23H5.15Zm29.24,8c-.72,0-1.45,0-2.17,0-.41,0-.58.06-.56.53,0,.92,0,1.83,0,2.75,0,.36.07.5.46.51.8,0,1.6.11,2.39.17,1.77.12,3.54.36,5.31.32,2.57-.06,5.13-.33,7.69-.49.29,0,.35-.13.35-.39,0-1,0-1.92,0-2.87,0-.47-.15-.54-.56-.53-2,.05-3.91,0-5.85.1C39.13,58.23,36.78,58.08,34.42,58.06Zm5.42-3.73c-1.45,0-2.89,0-4.33,0-.37,0-.53.06-.5.47.06.8.08,1.6.09,2.4,0,.29.07.4.39.4q4.31,0,8.6,0c.3,0,.41-.06.41-.38,0-.8,0-1.6.09-2.39,0-.38-.09-.5-.48-.49C42.69,54.34,41.26,54.33,39.84,54.33ZM25.63,59.67c0-.47,0-.94,0-1.4,0-.22-.06-.31-.29-.31l-5.61-.1c-.26,0-.34.08-.34.33q0,1.26,0,2.52c0,.24.09.28.31.29,1.86.11,3.73.23,5.59.37.26,0,.34,0,.34-.3C25.62,60.61,25.63,60.14,25.63,59.67Zm30.75-1.81V58c-.67,0-1.33,0-2,0-.32,0-.44.07-.43.42,0,.85,0,1.71,0,2.57,0,.34,0,.46.44.43,1.82-.15,3.65-.26,5.47-.36.33,0,.33-.17.33-.4,0-.76,0-1.52,0-2.28,0-.41-.13-.48-.5-.48C58.59,57.88,57.48,57.86,56.38,57.86Zm-16.54-4c.45,0,.89,0,1.34,0s1.15.21,1.47-.09.06-1,.13-1.51-.06-1.12-.77-1.32a2,2,0,0,1-.69-.42c-1.33-1.12-1.77-1.12-3,0-.44.39-1.25.38-1.41,1a7.18,7.18,0,0,0,0,1.86v0c0,.35.11.43.44.42Zm-12.23,0h2.45c.28,0,.38-.07.38-.35,0-1,0-2.1.09-3.15,0-.29-.11-.37-.38-.36-.81,0-1.63,0-2.44.08-.33,0-.72-.12-1,.1-.53.44-1.18.73-1.64,1.19s-.09,1.29-.17,1.95c0,0,0,.08,0,.12,0,.32.07.44.42.43C26.09,53.81,26.85,53.83,27.61,53.83Zm24.3,0c.78,0,1.57,0,2.35,0,.33,0,.44-.1.42-.43,0-.57,0-1.13,0-1.7a.46.46,0,0,0-.31-.49A4.69,4.69,0,0,1,53,50.29a.68.68,0,0,0-.51-.23c-1,0-2-.05-3.05-.09-.28,0-.42.05-.41.38,0,1,.08,2.07.08,3.1,0,.32.13.39.42.38ZM59,57.38v-.09h3c.3,0,.41-.08.4-.39,0-.75,0-1.49,0-2.23,0-.29-.09-.36-.37-.36H56.58c-.29,0-.36.1-.36.37,0,.76,0,1.53,0,2.29,0,.36.14.41.45.4C57.45,57.37,58.23,57.38,59,57.38ZM20.32,54.33c-.9,0-1.8,0-2.69,0-.34,0-.43.1-.42.43,0,.72,0,1.44,0,2.16,0,.27.05.39.35.39,1.81,0,3.63,0,5.44.08.33,0,.38-.13.38-.41,0-.74,0-1.49,0-2.23,0-.33-.09-.43-.43-.42C22.08,54.34,21.2,54.33,20.32,54.33Zm45.68,3v-.06c.9,0,1.79,0,2.69,0,.37,0,.53-.08.5-.49,0-.69,0-1.4,0-2.1,0-.25-.07-.33-.33-.33H63.26c-.29,0-.37.1-.36.37,0,.74,0,1.48,0,2.22,0,.33.13.39.41.39C64.21,57.28,65.11,57.29,66,57.29Zm-52.45-3H10.87c-.22,0-.42,0-.41.31,0,.72,0,1.44-.05,2.15,0,.33.08.44.42.44,1.83,0,3.66,0,5.49.07.27,0,.39-.08.38-.37q0-1.11,0-2.22c0-.31-.1-.39-.4-.39C15.39,54.34,14.47,54.33,13.55,54.33ZM31.14,60c0-.51,0-1,0-1.53,0-.27-.06-.39-.34-.39C29.37,58,28,58,26.52,58c-.26,0-.33.09-.32.34,0,.94,0,1.87,0,2.81,0,.28.09.36.36.37,1.39.08,2.77.17,4.15.27.31,0,.46,0,.44-.39S31.14,60.41,31.14,60ZM53.4,59.8c0-.55,0-1,0-1.45,0-.29,0-.41-.38-.4-1.38,0-2.77.06-4.15.08-.33,0-.42.12-.42.45,0,1,0,1.91,0,2.87,0,.34.11.42.44.4.91-.08,1.83-.12,2.74-.18.56,0,1.29.1,1.64-.19S53.33,60.27,53.4,59.8Zm-5.69-5.47c-.76,0-1.52,0-2.28,0-.28,0-.36.08-.36.36,0,.86,0,1.72,0,2.57,0,.26.07.34.33.33,1.51,0,3-.07,4.55-.09.25,0,.34-.07.34-.33q0-1.23,0-2.46c0-.31-.11-.39-.4-.38C49.15,54.34,48.43,54.33,47.71,54.33ZM31.89,57.48v.1c.76,0,1.52,0,2.28,0,.33,0,.38-.12.37-.41,0-.81,0-1.63,0-2.45,0-.28,0-.41-.37-.41-1.49,0-3,0-4.45,0-.31,0-.39.09-.39.39,0,.8,0,1.6,0,2.4,0,.33.13.38.41.38C30.45,57.47,31.17,57.48,31.89,57.48Zm-15-3.65h1.93c.25,0,.34-.06.34-.32,0-1,0-1.92,0-2.87,0-.24,0-.34-.32-.32-1.11,0-2.22,0-3.33.09a.93.93,0,0,0-.92,1c0,.64,0,1.29,0,1.93,0,.46.14.55.56.53C15.75,53.8,16.33,53.83,16.92,53.83Zm45.78,0c.64,0,1.28,0,1.93,0,.28,0,.37-.09.36-.37,0-.62,0-1.25,0-1.87,0-.85-.27-1.15-1.11-1.18-1,0-2.07-.05-3.1-.1-.28,0-.37,0-.36.33,0,.94,0,1.88,0,2.81,0,.34.15.38.43.37Zm-36.37.5c-.7,0-1.4,0-2.1,0-.28,0-.37.07-.37.36,0,.78,0,1.56,0,2.34,0,.33.15.38.42.39l4.15.07c.25,0,.38,0,.37-.34,0-.82,0-1.64,0-2.46,0-.27-.07-.37-.36-.36C27.74,54.34,27,54.33,26.33,54.33Zm26.94,0c-.7,0-1.4,0-2.1,0-.28,0-.38.07-.37.36,0,.81,0,1.63,0,2.45,0,.23,0,.36.31.35l4.26-.08c.27,0,.37-.09.36-.37q0-1.17,0-2.34c0-.28-.06-.38-.35-.37C54.68,54.34,54,54.33,53.27,54.33ZM31,50c0,1.23,0,2.34,0,3.45,0,.33.1.42.43.42,1.17,0,2.34,0,3.5,0,1.35,0,1.35,0,1.35-1.36,0-.29.1-.66,0-.85s-.56,0-.84,0A5.84,5.84,0,0,1,31,50Zm17.6,0c-1.51,1.22-3,2-5,1.52-.22-.05-.25.07-.25.25,0,.59,0,1.17,0,1.75,0,.29.14.31.36.31h4.56c.27,0,.37-.07.37-.36C48.59,52.35,48.6,51.22,48.6,50ZM22.05,53.83h1.23c1.15,0,1.15,0,1.15-1.17,0-1,0-1-1-1a5.25,5.25,0,0,1-3.17-1.18c-.2-.15-.51-.43-.52.13,0,1,0,1.95,0,2.93,0,.28.14.31.37.3Zm35.46,0c.63,0,1.25,0,1.87,0,.36,0,.48-.08.47-.45,0-.88,0-1.76,0-2.64,0-.14.08-.33-.08-.43s-.33.06-.46.16a4.92,4.92,0,0,1-3.75,1.13c-.35,0-.39.09-.38.37a13.26,13.26,0,0,1,0,1.41c0,.38.14.46.48.45C56.26,53.81,56.89,53.83,57.51,53.83ZM3.91,52.28a8.18,8.18,0,0,1,0,1c-.06.49.15.58.59.57.8,0,1.6,0,2.4,0,1,0,1,0,1-1C8,52,7.81,51.52,7,51.26c-.52-.16-.9-.61-1.54-.58C3.91,50.74,3.91,50.71,3.91,52.28Zm69.8,1.55h1.64c.24,0,.35-.07.35-.33q0-1.2,0-2.4c0-.23-.08-.38-.33-.38a5.1,5.1,0,0,0-2.64.43A1.67,1.67,0,0,0,71.67,53c.09.81,0,.82.81.82Zm2,.5c-.56,0-1.12,0-1.69,0-.29,0-.41.07-.4.38,0,.68,0,1.37,0,2,0,.3.09.39.39.39,1,0,2,0,3,0,.55,0,.84-.13.76-.77a9.86,9.86,0,0,1,0-1.63c0-.32-.09-.4-.39-.39C76.82,54.34,76.28,54.33,75.73,54.33Zm-71.8,0c-.57,0-1.13,0-1.7,0-.29,0-.4.07-.39.38,0,.66,0,1.33,0,2,0,.26,0,.38.34.38,1.15,0,2.3,0,3.44.06.26,0,.34-.07.33-.32q0-1.08,0-2.16c0-.26-.08-.33-.33-.33C5.05,54.34,4.49,54.33,3.93,54.33Zm56.8,5c0,.51,0,.91,0,1.32,0,.21,0,.34.29.32l3.08-.19c.25,0,.31-.15.3-.38q0-1.08,0-2.16c0-.28-.06-.38-.35-.37-.6,0-1.21,0-1.81,0s-1.13-.15-1.41.09S60.78,58.88,60.73,59.28ZM17.06,57.84h0c-.49,0-1,0-1.46,0-.29,0-.42,0-.41.38q0,1,0,2.1c0,.34.14.43.44.44l1.74.12c1.5.12,1.5.12,1.5-1.37,0-.53.18-1.21-.08-1.54s-1-.07-1.5-.11ZM8.41,51.91c0,.57,0,1.09,0,1.62,0,.22.07.3.3.3h5.09c.21,0,.33,0,.33-.29,0-.71,0-1.43,0-2.24A6.66,6.66,0,0,1,8.41,51.91Zm57.07-.61c0,.69,0,1.28,0,1.86s.1.71.66.68c1.2,0,2.41,0,3.62,0,1.52,0,1.51,0,1.45-1.55,0-.31-.1-.37-.36-.28a6.13,6.13,0,0,1-1.9.29A6.72,6.72,0,0,1,65.48,51.3Zm6,5.84c.36,0,.77,0,1.18,0s.48,0,.46-.44a17.75,17.75,0,0,1,0-1.93c0-.41-.14-.48-.5-.46-.54,0-1.09,0-1.63,0-1.28,0-1.28,0-1.28,1.24C69.68,57.25,69.68,57.25,71.45,57.14ZM8.22,54.36v0c-.45,0-.9,0-1.34,0-.28,0-.38.07-.37.36q0,1.05,0,2.1c0,.28.07.38.36.37.62,0,1.25,0,1.87,0,1.16,0,1.18,0,1.17-1.15,0-.56.25-1.3-.11-1.62S8.76,54.36,8.22,54.36Zm6.48,4.91c0-.37,0-.74,0-1.1s-.08-.38-.36-.38c-.84,0-1.67,0-2.51,0-.38,0-.46.12-.44.47q0,.9,0,1.8c0,.34.1.45.42.46.48,0,1,.05,1.45.08C14.7,60.67,14.7,60.67,14.7,59.27Zm50.22,0h0c0,.35,0,.7,0,1.05s.06.39.35.37c.87-.08,1.74-.14,2.62-.19.28,0,.34-.15.34-.4,0-.65,0-1.29,0-1.93,0-.31-.11-.41-.4-.39-.53,0-1,0-1.57.06s-1-.22-1.26.13S64.92,58.79,64.92,59.23ZM7.48,58.91h0c0-.27,0-.55,0-.82s-.09-.41-.39-.41c-.85,0-1.71,0-2.56-.06-.26,0-.35.09-.34.34a8.55,8.55,0,0,1,0,1.34c-.06.54.14.71.65.7s.94,0,1.4.07.94.28,1.16,0S7.46,59.32,7.48,58.91Zm64.66,0a7.48,7.48,0,0,1,0,.82c0,.37.08.47.45.42.59-.07,1.2-.08,1.8-.12,1-.08,1-.08,1-1.1,0-.31,0-.62,0-.93s-.11-.41-.4-.39c-.55,0-1.09.05-1.64.06C72.14,57.69,72.14,57.68,72.14,58.92ZM9.4,57.75v0H9.05c-1,0-1.05,0-1,1,0,.48-.22,1.12.09,1.41s1,.14,1.53.18.9.22,1.12,0,.1-.76.1-1.16.22-1.12-.1-1.39S9.86,57.75,9.4,57.75Zm60.8,0c-.46,0-1.08-.18-1.35,0s-.07.92-.11,1.39v.12c0,1.09,0,1.09,1.12,1l.58,0c1.15,0,1.15,0,1.15-1.16,0-.45.17-1-.06-1.31S70.66,57.75,70.2,57.76ZM62,47.58a15.46,15.46,0,0,1-1.84,2.22h3.57A19.32,19.32,0,0,1,62,47.58ZM19.33,49.81c-.62-.75-1.15-1.48-1.71-2.23a19.78,19.78,0,0,1-1.7,2.23Zm29.82-.4c1.06.08,2.05.12,3.13.1a21.56,21.56,0,0,1-1.54-2.31A13.41,13.41,0,0,1,49.15,49.41Zm-18.64,0a14.16,14.16,0,0,1-1.68-2.23,20.88,20.88,0,0,1-1.44,2.23Z"/><path class="cls-3" d="M78.22,18.77a18.8,18.8,0,0,0,.06,2.07c.07.35-.25.19-.39.16l-3.31-.7L53.41,15.76c-3.14-.67-6.28-1.37-9.43-2.06-1.3-.29-2.61-.59-3.92-.83a5.84,5.84,0,0,0-2.18.36q-11.67,2.49-23.33,5L1.9,21c-.39.08-.62.23-.55-.44a24.82,24.82,0,0,0,0-3.45c0-.56.19-.78.72-.91,7.18-1.75,14.35-3.53,21.52-5.29C28.85,9.58,34.1,8.31,39.34,7a3.86,3.86,0,0,1,1.88.25c3.9.94,7.79,1.91,11.68,2.87l9.62,2.36,11,2.71c1.36.33,2.71.68,4.07,1,.48.1.7.28.65.8A17.35,17.35,0,0,0,78.22,18.77Z"/><path class="cls-3" d="M21.29,22.58c0-1.36,0-2.66,0-4,0-.29.2-.31.38-.35l7.39-1.65c.28-.06.43,0,.43.33,0,1.27,0,2.53,0,3.8,0,.3-.1.38-.39.43Z"/><path class="cls-3" d="M50.12,18.88c0-.63,0-1.25,0-1.88,0-.33.09-.46.43-.38l7.4,1.65a.41.41,0,0,1,.37.48c0,1.15,0,2.3,0,3.45,0,.27,0,.36-.36.3-2.41-.43-4.81-.86-7.23-1.26-.45-.07-.67-.21-.62-.73A14.78,14.78,0,0,0,50.12,18.88Z"/><path class="cls-3" d="M14.49,22v.93c0,1.06,0,1.07-1,1.26-1.74.32-3.48.62-5.22.93-.34.07-.5,0-.5-.38,0-1,0-2,0-3,0-.35.16-.44.44-.49,2-.38,4-.76,5.95-1.16.3-.06.38,0,.37.31C14.47,20.89,14.48,21.44,14.49,22Z"/><path class="cls-3" d="M65.11,22c0-.5,0-1,0-1.52,0-.32,0-.48.44-.39,1.94.4,3.89.76,5.83,1.12.33.07.5.18.49.57,0,1,0,1.95,0,2.93,0,.46-.17.49-.56.42q-2.83-.53-5.68-1c-.36-.07-.55-.18-.52-.6S65.11,22.48,65.11,22Z"/><path class="cls-3" d="M42.14,17.34c0,.67,0,1.33,0,2,0,.4-.14.47-.48.39-.53-.12-1.06-.23-1.6-.31a6.52,6.52,0,0,0-2,.29c-.54.1-.62-.06-.61-.53,0-1.23,0-2.46,0-3.69,0-.32.09-.44.42-.55a6.38,6.38,0,0,1,3.89,0c.28.08.38.18.37.46C42.13,16.06,42.14,16.7,42.14,17.34Z"/><path class="cls-3" d="M46.85,18a3.43,3.43,0,0,1-.34,1.64c-.13.25-.29.48-.6.48a.62.62,0,0,1-.61-.46,4.08,4.08,0,0,1,0-3.45c.28-.6.82-.59,1.16,0A3.54,3.54,0,0,1,46.85,18Z"/><path class="cls-3" d="M34.65,17.84a3,3,0,0,1-.52,2c-.33.39-.61.34-.9,0a4,4,0,0,1,0-3.79c.34-.43.73-.41,1,.08A3,3,0,0,1,34.65,17.84Z"/><path class="cls-3" d="M62.9,21a3.7,3.7,0,0,1-.35,1.85c-.34.61-.89.64-1.18,0a4,4,0,0,1,0-3.44.64.64,0,0,1,.6-.47c.32,0,.47.26.6.5A3.32,3.32,0,0,1,62.9,21Z"/><path class="cls-3" d="M18.59,21.12a3.23,3.23,0,0,1-.34,1.71c-.33.62-.88.65-1.18,0a4,4,0,0,1,0-3.44.66.66,0,0,1,.61-.47.72.72,0,0,1,.59.5A3.17,3.17,0,0,1,18.59,21.12Z"/><path class="cls-3" d="M77,24.28c0-.55,0-1.09,0-1.64,0-.22.06-.32.3-.26s.6.13.9.18.2.15.19.3c-.08,1.12.12,2.24.12,3.36,0,.3-.06.4-.39.35C77,26.38,77,26.39,77,25.27Z"/><path class="cls-3" d="M2.65,24.33c0,.45,0,.9,0,1.34,0,.21.14.52-.15.62a3.46,3.46,0,0,1-1.24.29c-.15,0-.1-.18-.1-.29a5,5,0,0,1,0-1.1,8.09,8.09,0,0,0,.09-2.08c0-.45.16-.58.52-.64l.18,0c.7-.12.7-.12.7.6Z"/><path class="cls-3" d="M75.65,24.07a3.14,3.14,0,0,1-.37,1.55c-.29.51-.76.51-1,0a3.47,3.47,0,0,1,0-3.14c.27-.56.75-.54,1.06,0A3.34,3.34,0,0,1,75.65,24.07Z"/><path class="cls-3" d="M4,24a3,3,0,0,1,.35-1.53c.29-.51.77-.52,1,0a3.46,3.46,0,0,1,0,3.19c-.25.5-.71.49-1,0A3.12,3.12,0,0,1,4,24Z"/></g></g></svg>