<svg xmlns="http://www.w3.org/2000/svg" viewBox="0 0 36.34 19.24"><defs><style>.cls-1{isolation:isolate;}.cls-2{fill-rule:evenodd;mix-blend-mode:darken;}</style></defs><g class="cls-1"><g id="Layer_2" data-name="Layer 2"><g id="سور_الٌقرآن_الكريم" data-name="سور الٌقرآن الكريم"><path class="cls-2" d="M36.08,17.73c-.21.09-2.15.72-2.42.81s-.29.14-.34.29l-.09.26c0,.11-.09.23.23.07.1-.05,2.08-.7,2.31-.77a.54.54,0,0,0,.37-.28,2.3,2.3,0,0,0,.16-.29C36.35,17.71,36.4,17.58,36.08,17.73Z"/><path class="cls-2" d="M13.26,17l-.49.68L11.82,17a.06.06,0,0,0-.08,0l-.57.79a0,0,0,0,0,0,.07l1,.72s.06,0,.07,0l.5-.67.95.69a.05.05,0,0,0,.07,0l.57-.78a.05.05,0,0,0,0-.08l-1-.71A.06.06,0,0,0,13.26,17Z"/><path class="cls-2" d="M7.85,16.22a4.32,4.32,0,0,0-.54,2c0,.22.13.65.46.68.17,0,.39-.1.58-.63,0-.12.05-.21.07-.26s0-.16-.1,0c-.14.32-.47.53-.69.08A1.75,1.75,0,0,1,7.8,16.7c.07-.17.16-.42.16-.42C8,16.1,8,16,7.85,16.22Z"/><path class="cls-2" d="M17.16,16.07a4.35,4.35,0,0,0-.43,2c0,.22.16.64.49.65.17,0,.39-.12.54-.65,0-.12,0-.22.06-.27s0-.16-.09,0c-.13.33-.45.55-.69.12a1.85,1.85,0,0,1,.1-1.36c.06-.17.13-.42.13-.42C17.34,15.94,17.26,15.84,17.16,16.07Z"/><path class="cls-2" d="M34.53,15.84c-.35.27-1.16,1.06-.8,1.42l.31.26a.49.49,0,0,0-.24.25c-.06.12-.07.15-.1.22s-.05.16.12.06a4.06,4.06,0,0,1,1.63-.71c.15,0,.28-.27.28-.27s.19-.34,0-.23a2.13,2.13,0,0,1-1,.24,1.25,1.25,0,0,1-.61-.36c-.06-.11,0-.22.15-.34s.41-.19.56.06c0,0,.06,0,.12,0a2.64,2.64,0,0,0,.23-.29.18.18,0,0,0,0-.2A.41.41,0,0,0,34.53,15.84Z"/><path class="cls-2" d="M28.15,15.86l-.13.25c0,.06,0,.16.1,0s.6-.42.71.09a1.92,1.92,0,0,1-.48,1.31l-.26.37c-.12.17-.07.3.09.09a4.42,4.42,0,0,0,1-1.83c0-.22,0-.68-.3-.78C28.71,15.32,28.46,15.38,28.15,15.86Z"/><path class="cls-2" d="M31.22,14.38l-.58.79a.08.08,0,0,0,0,.08l1,.71a.06.06,0,0,0,.08,0l.57-.78a.06.06,0,0,0,0-.08l-1-.71A0,0,0,0,0,31.22,14.38Z"/><path class="cls-2" d="M18.1,14c-.2.1-3.21,1.31-3.43,1.43s-.28.14-.32.3-.07.24-.08.27-.08.23.24.05c.09-.05,3.14-1.27,3.32-1.37s.27-.14.35-.3a1.87,1.87,0,0,0,.14-.3C18.37,13.93,18.42,13.8,18.1,14Z"/><path class="cls-2" d="M5.6,10.06a4.9,4.9,0,0,0-.44,2.46c0,.27.26.78.7.77.23,0,.52-.18.69-.85,0-.15,0-.27.06-.33s-.06-.19-.12,0c-.15.41-.57.71-.93.19a2.08,2.08,0,0,1,0-1.67c.07-.21.16-.52.16-.52C5.83,9.89,5.72,9.77,5.6,10.06Z"/><path class="cls-2" d="M31.94,9c-.08-.09-.17-.08-.19,0s-.14.92-.14.92a5.84,5.84,0,0,1,.7,1.07c0,.14-.06.39-.4.52a6.57,6.57,0,0,1-4.42.25,2.61,2.61,0,0,1-1.32-1.43c-.11-.18-.16-.05-.18,0l-.16.75a15.65,15.65,0,0,0,.68,1.43c.54,1,.12,1.32-.12,1.59a6.9,6.9,0,0,1-4.83,2.62c-3,0-2-3.58-1.82-4.19,0-.08,0-.14,0-.18a1.07,1.07,0,0,0,.92-.81,2.38,2.38,0,0,0-.41-2.36,13.1,13.1,0,0,0-2.61-1.39c-.28-.16-.85-.53-.85-.53a2.57,2.57,0,0,0,.51-.12c.1,0,.08-.17-.11-.24s-1.35-.47-1.41-.52a4.18,4.18,0,0,0-.07,1,.25.25,0,0,0,.1.19,2,2,0,0,0-.31.48,4.24,4.24,0,0,0-.64,2.93.93.93,0,0,0,.19.38,2.72,2.72,0,0,1-3.44-.86c-.55-1-1.34-.82-1.77-.37a4.26,4.26,0,0,0-1,4.09A12.52,12.52,0,0,0,5,16.25c-.42.33-2.06,1.63-3,1.72-.48,0-1.79.23-1.51-1.66A8.22,8.22,0,0,1,2.15,13h.06c.28,0,.64-.28.84-1.32,0-.24.05-.43.06-.52s-.08-.3-.15,0c-.17.65-.69,1.12-1.14.3a4.05,4.05,0,0,1,0-2.63C1.92,8.53,2,8,2,8c.09-.37-.06-.56-.19-.11a9.13,9.13,0,0,0-.51,3.86,1.75,1.75,0,0,0,.5,1.07c-.52.66-3.07,3.76-1,5.73.42.29,1.31.94,3.2-.41A16.64,16.64,0,0,1,7.58,16a4.85,4.85,0,0,1,4.38.36,1.61,1.61,0,0,0,.15-1.12A.35.35,0,0,0,12,15c-.06,0-2.19-.78-2.62-1.58a1.64,1.64,0,0,1,.59-2c.15-.13.73-.54,1.05-.09A3,3,0,0,0,13.53,13a5.43,5.43,0,0,0,2.66-.81,3.43,3.43,0,0,0,.34.06c.45,0,2.35.29,2.7.26h.34a2.34,2.34,0,0,0-.24.5A8.94,8.94,0,0,0,19,15.53c.37,2.63,2.1,2.53,2.56,2.51,2.8-.1,4.77-2.43,5.22-3a4.26,4.26,0,0,0,.47-2,7.29,7.29,0,0,0,5-.49c.24-.13.48-.85.54-1.12A2.74,2.74,0,0,0,31.94,9ZM16.48,11s-.39,0-1.06-.59c-.37-.35.11-1.14.64-1.59s1.34.71,1.43,1C17.78,10.56,16.63,10.92,16.48,11Zm1.24.18a2.09,2.09,0,0,0,.39-1.61,3.76,3.76,0,0,1,2.18,1.22c.14.19.15.39-.07.43A6.49,6.49,0,0,1,17.72,11.14Z"/><path class="cls-2" d="M10.26,6.26c-.2.12-4.6,2.17-4.8,2.3s-.28.17-.31.33-.05.24-.06.27-.07.24.24,0C5.42,9.14,9.86,7.07,10,7s.27-.16.34-.32a1.59,1.59,0,0,0,.12-.31C10.52,6.21,10.56,6.08,10.26,6.26Z"/><path class="cls-2" d="M27.26,6.29a4.92,4.92,0,0,0-.44,2.47c0,.26.26.77.7.76.23,0,.52-.18.69-.85,0-.15,0-.27.06-.33s-.06-.19-.13,0c-.14.41-.56.72-.92.2a2.06,2.06,0,0,1,0-1.68c.07-.21.15-.52.15-.52C27.49,6.12,27.37,6,27.26,6.29Z"/><path class="cls-2" d="M29.78,5.94a3.06,3.06,0,0,0-.47.68c-.12.19,0,.27.16.12a.69.69,0,0,1,.63-.28c.4,0,1.36,0,1,.24s-.6.41-.6.41c-.23.17-.43.48,0,.3a2.88,2.88,0,0,0,1.36-1.07c.12-.18.26-.42-.3-.5S30.07,5.62,29.78,5.94Z"/><path class="cls-2" d="M19.88,4.07a5,5,0,0,0-.45,2.46c0,.27.26.78.71.77.23,0,.51-.18.69-.85,0-.15,0-.27.05-.33s-.06-.19-.12,0c-.14.41-.56.71-.92.19-.06-.1-.31-.58,0-1.67L20,4.14C20.11,3.9,20,3.78,19.88,4.07Z"/><path class="cls-2" d="M30.7,2.15c-.16.09-6,3-6.45,3.37a1.39,1.39,0,0,0-.47.78c-.1.45,0,.9.31,1a.56.56,0,0,1,.37.22,0,0,0,0,0,.07,0,.55.55,0,0,0-.38-.87c-.15,0-.22-.26.36-.64s5.86-3,6-3.12.26-.16.32-.32a1.64,1.64,0,0,0,.11-.3C31,2.09,31,2,30.7,2.15Z"/><path class="cls-2" d="M6,1.6a4.27,4.27,0,0,0-.62,2.46A4,4,0,0,0,3.59,1.85c-.1-.06-.29,0-.31.35s-.06.6.07.72,1,.42.52.93c-.22.23-1.29,1.34-1.52,1.61s-.25.32,0,.18A3.09,3.09,0,0,0,4.26,3.53a.85.85,0,0,0-.06-.42l.06,0A3.84,3.84,0,0,1,5.34,4.91c0,.15.19.17.23,0,.07-.53.11-1.43.16-1.71S6,2,6.46,2.39l.23.22c.1.13.23.28.29.13a1.1,1.1,0,0,0,.07-.81C7,1.84,6.4,1.07,6,1.6Z"/><path class="cls-2" d="M12,1.57A8.47,8.47,0,0,0,11.5,5c.05.38.3,1.09.79,1.08.25,0,.57-.24.75-1.17,0-.21,0-.37.06-.46s-.07-.26-.14,0c-.15.57-.61,1-1,.25A3.52,3.52,0,0,1,12,2.4c.07-.29.16-.73.16-.73C12.2,1.34,12.07,1.17,12,1.57Z"/><path class="cls-2" d="M17.65,1A4.64,4.64,0,0,0,17,3.61a4.15,4.15,0,0,0-1.87-2.32c-.1-.06-.31.05-.33.36s-.06.63.07.76a3.54,3.54,0,0,0,.58.41c.06,0,.13,0,.15,0s.11-.25.23-.12A3.83,3.83,0,0,1,17,4.51c.06.16.21.17.24,0,.09-.55.13-1.5.17-1.79s.26-1.25.77-.81a3,3,0,0,1,.24.23c.11.14.25.29.32.14a1.23,1.23,0,0,0,.07-.86C18.72,1.28,18.08.47,17.65,1Z"/><path class="cls-2" d="M26,.33a4.19,4.19,0,0,0-.44,2c0,.22.16.64.49.65.17,0,.39-.12.55-.66,0-.12,0-.21.05-.26s0-.16-.09,0c-.12.32-.45.55-.69.11A1.81,1.81,0,0,1,26,.81c.06-.17.14-.42.14-.42C26.15.2,26.07.09,26,.33Z"/><path class="cls-2" d="M21.59.06c-.05.11-.33.89-.33.89.08.5.74,5.91.79,6.28s1,6.49,1,8.19c0,.17.06.23.14.07s.62-1.3,0-5.44c-.05-.34-1-7.34-1-7.34s.58.54.67.64.2,0,.15-.11S21.75.22,21.71.12,21.64-.06,21.59.06Z"/><path class="cls-2" d="M33.1.06c-.05.11-.33.89-.33.89.08.5.75,5.91.79,6.28s1,6.24,1,7.93c0,.17.06.24.14.07s.63-1,0-5.18c-.05-.34-1-7.34-1-7.34s.58.54.67.64.21,0,.15-.11S33.26.22,33.23.12,33.15-.06,33.1.06Z"/></g></g></g></svg>