<svg xmlns="http://www.w3.org/2000/svg" viewBox="0 0 36.25 18.39"><defs><style>.cls-1{isolation:isolate;}.cls-2{fill-rule:evenodd;mix-blend-mode:darken;}</style></defs><g class="cls-1"><g id="Layer_2" data-name="Layer 2"><g id="سور_الٌقرآن_الكريم" data-name="سور الٌقرآن الكريم"><path class="cls-2" d="M21.33,15.57c-.21.11-4.91,1.95-5.13,2.08s-.3.15-.34.31-.07.26-.08.28-.08.24.24.06c.1-.06,4.84-1.92,5-2s.29-.14.38-.31a1.91,1.91,0,0,0,.14-.31C21.61,15.54,21.66,15.41,21.33,15.57Z"/><path class="cls-2" d="M11.74,15.23l-.51.71-1-.72a.05.05,0,0,0-.08,0l-.59.82a.05.05,0,0,0,0,.08l1,.74a.05.05,0,0,0,.08,0l.51-.7,1,.72a.06.06,0,0,0,.08,0l.6-.81a.08.08,0,0,0,0-.08l-1-.74A.05.05,0,0,0,11.74,15.23Z"/><path class="cls-2" d="M29.33,14.78c0,.09-.21.37-.23.43s0,.12,0,.08,0-.29.78-.28c.11,0,.15,0,.1.09a3.16,3.16,0,0,0-.89,1.4c-.21,1.13.87.92,1.1.83a3.15,3.15,0,0,0,1.36-1.17c.07-.12.11-.29-.05-.12a2.81,2.81,0,0,1-1.63.87c-.59-.05-.68-.55-.53-.79s.74-.81.84-1a2.53,2.53,0,0,0,.19-.37c.05-.16.08-.27-.09-.27S29.57,14.4,29.33,14.78Z"/><path class="cls-2" d="M7.23,14.33c-.21.11-3.46,2-3.69,2.11s-.27.2-.29.37a1.72,1.72,0,0,1,0,.29c0,.11-.06.21.25,0,.16-.09,3.39-1.89,3.6-2a.59.59,0,0,0,.32-.36l.09-.33C7.51,14.25,7.55,14.16,7.23,14.33Z"/><path class="cls-2" d="M4.26,6.73A4.39,4.39,0,0,0,3.86,9c0,.25.23.71.63.7.21,0,.47-.16.63-.77,0-.14,0-.24,0-.3s0-.17-.11,0c-.13.37-.51.65-.84.17a1.85,1.85,0,0,1,0-1.51c.06-.19.14-.48.14-.48C4.47,6.57,4.36,6.46,4.26,6.73Z"/><path class="cls-2" d="M1.35,4.09A10.27,10.27,0,0,0,.49,8c0,.44.21,1.3.74,1.35.28,0,.64-.23.94-1.29.05-.24.08-.44.11-.53s0-.32-.15,0c-.23.65-.77,1.09-1.13.19a4.56,4.56,0,0,1,.26-2.71c.11-.34.26-.84.26-.84C1.64,3.85,1.52,3.63,1.35,4.09Z"/><path class="cls-2" d="M11.24,6.38A5.68,5.68,0,0,0,10.9,9c0,.28.27.81.7.79.22,0,.49-.2.63-.91,0-.15,0-.28,0-.34s-.07-.2-.12,0c-.13.43-.52.76-.88.22a2.39,2.39,0,0,1,0-1.76c.06-.22.13-.55.13-.55C11.46,6.2,11.34,6.07,11.24,6.38Z"/><path class="cls-2" d="M24.05,7.75a4.42,4.42,0,0,0-.45,2.07c0,.23.16.67.51.69.17,0,.4-.13.57-.69,0-.13,0-.23.05-.28s0-.16-.09,0c-.13.34-.47.58-.72.12A1.92,1.92,0,0,1,24,8.26l.14-.44C24.23,7.62,24.15,7.51,24.05,7.75Z"/><path class="cls-2" d="M27.43,3.9c-.23.14-5.5,2.82-5.75,3s-.33.21-.36.4-.05.31-.06.34-.07.29.29,0c.11-.08,5.43-2.78,5.63-2.92s.32-.2.4-.4.09-.24.13-.38S27.8,3.66,27.43,3.9Z"/><path class="cls-2" d="M15.93,1.06a5.57,5.57,0,0,0-.56,2.56c0,.28.21.84.63.85.22,0,.5-.16.71-.85,0-.16.05-.28.07-.35s-.05-.2-.12,0c-.16.43-.58.72-.89.16a2.42,2.42,0,0,1,.12-1.76c.08-.21.18-.54.18-.54C16.16.89,16.05.76,15.93,1.06Z"/><path class="cls-2" d="M3.23.78A4.48,4.48,0,0,0,2.83,3c0,.24.23.71.64.7.2,0,.47-.17.62-.77,0-.14,0-.25,0-.3s0-.18-.11,0c-.13.38-.51.65-.83.18-.06-.09-.28-.53,0-1.52.06-.19.14-.47.14-.47C3.44.62,3.34.51,3.23.78Z"/><path class="cls-2" d="M10.91.63a4.38,4.38,0,0,0-.44,2.5A4,4,0,0,0,8.54,1.05c-.1,0-.29.07-.28.37s0,.61.11.72A4,4,0,0,0,9,2.49c.06,0,.12,0,.14-.05s.08-.25.21-.13A3.69,3.69,0,0,1,10.5,4c.07.14.21.15.22-.07,0-.53,0-1.43,0-1.71s.16-1.19.68-.82l.24.2c.11.13.25.27.31.11a1.13,1.13,0,0,0,0-.81C11.94.8,11.28.08,10.91.63Z"/><path class="cls-2" d="M23,.22a4.54,4.54,0,0,0-.45,2.6,4.19,4.19,0,0,0-2-2.16c-.1-.05-.29.07-.29.38s0,.63.12.75a5,5,0,0,0,.6.36c.07,0,.13,0,.15,0s.09-.26.22-.15a4,4,0,0,1,1.25,1.75c.07.15.21.16.23-.06,0-.55,0-1.5,0-1.78S23,.62,23.56,1l.26.21c.11.13.26.28.31.11a1.11,1.11,0,0,0,0-.84C24.09.4,23.4-.35,23,.22Z"/><path class="cls-2" d="M28.14.06l-.44,1a5.28,5.28,0,0,1,.16.73c.06.4,1.34,7.63,1.31,8.17,0,.12-3.13.4-3.3.67a7.2,7.2,0,0,0-.37.8c-.05.11.07.12.16.11a22.74,22.74,0,0,1,4.89.58h0a21.39,21.39,0,0,1-5,2c-.88.12-3.23.55-4.08-1.81-.16-.44-.67-3.38-1-4.27-.67-1.76-2-4.29-2.09-3.8a2.32,2.32,0,0,0,0,1.35,41.93,41.93,0,0,1,2.12,5.26,1.19,1.19,0,0,1-.28,1A11.94,11.94,0,0,1,16,15.43c-.52.21-2.44.88-2.12-1.41a1.48,1.48,0,0,0,0-.88,7.35,7.35,0,0,0,1.9-1.29A2.12,2.12,0,0,0,16,9.9a4,4,0,0,0-1.15-2c-.13-.13-.17-.15-.22,0s-.12.56-.14.67a.49.49,0,0,0,.12.48,4.62,4.62,0,0,1,.9,1.34c.08.23.16.39-.07.58a7.53,7.53,0,0,1-4.32,1.76,3.15,3.15,0,0,1-3-1.59,11.52,11.52,0,0,1-.56-2.23A13.61,13.61,0,0,0,5.46,3.21c-.12-.15-.13-.06-.15.1s-.1,1-.1,1a25.44,25.44,0,0,1,1.7,4.9,2.32,2.32,0,0,1-.7,2.12A12.72,12.72,0,0,1,2.57,14a1.48,1.48,0,0,1-1.88-.39,2.2,2.2,0,0,1-.31-1.36,9.06,9.06,0,0,1,.81-2.52c.12-.27,0-.43-.18-.08S-1,13.41.7,15c.26.24,1.48,1,3.78-.86.37-.3,2.26-1.71,2.6-3a4.47,4.47,0,0,1,.19-.52c.11.36.65,3.86,4.41,3.22a8.27,8.27,0,0,0,1.94-.59s0,0,0,.08c-.06.36-.77,3.55,1.63,3.51a6.84,6.84,0,0,0,3.54-2.08A5.72,5.72,0,0,0,20.62,12s.42,3.14,3.13,3.45a11.19,11.19,0,0,0,6-1.82,9.47,9.47,0,0,1,3.09-1.25c.15,1.19.27,2.27.29,2.84,0,.18.06.25.14.08a6.1,6.1,0,0,0,.28-3,8.07,8.07,0,0,1,2.24,0l.43-1.22c-.37,0-1.44,0-2.78,0,0-.43-.11-.91-.19-1.44-.05-.35-1.07-6.81-1.07-6.81l.7.67c.1.1.21,0,.16-.12S31.78.22,31.74.12s-.08-.18-.13-.06-.34.93-.34.93c.08.52.77,5.33.82,5.71,0,.21.33,2.25.61,4.33a18.77,18.77,0,0,1-3.25-.48A3,3,0,0,0,29.73,9c-.09-.81-1-6.16-1-6.16l.7.67c.1.1.21,0,.16-.12S28.31.22,28.27.12,28.19-.06,28.14.06Z"/></g></g></g></svg>