<svg xmlns="http://www.w3.org/2000/svg" viewBox="0 0 34.84 19.2"><defs><style>.cls-1{isolation:isolate;}.cls-2{fill-rule:evenodd;mix-blend-mode:darken;}</style></defs><g class="cls-1"><g id="Layer_2" data-name="Layer 2"><g id="سور_الٌقرآن_الكريم" data-name="سور الٌقرآن الكريم"><path class="cls-2" d="M6,16.31,3,17.39c-.23.09-.29.15-.33.3s-.07.25-.08.28-.1.19.24.05C3,18,5.43,17.1,5.67,17A.61.61,0,0,0,6,16.7a2.37,2.37,0,0,0,.14-.3C6.22,16.28,6.28,16.21,6,16.31Z"/><path class="cls-2" d="M16.69,15.38a4.63,4.63,0,0,0-.59,2.1c0,.23.12.7.47.73.18,0,.42-.11.62-.67,0-.13.06-.23.07-.28s0-.17-.1,0c-.15.35-.5.57-.73.08a2,2,0,0,1,.19-1.44c.08-.18.18-.45.18-.45C16.88,15.25,16.8,15.14,16.69,15.38Z"/><path class="cls-2" d="M30.79,15A4.63,4.63,0,0,0,30.14,17c0,.23.11.7.46.74.18,0,.42-.09.64-.65,0-.12.07-.23.09-.28s0-.17-.1,0c-.17.34-.53.55-.75.06a2,2,0,0,1,.24-1.43c.08-.18.18-.44.18-.44C31,14.83,30.91,14.72,30.79,15Z"/><path class="cls-2" d="M27.32,8.43l-.58.8a0,0,0,0,0,0,.07l1,.73a.05.05,0,0,0,.07,0l.58-.79a.05.05,0,0,0,0-.08l-1-.73A.07.07,0,0,0,27.32,8.43Z"/><path class="cls-2" d="M5.31,8.07a8.34,8.34,0,0,0-.47,3.53c0,.39.31,1.13.82,1.12.26,0,.58-.25.77-1.21,0-.22,0-.39.06-.48s-.08-.27-.14,0c-.16.58-.64,1-1,.26a3.68,3.68,0,0,1,0-2.4c.08-.3.17-.75.17-.75C5.56,7.82,5.43,7.65,5.31,8.07Z"/><path class="cls-2" d="M14.09,7.82a5.24,5.24,0,0,0-.33,2.29c0,.25.21.73.56.72.18,0,.4-.16.53-.78,0-.14,0-.25,0-.31s-.05-.18-.1,0c-.11.38-.43.66-.71.17a2.23,2.23,0,0,1,0-1.56c.05-.19.12-.49.12-.49C14.27,7.66,14.17,7.55,14.09,7.82Z"/><path class="cls-2" d="M8.38,5.42l-.59.79a.06.06,0,0,0,0,.08L8.8,7a0,0,0,0,0,.07,0l.58-.8a0,0,0,0,0,0-.07l-1-.73A0,0,0,0,0,8.38,5.42Z"/><path class="cls-2" d="M18.68,5l-.58.8a.05.05,0,0,0,0,.08l1,.72a.06.06,0,0,0,.08,0l.58-.8a.06.06,0,0,0,0-.08l-1-.72A.06.06,0,0,0,18.68,5Z"/><path class="cls-2" d="M27.77,4.15a.87.87,0,0,0,0,.69c.1.27.38.89.42,1s.06.18-.09.25a.69.69,0,0,1-1-.53,5.82,5.82,0,0,0-.21-1.09c-.06-.12-.12-.14-.17,0a2.69,2.69,0,0,0-.09.42.13.13,0,0,0,0,.12s.3.88.18,1.11-.75.64-1.08.21a3.4,3.4,0,0,1-.06-1.25c0-.18-.06-.24-.14-.09a.78.78,0,0,0-.11.37c0,.13,0,.68,0,.86s0,.74.34.9.82,0,1.19-.68a.83.83,0,0,0,1,.33A1,1,0,0,0,28.41,6,1.38,1.38,0,0,0,28.24,5,3.62,3.62,0,0,1,28,4.26C27.89,4.09,27.84,3.92,27.77,4.15Z"/><path class="cls-2" d="M19.76,1.32a3.74,3.74,0,0,0-.51.86c-.13.24.06.33.21.14a.82.82,0,0,1,.74-.4c.48,0,1.63-.15,1.22.2s-.68.55-.68.55c-.27.22-.49.61,0,.37a3.41,3.41,0,0,0,1.55-1.41c.13-.23.28-.53-.4-.59S20.09.91,19.76,1.32Z"/><path class="cls-2" d="M5.31.85a4.51,4.51,0,0,0-.5,2.57A4.1,4.1,0,0,0,2.89,1.23c-.1-.05-.29.06-.3.38s0,.62.1.74a6.37,6.37,0,0,0,.58.37c.07,0,.13,0,.15,0s.09-.26.22-.14A3.59,3.59,0,0,1,4.73,4.05c.21.74-1.53,2.32-1.63,2.4s-.1.2,0,.16.15-.07,1-.73A2,2,0,0,0,5,4.32a.24.24,0,0,0,0-.08c0-.54,0-1.48.07-1.76s.19-1.23.71-.83a2.63,2.63,0,0,1,.24.21c.11.13.25.28.31.12a1.17,1.17,0,0,0,0-.84C6.36,1.05,5.7.29,5.31.85Z"/><path class="cls-2" d="M16.56,2.2A2.14,2.14,0,0,0,16.28.59c-.08-.13-.57-.54-1.1.33-.2.33-.33,1.12,0,1.33a3.66,3.66,0,0,0,.77.38,20.28,20.28,0,0,1-4.12,4c-.21.13-.16.25,0,.21a10.12,10.12,0,0,0,2.43-1.49,10.55,10.55,0,0,0,2.07-2.62l.42.34c.11.13.17.23.22.09A.78.78,0,0,0,16.56,2.2ZM16.22,2l-.6-.25c-.18-.07-.28-.19-.2-.31.27-.4.41-.39.51-.33A1.06,1.06,0,0,1,16.22,2Z"/><path class="cls-2" d="M10.17.36a8.14,8.14,0,0,0-.62,3.36c0,.38.24,1.1.73,1.11.25,0,.57-.21.8-1.12,0-.21.06-.37.08-.45S11.1,3,11,3.27c-.18.56-.65.95-1,.21a3.64,3.64,0,0,1,.13-2.3c.09-.29.2-.72.2-.72C10.43.14,10.31,0,10.17.36Z"/><path class="cls-2" d="M33.15.16c0,.11-.35.89-.35.89.07.52.64,6,.68,6.4s.87,6.61.88,8.33c0,.18.06.25.14.08s.66-1.3.09-5.52c0-.35-.9-7.48-.9-7.48l.67.67c.09.1.2.05.15-.11S33.32.32,33.28.22,33.21,0,33.15.16Z"/><path class="cls-2" d="M31.32,9.67C31.27,9.15,30.5,3,30.5,3s.52.49.62.6.22.07.18-.11S30.25.33,30.21.22,30.14,0,30.08.15s-.55,1-.55,1a5.14,5.14,0,0,1,.14.78c0,.47.12,1.11.17,1.85,0,0,.88,7.57.89,8s.05.63-.41.87a26,26,0,0,1-3.8,1.18c-.22.07-1.55.33-3.64,2.61A5.18,5.18,0,0,1,20.63,18c-.51.12-1.28-.23-1.31-1.47,0-1.44.91-3,1.69-4.33l0,0c1.86-.85,4.37-1.93,4.37-1.93l.38-1.16a22.29,22.29,0,0,0-8.19-.87,1.84,1.84,0,0,0-1.5,1.17A1.64,1.64,0,0,0,16.57,11c.11.09,1.66,1.28,1.66,1.34a15.42,15.42,0,0,0-4.84,3.38A11.39,11.39,0,0,1,10.92,18c-.48.2-1.65.51-1.86-.83a6.89,6.89,0,0,1,.63-2.79c1.54-.71,2-1.27,2.24-1.75A3,3,0,0,0,12,10.89C11.28,8,9.91,8,9.26,8.26a1.86,1.86,0,0,0-.53.42c-.4.51-1,1.65-.16,2.42.62.5,1.73.26,1.94.26a.93.93,0,0,1,1.09.57c.05.16-.13.35-.55.59s-5.23,2.88-8.22,2A2.64,2.64,0,0,1,.55,11.82a5.74,5.74,0,0,1,.24-1.11.62.62,0,0,0,.24.08c.29,0,.66-.26.91-1.38C2,9.15,2,9,2,8.85s-.07-.33-.16,0c-.21.68-.75,1.16-1.16.25A4.75,4.75,0,0,1,.88,6.29c.1-.36.23-.88.23-.88.11-.4,0-.62-.19-.13A10.73,10.73,0,0,0,.21,9.42a2.25,2.25,0,0,0,.33,1.05c-.42.95-1.27,3.29.73,4.76.45.31,2,1.34,5.72.22.92-.3,1.66-.58,2.27-.84-.6,1.58-1.16,4.22,1.06,4.57.51.08,1.48,0,3.11-2.15a12.92,12.92,0,0,1,5.76-4,3.09,3.09,0,0,1,.32.4c.09.13.24.16.26-.08a5.77,5.77,0,0,0,.05-.62l.68-.31c-.65.92-3.33,6.13-.11,6.55a2.63,2.63,0,0,0,2.32-1.08,12.37,12.37,0,0,1,3.36-2.74c.8-.37,2.65-.87,3.31-1.11a2.14,2.14,0,0,0,1.84-1.75A7.9,7.9,0,0,0,31.32,9.67Zm-21.13.49a1.46,1.46,0,0,1-1,0c-.46-.15-.27-.62,0-.74.15-.05.74-.28,1.48.68A2.8,2.8,0,0,0,10.19,10.16Zm9.28,1.71c-.14-.21-2.47-1.83-2.6-2s-.19-.35.2-.48a17.5,17.5,0,0,1,6.79.47C23.44,10.13,21.71,10.89,19.47,11.87Z"/><path class="cls-2" d="M26.69,1.9A2.12,2.12,0,0,0,26.63.27c-.06-.14-.49-.62-1.13.17-.25.31-.48,1.07-.2,1.32a3.74,3.74,0,0,0,.71.48A20,20,0,0,1,21.4,5.67c-.23.11-.2.23-.07.2A10.22,10.22,0,0,0,24,4.73a11,11,0,0,0,2.4-2.32s.32.33.36.39.14.25.21.11A.77.77,0,0,0,26.69,1.9Zm-.3-.24-.57-.33c-.17-.09-.25-.22-.16-.33.32-.36.46-.34.56-.26A1.1,1.1,0,0,1,26.39,1.66Z"/></g></g></g></svg>