<svg xmlns="http://www.w3.org/2000/svg" viewBox="0 0 37.65 19.28"><defs><style>.cls-1{isolation:isolate;}.cls-2{fill-rule:evenodd;mix-blend-mode:darken;}</style></defs><g class="cls-1"><g id="Layer_2" data-name="Layer 2"><g id="سور_الٌقرآن_الكريم" data-name="سور الٌقرآن الكريم"><path class="cls-2" d="M9.35,17.74c-.15,0-2.4,1-2.57,1.07s-.19.1-.22.2a1.3,1.3,0,0,1,0,.18c0,.07-.06.13.16,0l2.49-1c.13-.06.19-.09.24-.2s.07-.12.1-.2S9.56,17.66,9.35,17.74Z"/><path class="cls-2" d="M22.76,17.1c-.19.09-3.64,1.38-3.84,1.49s-.27.14-.31.28-.06.23-.07.25-.07.22.22.06c.09-.06,3.58-1.36,3.74-1.45s.26-.13.34-.28a2.16,2.16,0,0,0,.13-.28C23,17.06,23.06,17,22.76,17.1Z"/><path class="cls-2" d="M11.84,16l-.46.64L10.49,16a0,0,0,0,0-.07,0l-.54.74a.06.06,0,0,0,0,.07l.92.67a.05.05,0,0,0,.07,0l.46-.63.89.65a.05.05,0,0,0,.07,0l.54-.73a0,0,0,0,0,0-.07L11.91,16A0,0,0,0,0,11.84,16Z"/><path class="cls-2" d="M30.49,14.93a4,4,0,0,0-.38,1.75c0,.2.14.57.43.58s.35-.1.49-.58c0-.11,0-.19,0-.23s0-.14-.08,0-.39.5-.61.11a1.64,1.64,0,0,1,.09-1.2l.12-.37C30.65,14.82,30.58,14.73,30.49,14.93Z"/><path class="cls-2" d="M35.58,14.05a3.82,3.82,0,0,0-.38,1.76c0,.19.14.57.43.58s.34-.11.48-.59c0-.1,0-.19,0-.23s0-.14-.08,0-.4.5-.61.11a1.58,1.58,0,0,1,.09-1.2l.12-.37C35.74,13.94,35.67,13.85,35.58,14.05Z"/><path class="cls-2" d="M6.1,9.58a8,8,0,0,0-.44,3.3c0,.36.29,1,.76,1,.25,0,.55-.24.72-1.13,0-.2.05-.36.06-.44s-.07-.26-.13,0c-.15.55-.59,1-1,.25a3.37,3.37,0,0,1,0-2.24c.07-.29.16-.71.16-.71C6.34,9.35,6.21,9.19,6.1,9.58Z"/><path class="cls-2" d="M1.87,11.9a8,8,0,0,0-.43,3.3c0,.35.29,1,.76,1,.24,0,.55-.24.72-1.13,0-.2,0-.37.05-.45s-.06-.25-.13,0c-.14.55-.59,1-1,.25a3.36,3.36,0,0,1,0-2.24C2,12.41,2,12,2,12,2.11,11.67,2,11.5,1.87,11.9Z"/><path class="cls-2" d="M16.87,8.2A4,4,0,0,0,16.53,10c0,.2.17.59.48.59.15,0,.35-.13.48-.63,0-.11,0-.2,0-.25s0-.14-.09,0c-.1.31-.39.53-.63.14a1.68,1.68,0,0,1,.05-1.25c.05-.16.11-.4.11-.4C17,8.08,17,8,16.87,8.2Z"/><path class="cls-2" d="M9.23,7.14a4.13,4.13,0,0,0-.35,1.91c0,.21.18.61.49.61s.37-.13.51-.65c0-.12,0-.21,0-.26s0-.15-.09,0c-.11.32-.41.55-.66.14a1.75,1.75,0,0,1,.05-1.3c0-.16.12-.41.12-.41C9.39,7,9.31,6.91,9.23,7.14Z"/><path class="cls-2" d="M13,5.16a6.24,6.24,0,0,0-.39,2.71c0,.3.25.86.66.85.22,0,.49-.19.64-.93,0-.16,0-.29,0-.36s-.06-.21-.11,0c-.14.45-.53.78-.87.21a2.7,2.7,0,0,1,0-1.84c.07-.23.14-.58.14-.58C13.19,5,13.09,4.84,13,5.16Z"/><path class="cls-2" d="M13.12,1.42a4,4,0,0,0-.57,2.3,3.81,3.81,0,0,0-1.68-2.07c-.08,0-.27.05-.28.33s-.06.56.06.68.93.39.49.87C10.93,3.74,9.93,4.79,9.71,5s-.23.3,0,.17a2.92,2.92,0,0,0,1.79-2,.71.71,0,0,0-.06-.39.07.07,0,0,1,.06,0,3.39,3.39,0,0,1,1,1.65c.06.14.19.15.22,0,.07-.49.11-1.34.15-1.6s.23-1.1.68-.72a2.5,2.5,0,0,1,.22.21c.1.12.22.26.28.12a1.07,1.07,0,0,0,.06-.76C14.08,1.64,13.51.93,13.12,1.42Z"/><path class="cls-2" d="M35.85,1.24c0,.11-.38.93-.38.93s.1.4.12.53c.15,1.18,1.12,8.15,1.4,10.35.13,1.09.24,2.06.26,2.59,0,.16,0,.22.13.06a3.49,3.49,0,0,0,.25-1.33,17.13,17.13,0,0,0-.21-3.16c0-.21-1-7.48-1-7.48l.63.6c.09.09.19,0,.15-.11S36,1.39,36,1.29,35.9,1.13,35.85,1.24Z"/><path class="cls-2" d="M31.08,9.5l-.46.64-.89-.65a0,0,0,0,0-.07,0l-.54.74a0,0,0,0,0,0,.07l.92.67a.05.05,0,0,0,.07,0l.46-.63.89.65a.05.05,0,0,0,.07,0l.54-.73s0-.06,0-.07l-.92-.67A0,0,0,0,0,31.08,9.5Z"/><path class="cls-2" d="M30.73,6.27a.69.69,0,0,0,0,.51c.08.2.28.66.32.72a.12.12,0,0,1-.07.19.51.51,0,0,1-.73-.39,6.94,6.94,0,0,0-.15-.81c0-.1-.1-.11-.14,0a1.8,1.8,0,0,0-.06.31.09.09,0,0,0,0,.09s.23.66.14.83-.56.47-.81.15a2.67,2.67,0,0,1,0-.92c0-.14,0-.18-.1-.07a.48.48,0,0,0-.09.27c0,.1,0,.51,0,.64s0,.56.25.68.61,0,.89-.52a.61.61,0,0,0,.71.25.72.72,0,0,0,.36-.58,1,1,0,0,0-.13-.69,2.82,2.82,0,0,1-.21-.57C30.82,6.22,30.79,6.09,30.73,6.27Z"/><path class="cls-2" d="M22.93,4.18a3.8,3.8,0,0,0-.32,1.76c0,.19.16.57.45.56s.35-.12.47-.59c0-.11,0-.2,0-.24s0-.14-.09,0-.37.51-.6.12a1.57,1.57,0,0,1,0-1.2c0-.15.11-.37.11-.37C23.08,4.06,23,4,22.93,4.18Z"/><path class="cls-2" d="M31.87,4.05c-.14.08-6.39,2.55-6.81,2.83a1.27,1.27,0,0,0-.46.64c-.12.39-.05.78.2.85a.49.49,0,0,1,.31.21s.05,0,.06,0a.48.48,0,0,0-.27-.78c-.13,0-.18-.24.36-.53s6.27-2.58,6.38-2.64.24-.12.3-.25a1.37,1.37,0,0,0,.12-.26C32.1,4,32.14,3.91,31.87,4.05Z"/><path class="cls-2" d="M17.77.59a2.79,2.79,0,0,0-.44.63c-.12.18,0,.26.15.12a.62.62,0,0,1,.59-.27c.38,0,1.27,0,.94.22s-.56.39-.56.39c-.22.16-.41.45,0,.29A2.76,2.76,0,0,0,19.7,1c.11-.17.24-.39-.28-.47S18,.29,17.77.59Z"/><path class="cls-2" d="M34.37,11.47c0-.59-1-8-1-8s.47.41.56.51.19,0,.14-.11-1-2.53-1.08-2.63-.06-.16-.11-.05l-.4.9a4.56,4.56,0,0,1,.15.65c.05.39,1,7.45,1,7.93s.22,1.71.22,1.89a.86.86,0,0,1-.51,1,2.2,2.2,0,0,1-1.87-.12A1.74,1.74,0,0,1,31,12.07c0-.13,0-.22-.13-.09s-1,1.9-2.64,1.9a2.17,2.17,0,0,1-1.76-.81,26.88,26.88,0,0,0-2-2.42,42,42,0,0,0-7.53-5.46c-.11-.07-.2-.13,0-.28A34.35,34.35,0,0,1,27,1.07c.45-.07,1.39-.09,1.58.3a.72.72,0,0,1-.11.71A16.63,16.63,0,0,0,26.7,4.54c-.06.1-.05.27.08.13S29,2.24,29.22,1c0-.26.2-1-1.29-1A34.17,34.17,0,0,0,17.72,3.43,2.14,2.14,0,0,0,16.43,5c-.05.31-.16.78.17,1s4,3.06,5.2,4.69a5.18,5.18,0,0,1,.55.84c.1.22.09.31,0,.4a3,3,0,0,1-1.38.74,2.94,2.94,0,0,0-.81-1.22,1.2,1.2,0,0,0-1.5-.24c-.57.45-1,1.76-.44,2.34a2.83,2.83,0,0,0,2.57.25c0,.07.06.16.09.25.05.31-.11.36-.22.49a8.38,8.38,0,0,1-3.28,2.45c-.38.14-2.32.91-3.11-.7A4.12,4.12,0,0,1,14.41,13c.05-.12,0-.23,0-.25a1.56,1.56,0,0,0,.34-.68A2.36,2.36,0,0,0,14,9.71c-.09-.1-.19-.17-.24,0s-.08.76-.08.76c.1.16.68.91.72,1s.11.22-.1.36-3.1,1.75-5.28.4c0,0-.49-.74-.56-.86s-.13-.2-.16-.07-.11.81-.11.81A20,20,0,0,1,9,14.11a1,1,0,0,1-.36,1A20.34,20.34,0,0,1,.14,19c-.22,0-.17.17.09.16s3.14-.12,3.3-.17,3.54-1.32,5.07-2.91a3.11,3.11,0,0,0,.75-2.42,6.6,6.6,0,0,0,3.59-.17,4.2,4.2,0,0,0,1.21-.56,1.38,1.38,0,0,0-.08.17c-.23.6-1.17,3.59.45,4.88.26.22,2.1,1.25,4.67-.84.46-.38,1.93-1.58,2-2.74a2.77,2.77,0,0,0,0-.69,3.61,3.61,0,0,0,1.38-.83,1.5,1.5,0,0,0,.22-1.29,5.18,5.18,0,0,0-.48-1.5,7,7,0,0,1,1.77,1.47c.87,1,2.28,2.75,2.59,2.95a2.42,2.42,0,0,0,2.83.11,7.37,7.37,0,0,0,1.16-1.16,1.72,1.72,0,0,0,1.74,1.42,1.93,1.93,0,0,0,1.91-1.42A7.42,7.42,0,0,0,34.37,11.47ZM19.88,12.91c-1.41.07-1.44-.26-1.28-.43a.81.81,0,0,1,1-.1,3.07,3.07,0,0,1,.58.51Z"/><path class="cls-2" d="M5.09,2.24a4.69,4.69,0,0,0-.66,2.64,4.24,4.24,0,0,0-1.9-2.37c-.11-.06-.31.05-.33.37s-.07.65.07.78,1.07.45.55,1C2.6,4.9,1.45,6.1,1.2,6.38s-.27.35,0,.2a3.33,3.33,0,0,0,2-2.27.94.94,0,0,0-.06-.45.13.13,0,0,1,.06.05,3.88,3.88,0,0,1,1,1.55,1.64,1.64,0,0,1,0,.66,5.29,5.29,0,0,0-.59,2.33c0,.29.16.86.59.9.23,0,.52-.13.77-.83,0-.15.07-.28.09-.34s0-.21-.12,0c-.19.42-.63.7-.92.1a2.21,2.21,0,0,1,.23-1.77,11.72,11.72,0,0,0,.46-2.59c.06-.42.26-1.27.78-.83a3.24,3.24,0,0,1,.25.24c.11.14.25.3.31.14a1.21,1.21,0,0,0,.08-.87C6.18,2.5,5.53,1.68,5.09,2.24Z"/></g></g></g></svg>