<svg xmlns="http://www.w3.org/2000/svg" viewBox="0 0 33.81 22.52"><defs><style>.cls-1{isolation:isolate;}.cls-2{fill-rule:evenodd;mix-blend-mode:darken;}</style></defs><g class="cls-1"><g id="Layer_2" data-name="Layer 2"><g id="سور_الٌقرآن_الكريم" data-name="سور الٌقرآن الكريم"><path class="cls-2" d="M7.17,20l-4,1.88c-.2.09-.25.15-.28.29s-.05.22-.06.25-.05.18.22,0c.09,0,3.71-1.74,3.87-1.83a.57.57,0,0,0,.31-.28L7.38,20C7.41,19.9,7.46,19.81,7.17,20Z"/><path class="cls-2" d="M28.34,17.57a4.47,4.47,0,0,0-.67,2.18c0,.24.14.73.55.77.2,0,.48-.11.71-.69.05-.13.07-.24.09-.29s0-.18-.11,0c-.18.35-.59.58-.86.07a1.89,1.89,0,0,1,.22-1.5c.09-.19.2-.46.2-.46C28.57,17.44,28.48,17.32,28.34,17.57Z"/><path class="cls-2" d="M6.2,10.58l-.53.72-1-.74a.07.07,0,0,0-.08,0L4,11.42a.06.06,0,0,0,0,.08l1,.76a.06.06,0,0,0,.08,0l.53-.73,1,.74a.06.06,0,0,0,.08,0l.61-.84a.05.05,0,0,0,0-.08l-1-.77A.06.06,0,0,0,6.2,10.58Z"/><path class="cls-2" d="M1,8.55A11.36,11.36,0,0,0,0,13c0,.49.22,1.46.82,1.52.32,0,.74-.24,1.1-1.42.06-.27.1-.49.13-.59s0-.36-.17,0c-.27.72-.9,1.2-1.29.19a5,5,0,0,1,.34-3c.14-.37.31-.93.31-.93C1.39,8.27,1.25,8,1,8.55Z"/><path class="cls-2" d="M9.31,7.77a4.76,4.76,0,0,0-.47,2.15c0,.23.18.7.53.71.19,0,.43-.14.59-.72L10,9.63c0-.08,0-.18-.1,0-.13.36-.48.61-.74.13a1.94,1.94,0,0,1,.1-1.47c.07-.18.15-.45.15-.45C9.5,7.63,9.42,7.52,9.31,7.77Z"/><path class="cls-2" d="M28.41,2.56c-.05.12-.46,1-.46,1a4.58,4.58,0,0,1,.18.75c.06.44,1.23,9.21,1.26,9.68s.18.8-.2,1c-1.48.77-4.19,1.62-5.57,2.42A14.82,14.82,0,0,0,20.8,19.9c-.37.41-1.05,1.47-2,1.69A1,1,0,0,1,17.52,21c-.42-1,.57-3.27.77-3.64a.19.19,0,0,0,0-.11,5.4,5.4,0,0,0,2.52-1.46,3.9,3.9,0,0,0,.53-2.5l-1-8L21,6c.1.1.22,0,.17-.12s-1.27-3.11-1.31-3.21-.08-.19-.14-.06l-.45,1a7.35,7.35,0,0,1,.17.75c.06.44,1.23,9.21,1.27,9.68s.17.8-.21,1c-1.48.77-4.19,1.62-5.57,2.42a14.8,14.8,0,0,0-2.81,2.45c-.37.41-1.06,1.47-2,1.69A1,1,0,0,1,8.84,21c-.32-.74.17-2.22.51-3.06A4.24,4.24,0,0,0,10.4,18a3,3,0,0,0,2.35-1.39,5.58,5.58,0,0,0,.35-2.77c-.06-.47-1.21-8.41-1.21-8.41l.68.65c.1.11.22,0,.16-.12s-1.32-3.23-1.36-3.33-.09-.19-.14-.06-.46,1-.46,1a4.58,4.58,0,0,1,.18.75c.06.44.15,1.07.25,1.76,0,0,1.09,7.07,1.17,7.62a11.4,11.4,0,0,1,.18,1.8,2.65,2.65,0,0,1-3,1.21,2.9,2.9,0,0,1-2-2c-.43-1-1.28-.52-1.6-.3a5.62,5.62,0,0,0-2,2.68c-.12.43-.79,2.6-1.61,2.54A2.49,2.49,0,0,1,.77,17.55a6.17,6.17,0,0,1,0-2.08c.09-.33-.06-.47-.2-.09a5.18,5.18,0,0,0,1,5.12,1,1,0,0,0,1.65-.14C3.43,20,4.3,18,4.43,17.67a5.29,5.29,0,0,1,1.3-1.81c.22-.18,1-.82,1.4,0A3.35,3.35,0,0,0,9,17.8a6.92,6.92,0,0,0-.65,2.94A1.74,1.74,0,0,0,11,22.26,10.47,10.47,0,0,0,13.39,20a9.92,9.92,0,0,1,4.48-2.68l.06,0a2.75,2.75,0,0,0-.2.36,7.14,7.14,0,0,0-.69,3,1.73,1.73,0,0,0,2.68,1.52A10.7,10.7,0,0,0,22.07,20a9.92,9.92,0,0,1,4.48-2.68c.84-.26,2.51-.85,3-1.61a4,4,0,0,0,.53-2.5l-1-8,.62.67c.1.1.22,0,.17-.12s-1.27-3.11-1.31-3.21S28.46,2.43,28.41,2.56Z"/><path class="cls-2" d="M31.76,2.56l-.43,1c0,.05.12.46.14.61.17,1.35,1.27,9.29,1.59,11.8.15,1.23.27,2.34.29,2.94,0,.18.07.25.15.08a3.83,3.83,0,0,0,.3-1.52,20.79,20.79,0,0,0-.24-3.6c0-.24-1.18-8.53-1.18-8.53l.72.68c.1.11.22,0,.16-.12S31.94,2.72,31.9,2.62,31.81,2.43,31.76,2.56Z"/><path class="cls-2" d="M16.36,12.66l-.61.84a.05.05,0,0,0,0,.08l1,.76a.06.06,0,0,0,.08,0l.61-.84a.05.05,0,0,0,0-.08l-1-.76A.06.06,0,0,0,16.36,12.66Z"/><path class="cls-2" d="M18.62,9.39a4.75,4.75,0,0,0-.47,2.14c0,.24.18.7.53.71.19,0,.43-.13.59-.71,0-.13.05-.24.06-.29s0-.17-.1,0c-.13.35-.48.6-.74.13a2,2,0,0,1,.1-1.47c.07-.19.15-.46.15-.46C18.81,9.25,18.73,9.13,18.62,9.39Z"/><path class="cls-2" d="M19.22,7.26,14.1,9.6c-.2.1-.25.15-.28.29s-.05.23-.05.25-.06.18.21,0c.09,0,4.87-2.2,5-2.29a.59.59,0,0,0,.31-.29l.11-.27C19.46,7.22,19.51,7.13,19.22,7.26Z"/><path class="cls-2" d="M16.38,2.79a4.11,4.11,0,0,0-.46,2.32,3.7,3.7,0,0,0-1.77-2c-.09,0-.26.05-.27.33s0,.57.1.68a4.93,4.93,0,0,0,.53.34c.06,0,.12,0,.13,0s.09-.23.2-.12a3.43,3.43,0,0,1,1.09,1.59c.06.14.19.15.21,0,.05-.49,0-1.34.07-1.6s.17-1.12.65-.75a2.18,2.18,0,0,1,.22.19c.11.12.24.25.29.11a1.11,1.11,0,0,0,0-.76C17.35,3,16.75,2.28,16.38,2.79Z"/><path class="cls-2" d="M25.14,12.28l-.61.83s0,.07,0,.08l1,.77a.05.05,0,0,0,.08,0l.62-.84a.06.06,0,0,0,0-.08l-1.05-.76A.06.06,0,0,0,25.14,12.28Z"/><path class="cls-2" d="M25.86,7.5a1,1,0,0,0,0,.73c.11.28.41.93.45,1a.16.16,0,0,1-.1.26.72.72,0,0,1-1-.55,6.78,6.78,0,0,0-.21-1.15c-.07-.13-.14-.14-.19,0a2.93,2.93,0,0,0-.09.45.14.14,0,0,0,0,.12c0,.05.32.92.19,1.16s-.79.68-1.14.22a3.67,3.67,0,0,1-.06-1.3c0-.19-.06-.25-.14-.1a.77.77,0,0,0-.12.39c0,.13,0,.72,0,.9s0,.78.35.95.87,0,1.26-.72a.85.85,0,0,0,1,.35,1.05,1.05,0,0,0,.51-.82,1.4,1.4,0,0,0-.18-1,3.51,3.51,0,0,1-.3-.8C26,7.44,25.94,7.25,25.86,7.5Z"/><path class="cls-2" d="M27.2,3.75c-.21.09-4.88,2.38-5.09,2.48s-.25.15-.28.29a2.45,2.45,0,0,0,0,.25c0,.09-.06.18.21,0l5-2.43c.16-.08.24-.13.3-.28a2.24,2.24,0,0,0,.11-.28C27.44,3.7,27.49,3.62,27.2,3.75Z"/><path class="cls-2" d="M4.33,2.67A5.23,5.23,0,0,0,3.9,5.42,4.43,4.43,0,0,0,2,3.1c-.09-.05-.28.08-.27.41s0,.67.11.79a4.77,4.77,0,0,0,.57.4c.07,0,.13,0,.15,0s.08-.28.2-.15a3.73,3.73,0,0,1,1.1,1.61c.23.78-1.44,2.5-1.53,2.58s-.09.22,0,.17a8.83,8.83,0,0,0,1-.79,2.19,2.19,0,0,0,.84-1.68.25.25,0,0,0,0-.09c0-.58,0-1.58,0-1.89s.15-1.32.66-.89a2.8,2.8,0,0,1,.25.22c.11.14.25.3.3.13a1.39,1.39,0,0,0,0-.9C5.35,2.87,4.7,2.07,4.33,2.67Z"/><path class="cls-2" d="M14.15.28,9,2.47A4.58,4.58,0,0,0,7.16,3.72c-.47.76-.25,1.19,0,1.32a1.15,1.15,0,0,1,.43.49c.53-.94-.17-.81-.49-1.26C6.93,4,8.24,3.32,9.27,2.89c3-1.3,4.75-2,4.79-2.05s.09,0,.09-.08l.15-.5C14.32.18,14.23.24,14.15.28Z"/><path class="cls-2" d="M18.63.22a3.35,3.35,0,0,0-.5.72c-.13.2,0,.29.17.13A.74.74,0,0,1,19,.77c.42,0,1.44,0,1.06.25s-.64.45-.64.45c-.25.17-.46.51,0,.32A3,3,0,0,0,20.83.65c.13-.2.28-.45-.32-.54S18.94-.12,18.63.22Z"/></g></g></g></svg>