<svg xmlns="http://www.w3.org/2000/svg" viewBox="0 0 37.64 16.62"><defs><style>.cls-1{isolation:isolate;}.cls-2{fill-rule:evenodd;mix-blend-mode:darken;}</style></defs><g class="cls-1"><g id="Layer_2" data-name="Layer 2"><g id="سور_الٌقرآن_الكريم" data-name="سور الٌقرآن الكريم"><path class="cls-2" d="M10.34,15l-.54.73a.06.06,0,0,0,0,.07l.91.66a0,0,0,0,0,.07,0l.46-.63.88.64a0,0,0,0,0,.07,0l.54-.73s0-.06,0-.07L11.82,15s-.06,0-.07,0l-.46.63L10.41,15S10.35,15,10.34,15Z"/><path class="cls-2" d="M7.89,14.49c-.19.09-3.37,1.36-3.57,1.47s-.26.14-.3.28-.06.23-.07.25-.08.22.21.05c.09-.05,3.31-1.33,3.47-1.42s.26-.13.33-.28a1.58,1.58,0,0,0,.13-.27C8.14,14.46,8.18,14.34,7.89,14.49Z"/><path class="cls-2" d="M20.6,13.39c-.19.09-3.36,1.36-3.56,1.47s-.27.13-.31.28-.06.23-.07.25-.07.22.22,0c.09,0,3.31-1.33,3.47-1.42s.26-.13.33-.28a3,3,0,0,0,.13-.28C20.86,13.35,20.9,13.24,20.6,13.39Z"/><path class="cls-2" d="M19.67,9.62c0,.06-.22.72-.22.72.07.22.31.69.34.84s.08.3-.14.35a1.55,1.55,0,0,1-1.56-.69,6.8,6.8,0,0,0,.24-.68c.06-.17-.07-.36-.18-.13a5.1,5.1,0,0,1-.91,1.54,1.18,1.18,0,0,1-1.87-.35c.05-.14.11-.41.18-.55s0-.39-.16-.17A3.26,3.26,0,0,1,13.83,12c-.37.13-2.12.43-2.63-1.14a2,2,0,0,0,.1-.39c0-.2,0-.41-.23-.19a8.67,8.67,0,0,1-1,1.41c-.4.31-1.93,1.52-3.38-.85-.17-.28-.51-.7-1.3-.22A3.87,3.87,0,0,0,3.82,12.4,13.3,13.3,0,0,1,3,14.52a.8.8,0,0,1-1.31.08A4.43,4.43,0,0,1,.5,11.35c0-.13-.08-.18-.13,0a6.09,6.09,0,0,0,.85,4,1,1,0,0,0,1.79.1c.13-.17.93-2,1.11-2.32a3.63,3.63,0,0,1,1.53-1.5.55.55,0,0,1,.79.27,2.25,2.25,0,0,0,2.44,1.5,2.69,2.69,0,0,0,1.92-1.53,2,2,0,0,0,2,1.33,2.73,2.73,0,0,0,2.08-1,1.54,1.54,0,0,0,1.87.68c.44-.15.95-.92.95-.92a1.64,1.64,0,0,0,1.61.67c.21,0,.69-.17.9-1.13a2.43,2.43,0,0,0-.43-1.83C19.71,9.44,19.7,9.55,19.67,9.62Z"/><path class="cls-2" d="M17.07,7.29l-.46.63-.88-.64a0,0,0,0,0-.07,0L15.13,8a.06.06,0,0,0,0,.08l.91.66a.06.06,0,0,0,.07,0l.46-.64.88.65a.06.06,0,0,0,.07,0L18.06,8a.06.06,0,0,0,0-.08l-.91-.66A0,0,0,0,0,17.07,7.29Z"/><path class="cls-2" d="M5.67,7.11l-.46.63L4.33,7.1a0,0,0,0,0-.07,0l-.53.73a0,0,0,0,0,0,.07l.9.66a.05.05,0,0,0,.08,0l.46-.63.88.64a0,0,0,0,0,.07,0l.53-.73a0,0,0,0,0,0-.07L5.74,7.1A0,0,0,0,0,5.67,7.11Z"/><path class="cls-2" d="M16,5.78l-.54.73a0,0,0,0,0,0,.07l.91.66a0,0,0,0,0,.07,0L17,6.5a0,0,0,0,0,0-.07l-.91-.66A0,0,0,0,0,16,5.78Z"/><path class="cls-2" d="M.58,5.64A8.2,8.2,0,0,0,0,9c0,.38.26,1.1.74,1.1.26,0,.58-.22.79-1.14,0-.2.05-.37.07-.45s-.06-.27-.14,0c-.17.56-.64,1-1,.22A3.55,3.55,0,0,1,.56,6.46c.08-.29.19-.72.19-.72C.84,5.41.71,5.24.58,5.64Z"/><path class="cls-2" d="M11.65,5.47a3.71,3.71,0,0,0-.4,2.12A3.44,3.44,0,0,0,9.62,5.8c-.09,0-.25.06-.25.32s0,.51.09.61A4.68,4.68,0,0,0,10,7c.06,0,.11,0,.12,0s.08-.22.19-.12a3.24,3.24,0,0,1,1,1.45c.05.12.17.13.19-.05,0-.45,0-1.23,0-1.47s.14-1,.58-.69l.21.18c.09.1.21.22.26.09a1,1,0,0,0,0-.69C12.53,5.62,12,5,11.65,5.47Z"/><path class="cls-2" d="M4.5,1.47A3.65,3.65,0,0,0,4.11,3.6,3.46,3.46,0,0,0,2.47,1.81c-.09,0-.24.05-.24.31s0,.52.09.61A4.1,4.1,0,0,0,2.8,3c.06,0,.11,0,.13,0s.07-.21.18-.11a3.25,3.25,0,0,1,1,1.44c0,.13.17.13.19,0,0-.45,0-1.22.05-1.46s.15-1,.58-.69a2.53,2.53,0,0,1,.21.17c.1.11.22.23.26.1a1,1,0,0,0,0-.7C5.38,1.63,4.83,1,4.5,1.47Z"/><path class="cls-2" d="M15.86,1.4l-9,3.94c-.25.12-.31.19-.35.36S6.42,6,6.41,6s-.07.22.27,0C6.79,6,15.39,2.28,15.6,2.17A.66.66,0,0,0,16,1.82c.07-.19.09-.22.13-.35S16.22,1.23,15.86,1.4Z"/><path class="cls-2" d="M8.3.83a3.83,3.83,0,0,0-.37,2c0,.21.21.62.58.61.19,0,.42-.15.57-.68,0-.12,0-.21,0-.26s0-.15-.1,0c-.12.33-.47.57-.76.16,0-.08-.25-.46,0-1.33,0-.16.12-.41.12-.41C8.49.7,8.39.6,8.3.83Z"/><path class="cls-2" d="M18.36.76A7.62,7.62,0,0,0,17.72,4c0,.35.24,1,.72,1,.25,0,.57-.2.8-1.06,0-.19.06-.35.08-.43s-.06-.25-.14,0c-.18.52-.65.89-1,.19a3.3,3.3,0,0,1,.15-2.18c.09-.27.2-.68.2-.68C18.62.56,18.5.39,18.36.76Z"/><path class="cls-2" d="M35.86.33c0,.11-.38.92-.38.92s.1.4.12.54C35.75,3,36.71,9.87,37,12.06c.13,1.08.24,2,.25,2.56,0,.17.06.23.13.07a3.28,3.28,0,0,0,.26-1.32,17.82,17.82,0,0,0-.21-3.14c0-.2-1-7.43-1-7.43l.63.6c.09.09.19,0,.14-.11S36,.48,36,.39,35.9.23,35.86.33Z"/><path class="cls-2" d="M24.91,7.44a4.56,4.56,0,0,0-.41,2.29,1.36,1.36,0,0,0,0,.17c0,.23.17.6.49.62a.4.4,0,0,0,.23-.09c.19-.06.4-.25.54-.78,0-.14,0-.25.05-.3s-.06-.18-.12,0a.75.75,0,0,1-.1.2c0-.06,0-.11-.09,0a.83.83,0,0,1-.07.13c-.17.12-.39.11-.59-.18a.92.92,0,0,1-.11-.34,2.9,2.9,0,0,1,.17-.86l.14-.42c.07-.19,0-.29-.11-.06a1.78,1.78,0,0,0-.08.18s0,0,0-.06c.07-.2.14-.49.14-.49C25.13,7.28,25,7.16,24.91,7.44Z"/><path class="cls-2" d="M29.58,7.16l-.53.73a0,0,0,0,0,0,.07l.91.66a0,0,0,0,0,.07,0l.53-.73s0-.06,0-.07l-.91-.67A.05.05,0,0,0,29.58,7.16Z"/><path class="cls-2" d="M31.47,4.17a4.28,4.28,0,0,0-.44,2c0,.22.16.65.49.66.17,0,.39-.12.55-.66,0-.12,0-.22.06-.27s0-.16-.1,0c-.12.33-.45.56-.69.12a1.85,1.85,0,0,1,.1-1.36l.14-.42C31.64,4,31.56,3.94,31.47,4.17Z"/><path class="cls-2" d="M31.92,2.09l-8.8,4.38c-.24.12-.31.17-.35.35s-.07.26-.08.3-.09.24.26,0c.11-.06,8.49-4.2,8.68-4.32s.31-.16.39-.34l.15-.33C32.22,2.05,32.27,1.92,31.92,2.09Z"/><path class="cls-2" d="M25.8.69a3.73,3.73,0,0,0-.39,2.13A3.41,3.41,0,0,0,23.77,1c-.08,0-.24.05-.24.31s0,.51.09.61a3.43,3.43,0,0,0,.49.31c.05,0,.11,0,.12,0s.07-.21.18-.12a3.3,3.3,0,0,1,1,1.45c.06.13.18.13.19,0,0-.45,0-1.22.05-1.46s.15-1,.59-.69a1.77,1.77,0,0,1,.2.17c.1.11.22.23.26.09a1,1,0,0,0,0-.69C26.69.84,26.13.22,25.8.69Z"/><path class="cls-2" d="M34.84,10.61c-.05-.4-.47-3.1-.47-3.1l-.8-4.71.63.6c.09.09.19,0,.14-.1S33.19.48,33.15.39,33.08.23,33,.33l-.4.89a5.55,5.55,0,0,1,.15.65c.05.39.13.93.22,1.53,0,0,1.29,7.38,1.35,7.83s.2,1.26,0,1.42a3.11,3.11,0,0,1-2.42.62,2.91,2.91,0,0,1-1-.63A20.76,20.76,0,0,1,33,11.58s.29-.64.32-.74,0-.22-.22-.35a8.88,8.88,0,0,0-5.74,0,.87.87,0,0,0-.35.41,6.08,6.08,0,0,0-.2.62c0,.1,0,.2.15.15a3.58,3.58,0,0,1,.48-.22.67.67,0,0,1,.46,0,2.75,2.75,0,0,1,1.35.89l.17.18a12.62,12.62,0,0,1-3.38,1.24c-.29,0-2.35.36-3.35-1.13a9.53,9.53,0,0,1-.76-3.69c-.24-2.68-.68-7.1-1.25-8.73-.13-.36-.18,0-.27.22s-.27.39-.12.86c.58,2,1.31,10,1.33,10.11.07.89.37,2.84,2.21,3.31a7.69,7.69,0,0,0,5.45-1.09l.78-.45c.35.35.71.69.83.79a2.61,2.61,0,0,0,2.43.32,1.91,1.91,0,0,0,1.49-1.68A6.33,6.33,0,0,0,34.84,10.61ZM30.32,12l-.16-.22a5.11,5.11,0,0,0-.77-.71,11.11,11.11,0,0,1,2.29.11C31.56,11.23,31,11.57,30.32,12Z"/></g></g></g></svg>