<svg xmlns="http://www.w3.org/2000/svg" viewBox="0 0 38.05 16.49"><defs><style>.cls-1{isolation:isolate;}.cls-2{fill-rule:evenodd;mix-blend-mode:darken;}</style></defs><g class="cls-1"><g id="Layer_2" data-name="Layer 2"><g id="سور_الٌقرآن_الكريم" data-name="سور الٌقرآن الكريم"><path class="cls-2" d="M22.28,14.3l-.11.18s0,.12.06,0,.48-.28.53.1c0,.07,0,.41-.43,1l-.22.27c-.1.12-.07.22.07.07A3.37,3.37,0,0,0,23,14.58c0-.16.06-.51-.18-.61S22.54,14,22.28,14.3Z"/><path class="cls-2" d="M32.77,14.13c-.06.08-.09.15-.12.18s0,.12.07,0,.48-.28.53.1c0,.07,0,.41-.43,1l-.22.27c-.1.12-.07.22.06.07a3.16,3.16,0,0,0,.85-1.31c.05-.16.06-.51-.17-.61S33,13.79,32.77,14.13Z"/><path class="cls-2" d="M8.19,13.77c-.21.09-4.12,2-4.33,2.07s-.25.15-.28.29-.05.23-.05.25-.06.18.21,0l4.24-2a.52.52,0,0,0,.3-.28c.06-.15.08-.18.11-.28S8.48,13.63,8.19,13.77Z"/><path class="cls-2" d="M15.71,13.35a4,4,0,0,0-.4,1.81c0,.2.15.59.45.6s.35-.11.5-.6c0-.11,0-.2,0-.24s0-.15-.09,0c-.11.3-.41.51-.63.11a1.74,1.74,0,0,1,.09-1.24c.06-.15.13-.38.13-.38C15.87,13.24,15.79,13.14,15.71,13.35Z"/><path class="cls-2" d="M5.35,7.24l-.44.61-.86-.62a0,0,0,0,0-.07,0L3.47,8a0,0,0,0,0,0,.07l.89.64a0,0,0,0,0,.06,0L4.87,8l.85.62a0,0,0,0,0,.07,0l.52-.71a0,0,0,0,0,0-.07l-.88-.64A0,0,0,0,0,5.35,7.24Z"/><path class="cls-2" d="M10.47,7,10,7.73a0,0,0,0,0,0,.07l.88.64a0,0,0,0,0,.07,0l.51-.71a0,0,0,0,0,0-.07L10.54,7A.06.06,0,0,0,10.47,7Z"/><path class="cls-2" d="M23.14,7l-.44.61L21.84,7a0,0,0,0,0-.07,0l-.51.71a0,0,0,0,0,0,.07l.88.64a0,0,0,0,0,.06,0l.45-.61.86.62a0,0,0,0,0,.06,0l.52-.71a0,0,0,0,0,0-.07L23.21,7A0,0,0,0,0,23.14,7Z"/><path class="cls-2" d="M31.26,5.71a.91.91,0,0,1,.22.78L31,6.26c-.16-.07-.24-.17-.17-.27C31.05,5.64,31.17,5.66,31.26,5.71Z"/><path class="cls-2" d="M30.61,5.52c-.18.28-.32,1-.05,1.15a3.08,3.08,0,0,0,.65.35,7.77,7.77,0,0,1-2.8,2.23c-.19.11-.15.2,0,.17a5.12,5.12,0,0,0,2.16-1,3.91,3.91,0,0,0,1-1.26s.31.25.35.3.15.21.19.08a.67.67,0,0,0-.29-.85,1.84,1.84,0,0,0-.18-1.4C31.51,5.15,31.09,4.78,30.61,5.52Z"/><path class="cls-2" d="M26.19,5a4,4,0,0,0-.52.74c-.13.21,0,.3.19.14a.73.73,0,0,1,.69-.31c.44,0,1.49,0,1.1.26s-.66.45-.66.45c-.26.19-.48.53,0,.34a3.17,3.17,0,0,0,1.5-1.18c.13-.2.29-.47-.33-.56S26.52,4.63,26.19,5Z"/><path class="cls-2" d="M14.57,2.86a6.9,6.9,0,0,0-.83,2.92c0,.33.14,1,.6,1,.23,0,.55-.15.83-.93.05-.18.08-.32.1-.4s0-.24-.13,0c-.21.47-.68.78-1,.1a3,3,0,0,1,.29-2L14.71,3C14.82,2.68,14.73,2.52,14.57,2.86Z"/><path class="cls-2" d="M2.51,1.14A4.37,4.37,0,0,0,2,3.53,4,4,0,0,0,.3,1.38c-.09,0-.27.05-.28.34s-.06.59.06.7a3.67,3.67,0,0,0,.5.38c.06,0,.12,0,.14,0s.09-.24.2-.12a3.39,3.39,0,0,1,.92,1.48C2,4.83.35,6.23.26,6.3s-.1.19,0,.15a7.91,7.91,0,0,0,1-.63,2,2,0,0,0,.89-1.43s0,0,0-.07c.07-.51.11-1.39.15-1.66S2.5,1.51,3,1.92l.21.21c.09.12.21.27.27.12a1.12,1.12,0,0,0,.06-.78C3.45,1.38,2.89.63,2.51,1.14Z"/><path class="cls-2" d="M5.5.93a7,7,0,0,0-.83,2.92c0,.33.15,1,.6,1,.23,0,.55-.15.83-.93.05-.18.08-.32.11-.39s0-.24-.13,0c-.21.48-.68.78-1,.1a3,3,0,0,1,.29-2c.11-.25.24-.62.24-.62C5.76.75,5.66.59,5.5.93Z"/><path class="cls-2" d="M30.39.8A3.85,3.85,0,0,0,30,2.61c0,.2.14.59.44.6s.36-.12.5-.6l0-.25c0-.06,0-.14-.08,0s-.41.51-.63.11a1.62,1.62,0,0,1,.09-1.24l.12-.38C30.55.68,30.48.59,30.39.8Z"/><path class="cls-2" d="M27.81.73,18.12,5c-.26.12-.34.17-.4.35a1.71,1.71,0,0,1-.1.32c0,.13-.11.25.28.07.12,0,9.35-4.05,9.56-4.17s.33-.15.43-.34a3,3,0,0,0,.18-.35C28.13.7,28.2.57,27.81.73Z"/><path class="cls-2" d="M19.68.53a3.92,3.92,0,0,0-.55,2.22,3.59,3.59,0,0,0-1.61-2c-.09-.05-.26,0-.27.31s-.06.54.05.65a3.51,3.51,0,0,0,.5.36c.05,0,.11,0,.13,0s.09-.21.2-.1a3.37,3.37,0,0,1,1,1.58c0,.14.18.15.2,0,.07-.47.11-1.29.15-1.54s.22-1.06.66-.69c.1.09.2.2.2.2s.22.25.27.11a1,1,0,0,0,.07-.73C20.6.75,20.06.06,19.68.53Z"/><path class="cls-2" d="M16.77.42,7.09,4.65c-.27.12-.35.17-.4.35s-.08.28-.1.32-.11.25.28.07c.12,0,9.34-4.06,9.56-4.17s.33-.15.43-.34S17,.66,17,.53,17.17.26,16.77.42Z"/><path class="cls-2" d="M35.89,11.22a3.42,3.42,0,0,0-1.54.15c-.06-.17-.09-.35-.14-.55C33.47,7.52,33,2.44,33,2.44s.53.49.61.58.19,0,.14-.1S32.6.19,32.57.1s-.07-.15-.12,0l-.38.86a3.94,3.94,0,0,1,.14.63c.06.4.92,7.83,1.42,10.05a0,0,0,0,0,0,0l-.18.09a4.63,4.63,0,0,1-5.59-.55l0-.11c.05-.2-.08-.4-.35,0a1.18,1.18,0,0,0-.11.18,2.68,2.68,0,0,1-.45.57c-.23.21-2.62,2.3-3.55-.55.08-.34,0-.62-.2-.32s-1.41,2.3-3.37,1.76a1.62,1.62,0,0,1-1.11-1.54h0a12.83,12.83,0,0,1,2.09.09c.09-.13.51-1,.51-1A18.45,18.45,0,0,1,14.7,8.55a.72.72,0,0,0-.46-.09A6.7,6.7,0,0,0,12.5,9c-.09,0-.08,0-.12.11s-.28.66-.32.74,0,.12.17.12l2-.1s.07,0,.08-.07.08-.1.22,0,2.06.69,2.59.89c-.36.15-4.61,2.38-5.3-.14,0-.2,0-.64-.2-.31A3.17,3.17,0,0,1,8.75,12c-.2,0-1.26-.08-2.35-1.83-.21-.33-.73-.51-1.34,0a5,5,0,0,0-1.87,2.68c-.18.44-.49,1.41-1.37,1.29-.26,0-1.6-.73-1.32-3.85,0-.25-.08-.35-.14-.12s-.74,2.8.77,4.57A1,1,0,0,0,3,14.59c.18-.31,1-2.69,2.18-3.4.28-.18.6-.39,1,.14a3.27,3.27,0,0,0,2.7,1.74,3,3,0,0,0,2.53-1.59c.06.1.58,1.63,2.75,1.14,1-.23,3.61-1.38,3.92-1.43l.38,0a2,2,0,0,0,1.82,2.64,3.07,3.07,0,0,0,2.85-1.68c0,.48,1.28,3,3.92.67l.08-.06a2.78,2.78,0,0,0,1.16,2,1.5,1.5,0,0,0,.82.28c.21,0,.43-.19.46-.63a7.12,7.12,0,0,0,0-1.06,6.34,6.34,0,0,0,3.7-.53c.11,0,.36-.15.66-.25A2.76,2.76,0,0,0,35.36,14c.53.22,1,.23,1.24-.57C36.72,13.05,37.18,11.48,35.89,11.22Zm.18,1.86a2.1,2.1,0,0,1-1.26-.81,1.76,1.76,0,0,1,.77,0C36.3,12.41,36.42,13.14,36.07,13.08Z"/><path class="cls-2" d="M36.32.05c0,.11-.3.81-.3.81.07.45.67,5.33.71,5.66s.88,5.85.93,7.38c0,.16.06.21.13.06s.56-1.16,0-4.9c-.05-.31-.93-6.62-.93-6.62s.52.49.6.58.19,0,.14-.1S36.46.19,36.43.1,36.36,0,36.32.05Z"/></g></g></g></svg>