<svg xmlns="http://www.w3.org/2000/svg" viewBox="0 0 33.52 20.36"><defs><style>.cls-1{isolation:isolate;}.cls-2{fill-rule:evenodd;mix-blend-mode:darken;}</style></defs><g class="cls-1"><g id="Layer_2" data-name="Layer 2"><g id="سور_الٌقرآن_الكريم" data-name="سور الٌقرآن الكريم"><path class="cls-2" d="M13,17.82l-.16.23c0,.06,0,.16.09,0s.65-.34.69.17A1.83,1.83,0,0,1,13,19.48c-.13.13-.3.33-.3.33-.14.15-.11.28.08.11A4.47,4.47,0,0,0,14,18.24c.08-.2.11-.66-.19-.81S13.39,17.39,13,17.82Z"/><path class="cls-2" d="M20.85,17.82l-.16.23c0,.06,0,.16.09,0s.65-.34.69.17a1.83,1.83,0,0,1-.64,1.23c-.13.13-.3.33-.3.33-.14.15-.11.28.08.11a4.47,4.47,0,0,0,1.21-1.68c.08-.2.11-.66-.19-.81S21.22,17.39,20.85,17.82Z"/><path class="cls-2" d="M29.64,16.6l-.16.22c0,.07,0,.17.09,0s.65-.34.69.17a1.89,1.89,0,0,1-.64,1.22l-.3.34c-.14.15-.11.28.08.1A4.4,4.4,0,0,0,30.61,17c.08-.21.11-.67-.19-.81S30,16.16,29.64,16.6Z"/><path class="cls-2" d="M3.71,11.56a5.2,5.2,0,0,0-.23.61,7.31,7.31,0,0,1,1.45,5.35c-.06.31.05.27.12.14a6.41,6.41,0,0,0-1-6.05C3.8,11.33,3.78,11.44,3.71,11.56Z"/><path class="cls-2" d="M22.09,8l-.62.84a.07.07,0,0,0,0,.09l1.06.77a.07.07,0,0,0,.08,0l.62-.85a.06.06,0,0,0,0-.08L22.17,8A.06.06,0,0,0,22.09,8Z"/><path class="cls-2" d="M4.23,6.68a5.36,5.36,0,0,0-.46,2.66c0,.29.27.84.73.83.24,0,.54-.19.72-.92,0-.16,0-.29.06-.35s-.06-.21-.13,0c-.15.44-.59.77-1,.21a2.35,2.35,0,0,1,0-1.81c.08-.23.17-.57.17-.57C4.47,6.5,4.34,6.37,4.23,6.68Z"/><path class="cls-2" d="M23.4,4.15a.88.88,0,0,0,0,.66c.1.26.37.85.41.94s.06.18-.09.24a.67.67,0,0,1-.94-.51,4.79,4.79,0,0,0-.2-1c-.06-.13-.12-.14-.17,0a4,4,0,0,0-.08.41.11.11,0,0,0,0,.11s.29.85.17,1.07-.72.61-1,.2A3.32,3.32,0,0,1,21.4,5c0-.17-.06-.23-.13-.09a.58.58,0,0,0-.11.36c0,.12,0,.66,0,.83s0,.71.32.86.79,0,1.15-.66a.78.78,0,0,0,.91.32A.94.94,0,0,0,24,5.88,1.29,1.29,0,0,0,23.85,5a3.28,3.28,0,0,1-.27-.73C23.52,4.09,23.48,3.92,23.4,4.15Z"/><path class="cls-2" d="M26,3.78a5.46,5.46,0,0,0-.39,2.54c0,.27.24.8.65.79.21,0,.48-.18.63-.87,0-.16,0-.28.05-.34s-.05-.2-.11,0c-.13.42-.52.73-.85.19a2.3,2.3,0,0,1,0-1.72c.07-.22.14-.54.14-.54C26.22,3.6,26.12,3.47,26,3.78Z"/><path class="cls-2" d="M15.36,2.18A5.56,5.56,0,0,0,15,4.72c0,.27.25.8.66.79.21,0,.47-.18.63-.87,0-.15,0-.28.05-.34s-.06-.2-.11,0c-.13.42-.52.73-.85.2a2.34,2.34,0,0,1,0-1.73c.06-.22.14-.54.14-.54C15.57,2,15.46,1.88,15.36,2.18Z"/><path class="cls-2" d="M4.31,1.49a4.73,4.73,0,0,0-.66,2.65A4.35,4.35,0,0,0,1.72,1.75c-.1-.05-.31.06-.33.38s-.06.65.07.78a4.22,4.22,0,0,0,.59.42c.07,0,.14,0,.16,0s.11-.26.24-.13A4.08,4.08,0,0,1,3.61,5.07c.06.16.21.17.25-.06C3.94,4.45,4,3.47,4,3.17s.26-1.27.79-.83l.25.24c.11.14.25.3.32.14a1.24,1.24,0,0,0,.07-.88C5.41,1.75,4.76.92,4.31,1.49Z"/><path class="cls-2" d="M16.61.52l-10.84,5c-.3.13-.38.2-.44.4s-.09.32-.11.37-.12.28.32.07C5.67,6.3,16,1.57,16.23,1.43s.38-.18.49-.39.13-.25.19-.4S17.05.33,16.61.52Z"/><path class="cls-2" d="M29.93,10.06c-.11-.61-1.23-7-1.23-7l.72.69c.1.12.23.06.17-.12S28.35.43,28.3.33s-.07-.19-.13-.06-.47,1-.47,1a4.92,4.92,0,0,1,.18.75c.07.49,1.67,10.38,1.63,10.73s0,.5-.17.59a8.9,8.9,0,0,1-1.65.86c.68-2.26.45-2.41.32-2.59a2.82,2.82,0,0,0-2.79-1.23c-1.75.23-3.36,2.59-3.78,3.1-.19.22-.58.76-1,1.36A2.91,2.91,0,0,1,19,13.53c.12-.36,0-.66-.21-.32s-.61,1.15-.89,1.46-1.73,1.44-3.06.38c-.21-.17-1.6-1.2-.57-4.45,2.09-1,4-2,4.09-2a3.93,3.93,0,0,0,.31-1.11C10.8,6.23,8.53,7.32,8.09,7.58a1.86,1.86,0,0,0-.63,1.51A1.52,1.52,0,0,0,8,10c.17.12.88.59,1.48,1.09.18.16.39.36.6.57-1.44.73-2.62,1.33-2.8,1.47s-.3,1-.3,1.25a9.48,9.48,0,0,0,2.91.78c1.32.23,1.51.46,1.61.62s-1,.9-1.46,1.18c-4.82,3-7.21,2-7.66,1.83C-.6,17.8,1,13.5,1.09,13a.43.43,0,0,0,0-.19.22.22,0,0,0,.14,0c.3,0,.68-.29.91-1.42,0-.26,0-.46.07-.56s-.09-.33-.17,0c-.18.69-.74,1.21-1.23.31a4.3,4.3,0,0,1,0-2.83c.09-.36.2-.88.2-.88.1-.4-.06-.62-.2-.11a9.94,9.94,0,0,0-.55,4.16,1.78,1.78,0,0,0,.58,1.18.89.89,0,0,1-.09.16,8.41,8.41,0,0,0-.7,4.82c.48,2.94,4,2.7,4.52,2.64,3.4-.3,6.17-2.73,6.79-3.22a1.92,1.92,0,0,0,.7-1.34c.18-1.38-.6-1.59-.91-1.7s-2.31-.54-2.31-.54a14.3,14.3,0,0,1,1.87-1.13c.18.19.3.34.33.37s.11.2.19-.07a1.08,1.08,0,0,0,0-.59l2.41-1.24a8.42,8.42,0,0,0-.1,4A2.44,2.44,0,0,0,17.8,16a5.76,5.76,0,0,0,.83-1.23,3.06,3.06,0,0,0,.95,1.15,1.5,1.5,0,0,0,.22.11,4.76,4.76,0,0,0-.4,1s-.14.51,0,.54.19-.06.32-.34a10,10,0,0,1,.51-1.09,10.94,10.94,0,0,0,4.49,0,12.63,12.63,0,0,0,4.46-1.65c.35-.19.73-.35.86-1.91A13.89,13.89,0,0,0,29.93,10.06Zm-19,1.18a7.32,7.32,0,0,0-1.19-1.18S8.25,8.93,8.07,8.81s.7-.58,1.89-.66a26.27,26.27,0,0,1,6.37.24C16.33,8.5,13.41,10,10.88,11.24Zm16.35,2.11c-2.1,1.84-5.4,1.7-6.32,1.63a12.42,12.42,0,0,1,3.28-3.13c1.21-.76,2.35.11,2.95.57S27.42,13.17,27.23,13.35Z"/><path class="cls-2" d="M31.45.27,31,1.33c0,.06.12.47.14.62.18,1.36,1.29,9.38,1.61,11.92.16,1.25.28,2.37.29,3,0,.18.07.25.16.07a4.14,4.14,0,0,0,.29-1.53,20.3,20.3,0,0,0-.24-3.64c0-.24-1.19-8.62-1.19-8.62l.73.69c.1.11.22.05.16-.12S31.62.44,31.58.33,31.5.14,31.45.27Z"/><path class="cls-2" d="M22.54,1.76A2,2,0,0,0,22.38.23c-.07-.13-.52-.56-1.07.25-.21.3-.38,1-.1,1.26a4.88,4.88,0,0,0,.71.4A19,19,0,0,1,17.79,5.7c-.2.12-.17.22,0,.2a10.33,10.33,0,0,0,2.39-1.26,10.49,10.49,0,0,0,2.11-2.36,3.66,3.66,0,0,1,.37.35c.1.12.16.22.2.09A.74.74,0,0,0,22.54,1.76Zm-.3-.2-.56-.27c-.16-.07-.25-.19-.18-.3.28-.37.42-.34.52-.29A1.08,1.08,0,0,1,22.24,1.56Z"/></g></g></g></svg>