<svg xmlns="http://www.w3.org/2000/svg" viewBox="0 0 36.24 19.35"><defs><style>.cls-1{isolation:isolate;}.cls-2{fill-rule:evenodd;mix-blend-mode:darken;}</style></defs><g class="cls-1"><g id="Layer_2" data-name="Layer 2"><g id="سور_الٌقرآن_الكريم" data-name="سور الٌقرآن الكريم"><path class="cls-2" d="M28.71,17.8l-.56.77a0,0,0,0,0,0,.07l1,.7a0,0,0,0,0,.07,0l.56-.77a.06.06,0,0,0,0-.08l-1-.7A.05.05,0,0,0,28.71,17.8Z"/><path class="cls-2" d="M8.36,16.83c-.21.07-3.58,1.5-3.81,1.59s-.28.15-.33.3L4.15,19c0,.1-.1.18.23.05L8.09,17.5a.58.58,0,0,0,.35-.29c.08-.16.1-.19.14-.29S8.68,16.73,8.36,16.83Z"/><path class="cls-2" d="M18.82,16a4.34,4.34,0,0,0-.43,2c0,.21.16.64.49.65.16,0,.38-.12.54-.66,0-.12,0-.21,0-.26s0-.16-.09,0-.44.55-.68.12a1.79,1.79,0,0,1,.09-1.35c.06-.17.14-.42.14-.42C19,15.91,18.91,15.81,18.82,16Z"/><path class="cls-2" d="M33.9,15.57a4.2,4.2,0,0,0-.43,2c0,.21.16.64.48.65.17,0,.39-.13.54-.66,0-.12,0-.21.06-.26s0-.16-.09,0-.45.55-.69.11a1.79,1.79,0,0,1,.1-1.34c.06-.17.14-.42.14-.42C34.07,15.44,34,15.34,33.9,15.57Z"/><path class="cls-2" d="M14,12.32a4.24,4.24,0,0,0-.42,2c0,.21.15.63.48.65.17,0,.39-.13.54-.66,0-.12,0-.21.06-.26s0-.16-.09,0c-.13.32-.45.55-.69.11A1.79,1.79,0,0,1,14,12.8c.06-.17.13-.42.13-.42C14.19,12.19,14.11,12.09,14,12.32Z"/><path class="cls-2" d="M6,9.52l-.48.66-.93-.67a.05.05,0,0,0-.08,0l-.56.77a0,0,0,0,0,0,.07l1,.7a0,0,0,0,0,.07,0l.49-.67.93.68a0,0,0,0,0,.07,0L7,10.28a.05.05,0,0,0,0-.08L6,9.51A0,0,0,0,0,6,9.52Z"/><path class="cls-2" d="M17.12,6.62a4.32,4.32,0,0,0-.43,2c0,.22.16.64.49.65.17,0,.39-.12.54-.65,0-.12,0-.22.06-.26s0-.16-.1,0c-.12.32-.44.55-.68.11a1.79,1.79,0,0,1,.1-1.34c.06-.17.13-.42.13-.42C17.3,6.49,17.22,6.39,17.12,6.62Z"/><path class="cls-2" d="M7.49,6a3.85,3.85,0,0,0-.4,1.83c0,.2.14.59.45.6.15,0,.36-.11.5-.6,0-.12,0-.21.05-.25s0-.15-.08,0-.42.51-.64.11a1.67,1.67,0,0,1,.09-1.26c.06-.15.13-.39.13-.39C7.65,5.91,7.57,5.81,7.49,6Z"/><path class="cls-2" d="M2.88,2.35a4.16,4.16,0,0,0-.6,2.4A4,4,0,0,0,.53,2.59c-.09,0-.28.05-.3.34s-.06.59.06.71A3.68,3.68,0,0,0,.83,4c.06,0,.12,0,.14,0s.1-.24.22-.12A3.79,3.79,0,0,1,2.24,5.59c.06.15.19.16.23,0,.07-.52.11-1.4.15-1.67s.24-1.16.72-.75a2.5,2.5,0,0,1,.22.21c.11.13.23.27.3.13a1.12,1.12,0,0,0,.06-.8C3.88,2.58,3.28,1.83,2.88,2.35Z"/><path class="cls-2" d="M9.71,2.16c0,.11-.41.93-.41.93s.09.27.15.69,1.74,8.37,1.84,9,.15,1.14-.39,1.45-2.82,1.4-3.84-.94c-.22-.52-.8-1.1-1.74-.19a9,9,0,0,0-1.91,3.35c-.21.49-.87,1.38-1.81.37a4.33,4.33,0,0,1-.86-3.28.74.74,0,0,0,0-.21h0c.28,0,.65-.25.93-1.4.05-.26.08-.47.1-.57s-.05-.35-.15,0c-.22.7-.76,1.19-1.14.23A5.08,5.08,0,0,1,.74,8.68L1,7.77c.12-.41,0-.63-.17-.13A11.64,11.64,0,0,0,0,11.9a1.86,1.86,0,0,0,.54,1.35s0,.08,0,.14c-.1.5-.44,4,1.56,4.92.59.28,1.24.13,1.82-1.75a5.73,5.73,0,0,1,1.57-2.42,1.48,1.48,0,0,1,.7-.35c.17,0,.36.11.61.53a2.72,2.72,0,0,0,3.12,1.57,2,2,0,0,0,.67-.24.6.6,0,0,0-.05.16c-.14.51-.57,2.55.39,3.08.51.29,1.26.49,3.59-.91.72-.44,3.81-2.37,4.26-2.73a2.16,2.16,0,0,0,.7-1.85,2,2,0,0,0-1-1.45A21.16,21.16,0,0,0,16,11a17.11,17.11,0,0,1-1.81-1l.56-.11c.13,0,.18-.14,0-.23S13.15,9.05,13,9s-.17-.06-.18.07.08,1.07.08,1.07a6.64,6.64,0,0,0,2.16,1.5c.26.12,3.07,1.14,3.76,1.84.23.31.26.41,0,.57s-5.11,3.18-6.18,3.65c-.22.1-2.37,1-1.87-1.93a.38.38,0,0,0,0-.26A2.73,2.73,0,0,0,11.82,13,39.09,39.09,0,0,0,11.2,9l-.92-4.23s.57.54.66.64.2,0,.15-.12-1.22-3-1.25-3.06S9.76,2.05,9.71,2.16Z"/><path class="cls-2" d="M28.83,7.55A2,2,0,0,0,28.74,6c-.07-.14-.49-.59-1.09.2-.23.29-.45,1-.17,1.28a4.09,4.09,0,0,0,.7.45,19.83,19.83,0,0,1-4.39,3.43c-.22.1-.18.21-.06.19a9.7,9.7,0,0,0,2.51-1.17,10.43,10.43,0,0,0,2.27-2.3l.37.37c.09.14.14.24.2.11A.75.75,0,0,0,28.83,7.55Zm-.3-.22L28,7c-.17-.09-.25-.21-.16-.32.3-.36.43-.33.53-.26A1,1,0,0,1,28.53,7.33Z"/><path class="cls-2" d="M28.17,3.67C28,3.76,22.4,6.56,22,6.91a1.3,1.3,0,0,0-.46.75c-.09.44,0,.87.3.91a.53.53,0,0,1,.36.22s0,0,.06,0a.52.52,0,0,0-.36-.83c-.15,0-.22-.25.34-.61s5.65-2.93,5.76-3,.25-.15.31-.3.08-.19.11-.29S28.45,3.49,28.17,3.67Z"/><path class="cls-2" d="M23.51,1.88a5.15,5.15,0,0,0-.38,2.41c0,.26.23.77.63.76.2,0,.45-.18.6-.83,0-.15,0-.27.05-.32s-.05-.19-.11,0c-.12.4-.49.7-.81.19a2.22,2.22,0,0,1,0-1.64c.06-.2.14-.51.14-.51C23.71,1.71,23.61,1.6,23.51,1.88Z"/><path class="cls-2" d="M16,1.81a4.51,4.51,0,0,0-.62,2.53,4.19,4.19,0,0,0-1.81-2.27c-.1,0-.3.05-.31.36s-.07.62.06.74a3,3,0,0,0,.56.4c.06,0,.13,0,.14,0s.11-.25.23-.13a3.7,3.7,0,0,1,1,1.57c.18.74-1.64,2.23-1.74,2.3s-.11.2,0,.16a9.84,9.84,0,0,0,1.09-.67,2,2,0,0,0,1-1.52.14.14,0,0,0,0-.07c.08-.54.12-1.47.16-1.75s.25-1.22.75-.8l.23.23c.1.13.24.29.3.13a1.15,1.15,0,0,0,.07-.83C17,2.06,16.39,1.27,16,1.81Z"/><path class="cls-2" d="M26.66,13.18a13.62,13.62,0,0,1,4.08-2.29,2.65,2.65,0,0,0,.26.63c1.17,1.77,2.18,1,2.36.76a1.94,1.94,0,0,0-.06-2.22,2.43,2.43,0,0,0-2.13-.35A9.72,9.72,0,0,1,30.8,8.1c-.1-.66-.68-4.47-.61-4.35s.59.57.68.67.2,0,.15-.11-1.22-3-1.25-3.06-.08-.17-.12-.06l-.42.94a5.21,5.21,0,0,1,.15.68c.05.33.12.77.19,1.27,0,0,.42,3.6.92,5.84a14.49,14.49,0,0,0-4.64,2.92c-.2.23-.94,1.33-.77,1.35l5,.58c-.55.21-4.37,2.52-6.91,1.77-.67-.2-1.85-.55-2.19-3.48-.09-.7-.43-4.56-.55-5.64s-.71-4.84-.84-5.34-.26-.47-.37-.22-.3.77-.3.77a65.63,65.63,0,0,1,1.35,11c.25,2.22.68,3.77,3,4.22,1.19.24,2.65.29,7-2.17a11,11,0,0,1,4-.76l.43-1A72.11,72.11,0,0,1,26.66,13.18ZM32,10.71c.83.15,1.37.77.87.81a1.47,1.47,0,0,1-1.16-.5,3.27,3.27,0,0,1-.19-.31A1.92,1.92,0,0,1,32,10.71Z"/><path class="cls-2" d="M34.36,1.19c0,.11-.32.87-.32.87.07.5.72,5.8.77,6.16s1,6.35,1,8c0,.17.07.24.14.07s.62-1.27,0-5.32c0-.34-1-7.19-1-7.19s.57.53.66.63.2,0,.15-.11-1.21-3-1.25-3.06S34.4,1.08,34.36,1.19Z"/><path class="cls-2" d="M11.18.09C11,.18,5.41,3,5,3.33a1.33,1.33,0,0,0-.46.76c-.09.43,0,.86.3.91a.53.53,0,0,1,.36.21,0,0,0,0,0,.07,0,.53.53,0,0,0-.36-.83c-.16,0-.22-.26.34-.62S10.87.83,11,.75s.25-.16.31-.31A3.05,3.05,0,0,0,11.4.15C11.43,0,11.47-.09,11.18.09Z"/></g></g></g></svg>