<svg xmlns="http://www.w3.org/2000/svg" viewBox="0 0 28.92 23.78"><defs><style>.cls-1{isolation:isolate;}.cls-2{fill-rule:evenodd;mix-blend-mode:darken;}</style></defs><g class="cls-1"><g id="Layer_2" data-name="Layer 2"><g id="سور_الٌقرآن_الكريم" data-name="سور الٌقرآن الكريم"><path class="cls-2" d="M5,21.59c-.27.09-3.37,1.19-3.67,1.32s-.36.18-.42.37a2.46,2.46,0,0,1-.09.34c0,.13-.12.24.3.07.2-.08,3.25-1.13,3.54-1.26a.72.72,0,0,0,.44-.37,4,4,0,0,0,.18-.37C5.38,21.54,5.45,21.45,5,21.59Z"/><path class="cls-2" d="M8.3,20l-.72,1a.09.09,0,0,0,0,.1L8.82,22a.07.07,0,0,0,.09,0l.72-1a.07.07,0,0,0,0-.09L8.39,20A.06.06,0,0,0,8.3,20Z"/><path class="cls-2" d="M2.38,19.24c-.45.35-1.49,1.36-1,1.83l.39.33a.61.61,0,0,0-.31.32c-.08.15-.09.19-.13.27s-.06.21.15.09a5.09,5.09,0,0,1,2.1-.91c.19,0,.36-.35.36-.35s.24-.44,0-.29a2.79,2.79,0,0,1-1.3.3,1.45,1.45,0,0,1-.78-.47c-.08-.13-.07-.27.18-.42s.53-.25.72.08c0,.05.08.05.16,0a2.26,2.26,0,0,0,.29-.38.2.2,0,0,0,0-.25A.51.51,0,0,0,2.38,19.24Z"/><path class="cls-2" d="M18.69,19a5.14,5.14,0,0,0-.51,2.34c0,.26.19.76.58.77.2,0,.46-.14.64-.77l.06-.32c0-.08,0-.18-.1,0-.15.39-.53.66-.82.14a2.12,2.12,0,0,1,.12-1.6c.07-.2.16-.49.16-.49C18.9,18.84,18.8,18.72,18.69,19Z"/><path class="cls-2" d="M26.46,18A5.09,5.09,0,0,0,26,20.28c0,.26.19.76.58.78.2,0,.46-.15.64-.78,0-.14,0-.26.07-.32s0-.18-.11,0c-.15.39-.53.66-.82.14a2.18,2.18,0,0,1,.12-1.6c.07-.2.16-.49.16-.49C26.67,17.79,26.57,17.67,26.46,18Z"/><path class="cls-2" d="M19.11,10.3l-.71,1a.07.07,0,0,0,0,.1l1.22.89a.08.08,0,0,0,.1,0l.71-1a.08.08,0,0,0,0-.1l-1.22-.89A.08.08,0,0,0,19.11,10.3Z"/><path class="cls-2" d="M5.73,9.78A7.49,7.49,0,0,0,5.28,13c0,.34.29,1,.77,1,.25,0,.56-.23.74-1.09,0-.19,0-.35,0-.42s-.07-.25-.13,0c-.15.52-.6.91-1,.24a3.19,3.19,0,0,1,0-2.15c.07-.27.16-.68.16-.68C6,9.57,5.85,9.41,5.73,9.78Z"/><path class="cls-2" d="M13.6,9.67a8.86,8.86,0,0,0-.52,3.78c.05.41.34,1.2.89,1.19.29,0,.65-.27.85-1.3,0-.23,0-.41.07-.5s-.08-.3-.16,0c-.17.63-.69,1.09-1.15.29a3.91,3.91,0,0,1,0-2.57c.09-.33.19-.81.19-.81C13.88,9.41,13.73,9.22,13.6,9.67Z"/><path class="cls-2" d="M19.44,6a1.07,1.07,0,0,0,0,.79c.11.3.43,1,.48,1.1s.07.21-.11.29a.78.78,0,0,1-1.11-.61,8.6,8.6,0,0,0-.23-1.23c-.08-.14-.15-.16-.2,0a2.81,2.81,0,0,0-.1.49.15.15,0,0,0,0,.13s.35,1,.2,1.26-.85.73-1.22.24a3.85,3.85,0,0,1-.07-1.41c0-.21-.07-.28-.15-.11a.71.71,0,0,0-.13.42c0,.14,0,.78,0,1s0,.84.38,1,.94,0,1.36-.78A.91.91,0,0,0,19.62,9a1.1,1.1,0,0,0,.55-.89A1.52,1.52,0,0,0,20,7a3.75,3.75,0,0,1-.33-.87C19.58,6,19.53,5.76,19.44,6Z"/><path class="cls-2" d="M20.13,2.37c-.3.17-11,6.62-11.27,6.8s-.4.27-.44.5l-.07.42c0,.16-.09.32.36,0C8.85,10,19.59,3.59,19.83,3.41s.39-.24.48-.49a3.7,3.7,0,0,0,.16-.46C20.52,2.27,20.59,2.11,20.13,2.37Z"/><path class="cls-2" d="M6.33,1.06A5.06,5.06,0,0,0,6,4,4.68,4.68,0,0,0,3.6,1.73c-.12,0-.33.1-.3.45s0,.71.19.83a5.23,5.23,0,0,0,.69.36c.08,0,.16,0,.17-.06s.08-.3.23-.18A4.45,4.45,0,0,1,6.11,5c.09.16.25.16.25-.1,0-.61-.09-1.67-.08-2s.09-1.4.72-1l.3.21c.14.14.32.29.37.1a1.31,1.31,0,0,0-.06-.94C7.55,1.18,6.72.39,6.33,1.06Z"/><path class="cls-2" d="M15.36.86c-.31.17-11,6.62-11.28,6.8s-.4.27-.43.5l-.07.42c0,.16-.1.32.35,0,.14-.09,10.88-6.54,11.13-6.72s.39-.24.48-.49.11-.29.16-.46S15.81.59,15.36.86Z"/><path class="cls-2" d="M22.58.07c-.06.15-.6,1.21-.6,1.21a2.64,2.64,0,0,1,.29.84c.08.55.36,3.17.59,4.52,0,0,1.23,7.74,1.32,8.39s.11,1.06,0,1.17a2.81,2.81,0,0,1-2.67.62,1.78,1.78,0,0,1-.92-1.55,1.35,1.35,0,0,1,.07-.37c0-.1,0-.36-.36-.16s-4.24,3-7.69,2.86c-.64,0-3.3,0-4.07-1.93-.07-.23-.08-.81-.45-.34s-1,1.81-1.81,2.1-3.47,1.14-4-3.24C2.19,13.24,1.32,1.89.63.34.5,0,.42.16.37.31S.15.94.06,1.18a.88.88,0,0,0,0,.6C.69,5.5,1.54,14,1.64,14.86s.27,4.5,3.61,4.28c.45,0,1.64-.37,2.63-2.22,0,0,.83,2,4,2.16a12.41,12.41,0,0,0,8-2.81s.39,2.17,2.27,2.22a2.78,2.78,0,0,0,2.72-2.69,28,28,0,0,0-.28-3.74L23.33,3.44s.66.51.78.64.26,0,.19-.14S22.78.27,22.73.14,22.64-.07,22.58.07Z"/><path class="cls-2" d="M26.82.07l-.5,1.24c0,.06.13.54.15.72.21,1.57,1.21,9.25,1.57,12.18.19,1.45.33,2.75.35,3.45,0,.22.08.3.17.09A4.39,4.39,0,0,0,28.91,16a23.77,23.77,0,0,0-.28-4.21c0-.28-1.09-8.37-1.09-8.37s.73.68.84.8.26.06.19-.14S27,.27,27,.14,26.88-.07,26.82.07Z"/></g></g></g></svg>