<svg xmlns="http://www.w3.org/2000/svg" viewBox="0 0 31.69 20.8"><defs><style>.cls-1{isolation:isolate;}.cls-2{fill-rule:evenodd;mix-blend-mode:darken;}</style></defs><g class="cls-1"><g id="Layer_2" data-name="Layer 2"><g id="سور_الٌقرآن_الكريم" data-name="سور الٌقرآن الكريم"><path class="cls-2" d="M21.79,16.8a1.46,1.46,0,0,0-.12.52l0,.4a.72.72,0,0,1-.89,0,1.79,1.79,0,0,0,.09-.35c.05-.15,0-.26-.12-.11a3.72,3.72,0,0,1-.36.78c-.13.12-.28.54-1.23.11a.67.67,0,0,0-.91.18,6.48,6.48,0,0,1-2.88,1.44c-.14.06-.43.28-.09.25a3.71,3.71,0,0,0,2.6-.92c.17-.16.36-.58,1-.34.35.14,1,.69,1.7-.4.41.27,1,.16,1.14-.14a3,3,0,0,0,.22-.82c0-.2,0-.48,0-.48C21.94,16.79,21.88,16.55,21.79,16.8Z"/><path class="cls-2" d="M27.52,17l-.16.26c-.05.07,0,.18.1,0,.25-.3.67-.42.76.13a2,2,0,0,1-.6,1.38l-.3.39c-.14.17-.09.31.09.1a4.77,4.77,0,0,0,1.19-1.91c.06-.23.07-.73-.27-.86C28.15,16.42,27.88,16.47,27.52,17Z"/><path class="cls-2" d="M24.05,9.28l-.58.8-1.11-.81a.07.07,0,0,0-.09,0l-.67.93a.06.06,0,0,0,0,.09l1.15.83a.06.06,0,0,0,.08,0l.59-.8,1.11.81a.08.08,0,0,0,.09,0l.67-.93a.08.08,0,0,0,0-.09l-1.15-.83A.07.07,0,0,0,24.05,9.28Z"/><path class="cls-2" d="M14.74,9.29a4.1,4.1,0,0,0-.58.83c-.15.23,0,.33.21.15a.78.78,0,0,1,.77-.34c.49,0,1.66,0,1.23.29s-.74.51-.74.51c-.28.2-.54.58,0,.37a3.47,3.47,0,0,0,1.67-1.32c.15-.22.33-.52-.36-.62S15.1,8.89,14.74,9.29Z"/><path class="cls-2" d="M23,7.44l-.67.92a.06.06,0,0,0,0,.09l1.15.84s.06,0,.09,0l.67-.92a.07.07,0,0,0,0-.09l-1.15-.83A.06.06,0,0,0,23,7.44Z"/><path class="cls-2" d="M9.28,3.79a5,5,0,0,0-.51,2.35c0,.26.19.77.58.79.2,0,.46-.15.65-.79,0-.14.05-.26.06-.31s0-.19-.11,0c-.14.39-.53.67-.82.14a2.2,2.2,0,0,1,.12-1.61c.07-.2.16-.5.16-.5C9.49,3.63,9.4,3.51,9.28,3.79Z"/><path class="cls-2" d="M22.68,3.4a.87.87,0,0,0,0,.69c.1.27.38.89.43,1a.16.16,0,0,1-.1.25.69.69,0,0,1-1-.53,8.19,8.19,0,0,0-.2-1.1c-.07-.12-.13-.14-.18,0a3,3,0,0,0-.09.43.14.14,0,0,0,0,.12s.31.88.18,1.11S21,6,20.64,5.55a3.42,3.42,0,0,1-.07-1.25c0-.18-.05-.24-.13-.1a.66.66,0,0,0-.11.38c0,.13,0,.69,0,.86s0,.75.33.91.83,0,1.21-.69a.82.82,0,0,0,.95.34,1,1,0,0,0,.49-.79,1.33,1.33,0,0,0-.17-.93,3.62,3.62,0,0,1-.29-.77C22.8,3.33,22.75,3.16,22.68,3.4Z"/><path class="cls-2" d="M24,.31C23.7.44,12.6,5.37,12.28,5.51s-.42.21-.49.43-.1.34-.12.39-.13.3.34.08c.15-.06,11.33-5,11.59-5.13s.41-.18.53-.41.14-.27.21-.43S24.49.11,24,.31Z"/><path class="cls-2" d="M9.43,10.77a3.14,3.14,0,0,1-.14.36.7.7,0,0,1-.4.37c-.21.12-5,2.44-5.14,2.51-.36.18-.33.08-.28,0s0-.14.07-.32.1-.26.36-.38l5.26-2.57C9.54,10.52,9.48,10.63,9.43,10.77Z"/><path class="cls-2" d="M9.43,10.77a3.14,3.14,0,0,1-.14.36.7.7,0,0,1-.4.37c-.21.12-5,2.44-5.14,2.51-.36.18-.33.08-.28,0s0-.14.07-.32.1-.26.36-.38l5.26-2.57C9.54,10.52,9.48,10.63,9.43,10.77Z"/><path class="cls-2" d="M9.16,10.69,3.9,13.26c-.26.12-.33.19-.36.38s-.06.29-.07.32-.08.23.28,0c.11-.07,4.93-2.39,5.14-2.51a.7.7,0,0,0,.4-.37,3.14,3.14,0,0,0,.14-.36C9.48,10.63,9.54,10.52,9.16,10.69Zm0,0L3.9,13.26c-.26.12-.33.19-.36.38s-.06.29-.07.32-.08.23.28,0c.11-.07,4.93-2.39,5.14-2.51a.7.7,0,0,0,.4-.37,3.14,3.14,0,0,0,.14-.36C9.48,10.63,9.54,10.52,9.16,10.69Zm0,0L3.9,13.26c-.26.12-.33.19-.36.38s-.06.29-.07.32-.08.23.28,0c.11-.07,4.93-2.39,5.14-2.51a.7.7,0,0,0,.4-.37,3.14,3.14,0,0,0,.14-.36C9.48,10.63,9.54,10.52,9.16,10.69Zm0,0L3.9,13.26c-.26.12-.33.19-.36.38s-.06.29-.07.32-.08.23.28,0c.11-.07,4.93-2.39,5.14-2.51a.7.7,0,0,0,.4-.37,3.14,3.14,0,0,0,.14-.36C9.48,10.63,9.54,10.52,9.16,10.69Zm18.47-.43c-.1-.65-1.18-7.4-1.18-7.4l.79.75c.11.12.24.06.18-.13S26.07.26,26,.15s-.08-.2-.14-.06l-.5,1.11a6.41,6.41,0,0,1,.18.82c.08.51.19,1.25.31,2.07,0,0,1.43,9.17,1.43,9.4s.06.53-.23.58-1.7.23-2.2-.87c0-.2.07-.38.08-.45s-.12-.28-.23,0A6.21,6.21,0,0,1,24,14.34a1,1,0,0,1-1.8-.29c.08-.27.17-.63.22-.81s0-.35-.1-.17S20.72,15.65,19,14.94c-.39-.14-1.89-1.71-4.07-.68a14.26,14.26,0,0,0-3.44,2.52c-.28.29-2.57,3-3.75,3.08-.29,0-1.85.15-1.36-1.94v-.08A6.92,6.92,0,0,0,10.8,15c.36-.44,2.83-4.26.62-6.31-.48-.44-1.58-.84-4.32-.59a39.72,39.72,0,0,1-4.23.3c-.17,0-.44,0-.73-.07a6.32,6.32,0,0,1,1-1.3c.06,0,.25-.2.55-.4a2.77,2.77,0,0,1,.48.52c.13.24.22.05.22,0A2,2,0,0,0,4.3,6.2c1.61-1.11,4.51-3,6-3.82.11-.33.6-1.16.4-1.26A30.54,30.54,0,0,0,2.3.93c-.84.14-2.11.5-2.24,1.52C0,3-.18,3.67.6,4.15,1.06,4.44,2.17,5.3,3,6a8.26,8.26,0,0,0-1.52,2.2,6.91,6.91,0,0,1-.69-.12c-.15-.06-.39,0,0,.27.1.07.27.21.52.36A6.35,6.35,0,0,0,1,9.86c-.1.52-1.33,5,2.16,7.29A4.93,4.93,0,0,0,6,17.87s0,.06,0,.09c-.12.55-.25,2,.74,2.57.32.19,1.81.91,3.82-1.27.24-.26,2.49-2.82,4.16-3.51A3,3,0,0,1,18,16a2.14,2.14,0,0,0,2.42.06,6.5,6.5,0,0,0,1.17-1.21S22,16,22.84,16.05c.24,0,1.26.08,1.71-1.55a2,2,0,0,0,2.2,1c.23-.05.84-.16,1.19-2A13.56,13.56,0,0,0,27.63,10.26ZM.78,3c-.17-.15-.43-.3-.07-.41s2.05-1,7.84-.44c-.18.1-3.44,2.21-3.9,2.52a7.17,7.17,0,0,0-.86.65A2,2,0,0,0,3.51,5C3.2,4.74.94,3.17.78,3ZM5.5,16.42A4.46,4.46,0,0,1,1.33,12.7,6.67,6.67,0,0,1,1.78,9a5.79,5.79,0,0,0,2.83.66c.76,0,4.61-.46,5.57,0s2.17,1.27,1.34,2.82S8.18,16.57,5.5,16.42Zm3.66-5.73L3.9,13.26c-.26.12-.33.19-.36.38s-.06.29-.07.32-.08.23.28,0c.11-.07,4.93-2.39,5.14-2.51a.7.7,0,0,0,.4-.37,3.14,3.14,0,0,0,.14-.36C9.48,10.63,9.54,10.52,9.16,10.69Zm0,0L3.9,13.26c-.26.12-.33.19-.36.38s-.06.29-.07.32-.08.23.28,0c.11-.07,4.93-2.39,5.14-2.51a.7.7,0,0,0,.4-.37,3.14,3.14,0,0,0,.14-.36C9.48,10.63,9.54,10.52,9.16,10.69Zm0,0L3.9,13.26c-.26.12-.33.19-.36.38s-.06.29-.07.32-.08.23.28,0c.11-.07,4.93-2.39,5.14-2.51a.7.7,0,0,0,.4-.37,3.14,3.14,0,0,0,.14-.36C9.48,10.63,9.54,10.52,9.16,10.69Zm0,0L3.9,13.26c-.26.12-.33.19-.36.38s-.06.29-.07.32-.08.23.28,0c.11-.07,4.93-2.39,5.14-2.51a.7.7,0,0,0,.4-.37,3.14,3.14,0,0,0,.14-.36C9.48,10.63,9.54,10.52,9.16,10.69Zm0,0L3.9,13.26c-.26.12-.33.19-.36.38s-.06.29-.07.32-.08.23.28,0c.11-.07,4.93-2.39,5.14-2.51a.7.7,0,0,0,.4-.37,3.14,3.14,0,0,0,.14-.36C9.48,10.63,9.54,10.52,9.16,10.69Z"/><path class="cls-2" d="M29.44.09,29,1.24c0,.06.13.51.15.68.19,1.47,1.4,10.19,1.75,13,.17,1.36.3,2.58.32,3.23,0,.2.07.28.16.08a4.26,4.26,0,0,0,.33-1.66,22.48,22.48,0,0,0-.27-3.95c0-.27-1.29-9.37-1.29-9.37l.79.75c.11.12.24,0,.18-.13S29.63.27,29.59.15,29.5,0,29.44.09Z"/><path class="cls-2" d="M14.3.16a5,5,0,0,0-.52,2.36c0,.26.19.76.58.78.21,0,.47-.15.65-.79a2.78,2.78,0,0,0,.07-.31c0-.09,0-.19-.11,0-.15.39-.53.66-.82.14A2.17,2.17,0,0,1,14.27.73c.07-.2.16-.5.16-.5C14.51,0,14.41-.12,14.3.16Z"/></g></g></g></svg>