<svg xmlns="http://www.w3.org/2000/svg" viewBox="0 0 36.39 17.62"><defs><style>.cls-1{isolation:isolate;}.cls-2{fill-rule:evenodd;mix-blend-mode:darken;}</style></defs><g class="cls-1"><g id="Layer_2" data-name="Layer 2"><g id="سور_الٌقرآن_الكريم" data-name="سور الٌقرآن الكريم"><path class="cls-2" d="M23.62,15.07c-.2.1-2.57,1.1-2.78,1.22s-.28.14-.32.29l-.07.27c0,.1-.08.22.23,0,.09,0,2.5-1.08,2.67-1.18s.27-.13.35-.28.09-.18.13-.29S23.93,14.91,23.62,15.07Z"/><path class="cls-2" d="M29,15.4l-.1.26c0,.07,0,.16.09,0,.19-.31.55-.48.72,0A1.94,1.94,0,0,1,29.34,17l-.22.4c-.1.18,0,.3.1.08A4.38,4.38,0,0,0,30,15.58c0-.22,0-.67-.37-.74C29.47,14.81,29.22,14.89,29,15.4Z"/><path class="cls-2" d="M8.72,14.61c-.21.07-4.72,1.9-5,2s-.28.15-.32.3-.06.24-.07.26-.1.19.22.05l4.87-1.94c.17-.08.27-.13.34-.29a1.83,1.83,0,0,0,.14-.29C9,14.58,9,14.51,8.72,14.61Z"/><path class="cls-2" d="M10.27,14.49a4.63,4.63,0,0,0-.46,2.13c0,.23.17.69.52.7.18,0,.42-.13.59-.7,0-.13,0-.24.06-.29s0-.17-.1,0c-.14.35-.48.6-.74.13a1.93,1.93,0,0,1,.1-1.46c.07-.18.15-.45.15-.45C10.46,14.35,10.37,14.24,10.27,14.49Z"/><path class="cls-2" d="M6,8.41l-.48.66L4.54,8.4a0,0,0,0,0-.07,0l-.56.77a.06.06,0,0,0,0,.07l1,.69a.06.06,0,0,0,.08,0l.48-.66.92.67a0,0,0,0,0,.07,0L7,9.17a.06.06,0,0,0,0-.08L6,8.4A0,0,0,0,0,6,8.41Z"/><path class="cls-2" d="M20.49,7.26c0,.13-.13.66-.16.77a.41.41,0,0,0,0,.31,5.9,5.9,0,0,1,.3.69c.11.26,1.11,2.33,1.19,2.52.35.74.15.8.05.92-3.82,3.23-9.51,4.77-9.81,4.94s-.16.21.2.15a21.08,21.08,0,0,0,3.92-.69c.85-.39,5-2,6.16-4.13a3.18,3.18,0,0,0-.14-2.24c-.23-.42-.89-1.76-.89-1.76h.57s.14-.05,0-.19-1.22-1.19-1.29-1.28S20.52,7.14,20.49,7.26Z"/><path class="cls-2" d="M19.81,4.84l-.56.76a.06.06,0,0,0,0,.08l.95.69s.06,0,.07,0l.56-.76a0,0,0,0,0,0-.07l-.95-.7S19.82,4.81,19.81,4.84Z"/><path class="cls-2" d="M.58,5A9.13,9.13,0,0,0,.09,8.79c0,.38.29,1.09.76,1.17-.33.48-1.55,2.4-.29,3.87.12.14,1.25,1.41,5.95.38A6.79,6.79,0,0,0,10,12.57a2.1,2.1,0,0,0,.34-1.78,11.34,11.34,0,0,0-.71-1.33c-.1-.17-.19-.19-.24,0s-.29,1-.29,1c.17.23.91,1.26.69,1.44s-2.2,1.61-6.64,1.61c-.5,0-2.8-.19-2.59-2A4.78,4.78,0,0,1,1.15,10a.19.19,0,0,0,0-.07c.22-.12.46-.45.6-1.21,0-.23.05-.42.06-.51s-.07-.29-.14,0C1.52,8.83,1,9.29.57,8.49a3.93,3.93,0,0,1,0-2.55c.08-.32.18-.8.18-.8C.86,4.78.71,4.59.58,5Z"/><path class="cls-2" d="M16.7,4.63a4.59,4.59,0,0,0-.46,2.13c0,.23.17.69.52.7.18,0,.42-.13.59-.7,0-.13,0-.24.06-.29s0-.17-.1,0c-.14.35-.48.6-.74.13a1.93,1.93,0,0,1,.1-1.46c.07-.18.15-.45.15-.45C16.89,4.49,16.8,4.38,16.7,4.63Z"/><path class="cls-2" d="M8.54,1.74a7.37,7.37,0,0,0-.62,3c0,.33.19,1,.62,1,.23,0,.52-.18.74-1,0-.18.06-.33.08-.4s0-.24-.12,0c-.18.49-.61.83-.91.16a3.13,3.13,0,0,1,.16-2c.09-.26.2-.63.2-.63C8.78,1.55,8.68,1.39,8.54,1.74Z"/><path class="cls-2" d="M5.27.77a4.5,4.5,0,0,0-.49,2.54A4.09,4.09,0,0,0,2.87,1.15c-.1,0-.29.06-.29.37s0,.62.1.74a5.25,5.25,0,0,0,.57.37c.07,0,.13,0,.15,0s.09-.25.21-.13A3.38,3.38,0,0,1,4.7,4c.21.72-1.52,2.3-1.61,2.37s-.1.21,0,.16a7.75,7.75,0,0,0,1.05-.72A2,2,0,0,0,5,4.21l0-.08c.05-.54,0-1.46.07-1.75s.18-1.22.7-.82L6,1.77c.11.13.25.28.3.12a1.14,1.14,0,0,0,0-.83C6.31,1,5.66.22,5.27.77Z"/><path class="cls-2" d="M10.67.54c-.06.16-.18.67-.21.81a.74.74,0,0,0,0,.41c.39,1,1,8.37,1.13,8.94.05.35.22,3.45,2.59,3.92s5.05-2.23,5.05-2.23.29-.7.33-.89,0-.32-.15-.15a6.33,6.33,0,0,1-2.57,1.73A2,2,0,0,1,15,12.62a3.23,3.23,0,0,1-1.15-2.2A.39.39,0,0,1,14,10a11.08,11.08,0,0,1,2.47-.82,2.75,2.75,0,0,1,1.67.32c.08.07.23,0,.14-.13a4.25,4.25,0,0,0-2-1c-.3,0-2,.19-2.47,1s-.69,1-.6,1.76a5.08,5.08,0,0,0,.8,2.14s-1.13-.14-1.7-2.29c-.5-1.88-.81-8.73-1.4-10.51C10.86.32,10.73.39,10.67.54Z"/><path class="cls-2" d="M34.58.14c0,.11-.39,1-.39,1s.1.42.12.56c.15,1.22,1.12,8.46,1.4,10.74.13,1.13.24,2.14.25,2.68,0,.17.06.24.14.08a3.81,3.81,0,0,0,.27-1.39,19.1,19.1,0,0,0-.2-3.27l-1-7.78s.56.53.65.63.2,0,.15-.11S34.74.29,34.7.2,34.63,0,34.58.14Z"/><path class="cls-2" d="M26.61,9.42a4.38,4.38,0,0,0-.45,2c0,.22.17.66.5.67.18,0,.4-.13.56-.68,0-.12.05-.22.06-.27s0-.16-.1,0c-.12.34-.45.57-.7.12a1.84,1.84,0,0,1,.1-1.38l.14-.43C26.79,9.29,26.7,9.19,26.61,9.42Z"/><path class="cls-2" d="M29,8.15l-.56.76a.06.06,0,0,0,0,.08l1,.69a0,0,0,0,0,.07,0L30,8.9a0,0,0,0,0,0-.07L29,8.13A.05.05,0,0,0,29,8.15Z"/><path class="cls-2" d="M29.44,4.48a.91.91,0,0,0,0,.67c.1.25.36.84.41.93a.16.16,0,0,1-.09.24.66.66,0,0,1-.94-.51,5.89,5.89,0,0,0-.2-1c-.06-.12-.12-.14-.17,0a4,4,0,0,0-.08.41.14.14,0,0,0,0,.12s.29.84.17,1.06-.72.61-1,.2a3.3,3.3,0,0,1-.06-1.19c0-.18-.06-.23-.13-.1a.78.78,0,0,0-.11.36c0,.12,0,.66,0,.82s0,.72.32.87.79,0,1.15-.66a.78.78,0,0,0,.91.32.94.94,0,0,0,.46-.75,1.35,1.35,0,0,0-.16-.89,3,3,0,0,1-.28-.73C29.56,4.42,29.51,4.26,29.44,4.48Z"/><path class="cls-2" d="M30.55,1.15c-.2.1-5,2.09-5.25,2.21S25,3.5,25,3.65s-.06.24-.07.26-.08.23.23.06c.09-.06,5-2.07,5.14-2.16s.27-.13.35-.29a1.83,1.83,0,0,0,.14-.29C30.81,1.12,30.86,1,30.55,1.15Z"/><path class="cls-2" d="M20.33.15l-7,3.79c-.23.13-.3.18-.34.36s-.05.26-.06.3-.08.24.26,0C13.3,4.58,19.9,1,20.08.91s.29-.17.37-.35.09-.21.13-.33S20.68,0,20.33.15Z"/><path class="cls-2" d="M23,.16a2,2,0,0,0-.28.93c.62,2.83,1,9.18,1,9.9s.28,4,2.71,4.08a3.51,3.51,0,0,0,2.95-1.85,2,2,0,0,0,2.44,1.41,1.94,1.94,0,0,0,1.51-1.76,8.06,8.06,0,0,0,0-1.87c-.06-.55-1.16-8.29-1.16-8.29l.55.51c.09.1.2,0,.15-.11S31.88.28,31.85.18s-.08-.16-.12,0l-.43.92a4.82,4.82,0,0,1,.16.68c.05.39.13.93.22,1.54,0,0,1.06,7.17,1.11,7.7s.16,1.7.14,1.87,0,.3-.43.44a1.92,1.92,0,0,1-2.16-.22,1.16,1.16,0,0,1-.31-.55c-.05-.22,0-.89-.2-.66s-1.55,2.23-3.47,2c-.41,0-1.66-.25-1.93-2.79-.07-.49-.56-9.18-1.19-10.94C23.13-.14,23.09.09,23,.16Z"/></g></g></g></svg>