<svg xmlns="http://www.w3.org/2000/svg" viewBox="0 0 36.69 17.82"><defs><style>.cls-1{isolation:isolate;}.cls-2{fill-rule:evenodd;mix-blend-mode:darken;}</style></defs><g class="cls-1"><g id="Layer_2" data-name="Layer 2"><g id="سور_الٌقرآن_الكريم" data-name="سور الٌقرآن الكريم"><path class="cls-2" d="M5.09,14.81,1.42,16.6c-.21.11-.27.16-.3.31s0,.24-.05.26-.06.19.22,0c.1-.05,3.4-1.64,3.58-1.74a.56.56,0,0,0,.32-.3,2.61,2.61,0,0,0,.12-.29C5.34,14.76,5.4,14.67,5.09,14.81Z"/><path class="cls-2" d="M31.34,14.18A3.73,3.73,0,0,0,31,16c0,.2.14.58.44.59.15,0,.35-.11.49-.59,0-.11,0-.2.05-.24s0-.14-.08,0c-.12.3-.41.51-.62.11a1.6,1.6,0,0,1,.08-1.22c.06-.15.13-.38.13-.38C31.5,14.06,31.42,14,31.34,14.18Z"/><path class="cls-2" d="M15.87,13.71a.62.62,0,0,0,0,.48.88.88,0,0,0,.4.36,1.45,1.45,0,0,0-.19,2,1.48,1.48,0,0,0,1,.29,1.81,1.81,0,0,0,.56-.12l.26-.07a.13.13,0,0,0,.12,0s0-.07,0-.08a.33.33,0,0,0-.14,0h-.17l-.39,0a2.45,2.45,0,0,1-.76-.11A.93.93,0,0,1,16,16a.86.86,0,0,1,0-.72,2.27,2.27,0,0,1,1.16-1c.06,0,.12,0,.14-.09s0-.11,0-.17-.17,0-.22,0-.45.29-.67.24A.75.75,0,0,1,16,14s0,0,0-.07a.43.43,0,0,1,.1-.09,1.15,1.15,0,0,1,.25-.12.72.72,0,0,1,.48,0,.14.14,0,0,0,.09,0,.06.06,0,0,0,0-.09.6.6,0,0,0-.21-.14A.69.69,0,0,0,15.87,13.71Z"/><path class="cls-2" d="M21.1,12.71a6,6,0,0,0-.4,2.68c0,.29.25.85.67.84.22,0,.49-.19.65-.92,0-.16,0-.29.05-.36S22,14.74,22,15c-.14.45-.54.78-.88.21a2.55,2.55,0,0,1,0-1.83c.07-.23.15-.57.15-.57C21.32,12.52,21.21,12.39,21.1,12.71Z"/><path class="cls-2" d="M5.16,8.34l-.55.75s0,.06,0,.07l.93.68a.06.06,0,0,0,.08,0l.54-.75a0,0,0,0,0,0-.07l-.93-.68A0,0,0,0,0,5.16,8.34Z"/><path class="cls-2" d="M21.27,8.3c-.19.09-3.09,1.73-3.5,1.82A3.3,3.3,0,0,1,15,9.64a4.51,4.51,0,0,1-1.47-1.83c-.1-.3,0-.27.08-.39a6.37,6.37,0,0,1,5-1.34c.25.06.49,0,.22-.18a3.66,3.66,0,0,0-1.42-.55,4.39,4.39,0,0,0-1.35,0,3.91,3.91,0,0,0-2.62,1.36,2.6,2.6,0,0,0-.22,2.44,4.56,4.56,0,0,0,2.17,2s-.88.39-1.51.61a3.33,3.33,0,0,0-.44-.67c-.17-.21-1-1.34-2.07-.6a1.88,1.88,0,0,0-.45,2.19c.25.38.87.66,2.08.4.11,0,.32-.08.61-.17a1,1,0,0,1,.1.16c.06.12.09.23-.07.45s-2.51,3-4.58,3.2a2.36,2.36,0,0,1-2.33-1.15,4.39,4.39,0,0,1,.13-2.75.59.59,0,0,0,0-.17,15.82,15.82,0,0,0,1.45-1c.33-.25,2-1.33,1.48-3-.06-.23-1-2.4-1-2.4l.45.16c.08,0,.21,0,.08-.21S8.37,5,8.34,5a1.38,1.38,0,0,1-.08-.2c0-.08-.08-.07-.11,0s-.23.79-.24.86a5,5,0,0,0,.29,1,21.48,21.48,0,0,0,1,2.2.73.73,0,0,1,.06.8,10.18,10.18,0,0,1-4.86,2.93c-.47.13-2.41.6-3.5-.86A3.74,3.74,0,0,1,.67,8.18H.74c.25,0,.57-.22.79-1.13,0-.2.06-.37.08-.45s-.06-.27-.14,0c-.17.55-.64,1-1,.2A3.47,3.47,0,0,1,.58,4.54c.09-.29.19-.72.19-.72.1-.32,0-.49-.16-.1A8.23,8.23,0,0,0,0,7.08a1.54,1.54,0,0,0,.44,1C.1,9-.95,12.85,2.16,13.75c.61.17,2,.47,4.36-.86l0,.08c-.26.79-.77,3.47.61,4.39.44.29,1.89,1.23,4.67-.85.45-.33,2.21-1.62,2.42-3.24a2.94,2.94,0,0,0,0-.54,27.69,27.69,0,0,0,2.57-1.06c.6-.28,4.37-2.23,4.37-2.23s.21-.59.28-.85S21.47,8.21,21.27,8.3Zm-9.76,3.63a.22.22,0,0,1,0-.39.73.73,0,0,1,.76-.06,2.72,2.72,0,0,1,.63.52A2.79,2.79,0,0,1,11.51,11.93Z"/><path class="cls-2" d="M4.67,1.13a4,4,0,0,0-.43,2.24A3.61,3.61,0,0,0,2.55,1.46c-.09,0-.25.06-.25.33s0,.55.09.65a4.66,4.66,0,0,0,.5.33c.06,0,.12,0,.13,0s.08-.23.19-.12a3.11,3.11,0,0,1,1,1.32c.19.64-1.34,2-1.42,2.1s-.09.18,0,.14a7.14,7.14,0,0,0,.92-.64,1.78,1.78,0,0,0,.79-1.37s0,0,0-.07c0-.47,0-1.29.06-1.54s.16-1.08.62-.73c.1.08.21.19.21.19s.22.24.27.1a1,1,0,0,0,0-.73C5.59,1.3,5,.63,4.67,1.13Z"/><path class="cls-2" d="M9.57.75a6.09,6.09,0,0,0-.4,2.69c0,.29.25.85.67.84.22,0,.49-.19.65-.92,0-.16,0-.3.06-.36s-.06-.21-.12,0c-.14.44-.54.78-.88.2a2.5,2.5,0,0,1,0-1.82c.07-.23.15-.57.15-.57C9.79.57,9.68.43,9.57.75Z"/><path class="cls-2" d="M19.83.75a6,6,0,0,0-.41,2.69c0,.29.26.85.68.84.22,0,.49-.19.65-.92,0-.16,0-.3.05-.36s-.05-.21-.11,0c-.14.44-.54.78-.88.2a2.5,2.5,0,0,1,0-1.82c.07-.23.15-.57.15-.57C20.05.57,19.94.43,19.83.75Z"/><path class="cls-2" d="M16.34,2A2.14,2.14,0,0,0,16.11.4C16,.26,15.55-.18,15,.69c-.22.33-.38,1.12-.07,1.34a4,4,0,0,0,.77.41A20.35,20.35,0,0,1,11.4,6.36c-.22.13-.18.25-.05.21a10.37,10.37,0,0,0,2.51-1.42A10.65,10.65,0,0,0,16,2.58s.36.29.41.35.17.24.22.1A.78.78,0,0,0,16.34,2ZM16,1.82l-.6-.27c-.19-.08-.29-.2-.2-.32.29-.4.43-.38.53-.32A1.11,1.11,0,0,1,16,1.82Z"/><path class="cls-2" d="M28.17,9.11a3.79,3.79,0,0,0-.36,2c0,.21.21.63.56.62.19,0,.42-.15.56-.69,0-.12,0-.22,0-.26s0-.16-.1,0c-.11.33-.45.58-.74.16a1.65,1.65,0,0,1,0-1.35c.06-.17.13-.42.13-.42C28.35,9,28.26,8.87,28.17,9.11Z"/><path class="cls-2" d="M30.35,6.23c-.2.1-5.69,2.46-5.89,2.58s-.28.14-.32.28-.06.24-.07.26-.07.22.22.05c.1-.05,5.63-2.43,5.79-2.52s.27-.13.34-.28a1.83,1.83,0,0,0,.14-.29C30.6,6.2,30.65,6.08,30.35,6.23Z"/><path class="cls-2" d="M25.76,4.17a4.3,4.3,0,0,0-.67,1.89c0,.21.08.65.4.7s.4-.07.62-.58c0-.11.07-.21.08-.25s0-.16-.09,0-.5.49-.69,0a1.8,1.8,0,0,1,.26-1.32l.19-.4C26,4.06,25.88,4,25.76,4.17Z"/><path class="cls-2" d="M28.21.71a5.82,5.82,0,0,0-.41,2.68c0,.29.25.85.68.85.22,0,.49-.2.65-.93,0-.16,0-.29.05-.36s-.06-.21-.12,0c-.13.45-.53.78-.87.21a2.55,2.55,0,0,1,0-1.83c.06-.23.14-.57.14-.57C28.42.52,28.31.39,28.21.71Z"/><path class="cls-2" d="M25.05.55a3.73,3.73,0,0,0-.39,1.78c0,.2.14.58.44.59.15,0,.35-.11.49-.59,0-.11,0-.2.05-.24s0-.15-.08,0c-.12.3-.41.5-.62.11A1.6,1.6,0,0,1,25,1c.06-.15.13-.38.13-.38C25.21.43,25.13.34,25.05.55Z"/><path class="cls-2" d="M35,12c-.1-.16-.84-1-2.43-.33a6.36,6.36,0,0,1-.27-.84c-.14-.58-.6-3.8-.66-4.29s-.45-4.08-.45-4.08l.61.62c.09.09.2,0,.15-.11S30.84.21,30.81.11s-.08-.16-.12,0L30.28,1a4.92,4.92,0,0,1,.15.66c.05.31.11.72.17,1.18,0,0,.39,3.67.51,4.66a31.28,31.28,0,0,0,.78,4.58,15.8,15.8,0,0,1-4,1.43,3.74,3.74,0,0,1-4.11-1.74c-.86-1.62-.34-8.24-1.58-11.38C22,0,22,.24,21.94.37s-.31.84-.31.84c1.59,5.07-.06,10.86,2.92,12.93a6,6,0,0,0,5.09,0c.76-.3,2.06-.86,2.37-1l.26-.11A2.59,2.59,0,0,0,34,14.6c.41.09.63,0,.87-.45C35,14,35.51,12.75,35,12Zm-.58,1.44a2.13,2.13,0,0,1-1.17-.58,1.21,1.21,0,0,1-.14-.2,1.7,1.7,0,0,1,.42-.06,1.23,1.23,0,0,1,1,.5C34.66,13.24,34.72,13.5,34.46,13.48Z"/><path class="cls-2" d="M34.86.06c0,.11-.38.94-.38.94s.1.41.12.54c.15,1.21,1.14,8.29,1.42,10.53.14,1.11.24,2.1.26,2.63,0,.17.06.23.13.07a3.51,3.51,0,0,0,.27-1.35,19,19,0,0,0-.22-3.22L35.41,2.59s.55.51.64.61.2,0,.15-.11S35,.2,35,.11,34.91,0,34.86.06Z"/></g></g></g></svg>