<svg xmlns="http://www.w3.org/2000/svg" viewBox="0 0 33.84 19.38"><defs><style>.cls-1{isolation:isolate;}.cls-2{fill-rule:evenodd;mix-blend-mode:darken;}</style></defs><g class="cls-1"><g id="Layer_2" data-name="Layer 2"><g id="سور_الٌقرآن_الكريم" data-name="سور الٌقرآن الكريم"><path class="cls-2" d="M12.57,16.51a4.38,4.38,0,0,0-.43,2c0,.22.16.66.49.67.17,0,.4-.13.56-.67,0-.12,0-.22.05-.27s0-.16-.09,0c-.13.33-.46.56-.7.12a1.84,1.84,0,0,1,.1-1.38l.14-.42C12.75,16.38,12.67,16.28,12.57,16.51Z"/><path class="cls-2" d="M16.53,16.27a4.42,4.42,0,0,0-.44,2c0,.23.17.66.5.67.17,0,.4-.13.55-.67,0-.12.05-.22.06-.27s0-.16-.09,0c-.13.33-.46.56-.7.12a1.81,1.81,0,0,1,.1-1.37c.06-.18.13-.43.13-.43C16.71,16.14,16.63,16,16.53,16.27Z"/><path class="cls-2" d="M30.75,14.28a4.7,4.7,0,0,0-.66,2.35c0,.26.18.77.61.8.23,0,.52-.13.75-.76,0-.14.07-.26.08-.31s0-.19-.12,0c-.17.39-.61.65-.91.11a2,2,0,0,1,.19-1.61c.09-.2.2-.5.2-.5C31,14.14,30.88,14,30.75,14.28Z"/><path class="cls-2" d="M23.39,13.23a4.29,4.29,0,0,0-.44,2c0,.23.16.66.5.67.17,0,.39-.13.55-.67,0-.12.05-.22.06-.27s0-.16-.1,0c-.12.33-.45.56-.7.12a1.87,1.87,0,0,1,.1-1.37l.14-.43C23.57,13.1,23.49,13,23.39,13.23Z"/><path class="cls-2" d="M4,14a4.48,4.48,0,0,0-.44,2c0,.22.17.65.5.66.17,0,.4-.12.55-.66l.06-.27c0-.07,0-.16-.09,0-.13.33-.46.56-.7.11A1.81,1.81,0,0,1,4,14.51c.06-.17.13-.43.13-.43C4.18,13.89,4.1,13.79,4,14Z"/><path class="cls-2" d="M5.59,12.61,5,13.45a.07.07,0,0,0,0,.09l1,.76a.06.06,0,0,0,.08,0l.62-.85a.06.06,0,0,0,0-.08l-1-.77A.06.06,0,0,0,5.59,12.61Z"/><path class="cls-2" d="M4.5,7.24a4.26,4.26,0,0,0-.44,2c0,.23.16.66.49.67s.4-.13.56-.67c0-.12,0-.22,0-.27s0-.16-.09,0c-.12.33-.45.56-.7.12a1.9,1.9,0,0,1,.1-1.38c.06-.17.14-.42.14-.42C4.68,7.11,4.6,7,4.5,7.24Z"/><path class="cls-2" d="M25.83,10.87a47.64,47.64,0,0,1-4.64-1.2c-.36-.12-2.94-1.15-3.19-1.3a1.85,1.85,0,0,0-1.21-.09c-.4.12-1,.35-1.08.39a.35.35,0,0,0-.17.17l-.34.8L18,10s.05-.15.26-.08c.47.15,1.92.8,2.08.84,0,0-4.41.81-4.63.88a1.83,1.83,0,0,0-1.09.56,3.51,3.51,0,0,1-2.35,1.32,2.57,2.57,0,0,1-2.21-1.87c-.05-.15-.13-.27-.18-.16a1.88,1.88,0,0,0-.19,1.12c.12.42.76,2.21.79,2.47.08.61-.65,1.1-.76,1.17a12.27,12.27,0,0,1-5.17,1.87c-.53.06-2.73.24-3.67-1.53-.15-.29-.86-1.73.42-4.11a.34.34,0,0,0,.05-.11c.23-.12.49-.45.72-1.19.06-.23.1-.42.13-.52s-.05-.31-.16,0c-.25.64-.82,1.06-1.18.17A4.22,4.22,0,0,1,1.2,8.12c.12-.33.28-.82.28-.82.13-.37,0-.59-.18-.13A9.54,9.54,0,0,0,.35,11c0,.42.19,1.26.72,1.34-.36.53-2.65,5,.82,6.59.78.36,2.85,1.13,7.12-1.23a4.89,4.89,0,0,0,1.57-1.32,3.09,3.09,0,0,0,.3-.87c.11-.51.17-1,.17-1a2.51,2.51,0,0,0,3.28-1.33c.07-.17.29.67.41.93a2.43,2.43,0,0,0,1.85,1.48c.2,0,1.09.09,1.2-1.62a2,2,0,0,0-.71-1.52A16.91,16.91,0,0,1,25.32,12c.16-.28.49-.76.56-.89S26,10.9,25.83,10.87ZM16.76,14.3a2.13,2.13,0,0,1-1.36-.79c-.08-.11-.26-.35-.12-.51s.18-.1.37,0c1,.49,1.16.88,1.28,1.14S16.91,14.32,16.76,14.3Z"/><path class="cls-2" d="M11.26,6.73a4.26,4.26,0,0,0-.2.51,6.09,6.09,0,0,1,1.22,4.49c0,.26,0,.23.1.12a5.38,5.38,0,0,0-.85-5.08C11.33,6.54,11.32,6.63,11.26,6.73Z"/><path class="cls-2" d="M27.32,5.82a.84.84,0,0,0,0,.68c.1.27.37.88.42,1a.16.16,0,0,1-.1.25.68.68,0,0,1-1-.52,6.39,6.39,0,0,0-.2-1.08c-.06-.12-.12-.14-.17,0a2.69,2.69,0,0,0-.09.42.14.14,0,0,0,0,.12s.3.86.18,1.09-.75.63-1.07.21a3.3,3.3,0,0,1-.06-1.23c0-.18-.06-.24-.13-.1A.73.73,0,0,0,25,7c0,.13,0,.68,0,.85s0,.74.34.9.81,0,1.18-.68a.81.81,0,0,0,.94.33A1,1,0,0,0,28,7.6a1.32,1.32,0,0,0-.17-.91,3.36,3.36,0,0,1-.28-.76C27.44,5.76,27.39,5.58,27.32,5.82Z"/><path class="cls-2" d="M7.87,5.56A8.16,8.16,0,0,0,7,9.12c0,.39.24,1.17.79,1.2.28,0,.66-.2.95-1.16l.11-.48c0-.12-.06-.28-.16,0-.22.59-.78,1-1.16.18a3.51,3.51,0,0,1,.23-2.44c.11-.3.26-.75.26-.75C8.17,5.34,8,5.15,7.87,5.56Z"/><path class="cls-2" d="M17.2,4.62a3.83,3.83,0,0,0-.54.76c-.13.21,0,.3.19.14a.75.75,0,0,1,.71-.32c.45,0,1.53,0,1.12.27s-.67.46-.67.46c-.26.19-.49.54,0,.34a3.23,3.23,0,0,0,1.54-1.2c.13-.2.29-.48-.34-.57S17.53,4.25,17.2,4.62Z"/><path class="cls-2" d="M27.65,3c-.19.1-5.88,2.29-6.43,2.66a1.6,1.6,0,0,0-.62.87c-.15.51-.06,1,.27,1.12a.68.68,0,0,1,.42.29s.06,0,.07,0a.63.63,0,0,0-.35-1c-.18-.07-.24-.33.47-.71s5.72-2.34,5.86-2.42.32-.16.4-.34a3.11,3.11,0,0,0,.16-.34C28,3,28,2.81,27.65,3Z"/><path class="cls-2" d="M5.34,1a4.67,4.67,0,0,0-.66,2.64A4.25,4.25,0,0,0,2.76,1.29c-.1-.05-.31.05-.33.38s-.06.64.07.77,1.08.46.56,1c-.23.25-1.38,1.45-1.63,1.74s-.27.34,0,.19A3.31,3.31,0,0,0,3.48,3.1a.94.94,0,0,0-.06-.45l.07.05A4.06,4.06,0,0,1,4.64,4.59c.06.16.21.18.25,0C5,4,5,3,5.06,2.71s.26-1.27.79-.83a3,3,0,0,1,.24.23c.12.15.26.31.32.14a1.21,1.21,0,0,0,.08-.87C6.44,1.29,5.79.46,5.34,1Z"/><path class="cls-2" d="M9.17.6a5.14,5.14,0,0,0-.46,2.54c0,.28.27.8.73.79.24,0,.53-.19.71-.87,0-.16,0-.28.06-.35s-.06-.19-.13,0c-.15.43-.58.74-.95.21a2.18,2.18,0,0,1,0-1.73c.07-.22.16-.54.16-.54C9.41.42,9.29.29,9.17.6Z"/><path class="cls-2" d="M24.66.5a4.48,4.48,0,0,0-.44,2c0,.22.17.65.5.67.17,0,.39-.13.55-.67,0-.12.05-.22.06-.27s0-.16-.09,0c-.13.33-.46.56-.7.11A1.83,1.83,0,0,1,24.63,1a4.44,4.44,0,0,0,.14-.43C24.84.37,24.76.27,24.66.5Z"/><path class="cls-2" d="M29,.36l-.46,1a4.83,4.83,0,0,1,.17.75c.07.46.16,1.1.27,1.82,0,0,1,6.63,1,7.05s.15,1.08-.1,1.22-1.7.63-2.34-.13c0-.07-.22-.59-.25-.65s-.08,0-.13.06a2.21,2.21,0,0,0-.24,1.08,16.17,16.17,0,0,1,.58,1.8,1,1,0,0,1-.21,1,9.57,9.57,0,0,1-4.14,2.27c-2.86.69-3.36-1.34-3-3a13.36,13.36,0,0,1,.75-2.4c.22-.55-.12-.76-.4-.06s-1.3,3.6-.87,5c.23.71,1,3,5.44.92.44-.2,3.18-1.44,3-4.29.46-.05,2-.15,2.31-1.24a5.83,5.83,0,0,0,.17-2.23c-.09-1-1-7.2-1-7.2a5.08,5.08,0,0,1,.54.4c.1.1.22.05.16-.12S29.15.53,29.11.42,29,.23,29,.36Z"/><path class="cls-2" d="M32.11.36c0,.12-.35,1-.35,1,.08.54.47,4.8.51,5.2s1.06,7,1.11,8.79c0,.19.07.25.15.08s.67-1.4,0-5.85c0-.37-.78-6.32-.78-6.32s.63.58.73.69.22.05.16-.12S32.29.53,32.25.42,32.17.23,32.11.36Z"/><path class="cls-2" d="M20.69.07l-9.88,4.2c-.27.11-.35.17-.41.35s-.08.29-.1.33-.12.25.28.07c.12,0,9.53-4,9.75-4.14s.34-.15.44-.34S20.9.32,21,.18,21.09-.09,20.69.07Z"/></g></g></g></svg>