<svg xmlns="http://www.w3.org/2000/svg" viewBox="0 0 36.88 20.88"><defs><style>.cls-1{isolation:isolate;}.cls-2{fill-rule:evenodd;mix-blend-mode:darken;}</style></defs><g class="cls-1"><g id="Layer_2" data-name="Layer 2"><g id="سور_الٌقرآن_الكريم" data-name="سور الٌقرآن الكريم"><path class="cls-2" d="M33.55,18.61c-.19.11-3.09,1.43-3.29,1.56s-.26.16-.29.31,0,.24-.06.27-.06.23.23,0c.09-.06,3-1.41,3.19-1.51s.26-.15.32-.31a1.8,1.8,0,0,0,.12-.29C33.81,18.56,33.85,18.43,33.55,18.61Z"/><path class="cls-2" d="M14.91,17a4.52,4.52,0,0,0-.29,2.11c0,.23.22.67.57.65.18,0,.4-.16.52-.74a2.22,2.22,0,0,0,0-.28c0-.08-.05-.16-.09,0-.1.36-.42.63-.72.19a2,2,0,0,1,0-1.44c.05-.18.11-.45.11-.45C15.08,16.86,15,16.75,14.91,17Z"/><path class="cls-2" d="M21.58,16.82a4.52,4.52,0,0,0-.29,2.11c0,.23.22.67.57.65.18,0,.4-.16.52-.74,0-.13,0-.23,0-.28s-.05-.17-.09,0c-.11.36-.43.63-.72.19a2,2,0,0,1,0-1.44c.05-.18.1-.45.1-.45C21.75,16.67,21.66,16.56,21.58,16.82Z"/><path class="cls-2" d="M3.14,13.33a3.89,3.89,0,0,0-.4,1.8c0,.2.15.59.45.6s.35-.11.5-.6c0-.11,0-.2.05-.24s0-.15-.09,0-.41.5-.63.1a1.71,1.71,0,0,1,.09-1.23c.06-.16.13-.39.13-.39C3.3,13.21,3.23,13.12,3.14,13.33Z"/><path class="cls-2" d="M5.09,13l-.56.75a.06.06,0,0,0,0,.08l1,.69a.05.05,0,0,0,.07,0l.55-.76a0,0,0,0,0,0-.07L5.16,13S5.1,13,5.09,13Z"/><path class="cls-2" d="M14.35,10.38a4.23,4.23,0,0,0-.26,2c0,.21.2.62.53.6.16,0,.37-.15.48-.68a2.65,2.65,0,0,1,0-.27c0-.07-.05-.15-.09,0-.1.33-.39.58-.66.17a1.79,1.79,0,0,1,0-1.34c.05-.17.1-.42.1-.42C14.51,10.24,14.43,10.15,14.35,10.38Z"/><path class="cls-2" d="M16.77,9.53a4.05,4.05,0,0,0-.55.8c-.14.22,0,.32.2.15a.76.76,0,0,1,.74-.33c.47,0,1.59,0,1.17.27s-.7.49-.7.49c-.27.2-.51.57,0,.36A3.35,3.35,0,0,0,19.21,10c.14-.21.31-.5-.36-.6S17.12,9.16,16.77,9.53Z"/><path class="cls-2" d="M30,14.62c-.19.11-3.09,1.43-3.28,1.56s-.27.16-.3.31-.05.24-.06.27-.06.23.23,0c.09-.06,3-1.41,3.19-1.51s.26-.15.32-.31a1.84,1.84,0,0,0,.12-.3C30.21,14.57,30.25,14.44,30,14.62Z"/><path class="cls-2" d="M9.24,6.51c-.16.09-5.5,2.35-6,2.68a1.39,1.39,0,0,0-.51.75c-.11.44,0,.89.26,1a.52.52,0,0,1,.36.24s.06,0,.07,0a.54.54,0,0,0-.33-.87c-.15-.06-.21-.27.38-.62S8.88,7.25,9,7.17s.27-.14.34-.29.08-.19.12-.3S9.54,6.35,9.24,6.51Z"/><path class="cls-2" d="M18.93,4.7c-.16.09-5.51,2.35-6,2.68a1.37,1.37,0,0,0-.51.75c-.12.44,0,.89.26.95a.58.58,0,0,1,.36.24s.05,0,.06,0a.54.54,0,0,0-.32-.87c-.16-.06-.22-.27.38-.62s5.36-2.38,5.49-2.46.26-.14.33-.29a1.84,1.84,0,0,0,.12-.3C19.19,4.66,19.23,4.53,18.93,4.7Z"/><path class="cls-2" d="M3.69,3.86a4.38,4.38,0,0,0-.43,2.53,4.08,4.08,0,0,0-2-2.1c-.1,0-.28.07-.28.38s0,.61.12.73a4.07,4.07,0,0,0,.59.35c.06,0,.13,0,.14,0s.08-.25.21-.14a3.92,3.92,0,0,1,1.23,1.7c.07.15.21.15.23-.06,0-.54,0-1.46,0-1.74s.15-1.21.68-.83a2.43,2.43,0,0,1,.25.2c.11.12.26.26.31.11a1.19,1.19,0,0,0,0-.83C4.74,4,4.07,3.29,3.69,3.86Z"/><path class="cls-2" d="M6.67,3.72a4.57,4.57,0,0,0-.29,2.12c0,.22.22.66.57.64.18,0,.4-.16.52-.74a2.22,2.22,0,0,0,0-.28c0-.08,0-.16-.09,0-.1.36-.42.63-.72.19a1.93,1.93,0,0,1,0-1.43c.05-.19.11-.46.11-.46C6.84,3.57,6.75,3.46,6.67,3.72Z"/><path class="cls-2" d="M28.31,3.54A8.59,8.59,0,0,0,27.65,7c0,.38.24,1.13.75,1.15.26,0,.6-.21.83-1.16.05-.21.07-.38.09-.46s-.06-.28-.14,0c-.19.58-.69,1-1.06.21a3.68,3.68,0,0,1,.15-2.39c.09-.29.21-.74.21-.74C28.58,3.31,28.46,3.13,28.31,3.54Z"/><path class="cls-2" d="M14.16,3.05a4.2,4.2,0,0,0-.26,2c0,.21.2.61.52.6.17,0,.38-.16.49-.69a2.36,2.36,0,0,1,0-.26c0-.08,0-.16-.09,0-.1.33-.39.58-.67.17a1.85,1.85,0,0,1,0-1.33c.05-.17.1-.42.1-.42C14.32,2.91,14.24,2.81,14.16,3.05Z"/><path class="cls-2" d="M24.43,3.06a4.37,4.37,0,0,0-.62,2.49A4.12,4.12,0,0,0,22,3.31c-.09-.05-.29,0-.31.35s-.06.61.07.74a4,4,0,0,0,.48.35c-.09.29-.46,1-2.85,2.43-.11.08-.21.24,0,.17a5.86,5.86,0,0,0,2.14-1,4,4,0,0,0,.93-1.55c0-.08.1-.25.22-.13a3.82,3.82,0,0,1,1.1,1.79c.06.15.2.17.23,0,.08-.53.12-1.45.16-1.73s.25-1.2.75-.78l.23.22c.1.14.24.29.3.14a1.15,1.15,0,0,0,.07-.83C25.46,3.3,24.85,2.52,24.43,3.06Z"/><path class="cls-2" d="M31.44,2.73c-.05.11-.32.86-.32.86.05.32.76,5.46,1.27,8.71a13.73,13.73,0,0,1,.28,3.21c-.13.28-3.18,3.11-5.82,2.91a2.33,2.33,0,0,1-2.08-3.28c.16-.23,4.24-1.93,4.35-2a5.64,5.64,0,0,0,.42-.93c.12-.22,0-.27-.19-.16a38.54,38.54,0,0,1-3.62,1.51A4,4,0,0,1,22,11c-.09-.29,0-.43.19-.55s3-1.77,5.24-.82c.15.08.39,0,.11-.26a5.13,5.13,0,0,0-3.45-.78,2.74,2.74,0,0,0-2.46,2c-.11.51-.59,2.22,2.07,3.84a5.8,5.8,0,0,1-6-.63c-.15-.13-.2-.39-.3-.18s-.2.41-.2.41c-.67.1-2.15,0-5,2.85-.52.52-2.07,2.27-3.27,2.09-.49-.07-1.64-.28-.85-2.57a.78.78,0,0,0,0-.14,7.07,7.07,0,0,0,1.69-1.77,3,3,0,0,0,0-2.11C9.6,12.11,9,10.94,9,10.94l.51.09c.09,0,.13-.08,0-.2s-1.08-1-1.12-1.11-.11-.3-.17-.16-.25,1-.25,1c.18.38,1.28,2.51,1.43,2.79s.27.43-.1.78A11.69,11.69,0,0,1,4.15,17c-.55.1-2.6.35-3.43-1.3a3.84,3.84,0,0,1,.12-3.15H.89c.28,0,.64-.24.87-1.14,0-.2.05-.37.07-.45s-.07-.26-.15,0c-.19.56-.71,1-1.15.24A3.07,3.07,0,0,1,.6,9c.09-.28.2-.71.2-.71.1-.32,0-.49-.18-.09A7,7,0,0,0,0,11.51a1.36,1.36,0,0,0,.54,1v0c-.2.57-1.42,3.93,1,5.31.4.24,2.13,1.24,5.85-1,.08-.05.18-.11.3-.2C7.49,17.23,7,19.54,9,19.91c.48.09,1.73.15,3.62-2.13.29-.35,2.73-2.5,4.05-2.46.23,0,.42-.12.57.44A2.12,2.12,0,0,0,19,17.5c.14,0,.46.05.47-.57a3.62,3.62,0,0,0-.06-.83,9,9,0,0,0,4.89-.72s-.93,3.2,1.46,4c.37.12,3.13,1.05,6.63-2.39a3.27,3.27,0,0,0,.87-2.18,10.59,10.59,0,0,0-.08-2C32.79,10.55,32,5.29,32,5.29s.56.52.65.62.2,0,.15-.11-1.2-2.92-1.23-3S31.48,2.61,31.44,2.73Z"/><path class="cls-2" d="M10.63,2.67c-.05.11-.32.85-.32.85.07.49.62,4.36.66,4.72s.95,6.26,1,7.9c0,.17.06.23.14.07s.45-1.08,0-5.2c0-.33-.88-5.78-.88-5.78s.56.52.65.62.2,0,.15-.11-1.2-2.92-1.23-3S10.67,2.55,10.63,2.67Z"/><path class="cls-2" d="M34.58,2.67l-.31.85c.07.49.71,5.72.76,6.07s.94,6.27,1,7.9c0,.17.06.23.14.07s.6-1.25,0-5.25c0-.33-1-7.08-1-7.08s.56.52.65.62.2,0,.15-.11-1.2-2.92-1.24-3S34.63,2.55,34.58,2.67Z"/><path class="cls-2" d="M36.78,0a5.67,5.67,0,0,1-4,.73c-.2-.05-.27-.07-.34,0a2.56,2.56,0,0,0-.16.55,2,2,0,0,1,.56.94c0,.11,0,.05.1,0a1.25,1.25,0,0,0,.13-.64A5,5,0,0,0,36.26.9c.22-.12.36-.24.3,0s-.14.61-.18.76,0,.24,0,.15S37.12-.18,36.78,0Z"/></g></g></g></svg>