<svg xmlns="http://www.w3.org/2000/svg" viewBox="0 0 33.16 18.84"><defs><style>.cls-1{isolation:isolate;}.cls-2{fill-rule:evenodd;mix-blend-mode:darken;}</style></defs><g class="cls-1"><g id="Layer_2" data-name="Layer 2"><g id="سور_الٌقرآن_الكريم" data-name="سور الٌقرآن الكريم"><path class="cls-2" d="M11.69,16.42c-.22.11-3.66,1.39-3.89,1.52s-.31.16-.36.33-.07.27-.08.29-.09.26.26.06c.1-.06,3.58-1.35,3.77-1.46s.31-.15.39-.32a2.39,2.39,0,0,0,.16-.33C12,16.39,12,16.25,11.69,16.42Z"/><path class="cls-2" d="M21.08,16a4.79,4.79,0,0,0-.47,2.18c0,.24.17.7.53.71.19,0,.43-.13.6-.72,0-.13.05-.24.06-.29s0-.17-.1,0c-.13.36-.49.61-.75.13a2,2,0,0,1,.1-1.49c.07-.19.15-.46.15-.46C21.28,15.81,21.19,15.7,21.08,16Z"/><path class="cls-2" d="M15.38,12c-.22.12-2.75,1.21-3,1.34s-.31.17-.36.33-.07.27-.08.3-.08.25.26.06c.11-.06,2.68-1.18,2.87-1.29s.3-.14.39-.32a3.13,3.13,0,0,0,.16-.32C15.68,12,15.73,11.83,15.38,12Z"/><path class="cls-2" d="M18.32,9.71a4.66,4.66,0,0,0-.48,2.17c0,.24.18.71.54.72.19,0,.43-.14.6-.72,0-.13.05-.24.06-.29s0-.18-.1,0c-.14.35-.49.61-.76.12a2,2,0,0,1,.11-1.48c.07-.19.15-.46.15-.46C18.51,9.57,18.42,9.45,18.32,9.71Z"/><path class="cls-2" d="M15.23,8.35a17.11,17.11,0,0,1-2.41,1.56,1.75,1.75,0,0,1-2-.88c-.09-.16-.18-.45-.28-.15a5.51,5.51,0,0,0-.18.93,9.61,9.61,0,0,1,.82,2c0,.39.39.76-1.12,1.84A26.92,26.92,0,0,1,.28,18.29c-.39.16-.38.3.07.24s5-.79,5-.79c.75-.3,5-2.35,5.86-4a3.22,3.22,0,0,0,.43-2.39c.19,0,1.45.18,3.09-1.37.21-.19.53-.44.66-.31s.34.35.21,1.33c-.05.33,0,.6.19.22a4.76,4.76,0,0,0,.24-2C16,9,15.76,8,15.23,8.35Z"/><path class="cls-2" d="M6.62,7.33a8.77,8.77,0,0,0-.47,3.58c0,.39.31,1.13.82,1.13.27,0,.6-.26.78-1.23,0-.22,0-.39.06-.48s-.07-.28-.14,0c-.16.6-.64,1-1.06.28a3.74,3.74,0,0,1,0-2.43l.17-.77C6.88,7.09,6.75,6.91,6.62,7.33Z"/><path class="cls-2" d="M8.2,1.13a6.51,6.51,0,0,0-.35,2.7c0,.29.23.85.62.85.2,0,.44-.19.59-.93,0-.16,0-.29,0-.36s0-.21-.11,0c-.12.45-.48.78-.8.2a2.86,2.86,0,0,1,0-1.83c.06-.23.13-.57.13-.57C8.4,1,8.29.81,8.2,1.13Z"/><path class="cls-2" d="M2.1,9.56a9.49,9.49,0,0,0-.52,3.95c0,.43.34,1.26.91,1.25.29,0,.65-.28.86-1.35,0-.25,0-.44.07-.53s-.08-.31-.16,0c-.18.66-.71,1.14-1.17.3a4.11,4.11,0,0,1,0-2.69c.08-.34.18-.84.18-.84C2.39,9.29,2.24,9.09,2.1,9.56Z"/><path class="cls-2" d="M15.08,5.72l-.54.74-1-.75a.05.05,0,0,0-.08,0l-.63.86a.06.06,0,0,0,0,.08l1.07.78s.07,0,.08,0l.54-.74,1,.75a.05.05,0,0,0,.08,0l.63-.86a.05.05,0,0,0,0-.08l-1.07-.78A.05.05,0,0,0,15.08,5.72Z"/><path class="cls-2" d="M25.92,7.71a2,2,0,0,0-.28-1.54c-.09-.12-.57-.52-1.05.33-.2.32-.31,1.08,0,1.28a4.07,4.07,0,0,0,.75.35,13,13,0,0,1-2.91,3.39c-.19.15-.15.24,0,.2a6,6,0,0,0,1.79-1.24,6.91,6.91,0,0,0,1.5-2.24s.36.27.41.32.17.22.21.08A.75.75,0,0,0,25.92,7.71Zm-.32-.18L25,7.3c-.18-.07-.28-.17-.2-.29.25-.4.38-.39.49-.33A1,1,0,0,1,25.6,7.53Z"/><path class="cls-2" d="M14,3.73l-.63.86a.06.06,0,0,0,0,.08l1.07.78a.06.06,0,0,0,.08,0l.63-.86a.07.07,0,0,0,0-.09l-1.07-.77A.05.05,0,0,0,14,3.73Z"/><path class="cls-2" d="M19.36,2.43a.83.83,0,0,0,0,.64,9,9,0,0,0,.4.91.16.16,0,0,1-.09.24.65.65,0,0,1-.92-.5,4.58,4.58,0,0,0-.2-1c-.06-.12-.11-.14-.16,0a2.3,2.3,0,0,0-.08.4.11.11,0,0,0,0,.11s.28.82.16,1-.7.6-1,.2a3.4,3.4,0,0,1-.05-1.17c0-.17-.06-.22-.13-.09a.74.74,0,0,0-.11.35c0,.12,0,.64,0,.81s0,.69.32.84.77,0,1.12-.64a.76.76,0,0,0,.89.31A.92.92,0,0,0,20,4.12a1.18,1.18,0,0,0-.16-.87,3,3,0,0,1-.26-.72C19.48,2.37,19.44,2.2,19.36,2.43Z"/><path class="cls-2" d="M23.92,1.39a5.28,5.28,0,0,0-.45,2.25c0,.25.17.73.51.75.17,0,.4-.14.56-.75l.06-.3c0-.09,0-.18-.1,0-.13.38-.46.64-.71.14a2.27,2.27,0,0,1,.1-1.54L24,1.46C24.1,1.24,24,1.12,23.92,1.39Z"/><path class="cls-2" d="M3.73,1.75a5.26,5.26,0,0,0-.51,3A4.76,4.76,0,0,0,1,2.24c-.12-.05-.33.08-.33.44,0,.21,0,.72.14.85A3.68,3.68,0,0,0,1.43,4c.07,0,.15,0,.17-.05s.09-.3.24-.16A4,4,0,0,1,3.13,5.45c.27.84-1.7,2.71-1.81,2.79s-.12.24,0,.19a10.77,10.77,0,0,0,1.2-.86,2.32,2.32,0,0,0,1-1.82.29.29,0,0,0,0-.09c.05-.63,0-1.7.05-2s.18-1.42.79-1c.13.1.28.24.28.24s.3.31.36.13a1.41,1.41,0,0,0,0-1C4.94,2,4.17,1.1,3.73,1.75Z"/><path class="cls-2" d="M31.35,13.52a2.06,2.06,0,0,0-1.86.05l-.1.06-.06-.2C28.85,11.77,27.66,4,27.66,4l.68.67c.1.11.22,0,.17-.12s-1.36-3.31-1.4-3.42S27,.91,27,1s-.46,1-.46,1a7,7,0,0,1,.17.77c.07.45.16,1.09.26,1.79,0,0,1.26,7.75,1.35,8.33a11.4,11.4,0,0,0,.27,1.23c-1,.66-2.78,1.61-4.11,1.51a3.16,3.16,0,0,1-2.62-1.88c-.18-.57-.67-2.35-.72-2.78s-.69-3.8-2.05-5.46c-.12-.15-.22,0-.3.1a1.41,1.41,0,0,0,0,1,28.7,28.7,0,0,1,2,6.18.6.6,0,0,1-.21.48,17,17,0,0,1-2.42,2.3c-.58.39-2.43,1.58-3.42,1.38-.52-.11-1.74-1.18-.81-3.47.07-.2-.1-.38-.4.24s-1,4,1,4.48c.51.13,2.39,0,5-2.44a5.67,5.67,0,0,0,1.21-1.49c.12-.37.2-.73.2-.73a4.39,4.39,0,0,0,2.49,3.19c.22.09,1.59.63,3.91-.56.26-.13,1-.6,1.7-1a3.76,3.76,0,0,0,.81,1c.87.75,1.91.59,2.14-.24C32.5,14.09,31.75,13.71,31.35,13.52Zm.07,1.9A1.66,1.66,0,0,1,30.1,15a1.21,1.21,0,0,1-.14-.2,1.55,1.55,0,0,1,.34-.13c.46-.06,1.12.16,1.24.45A.25.25,0,0,1,31.42,15.42Z"/><path class="cls-2" d="M31.05,1l-.44,1.07c0,.06.11.48.13.63.18,1.38,1.33,8.37,1.65,10.93.16,1.27.29,2.41.3,3,0,.19.07.26.16.08a4.21,4.21,0,0,0,.3-1.56,21,21,0,0,0-.25-3.68c0-.24-1.22-7.6-1.22-7.6s.63.6.73.71.23.05.17-.13-1.35-3.3-1.4-3.41S31.1.91,31.05,1Z"/><path class="cls-2" d="M13.75.7a.85.85,0,0,0,0,.65c.09.25.35.83.4.91s0,.17-.09.23A.64.64,0,0,1,13.12,2a4.77,4.77,0,0,0-.2-1c-.06-.12-.11-.13-.16,0a1.69,1.69,0,0,0-.08.41.12.12,0,0,0,0,.11s.28.82.16,1-.7.6-1,.2a3.42,3.42,0,0,1-.06-1.17c0-.16,0-.22-.12-.09a.74.74,0,0,0-.11.35c0,.12,0,.64,0,.81s0,.7.32.85.77,0,1.12-.65a.76.76,0,0,0,.89.31.89.89,0,0,0,.45-.73,1.19,1.19,0,0,0-.16-.87A3,3,0,0,1,13.93.8C13.87.64,13.83.48,13.75.7Z"/><path class="cls-2" d="M20.65.08C20.43.2,16.49,1.83,16.26,2s-.31.16-.36.33-.07.27-.08.3-.09.25.25.06c.11-.06,4.09-1.72,4.28-1.83s.3-.14.39-.32a2.73,2.73,0,0,0,.15-.32C21,.05,21-.09,20.65.08Z"/></g></g></g></svg>