<svg xmlns="http://www.w3.org/2000/svg" viewBox="0 0 37.39 18.54"><defs><style>.cls-1{isolation:isolate;}.cls-2{fill-rule:evenodd;mix-blend-mode:darken;}</style></defs><g class="cls-1"><g id="Layer_2" data-name="Layer 2"><g id="سور_الٌقرآن_الكريم" data-name="سور الٌقرآن الكريم"><path class="cls-2" d="M11.12,15.83l-4.22,2c-.21.11-.26.17-.29.33s0,.24,0,.27-.08.19.23,0c.15-.08,3.91-1.82,4.12-1.94s.26-.16.32-.32.07-.19.1-.3S11.42,15.7,11.12,15.83Z"/><path class="cls-2" d="M15.9,10.46a3.81,3.81,0,0,0-.31,2.22,3.54,3.54,0,0,0-1.77-1.77c-.09,0-.25.07-.24.33s0,.54.13.63a4.31,4.31,0,0,0,.51.29c.06,0,.12,0,.13,0s.06-.23.18-.13a3.27,3.27,0,0,1,1.11,1.44c.07.13.19.13.2-.06,0-.47,0-1.27,0-1.51s.1-1.06.56-.75l.23.17c.1.11.23.23.27.09a1,1,0,0,0,0-.72C16.81,10.58,16.21,10,15.9,10.46Z"/><path class="cls-2" d="M10.52,12.54c-.67-2.68-1.86-2.66-2.43-2.43a2,2,0,0,0-.47.39c-.34.47-.84,1.52-.13,2.23C8,13.2,9,13,9.18,13a.8.8,0,0,1,1,.53c0,.14-.11.32-.48.54s-4.57,2.65-7.18,1.87a2.39,2.39,0,0,1-2-2.52A9.6,9.6,0,0,1,.8,12c.09-.33,0-.56-.18-.18s-1.58,3.13.5,4.74c.39.28,1.75,1.23,5,.2s4.06-1.93,4.31-2.56A2.93,2.93,0,0,0,10.52,12.54ZM8.9,11.87a1.28,1.28,0,0,1-.91,0c-.4-.15-.23-.58,0-.69.12,0,.64-.25,1.28.63A2,2,0,0,0,8.9,11.87Z"/><path class="cls-2" d="M25.34,9.6a3.49,3.49,0,0,0-.46.66c-.11.18,0,.26.17.12a.63.63,0,0,1,.6-.28c.39,0,1.31,0,1,.23s-.57.4-.57.4c-.23.16-.42.46,0,.29a2.72,2.72,0,0,0,1.32-1c.11-.17.25-.41-.29-.49S25.62,9.29,25.34,9.6Z"/><path class="cls-2" d="M20.27,8.85l-.48.66-.91-.67a.08.08,0,0,0-.08,0l-.55.76a.06.06,0,0,0,0,.08l.94.68a.05.05,0,0,0,.08,0l.47-.65.92.66a0,0,0,0,0,.07,0l.56-.76a.06.06,0,0,0,0-.07l-.95-.69A.06.06,0,0,0,20.27,8.85Z"/><path class="cls-2" d="M1.1,8.16a5,5,0,0,0-.31,2.17c0,.24.2.69.53.68.17,0,.39-.15.52-.74,0-.13,0-.24,0-.29s0-.17-.1,0c-.1.36-.42.63-.69.17a2,2,0,0,1,0-1.47c.06-.19.12-.47.12-.47C1.27,8,1.19,7.9,1.1,8.16Z"/><path class="cls-2" d="M4.12,8a8.2,8.2,0,0,0-.46,3.45c0,.38.3,1.1.8,1.1.25,0,.57-.25.75-1.19,0-.21,0-.38.06-.46s-.07-.27-.14,0c-.15.58-.62,1-1,.26a3.61,3.61,0,0,1,0-2.35c.07-.3.16-.74.16-.74C4.37,7.75,4.24,7.58,4.12,8Z"/><path class="cls-2" d="M7.7,6.94l-.56.76a0,0,0,0,0,0,.07l.95.69a0,0,0,0,0,.07,0l.55-.76a0,0,0,0,0,0-.07l-.94-.69A0,0,0,0,0,7.7,6.94Z"/><path class="cls-2" d="M23.41,5.08a4.38,4.38,0,0,0-.45,2c0,.23.17.66.5.68.18,0,.4-.13.56-.68,0-.12.05-.22.06-.27s0-.16-.09,0c-.13.33-.46.57-.71.12a1.86,1.86,0,0,1,.1-1.39l.14-.43C23.59,5,23.5,4.84,23.41,5.08Z"/><path class="cls-2" d="M17.79,5a4.38,4.38,0,0,0-.45,2c0,.22.16.66.5.67.18,0,.4-.13.56-.67l.06-.28c0-.07,0-.16-.09,0-.13.34-.46.57-.71.12a1.86,1.86,0,0,1,.1-1.39c.06-.17.14-.43.14-.43C18,4.85,17.88,4.75,17.79,5Z"/><path class="cls-2" d="M7.31,2.92a4.28,4.28,0,0,0-.4,2.17c0,.24.23.69.62.68.21,0,.46-.16.61-.75,0-.13,0-.24,0-.29s0-.17-.11,0c-.12.37-.49.64-.81.18a1.86,1.86,0,0,1,0-1.48c.07-.18.14-.46.14-.46C7.51,2.77,7.41,2.66,7.31,2.92Z"/><path class="cls-2" d="M30.52,2.92a5.35,5.35,0,0,0-.36,2.38c0,.26.23.75.6.74.19,0,.43-.17.57-.81,0-.15,0-.26.05-.32s-.06-.19-.11,0c-.11.39-.46.68-.77.18a2.27,2.27,0,0,1,0-1.61c.06-.21.13-.51.13-.51C30.71,2.76,30.61,2.64,30.52,2.92Z"/><path class="cls-2" d="M4.41,2.79a4.3,4.3,0,0,0-.56,2.37A3.89,3.89,0,0,0,2.19,3c-.09-.06-.26,0-.28.33s-.06.58.06.7.92.41.48.9c-.2.22-1.19,1.3-1.41,1.56s-.23.3,0,.17a2.94,2.94,0,0,0,1.77-2,.76.76,0,0,0-.05-.4s0,0,.05,0a3.52,3.52,0,0,1,1,1.7c.06.14.18.15.21,0,.08-.5.11-1.38.15-1.64s.23-1.15.68-.75c.1.09.21.21.21.21s.22.27.28.13a1.12,1.12,0,0,0,.06-.78C5.36,3,4.8,2.28,4.41,2.79Z"/><path class="cls-2" d="M31.18,13.49a21,21,0,0,1-5.42-.83,2.55,2.55,0,0,0-2.22-.14c-.16.06-1,.44-1.15.7a3.33,3.33,0,0,0-.2.74c0,.1,0,.12.15.11l2.14-.28a.3.3,0,0,0,.19-.09c0-.08.13-.13.34-.06s2.3.57,2.3.57c-.35.19-5,3.08-6.89,1.25a2.45,2.45,0,0,0,.81-2.7c-.09-.25-.78-2.18-1.72-1.24s-1,2.2-.34,3.57c-.33.22-3.14,1.71-5,1.05-.28-.1-1.63-.71-1.86-4.08,0-.44-.34-7.24-1.32-10-.13-.22-.19-.16-.25,0s-.3.83-.3.83c1.1,4,1.14,8.59,1.37,10.26S12.1,16.21,13.4,17c.69.45,3,1,6.27-1.09.45.45,1.52,2.49,5.73.3a19.39,19.39,0,0,1,3-1.46,9.19,9.19,0,0,1,2.75-.2l.51-1.05A2.65,2.65,0,0,0,31.18,13.49ZM19.86,14.64a7.36,7.36,0,0,1-.47-.8c-.34-.63-.26-.92.23-1.32s1.05.58,1.26,1S20,14.55,19.86,14.64Z"/><path class="cls-2" d="M32.7,1.69l-.42.92a4.5,4.5,0,0,1,.16.67c.06.43.15,1,.25,1.7,0,0,1.45,8,1.23,8.67a2.17,2.17,0,0,1-.14.36,3.73,3.73,0,0,0-.71-2.34A26.35,26.35,0,0,0,30.33,9a26.87,26.87,0,0,1-2.41-2.48c-.33-.44-.72-1-.72-1,.23.09.52.17.68.22s.33,0,.1-.22S26,4,25.81,3.82s-.15-.13-.16,0,0,.77,0,1,.05.27.14.33a1.42,1.42,0,0,1,.32.3A23.7,23.7,0,0,0,29.36,9.3c.19.2,2.85,2.15,3.85,4.06a2.64,2.64,0,0,1,.31,1.14c-.59,1-2,2.48-5.09,3.76-.26.12-.22.3.32.14s4-.75,5.15-3.34c.28-.63.85-1.79.3-4.69-.14-1.18-1-6.12-1-6.12s.56.52.65.62.2,0,.15-.11-1.2-2.92-1.23-3S32.74,1.58,32.7,1.69Z"/><path class="cls-2" d="M35.53,1.69l-.31.86c.07.49.71,5.71.76,6.07s.94,6.26,1,7.9c0,.16.06.22.14.06s.6-1.25,0-5.24c0-.34-1-7.09-1-7.09s.56.52.65.62.2,0,.15-.11-1.2-2.92-1.24-3S35.58,1.58,35.53,1.69Z"/><path class="cls-2" d="M20.07,1.7c-.18.12-6.51,3.26-7,3.68a1.64,1.64,0,0,0-.55.9c-.1.52,0,1,.37,1.1a.65.65,0,0,1,.43.25s.06,0,.08,0a.64.64,0,0,0-.44-1c-.18,0-.26-.31.41-.74s6.35-3.29,6.49-3.39.3-.18.37-.36a2.75,2.75,0,0,0,.13-.35C20.37,1.64,20.41,1.49,20.07,1.7Z"/><path class="cls-2" d="M25.7,1.64c-.34.26-1.12,1-.77,1.37l.29.25A.49.49,0,0,0,25,3.5l-.1.21c0,.06,0,.15.12.06a3.77,3.77,0,0,1,1.58-.68c.14,0,.27-.27.27-.27s.18-.33,0-.22a2,2,0,0,1-1,.23,1.11,1.11,0,0,1-.58-.35c-.06-.1-.06-.21.13-.32s.4-.18.55.06c0,0,.06,0,.12,0s.18-.24.22-.29a.15.15,0,0,0,0-.19A.37.37,0,0,0,25.7,1.64Z"/><path class="cls-2" d="M26.74.09c-.16.1-5.09,2.45-5.54,2.82a1.39,1.39,0,0,0-.49.81c-.1.46,0,.92.32,1a.56.56,0,0,1,.38.22s.06,0,.07,0A.56.56,0,0,0,21.09,4c-.16,0-.23-.28.37-.66S26.4.88,26.52.79s.27-.16.33-.32A2.3,2.3,0,0,0,27,.16C27,0,27-.09,26.74.09Z"/></g></g></g></svg>