<svg xmlns="http://www.w3.org/2000/svg" viewBox="0 0 33.55 19"><defs><style>.cls-1{isolation:isolate;}.cls-2{fill-rule:evenodd;mix-blend-mode:darken;}</style></defs><g class="cls-1"><g id="Layer_2" data-name="Layer 2"><g id="سور_الٌقرآن_الكريم" data-name="سور الٌقرآن الكريم"><path class="cls-2" d="M16.21,17l-.53.71-1-.73a.05.05,0,0,0-.08,0l-.61.83a.06.06,0,0,0,0,.08l1,.76a.06.06,0,0,0,.08,0l.52-.72,1,.74a.06.06,0,0,0,.08,0l.61-.83a.06.06,0,0,0,0-.08l-1-.76A.05.05,0,0,0,16.21,17Z"/><path class="cls-2" d="M9.89,16.89c-.22.11-3.2,1.22-3.43,1.35s-.3.15-.35.32a1.77,1.77,0,0,1-.08.29c0,.11-.08.24.25,0,.11,0,3.13-1.19,3.32-1.29s.29-.15.38-.32l.15-.31C10.17,16.85,10.22,16.72,9.89,16.89Z"/><path class="cls-2" d="M25.7,16.05c-.22.11-3.2,1.22-3.43,1.35s-.3.16-.35.32-.07.26-.08.29-.08.25.25.06c.1-.06,3.13-1.2,3.31-1.3s.3-.15.38-.32a1.42,1.42,0,0,0,.15-.31C26,16,26,15.88,25.7,16.05Z"/><path class="cls-2" d="M4.83,11.73A4.93,4.93,0,0,0,4.33,14c0,.26.19.75.57.76.19,0,.45-.14.63-.76,0-.14,0-.25.06-.31s0-.18-.11,0c-.14.38-.51.64-.79.14a2,2,0,0,1,.11-1.56c.07-.2.16-.49.16-.49C5,11.58,4.94,11.46,4.83,11.73Z"/><path class="cls-2" d="M5.2,6.86a5,5,0,0,0-.5,2.29c0,.25.18.74.56.75.2,0,.45-.14.63-.76A2.81,2.81,0,0,1,6,8.84c0-.09,0-.19-.11,0-.14.37-.52.64-.8.13a2.14,2.14,0,0,1,.12-1.56c.07-.2.15-.49.15-.49C5.4,6.72,5.31,6.6,5.2,6.86Z"/><path class="cls-2" d="M5,1.26a4.31,4.31,0,0,0-.33,2.52,4.08,4.08,0,0,0-2-2c-.1,0-.28.08-.27.39s0,.6.15.71a4.75,4.75,0,0,0,.59.33c.06,0,.13,0,.14-.06s.07-.25.2-.14A3.73,3.73,0,0,1,4.71,4.63c.08.15.22.15.23-.07,0-.53,0-1.44,0-1.71S5,1.64,5.55,2c.12.08.25.19.25.19s.27.25.31.09a1.13,1.13,0,0,0,0-.81C6,1.38,5.35.69,5,1.26Z"/><path class="cls-2" d="M31.52.27l-.43,1.05c0,.05.12.46.14.61.17,1.33,1.27,9.22,1.58,11.71.15,1.23.27,2.33.29,2.93,0,.18.07.25.15.07a4,4,0,0,0,.29-1.51,20.53,20.53,0,0,0-.24-3.57c0-.24-1.17-8.47-1.17-8.47s.62.57.72.68.22,0,.16-.12S31.69.44,31.65.33,31.57.15,31.52.27Z"/><path class="cls-2" d="M20.45,8.76A5.15,5.15,0,0,0,20,11.37c0,.29.27.83.74.82.24,0,.55-.2.73-.91,0-.16.05-.28.06-.35s-.06-.2-.13,0c-.15.44-.6.76-1,.21a2.22,2.22,0,0,1,0-1.77c.08-.23.17-.56.17-.56C20.69,8.58,20.57,8.45,20.45,8.76Z"/><path class="cls-2" d="M13.3,6.29a7.61,7.61,0,0,0-.46,3.28c0,.36.3,1,.79,1,.26,0,.58-.24.76-1.13,0-.2,0-.36.06-.44s-.07-.25-.14,0c-.15.55-.62.95-1,.25a3.22,3.22,0,0,1,0-2.23c.07-.28.16-.7.16-.7C13.56,6.06,13.43,5.9,13.3,6.29Z"/><path class="cls-2" d="M24.84,6.09l-.61.84a.06.06,0,0,0,0,.08l1,.75a.05.05,0,0,0,.08,0L26,6.92s0-.07,0-.08l-1-.76A.06.06,0,0,0,24.84,6.09Z"/><path class="cls-2" d="M13.16,1.1a4.32,4.32,0,0,0-.34,2.52,4,4,0,0,0-2-2c-.1-.05-.28.08-.26.38s0,.6.14.71a4.88,4.88,0,0,0,.59.33c.07,0,.13,0,.14,0s.08-.26.21-.15a3.79,3.79,0,0,1,1.27,1.64c.08.14.21.14.22-.08,0-.52,0-1.43,0-1.71s.11-1.21.65-.85c.12.08.25.19.25.19s.26.25.31.1a1.21,1.21,0,0,0,0-.82C14.2,1.23,13.51.53,13.16,1.1Z"/><path class="cls-2" d="M24.78.63a4.32,4.32,0,0,0-.34,2.52,4,4,0,0,0-2-2c-.1,0-.28.08-.26.38s0,.6.14.71a4.88,4.88,0,0,0,.59.33c.07,0,.13,0,.14,0s.08-.26.21-.15A3.79,3.79,0,0,1,24.5,4c.08.14.21.14.22-.08,0-.53,0-1.43,0-1.71s.11-1.21.65-.85c.12.08.25.19.25.19s.26.25.31.1a1.15,1.15,0,0,0,0-.82C25.82.76,25.13.06,24.78.63Z"/><path class="cls-2" d="M30.36,11.83c-.06-.45-1.39-8.54-1.47-9,.05,0,.49.51.58.61s.21,0,.16-.12S28.39.23,28.35.12s-.07-.18-.13-.06l-.45,1a5.28,5.28,0,0,1,.16.73c0,.16,1.89,11,1.91,11.23s.1.39-.14.57a2.87,2.87,0,0,1-1.9.67A2.05,2.05,0,0,1,26,13.61a4.12,4.12,0,0,0,.48-.45,2.91,2.91,0,0,0,.43-3.59,1,1,0,0,0-1.46-.36c-.56.4-1.09,2.27-.57,4a9.94,9.94,0,0,1-1.31.61c-.43.15-3.75,1.69-6.3.59-.37-.16-1.61-.78-1.79-1.85,0-.22-.08-.57-.43,0s-1,2.5-2.8,2.45c-.34,0-1.94-.22-2.34-3.76C9.73,10.4,8.72,2.56,8.05.46c-.17-.52-.2-.38-.28-.17a2.1,2.1,0,0,0-.21,1.57c.15,1,1.75,10.05,1.51,10.59a13,13,0,0,1-2.8,2.89c-.83.55-4.07,2.6-5.66-.59a4.87,4.87,0,0,1,.27-3.18h0a.6.6,0,0,0,.4.13c.29,0,.67-.27.89-1.32,0-.24,0-.43.07-.52s-.08-.3-.16,0c-.19.65-.74,1.12-1.22.3a4,4,0,0,1,0-2.63c.09-.33.2-.83.2-.83.09-.37-.05-.56-.2-.1a8.8,8.8,0,0,0-.56,3.87,2,2,0,0,0,.38.91,1,1,0,0,0-.07.15C.46,12-1.25,16,1.77,17.47c1,.5,3.23.55,5.66-1.71a5.68,5.68,0,0,0,2.06-2.89s.36,2.72,2.35,3.26c.77.21,2.41,0,3.21-2.27,0,0,.7,2.59,5.32,2.08a15.87,15.87,0,0,0,4.87-1.82,3.8,3.8,0,0,0,.83,1,2.83,2.83,0,0,0,3.78-.39A3.89,3.89,0,0,0,30.36,11.83Zm-5,.26a1.54,1.54,0,0,1,0-1.57.59.59,0,0,1,.8-.1c.26.27.86.76.52,1.29a4.27,4.27,0,0,1-1.16,1.07A3.78,3.78,0,0,1,25.32,12.09Z"/></g></g></g></svg>