<svg xmlns="http://www.w3.org/2000/svg" viewBox="0 0 30.28 23.23"><defs><style>.cls-1{isolation:isolate;}.cls-2{fill-rule:evenodd;mix-blend-mode:darken;}</style></defs><g class="cls-1"><g id="Layer_2" data-name="Layer 2"><g id="سور_الٌقرآن_الكريم" data-name="سور الٌقرآن الكريم"><path class="cls-2" d="M23.58,20.31c-.24.13-4,1.58-4.22,1.73s-.35.18-.4.37l-.09.32c-.06.13-.1.28.28.07.12-.07,3.89-1.55,4.1-1.67s.34-.16.43-.35a3.36,3.36,0,0,0,.17-.36C23.91,20.27,24,20.12,23.58,20.31Z"/><path class="cls-2" d="M10.78,20.76c0,.13-.1.23-.12.28s0,.19.1,0c.22-.34.63-.52.8,0,0,.1.12.58-.42,1.48-.11.18-.25.44-.25.44-.12.2-.05.33.11.1A4.89,4.89,0,0,0,11.94,21c0-.25,0-.76-.39-.85C11.36,20.11,11.08,20.2,10.78,20.76Z"/><path class="cls-2" d="M4.67,17.89C4.42,18,1.38,19,1.12,19.17s-.34.17-.39.36-.08.3-.1.33-.09.28.29.06c.12-.06,3.21-1.09,3.42-1.21s.33-.16.43-.36A2.18,2.18,0,0,0,4.94,18C5,17.85,5.05,17.7,4.67,17.89Z"/><path class="cls-2" d="M1.47,12.73C.6,13.15-.26,14.51.07,15a3.71,3.71,0,0,0,.85.84c-.27.15-.58.24-.66.53A2.38,2.38,0,0,0,.15,17c0,.1,0,.18.14.13A1,1,0,0,0,.53,17a22.63,22.63,0,0,1,3.54-1.46,2.71,2.71,0,0,0,.16-.64c0-.22-.19-.2-.55-.12S2,15.28,1.34,14.7.67,14,.88,13.86s.8-.52,1.18,0c.21.25.38.26.46.09s.38-.62.29-.8A.9.9,0,0,0,1.47,12.73Z"/><path class="cls-2" d="M.8,6.59a6,6,0,0,0-.53,3c0,.32.31.94.85.93.27,0,.62-.22.83-1,0-.18.05-.33.07-.4s-.08-.23-.15,0c-.18.5-.68.87-1.12.24a2.5,2.5,0,0,1,.05-2c.08-.25.19-.63.19-.63C1.08,6.39.94,6.24.8,6.59Z"/><path class="cls-2" d="M.71,2A5.1,5.1,0,0,0,.26,4.47c0,.27.26.8.71.78.24,0,.53-.18.71-.86,0-.16,0-.28.06-.34s-.07-.2-.13,0c-.15.42-.58.73-.94.2a2.13,2.13,0,0,1,0-1.71C.78,2.34.87,2,.87,2,1,1.78.83,1.66.71,2Z"/><path class="cls-2" d="M9.68,10.92a6.67,6.67,0,0,0-.6,3.34c0,.36.35,1.05.95,1,.31,0,.7-.25.94-1.15,0-.21.06-.37.07-.45s-.08-.26-.17,0c-.19.56-.76,1-1.24.27a2.77,2.77,0,0,1,0-2.26c.09-.29.21-.72.21-.72C10,10.69,9.83,10.52,9.68,10.92Z"/><path class="cls-2" d="M16,9.66a5,5,0,0,0-.36,2.89,4.63,4.63,0,0,0-2.34-2.28c-.12,0-.32.09-.3.44,0,.2,0,.69.17.81a4.34,4.34,0,0,0,.68.37c.07,0,.15,0,.16-.06s.08-.29.23-.16a4.24,4.24,0,0,1,1.47,1.86c.09.16.25.16.26-.08,0-.61-.06-1.65,0-2s.12-1.38.73-1a3,3,0,0,1,.29.22c.14.14.31.29.36.11a1.37,1.37,0,0,0,0-.94C17.18,9.8,16.39,9,16,9.66Z"/><path class="cls-2" d="M22.91,8.66a4.93,4.93,0,0,0-.46,2.52c0,.27.27.79.72.78.24,0,.53-.19.71-.87,0-.15,0-.28.05-.34s-.06-.19-.12,0c-.15.42-.58.73-.94.2a2.08,2.08,0,0,1,0-1.71c.07-.21.15-.53.15-.53C23.14,8.48,23,8.36,22.91,8.66Z"/><path class="cls-2" d="M19.49,7.87l-.69,1a.07.07,0,0,0,0,.1L20,9.78a.07.07,0,0,0,.09,0l.69-.95a.06.06,0,0,0,0-.09l-1.18-.86A.06.06,0,0,0,19.49,7.87Z"/><path class="cls-2" d="M16.32,4.25c-.27.16-8.77,4.71-9,4.89s-.38.23-.42.44-.07.34-.08.38-.09.32.32,0c.13-.08,8.67-4.66,8.9-4.82s.37-.2.46-.43.12-.26.17-.41S16.73,4,16.32,4.25Z"/><path class="cls-2" d="M21.05,3.62a1,1,0,0,0-.11.54,2.63,2.63,0,0,1,.07.67c0,.11-.62.53-.88.27-.09-.1-.06-.52-.08-.72S20,4,19.85,4.24a.85.85,0,0,0-.09.57c0,.18.09.41-.06.59s-.81.69-1.16.13a.91.91,0,0,1,0-.47c0-.16-.15-.32-.21-.07a2,2,0,0,0-.06,1c.11.32.75,1,1.63-.18.24.11,1,.33,1.41-.83a3.43,3.43,0,0,0,0-1.25C21.26,3.44,21.17,3.31,21.05,3.62Z"/><path class="cls-2" d="M10.53,1.45a5.53,5.53,0,0,0-.78,3.12,5.11,5.11,0,0,0-2.27-2.8c-.12-.07-.36.06-.39.44,0,.22-.07.76.08.92a5.44,5.44,0,0,0,.7.49c.08,0,.16,0,.19,0s.12-.31.27-.15A4.62,4.62,0,0,1,9.7,5.66c.07.19.25.21.29-.06.1-.66.15-1.81.21-2.16s.3-1.5.92-1a2.65,2.65,0,0,1,.29.28c.14.16.3.35.38.16a1.49,1.49,0,0,0,.09-1C11.82,1.76,11.05.79,10.53,1.45Z"/><path class="cls-2" d="M17.05.53a5,5,0,0,0-.49,2.26c0,.25.18.73.56.75.19,0,.44-.15.62-.75,0-.14.05-.25.06-.31s0-.18-.1,0c-.14.37-.51.64-.79.14A2.14,2.14,0,0,1,17,1.08c.07-.19.16-.48.16-.48C17.25.39,17.16.27,17.05.53Z"/><path class="cls-2" d="M24.25.15c-.06.13-.4,1.07-.4,1.07,0,.3.57,3.92,1.08,7.43,0,0,1.31,7.52,1.32,7.94,0,.2.08.46,0,.55s-1.77,1.21-3.14.21a3.1,3.1,0,0,1-1.2-2.15,16,16,0,0,0-1.3-3.81c-.14-.18-.2-.18-.28,0a10,10,0,0,0-.15,1.09,24.12,24.12,0,0,1,1.16,4.12.84.84,0,0,1-1,.84c-.21,0-1.21-.27-1.37-.86,0-.15,0-.12.07-.27s-.05-.43-.24-.14a9.6,9.6,0,0,1-.88,1.44c-.42.41-1.84.54-1.78-.56.1-.22.15-.35.21-.46s0-.31-.25-.11A6.29,6.29,0,0,1,14.66,18c-.68.38-2.1.68-2.34-.73a5,5,0,0,0,.15-.57c0-.13-.06-.4-.24-.16a4.55,4.55,0,0,1-2.11,1.83,2.7,2.7,0,0,1-3.65-1.64,14.27,14.27,0,0,1-.83-4.15c0-.47-.69-7.3-.81-8.16a18.24,18.24,0,0,0-.62-3.22C4.12,1,4,1,3.93,1.16s-.35,1-.35,1c.49,1.85.93,6.07,1,6.58.1.84.5,6.24.74,7.47.19,1,.4,2.76,2.09,3.47a3.67,3.67,0,0,0,4.22-1,2.09,2.09,0,0,0,2.9.69,2.43,2.43,0,0,0,.93-.95,1.51,1.51,0,0,0,1.37,1.06c.26,0,1,0,1.68-1.29a2.74,2.74,0,0,0,2,.73,1.51,1.51,0,0,0,1.19-1.53,3.5,3.5,0,0,0,1.41,1.56,2.7,2.7,0,0,0,2.81-.16c.28-.15.62-.31,1-1.91a4.75,4.75,0,0,0,0-1.92c-.17-.71-1.93-11.58-1.93-11.58l.82.77c.11.12.24.06.18-.13S24.44.34,24.4.21,24.3,0,24.25.15Z"/><path class="cls-2" d="M28,.07c-.06.14-.4,1.08-.4,1.08.09.6.9,7.14,1,7.58s1.19,7.84,1.25,9.89c0,.2.07.28.17.08s.75-1.56,0-6.56L28.66,3.27s.7.66.81.78.25,0,.18-.14S28.16.26,28.11.14,28-.07,28,.07Z"/></g></g></g></svg>