<svg xmlns="http://www.w3.org/2000/svg" viewBox="0 0 34.22 19.73"><defs><style>.cls-1{isolation:isolate;}.cls-2{fill-rule:evenodd;mix-blend-mode:darken;}</style></defs><g class="cls-1"><g id="Layer_2" data-name="Layer 2"><g id="سور_الٌقرآن_الكريم" data-name="سور الٌقرآن الكريم"><path class="cls-2" d="M22.77,15.55a5.07,5.07,0,0,0-.61,2.36c0,.26.16.78.55.81.2,0,.47-.13.68-.77,0-.14.06-.26.08-.31s0-.2-.11,0c-.17.39-.56.65-.83.11a2.24,2.24,0,0,1,.18-1.63c.08-.2.18-.49.18-.49C23,15.4,22.89,15.27,22.77,15.55Z"/><path class="cls-2" d="M29.27,15.32a4.59,4.59,0,0,0-.46,2.09c0,.22.17.67.51.68.18,0,.42-.13.58-.69,0-.12,0-.23.06-.28s0-.16-.1,0c-.13.35-.47.59-.73.12a1.92,1.92,0,0,1,.11-1.42l.14-.44C29.45,15.19,29.37,15.08,29.27,15.32Z"/><path class="cls-2" d="M14.56,14.62c-.21.14-3.46,1.71-3.67,1.86s-.3.19-.33.36-.05.27-.06.3-.06.25.26,0c.1-.07,3.39-1.66,3.57-1.79s.29-.17.36-.35a2,2,0,0,0,.12-.34C14.85,14.56,14.89,14.42,14.56,14.62Z"/><path class="cls-2" d="M10.6,10.34c-.21.13-6.48,3.57-6.7,3.72s-.3.19-.33.36,0,.27,0,.3-.07.26.25,0c.1-.07,6.42-3.54,6.6-3.66s.29-.18.36-.36.08-.21.12-.33S10.93,10.13,10.6,10.34Z"/><path class="cls-2" d="M3.94,9.2a4.36,4.36,0,0,0-.44,2c0,.23.16.66.5.68.17,0,.4-.13.56-.68,0-.12,0-.22.06-.27s0-.16-.1,0c-.13.33-.46.57-.71.12a1.93,1.93,0,0,1,.1-1.39c.06-.17.14-.43.14-.43C4.12,9.06,4,9,3.94,9.2Z"/><path class="cls-2" d="M6.57,8.73,6,9.59a.05.05,0,0,0,0,.08L7,10.44a.06.06,0,0,0,.08,0l.62-.85a.06.06,0,0,0,0-.09L6.65,8.72A.06.06,0,0,0,6.57,8.73Z"/><path class="cls-2" d="M11.89,5.67c0,.15-.14.76-.17.89a.58.58,0,0,0,0,.37,6.84,6.84,0,0,1,.35.79c.11.31,1.32,2.63,1.43,2.83s.13.36,0,.5c-3.87,4.08-9.92,6.16-10.16,6.3s-.17.24.23.17a25,25,0,0,0,3.85-.87c1-.4,5.17-2.53,6.47-5a3,3,0,0,0-.06-2.39c-.25-.49-1-1.87-1-1.87s.59,0,.64,0,.16,0,0-.22-1.36-1.38-1.43-1.48S11.94,5.53,11.89,5.67Z"/><path class="cls-2" d="M9.78,5.7a4.38,4.38,0,0,0-.45,2c0,.22.17.66.5.67.18,0,.4-.12.56-.67l.06-.27c0-.08,0-.17-.09,0-.13.34-.46.57-.71.12a1.84,1.84,0,0,1,.1-1.38l.14-.44C10,5.57,9.88,5.46,9.78,5.7Z"/><path class="cls-2" d="M15,17.51c-3,.78-7.62,1.14-9.71.64C4.48,18,.5,17.47.93,12.64,1,12,1,10.23,3.37,8.08a3.11,3.11,0,0,1,.29.35c.17.25.24.31.25,0a2.87,2.87,0,0,0-.05-.82A19.29,19.29,0,0,1,7.19,5.51C7.94,5.12,9.81,4,9.81,4l.41-1.25a25,25,0,0,0-8.78.12A1.8,1.8,0,0,0,0,4.61c0,.64.17,1,.51,1.14A9.51,9.51,0,0,1,2.69,7.37,9.25,9.25,0,0,0,.44,14.79C.5,15.5.56,20,8.09,19.72A16.76,16.76,0,0,0,15,17.86C15.56,17.58,15.66,17.32,15,17.51ZM.71,4.72c-.09-.09-.28-.2.13-.35s1.86-.75,6.9-.31C7.35,4.27,4.28,6.18,4,6.4a5.62,5.62,0,0,0-.56.41,3.36,3.36,0,0,0-.36-.42C2.74,6.06.81,4.8.71,4.72Z"/><path class="cls-2" d="M11.58.23a4.38,4.38,0,0,0-.45,2c0,.22.17.66.51.67.17,0,.39-.13.55-.68,0-.12.05-.22.06-.27s0-.16-.09,0c-.13.33-.46.57-.71.12a1.86,1.86,0,0,1,.1-1.39c.06-.17.14-.43.14-.43C11.76.1,11.68,0,11.58.23Z"/><path class="cls-2" d="M32.64,13a2.28,2.28,0,0,0-2.05-.23l-.26.09C29.88,12,28.48,2.54,28.48,2.54s.63.59.73.7.22,0,.17-.13S28.16.24,28.12.13,28-.06,28,.07l-.46,1a5.13,5.13,0,0,1,.17.76c.08.48.78,6.5,1.5,9.91.12.54.24,1.05.36,1.51-.15.08-.28.17-.4.24-.42.3-2.71,1.9-4.8.48l-.24-.2a13.37,13.37,0,0,1,2.06-1,9,9,0,0,0,.27-.87.48.48,0,0,0-.27-.62c-.29-.15-3.88-1.49-6.79.3-.14.34-.22.76-.3,1s0,.29.16.22.87-.4,1.21-.27a5.72,5.72,0,0,1,1.46.85l.27.24-.44.25c-.72.4-2.74,1.33-4.14.74-.39-.14-1.72-.7-2-3.05-.13-.82-.41-4.25-.54-5.29A28.55,28.55,0,0,0,13.9.17c-.13-.34-.23,0-.26.08a2.27,2.27,0,0,0-.26,1.06,31.05,31.05,0,0,1,1.07,5.36,55.85,55.85,0,0,0,1,7.3,3.36,3.36,0,0,0,4,2.07A16,16,0,0,0,23,14.4a9.22,9.22,0,0,0,1.38,1.08c.55.28,2.25,1.2,5.08-1,.05,0,.19-.13.39-.24a3.63,3.63,0,0,0,.33.73,2.23,2.23,0,0,0,1.47,1c.18,0,.95.11,1.28-1.1C33,14.67,33.25,13.49,32.64,13ZM22,12a7.44,7.44,0,0,1,2.75.23L23.27,13A15.6,15.6,0,0,0,22,12Zm10.27,2.75c-.45.2-1.15-.2-1.48-.73a2,2,0,0,1,.72,0C31.88,14.07,32.78,14.48,32.26,14.71Z"/><path class="cls-2" d="M32.14.06,31.7,1.13c0,.06.12.47.14.63.18,1.36,1.3,9.43,1.62,12,.15,1.26.28,2.39.3,3,0,.18.06.25.15.07a3.81,3.81,0,0,0,.3-1.54A20.75,20.75,0,0,0,34,11.61c0-.24-1.19-8.67-1.19-8.67s.63.59.73.7.22,0,.16-.12S32.32.23,32.28.12,32.19-.06,32.14.06Z"/><path class="cls-2" d="M17.83,8.1a5.29,5.29,0,0,0-.38,2.41c0,.26.24.77.63.76.2,0,.45-.18.6-.83,0-.15,0-.27.05-.32s-.06-.19-.11,0c-.13.4-.5.7-.81.19a2.16,2.16,0,0,1,0-1.64c.06-.2.13-.51.13-.51C18,7.94,17.93,7.82,17.83,8.1Z"/><path class="cls-2" d="M25.94,6.63A5.09,5.09,0,0,0,25.56,9c0,.26.23.76.62.75.2,0,.46-.17.61-.83,0-.14,0-.26,0-.32s0-.19-.11,0c-.12.4-.49.69-.81.18a2.23,2.23,0,0,1,0-1.63c.06-.21.13-.52.13-.52C26.14,6.46,26,6.34,25.94,6.63Z"/><path class="cls-2" d="M26.94,4.11c-.23.14-5.23,2.64-5.46,2.8s-.32.2-.35.38-.05.29-.06.32-.06.27.28,0c.1-.08,5.15-2.6,5.34-2.74s.31-.18.38-.37a1.61,1.61,0,0,0,.13-.36C27.24,4,27.29,3.89,26.94,4.11Z"/><path class="cls-2" d="M26.42.61c-.27.16-9.39,5-9.67,5.2s-.37.24-.41.46-.06.34-.07.38-.08.32.33,0c.13-.09,9.3-5,9.53-5.13s.36-.22.45-.44.11-.27.15-.43S26.83.35,26.42.61Z"/><path class="cls-2" d="M19.18.39a4.19,4.19,0,0,0-.45,2.42,3.93,3.93,0,0,0-1.85-2c-.1-.05-.28.06-.28.35s0,.59.1.7a4.68,4.68,0,0,0,.55.35c.06,0,.13,0,.14,0s.09-.25.21-.13a3.67,3.67,0,0,1,1.14,1.64c.06.14.2.15.22-.06,0-.51,0-1.39.06-1.66s.17-1.15.66-.78a1.87,1.87,0,0,1,.24.2c.11.12.24.26.29.11a1.08,1.08,0,0,0,0-.79C20.18.57,19.55-.14,19.18.39Z"/></g></g></g></svg>