<svg xmlns="http://www.w3.org/2000/svg" viewBox="0 0 34.83 18.05"><defs><style>.cls-1{isolation:isolate;}.cls-2{fill-rule:evenodd;mix-blend-mode:darken;}</style></defs><g class="cls-1"><g id="Layer_2" data-name="Layer 2"><g id="سور_الٌقرآن_الكريم" data-name="سور الٌقرآن الكريم"><path class="cls-2" d="M10.16,16c-.21.1-2.63,1-2.84,1.12s-.3.15-.34.31-.07.25-.08.28-.08.23.24.05c.1-.05,2.56-1,2.74-1.07s.29-.14.37-.3a1.91,1.91,0,0,0,.14-.31C10.44,16,10.49,15.85,10.16,16Z"/><path class="cls-2" d="M21.5,14.73a4.22,4.22,0,0,0-.42,1.92c0,.22.16.63.48.64.16,0,.37-.12.52-.64,0-.12.05-.21.06-.26s0-.15-.09,0c-.12.32-.44.54-.67.11a1.74,1.74,0,0,1,.09-1.31c.06-.16.14-.41.14-.41C21.67,14.61,21.59,14.51,21.5,14.73Z"/><path class="cls-2" d="M27.08,14.29a4.23,4.23,0,0,0-.42,1.93c0,.21.15.62.47.63s.38-.12.53-.64c0-.12,0-.21.06-.26s0-.15-.09,0c-.12.32-.44.54-.67.12a1.77,1.77,0,0,1,.09-1.32c.06-.16.14-.41.14-.41C27.25,14.17,27.17,14.07,27.08,14.29Z"/><path class="cls-2" d="M11.65,13.54a5.66,5.66,0,0,0-.41,2.56c0,.28.25.81.67.8.22,0,.5-.19.66-.88,0-.16,0-.28,0-.34s-.06-.2-.12,0c-.14.43-.53.75-.87.2a2.28,2.28,0,0,1,0-1.73c.07-.22.15-.55.15-.55C11.87,13.36,11.76,13.24,11.65,13.54Z"/><path class="cls-2" d="M5.19,7.15a4.88,4.88,0,0,0-.28,2.12c0,.24.18.68.49.67.15,0,.35-.15.46-.72a2.32,2.32,0,0,0,0-.29c0-.07,0-.16-.08,0-.09.35-.38.61-.63.16a2.29,2.29,0,0,1,0-1.45c0-.18.1-.45.1-.45C5.34,7,5.26,6.9,5.19,7.15Z"/><path class="cls-2" d="M1.81,9.5a9.89,9.89,0,0,0-.54,4.1c.05.45.35,1.3.94,1.3.3,0,.68-.3.9-1.41,0-.25.05-.45.07-.55s-.09-.32-.17,0c-.18.69-.73,1.19-1.21.31a4.25,4.25,0,0,1,0-2.78c.09-.36.2-.88.2-.88C2.11,9.21,2,9,1.81,9.5Z"/><path class="cls-2" d="M10.89,7.35c-.05.13-.22.87-.06,1.08s.64.94.38,1.16A2.52,2.52,0,0,1,9.34,10c-.09-.17-.2-.35-.32-.53s-.4-.72-.49-.21a1.94,1.94,0,0,0,.22,1.17c.15.34.88,1.51.73,1.85S7.9,14.73,2.93,16.82c-.51.21-2.57,1-2.77,1.05s-.23.2,0,.18,3.87-.57,4.24-.74a15.47,15.47,0,0,0,4.31-2.86,3.19,3.19,0,0,0,1-1.66,4.17,4.17,0,0,0,0-1.66,1.91,1.91,0,0,0,1.94-1.28,2.64,2.64,0,0,0-.58-2.53C11,7.22,10.94,7.22,10.89,7.35Z"/><path class="cls-2" d="M10.66,4.86l-.51.7-1-.71a0,0,0,0,0-.07,0l-.59.81a.05.05,0,0,0,0,.08l1,.73a.05.05,0,0,0,.08,0l.51-.69,1,.71a.05.05,0,0,0,.08,0l.59-.8a.06.06,0,0,0,0-.08l-1-.73A0,0,0,0,0,10.66,4.86Z"/><path class="cls-2" d="M9.55,3.21,9,4a.06.06,0,0,0,0,.08l1,.73a.05.05,0,0,0,.08,0L10.64,4a.06.06,0,0,0,0-.08l-1-.73A.05.05,0,0,0,9.55,3.21Z"/><path class="cls-2" d="M3,1.56A4.29,4.29,0,0,0,2.38,4,3.89,3.89,0,0,0,.67,1.8c-.09-.06-.28,0-.29.34s-.06.58.06.7A4.34,4.34,0,0,0,1,3.22c.06,0,.13,0,.14,0s.1-.23.21-.11a3.2,3.2,0,0,1,1,1.47C2.44,5.24.72,6.66.63,6.72s-.11.19,0,.15a9.32,9.32,0,0,0,1-.63A1.92,1.92,0,0,0,2.55,4.8a.64.64,0,0,0,0-.07c.07-.5.11-1.39.15-1.65s.23-1.15.7-.75a2.5,2.5,0,0,1,.22.21c.1.13.23.27.29.13A1.15,1.15,0,0,0,4,1.88C4,1.79,3.37,1,3,1.56Z"/><path class="cls-2" d="M28,8.5l-.5.69-1-.71a.07.07,0,0,0-.08,0l-.59.81s0,.06,0,.07l1,.74a.07.07,0,0,0,.08,0l.51-.69,1,.71a.07.07,0,0,0,.08,0l.59-.8s0-.07,0-.08l-1-.74A.07.07,0,0,0,28,8.5Z"/><path class="cls-2" d="M23.08,8.27a6.35,6.35,0,0,0-.46,2.88c0,.31.28.91.76.9.24,0,.55-.21.73-1,0-.17.05-.31.06-.38s-.07-.23-.13,0c-.15.49-.6.84-1,.23a2.66,2.66,0,0,1,0-2c.08-.24.16-.61.16-.61C23.33,8.07,23.2,7.93,23.08,8.27Z"/><path class="cls-2" d="M19.81,5.73a4.18,4.18,0,0,0-.42,1.92c0,.21.15.62.47.64s.38-.12.53-.64c0-.12.05-.21.06-.26s0-.15-.09,0-.44.54-.67.11a1.74,1.74,0,0,1,.09-1.31l.14-.41C20,5.6,19.9,5.5,19.81,5.73Z"/><path class="cls-2" d="M28,5.32a.8.8,0,0,0,0,.61c.09.23.33.77.37.85a.14.14,0,0,1-.08.22.6.6,0,0,1-.86-.47,5,5,0,0,0-.18-1c-.06-.11-.11-.12-.15,0a2.09,2.09,0,0,0-.08.37A.09.09,0,0,0,27,6s.26.77.15,1-.65.57-.94.19a3,3,0,0,1-.06-1.09c0-.16-.05-.21-.11-.09a.57.57,0,0,0-.1.33c0,.11,0,.6,0,.75s0,.66.29.8.72,0,1.05-.6a.72.72,0,0,0,.83.29.89.89,0,0,0,.43-.69,1.23,1.23,0,0,0-.15-.81,2.93,2.93,0,0,1-.25-.67C28.06,5.27,28,5.11,28,5.32Z"/><path class="cls-2" d="M28.41,3c-.21.11-2.62,1-2.84,1.12s-.3.15-.34.31-.07.26-.08.28-.08.24.24.06c.1-.06,2.56-1,2.74-1.07s.29-.14.37-.31a2.37,2.37,0,0,0,.14-.3C28.69,3,28.74,2.83,28.41,3Z"/><path class="cls-2" d="M19.5.61,14.57,3c-.23.11-.29.17-.32.33a2.91,2.91,0,0,1-.06.29c0,.1-.06.2.25,0,.1-.06,4.63-2.21,4.82-2.31A.62.62,0,0,0,19.61,1c.07-.17.09-.2.13-.32S19.84.46,19.5.61Z"/><path class="cls-2" d="M31.6,11.89c0-.52-1.27-9-1.27-9s.6.56.69.66.21,0,.16-.12S29.91.31,29.87.21,29.79,0,29.74.15l-.44,1a6.48,6.48,0,0,1,.17.72c.05.4.13.95.22,1.57,0,0,1.51,9.15,1.28,9.47a2.07,2.07,0,0,1-2.7,0,2.27,2.27,0,0,1-.44-1.07c0-.17-.09-.36-.27-.17a5.39,5.39,0,0,1-1.76,1.68,3.18,3.18,0,0,1-3.06-.23A8,8,0,0,1,21,11.66a19.11,19.11,0,0,0-6.31-3.42c-.28-.07-.67-.18-.4-.42a34.75,34.75,0,0,1,8.4-5.37c.39-.17,2.56-.84,1.77.43s-1.58,2.23-1.73,2.5a6.73,6.73,0,0,0-.53,1.18c-.05.24-.09.55.15.14s1.84-2.58,2.08-2.93C25.44,2,25.49.42,23.76.92a36,36,0,0,0-9.38,5.57,1.63,1.63,0,0,0-.61.92c0,.06-.06.2-.1.38A47.42,47.42,0,0,0,12.43,1c-.11-.33-.18-.4-.33-.09A1.21,1.21,0,0,0,12,2a87.92,87.92,0,0,1,1.56,9.65c0,.74.15,3.92,2.35,4.39a3.37,3.37,0,0,0,3-1.2c.38-.38,1.08-1.36.08-3.29a17,17,0,0,1,3.16,2.54A3.48,3.48,0,0,0,27.38,13c.31.72.9,2.3,3,1.56C30.68,14.42,31.75,14.19,31.6,11.89Zm-12.86,1.8a5.25,5.25,0,0,1-2.27,1.16c-.71.06-1.86,0-2.29-2.75-.06-.39-.17-1.5-.34-2.92a.8.8,0,0,0,.2.15c.77.42,3.7,1.95,4.84,3.44C19.11,13.16,19.11,13.34,18.74,13.69Z"/><path class="cls-2" d="M32.86.15l-.42,1c0,.06.11.45.13.59.17,1.3,1.23,8.94,1.53,11.35.15,1.19.27,2.26.29,2.83,0,.18.06.25.14.08a3.8,3.8,0,0,0,.28-1.46,20.07,20.07,0,0,0-.23-3.47c0-.23-1.13-8.21-1.13-8.21l.69.66c.1.11.21.05.16-.11S33,.31,33,.21,32.91,0,32.86.15Z"/><path class="cls-2" d="M9.34,1.56A1.79,1.79,0,0,0,9.19.21c-.06-.12-.45-.49-.94.21-.18.27-.34.92-.08,1.12a4,4,0,0,0,.62.36A17.35,17.35,0,0,1,5.14,5c-.18.1-.15.2,0,.17A8.42,8.42,0,0,0,7.21,4.1,8.91,8.91,0,0,0,9.08,2s.29.26.33.31.13.2.18.08A.66.66,0,0,0,9.34,1.56Zm-.27-.17-.49-.24C8.43,1.08,8.35,1,8.42.88c.25-.33.36-.31.45-.25A.93.93,0,0,1,9.07,1.39Z"/></g></g></g></svg>