<svg xmlns="http://www.w3.org/2000/svg" viewBox="0 0 32.62 19.41"><defs><style>.cls-1{isolation:isolate;}.cls-2{fill-rule:evenodd;mix-blend-mode:darken;}</style></defs><g class="cls-1"><g id="Layer_2" data-name="Layer 2"><g id="سور_الٌقرآن_الكريم" data-name="سور الٌقرآن الكريم"><path class="cls-2" d="M10.67,17c-.23.11-4,1.51-4.2,1.64s-.32.16-.37.34-.07.27-.08.3-.09.25.26.06c.11-.06,3.89-1.48,4.08-1.59s.32-.15.4-.33a3.11,3.11,0,0,0,.16-.33C11,16.94,11,16.8,10.67,17Z"/><path class="cls-2" d="M28.85,15.9l-.11.26c0,.08,0,.17.09,0,.2-.32.58-.49.74,0a1.93,1.93,0,0,1-.38,1.38L29,18c-.11.19,0,.31.1.09a4.56,4.56,0,0,0,.84-1.95c0-.23,0-.7-.37-.77C29.37,15.3,29.12,15.38,28.85,15.9Z"/><path class="cls-2" d="M20.72,15.43a5.19,5.19,0,0,0-.58,2.7,4.35,4.35,0,0,0-1.77-2.41c-.09-.06-.28,0-.3.38s-.05.67.07.8a5.14,5.14,0,0,0,.54.42c.07,0,.13,0,.15,0s.09-.26.21-.13a4.18,4.18,0,0,1,1.08,1.92c.06.17.19.18.22-.05.07-.57.1-1.57.14-1.87s.22-1.3.71-.85a2.31,2.31,0,0,1,.22.24c.11.14.24.3.3.14a1.45,1.45,0,0,0,.06-.89C21.72,15.69,21.12,14.85,20.72,15.43Z"/><path class="cls-2" d="M18.63,7.47a5.58,5.58,0,0,0-.46,2.91,4.65,4.65,0,0,0-2-2.46c-.1-.06-.29.07-.29.42s0,.71.12.84a5.26,5.26,0,0,0,.6.42c.06,0,.13,0,.15,0s.09-.29.22-.16a4.61,4.61,0,0,1,1.25,2c.07.17.21.18.23-.07,0-.62,0-1.67,0-2s.17-1.39.71-.94a3.24,3.24,0,0,1,.25.24c.12.15.27.31.32.13a1.41,1.41,0,0,0,0-1C19.71,7.69,19,6.83,18.63,7.47Z"/><path class="cls-2" d="M8.87,6.65a9.25,9.25,0,0,0-.75,3.83c0,.42.26,1.24.81,1.27.29,0,.66-.24.93-1.27,0-.23.07-.42.09-.51s-.06-.31-.15,0c-.22.63-.76,1.07-1.16.22a4,4,0,0,1,.17-2.62c.11-.32.24-.81.24-.81C9.16,6.4,9,6.2,8.87,6.65Z"/><path class="cls-2" d="M24.56,5.47,24,6.22,23,5.45a.05.05,0,0,0-.08,0l-.64.87s0,.07,0,.08l1.09.8a.06.06,0,0,0,.08,0L24,6.45,25,7.22a.07.07,0,0,0,.09,0l.63-.87a.06.06,0,0,0,0-.09l-1.08-.79A.07.07,0,0,0,24.56,5.47Z"/><path class="cls-2" d="M4.72,1.12A5,5,0,0,0,4,3.86a4.43,4.43,0,0,0-2-2.46c-.11-.06-.32.06-.34.39s-.07.67.07.8A3.7,3.7,0,0,0,2.4,3c.07,0,.14,0,.16,0s.11-.27.24-.14a4.1,4.1,0,0,1,1.2,2c.07.16.22.18.26,0,.08-.58.13-1.59.17-1.9S4.7,1.55,5.25,2a3.24,3.24,0,0,1,.25.24c.12.15.26.31.33.15a1.32,1.32,0,0,0,.08-.91C5.86,1.39,5.18.54,4.72,1.12Z"/><path class="cls-2" d="M25.4.66c-.3.11-10.66,4.47-11,4.6s-.39.18-.45.39-.1.31-.12.36-.13.28.31.08C14.32,6,24.75,1.67,25,1.55s.38-.17.5-.38a2.92,2.92,0,0,0,.2-.39C25.76.63,25.84.48,25.4.66Z"/><path class="cls-2" d="M17.13.46c-.3.11-10.65,4.47-11,4.6s-.39.18-.45.39-.1.31-.12.36-.13.28.31.08c.14-.06,10.58-4.42,10.82-4.54s.38-.17.49-.38a2.92,2.92,0,0,0,.2-.39C17.49.43,17.57.28,17.13.46Z"/><path class="cls-2" d="M29.08,9.35C29,8.9,28.08,3,28.08,3s.65.61.75.72.23,0,.17-.13S27.62.24,27.58.13s-.08-.19-.14-.07S27,1.12,27,1.12a6.32,6.32,0,0,1,.18.78l.28,2s1.36,8.29,1.38,8.61.16.42-.28.66-2.7,1.3-3.83-.35A2.73,2.73,0,0,0,26.06,10c-.35-2.07-1.36-2-1.93-1.61s-1.51,1.74-.62,3.88a11.85,11.85,0,0,1-5.86,1.26c-.37,0-3.28-.1-4.8-1.87a1.14,1.14,0,0,0-.31.57,11.5,11.5,0,0,0-3.82,1,20.43,20.43,0,0,0-4,3,7.36,7.36,0,0,1-1.92,1.5,1.91,1.91,0,0,1-1.83,0c-.33-.17-1.13-1.29.29-3.69.36-.62,1-1.71,1.15-1.93A2.47,2.47,0,0,0,3,10.8c0-.26.08-.47.11-.57s-.07-.34-.18,0c-.23.7-.84,1.19-1.28.24a4.43,4.43,0,0,1,.19-2.9c.12-.37.26-.9.26-.9.13-.41,0-.64-.2-.14a10.43,10.43,0,0,0-.83,4.25c0,.43.25,1.24.77,1.38A10.6,10.6,0,0,0,.1,15.65c-.25,1.09-.17,3.13,1.67,3.4.4.05,1.23.11,3.17-1.63a28.54,28.54,0,0,1,2.6-2.17c1.36-.91,3.26-1.9,4.78-1.68.06.5,0,2.38,2,2.8.23,0,.49,0,.54-.36a10.73,10.73,0,0,0,0-1.57A12.94,12.94,0,0,0,24,13.31a2.86,2.86,0,0,0,3.52,1.52,2.3,2.3,0,0,0,1.87-2.47A17.9,17.9,0,0,0,29.08,9.35ZM13.41,13.78a2,2,0,0,1,.72,1.1S13.42,14.78,13.41,13.78Zm10.85-1.93s-.45-.21-.59-1.36a.94.94,0,0,1,.41-.94c.25-.15.87-.2,1.39,1.09C25.63,11,24.5,11.75,24.26,11.85Z"/><path class="cls-2" d="M30.49.06c-.06.13-.37,1-.37,1,.08.55.83,6.57.87,7s1.09,7.21,1.15,9.09c0,.19.07.26.16.08s.69-1.44,0-6C32.22,10.79,31.13,3,31.13,3s.64.61.74.72.23,0,.17-.13S30.67.24,30.62.13,30.54-.06,30.49.06Z"/></g></g></g></svg>