<svg xmlns="http://www.w3.org/2000/svg" viewBox="0 0 34.22 18.77"><defs><style>.cls-1{isolation:isolate;}.cls-2{fill-rule:evenodd;mix-blend-mode:darken;}</style></defs><g class="cls-1"><g id="Layer_2" data-name="Layer 2"><g id="سور_الٌقرآن_الكريم" data-name="سور الٌقرآن الكريم"><path class="cls-2" d="M27.17,15.22a1.5,1.5,0,0,0-.12.53c0,.1.05.42.05.42a.76.76,0,0,1-.93,0c0-.09.08-.27.1-.36s-.05-.27-.13-.11a3.76,3.76,0,0,1-.38.81c-.13.12-.28.55-1.27.11a.69.69,0,0,0-.94.18,6.86,6.86,0,0,1-3,1.5c-.15.06-.45.29-.09.25a3.81,3.81,0,0,0,2.7-.94c.17-.17.37-.61,1-.36.36.14,1,.72,1.76-.42.43.29,1.09.17,1.19-.14a2.88,2.88,0,0,0,.22-.85c0-.22,0-.5,0-.5C27.33,15.2,27.27,15,27.17,15.22Z"/><path class="cls-2" d="M31.58,13.72A5.75,5.75,0,0,0,31,16.21c0,.27.17.82.56.85.21,0,.48-.14.69-.81,0-.15.06-.28.08-.34s0-.2-.11,0c-.17.41-.57.69-.84.12a2.45,2.45,0,0,1,.18-1.71c.08-.21.18-.53.18-.53C31.8,13.56,31.71,13.43,31.58,13.72Z"/><path class="cls-2" d="M2.83,8.29a4.66,4.66,0,0,0-.15.51A5.81,5.81,0,0,1,4.19,13c0,.14,0,.27.08.16A5.76,5.76,0,0,0,3.09,8.32C2.89,8.11,2.89,8.2,2.83,8.29Z"/><path class="cls-2" d="M26.57,8.44l-.51.7-1-.71a0,0,0,0,0-.07,0l-.59.81a.05.05,0,0,0,0,.08l1,.73a.05.05,0,0,0,.08,0l.51-.7,1,.71a0,0,0,0,0,.07,0l.59-.81a.05.05,0,0,0,0-.08l-1-.73A.06.06,0,0,0,26.57,8.44Z"/><path class="cls-2" d="M25.49,6.72l-.59.81a0,0,0,0,0,0,.07l1,.74a.06.06,0,0,0,.08,0l.59-.8s0-.07,0-.08l-1-.74A.06.06,0,0,0,25.49,6.72Z"/><path class="cls-2" d="M18.61,6.11a4.09,4.09,0,0,0-.42,2.36,3.8,3.8,0,0,0-1.83-2c-.09,0-.27.06-.27.34s0,.57.11.68a3.76,3.76,0,0,0,.54.34c.06,0,.12,0,.14-.05s.08-.23.2-.12a3.52,3.52,0,0,1,1.13,1.59c.06.14.19.15.21-.06,0-.49,0-1.35,0-1.62s.16-1.13.65-.77c.11.08.23.19.23.19s.24.25.29.11a1.13,1.13,0,0,0,0-.77C19.59,6.27,19,5.59,18.61,6.11Z"/><path class="cls-2" d="M9,5.41a5.25,5.25,0,0,0-3.13,4c-.06.34-.38,1.91,2,1.94.28,0,1.61-.16,2,.14.13.11.08.15-.08.31a16.15,16.15,0,0,1-4,2.44c-.69.27-3.92,1.17-4.9-1.09a5.64,5.64,0,0,1,.38-4.3c.08-.19,0-.49-.22-.13S-1.12,13.09,1,15c.41.37,2.85,2.09,6.88-.65.34-.23,2.59-1.58,2.64-3.18,0-.37-.1-1.14-1.31-1.18a6.48,6.48,0,0,1-2.28-.15c-.43-.26-.89-.64-.26-1.56.33-.49,2-2.1,2.73-1.75a1.63,1.63,0,0,1,.64.51c.07.07.11.09.13,0s.4-.63.28-1A1,1,0,0,0,9,5.41Z"/><path class="cls-2" d="M25.71,3.49a.8.8,0,0,0,0,.61c.1.24.34.78.38.86a.14.14,0,0,1-.08.22.61.61,0,0,1-.87-.46,5,5,0,0,0-.18-1c-.06-.11-.11-.13-.16,0a1.83,1.83,0,0,0-.07.38.12.12,0,0,0,0,.1s.27.78.16,1-.66.57-.95.19a3,3,0,0,1-.06-1.1c0-.16-.05-.21-.11-.09a.57.57,0,0,0-.1.33c0,.12,0,.61,0,.76s0,.66.29.8.73,0,1.06-.61a.72.72,0,0,0,.84.3.89.89,0,0,0,.43-.69,1.25,1.25,0,0,0-.15-.82,2.84,2.84,0,0,1-.26-.68C25.82,3.44,25.78,3.28,25.71,3.49Z"/><path class="cls-2" d="M18.28,1.48c-.23.1-6.24,3.06-6.48,3.17s-.28.17-.32.34-.05.25-.06.28-.06.2.25,0L18,2.19c.18-.1.28-.16.35-.32a1.93,1.93,0,0,0,.12-.32C18.56,1.42,18.61,1.33,18.28,1.48Z"/><path class="cls-2" d="M4.37,1.56a4.43,4.43,0,0,0-.63,2.53A4.19,4.19,0,0,0,1.89,1.82c-.09-.06-.29.05-.31.36s-.06.62.06.74,1,.44.54,1C2,4.12.86,5.27.62,5.54s-.26.33,0,.19a3.2,3.2,0,0,0,2-2.18.76.76,0,0,0-.07-.43l.07,0A4,4,0,0,1,3.7,5c.06.15.2.17.23-.05.08-.54.13-1.47.17-1.76s.25-1.22.75-.79a3,3,0,0,1,.24.23c.11.13.24.28.3.13a1.18,1.18,0,0,0,.07-.84C5.42,1.81,4.79,1,4.37,1.56Z"/><path class="cls-2" d="M10,1.26A4.2,4.2,0,0,0,9.61,3.4c0,.23.22.68.61.67.2,0,.45-.16.6-.74,0-.13,0-.23,0-.29s0-.16-.11,0c-.12.36-.49.62-.8.17a1.78,1.78,0,0,1,0-1.45l.14-.46C10.2,1.11,10.09,1,10,1.26Z"/><path class="cls-2" d="M29.65,3l.59.54c.09.1.21,0,.16-.12L29.18.3c0-.1-.08-.17-.12-.06s-.45,1-.45,1a4.31,4.31,0,0,1,.17.72c.07.45.16,1.1.27,1.81,0,0,.23,1.75.49,3.67,0,0,.66,5.06.54,5.26a1.31,1.31,0,0,1-1.91-.48l.14-.38c.07-.15,0-.4-.17-.13s-.71,1.39-1.41,1.64a.7.7,0,0,1-.93-.7l.15-.39c0-.12,0-.41-.2-.15s-.89,1.43-2.05,1.51a1.24,1.24,0,0,1-1.49-1.39c0-.21.31-1-.13-.72s-1.88,1.09-2.44,1.37a3.42,3.42,0,0,0-.49-.85c-.67-.78-1.41-1.2-2.23-.3s-.86,1.78-.39,2.22a3.15,3.15,0,0,0,2.42.33c.17,0,.69,0,.43.33s-2.5,2.92-4.89,3a1.78,1.78,0,0,1-1.73-2.47v0A6.67,6.67,0,0,0,15,12.84a2.58,2.58,0,0,0,.11-2.23,18.48,18.48,0,0,0-1-1.78v0l.59.06c.06,0,.16-.06,0-.21s-1.29-1.31-1.36-1.4-.13-.16-.17,0-.14.73-.16.85a.44.44,0,0,0,0,.34c.06.11.22.47.33.76s1.25,2.49,1.36,2.69,0,.28-.15.41c-3.75,3.7-10.84,5.85-11.06,6s-.17.23.21.17a31,31,0,0,0,4.66-1.07,32.14,32.14,0,0,0,4-2c-.22,1.08-.3,2.56.77,3.2.26.15,2.24,1.12,5.7-2.21a3.6,3.6,0,0,0,1-1.9,3.42,3.42,0,0,0,0-.52c.69-.34,1.81-1,1.85-1s0,2.35,2,1.88a2.81,2.81,0,0,0,1.57-1c0,.54,1.34,1.69,2.39-.33a1.93,1.93,0,0,0,1.84.68c.26-.06,1.14-.26,1.15-2.35C30.69,11.35,29.65,3,29.65,3Zm-12,10.18c-.77-.13-.65-.42-.24-.65s.94-.09,1.38.66A3,3,0,0,1,17.61,13.16Z"/><path class="cls-2" d="M32.25.25c0,.12-.34.91-.34.91.08.52.76,6.1.81,6.48s1,6.69,1.06,8.43c0,.18.06.25.15.08s.64-1.34,0-5.61L32.84,3s.6.56.69.66.22,0,.16-.11S32.41.41,32.37.31,32.3.13,32.25.25Z"/><path class="cls-2" d="M25.1,1.8a2,2,0,0,0,0-1.54C25,.12,24.6-.33,24,.41c-.23.29-.47,1-.2,1.25a4,4,0,0,0,.66.46,19,19,0,0,1-4.4,3.19c-.21.1-.19.21-.06.19a9.61,9.61,0,0,0,2.48-1,10.08,10.08,0,0,0,2.3-2.17,5.07,5.07,0,0,1,.34.38c.09.13.13.23.2.1A.73.73,0,0,0,25.1,1.8Zm-.28-.23-.53-.31c-.16-.1-.24-.22-.15-.32.31-.34.44-.31.53-.24A1,1,0,0,1,24.82,1.57Z"/></g></g></g></svg>