<svg xmlns="http://www.w3.org/2000/svg" viewBox="0 0 37.26 17.41"><defs><style>.cls-1{isolation:isolate;}.cls-2{fill-rule:evenodd;mix-blend-mode:darken;}</style></defs><g class="cls-1"><g id="Layer_2" data-name="Layer 2"><g id="سور_الٌقرآن_الكريم" data-name="سور الٌقرآن الكريم"><path class="cls-2" d="M3.68,14.27A3.81,3.81,0,0,0,3.29,16c0,.19.14.57.44.58s.34-.11.48-.59c0-.11,0-.19,0-.23s0-.15-.08,0-.4.5-.61.11a1.57,1.57,0,0,1,.08-1.21c.06-.15.12-.38.12-.38C3.83,14.15,3.76,14.06,3.68,14.27Z"/><path class="cls-2" d="M25,14.18A3.88,3.88,0,0,0,24.58,16c0,.2.14.57.43.59s.35-.12.49-.59c0-.11,0-.2.05-.24s0-.14-.08,0-.4.49-.62.1a1.66,1.66,0,0,1,.09-1.21l.12-.37C25.12,14.07,25.05,14,25,14.18Z"/><path class="cls-2" d="M32,14.18A3.84,3.84,0,0,0,31.6,16c0,.2.14.57.44.59.15,0,.35-.12.49-.59,0-.11,0-.2,0-.24s0-.14-.09,0-.4.49-.61.1A1.62,1.62,0,0,1,32,14.61c.06-.15.13-.37.13-.37C32.15,14.07,32.07,14,32,14.18Z"/><path class="cls-2" d="M22.68,13.6c-.19.1-4.46,1.77-4.66,1.89s-.27.14-.31.28-.07.23-.08.26-.07.22.23,0c.09,0,4.4-1.74,4.56-1.84s.27-.12.34-.28a3,3,0,0,0,.13-.28C22.94,13.57,23,13.45,22.68,13.6Z"/><path class="cls-2" d="M15,13.66A5.29,5.29,0,0,0,14.63,16c0,.26.2.74.55.74.17,0,.4-.17.52-.8,0-.14,0-.26,0-.31s-.05-.18-.09,0c-.11.39-.43.67-.71.18a2.28,2.28,0,0,1,0-1.58c.05-.2.11-.49.11-.49C15.12,13.5,15,13.38,15,13.66Z"/><path class="cls-2" d="M4.8,8.87l-.54.74s0,.06,0,.07l.93.68a.06.06,0,0,0,.07,0L5.8,9.6a0,0,0,0,0,0-.07l-.92-.67A0,0,0,0,0,4.8,8.87Z"/><path class="cls-2" d="M2.47,6.72A5.62,5.62,0,0,0,2.15,9c0,.26.21.74.55.74.18,0,.4-.17.53-.8,0-.14,0-.26,0-.31s0-.18-.1,0c-.1.39-.43.68-.71.18a2.43,2.43,0,0,1,0-1.58c.06-.2.12-.5.12-.5C2.65,6.56,2.56,6.44,2.47,6.72Z"/><path class="cls-2" d="M20,7.57a1,1,0,0,0-1.44.36c-.54.74-.55,1.77-.09,2.09a2.46,2.46,0,0,0,1.71.21,1.1,1.1,0,0,1,.89.22c.12.13.26.32-.06.56s-3.72,2.55-5.52.19a2.49,2.49,0,0,0,1-2.12c0-.34-.39-2.71-1.71-1.81-.7.47-.73,2-.72,2.18a12.22,12.22,0,0,0,.34,1.3,3.72,3.72,0,0,1-1.34.7,3.4,3.4,0,0,0-.53-.74c-.71-.7-1.28-1.05-2-.24s-.63,2.18.29,2.43a3.89,3.89,0,0,0,1.67-.17c.15-.05.65,0,.42.41s-2.23,2.93-4.59,3.12c-.31,0-2.76-.14-2-3.25A14.44,14.44,0,0,0,8,11.92,3,3,0,0,0,9.24,9.71a2.73,2.73,0,0,0-.4-1.79L8.3,6.76l.42.14c.08,0,.2-.05.08-.21s-.93-1.06-1-1.12a2.07,2.07,0,0,1-.08-.2c0-.08-.08-.06-.12,0s-.2.76-.21.82a5.29,5.29,0,0,0,.29,1,21.88,21.88,0,0,0,1,2.09c.1.19.26.55.13.75a9.66,9.66,0,0,1-4.59,2.84c-.44.14-2.27.6-3.32-.77-.17-.23-1-1.36-.23-3.57.08-.18,0-.37-.21,0S-1.15,13.1,2.09,14c.57.16,1.85.41,4-.78-.16.68-.53,3.22,1,4,.27.14,2.19,1.05,5.57-2.49a3.73,3.73,0,0,0,.77-1.77,4.1,4.1,0,0,0,0-.53c.41-.17,1.42-.67,1.45-.69a3.24,3.24,0,0,0,3,1.56c.41,0,3.52-.38,3.79-2.34C21.67,10.66,22.08,9.12,20,7.57ZM20,9.2c-.21,0-.92.08-1.15-.2s.19-.51.52-.47a1.34,1.34,0,0,1,1.13.69C20.33,9.13,20.17,9.16,20,9.2ZM11.2,11.87c-.77-.13-.48-.5-.35-.62a1,1,0,0,1,1.43.55A1.57,1.57,0,0,1,11.2,11.87ZM15,10.39s-.3-.65-.44-1A.79.79,0,0,1,15,8.3c.54-.36,1.08.74,1.13.89a.36.36,0,0,1-.12.39A10.73,10.73,0,0,1,15,10.39Z"/><path class="cls-2" d="M19.14,4.66l-.54.74a.06.06,0,0,0,0,.07l.93.67a0,0,0,0,0,.07,0l.54-.74a0,0,0,0,0,0-.07l-.92-.68A.06.06,0,0,0,19.14,4.66Z"/><path class="cls-2" d="M15.25,4.55l-.46.64-.9-.65a0,0,0,0,0-.07,0l-.54.74a.05.05,0,0,0,0,.08l.92.67a0,0,0,0,0,.07,0l.47-.64.9.65a0,0,0,0,0,.07,0l.54-.75a0,0,0,0,0,0-.07l-.92-.67A.06.06,0,0,0,15.25,4.55Z"/><path class="cls-2" d="M1.57.19A5.94,5.94,0,0,0,1,3c0,.31.22.91.69.93.24,0,.55-.18.77-.93,0-.17.06-.31.08-.38s0-.22-.13,0c-.18.47-.64.79-1,.17A2.67,2.67,0,0,1,1.53.87L1.72.28C1.82,0,1.7-.14,1.57.19Z"/><path class="cls-2" d="M9.19,1.09c-.27.13-7.75,4.12-8,4.27s-.36.2-.4.4a3.58,3.58,0,0,1-.09.35c0,.13-.1.27.31.06C1.1,6.1,8.65,2.1,8.87,2l.22-.14a4.38,4.38,0,0,0-.41,2c0,.24.17.69.52.7.18,0,.42-.13.58-.7,0-.13.05-.23.06-.28s0-.17-.1,0c-.13.35-.48.6-.73.13a1.9,1.9,0,0,1,.1-1.45c.06-.18.32-.9.37-1S9.6.89,9.19,1.09Z"/><path class="cls-2" d="M14.24,2.24A1.73,1.73,0,0,0,14.1.9c-.06-.11-.46-.48-.93.21-.18.27-.34.91-.08,1.11a3.27,3.27,0,0,0,.61.35A17,17,0,0,1,10.09,5.7c-.19.09-.16.19-.05.16a8.1,8.1,0,0,0,2.1-1.11A8.58,8.58,0,0,0,14,2.69s.29.25.33.3.13.2.18.08A.66.66,0,0,0,14.24,2.24ZM14,2.07l-.49-.24c-.15-.07-.23-.17-.15-.27.25-.32.35-.3.44-.24A.88.88,0,0,1,14,2.07Z"/><path class="cls-2" d="M19.4.59A4.27,4.27,0,0,0,19.08,3,3.82,3.82,0,0,0,17.32,1c-.09,0-.24.07-.23.35s0,.58.11.68a3.35,3.35,0,0,0,.52.32c.05,0,.11,0,.12,0s.07-.24.18-.13a3.44,3.44,0,0,1,1.1,1.57c.06.13.19.14.2-.07,0-.49,0-1.35,0-1.61s.11-1.13.57-.78l.22.18c.1.12.23.25.27.1a1.19,1.19,0,0,0,0-.77C20.31.73,19.71.06,19.4.59Z"/><path class="cls-2" d="M27.36,8.1l-.54.75a0,0,0,0,0,0,.07l.92.67a.06.06,0,0,0,.08,0l.54-.74a.08.08,0,0,0,0-.08l-.93-.67A0,0,0,0,0,27.36,8.1Z"/><path class="cls-2" d="M25.19,6.66A5.42,5.42,0,0,0,24.85,9c0,.25.22.74.57.73.19,0,.42-.17.55-.8,0-.14,0-.25,0-.31s-.05-.18-.1,0c-.11.38-.44.67-.73.17a2.18,2.18,0,0,1,0-1.57c.06-.2.12-.5.12-.5C25.37,6.5,25.28,6.39,25.19,6.66Z"/><path class="cls-2" d="M30.39,5.35a.8.8,0,0,1,.22.65l-.44-.18C30,5.77,30,5.68,30,5.6,30.21,5.3,30.31,5.3,30.39,5.35Z"/><path class="cls-2" d="M29.84,5.2c-.15.25-.24.83,0,1a3.89,3.89,0,0,0,.64.32c-.17.56-1.13,1.29-1.61,1.62-.25.17-.3.28.1.15a2.94,2.94,0,0,0,1.73-1.68A1.83,1.83,0,0,1,31,6.8c.09.09.13.16.16.06a.56.56,0,0,0-.26-.72A1.55,1.55,0,0,0,30.65,5C30.59,4.87,30.23,4.57,29.84,5.2Z"/><path class="cls-2" d="M30.31,1.46l-5.68,3c-.23.13-.3.18-.33.35l-.07.29c0,.11-.07.23.26,0,.1-.06,5.4-2.83,5.58-2.95s.29-.16.36-.33.09-.21.13-.33S30.65,1.28,30.31,1.46Z"/><path class="cls-2" d="M35.88,11.71a1.12,1.12,0,0,0-.81-.81,1.9,1.9,0,0,0-1,0,3.4,3.4,0,0,0-.49.22A11.7,11.7,0,0,1,33,8.93c-.07-.53-1-6.27-1-6.27l.64.61c.09.09.2,0,.15-.11S31.63.3,31.6.21s-.07-.16-.11-.06l-.42.9a4.91,4.91,0,0,1,.16.67c.05.36.13.87.21,1.44,0,0,1.05,6.66,1.19,7.34,0,.24.11.64.24,1.08a6.39,6.39,0,0,1-.74.45c-.46.2-2.93,1.39-3.45-.68,0-.19.05-.63-.26-.23a2.91,2.91,0,0,1-2.56,1.77c-.4,0-1.51-.17-2-2.22-.1-.54-.45-4-.45-4S23,1.54,22.39.26c-.09-.19-.11-.09-.19,0a1.5,1.5,0,0,0-.27,1.07A39.7,39.7,0,0,1,23,8.63c0,.6,0,4.89,2.5,5.4a2.67,2.67,0,0,0,2.7-1.59c1,2,3.1,1.05,3.61.81.27-.12.76-.49,1.32-.8a2.47,2.47,0,0,0,1.31,1.35.79.79,0,0,0,1-.3A3.1,3.1,0,0,0,35.88,11.71Zm-.7,1A1.18,1.18,0,0,1,34,12.09a1.86,1.86,0,0,1,.73-.09C35.12,12,35.53,12.6,35.18,12.67Z"/><path class="cls-2" d="M35.46.16,35.13,1c0,.05.1.41.12.54.16,1.19,1.06,7.18,1.34,9.4.14,1.1.25,2.08.26,2.61,0,.16.06.22.14.07a3.67,3.67,0,0,0,.25-1.35A17.36,17.36,0,0,0,37,9.13c0-.21-1-6.47-1-6.47s.55.52.63.61.2,0,.15-.11S35.62.3,35.58.21,35.51.05,35.46.16Z"/><path class="cls-2" d="M25.6.22A3.84,3.84,0,0,0,25.22,2c0,.19.14.57.43.58s.35-.11.49-.59l.05-.23c0-.07,0-.14-.08,0-.11.3-.4.5-.62.11A1.66,1.66,0,0,1,25.58.65L25.7.27C25.76.1,25.69,0,25.6.22Z"/></g></g></g></svg>