<svg xmlns="http://www.w3.org/2000/svg" viewBox="0 0 35.09 18.7"><defs><style>.cls-1{isolation:isolate;}.cls-2{fill-rule:evenodd;mix-blend-mode:darken;}</style></defs><g class="cls-1"><g id="Layer_2" data-name="Layer 2"><g id="سور_الٌقرآن_الكريم" data-name="سور الٌقرآن الكريم"><path class="cls-2" d="M8.6,16.57c-.22.11-3.29,1.23-3.52,1.35s-.31.16-.36.33-.07.27-.08.29-.08.25.25.06c.11-.06,3.22-1.19,3.41-1.3s.3-.15.39-.32.1-.2.15-.32S8.94,16.4,8.6,16.57Z"/><path class="cls-2" d="M29,16.26l-.62.85a.07.07,0,0,0,0,.09l1.06.77a.05.05,0,0,0,.08,0l.62-.85a.05.05,0,0,0,0-.08L29,16.25A.06.06,0,0,0,29,16.26Z"/><path class="cls-2" d="M15.37,15.22A5.84,5.84,0,0,0,15,17.8c0,.28.24.82.62.81.2,0,.45-.18.6-.88,0-.16,0-.29,0-.35s-.05-.2-.1,0c-.13.43-.49.74-.81.19a2.58,2.58,0,0,1,0-1.75c.06-.22.13-.55.13-.55C15.56,15,15.46,14.91,15.37,15.22Z"/><path class="cls-2" d="M1,8.08a5.15,5.15,0,0,0-.41,2.5c0,.28.25.8.67.79.21,0,.48-.19.65-.87,0-.15,0-.27,0-.33s-.06-.2-.12,0c-.13.42-.53.73-.87.2a2.23,2.23,0,0,1,0-1.7c.06-.21.14-.53.14-.53C1.17,7.9,1.07,7.78,1,8.08Z"/><path class="cls-2" d="M4.54,7.73l-.62.85a.06.06,0,0,0,0,.08L5,9.43a.06.06,0,0,0,.08,0l.54-.73,1,.75a.05.05,0,0,0,.08,0l.62-.85a.05.05,0,0,0,0-.08L6.27,7.71a.07.07,0,0,0-.09,0l-.53.73-1-.75A.06.06,0,0,0,4.54,7.73Z"/><path class="cls-2" d="M14.81,5.54A6,6,0,0,0,14.37,8c0,.27.16.79.49.81.18,0,.4-.15.56-.81,0-.15.05-.27.06-.33s0-.2-.09,0c-.13.4-.46.68-.71.14a2.65,2.65,0,0,1,.1-1.67c.06-.2.14-.52.14-.52C15,5.38,14.91,5.25,14.81,5.54Z"/><path class="cls-2" d="M26.25,6.63A2.16,2.16,0,0,0,26.2,5c-.07-.14-.52-.64-1.18.18-.25.32-.5,1.11-.2,1.37a4.25,4.25,0,0,0,.73.49A14.44,14.44,0,0,1,21.5,9.94c-.24.11-.2.23-.07.21A10.71,10.71,0,0,0,24.13,9a4.93,4.93,0,0,0,1.77-1.8s.33.34.38.41.14.25.21.12A.82.82,0,0,0,26.25,6.63Zm-.31-.24-.58-.34c-.18-.1-.27-.23-.17-.34.33-.38.47-.35.58-.27A1.13,1.13,0,0,1,25.94,6.39Z"/><path class="cls-2" d="M22.24,5.28a2.19,2.19,0,0,0,.11-1.68c-.06-.16-.45-.69-1.19.06-.28.29-.6,1-.34,1.34a4,4,0,0,0,.68.56A13.06,13.06,0,0,1,17,8.62c-.24.08-.22.21-.08.2a8.86,8.86,0,0,0,2.92-1.1,5.84,5.84,0,0,0,2-1.95s.3.37.33.44.13.27.21.14A.81.81,0,0,0,22.24,5.28ZM22,5l-.55-.39c-.17-.12-.24-.26-.13-.36.37-.34.51-.3.6-.21A1.08,1.08,0,0,1,22,5Z"/><path class="cls-2" d="M3.05,1a5,5,0,0,0-.68,2.79,4.63,4.63,0,0,0-2-2.51c-.1-.06-.32.06-.34.4s-.07.68.07.82A3.87,3.87,0,0,0,.71,3c.07,0,.14,0,.16,0s.11-.27.25-.13A3.89,3.89,0,0,1,2.23,4.51C2.43,5.33.42,7,.32,7.05s-.13.23,0,.18a11.17,11.17,0,0,0,1.2-.74A2.25,2.25,0,0,0,2.56,4.82s0-.05,0-.09c.09-.59.13-1.62.18-1.93s.27-1.35.82-.88l.26.25c.11.15.26.32.33.15a1.29,1.29,0,0,0,.07-.92C4.19,1.29,3.51.42,3.05,1Z"/><path class="cls-2" d="M12.8.88A3.66,3.66,0,0,0,12.27,3,3.58,3.58,0,0,0,10.7,1.09c-.08,0-.25,0-.27.31s0,.52.06.63a3.72,3.72,0,0,0,.48.34s.11,0,.13,0,.09-.21.19-.11a3.29,3.29,0,0,1,.94,1.55c0,.13.17.14.2,0,.07-.45.11-1.25.14-1.49s.22-1,.64-.67a2.05,2.05,0,0,1,.2.19c.09.12.21.25.26.11a.91.91,0,0,0,.06-.7C13.69,1.09,13.16.41,12.8.88Z"/><path class="cls-2" d="M22,.72,9.53,6.35c-.3.14-.39.2-.44.41A3.64,3.64,0,0,1,9,7.12c-.05.14-.11.29.32.08.14-.07,12.06-5.43,12.3-5.57s.37-.18.48-.39.13-.25.19-.4S22.41.53,22,.72Z"/><path class="cls-2" d="M7.22.75A9.25,9.25,0,0,0,6.3,4.59c0,.43.21,1.27.77,1.32.29,0,.67-.21,1-1.24,0-.24.09-.43.12-.52s0-.31-.16,0c-.24.63-.81,1-1.19.17a4.11,4.11,0,0,1,.3-2.64L7.4.88C7.53.51,7.4.3,7.22.75Z"/><path class="cls-2" d="M24.57.26a6.33,6.33,0,0,0-.44,2.44c0,.27.16.79.5.81.17,0,.4-.16.56-.82,0-.15,0-.26,0-.32s0-.2-.09,0c-.13.4-.46.68-.7.14A2.7,2.7,0,0,1,24.54.85c.07-.21.14-.52.14-.52C24.75.1,24.67,0,24.57.26Z"/><path class="cls-2" d="M32.69,12.43q-.06-.81-.21-1.89c0-.24-.91-7.66-.91-7.66l.73.68c.1.11.22,0,.16-.11S31.12.23,31.08.12,31-.06,31,.06l-.38,1c0,.06.11.46.13.62.13.94.86,6.84,1.28,10.68a13.87,13.87,0,0,1-3.49-.71,3.39,3.39,0,0,0,.34-2.51C28.75,8.41,28,2.78,28,2.78l.65.62c.1.11.22.05.16-.12S27.6.23,27.56.12s-.09-.18-.14-.06-.46,1-.46,1a4.54,4.54,0,0,1,.17.74c.07.45.17,1.08.27,1.79,0,0,.76,6.62.76,6.9s0,.43-.07.44c-.6.22-3.15.2-3.5.46a2.34,2.34,0,0,0-.55,1c0,.08,0,.22.18.16,1.3-.44,5.59.76,5.59.76-.28.17-4.2,2.36-6.63.49a3.23,3.23,0,0,1-.81-1.27c-.07-.23-.13-.25-.23-.12A7.44,7.44,0,0,1,21,13.77a3.12,3.12,0,0,1-4.13-.14l-.18-.2,2.2-1.2c.1-.29.25-1.06.25-1.06A8.07,8.07,0,0,0,12.34,11a.91.91,0,0,0-.45.53c-.1.28-.24.7-.3.86s.06.16.16.08a1.76,1.76,0,0,1,1.59-.27,9,9,0,0,1,1.56,1.07,14,14,0,0,1-3.05,1.32c-.4.1-2.71.69-3.95-1-.19-.25-.87-1.5-1-1.7s-.57-.82-1.54,0A7.36,7.36,0,0,0,3.67,15c-.15.5-.78,2.38-1.86,1.54C1.4,16.23.65,15.6.4,13c0-.33-.16-.45-.23,0s-.23,4.28,2,5c.22.07,1.13.14,1.56-1.37.12-.39.69-2.85,1.81-3.52.37-.23.76-.49.92-.18s1.26,4.47,6.06,2.69A26.72,26.72,0,0,0,15.66,14c.41.4.71.73.88.87a3.05,3.05,0,0,0,3.58.67,5.06,5.06,0,0,0,1.52-1.12s-.31,2.34,1.34,2.77c.17.05.54.22.87-1.55a8,8,0,0,0,5-.72,8.69,8.69,0,0,1,3.26-1.19c.1.92.16,1.6.16,1.86s.06.25.15.07a3.74,3.74,0,0,0,.3-1.51c0-.14,0-.3,0-.48a7.43,7.43,0,0,1,1.78.14c.15-.21.57-1.1.57-1.1C34.9,12.66,33.88,12.57,32.69,12.43Zm-16.76.26c-.34-.34-.73-.71-1.11-1a11.22,11.22,0,0,1,2.53.19C17.15,12,16.63,12.29,15.93,12.69Z"/></g></g></g></svg>