<svg xmlns="http://www.w3.org/2000/svg" viewBox="0 0 31.07 21.94"><defs><style>.cls-1{isolation:isolate;}.cls-2{fill-rule:evenodd;mix-blend-mode:darken;}</style></defs><g class="cls-1"><g id="Layer_2" data-name="Layer 2"><g id="سور_الٌقرآن_الكريم" data-name="سور الٌقرآن الكريم"><path class="cls-2" d="M9.08,19.71,5.58,21c-.27.11-.35.18-.4.36a2.59,2.59,0,0,1-.09.33c0,.12-.11.22.28.06.2-.08,3.11-1.08,3.38-1.2a.73.73,0,0,0,.43-.35c.09-.19.11-.22.17-.36S9.47,19.59,9.08,19.71Z"/><path class="cls-2" d="M21.18,17.49a4.78,4.78,0,0,0-.49,2.23c0,.25.18.72.55.74.19,0,.44-.14.61-.74a2.81,2.81,0,0,1,.07-.3c0-.08,0-.18-.11,0-.14.36-.5.62-.77.13A2,2,0,0,1,21.15,18l.15-.47C21.38,17.35,21.29,17.23,21.18,17.49Z"/><path class="cls-2" d="M27.17,16.27a4.89,4.89,0,0,0-.48,2.22c0,.25.18.73.55.74.19,0,.43-.14.61-.74,0-.13,0-.24.06-.3s0-.18-.1,0c-.14.37-.51.63-.78.13a2.05,2.05,0,0,1,.11-1.52c.07-.19.16-.47.16-.47C27.37,16.12,27.28,16,27.17,16.27Z"/><path class="cls-2" d="M19.57,10.58l-.68.94a.06.06,0,0,0,0,.09l1.16.85a.07.07,0,0,0,.09,0l.69-.93a.07.07,0,0,0,0-.09l-1.17-.85A.06.06,0,0,0,19.57,10.58Z"/><path class="cls-2" d="M21.66,5.59a1,1,0,0,0,0,.77c.11.3.42,1,.47,1.08s.07.21-.1.28a.77.77,0,0,1-1.1-.59,7.61,7.61,0,0,0-.22-1.21c-.08-.14-.15-.16-.2,0a2.57,2.57,0,0,0-.1.48.15.15,0,0,0,0,.13s.34,1,.2,1.23-.84.72-1.2.24a3.75,3.75,0,0,1-.07-1.39c0-.2-.06-.27-.15-.1a.74.74,0,0,0-.12.41c0,.14,0,.76,0,1s0,.83.37,1,.92,0,1.33-.77a.92.92,0,0,0,1.07.37,1.12,1.12,0,0,0,.54-.87,1.48,1.48,0,0,0-.2-1,3.63,3.63,0,0,1-.31-.86C21.8,5.52,21.75,5.32,21.66,5.59Z"/><path class="cls-2" d="M16.09,3.25c-.23.14-8.86,4.44-9.52,5a2.09,2.09,0,0,0-.7,1.16c-.14.66,0,1.32.46,1.39a.88.88,0,0,1,.56.33s.08,0,.09,0a.8.8,0,0,0-.55-1.27c-.23-.07-.34-.39.52-1s8.66-4.49,8.83-4.61.39-.23.48-.47a3.64,3.64,0,0,0,.16-.44C16.47,3.16,16.53,3,16.09,3.25Z"/><path class="cls-2" d="M5.09,1A5.13,5.13,0,0,0,4.36,4,4.88,4.88,0,0,0,2.23,1.32c-.12-.06-.35.06-.37.42,0,.21-.07.72.08.86s1.19.51.62,1.11C2.3,4,1,5.31.75,5.63s-.3.38,0,.22A3.69,3.69,0,0,0,3,3.33.9.9,0,0,0,3,2.83a.25.25,0,0,1,.08,0A4.46,4.46,0,0,1,4.31,5c.07.18.24.19.27-.06.1-.62.15-1.7.19-2s.3-1.41.88-.91c.13.11.27.26.27.26s.28.33.36.15a1.43,1.43,0,0,0,.08-1C6.3,1.31,5.58.4,5.09,1Z"/><path class="cls-2" d="M10.68.83a4.74,4.74,0,0,0-.49,2.23c0,.24.18.72.55.73.19,0,.44-.13.61-.74,0-.13.05-.24.06-.29s0-.18-.1,0c-.14.37-.5.63-.78.14a2.15,2.15,0,0,1,.11-1.53c.07-.19.16-.47.16-.47C10.87.68,10.78.57,10.68.83Z"/><path class="cls-2" d="M21.54,2.26A2.41,2.41,0,0,0,21.46.41c-.08-.16-.58-.7-1.29.21-.28.35-.54,1.22-.22,1.5a4.72,4.72,0,0,0,.82.54,22.7,22.7,0,0,1-5.22,4c-.25.12-.22.26-.07.23a11.58,11.58,0,0,0,3-1.33,12.24,12.24,0,0,0,2.7-2.67s.38.37.42.44.17.28.24.13A.89.89,0,0,0,21.54,2.26ZM21.19,2l-.64-.37c-.2-.11-.3-.25-.19-.37.36-.43.51-.4.63-.31A1.24,1.24,0,0,1,21.19,2Z"/><path class="cls-2" d="M28.79.17l-.48,1.17c0,.07.12.52.15.69.19,1.5,1.42,10.36,1.77,13.16.18,1.38.31,2.62.33,3.29,0,.2.08.28.17.08a4.39,4.39,0,0,0,.33-1.69,22.36,22.36,0,0,0-.27-4c0-.26-1.31-9.52-1.31-9.52s.69.65.8.77.24.05.18-.14S29,.36,28.94.24,28.85,0,28.79.17Z"/><path class="cls-2" d="M26.51,11.82C26.46,11.13,25.27,3,25.27,3s.68.61.79.73.24.06.18-.13S24.75.26,24.71.14s-.1-.21-.15-.07L24.05,1.2a6.33,6.33,0,0,1,.3,1.05c.08.52.24,1.28.36,2.1,0,0,1.12,8,1.1,8.39s.21.81-.53,1.21c-1.61.86-5.46,1.7-7.27,2.82a38.16,38.16,0,0,0-4,3.36c-.71.6-3.28,1.31-3.12-1a12,12,0,0,1,2.22-4.84l.75-.26c.14.2.26.37.3.44s.16.16.19,0a2.23,2.23,0,0,0,0-.64l.69-.23c.68-.22,1.73-.69,1.73-.69s.48-1.3.36-1.42-1.44-1.43-1.65-1.61S14.33,9,13.65,9.35a2.43,2.43,0,0,0-1.09,2.17A5,5,0,0,0,13.12,13l-.51.16A20.6,20.6,0,0,0,9,14.48a13.3,13.3,0,0,0-3.39,3C5.27,17.92,3.39,20,2,20c-.37,0-1.91.16-1.34-2.82a16.4,16.4,0,0,1,.76-2A.64.64,0,0,0,1.43,15l.18,0c.34,0,.77-.3,1.05-1.54,0-.28.08-.5.1-.61s-.09-.36-.19,0c-.23.76-.86,1.3-1.37.31a4.86,4.86,0,0,1,.12-3.13c.11-.39.25-1,.25-1,.12-.44-.05-.68-.23-.14a11.36,11.36,0,0,0-.75,4.58,2.25,2.25,0,0,0,.54,1.28,1.39,1.39,0,0,0-.18.27c-.31.62-2,4.1.09,5.68C1.39,21,3.2,22,5.47,19.28,5.79,18.9,8.06,16,11.06,15l1.39-.49c-.69,1.06-3.59,5.65-.95,7.09.61.33,2.18.78,3.88-1.12a13.61,13.61,0,0,1,4.7-3.38c1-.42,3.88-.91,5.25-1.79C25.75,15.07,26.66,14.05,26.51,11.82Zm-12.8-.94a1.71,1.71,0,0,1,1.24.43c.5.42.87.68.78.73a12,12,0,0,1-1.68.62l0,0c-.32-.54-.64-1.07-.73-1.25S13.3,10.9,13.71,10.88Z"/></g></g></g></svg>