<svg xmlns="http://www.w3.org/2000/svg" viewBox="0 0 32.74 21.88"><defs><style>.cls-1{isolation:isolate;}.cls-2{fill-rule:evenodd;mix-blend-mode:darken;}</style></defs><g class="cls-1"><g id="Layer_2" data-name="Layer 2"><g id="سور_الٌقرآن_الكريم" data-name="سور الٌقرآن الكريم"><path class="cls-2" d="M9.27,19.56C9,19.67,5.9,21,5.67,21.09s-.32.16-.37.34-.07.27-.08.3-.09.25.26.06c.1-.06,3.29-1.37,3.48-1.48s.31-.15.4-.33a2.39,2.39,0,0,0,.16-.33C9.57,19.52,9.62,19.38,9.27,19.56Z"/><path class="cls-2" d="M14.81,19.68l-.19.21c0,.05,0,.16.09,0s.7-.26.68.27c0,.1-.08.54-.83,1.16l-.35.3c-.16.14-.15.27.07.12a4.56,4.56,0,0,0,1.46-1.54c.11-.2.21-.67-.08-.85S15.25,19.28,14.81,19.68Z"/><path class="cls-2" d="M24.37,18.77l-.64.87a.05.05,0,0,0,0,.08l1.09.79a.05.05,0,0,0,.08,0l.64-.87a.07.07,0,0,0,0-.09l-1.08-.79A.05.05,0,0,0,24.37,18.77Z"/><path class="cls-2" d="M30.07,18.26l-.19.21c-.06.05-.06.16.08,0s.71-.26.68.27c0,.1-.08.55-.82,1.16l-.35.3c-.17.14-.15.27.06.12A4.56,4.56,0,0,0,31,18.82c.1-.2.21-.66-.08-.85S30.5,17.87,30.07,18.26Z"/><path class="cls-2" d="M4.83,10.85a5.94,5.94,0,0,0-.43,2.73c0,.29.27.86.71.85.23,0,.52-.19.69-.94,0-.16,0-.29,0-.36s-.06-.21-.12,0c-.14.45-.56.79-.92.21a2.56,2.56,0,0,1,0-1.86c.07-.23.16-.58.16-.58C5.06,10.66,5,10.52,4.83,10.85Z"/><path class="cls-2" d="M10.57,7.71a4.78,4.78,0,0,0-.42,2.38c0,.26.25.75.67.74.22,0,.5-.18.67-.82,0-.15,0-.26,0-.32s-.06-.18-.12,0c-.14.39-.54.69-.88.19-.06-.1-.3-.56,0-1.61.07-.21.15-.51.15-.51C10.79,7.55,10.68,7.43,10.57,7.71Z"/><path class="cls-2" d="M20.2,11.47a5.42,5.42,0,0,0-.5,2.74c0,.29.29.86.78.85.26,0,.58-.2.77-.94,0-.17.05-.3.06-.37s-.06-.21-.13,0c-.17.45-.63.79-1,.22a2.34,2.34,0,0,1,0-1.86c.08-.24.18-.58.18-.58C20.45,11.28,20.32,11.15,20.2,11.47Z"/><path class="cls-2" d="M26,10.3a4.48,4.48,0,0,0-.46,2.07c0,.23.17.68.52.69.17,0,.4-.13.57-.69,0-.13,0-.23.06-.28s0-.16-.1,0c-.13.34-.47.58-.72.12A1.83,1.83,0,0,1,26,10.8c.06-.17.14-.44.14-.44C26.2,10.16,26.12,10.05,26,10.3Z"/><path class="cls-2" d="M26.11,6.55,16.05,11.21c-.27.12-.36.18-.41.37s-.08.3-.09.34-.11.27.29.07c.13-.06,9.71-4.47,9.93-4.6s.35-.16.45-.36.12-.24.17-.38S26.52,6.37,26.11,6.55Z"/><path class="cls-2" d="M4.3,2.7a4.39,4.39,0,0,0-.43,2.55,4.18,4.18,0,0,0-2-2.11c-.1,0-.29.07-.29.38s0,.62.13.73a3.46,3.46,0,0,0,.59.36c.06,0,.13,0,.14-.05s.09-.25.22-.14A3.89,3.89,0,0,1,3.9,6.13c.07.15.21.15.22-.06,0-.54,0-1.47,0-1.75s.16-1.23.69-.85c.12.09.25.21.25.21s.26.26.32.11a1.21,1.21,0,0,0,0-.84C5.36,2.87,4.68,2.13,4.3,2.7Z"/><path class="cls-2" d="M18.8,2.7a4.47,4.47,0,0,0-.43,2.55,4.14,4.14,0,0,0-2-2.11c-.1,0-.28.07-.28.38s0,.62.12.73a4.47,4.47,0,0,0,.59.36c.07,0,.14,0,.15-.05s.08-.25.21-.14A3.89,3.89,0,0,1,18.4,6.13c.07.15.22.15.23-.06,0-.54,0-1.47,0-1.75s.15-1.23.69-.85c.12.09.25.21.25.21s.26.26.31.11a1.21,1.21,0,0,0,0-.84C19.86,2.87,19.18,2.13,18.8,2.7Z"/><path class="cls-2" d="M23.07,2.24a4.68,4.68,0,0,0-.43,2.37c0,.26.25.75.68.74.22,0,.5-.18.66-.82,0-.15.05-.26.06-.32s-.06-.18-.12,0c-.14.39-.55.69-.89.19-.06-.1-.29-.56,0-1.61l.15-.51C23.29,2.07,23.18,2,23.07,2.24Z"/><path class="cls-2" d="M27.57,1.77c-.05.13-.48,1.06-.48,1.06a5.46,5.46,0,0,1,.18.77c.07.49,1.95,11.29,2,11.64s.17.85,0,1a2.49,2.49,0,0,1-2.35.52,1.5,1.5,0,0,1-.81-1.11,3.21,3.21,0,0,1,0-.89c0-.18,0-.27-.18-.15s-4.1,2.94-7,3c-.53,0-3.85.38-4.48-3.22-.11-.66-1.61-10.74-1.72-11.14s-.17-.5-.26-.28a3.2,3.2,0,0,0-.39,1.43c.07.48,1.22,8.12,1.31,8.85S14,16.6,13.67,17a2.7,2.7,0,0,1-2.83.65,2.41,2.41,0,0,1-1.57-1.82C9,15,8.86,13.07,8.55,12,7.73,9.21,5.87,6.34,5.78,7c0,.17-.06,1.2-.06,1.2.13.29,2.16,3.86,2.56,6.32a1,1,0,0,1-.25.84c-.32.41-2.89,3-4.8,3.64-.42.14-1.87.79-2.48-.52-.09-.17-.62-1.1.58-4.31a.86.86,0,0,0,.06-.23.61.61,0,0,0,.3.08c.32,0,.71-.31.94-1.47,0-.26.06-.47.07-.57s-.09-.34-.17,0c-.19.72-.76,1.24-1.27.33a4.54,4.54,0,0,1,0-2.91c.09-.37.2-.92.2-.92.1-.41-.06-.63-.21-.12a10.34,10.34,0,0,0-.56,4.29,2,2,0,0,0,.47,1.1l-.06.11c-.32.64-2.54,6.12.33,6.64.59.11,3,.14,6.11-3.26a3.12,3.12,0,0,0,.94-1.82s.14,2.68,2.23,3.49a2.81,2.81,0,0,0,3-.63,2,2,0,0,0,.55-1.49s1.14,2.71,5.23,2.11a13.3,13.3,0,0,0,5.93-2.69c.29.75.68,2.59,3,1.77A2.45,2.45,0,0,0,30,15.63c0-.54-.31-2.58-.43-3.29s-1.36-7.63-1.36-7.63.57.49.67.6.23.05.17-.12-1.3-3.25-1.34-3.36S27.62,1.64,27.57,1.77Z"/><path class="cls-2" d="M30.61,1.77l-.44,1.09c0,.06.11.48.13.64.19,1.4,1.33,9.65,1.66,12.26.16,1.29.29,2.44.3,3.06,0,.19.07.27.16.08a4.09,4.09,0,0,0,.3-1.58,20.44,20.44,0,0,0-.24-3.74c0-.25-1.23-8.87-1.23-8.87s.65.61.75.72.23.05.17-.13-1.38-3.36-1.42-3.47S30.67,1.64,30.61,1.77Z"/><path class="cls-2" d="M15.68.12c-.21.12-6.36,2.73-6.94,3.19a1.89,1.89,0,0,0-.62,1c-.12.59,0,1.17.41,1.23A.79.79,0,0,1,9,5.83s.07,0,.09,0A.71.71,0,0,0,8.61,4.7c-.2-.06-.29-.34.46-.82S15.25,1.11,15.41,1s.33-.2.41-.41L16,.2C16,.05,16.06-.12,15.68.12Z"/></g></g></g></svg>