<svg xmlns="http://www.w3.org/2000/svg" viewBox="0 0 38.26 16.1"><defs><style>.cls-1{isolation:isolate;}.cls-2{fill-rule:evenodd;mix-blend-mode:darken;}</style></defs><g class="cls-1"><g id="Layer_2" data-name="Layer 2"><g id="سور_الٌقرآن_الكريم" data-name="سور الٌقرآن الكريم"><path class="cls-2" d="M13.74,14.15l-.44.61-.85-.62a0,0,0,0,0-.07,0l-.51.7a0,0,0,0,0,0,.07l.87.64a.06.06,0,0,0,.07,0l.44-.61.85.62a.06.06,0,0,0,.07,0l.51-.71a0,0,0,0,0,0-.06l-.87-.64A0,0,0,0,0,13.74,14.15Z"/><path class="cls-2" d="M23.85,13.92c-.19.09-2.51,1-2.7,1.1s-.26.14-.3.28l-.07.24c0,.09-.07.2.21.05.09-.05,2.45-1,2.61-1.07s.25-.12.32-.26.09-.17.13-.27S24.13,13.77,23.85,13.92Z"/><path class="cls-2" d="M8.69,13.68c-.19.09-4.23,1.68-4.42,1.78s-.25.13-.29.27L3.91,16c0,.09-.07.2.21,0,.09,0,4.17-1.65,4.32-1.73s.25-.13.32-.27.09-.16.13-.26S9,13.54,8.69,13.68Z"/><path class="cls-2" d="M5.74,8.32l-.45.61-.85-.62s-.05,0-.06,0L3.86,9s0,.05,0,.06l.88.64a0,0,0,0,0,.06,0l.45-.61.85.62a0,0,0,0,0,.06,0L6.69,9s0-.06,0-.07L5.8,8.31S5.75,8.3,5.74,8.32Z"/><path class="cls-2" d="M14.54,6.74a3.34,3.34,0,0,0-.31,1.93,3.1,3.1,0,0,0-1.52-1.58c-.08,0-.22,0-.21.28s0,.47.09.56a4.05,4.05,0,0,0,.45.26c.05,0,.1,0,.11,0s.06-.19.16-.1a2.84,2.84,0,0,1,.95,1.28c.05.11.16.11.17-.05,0-.41,0-1.11,0-1.32s.11-.93.51-.64a2,2,0,0,1,.19.15c.09.09.2.2.24.08a.91.91,0,0,0,0-.63C15.34,6.86,14.82,6.31,14.54,6.74Z"/><path class="cls-2" d="M.77,5.29A7.92,7.92,0,0,0,0,8.56c0,.35.18,1,.62,1.11-.35.67-1.07,2.32,0,3.52.11.13,1.21,1.29,5.43.05a6.07,6.07,0,0,0,3.08-1.75,2.12,2.12,0,0,0,.22-1.72,10.1,10.1,0,0,0-.71-1.23c-.1-.15-.18-.17-.22,0s-.21,1-.21,1c.16.22.89,1.16.7,1.35S7,12.49,3,12.72c-.46,0-2.56,0-2.45-1.73A5,5,0,0,1,.93,9.6a1.7,1.7,0,0,0,.56-1c.05-.2.08-.36.1-.44s0-.27-.13,0c-.2.54-.69.9-1,.16A3.54,3.54,0,0,1,.69,6.09c.1-.27.23-.69.23-.69C1,5.09.92,4.91.77,5.29Z"/><path class="cls-2" d="M3.88,4.84a4.17,4.17,0,0,0-.4,1.84c0,.2.15.6.46.61.15,0,.36-.12.5-.61a2.33,2.33,0,0,1,.06-.25c0-.07,0-.15-.09,0S4,7,3.77,6.55a1.68,1.68,0,0,1,.09-1.26L4,4.89C4.05,4.72,4,4.62,3.88,4.84Z"/><path class="cls-2" d="M20.91,3.66a5.11,5.11,0,0,0-.32,2.2c0,.24.21.7.54.7s.39-.16.52-.76c0-.13,0-.24,0-.29s-.05-.17-.1,0c-.1.37-.42.64-.69.17a2.1,2.1,0,0,1,0-1.49L21,3.73C21.08,3.51,21,3.4,20.91,3.66Z"/><path class="cls-2" d="M20.35,1.48,12.43,5.22c-.22.11-.28.17-.32.34s0,.25-.06.28-.06.2.25,0c.1-.06,7.62-3.59,7.81-3.69a.59.59,0,0,0,.35-.32,2.3,2.3,0,0,0,.12-.31C20.62,1.43,20.68,1.33,20.35,1.48Z"/><path class="cls-2" d="M8.19,1a7.86,7.86,0,0,0-.77,3.26c0,.36.18,1.08.65,1.12.25,0,.58-.18.84-1.06.05-.2.08-.36.1-.44s0-.26-.13,0c-.21.53-.69.9-1,.15a3.46,3.46,0,0,1,.24-2.25c.1-.27.23-.69.23-.69C8.45.76,8.34.59,8.19,1Z"/><path class="cls-2" d="M4.29.79a3.66,3.66,0,0,0-.44,2.08A3.35,3.35,0,0,0,2.28,1.08c-.08,0-.23,0-.24.3s0,.51.08.6a2.66,2.66,0,0,0,.47.31c.05,0,.11,0,.12,0s.08-.21.18-.11a3.17,3.17,0,0,1,1,1.44c0,.13.17.14.19,0,0-.44,0-1.21.08-1.44s.17-1,.59-.66l.2.17c.09.11.2.23.25.1a.94.94,0,0,0,0-.68C5.15,1,4.62.34,4.29.79Z"/><path class="cls-2" d="M36.54.42c0,.11-.36.89-.36.89a4.71,4.71,0,0,1,.11.51C36.44,3,37.36,9.6,37.63,11.7c.13,1,.23,2,.24,2.47,0,.15.06.21.13.06A3.22,3.22,0,0,0,38.25,13a18.26,18.26,0,0,0-.2-3c0-.2-1-7.14-1-7.14s.52.48.6.57.18,0,.14-.1S36.69.56,36.65.47,36.59.32,36.54.42Z"/><path class="cls-2" d="M10.13.51a1.52,1.52,0,0,0-.26,1,33.29,33.29,0,0,1,.66,5.68c.12,2.37,0,4.34,1,5.37.39.37,1,.93,3.5.56a4.1,4.1,0,0,0,.85-.2c0,.18-.07,1.09-.08,1.35s-.08,2,2.18,1.11a21.77,21.77,0,0,0,4.8-3c.34-.29.63-.32.28-2.09a1.64,1.64,0,0,0-.91-1c-.5-.24-2-.7-2.3-.85a3,3,0,0,1-1.08-.67l.52-.12c.07,0,.15-.12,0-.18S18,7.05,17.88,7s-.17-.15-.21,0,0,1,0,1,.43.39.7.64A6.31,6.31,0,0,0,21,10c.37.13,1.56.59,1.78,1a.35.35,0,0,1-.12.48,18.57,18.57,0,0,1-5,2.92c-.2.07-1.57.72-1.48-.64,0-.13.06-.68.07-.91a.11.11,0,0,0,0-.08,1.82,1.82,0,0,0,1.07-1.36,2.66,2.66,0,0,0-1-2.53c-.13-.09-.14-.06-.17,0s-.17.87-.17.87A6.46,6.46,0,0,1,16.86,11c.05.21.25.51-.52.84s-3,.79-4.19.08c-.19-.11-.71-.58-.85-1.93-.05-.51-.4-5.79-.47-6.47S10.43.71,10.36.53,10.24.3,10.13.51Z"/><path class="cls-2" d="M27,7.09a4.31,4.31,0,0,0-.44,2c0,.22.16.65.5.66.17,0,.39-.13.55-.67,0-.12,0-.22.06-.27s0-.16-.1,0c-.12.33-.45.57-.7.12A1.87,1.87,0,0,1,27,7.58l.14-.43C27.19,7,27.11,6.85,27,7.09Z"/><path class="cls-2" d="M31.66,4.88a6.57,6.57,0,0,0-.56,2.77c0,.3.19.9.6.92.21,0,.49-.17.69-.92,0-.17,0-.3.07-.37s-.05-.22-.12,0c-.15.46-.56.77-.86.16a3,3,0,0,1,.14-1.9L31.79,5C31.88,4.7,31.78,4.56,31.66,4.88Z"/><path class="cls-2" d="M33,2.63,25.09,6.37c-.23.11-.29.17-.32.33a2,2,0,0,1-.06.28c0,.11-.07.21.24,0,.1,0,7.63-3.58,7.82-3.68s.27-.15.34-.32.09-.2.13-.32S33.34,2.48,33,2.63Z"/><path class="cls-2" d="M35.34,10.85c0-.66-1-8.06-1-8.06l.55.58c.09.09.19,0,.14-.1S34,.57,33.94.48s-.07-.16-.11,0l-.39.85a4.36,4.36,0,0,1,.15.62c0,.28.09.64.15,1.05,0,0,1.1,8.23,1.1,8.64a3.58,3.58,0,0,1,0,.77,1.93,1.93,0,0,1-2.56.27,2.9,2.9,0,0,1-.45-.39,16.65,16.65,0,0,0,1.91-1.1c.05-.14.2-.7.2-.7a6.21,6.21,0,0,0-5.63-.19c-.11.06-.25.22-.4.87,0,.13.06.21.17.16a1.67,1.67,0,0,1,1.24,0,5.21,5.21,0,0,1,1,.75l-.28.13c-.19.1-2.81,1.59-4.53.61-.25-.12-1.16-.62-1.29-3.38,0-.52-.49-7.11-1.11-9-.1-.25-.12-.16-.18-.08a1.52,1.52,0,0,0-.26,1.08,48.35,48.35,0,0,1,.76,5.06c.08.67.27,4.18.46,5s.42,3,3.49,2.67A15,15,0,0,0,31,12.68a14.56,14.56,0,0,0,1.15,1,2,2,0,0,0,2.76-.48A3.72,3.72,0,0,0,35.34,10.85ZM30.62,11a2.84,2.84,0,0,0-.34-.3,6.34,6.34,0,0,1,2.07.18l-1.21.67C30.91,11.34,30.72,11.13,30.62,11Z"/><path class="cls-2" d="M13.89.25a3.9,3.9,0,0,0-.4,1.84c0,.2.15.6.45.61s.37-.12.51-.62c0-.11,0-.2.05-.24s0-.15-.08,0c-.12.31-.42.52-.64.11A1.67,1.67,0,0,1,13.87.69C13.92.54,14,.3,14,.3,14.06.13,14,0,13.89.25Z"/><path class="cls-2" d="M27.65.18a3.66,3.66,0,0,0-.34,2.1A3.3,3.3,0,0,0,25.66.56c-.08,0-.23.06-.23.31s0,.51.11.6a5.1,5.1,0,0,0,.48.29c.06,0,.11,0,.12,0s.07-.21.18-.12a3.21,3.21,0,0,1,1,1.4c.06.12.18.12.19-.06,0-.44,0-1.2,0-1.44s.12-1,.56-.69a2.53,2.53,0,0,1,.21.17c.09.1.21.21.26.08a1,1,0,0,0,0-.68C28.52.31,28-.29,27.65.18Z"/></g></g></g></svg>