<svg xmlns="http://www.w3.org/2000/svg" viewBox="0 0 36 18.66"><defs><style>.cls-1{isolation:isolate;}.cls-2{fill-rule:evenodd;mix-blend-mode:darken;}</style></defs><g class="cls-1"><g id="Layer_2" data-name="Layer 2"><g id="سور_الٌقرآن_الكريم" data-name="سور الٌقرآن الكريم"><path class="cls-2" d="M28.6,17l-.6.82a.06.06,0,0,0,0,.08l1,.75a.06.06,0,0,0,.08,0l.6-.83a.05.05,0,0,0,0-.08l-1-.75A.06.06,0,0,0,28.6,17Z"/><path class="cls-2" d="M12.31,16.89l-.52.71-1-.73a.05.05,0,0,0-.08,0l-.61.82a.06.06,0,0,0,0,.08l1,.75a.05.05,0,0,0,.08,0l.52-.71,1,.72a.05.05,0,0,0,.08,0l.6-.83a.05.05,0,0,0,0-.08l-1-.75A.06.06,0,0,0,12.31,16.89Z"/><path class="cls-2" d="M18,16.31l-2.79,1.31c-.23.11-.29.17-.32.34s0,.26-.06.29-.07.21.25,0c.1-.06,2.48-1.15,2.67-1.25a.65.65,0,0,0,.36-.33c.07-.17.09-.2.13-.32S18.3,16.16,18,16.31Z"/><path class="cls-2" d="M8.14,16.27c-.23.08-3.36,1.55-3.61,1.65s-.31.16-.35.32-.07.26-.08.28-.1.21.25.06L7.85,17a.58.58,0,0,0,.38-.31c.08-.16.1-.19.15-.31S8.48,16.16,8.14,16.27Z"/><path class="cls-2" d="M16.16,11.43c-.05.1-.21.73-.21.73.14.4.48,1.2.33,1.35a1.94,1.94,0,0,1-2,.34,1.48,1.48,0,0,1-.79-1.26c.05-.16,0-.06.09-.24s0-.38-.21-.21a6.49,6.49,0,0,1-1.71,1.68C11.34,14,9,15.19,7.49,13.2c-.22-.3-.58-.86-.69-1a.67.67,0,0,0-1-.18,4,4,0,0,0-1,.78,4.88,4.88,0,0,0-.71,1.09c-.32.72-.76,1.8-.85,2s-.65,1.38-1.61.56S.51,15,.43,12.81c0-.22-.09-.54-.19,0s-.32,3.91,1.5,4.9a1,1,0,0,0,1.5-.27c.18-.32.63-1.83.92-2.38a6.68,6.68,0,0,1,1.5-1.78c.28-.18.59-.4.86.05a3.59,3.59,0,0,0,3.15,2.23A4.08,4.08,0,0,0,13,13.71a1.84,1.84,0,0,0,2.12,1.46c.2,0,1.38-.05,1.69-1.78a2.71,2.71,0,0,0-.47-2.06C16.23,11.23,16.2,11.33,16.16,11.43Z"/><path class="cls-2" d="M12,8.77c-.23.08-3.36,1.55-3.62,1.65s-.3.16-.34.32-.07.26-.08.28-.11.21.24.06l3.51-1.6A.58.58,0,0,0,12,9.17a1.42,1.42,0,0,0,.15-.31C12.23,8.73,12.29,8.66,12,8.77Z"/><path class="cls-2" d="M5.54,7.82,5,8.53,4,7.8a.05.05,0,0,0-.08,0l-.6.82a.05.05,0,0,0,0,.08l1,.75a.06.06,0,0,0,.08,0L5,8.74l1,.73a.06.06,0,0,0,.08,0l.6-.83a.05.05,0,0,0,0-.08l-1-.75A.05.05,0,0,0,5.54,7.82Z"/><path class="cls-2" d="M15.56,7.65,15,8.36l-1-.73a.05.05,0,0,0-.08,0l-.61.82a.06.06,0,0,0,0,.08l1,.75a.06.06,0,0,0,.08,0L15,8.57l1,.73a.06.06,0,0,0,.08,0l.6-.83a.05.05,0,0,0,0-.08l-1-.75A.06.06,0,0,0,15.56,7.65Z"/><path class="cls-2" d="M.48,6.07A6.66,6.66,0,0,0,0,9c0,.32.28.93.75.92.24,0,.54-.21.72-1,0-.18,0-.33.06-.4s-.07-.23-.13,0c-.15.49-.59.86-1,.23a2.74,2.74,0,0,1,0-2c.07-.25.16-.63.16-.63C.72,5.86.6,5.72.48,6.07Z"/><path class="cls-2" d="M14.39,5.77l-.61.83a.06.06,0,0,0,0,.08l1,.75a.05.05,0,0,0,.08,0l.6-.82a.05.05,0,0,0,0-.08l-1-.75A.06.06,0,0,0,14.39,5.77Z"/><path class="cls-2" d="M8.84,4.83A5.23,5.23,0,0,0,8.32,7.2c0,.27.19.78.59.79.2,0,.47-.15.65-.79a2.82,2.82,0,0,0,.07-.32c0-.09,0-.19-.11,0-.15.39-.54.67-.83.14A2.25,2.25,0,0,1,8.81,5.4c.07-.2.16-.5.16-.5C9.05,4.67,9,4.55,8.84,4.83Z"/><path class="cls-2" d="M4.09,2.16A7.32,7.32,0,0,0,3.6,5.4c0,.36.31,1,.82,1,.27,0,.6-.23.79-1.11,0-.2,0-.36.06-.44s-.07-.25-.14,0c-.16.55-.65.94-1.06.26a3.11,3.11,0,0,1,0-2.21c.08-.28.18-.69.18-.69C4.36,1.94,4.22,1.78,4.09,2.16Z"/><path class="cls-2" d="M14.23.86a5.06,5.06,0,0,0-.52,2.37c0,.27.19.78.59.79.2,0,.46-.15.65-.79,0-.14.05-.26.07-.32s0-.19-.11,0c-.15.39-.54.67-.83.14a2.13,2.13,0,0,1,.12-1.63c.07-.2.16-.5.16-.5C14.44.7,14.34.58,14.23.86Z"/><path class="cls-2" d="M10.66.63A4.37,4.37,0,0,0,10.08,3,3.83,3.83,0,0,0,8.4.87c-.09-.05-.28,0-.29.34s-.06.58.06.7a3.17,3.17,0,0,0,.52.38c.05,0,.11,0,.13,0S8.92,2,9,2.14a3.71,3.71,0,0,1,1,1.71c0,.14.18.16.21-.05.08-.51.12-1.39.16-1.65s.22-1.15.69-.75c.1.09.21.21.21.21s.22.27.28.13A1.1,1.1,0,0,0,11.67,1C11.62.86,11.05.12,10.66.63Z"/><path class="cls-2" d="M22.53,11.26A4.74,4.74,0,0,0,22,13.49c0,.24.18.72.55.74.19,0,.44-.14.62-.75,0-.13.05-.24.06-.29s0-.18-.11,0c-.13.37-.5.63-.77.14a2,2,0,0,1,.11-1.53c.07-.19.15-.47.15-.47C22.73,11.11,22.64,11,22.53,11.26Z"/><path class="cls-2" d="M26.94,5.94c-.17.11-6,3.05-6.53,3.44a1.55,1.55,0,0,0-.52.86c-.1.49,0,1,.34,1a.59.59,0,0,1,.41.24s.06,0,.07,0a.6.6,0,0,0-.41-.95c-.17-.05-.25-.28.39-.69s5.89-3.08,6-3.18.28-.16.35-.34A2.35,2.35,0,0,0,27.18,6C27.22,5.88,27.26,5.74,26.94,5.94Z"/><path class="cls-2" d="M24.84,2.66a5,5,0,0,0-.48,2.23c0,.25.17.73.55.74.19,0,.43-.14.61-.74,0-.14.05-.25.06-.3s0-.18-.1,0c-.14.37-.51.63-.78.13a2.06,2.06,0,0,1,.11-1.52c.07-.19.16-.48.16-.48C25,2.52,25,2.4,24.84,2.66Z"/><path class="cls-2" d="M22.51.29A4.79,4.79,0,0,0,21.84,3,4.49,4.49,0,0,0,19.89.56c-.1-.06-.31.06-.33.39s-.07.66.07.8a4.71,4.71,0,0,0,.6.43c.06,0,.13,0,.16,0s.1-.27.23-.13a3.65,3.65,0,0,1,1.09,1.68c.19.79-1.76,2.4-1.86,2.47s-.13.22,0,.17A10.75,10.75,0,0,0,21,5.61,2.16,2.16,0,0,0,22,4s0,0,0-.08c.08-.58.13-1.58.17-1.88s.27-1.31.8-.85a3.24,3.24,0,0,1,.25.24c.11.14.25.31.32.14a1.27,1.27,0,0,0,.08-.89C23.62.56,23-.29,22.51.29Z"/><path class="cls-2" d="M17.22.16a7.62,7.62,0,0,0-.36,1c.73,2.32,1.21,10,1.4,11.72.07.62,0,4.49,3.95,4.52.45,0,2.62.09,7.21-2a10.53,10.53,0,0,1,3.75-1.1c.1.88.17,1.64.19,2.09,0,.19.06.25.15.08a5.13,5.13,0,0,0,.3-2.21,9.59,9.59,0,0,1,1.66.08c.2-.39.53-1.13.53-1.13-.16,0-1.07,0-2.24-.1,0-.66-.13-1.44-.28-2.36L32.4,3s.61.57.71.68.21,0,.16-.12S32,.34,31.92.23s-.08-.18-.13-.06-.34.94-.34.94c.08.53.78,6.22.82,6.61s.44,2.91.74,5.28a22.68,22.68,0,0,1-4.3-.62A4.39,4.39,0,0,0,29,9.7c-.15-1-1.13-7.07-1.13-7.07l.71.68c.09.1.21,0,.16-.12S27.62.34,27.58.23,27.5.05,27.45.17l-.45,1a5.76,5.76,0,0,1,.17.73c.07.46.16,1.12.27,1.85,0,0,1.1,7.34,1.1,7.53a.31.31,0,0,1-.24.32c-.56.19-3.17.25-3.69.92-.22.24-.35.89.1.78,1-.35,5.05.63,5.05.63a20.88,20.88,0,0,1-6.28,2c-.65.09-3.13.5-4.17-1.77C18.67,12.77,18.5,3.22,17.49.29,17.35-.09,17.34-.06,17.22.16Z"/></g></g></g></svg>