<svg xmlns="http://www.w3.org/2000/svg" viewBox="0 0 30.91 24.26"><defs><style>.cls-1{isolation:isolate;}.cls-2{fill-rule:evenodd;mix-blend-mode:darken;}</style></defs><g class="cls-1"><g id="Layer_2" data-name="Layer 2"><g id="سور_الٌقرآن_الكريم" data-name="سور الٌقرآن الكريم"><path class="cls-2" d="M12.36,20.56c-.23.14-5.39,2.66-5.63,2.82s-.32.2-.36.39,0,.3-.06.33-.07.28.28,0c.11-.08,5.31-2.62,5.51-2.76s.31-.18.39-.38a3.14,3.14,0,0,0,.14-.36C12.67,20.49,12.72,20.34,12.36,20.56Z"/><path class="cls-2" d="M22.64,19.05a4.74,4.74,0,0,0-.48,2.21c0,.25.17.72.54.73.19,0,.43-.13.61-.73q0-.21.06-.3c0-.08,0-.17-.1,0-.14.37-.5.62-.77.13a2,2,0,0,1,.11-1.51l.15-.47C22.83,18.91,22.74,18.79,22.64,19.05Z"/><path class="cls-2" d="M4.11,14.85a4.85,4.85,0,0,0-.45,2.48c0,.27.26.79.71.77.23,0,.52-.18.69-.85,0-.15,0-.27.06-.33s-.06-.19-.13,0c-.14.42-.57.73-.92.2-.06-.1-.31-.58,0-1.68.07-.21.16-.53.16-.53C4.34,14.68,4.22,14.56,4.11,14.85Z"/><path class="cls-2" d="M7.2,10.43A11,11,0,0,0,6.59,15c.06.49.4,1.45,1.06,1.43.33,0,.75-.32,1-1.56,0-.28.06-.5.08-.61s-.1-.35-.18,0c-.21.76-.82,1.32-1.35.34a4.72,4.72,0,0,1,0-3.1c.1-.39.22-1,.22-1C7.53,10.12,7.35,9.89,7.2,10.43Z"/><path class="cls-2" d="M6.28,1.34a5.56,5.56,0,0,0-.52,3.11A5,5,0,0,0,3.38,1.87C3.26,1.81,3,2,3,2.33c0,.22,0,.75.14.89a4.32,4.32,0,0,0,.71.43c.07,0,.15,0,.17,0s.1-.31.26-.17A4.29,4.29,0,0,1,5.68,5.22C6,6.1,3.9,8.06,3.79,8.15s-.12.25,0,.19A10.49,10.49,0,0,0,5,7.44a2.42,2.42,0,0,0,1-1.91.3.3,0,0,0,0-.1c0-.65,0-1.78,0-2.12,0-.49.19-1.49.82-1a2.34,2.34,0,0,1,.3.25c.14.15.32.32.38.13a1.52,1.52,0,0,0,0-1C7.55,1.55,6.74.66,6.28,1.34Z"/><path class="cls-2" d="M14.7,9.59a4.39,4.39,0,0,0-.62.89c-.16.24,0,.35.22.16a.87.87,0,0,1,.82-.37c.52,0,1.77,0,1.31.31s-.79.54-.79.54c-.3.22-.56.63,0,.4a3.77,3.77,0,0,0,1.78-1.4c.16-.24.35-.55-.39-.66S15.08,9.17,14.7,9.59Z"/><path class="cls-2" d="M20.61,7.64l-.68.93a.07.07,0,0,0,0,.09l1.16.84a.07.07,0,0,0,.09,0l.68-.92a.07.07,0,0,0,0-.09L20.7,7.62A.07.07,0,0,0,20.61,7.64Z"/><path class="cls-2" d="M21.27,3.15a1,1,0,0,0,0,.8c.12.32.44,1,.49,1.13s.07.22-.11.3a.8.8,0,0,1-1.14-.62,6.63,6.63,0,0,0-.24-1.26c-.07-.15-.15-.17-.2,0a2.91,2.91,0,0,0-.11.5.22.22,0,0,0,0,.13c0,.06.35,1,.21,1.29s-.88.75-1.26.24a4,4,0,0,1-.07-1.44c0-.21-.07-.28-.16-.11a.82.82,0,0,0-.13.43c0,.15,0,.8,0,1s0,.87.39,1.05,1,0,1.39-.8a1,1,0,0,0,1.11.39A1.18,1.18,0,0,0,22,5.25a1.61,1.61,0,0,0-.2-1.08,4,4,0,0,1-.34-.89C21.41,3.08,21.36,2.87,21.27,3.15Z"/><path class="cls-2" d="M28.65.46c-.06.14-.39,1.05-.39,1.05.09.6.87,7,.93,7.43s1.14,8.49,1.2,10.5c0,.2.07.28.17.08s.75-2.34,0-7.24c-.06-.41-1.22-8.68-1.22-8.68s.68.64.79.76.25,0,.18-.14S28.84.64,28.79.53,28.7.32,28.65.46Z"/><path class="cls-2" d="M10.31.59A3,3,0,0,0,10,2c0,.48,1.09,7.58,1.18,8.39s.51,4.79.51,5.07a1.2,1.2,0,0,1-.36,1c-.38.41-4,3.81-7,3.85A3.08,3.08,0,0,1,.91,18.4a5,5,0,0,1,.19-4,1.42,1.42,0,0,0,0-.16.69.69,0,0,0,.32.08c.34,0,.75-.33,1-1.56,0-.28,0-.5.07-.61s-.09-.36-.18,0c-.21.76-.82,1.32-1.35.35a4.7,4.7,0,0,1,0-3.1c.09-.39.21-1,.21-1C1.35,8,1.18,7.78,1,8.32a11,11,0,0,0-.6,4.56A2.26,2.26,0,0,0,.89,14a1.72,1.72,0,0,0-.09.19c-.28.66-2.25,5.13,1.28,7.17.51.29,2.75,1.21,6.68-1.46a11.62,11.62,0,0,0,2.94-2.59c.11-.21.37-1,.37-1,.11.48.38,3.63,2.18,4.59.37.2,1.57.8,5-1,.83-.45,3.69-1.8,4.8-1.8a16.44,16.44,0,0,1,1.71.07c.18-.26.75-1.4.75-1.4-.27-.08-2.67-.16-4.14-.28a36.15,36.15,0,0,1-4.66-.6,6.26,6.26,0,0,0,2.86-2.64c.27-.36.7-.92.88-.39s.39,2.08,1.29,2.54c.51.21,2.24.63,2.89-.82A6.1,6.1,0,0,0,26,11.82c-.06-.53-1.21-8.15-1.21-8.15s.69.64.8.76.24.05.18-.13S24.3.72,24.26.6s-.09-.2-.15-.07-.39,1.06-.39,1.06c.05.32,1.59,11.12,1.6,11.47s.11.66-.17.86a2.12,2.12,0,0,1-2.17,0c-.22-.18-.61-.45-.92-1.91-.07-.38-.2-1-.82-.6a7.63,7.63,0,0,0-1.33,1.53,12.3,12.3,0,0,1-4.36,2.79.87.87,0,0,0-.39.32,8.52,8.52,0,0,0-.48,1,55.07,55.07,0,0,1,5.91.76,23.32,23.32,0,0,1-3.35,1.64c-.81.24-2.87,1.12-3.89-1.69a24.26,24.26,0,0,1-.84-4.36c-.14-.92-.9-7.1-.9-7.1A44.57,44.57,0,0,0,10.55.55C10.42.22,10.44.3,10.31.59Z"/><path class="cls-2" d="M22.44.12c-.24.12-8,3.33-8.68,3.82A2,2,0,0,0,13,5c-.18.65-.06,1.32.36,1.42a.81.81,0,0,1,.53.36s.08,0,.1,0a.8.8,0,0,0-.47-1.3c-.23-.09-.31-.41.58-.91s7.8-3.39,8-3.5.39-.2.5-.43a4.15,4.15,0,0,0,.19-.43C22.82.06,22.89-.12,22.44.12Z"/></g></g></g></svg>