<svg xmlns="http://www.w3.org/2000/svg" viewBox="0 0 34.55 18"><defs><style>.cls-1{isolation:isolate;}.cls-2{fill-rule:evenodd;mix-blend-mode:darken;}</style></defs><g class="cls-1"><g id="Layer_2" data-name="Layer 2"><g id="سور_الٌقرآن_الكريم" data-name="سور الٌقرآن الكريم"><path class="cls-2" d="M25.56,15.41a4.12,4.12,0,0,0-.43,1.94c0,.22.16.63.48.65s.38-.12.54-.65c0-.12,0-.21.05-.26s0-.15-.09,0c-.12.32-.44.54-.67.11a1.76,1.76,0,0,1,.09-1.32c.06-.17.13-.41.13-.41C25.73,15.29,25.65,15.19,25.56,15.41Z"/><path class="cls-2" d="M15.44,14.07c-.21.11-5.62,2.44-5.84,2.57s-.3.15-.35.31-.06.26-.07.28-.09.24.24.06c.1-.06,5.56-2.41,5.74-2.51s.29-.14.37-.31.1-.19.15-.31S15.77,13.91,15.44,14.07Z"/><path class="cls-2" d="M5.08,11.46a4.21,4.21,0,0,0-.42,1.94c0,.21.15.63.47.64.17,0,.39-.13.54-.65,0-.12,0-.21,0-.26s0-.15-.09,0c-.12.32-.44.54-.67.11a1.76,1.76,0,0,1,.09-1.32l.14-.41C5.25,11.33,5.17,11.23,5.08,11.46Z"/><path class="cls-2" d="M5.41,6.25A4.93,4.93,0,0,0,5,8.71c0,.27.26.78.7.77.23,0,.51-.18.69-.85,0-.15,0-.27,0-.33s-.06-.19-.12,0c-.14.41-.56.71-.92.2a2.09,2.09,0,0,1,0-1.67c.07-.22.15-.53.15-.53C5.64,6.08,5.52,6,5.41,6.25Z"/><path class="cls-2" d="M1.12,5.5A9.18,9.18,0,0,0,.43,9.39a1.87,1.87,0,0,0,.37,1l-.06.13c-.26.61-2.08,5,1.17,6.21,1.28.48,4.2.63,7.2-2.15a3.26,3.26,0,0,0,1-1.89,5.23,5.23,0,0,0,0-1.43A2.25,2.25,0,0,0,12.19,10a1.79,1.79,0,0,0,1.09.86c.67.09,1.34,0,1.62-1.15a3,3,0,0,0-.39-1.89c-.08-.13-.15-.06-.18,0s-.22.95-.22.95c.13.27.3.82.13.89s-1,.25-1.66-.71c0,0,.14-.43.2-.68s0-.58-.2-.22-1,2.47-2.87,1.88a7.28,7.28,0,0,0-.44-.8c-.16-.23-.22-.1-.25,0s-.16.94-.16.94c.34.54,1.22,2.19.86,2.64s-3.16,3.15-6,3.12C2.5,15.71.88,15.32.58,13.39A6.26,6.26,0,0,1,1,10.75L1,10.59a.54.54,0,0,0,.25.06c.3,0,.68-.25.93-1.3,0-.24.07-.42.09-.52s-.07-.31-.16,0C2,9.49,1.39,10,1,9.1a3.92,3.92,0,0,1,.12-2.65c.1-.33.23-.83.23-.83C1.42,5.25,1.28,5.05,1.12,5.5Z"/><path class="cls-2" d="M5.77,1.13a4.43,4.43,0,0,0-.43,2.59,4.13,4.13,0,0,0-2-2.13C3.2,1.54,3,1.66,3,2s0,.63.12.74a4.47,4.47,0,0,0,.6.36c.07,0,.14,0,.15,0s.09-.25.22-.14A3.92,3.92,0,0,1,5.37,4.61c.07.15.22.16.23-.07,0-.54,0-1.48,0-1.77s.15-1.25.69-.86c.12.09.25.21.25.21s.27.27.32.11a1.24,1.24,0,0,0,0-.85C6.84,1.29,6.15.55,5.77,1.13Z"/><path class="cls-2" d="M11.2.76a8.46,8.46,0,0,0-.64,3.61c0,.4.27,1.17.81,1.18.27,0,.63-.23.86-1.21,0-.22.07-.4.08-.48s-.06-.29-.14,0c-.2.6-.71,1-1.12.23a3.74,3.74,0,0,1,.12-2.46c.09-.31.21-.77.21-.77C11.48.52,11.35.33,11.2.76Z"/><path class="cls-2" d="M21.21,9.88a5.06,5.06,0,0,0-.47,2.56c0,.27.27.81.73.79.24,0,.54-.18.72-.88,0-.15,0-.28.06-.34s-.06-.2-.13,0c-.15.42-.59.74-1,.2a2.18,2.18,0,0,1,0-1.73c.07-.22.16-.55.16-.55C21.44,9.7,21.32,9.58,21.21,9.88Z"/><path class="cls-2" d="M25.67,9.05l-.59.81s0,.07,0,.08l1,.74a.05.05,0,0,0,.08,0l.59-.82a0,0,0,0,0,0-.07l-1-.74A.05.05,0,0,0,25.67,9.05Z"/><path class="cls-2" d="M25.75,5.08a.89.89,0,0,0,0,.7c.11.28.39.9.44,1a.17.17,0,0,1-.1.26.7.7,0,0,1-1-.54,7.26,7.26,0,0,0-.21-1.11c-.07-.13-.13-.14-.18,0a3.1,3.1,0,0,0-.09.44.14.14,0,0,0,0,.12s.31.9.18,1.13-.77.65-1.1.21A3.5,3.5,0,0,1,23.62,6c0-.18-.06-.24-.14-.09a.7.7,0,0,0-.12.37c0,.14,0,.71,0,.89s0,.75.34.92.84,0,1.22-.7a.84.84,0,0,0,1,.34,1,1,0,0,0,.5-.8,1.44,1.44,0,0,0-.18-1,3.62,3.62,0,0,1-.29-.78C25.88,5,25.83,4.83,25.75,5.08Z"/><path class="cls-2" d="M28,1.32c-.19.11-9.08,3.89-9.63,4.29a1.63,1.63,0,0,0-.61.89c-.13.52,0,1.06.31,1.13a.68.68,0,0,1,.43.28,0,0,0,0,0,.08,0,.65.65,0,0,0-.39-1c-.18-.06-.25-.32.46-.73s8.92-3.93,9.06-4,.32-.17.4-.35a3.61,3.61,0,0,0,.15-.35C28.28,1.27,28.33,1.12,28,1.32Z"/><path class="cls-2" d="M20.72.31a4.43,4.43,0,0,0-.43,2.59,4.17,4.17,0,0,0-2-2.13c-.1-.05-.29.07-.28.38s0,.63.12.75a5.51,5.51,0,0,0,.6.35c.07,0,.14,0,.15,0s.09-.26.22-.15a3.92,3.92,0,0,1,1.26,1.73c.07.15.22.16.23-.07,0-.54,0-1.48,0-1.77s.15-1.25.69-.86c.12.09.25.21.25.21s.27.27.32.11a1.24,1.24,0,0,0,0-.85C21.79.47,21.1-.27,20.72.31Z"/><path class="cls-2" d="M29.57.11c-.06.11-.47,1-.47,1a4.84,4.84,0,0,1,.15.73c.05.4,1.25,9.41,1.29,9.9s.2,1.82.16,2a2.15,2.15,0,0,1-2.35.8,1.59,1.59,0,0,1-.93-1.21,3,3,0,0,1,0-.62c0-.15-.08-.2-.26-.1s-3.37,2.45-6.4,2.54a3.58,3.58,0,0,1-3.92-3.61C16.79,11,16.23,2.13,15.6.25c-.15-.31-.24.14-.27.22s-.22.74-.22.74c.42,1.48,1,10.36,1.17,11.19s.21,4,4.42,3.93c2.72,0,6.18-2.44,6.18-2.44A2.12,2.12,0,0,0,29,15.8a2.16,2.16,0,0,0,2.22-2.12A21,21,0,0,0,31,10.2c-.1-.89-.93-7.33-.93-7.33l.68.68c.1.11.22.06.17-.11S29.73.27,29.69.17,29.62,0,29.57.11Z"/><path class="cls-2" d="M32.61.06l-.42,1c0,.06.11.45.13.6.17,1.31,1.21,9,1.51,11.46.14,1.2.26,2.28.27,2.86,0,.18.07.25.15.08a4,4,0,0,0,.29-1.48,20.07,20.07,0,0,0-.22-3.49L33.2,2.81l.7.67c.09.11.21,0,.16-.11S32.78.22,32.74.12,32.66-.06,32.61.06Z"/></g></g></g></svg>