<svg xmlns="http://www.w3.org/2000/svg" viewBox="0 0 35.69 17.5"><defs><style>.cls-1{isolation:isolate;}.cls-2{fill-rule:evenodd;mix-blend-mode:darken;}</style></defs><g class="cls-1"><g id="Layer_2" data-name="Layer 2"><g id="سور_الٌقرآن_الكريم" data-name="سور الٌقرآن الكريم"><path class="cls-2" d="M8.06,15.8c-.21.09-2.7.94-2.91,1s-.3.13-.35.3a1.62,1.62,0,0,1-.08.26c0,.08-.09.17.21,0s2.58-.9,2.83-1a.61.61,0,0,0,.35-.3,1.54,1.54,0,0,0,.12-.3l0,.05C8.32,15.76,8.36,15.72,8.06,15.8ZM26.8,15a3.76,3.76,0,0,0-.39,1.84c0,.21.13.6.47.6.18,0,.39-.13.52-.6a.83.83,0,0,0,0-.26h0c0-.08,0-.13-.09,0-.13.3-.43.52-.64.13a1.89,1.89,0,0,1,.09-1.29,3.62,3.62,0,0,1,.12-.38C26.93,14.86,26.88,14.77,26.8,15Zm-8.45-1.08c-.21.09-4.71,1.85-4.93,2s-.3.13-.34.3a.9.9,0,0,1-.09.25c0,.09-.08.22.22,0,.08,0,4.63-1.85,4.8-1.93s.26-.13.34-.3a1.17,1.17,0,0,0,.13-.3l.09,0C18.61,13.87,18.65,13.74,18.35,13.91Zm-13-6-.47.69L3.9,8H3.82l-.56.78v.08l1,.73h.08l.47-.69,1,.69h.08l.56-.77V8.68L5.4,8Zm9.09-1.2a3.85,3.85,0,0,0-1,1A5,5,0,0,1,11.36,10a16.31,16.31,0,0,0-2,1.16,6.46,6.46,0,0,0-.34.77c0,.13,0,.26.13.21.34-.25,4.33.35,4.33.35A10.06,10.06,0,0,1,10,14,1.93,1.93,0,0,1,7.55,13c-.17-.3-.47-1.63-1.59-1.2a4,4,0,0,0-2.27,2.36c-.39,1.07-.77,2-1.24,2A2.26,2.26,0,0,1,.77,13.83,6.4,6.4,0,0,1,.9,12.28c0-.25-.13-.42-.21-.12s-.86,3.6,1.16,4.8a1.06,1.06,0,0,0,1.5-.43c.17-.34.9-2.74,2-3.43.3-.17,1-.56,1.33-.09s.64,2.1,2.27,2.23c.22,0,1.12.17,3.61-1.11a14.9,14.9,0,0,1,3.08-1.46v0c.43-.09,1.85-.17,1.85-.17s.51-.86.6-1,.12-.21-.13-.17-2.15.08-3.3,0c-1.33-.09-3.18-.34-3.18-.34a8,8,0,0,0,1.89-2,2.91,2.91,0,0,1,.86-1c.25-.13.51-.13.6.17C15,8.6,15,9.24,15,9.37s.17.34.26.13a3.58,3.58,0,0,0,.12-1.93C15.35,7.4,15.14,6.37,14.41,6.75ZM.56,5.77A9.07,9.07,0,0,0,.05,9.63h0c0,.42.34,1.2.9,1.2.3,0,.64-.26.86-1.33a2.93,2.93,0,0,0,0-.52c0-.13-.09-.3-.17,0-.17.64-.69,1.11-1.16.3a4,4,0,0,1,0-2.62c.09-.34.17-.81.17-.81C.82,5.51.69,5.34.56,5.77Zm14.36-2.1-.47.68-.94-.68h-.09l-.55.77v.08l1,.73h.09l.47-.68.94.68h.09L16,4.48V4.4l-1-.73Zm-3.13.17C11.58,3.92,7.25,6,7,6.11H7a.4.4,0,0,0-.3.34,1.38,1.38,0,0,0,0,.26c-.05.09-.05.22.25,0l4.68-2.23a.77.77,0,0,0,.34-.3,3,3,0,0,0,.13-.3C12.05,3.8,12.09,3.71,11.79,3.84ZM3.56,2.17a4.43,4.43,0,0,0-.43,2.44v0c.05.26.26.77.69.77.21,0,.51-.17.68-.85a1.06,1.06,0,0,0,0-.35c0-.08,0-.17-.13,0-.13.43-.56.73-.9.22a2.16,2.16,0,0,1,0-1.67,5.2,5.2,0,0,0,.17-.52C3.82,2,3.69,1.91,3.56,2.17ZM8.41.79a4.05,4.05,0,0,0-.6,2.45A4.06,4.06,0,0,0,6.05,1.05c-.09,0-.3.05-.3.34s0,.6,0,.73v0a2.92,2.92,0,0,0,.56.38c0,.05.13.05.13,0s.08-.26.21-.13A3.88,3.88,0,0,1,7.76,4.14c0,.13.22.17.22,0,.08-.52.13-1.42.17-1.72s.26-1.16.73-.77a.72.72,0,0,1,.21.21c.09.13.22.3.3.13a1.34,1.34,0,0,0,.09-.81C9.43,1.05,8.83.28,8.41.79ZM14.19.41a3.78,3.78,0,0,0-.38,1.84h-.05c0,.22.13.6.48.6.17,0,.38-.13.51-.6a.8.8,0,0,0,0-.26c0-.08,0-.12-.08,0-.13.31-.43.52-.65.13A1.86,1.86,0,0,1,14.15.84a3.21,3.21,0,0,1,.13-.39C14.32.28,14.28.19,14.19.41ZM23.58,8.9a4.36,4.36,0,0,0-.42,2.44c0,.26.25.77.68.77.21,0,.52-.17.69-.85a1.35,1.35,0,0,0,0-.35c0-.08,0-.17-.13,0-.13.43-.56.73-.9.22a2.18,2.18,0,0,1,0-1.68V9.5A5.2,5.2,0,0,0,23.75,9C23.84,8.73,23.71,8.64,23.58,8.9Zm3.6-2.32-.55.77v.09l1,.73h.09l.56-.77V7.31l-1-.73Zm2.23-3.94c-.21.13-8.48,4.63-8.74,4.76s-.3.17-.35.34,0,.26-.08.3l0,0c0,.13-.08.26.26.05.13-.05,8.45-4.59,8.62-4.72s.3-.17.38-.34a1.4,1.4,0,0,0,.13-.35C29.71,2.6,29.76,2.47,29.41,2.64Zm-6-2.4a4.92,4.92,0,0,0-.64,2.57A4.31,4.31,0,0,0,20.93.49c-.09,0-.3.05-.3.39,0,.17-.05.64.08.77h0c.13.13.51.39.56.43s.12,0,.17,0,.08-.26.21-.13a3.76,3.76,0,0,1,1.12,1.84c0,.17.21.17.25,0,.09-.56.13-1.5.18-1.8s.25-1.24.77-.81a2,2,0,0,1,.25.21c.13.13.26.3.3.13a1.46,1.46,0,0,0,.09-.86C24.53.49,23.88-.32,23.45.24Zm5.49,11.19c.26.51-.94,1.2-1.11,1.28,0,0-.43-1.11-.52-1.37s0-.56.48-.77S28.69,10.91,28.94,11.43ZM30.62.07l-.35.9c.09.47,1.63,11,1.67,11.66s.26,1.2-1.54,1.5a2.17,2.17,0,0,1-2-.69A2.33,2.33,0,0,0,29.5,11.3c-.17-2.1-1.29-2.1-1.59-2s-.94.43-1.11,1.89A5.2,5.2,0,0,0,27.14,13c-.86.48-3.51,1.76-5.36,1.38-.47-.09-1.76-.22-2.31-2.58-.26-1-.69-5.36-.69-5.36s-.34-3.3-.6-4.54c-.08-.43-.26-1.2-.34-1.5s-.13-.3-.22-.13a1.43,1.43,0,0,0-.21,1.33c.17.86.56,2.74.73,4.16.08.81.51,4.76.56,5.23s0,4.11,2.74,4.63a7.24,7.24,0,0,0,3.86-.56C26,14.81,27.61,14,27.61,14c.3.47.77,1.59,2.92,1.33a2.25,2.25,0,0,0,1.89-1.5,5.41,5.41,0,0,0,.08-2.15h0c0-.34-1.37-9-1.37-9s.56.56.69.65.21,0,.17-.13S30.79.24,30.74.11,30.66-.06,30.62.07Zm3.17,0-.39,1a5.21,5.21,0,0,0,.13.56c.17,1.24,1.2,8.66,1.5,11,.13,1.16.26,2.19.26,2.75,0,.17,0,.26.13.08A3.7,3.7,0,0,0,35.67,14a17.17,17.17,0,0,0-.21-3.34c0-.22-1.12-7.94-1.12-7.94s.56.56.69.65.21,0,.17-.13S34,.24,33.92.11,33.83-.06,33.79.07Z"/></g></g></g></svg>