<svg xmlns="http://www.w3.org/2000/svg" viewBox="0 0 34.65 22.46"><defs><style>.cls-1{isolation:isolate;}.cls-2{fill-rule:evenodd;mix-blend-mode:darken;}</style></defs><g class="cls-1"><g id="Layer_2" data-name="Layer 2"><g id="سور_الٌقرآن_الكريم" data-name="سور الٌقرآن الكريم"><path class="cls-2" d="M8.34,20.07c-.21.1-5.08,1.54-5.31,1.66s-.3.14-.35.3a1.76,1.76,0,0,1-.09.28c0,.11-.08.24.25.06.1-.05,5-1.51,5.19-1.61s.3-.13.39-.29l.15-.31C8.62,20,8.68,19.91,8.34,20.07Z"/><path class="cls-2" d="M16.48,19.25l-.11.23c0,.07,0,.16.09,0s.54-.42.66,0a1.71,1.71,0,0,1-.39,1.23c-.1.15-.22.36-.22.36-.11.16-.06.28.08.09a4.19,4.19,0,0,0,.85-1.74c0-.21,0-.63-.31-.72C17,18.73,16.74,18.79,16.48,19.25Z"/><path class="cls-2" d="M5.49,18.42l-.59.81s0,.07,0,.08l1,.74A.06.06,0,0,0,6,20l.6-.82a.07.07,0,0,0,0-.08l-1-.74A.07.07,0,0,0,5.49,18.42Z"/><path class="cls-2" d="M20.58,17.61c0,.09-.22.39-.25.46s0,.14.05.09,0-.32.85-.3c.12,0,.16,0,.11.09a3.38,3.38,0,0,0-1,1.54c-.23,1.22.95,1,1.19.9a3.49,3.49,0,0,0,1.49-1.28c.08-.13.12-.32-.05-.13a3,3,0,0,1-1.78.94c-.65,0-.74-.59-.58-.85s.8-.89.92-1.05a2.18,2.18,0,0,0,.2-.41c.06-.17.09-.29-.09-.29S20.85,17.19,20.58,17.61Z"/><path class="cls-2" d="M26.27,13.93a7.94,7.94,0,0,0-.48,3.38c.05.36.31,1.07.82,1.06.26,0,.59-.25.78-1.16,0-.2,0-.37.06-.45s-.08-.26-.14,0c-.17.56-.64,1-1.06.26a3.47,3.47,0,0,1,0-2.29c.08-.29.18-.72.18-.72C26.53,13.7,26.4,13.53,26.27,13.93Z"/><path class="cls-2" d="M14.15,13.64l-.6.81a.06.06,0,0,0,0,.08l1,.74a0,0,0,0,0,.07,0l.6-.82a.06.06,0,0,0,0-.08l-1-.73A0,0,0,0,0,14.15,13.64Z"/><path class="cls-2" d="M5.32,12.25a4.72,4.72,0,0,0-.42,2.33c0,.25.25.74.67.73.21,0,.49-.17.65-.81,0-.14,0-.25,0-.31s0-.18-.11,0c-.14.39-.54.67-.88.18a2,2,0,0,1,0-1.58l.15-.49C5.54,12.09,5.43,12,5.32,12.25Z"/><path class="cls-2" d="M17.61,11.77A2,2,0,0,0,16.15,13a1.61,1.61,0,0,0,.33,1.4c.1.09.84.73,1.56,1.42l-.17.06a13.8,13.8,0,0,0-4,2.67,12.25,12.25,0,0,1-2.41,2.18A1.23,1.23,0,0,1,9.68,20a5.73,5.73,0,0,1,1.23-3.82c.23-.32.09-.55-.22-.22s-3.17,5,.22,5.86c.51,0,1.53.17,3.12-1.81a11.82,11.82,0,0,1,4.14-3l.68-.29a5.74,5.74,0,0,1,.37.46c.08.12.23.15.24-.07a1.82,1.82,0,0,0-.05-.65c1.66-.75,4.37-2,4.75-2.24.53-.31,1-.52,1-.52l.61-1.42A21.71,21.71,0,0,0,17.61,11.77ZM19,15.46a4.25,4.25,0,0,0-.5-.62c-.15-.17-1.43-1.23-1.55-1.37s-.19-.32.19-.44a14,14,0,0,1,6.83.09A46.82,46.82,0,0,1,19,15.46Z"/><path class="cls-2" d="M15.84,8.89a4.66,4.66,0,0,0-.51,2.22c0,.24.19.72.58.73.2,0,.46-.14.64-.74,0-.13.05-.24.06-.29s0-.18-.1,0c-.15.37-.53.63-.82.14a2,2,0,0,1,.12-1.52C15.88,9.24,16,9,16,9,16.05,8.75,16,8.63,15.84,8.89Z"/><path class="cls-2" d="M.82,8.66a8.49,8.49,0,0,0-.47,3.52,1.7,1.7,0,0,0,.43,1l0,0c-.12.22-1.58,2.53-.08,4.15.13.15,1.31,1.47,6,.09a6.87,6.87,0,0,0,3.42-2,2.34,2.34,0,0,0,.24-1.91,12.7,12.7,0,0,0-.8-1.35c-.12-.17-.2-.19-.25,0s-.23,1.06-.23,1.06c.18.24,1.09,1.36.88,1.57s-2.09,1.78-6.59,2.06c-.51,0-3-.06-2.86-1.93A5,5,0,0,1,1,13.28H1a.51.51,0,0,0,.17,0c.26,0,.59-.26.77-1.21,0-.22.05-.39.06-.47s-.07-.28-.14,0c-.16.59-.63,1-1,.27a3.68,3.68,0,0,1,0-2.4c.08-.3.17-.75.17-.75C1.07,8.42.94,8.24.82,8.66Z"/><path class="cls-2" d="M19.1,7.94a3.48,3.48,0,0,0-.48.69c-.12.19,0,.28.17.13a.68.68,0,0,1,.64-.29c.41,0,1.39,0,1,.24s-.61.43-.61.43c-.23.17-.44.48,0,.31a3,3,0,0,0,1.39-1.1c.12-.18.27-.43-.31-.52S19.4,7.61,19.1,7.94Z"/><path class="cls-2" d="M4.25,7.59A4.85,4.85,0,0,0,3.81,10c0,.27.26.78.7.77.23,0,.51-.18.69-.85,0-.15,0-.27,0-.33s-.06-.19-.12,0c-.14.41-.56.71-.92.2a2.09,2.09,0,0,1,0-1.67c.07-.21.15-.52.15-.52C4.48,7.42,4.36,7.3,4.25,7.59Z"/><path class="cls-2" d="M20.16,4.69c-.17.1-6.53,3-7,3.41a1.51,1.51,0,0,0-.54.82c-.11.49,0,1,.31,1a.57.57,0,0,1,.39.25,0,0,0,0,0,.07,0A.58.58,0,0,0,13,9.25c-.17-.06-.24-.29.4-.68s6.38-3.06,6.51-3.15.29-.16.36-.33.09-.2.13-.32S20.48,4.51,20.16,4.69Z"/><path class="cls-2" d="M7.62,3.66A7.5,7.5,0,0,0,7.1,7.08c.05.37.32,1.09.86,1.08.28,0,.63-.25.83-1.18,0-.21.05-.37.06-.46s-.07-.26-.15,0c-.17.58-.67,1-1.11.27a3.25,3.25,0,0,1,0-2.32c.08-.3.18-.74.18-.74C7.89,3.42,7.75,3.25,7.62,3.66Z"/><path class="cls-2" d="M4.42,3a4.48,4.48,0,0,0-.64,2.55A4.15,4.15,0,0,0,1.93,3.3c-.1-.06-.3.05-.32.36s-.06.62.07.75a3.57,3.57,0,0,0,.57.4c.06,0,.13,0,.15,0s.1-.25.23-.13A3.94,3.94,0,0,1,3.74,6.48c.06.16.21.17.24-.05.08-.54.12-1.48.17-1.77s.25-1.23.76-.8l.24.23c.1.14.24.29.3.14a1.27,1.27,0,0,0,.08-.85C5.48,3.29,4.85,2.49,4.42,3Z"/><path class="cls-2" d="M27.09,2.38a6,6,0,0,0-.36,2.56c0,.27.23.81.62.8.19,0,.44-.18.59-.88,0-.15,0-.28,0-.34s-.05-.2-.1,0c-.13.42-.49.74-.8.19a2.56,2.56,0,0,1,0-1.73c.06-.22.13-.54.13-.54C27.29,2.21,27.19,2.08,27.09,2.38Z"/><path class="cls-2" d="M29.91,2.09c-.05.12-.56,1.18-.56,1.18a2.38,2.38,0,0,1,.22.62c.25,1.43.82,4.61,1.18,7.28a32,32,0,0,1,.49,4.16,2,2,0,0,1-.18.62,5.25,5.25,0,0,0-.78-2.67,26.39,26.39,0,0,0-3.41-3.72c-.17-.17-1.32-1.42-1.74-1.95l-.88-1.05.72.08c.15,0,.35,0,.21-.11S23.23,5.13,23,5s-.29-.26-.29-.11.11,1.21.12,1.31.13.1.24.19.42.61.83,1.11l1.14,1.3c.26.28.72.81.72.81,1,1.13,1.78,1.94,1.95,2.12.43.48,2.91,2.45,3,4.5v.28c-.71,1-2.32,2.3-5.77,3.73-.43.23-.28.36,0,.31s4.58-.56,6.16-3.27a7,7,0,0,0,.59-4.61c-.1-.71-1.26-7.81-1.26-7.81s.6.56.69.67.22,0,.16-.12S30.08,2.25,30,2.15,30,2,29.91,2.09Z"/><path class="cls-2" d="M10.35,2c0,.12-.4,1.09-.4,1.09.08.52.81,5.09.88,5.47s1.43,6.93.93,9.54c0,.18.06.25.15.07S13,16.27,12,11.51c0-.36-1.09-6.73-1.09-6.73s.61.56.7.66.22,0,.16-.11-1.29-3.15-1.33-3.25S10.4,1.9,10.35,2Z"/><path class="cls-2" d="M22.23,2c-.49.24-1,1-.8,1.32a2.13,2.13,0,0,0,.49.48c-.16.09-.34.14-.39.3a1.78,1.78,0,0,0-.06.33c0,.06,0,.1.08.08l.14,0a13.07,13.07,0,0,1,2-.83,1.5,1.5,0,0,0,.09-.36c0-.13-.11-.12-.31-.07s-.95.26-1.34-.07-.39-.41-.27-.48.46-.3.68,0,.22.15.26.06.22-.36.17-.46A.52.52,0,0,0,22.23,2Z"/><path class="cls-2" d="M32.66,1.9l-.42,1c0,.06.11.45.13.6.17,1.31,1.24,9,1.55,11.46.15,1.2.27,2.28.28,2.86,0,.18.07.25.15.08a3.91,3.91,0,0,0,.28-1.48,18.54,18.54,0,0,0-.23-3.5c0-.23-1.14-8.29-1.14-8.29s.6.57.69.67.22,0,.16-.12S32.83,2.06,32.79,2,32.71,1.78,32.66,1.9Z"/><path class="cls-2" d="M15.7,1.56a4.5,4.5,0,0,0-.64,2.55,4.15,4.15,0,0,0-1.85-2.29c-.1-.06-.3.05-.32.36s-.06.62.07.75a5.44,5.44,0,0,0,.57.41c.06,0,.13,0,.15,0s.1-.25.23-.13A3.94,3.94,0,0,1,15,5c.07.16.21.17.24,0,.08-.54.13-1.48.17-1.77s.25-1.22.76-.79c.11.09.24.22.24.22s.24.29.31.14a1.3,1.3,0,0,0,.07-.84C16.76,1.81,16.13,1,15.7,1.56Z"/><path class="cls-2" d="M24.18.08c-.25.12-4.61,2-4.86,2.11s-.34.16-.39.34a2.06,2.06,0,0,1-.1.32c0,.12-.09.26.28.06.11-.06,4.52-1.93,4.73-2s.33-.15.42-.34.12-.21.18-.34S24.55-.1,24.18.08Z"/></g></g></g></svg>