<svg xmlns="http://www.w3.org/2000/svg" viewBox="0 0 38.04 19.06"><defs><style>.cls-1{isolation:isolate;}.cls-2{fill-rule:evenodd;mix-blend-mode:darken;}</style></defs><g class="cls-1"><g id="Layer_2" data-name="Layer 2"><g id="سور_الٌقرآن_الكريم" data-name="سور الٌقرآن الكريم"><path class="cls-2" d="M35.53,18c-.14.05-1.59.51-1.73.57s-.2.08-.24.18a1.47,1.47,0,0,1-.07.17c0,.07-.07.15.15.05l1.66-.54c.12-.06.19-.07.26-.17a1.44,1.44,0,0,0,.11-.19C35.71,18,35.75,18,35.53,18Z"/><path class="cls-2" d="M34.35,16.26c-.31.24-1,.94-.71,1.27l.28.23a.41.41,0,0,0-.22.23,1.43,1.43,0,0,0-.09.19c0,.06,0,.14.11.06a3.44,3.44,0,0,1,1.46-.64c.14,0,.25-.24.25-.24s.17-.31,0-.21a1.91,1.91,0,0,1-.91.22A1.09,1.09,0,0,1,34,17c-.06-.09-.05-.2.12-.3s.37-.17.51.06c0,0,0,0,.11,0a2.07,2.07,0,0,0,.2-.27s.06-.12,0-.17A.36.36,0,0,0,34.35,16.26Z"/><path class="cls-2" d="M27.45,15A4,4,0,0,0,27,16.82c0,.2.14.59.44.61s.36-.11.52-.6l.05-.25c0-.06,0-.14-.09,0-.11.3-.42.51-.63.1a1.68,1.68,0,0,1,.1-1.25c.06-.16.13-.39.13-.39C27.62,14.88,27.55,14.78,27.45,15Z"/><path class="cls-2" d="M21.35,15a3.79,3.79,0,0,0-.56,1.85c0,.2.13.62.47.65.18,0,.42-.1.61-.59,0-.12.06-.21.07-.25s0-.15-.1,0c-.14.3-.49.5-.72.07,0-.09-.18-.47.17-1.28.08-.16.17-.39.17-.39C21.54,14.87,21.46,14.77,21.35,15Z"/><path class="cls-2" d="M15.45,14c-.16.07-5,1.94-5.46,2.24a1.4,1.4,0,0,0-.56.7c-.14.43-.08.88.2,1a.6.6,0,0,1,.34.25s0,0,.06,0a.53.53,0,0,0-.26-.88c-.15-.06-.2-.28.42-.58s4.85-2,5-2.06.27-.12.35-.27a1.8,1.8,0,0,0,.14-.28C15.71,13.93,15.76,13.81,15.45,14Z"/><path class="cls-2" d="M5.07,12a3.83,3.83,0,0,0-.56,1.85c0,.21.13.62.47.65.18,0,.41-.09.61-.59,0-.11,0-.2.07-.25s0-.15-.1,0c-.15.31-.49.5-.72.07,0-.08-.19-.47.17-1.27l.17-.39C5.26,11.91,5.18,11.81,5.07,12Z"/><path class="cls-2" d="M28.24,7.89a3.44,3.44,0,0,0-.37,1.58c0,.18.12.52.38.53s.32-.09.45-.52c0-.09,0-.17,0-.21s0-.13-.07,0-.36.44-.55.08a1.44,1.44,0,0,1,.09-1.08c.05-.13.11-.33.11-.33C28.38,7.79,28.32,7.71,28.24,7.89Z"/><path class="cls-2" d="M24.56,7.49,24,8.2a.06.06,0,0,0,0,.07l.88.63a0,0,0,0,0,.07,0l.51-.7a0,0,0,0,0,0-.07l-.87-.64A0,0,0,0,0,24.56,7.49Z"/><path class="cls-2" d="M4.76,7.24A3.83,3.83,0,0,0,4.2,9.09c0,.21.13.62.47.65.18,0,.41-.09.61-.59,0-.11,0-.2.07-.25s0-.15-.1,0-.49.5-.72.07A1.56,1.56,0,0,1,4.7,7.7c.08-.16.17-.39.17-.39C5,7.13,4.87,7,4.76,7.24Z"/><path class="cls-2" d="M16.28,9.44A3.85,3.85,0,0,0,14.37,8.1c-1.52-.37-2.72,1.2-3,1.53s-1,1.4-1.51,2.14A2.93,2.93,0,0,1,9,11.32a6.28,6.28,0,0,0-.55-1.1c-.13-.17-.13,0-.17.11a6.7,6.7,0,0,0-.11.71A7.56,7.56,0,0,1,9,13.28c-.09.36-.18.88-1.88,1.81-.34.19-3.19,2-5.41.86a2.68,2.68,0,0,1-1.14-3,10.19,10.19,0,0,1,.33-1.27,1.8,1.8,0,0,0,.05-.19.64.64,0,0,0,.51.31c.26,0,.58-.25.76-1.18,0-.21,0-.38.06-.47s-.07-.27-.14,0c-.16.58-.62,1-1,.26a3.5,3.5,0,0,1,0-2.34c.07-.3.16-.74.16-.74.09-.34-.05-.51-.17-.1a8.28,8.28,0,0,0-.45,3.46,1.84,1.84,0,0,0,.09.4,1.12,1.12,0,0,1,0,.13A8.25,8.25,0,0,0,0,14.68a2.9,2.9,0,0,0,3.26,2.73c2.57-.07,5.25-2.27,5.25-2.27a2.44,2.44,0,0,0,.87-2,2.93,2.93,0,0,0,0-.42,8.33,8.33,0,0,0,6.57-1.13,3.06,3.06,0,0,0,.49-1.15A1.09,1.09,0,0,0,16.28,9.44Zm-2.21,2.07a8,8,0,0,1-3.65.38A5.59,5.59,0,0,1,12.79,9.2c.46-.2,1.52-.47,2.91,1.17C16.07,10.84,14.77,11.27,14.07,11.51Z"/><path class="cls-2" d="M23.31,5.11a3,3,0,0,0-.42.61c-.11.17,0,.24.15.11a.59.59,0,0,1,.56-.25c.36,0,1.22,0,.9.21s-.54.37-.54.37c-.2.15-.39.43,0,.27a2.52,2.52,0,0,0,1.22-1c.11-.16.24-.38-.27-.45S23.58,4.82,23.31,5.11Z"/><path class="cls-2" d="M9.55,3.14a5.53,5.53,0,0,0-.49,2.72c0,.29.29.86.77.85.26,0,.57-.2.76-.94,0-.17.05-.3.07-.36s-.07-.22-.14,0c-.16.46-.62.79-1,.22-.07-.11-.34-.64,0-1.84l.17-.58C9.8,3,9.67,2.82,9.55,3.14Z"/><path class="cls-2" d="M30.89,2.59a4.42,4.42,0,0,0-.45,1.94c0,.22.15.64.47.65.17,0,.39-.11.55-.64,0-.11,0-.21.06-.26s0-.15-.09,0c-.13.32-.45.54-.68.11a1.81,1.81,0,0,1,.11-1.33L31,2.66C31.07,2.47,31,2.37,30.89,2.59Z"/><path class="cls-2" d="M5.09,2.41a3.85,3.85,0,0,0-.55,2.2,3.56,3.56,0,0,0-1.6-2c-.09,0-.26,0-.27.31s-.06.54.05.65.9.38.47.83C3,4.63,2,5.63,1.83,5.87s-.23.29,0,.16A2.78,2.78,0,0,0,3.54,4.14a.69.69,0,0,0-.06-.38l.06,0a3.37,3.37,0,0,1,1,1.58c0,.13.17.15.2,0,.07-.47.11-1.29.15-1.53s.21-1.06.65-.69c.1.08.21.19.21.19s.21.26.26.12a1,1,0,0,0,.07-.73C6,2.62,5.46,1.93,5.09,2.41Z"/><path class="cls-2" d="M36.72,2.07c0,.1-.39.87-.39.87s.08.39.1.52c.11,1.13.81,7.83,1,9.94.09,1,.16,2,.16,2.48,0,.16,0,.21.13.07A3.31,3.31,0,0,0,38,14.68a16.78,16.78,0,0,0-.1-3l-.75-7.19.58.59c.09.09.19.05.14-.1s-1-2.74-1.05-2.83S36.77,2,36.72,2.07Z"/><path class="cls-2" d="M29,11.29a15.76,15.76,0,0,0-4.94-1c-.33,0-.72.08-1.2.92a1.92,1.92,0,0,0-.14,2.18c0,.09.1.25.16.43a2,2,0,0,1-1.07-1.31c-.13-.42-.57-3.51-.66-4.3s-.58-5.14-.84-6c-.11-.36-.15-.13-.24,0a3.13,3.13,0,0,0-.18,1.39c.08.52.9,6.81.87,7.25a3,3,0,0,1-.14,1.25,3.44,3.44,0,0,0-.7-2.05,24.35,24.35,0,0,0-2.58-2.48,25.62,25.62,0,0,1-2.27-2.29c-.31-.41-.68-1-.68-1,.22.08.49.15.63.19s.32,0,.09-.2-1.9-1.41-2-1.55-.15-.12-.15,0,0,.72,0,.91,0,.25.13.31a1,1,0,0,1,.3.28,23.27,23.27,0,0,0,3.07,3.61c.18.19,2.68,2,3.63,3.77a2.69,2.69,0,0,1,.3,1c-.57,1-1.94,2.44-5.2,4.13-.24.14-.29.31.07.2S17.45,16.29,18,16a5.7,5.7,0,0,0,3-3.7,3.4,3.4,0,0,0,2.29,2.73,2.22,2.22,0,0,1,.12.61c0,.33,0,.33.13.19a1.51,1.51,0,0,0,.21-.73l.38,0A7.77,7.77,0,0,0,28,13.77c1.9-1.28,2.93-1,2.93-1l.37-1A11,11,0,0,1,29,11.29Zm-3.74,2.64a4.11,4.11,0,0,1-1.62.07.56.56,0,0,0,0-.12c-.15-.5-.51-1.43-.58-1.65a.67.67,0,0,1,.64-.89,13.5,13.5,0,0,1,5.19,1A23.81,23.81,0,0,1,25.28,13.93Z"/><path class="cls-2" d="M33.73,2c0,.1-.41.85-.41.85a3.87,3.87,0,0,1,.12.64c.05.4.11,1,.18,1.6,0,0,1.11,7.53.88,8.19,0,.08-.08.2-.14.33a3.7,3.7,0,0,0-.61-2.35,25.38,25.38,0,0,0-2.57-2.7,25.63,25.63,0,0,1-2.26-2.5c-.31-.44-.67-1-.67-1l.65.24c.15.05.33,0,.11-.21S27.1,3.5,27,3.34s-.15-.13-.16,0a9.47,9.47,0,0,0,0,1c0,.19,0,.26.12.32a1.27,1.27,0,0,1,.3.31,24,24,0,0,0,3,3.91c.18.2,2.69,2.19,3.6,4.09a2.83,2.83,0,0,1,.27,1.16c-.59.91-1.91,2.26-4.84,3.35-.24.11-.21.28.3.15s3.66-.24,4.88-3c.28-.58.84-1.66.42-4.4-.09-1.12-.69-5.78-.69-5.78l.58.6c.08.09.19,0,.14-.1s-1-2.78-1-2.87S33.78,1.88,33.73,2Z"/><path class="cls-2" d="M22.31.07c-.17.07-4.61,1.71-5.09,2a1.36,1.36,0,0,0-.55.71c-.14.42-.09.87.19,1A.58.58,0,0,1,17.2,4s.05,0,.07,0A.54.54,0,0,0,17,3.11c-.15-.06-.19-.28.42-.58S21.9.77,22,.7s.27-.12.35-.27.1-.17.15-.28S22.61-.08,22.31.07Z"/></g></g></g></svg>