<svg xmlns="http://www.w3.org/2000/svg" viewBox="0 0 36.22 18.85"><defs><style>.cls-1{isolation:isolate;}.cls-2{fill-rule:evenodd;mix-blend-mode:darken;}</style></defs><g class="cls-1"><g id="Layer_2" data-name="Layer 2"><g id="سور_الٌقرآن_الكريم" data-name="سور الٌقرآن الكريم"><path class="cls-2" d="M8.46,16.14c-.22.07-4.59,1.64-4.83,1.74s-.28.14-.33.3-.06.24-.07.26-.1.19.23.06c.16-.07,4.5-1.59,4.72-1.69a.57.57,0,0,0,.36-.29l.14-.3C8.72,16.11,8.78,16,8.46,16.14Z"/><path class="cls-2" d="M16.34,15.77a3.9,3.9,0,0,0-.4,1.84c0,.2.15.6.45.61s.36-.12.51-.61c0-.12,0-.21.05-.25s0-.15-.08,0-.42.51-.65.11a1.81,1.81,0,0,1,.09-1.26c.06-.16.13-.39.13-.39C16.5,15.65,16.43,15.55,16.34,15.77Z"/><path class="cls-2" d="M31.11,14.65a3.94,3.94,0,0,0-.4,1.84c0,.2.15.6.45.61s.37-.11.51-.61l0-.25c0-.06,0-.14-.08,0-.12.3-.42.52-.65.11a1.77,1.77,0,0,1,.1-1.26l.12-.39C31.28,14.53,31.2,14.43,31.11,14.65Z"/><path class="cls-2" d="M10.3,9.93c-.05.18-.24,1.08-.24,1.08.21.23,1.14,1.25.91,1.47s-2.33,1.88-7.33,2.26c-.56,0-3.17,0-3.08-1.84a4.62,4.62,0,0,1,.54-1.69c.08-.2-.14-.32-.27-.1S-.93,13.74.77,15.33c.15.14,1.54,1.38,6.73-.11a7.75,7.75,0,0,0,3.76-2,2.11,2.11,0,0,0,.23-1.91,11.85,11.85,0,0,0-.92-1.34C10.44,9.77,10.35,9.76,10.3,9.93Z"/><path class="cls-2" d="M6.74,9.77l-.49.67-.93-.68a.05.05,0,0,0-.08,0l-.56.77a.05.05,0,0,0,0,.08l1,.7a.06.06,0,0,0,.08,0l.48-.67.94.68a0,0,0,0,0,.07,0l.56-.78a0,0,0,0,0,0-.07l-1-.7A0,0,0,0,0,6.74,9.77Z"/><path class="cls-2" d="M.66,6.1A8.29,8.29,0,0,0,.21,9.52c0,.37.3,1.08.78,1.07.26,0,.57-.24.75-1.17,0-.2,0-.37.06-.45s-.07-.27-.14,0c-.15.57-.61,1-1,.26a3.53,3.53,0,0,1,0-2.32c.08-.3.16-.73.16-.73C.91,5.87.78,5.7.66,6.1Z"/><path class="cls-2" d="M6,5.52A4.51,4.51,0,0,0,5.54,7.8c0,.25.24.72.65.71.22,0,.48-.17.64-.78,0-.14,0-.26.06-.31s-.06-.18-.12,0c-.13.39-.52.67-.85.19-.06-.1-.29-.54,0-1.55.07-.2.15-.49.15-.49C6.17,5.36,6.06,5.25,6,5.52Z"/><path class="cls-2" d="M34.33,2c0,.11-.39,1-.39,1s.1.42.12.56c.16,1.24,1.18,8.56,1.47,10.88.14,1.14.25,2.16.27,2.71,0,.17.06.23.14.07a3.83,3.83,0,0,0,.27-1.4A18.42,18.42,0,0,0,36,12.48c0-.22-1.08-7.86-1.08-7.86s.57.53.66.63.2,0,.15-.11-1.22-3-1.26-3.08S34.38,1.89,34.33,2Z"/><path class="cls-2" d="M27.13,9.14a3.53,3.53,0,0,0-.47.66c-.12.19,0,.27.17.13a.63.63,0,0,1,.62-.28c.39,0,1.33,0,1,.23s-.59.41-.59.41c-.23.16-.43.47,0,.3a2.82,2.82,0,0,0,1.34-1.05c.12-.18.26-.42-.29-.5S27.41,8.82,27.13,9.14Z"/><path class="cls-2" d="M22.09,7.45a4.9,4.9,0,0,0-.44,2.43c0,.26.26.77.69.76.23,0,.51-.18.68-.84,0-.15.05-.27.06-.32s-.06-.19-.12,0c-.15.41-.56.71-.91.19-.06-.1-.3-.57,0-1.64l.15-.52C22.31,7.29,22.2,7.17,22.09,7.45Z"/><path class="cls-2" d="M29,5.87a1.86,1.86,0,0,0-.15-1.4c-.07-.12-.47-.5-1,.23-.19.27-.35,1-.09,1.15a3.78,3.78,0,0,0,.64.37A17.93,17.93,0,0,1,24.7,9.47c-.19.1-.16.2-.05.17a8.47,8.47,0,0,0,2.19-1.15,9.33,9.33,0,0,0,1.92-2.15s.3.26.34.31.14.21.19.09A.69.69,0,0,0,29,5.87Zm-.28-.18-.51-.25c-.15-.07-.23-.17-.16-.27.26-.34.38-.32.47-.26A.94.94,0,0,1,28.75,5.69Z"/><path class="cls-2" d="M27.76,2.5,17.76,8c-.28.15-.36.21-.4.41s-.06.31-.07.35-.1.28.3.06c.12-.08,9.65-5.24,9.87-5.39s.35-.19.44-.4.1-.25.15-.4S28.16,2.29,27.76,2.5Z"/><path class="cls-2" d="M34.18,11.78a2,2,0,0,0-1.91,0l-.05,0a4.17,4.17,0,0,1-.39-1.05c-.22-.86-1.23-6.25-1.23-6.25s.57.54.66.64.2,0,.15-.12-1.24-2.88-1.27-3S30.06,1.89,30,2s-.42.94-.42.94a4.75,4.75,0,0,1,.16.69c.05.36,1.36,7.41,1.5,7.89,0,.14.11.38.21.66l-.68.31a2.94,2.94,0,0,1-2.35-.05L28,11.66c-.05-.09-.1-.19-.16-.08a7.84,7.84,0,0,0-.2.77.22.22,0,0,0,.05.22,10.34,10.34,0,0,1,.77,2c0,.19.08.41-.09.58a9.29,9.29,0,0,1-3.74,2.43c-.35.1-2.77.66-2.9-1.34a4.76,4.76,0,0,1,0-1,.61.61,0,0,0,0-.14,1.47,1.47,0,0,0,.78-.11c.19-.08.66-.25,1.1-1.2a1.56,1.56,0,0,0,1.65.45c.16-.06.94-.52.81-2a4.55,4.55,0,0,0-.43-1c-.11-.15-.14-.12-.19,0a2.77,2.77,0,0,0-.14.46.74.74,0,0,0,0,.39c0,.11.21.5.26.66s.07.36-.15.43-1.32.28-1.53-.62A2.65,2.65,0,0,1,24,12c.05-.18,0-.32-.17-.11a7.19,7.19,0,0,1-.91,1.75c-.25.15-1.57.86-1.8-.5.05-.18.08-.34.13-.5s0-.48-.2-.23-.52.91-.76,1.16a2.21,2.21,0,0,1-2.74.33,3.37,3.37,0,0,1-1.14-2.12c-.08-.37-.5-2.86-.5-2.86a50.67,50.67,0,0,0-1.38-7c-.08-.19-.16-.12-.23.15a2.44,2.44,0,0,0-.08,1.39c.15.82.91,4.83,1,5.3s.37,2.33.35,2.73a4.26,4.26,0,0,1-.15,1A5.24,5.24,0,0,0,14.49,10,16.89,16.89,0,0,0,12.2,7.75,35.31,35.31,0,0,1,9,4.6c.23.08.4.07.56.12s.33,0,.1-.2S7.74,3.16,7.61,3s-.15-.13-.16,0,0,.72,0,.91a.34.34,0,0,0,.13.32.87.87,0,0,1,.31.28,30.37,30.37,0,0,0,3.32,3.56A16.12,16.12,0,0,1,14.92,12a3,3,0,0,1,.31,1.16,5.85,5.85,0,0,1-2,2.34c-.29.22-2.93,1.87-3.09,2s-.07.16.1.13,3.2-.74,4.25-2.12a4.83,4.83,0,0,0,1.31-2.94c.07.2.67,2.92,2.71,2.95a2.66,2.66,0,0,0,2.16-1.27,1.38,1.38,0,0,0,.73.85.36.36,0,0,0,0,.11c0,.23-.61,3,1.36,3.63.27.08,1.8.39,4.09-1.18a6.7,6.7,0,0,0,1.83-1.88,7.93,7.93,0,0,0,.23-1.88,4.68,4.68,0,0,0,2.63-.5l.33-.22a3.76,3.76,0,0,0,.82,1.09c.14.11,1.44.89,1.92-.46C34.67,13.54,34.93,12.31,34.18,11.78Zm-.24,1.61a1.17,1.17,0,0,1-1-.5s-.07-.09-.13-.18a1.64,1.64,0,0,1,.81.07C33.81,12.86,34.44,13.31,33.94,13.39Z"/><path class="cls-2" d="M20.32,2a4,4,0,0,0-.38,2.32,3.75,3.75,0,0,0-1.82-1.91c-.09,0-.26.06-.26.34s0,.56.11.67a5.29,5.29,0,0,0,.54.32c.06,0,.12,0,.14,0s.07-.23.19-.12A3.41,3.41,0,0,1,20,5.07c.07.13.19.14.21-.06,0-.49,0-1.34,0-1.59s.14-1.12.62-.77l.23.18c.11.12.24.25.29.1a1.1,1.1,0,0,0,0-.76C21.29,2.09,20.67,1.43,20.32,2Z"/><path class="cls-2" d="M4.71,1.91a4.58,4.58,0,0,0-.62,2.55A4.18,4.18,0,0,0,2.26,2.17c-.09-.06-.29.05-.31.36s-.06.62.07.75a3.55,3.55,0,0,0,.56.4c.06,0,.13,0,.15,0s.1-.26.22-.13A3.59,3.59,0,0,1,4,5.09c.18.75-1.65,2.25-1.75,2.32s-.11.2,0,.16a11,11,0,0,0,1.1-.68,2,2,0,0,0,1-1.52.19.19,0,0,0,0-.08c.08-.54.12-1.47.16-1.76s.25-1.22.75-.79A2.12,2.12,0,0,1,5.43,3c.1.14.23.29.3.13a1.15,1.15,0,0,0,.07-.83C5.75,2.16,5.13,1.37,4.71,1.91Z"/><path class="cls-2" d="M15.83.07,11.1,2.34c-.21.1-.27.16-.3.32s-.05.24-.06.27-.06.19.23,0L15.6.76c.18-.1.27-.15.33-.32a1.84,1.84,0,0,0,.12-.3C16.09,0,16.15-.07,15.83.07Z"/></g></g></g></svg>