<svg xmlns="http://www.w3.org/2000/svg" viewBox="0 0 35.39 18.45"><defs><style>.cls-1{isolation:isolate;}.cls-2{fill-rule:evenodd;mix-blend-mode:darken;}</style></defs><g class="cls-1"><g id="Layer_2" data-name="Layer 2"><g id="سور_الٌقرآن_الكريم" data-name="سور الٌقرآن الكريم"><path class="cls-2" d="M13.86,15.34a4.73,4.73,0,0,0-.37,2.2c0,.24.21.69.57.69.19,0,.43-.16.57-.75,0-.14,0-.24,0-.3s-.05-.17-.1,0c-.12.36-.46.63-.75.16a2,2,0,0,1,0-1.49c.06-.19.13-.46.13-.46C14,15.19,14,15.08,13.86,15.34Z"/><path class="cls-2" d="M12.28,15.2c-.2.12-4.66,2.34-4.86,2.48s-.28.18-.31.34a2.42,2.42,0,0,1-.06.28c0,.11,0,.25.25,0,.09-.07,4.59-2.31,4.76-2.43s.27-.16.34-.33a3.1,3.1,0,0,0,.11-.32C12.55,15.14,12.59,15,12.28,15.2Z"/><path class="cls-2" d="M25.53,14.35a4.3,4.3,0,0,0-.44,2c0,.23.16.67.5.68.18,0,.4-.13.57-.68,0-.13,0-.22.05-.27s0-.17-.09,0c-.13.34-.47.58-.72.12a1.86,1.86,0,0,1,.11-1.4c.06-.17.14-.43.14-.43C25.72,14.21,25.63,14.1,25.53,14.35Z"/><path class="cls-2" d="M32.79,14A4.35,4.35,0,0,0,32.35,16c0,.22.16.66.5.67.18,0,.4-.12.57-.68,0-.12,0-.22,0-.27s0-.16-.09,0c-.13.34-.47.57-.72.12a1.89,1.89,0,0,1,.1-1.4c.07-.18.15-.44.15-.44C33,13.82,32.89,13.71,32.79,14Z"/><path class="cls-2" d="M3.49,11.35a4.74,4.74,0,0,0-.36,2.2c0,.24.21.7.57.69.19,0,.42-.16.56-.75,0-.14,0-.24,0-.3s0-.17-.1,0c-.12.36-.46.63-.75.16a2,2,0,0,1,0-1.49c.06-.18.13-.47.13-.47C3.68,11.2,3.58,11.09,3.49,11.35Z"/><path class="cls-2" d="M5.09,10.35l-.59.81a.06.06,0,0,0,0,.08l1,.73a.06.06,0,0,0,.08,0l.59-.8a.06.06,0,0,0,0-.08l-1-.73A.06.06,0,0,0,5.09,10.35Z"/><path class="cls-2" d="M6.08,5.88a4.74,4.74,0,0,0-.36,2.2c0,.24.21.69.57.69.19,0,.42-.16.56-.75,0-.14,0-.25.05-.3s-.05-.17-.1,0c-.12.36-.46.63-.75.16a2,2,0,0,1,0-1.49c.06-.19.13-.47.13-.47C6.27,5.73,6.18,5.62,6.08,5.88Z"/><path class="cls-2" d="M.57,5.51a9.47,9.47,0,0,0-.53,4A1.7,1.7,0,0,0,.7,10.66v0c-.21.34-2,4.84,1.44,5.95.75.24,2.72.72,6.37-1.89.34-.25,2-1.27,1.61-3,0-.24-1-2.46-1-2.46.22.1.36.14.44.18s.22-.05.1-.22S8.74,8.07,8.72,8a1.38,1.38,0,0,1-.08-.2c0-.09-.08-.07-.12,0s-.26.79-.27.86a6.26,6.26,0,0,0,.26,1,23.15,23.15,0,0,0,1,2.25.73.73,0,0,1,0,.81,10.39,10.39,0,0,1-5,2.78C4,15.63,2,16,1,14.52.79,14.27,0,13,.91,10.73v0H1c.29,0,.65-.28.86-1.35,0-.24.05-.44.07-.53s-.08-.31-.16,0C1.55,9.51,1,10,.56,9.15a4.07,4.07,0,0,1,0-2.69c.09-.34.19-.84.19-.84C.85,5.24.7,5,.57,5.51Z"/><path class="cls-2" d="M7.85,2.51A4.72,4.72,0,0,0,7.49,4.7c0,.24.21.7.57.7.19,0,.42-.16.56-.76,0-.13,0-.24.05-.29s-.05-.17-.1,0c-.12.37-.46.64-.75.17A2,2,0,0,1,7.85,3c.06-.19.13-.47.13-.47C8,2.36,7.94,2.25,7.85,2.51Z"/><path class="cls-2" d="M4.94,1.39a4.76,4.76,0,0,0-.43,2.69A4.29,4.29,0,0,0,2.42,1.87c-.1-.05-.3.07-.29.4s0,.65.13.77a4.73,4.73,0,0,0,.62.37c.07,0,.14,0,.15-.05s.09-.27.22-.15a3.63,3.63,0,0,1,1.2,1.54c.25.76-1.52,2.48-1.62,2.56s-.1.22,0,.17a8.28,8.28,0,0,0,1.08-.8A2.13,2.13,0,0,0,4.78,5s0,0,0-.08c0-.57,0-1.55,0-1.85S5,1.8,5.51,2.2c.13.09.27.21.27.21s.27.28.32.12a1.27,1.27,0,0,0,0-.88C6,1.56,5.33.78,4.94,1.39Z"/><path class="cls-2" d="M14.59,8.63a4.35,4.35,0,0,0-.44,2c0,.22.16.66.5.67.18,0,.4-.13.56-.68,0-.12,0-.22.06-.27s0-.17-.09,0c-.13.33-.47.57-.72.12a1.89,1.89,0,0,1,.1-1.4c.07-.18.15-.44.15-.44C14.77,8.5,14.69,8.39,14.59,8.63Z"/><path class="cls-2" d="M22.36,9a3.24,3.24,0,0,0-.49.69c-.12.2,0,.28.17.13a.69.69,0,0,1,.65-.29c.41,0,1.39,0,1,.24l-.61.43c-.24.17-.45.49,0,.31a3,3,0,0,0,1.4-1.1c.12-.18.27-.43-.31-.52S22.66,8.69,22.36,9Z"/><path class="cls-2" d="M18.34,5.58l-.51.69-1-.71a.06.06,0,0,0-.08,0l-.59.8a.06.06,0,0,0,0,.08l1,.73a.05.05,0,0,0,.08,0l.51-.7,1,.71a.05.05,0,0,0,.08,0l.59-.81a0,0,0,0,0,0-.07l-1-.74A.05.05,0,0,0,18.34,5.58Z"/><path class="cls-2" d="M26.62,5.54l-.59.8a.06.06,0,0,0,0,.08l1,.73a.06.06,0,0,0,.08,0l.59-.81a.06.06,0,0,0,0-.08l-1-.73A.05.05,0,0,0,26.62,5.54Z"/><path class="cls-2" d="M21.63,2.83a4.45,4.45,0,0,0-.45,2.05c0,.22.16.66.5.67.18,0,.41-.12.57-.68,0-.12,0-.22.05-.27s0-.16-.09,0c-.13.33-.46.57-.71.12a1.89,1.89,0,0,1,.1-1.4l.14-.44C21.81,2.7,21.72,2.59,21.63,2.83Z"/><path class="cls-2" d="M22.85.32c-.2.12-9,4.11-9.63,4.55a1.79,1.79,0,0,0-.65,1c-.14.57,0,1.15.36,1.22a.71.71,0,0,1,.46.3s.07,0,.09,0A.7.7,0,0,0,13,6.23c-.2-.06-.28-.34.48-.79s8.88-4.16,9-4.26S22.89,1,23,.79a4.11,4.11,0,0,0,.16-.38C23.19.26,23.24.1,22.85.32Z"/><path class="cls-2" d="M14.38.27A4.18,4.18,0,0,0,14,2.19c0,.21.16.62.47.63s.38-.12.53-.63L15,1.93c0-.07,0-.15-.09,0-.12.31-.44.54-.67.11A1.74,1.74,0,0,1,14.35.74c.06-.16.14-.41.14-.41C14.55.15,14.47.05,14.38.27Z"/><path class="cls-2" d="M27.69,2.16A2.28,2.28,0,0,0,27.56.42c-.08-.15-.56-.64-1.2.24-.25.34-.47,1.16-.16,1.42a4.63,4.63,0,0,0,.78.48,21.62,21.62,0,0,1-4.76,3.87c-.24.12-.2.24-.06.22A11,11,0,0,0,24.89,5.3a11.44,11.44,0,0,0,2.46-2.58s.36.33.41.4.16.26.22.11A.82.82,0,0,0,27.69,2.16Zm-.33-.24s-.42-.23-.62-.32-.28-.23-.18-.35c.32-.4.47-.38.58-.31A1.19,1.19,0,0,1,27.36,1.92Z"/><path class="cls-2" d="M31.69,8.13l-1-5.28.69.65c.09.11.21,0,.15-.11S30.24.29,30.2.18,30.12,0,30.07.12s-.39,1-.39,1c0,.2,1.84,10.13,1.92,10.62,0,.16.15.69,0,.88-.29.41-3,1.47-3.85-.11a2.35,2.35,0,0,0,1.14-2.73C28.42,7.71,27.42,8.05,27,8.4S26,9.8,26.61,11.83c-.93.56-3.35,1.43-4.65,2.46-.87.7-1.85,2.23-2.29,2.61-1.09,1.13-3.1,1.23-2.37-1.46.16-.54.25-.82.33-1.06a9.54,9.54,0,0,0,1.5-.67,2,2,0,0,0,1.24-1.51,6,6,0,0,0,0-.86,4,4,0,0,0-1.46-2.77,1.22,1.22,0,0,0-1.66.11,2.14,2.14,0,0,0-.53,2.17,1.6,1.6,0,0,0,1.87.56c.31-.1,1-.06,1.15.25s.16.29,0,.47-3.63,2.49-6.41,1.09c-.37-.19-1.25-.94-1.56-4.09-.08-.83-.44-7-1.37-8.87-.12-.26-.14-.19-.21,0s-.38.81-.28,1.08c.66,1.38,1.21,7.86,1.38,9,.08.56.16,3.46,2.46,4.24a5.89,5.89,0,0,0,3.41-.09c-.33.91-1,3.19.92,3.83a2.39,2.39,0,0,0,2.56-1.15A8.74,8.74,0,0,1,24.34,14c.69-.28,2.4-1.08,2.7-1.21a2.68,2.68,0,0,0,3.17,1.67,2.19,2.19,0,0,0,1.92-1.91A14.54,14.54,0,0,0,31.69,8.13ZM17.45,10.21c-.38-.2.07-.55.25-.63a1.13,1.13,0,0,1,1.32.64A2.78,2.78,0,0,1,17.45,10.21Zm9.35.25c-.09-.39.05-.7.48-1s1,.61,1.1.86c.33.62-1,1.19-1.16,1.29A4.83,4.83,0,0,1,26.8,10.46Z"/><path class="cls-2" d="M33.42.06c-.05.12-.34.91-.34.91.08.52.76,6.07.81,6.45s1,6.66,1,8.4c0,.17.07.24.15.07s.64-1.33,0-5.58L34,2.78s.6.56.69.66.21.05.16-.11S33.59.22,33.55.12,33.47-.06,33.42.06Z"/></g></g></g></svg>