<svg xmlns="http://www.w3.org/2000/svg" viewBox="0 0 32.32 21.1"><defs><style>.cls-1{isolation:isolate;}.cls-2{fill-rule:evenodd;mix-blend-mode:darken;}</style></defs><g class="cls-1"><g id="Layer_2" data-name="Layer 2"><g id="سور_الٌقرآن_الكريم" data-name="سور الٌقرآن الكريم"><path class="cls-2" d="M22.78,18.76l-.74,1v.1l1.29.94h.09l.74-1V19.7l-1.28-.94Zm-8.92-1.59a5.67,5.67,0,0,0-.44,2.77c0,.29.29.88.73.88.25,0,.55-.19.74-.93a1,1,0,0,0,0-.36c0-.09,0-.18-.14,0-.15.45-.6.79-1,.2a2.32,2.32,0,0,1,0-1.87c.05-.25.15-.6.15-.6C14.11,17,14,16.88,13.86,17.17ZM29.44,15.8a6.38,6.38,0,0,0-.5,3c0,.34.3.94.79.94.25,0,.6-.2.79-1a1.59,1.59,0,0,0,.05-.39c0-.1-.05-.25-.15,0-.14.49-.64.88-1,.24a2.72,2.72,0,0,1,.05-2,2.94,2.94,0,0,0,.14-.64C29.68,15.6,29.54,15.45,29.44,15.8ZM12.68,9.48c-.3.15-5.33,2.36-5.63,2.51s-.39.2-.44.45a1.27,1.27,0,0,1-.15.34c0,.15-.1.3.35.05.15-.1,5.27-2.32,5.47-2.46s.4-.2.49-.4a3.68,3.68,0,0,0,.2-.39C13,9.43,13.07,9.23,12.68,9.48Zm13-.71c-.3.15-5.32,2.37-5.62,2.52l-.05,0c-.3.15-.39.2-.44.44s-.1.35-.1.4-.1.29.34.05c.15-.1,5.28-2.32,5.48-2.47s.39-.2.49-.39a3,3,0,0,0,.2-.4C26,8.72,26,8.53,25.64,8.77ZM15.14,6.28l-.74,1v.1l1.28.94h.1l.64-.89,1.23.94h.1l.74-1v-.1l-1.28-.93h-.1l-.64.88-1.23-.93ZM2.86,4.54l-.74,1L.84,4.64H.74L0,5.67v.1l1.28.94h.1l.74-1,1.28.94h.1l.74-1v-.1L3,4.54ZM21.75,3.11a6.38,6.38,0,0,0-.5,3c.05.35.3.94.79.94.25,0,.6-.2.79-1a1.5,1.5,0,0,0,.05-.39c0-.1-.05-.25-.15,0-.14.49-.64.89-1,.24a2.71,2.71,0,0,1,.05-2,3.1,3.1,0,0,0,.15-.64C22,2.92,21.85,2.77,21.75,3.11ZM1.83.17a5.06,5.06,0,0,0-.4,2.43c0,.28.24.76.64.76.2,0,.47-.16.64-.84a1.7,1.7,0,0,0,0-.32c0-.08,0-.2-.12,0-.11.4-.51.72-.83.2a2.21,2.21,0,0,1,0-1.63A2.63,2.63,0,0,0,2,.25C2,0,1.91-.11,1.83.17ZM17.51,12.49c.54.64-1,1.29-1.24,1.38a4.28,4.28,0,0,1-.54-1,1.17,1.17,0,0,1,.45-1.18C16.52,11.36,17.26,12.2,17.51,12.49Zm-13.46.6c.14.19-.15.54-.15.54a6.15,6.15,0,0,1-1.78.89.72.72,0,0,1-.88-.89,11.57,11.57,0,0,1,1.18-2A8.18,8.18,0,0,1,4.05,13.09ZM26.23.08c-.05.15-.45,1.18-.45,1.18,0,.35,1.74,12.47,1.79,13.4,0,.2.09.55-.15.79a2.37,2.37,0,0,1-3,.2c-.2-.1-.84-.74-.74-1.13s.05-.94-.25-.6a5.12,5.12,0,0,1-3.84,2.37A3.15,3.15,0,0,1,16.92,15s1-.69,1.23-1.33a3.19,3.19,0,0,0-.89-3.55c-.3-.2-.89-.59-1.63.49a4,4,0,0,0-.19,3.5s-1.78.64-3.45,1.09a12.86,12.86,0,0,0-5,3.05c-.4.4-2.37,2.32-3.75,1.48-.25-.15-1.28-.88.2-4.14a.36.36,0,0,0,0-.2,4.35,4.35,0,0,0,1-.83c.15-.15.45-.69.15-2.17-.1-.45-.44-1-1.48-1.78,0,0,1-1.38,1-1.53s.34-1,.39-1.23,0-.34-.15-.15L2.57,10.18a7.71,7.71,0,0,1-.94-.74c-.15-.15,0-.2,0-.2s.35-.1.4-.1.09-.15-.05-.2A12.24,12.24,0,0,1,.5,8.15c-.1,0-.2-.14-.25,0a13,13,0,0,0-.1,1.34c0,.14,0,.24.15.29s1.53,1.33,1.53,1.33A7.43,7.43,0,0,0,.64,14.37c0,.34-.14,1.72,1.19,1.53a3.92,3.92,0,0,0,1-.25c-.39.84-1.67,4,.74,5.33.45.19,1.63.44,3.75-1.58A13.39,13.39,0,0,1,11,17c1-.34,4.63-1.43,4.88-1.53a4,4,0,0,0,2.22,2.12,4.65,4.65,0,0,0,4.73-1.77,3,3,0,0,0,2.86,1.67c.5-.05,1.8,0,2.42-2.26.23-.84.2-1.41-.09-3.37L27,3.63s.74.74.89.84.29,0,.19-.15S26.43.32,26.38.18,26.28-.07,26.23.08ZM20.81.13C20.5.31,8.69,6,8.38,6.21h0c-.31.18-.45.22-.49.49s-.09.4-.09.44-.13.35.35.09c.14-.09,12-5.82,12.3-6s.44-.22.53-.49.13-.31.22-.49S21.29-.14,20.81.13ZM9.53.21a4.86,4.86,0,0,0-.66,2.61A4.54,4.54,0,0,0,7,.47c-.09,0-.31.05-.31.36s-.05.62.09.75l0,0a3.21,3.21,0,0,0,.58.4.12.12,0,0,0,.18,0c0-.09.09-.27.22-.13A3.88,3.88,0,0,1,8.82,3.71c0,.18.22.18.22,0,.09-.58.14-1.51.18-1.82s.27-1.25.8-.8a2.9,2.9,0,0,1,.27.22c.09.13.26.31.31.13a1.47,1.47,0,0,0,.09-.84C10.64.47,10-.37,9.53.21ZM30.13.08c-.05.14-.44,1.13-.44,1.13s.1.49.14.64c.2,1.43,1.39,10,1.73,12.62.15,1.33.3,2.52.3,3.16,0,.2.05.29.15.1a4.54,4.54,0,0,0,.29-1.63,19.94,19.94,0,0,0-.25-3.85c0-.24-1.28-9.12-1.28-9.12s.64.64.79.74.25,0,.2-.15S30.33.27,30.28.12,30.18-.07,30.13.08Z"/></g></g></g></svg>