<svg xmlns="http://www.w3.org/2000/svg" viewBox="0 0 30.32 24.79"><defs><style>.cls-1{isolation:isolate;}.cls-2{fill-rule:evenodd;mix-blend-mode:darken;}</style></defs><g class="cls-1"><g id="Layer_2" data-name="Layer 2"><g id="سور_الٌقرآن_الكريم" data-name="سور الٌقرآن الكريم"><path class="cls-2" d="M11.62,21.88c-.25.13-4.82,1.88-5.08,2s-.35.18-.4.37-.08.3-.1.33-.09.29.29.07c.12-.07,4.74-1.85,5-2s.34-.17.44-.36L11.9,22C12,21.84,12,21.68,11.62,21.88Z"/><path class="cls-2" d="M23.62,20.44a5.24,5.24,0,0,0-.53,2.41c0,.27.19.78.59.8.21,0,.48-.15.67-.8,0-.15,0-.27.07-.33s-.05-.19-.12,0c-.15.4-.54.68-.84.15A2.31,2.31,0,0,1,23.58,21c.08-.21.17-.51.17-.51C23.83,20.29,23.73,20.16,23.62,20.44Z"/><path class="cls-2" d="M6.16,11.81c-.49,1.06-1,2.54,0,2.58.48,0,1,0,1.24,0a.28.28,0,0,1,.24.45,2.52,2.52,0,0,1-1.93.66c-.6,0-1,0-.73.23a2.86,2.86,0,0,0,1.47.44,1.53,1.53,0,0,0,1.4-.53c.48-.89.79-2.49-.12-2.51-1.15,0-1.78-.09-1.28-.67S7.26,12,7.5,12s.25-.11.29-.31.3-1-.18-1.06S6.64,10.76,6.16,11.81Z"/><path class="cls-2" d="M6.55,3.23A5.68,5.68,0,0,0,5.77,6.4,5.15,5.15,0,0,0,3.5,3.55c-.12-.07-.36.06-.38.45,0,.23-.08.77.07.93a5.67,5.67,0,0,0,.7.5c.08.05.16.05.19,0s.13-.31.28-.16a4.49,4.49,0,0,1,1.26,2c.23.92-2.05,2.79-2.17,2.88s-.15.25-.05.2a12,12,0,0,0,1.37-.84A2.52,2.52,0,0,0,6,7.53a.2.2,0,0,0,0-.09c.1-.67.15-1.84.21-2.2s.31-1.52.93-1l.29.29c.13.16.29.36.37.16a1.41,1.41,0,0,0,.09-1C7.84,3.54,7.07,2.55,6.55,3.23Z"/><path class="cls-2" d="M28,2.69,27.48,3.9c0,.06.13.53.15.71.2,1.54,1.46,10.65,1.83,13.53.17,1.42.31,2.69.33,3.38,0,.21.08.29.18.08a4.47,4.47,0,0,0,.33-1.74A23.56,23.56,0,0,0,30,15.73c0-.27-1.35-9.79-1.35-9.79s.71.67.82.79.25.06.19-.14-1.52-3.71-1.57-3.83S28,2.55,28,2.69Z"/><path class="cls-2" d="M21.37,8.87a1.16,1.16,0,0,1,.25,1L21,9.54c-.2-.09-.3-.22-.2-.34C21.11,8.78,21.26,8.8,21.37,8.87Z"/><path class="cls-2" d="M20.57,8.61c-.24.35-.43,1.18-.11,1.43a3.85,3.85,0,0,0,.8.46A12.7,12.7,0,0,1,18,13.75c-.23.15-.19.27-.06.21a7.09,7.09,0,0,0,3.67-3.31s.37.33.42.4.17.25.23.1A.82.82,0,0,0,22,10.08a2.27,2.27,0,0,0-.18-1.74C21.69,8.19,21.19,7.71,20.57,8.61Z"/><path class="cls-2" d="M19.19,3.22a5.64,5.64,0,0,0-.56,2.58c0,.28.21.84.63.85.23,0,.51-.16.72-.86,0-.15.05-.28.07-.34s-.05-.21-.12,0c-.16.43-.58.72-.9.15a2.33,2.33,0,0,1,.13-1.76l.17-.55C19.42,3.05,19.32,2.92,19.19,3.22Z"/><path class="cls-2" d="M28.64,18.09a1.63,1.63,0,0,0-1.56-1.21,3,3,0,0,0-1.64.37,5.37,5.37,0,0,1-.26-.74c-.49-1.85-1.67-10.57-1.67-10.57s.63.57.74.69.26.06.19-.14S23,2.88,23,2.76s-.09-.21-.15-.07l-.53,1.17a4.64,4.64,0,0,1,.2.86c.07.45.16,1.07.26,1.76a80.18,80.18,0,0,0,1.84,11.21l-.26.13c-.5.25-3.3,2-5.68.26-.24-.18-.77-.67-1.2-2.8-.17-.85-1.37-8.66-1.5-9.44s-.55-2.77-.66-3.07-.15-.28-.25,0a9.07,9.07,0,0,0-.2,1.27,3.24,3.24,0,0,0,0,1.07c.07.43,1.79,11.22,1.87,12s.23,2.13,0,2.34-2,1.1-3.09.09c-.25-.24-.72-1.19-1.17-4.11C12.23,14.37,11.12,6.23,11,5.3A15.57,15.57,0,0,0,10.37,3c-.07-.18-.18-.21-.23,0A4,4,0,0,0,10,5.23c.21,1.47,1.35,8.53,1.44,9.32s.45,2.69-.09,3.25A12.85,12.85,0,0,1,5,20.86c-1,.12-5.85.32-3.66-5.52a1.14,1.14,0,0,0,.06-.25c.34,0,.76-.37,1-1.61,0-.29.06-.52.08-.64s-.1-.37-.19,0c-.21.79-.84,1.37-1.4.36A4.94,4.94,0,0,1,.93,10c.1-.41.23-1,.23-1,.11-.46-.07-.7-.24-.14A11.59,11.59,0,0,0,.3,13.6c0,.46.34,1.3.89,1.46a1.09,1.09,0,0,0-.08.15c-.35.7-2.62,4.62.59,6.45.84.48,2.58,1.18,6.42-.38C9,20.93,11.55,19.66,12,18c0,0,.5,2.35,1.45,3.18s2.91.79,3.66-.55a4.28,4.28,0,0,0,.41-2A4.1,4.1,0,0,0,21,20.4a10.86,10.86,0,0,0,3.6-1.3l.37-.21a3,3,0,0,0,.43.73,2.37,2.37,0,0,0,2.43,1.08C28.06,20.66,29.17,20.28,28.64,18.09Zm-.85,1.21a2,2,0,0,1-1.4-.56,2.59,2.59,0,0,1-.27-.32,1.77,1.77,0,0,1,1.61.33C27.9,18.92,28.15,19.26,27.79,19.3Z"/><path class="cls-2" d="M13.88.25a3.56,3.56,0,0,0-.57.83c-.15.23,0,.33.2.15a.8.8,0,0,1,.77-.34c.49,0,1.66,0,1.22.29s-.73.5-.73.5c-.28.21-.53.59,0,.38A3.58,3.58,0,0,0,16.41.74c.15-.22.32-.52-.37-.62S14.24-.14,13.88.25Z"/></g></g></g></svg>