<svg xmlns="http://www.w3.org/2000/svg" viewBox="0 0 34.69 19.05"><defs><style>.cls-1{isolation:isolate;}.cls-2{fill-rule:evenodd;mix-blend-mode:darken;}</style></defs><g class="cls-1"><g id="Layer_2" data-name="Layer 2"><g id="سور_الٌقرآن_الكريم" data-name="سور الٌقرآن الكريم"><path class="cls-2" d="M17.64,16.78c-.08.11-.13.2-.16.24s0,.17.09,0,.66-.37.73.15a2,2,0,0,1-.62,1.3c-.13.14-.3.36-.3.36-.14.16-.1.29.09.1a4.63,4.63,0,0,0,1.19-1.78c.07-.22.09-.69-.23-.83C18.26,16.28,18,16.32,17.64,16.78Z"/><path class="cls-2" d="M12.44,16.31c-.21.11-4.5,1.75-4.72,1.87s-.29.15-.34.31-.06.26-.07.28-.09.24.24.06c.1-.06,4.43-1.72,4.61-1.82s.29-.14.37-.3a3.2,3.2,0,0,0,.14-.31C12.72,16.28,12.77,16.15,12.44,16.31Z"/><path class="cls-2" d="M26,16l-.16.24c0,.07,0,.17.09,0s.66-.38.73.15A2,2,0,0,1,26,17.68c-.13.14-.3.36-.3.36-.14.16-.1.3.09.11A4.62,4.62,0,0,0,27,16.37c.08-.22.1-.7-.22-.84S26.32,15.51,26,16Z"/><path class="cls-2" d="M31.79,15.3l-.16.24c0,.07,0,.17.1,0s.65-.37.72.15c0,.1,0,.56-.62,1.29l-.29.36c-.14.17-.1.3.08.11a4.72,4.72,0,0,0,1.19-1.78c.07-.22.09-.7-.23-.84S32.15,14.84,31.79,15.3Z"/><path class="cls-2" d="M5.74,8.63a9.27,9.27,0,0,0-.61,3.75c0,.41.29,1.2.83,1.21.28,0,.63-.25.86-1.26,0-.23.06-.41.08-.5s-.07-.3-.15,0c-.19.63-.71,1.07-1.12.25a3.86,3.86,0,0,1,.09-2.55c.09-.32.21-.8.21-.8C6,8.38,5.89,8.19,5.74,8.63Z"/><path class="cls-2" d="M28.12,7.09l-.51.69-1-.71a0,0,0,0,0-.07,0l-.59.8A.05.05,0,0,0,26,8l1,.74a.06.06,0,0,0,.08,0l.51-.7,1,.72s.06,0,.07,0l.59-.81a0,0,0,0,0,0-.07l-1-.74A.05.05,0,0,0,28.12,7.09Z"/><path class="cls-2" d="M7.8,5.37a4.22,4.22,0,0,0-.42,1.92c0,.22.16.63.48.64.16,0,.38-.12.53-.64l0-.26c0-.07,0-.15-.09,0-.12.32-.43.54-.67.12a1.77,1.77,0,0,1,.09-1.32c.06-.16.14-.41.14-.41C8,5.25,7.9,5.15,7.8,5.37Z"/><path class="cls-2" d="M18.71,3.83a4.88,4.88,0,0,0-.29,2.23c0,.24.24.69.61.68.18,0,.42-.18.54-.78a2.63,2.63,0,0,0,0-.3c0-.08-.05-.17-.1,0-.1.38-.44.66-.75.2a2,2,0,0,1,0-1.51c.05-.19.11-.48.11-.48C18.9,3.67,18.8,3.56,18.71,3.83Z"/><path class="cls-2" d="M28,3.4c-.2.1-6.91,2.79-7.51,3.2a1.8,1.8,0,0,0-.68,1c-.17.56-.07,1.14.3,1.23a.72.72,0,0,1,.45.32s.07,0,.09,0A.69.69,0,0,0,20.29,8c-.2-.08-.27-.36.51-.78s6.74-2.84,6.9-2.94.35-.17.44-.37a2.66,2.66,0,0,0,.17-.37C28.37,3.35,28.43,3.19,28,3.4Z"/><path class="cls-2" d="M5.92,1.33A4.74,4.74,0,0,0,5.43,4a4.38,4.38,0,0,0-2-2.27c-.11-.05-.31.07-.31.39s0,.66.11.78a7.1,7.1,0,0,0,.61.39c.07,0,.14,0,.16-.05s.09-.27.22-.14A3.6,3.6,0,0,1,5.34,4.69c.23.77-1.59,2.45-1.68,2.53s-.11.21,0,.16a8,8,0,0,0,1.1-.77A2.1,2.1,0,0,0,5.66,5a.24.24,0,0,0,0-.08c.05-.57,0-1.55.06-1.85s.19-1.3.74-.88l.25.22c.12.14.27.29.33.12a1.22,1.22,0,0,0,0-.88C7,1.53,6.33.74,5.92,1.33Z"/><path class="cls-2" d="M10.14.79a9.25,9.25,0,0,0-.61,3.74c0,.42.29,1.21.83,1.22.28,0,.63-.25.86-1.26,0-.23.06-.41.08-.5s-.07-.3-.15,0c-.19.63-.71,1.07-1.12.25a3.86,3.86,0,0,1,.09-2.55c.09-.32.21-.8.21-.8C10.43.54,10.29.35,10.14.79Z"/><path class="cls-2" d="M14.74.4a4,4,0,0,0-.42,1.92c0,.21.15.63.47.64s.38-.12.53-.64c0-.12,0-.21,0-.26s0-.15-.09,0c-.12.32-.43.54-.67.11a1.84,1.84,0,0,1,.1-1.31c.06-.17.13-.41.13-.41C14.91.27,14.83.17,14.74.4Z"/><path class="cls-2" d="M24,.3,13,4.71c-.3.12-.39.17-.46.37s-.1.32-.12.36-.13.27.31.09c.14-.06,10.55-4.23,10.79-4.35S23.93,1,24,.81a4.19,4.19,0,0,0,.21-.38C24.32.27,24.4.13,24,.3Z"/><path class="cls-2" d="M26.59.21a4.14,4.14,0,0,0-.42,1.92c0,.21.16.63.48.64.16,0,.38-.12.53-.64,0-.12,0-.21.05-.26s0-.15-.09,0c-.12.32-.43.54-.67.11a1.84,1.84,0,0,1,.1-1.31c.06-.17.13-.41.13-.41C26.77.08,26.69,0,26.59.21Z"/><path class="cls-2" d="M30.22,2.85l.69.66c.1.11.21.05.16-.11S29.79.28,29.75.18,29.67,0,29.63.12l-.45,1a2.73,2.73,0,0,1,.22.72c.07.45.16,1.07.26,1.78,0,0,1.11,8.31,1.13,8.52s.13,1-.07,1.1a3.26,3.26,0,0,1-2.32.47,4,4,0,0,0,.68-2.79c0-.19-.58-1.67-1.61-.83s-1.54,2.85-1,3.56a11.65,11.65,0,0,1-2.39.71c.13-.14,1.68-1.73,1-2.85a2.69,2.69,0,0,0-3.83-.89A15.12,15.12,0,0,0,18,14.14a1.45,1.45,0,0,1-1.09-1.23c0-.18,0-.4-.31-.1s-.93,1.48-2.17,1.68a1.84,1.84,0,0,1-2.23-1.77v0a9.54,9.54,0,0,0,4.53-1.37c.63-.38,1.58-1.61,1.22-2.5a2.54,2.54,0,0,0-2.56-1.69c-.48,0-2.58.23-4.78,4.16a1.59,1.59,0,0,1-1.2-1.16c-.07-.16-.16-.2-.22,0s-.14.89-.14.89A7,7,0,0,1,10,13.29C9.88,13.8,9,15,6.43,16c-.59.2-3.92,1.68-5.64-1.15A4.24,4.24,0,0,1,1,11.33h.12c.3,0,.67-.26.91-1.33,0-.24.07-.43.09-.53s-.08-.31-.16,0c-.2.66-.75,1.12-1.19.26a4.17,4.17,0,0,1,.1-2.69c.1-.34.22-.85.22-.85.1-.38,0-.58-.19-.11a9.47,9.47,0,0,0-.65,4,1.82,1.82,0,0,0,.49,1.13c-.34.73-1.77,4,.56,5.83.54.43,2.84,1.62,6.36-.44.59-.34,2.59-1.47,2.7-3a7.65,7.65,0,0,0,0-1,7.4,7.4,0,0,0,1.48.13v.06c0,.63-.12,2.66,1.82,2.86a3.09,3.09,0,0,0,2.92-1.53,1.92,1.92,0,0,0,.91,1.1,8,8,0,0,0-.39.85c-.07.21,0,.34.17.17s.45-.58.62-.82a7.1,7.1,0,0,0,3.23.31,16.71,16.71,0,0,0,6-1.27,3.69,3.69,0,0,0,3.54.05c.24-.15.45-.62.68-1.54C31.67,11.46,30.22,2.85,30.22,2.85Zm-19.1,8.56s2-3.87,4.91-2.84c.79.29,1.39,1,1.29,1.13A8.45,8.45,0,0,1,11.12,11.41Zm7.51,2.92a6.89,6.89,0,0,1,2.69-2.74,2.57,2.57,0,0,1,2.75.54c.6.5.29.77.07,1A7.17,7.17,0,0,1,18.63,14.33Zm8.79-1.11a1.1,1.1,0,0,1-.64-.6c-.12-.41.36-1.11.8-1.45a.6.6,0,0,1,.93.39C28.93,12.72,27.42,13.22,27.42,13.22Z"/><path class="cls-2" d="M32.77.06c-.05.12-.34.92-.34.92.08.52.77,6.09.81,6.47s.95,6.2,1,8c0,.18.07.24.15.07s.64-1.33,0-5.59c0-.36-1-7.09-1-7.09l.69.66c.09.1.21,0,.16-.11S32.94.22,32.9.12,32.82-.06,32.77.06Z"/></g></g></g></svg>