<svg xmlns="http://www.w3.org/2000/svg" viewBox="0 0 31.03 21.03"><defs><style>.cls-1{isolation:isolate;}.cls-2{fill-rule:evenodd;mix-blend-mode:darken;}</style></defs><g class="cls-1"><g id="Layer_2" data-name="Layer 2"><g id="سور_الٌقرآن_الكريم" data-name="سور الٌقرآن الكريم"><path class="cls-2" d="M11.32,18.38c-.2.1-4.59,1.82-4.8,1.94s-.28.14-.32.29l-.07.27c0,.1-.08.22.23.05.09-.05,4.52-1.8,4.69-1.89s.27-.13.35-.29a3,3,0,0,0,.13-.29C11.58,18.35,11.62,18.22,11.32,18.38Z"/><path class="cls-2" d="M23,18.16c-.08.1-.13.19-.16.23s0,.16.09,0,.65-.35.7.16a1.9,1.9,0,0,1-.64,1.26c-.12.13-.29.34-.29.34-.15.16-.11.29.07.1a4.27,4.27,0,0,0,1.21-1.71c.08-.21.11-.68-.2-.82S23.31,17.71,23,18.16Z"/><path class="cls-2" d="M13.5,17.11l-.67.92a.07.07,0,0,0,0,.09L14,19a.06.06,0,0,0,.09,0l.67-.92a.07.07,0,0,0,0-.09l-1.15-.84S13.53,17.08,13.5,17.11Z"/><path class="cls-2" d="M23.11,8.41l-.67.92a.06.06,0,0,0,0,.09l1.14.83a.06.06,0,0,0,.09,0l.67-.92a.06.06,0,0,0,0-.09L23.2,8.39A.07.07,0,0,0,23.11,8.41Z"/><path class="cls-2" d="M5.38,7A6.53,6.53,0,0,0,5,9.84c0,.31.27.91.71.9.23,0,.52-.21.68-1,0-.17,0-.31.06-.38s-.07-.23-.13,0c-.14.48-.56.84-.92.23a2.84,2.84,0,0,1,0-2c.07-.25.15-.62.15-.62C5.61,6.75,5.49,6.61,5.38,7Z"/><path class="cls-2" d="M10.5,4.08a4.87,4.87,0,0,0-.73,1c-.19.29.05.42.26.19a1,1,0,0,1,1-.44c.61,0,2.09,0,1.54.37s-.93.64-.93.64c-.35.26-.67.74,0,.47a4.44,4.44,0,0,0,2.11-1.65c.18-.29.4-.66-.46-.79S11,3.59,10.5,4.08Z"/><path class="cls-2" d="M23.59,2.62l-8.74,4c-.29.13-.38.19-.44.39l-.1.36c-.05.14-.12.28.31.07.13-.06,8.38-3.76,8.61-3.89s.36-.17.47-.38.13-.25.19-.4S24,2.43,23.59,2.62Z"/><path class="cls-2" d="M5.64.88a4.6,4.6,0,0,0-.45,2.64A4.18,4.18,0,0,0,3.14,1.34c-.11-.05-.3.07-.3.39s0,.64.13.75a4.13,4.13,0,0,0,.61.37c.06,0,.13,0,.15-.05s.08-.26.22-.14A4,4,0,0,1,5.22,4.42c.07.16.22.16.23-.06,0-.56,0-1.52,0-1.81s.16-1.26.71-.87c.12.09.25.21.25.21s.27.28.33.12a1.21,1.21,0,0,0,0-.86C6.73,1.06,6,.3,5.64.88Z"/><path class="cls-2" d="M16.91.82a5.23,5.23,0,0,0-.53,2.44c0,.26.19.79.59.8.21,0,.48-.15.67-.81,0-.15.06-.27.07-.32s0-.2-.11,0c-.15.41-.55.69-.85.15a2.34,2.34,0,0,1,.12-1.66C17,1.21,17,.9,17,.9,17.12.67,17,.54,16.91.82Z"/><path class="cls-2" d="M27.18,13c0-.42-.46-3.61-.46-3.61l-1-6.31s.69.58.8.7.24,0,.18-.13S25.3.25,25.26.14s-.09-.2-.15-.07-.5,1.12-.5,1.12A4.42,4.42,0,0,1,24.8,2c.08.51.18,1.25.3,2.06.06.51,1.21,7.94,1.3,8.68s.37,2,0,2.27a2.36,2.36,0,0,1-1.89.31c-.06,0-.28-.07-.57-.17a3.46,3.46,0,0,0,.59-1.36,2.62,2.62,0,0,0-.47-2.2.81.81,0,0,0-1.24.09,5.27,5.27,0,0,0-1.21,2.09,2.1,2.1,0,0,0,.2,1.69l-.55.25c-.34.12-3.34,1.28-4.46-.59a2.82,2.82,0,0,1-.17-2.38c1.33-.67,3-1.51,3-1.51.19-.4.56-1.53.56-1.53-.36-.11-6.89-1.12-9.5-.56-.64.15-2.18.38-2.2,2.14a2.16,2.16,0,0,0,.84,1.35,8.53,8.53,0,0,1,1.55,1.22l-.32.11a17.62,17.62,0,0,0-7.06,5.09C3,19.48,1.9,20.23,1,19.54.7,19.33.18,18.8.5,17.47a13.36,13.36,0,0,1,1.56-3.41.83.83,0,0,0,.07-.13c.34,0,.75-.39,1.11-1.51.08-.3.13-.53.16-.64s0-.39-.19,0c-.32.78-1,1.29-1.47.19-.07-.21-.35-1.2.42-3.28.15-.4.35-1,.35-1,.17-.45,0-.72-.22-.17a12,12,0,0,0-1.22,4.76,2,2,0,0,0,.6,1.54,14,14,0,0,0-1.5,3.3c-.35,1.32-.39,3.73,2,3.91.43,0,1.38-.2,2.59-1.57.47-.54,2.85-3,5-3.78.28-.1,1-.41,1.92-.77a2.75,2.75,0,0,1,.21.51c.07.21.12.27.24,0a1.62,1.62,0,0,0,.14-.73L15,13.54c.18-.07.6-.27,1.11-.53-.2.91-.63,3.23,1.27,4.22.32.15,2.26,1,5.06-.78l.32-.19a3.21,3.21,0,0,0,.62.23c.28.08,2.25.79,3.16-.38A5.09,5.09,0,0,0,27.18,13Zm-15.34.46a4.06,4.06,0,0,0-.49-.64c-.31-.34-1.68-1.32-1.81-1.45s-.62-.36,0-.61,2.86-.88,8.56,0c.18,0-.9.53-1.33.73S13.83,12.73,11.84,13.49Zm11.22,1.32a3,3,0,0,1-.82-.51c-.15-.13-.27-.16-.11-.47a2.93,2.93,0,0,1,.87-1,.66.66,0,0,1,.85.4c.21.47.29.82.12,1A6.77,6.77,0,0,1,23.06,14.81Z"/><path class="cls-2" d="M28.79.07c-.06.13-.47,1.16-.47,1.16s.12.5.14.67c.19,1.47,1.4,10.19,1.74,12.94.17,1.36.31,2.58.32,3.23,0,.2.08.28.17.08A4.16,4.16,0,0,0,31,16.49a22.29,22.29,0,0,0-.26-3.95c0-.26-1.29-9.36-1.29-9.36s.68.63.79.75.24,0,.17-.13S29,.25,28.93.14,28.84-.07,28.79.07Z"/></g></g></g></svg>