<svg xmlns="http://www.w3.org/2000/svg" viewBox="0 0 32.32 23.61"><defs><style>.cls-1{isolation:isolate;}.cls-2{fill-rule:evenodd;mix-blend-mode:darken;}</style></defs><g class="cls-1"><g id="Layer_2" data-name="Layer 2"><g id="سور_الٌقرآن_الكريم" data-name="سور الٌقرآن الكريم"><path class="cls-2" d="M11.2,20.94c-.23.11-4.27,1.73-4.51,1.87s-.32.16-.37.34-.07.27-.08.3-.09.26.26.06c.11-.06,4.19-1.7,4.39-1.81s.31-.15.4-.33a3.11,3.11,0,0,0,.16-.34C11.5,20.9,11.56,20.76,11.2,20.94Z"/><path class="cls-2" d="M21.63,18.71a4.72,4.72,0,0,0-.47,2.16c0,.24.17.7.53.71.19,0,.43-.13.6-.71,0-.14,0-.24.06-.29s0-.18-.1,0c-.14.35-.49.6-.76.12a2,2,0,0,1,.11-1.47c.07-.19.15-.46.15-.46C21.82,18.57,21.74,18.46,21.63,18.71Z"/><path class="cls-2" d="M29.12,18.29a4.63,4.63,0,0,0-.47,2.15c0,.24.17.71.53.72.19,0,.42-.14.59-.72a2.12,2.12,0,0,0,.06-.29c0-.08,0-.17-.09,0-.14.36-.49.61-.76.13a2,2,0,0,1,.11-1.48l.15-.46C29.31,18.15,29.22,18,29.12,18.29Z"/><path class="cls-2" d="M4.64,15a4.93,4.93,0,0,0-.46,2.55c0,.28.27.81.73.8.23,0,.53-.19.71-.88,0-.16,0-.28.06-.34s-.06-.2-.13,0c-.15.43-.58.75-1,.21-.07-.11-.32-.61,0-1.74.08-.22.17-.55.17-.55C4.88,14.84,4.76,14.71,4.64,15Z"/><path class="cls-2" d="M8.79,9.67l-.56.76L7.16,9.65a.07.07,0,0,0-.08,0l-.65.89a.06.06,0,0,0,0,.08l1.11.8a.05.05,0,0,0,.08,0l.56-.76,1.07.77a.05.05,0,0,0,.08,0l.65-.89a.06.06,0,0,0,0-.08L8.87,9.65A.07.07,0,0,0,8.79,9.67Z"/><path class="cls-2" d="M3.64,9.08a5.09,5.09,0,0,0-.47,2.56c0,.28.27.81.73.8.24,0,.54-.19.72-.88,0-.16,0-.28.06-.34s-.06-.2-.13,0c-.15.43-.58.75-1,.21a2.21,2.21,0,0,1,0-1.74c.08-.22.16-.55.16-.55C3.88,8.91,3.75,8.78,3.64,9.08Z"/><path class="cls-2" d="M18.91,12.3a5.55,5.55,0,0,0-.51,2.78c0,.3.3.88.8.87.25,0,.58-.21.77-1,0-.17.05-.31.07-.37s-.07-.22-.14,0c-.16.47-.64.81-1,.23a2.31,2.31,0,0,1,0-1.89c.08-.24.18-.59.18-.59C19.16,12.11,19,12,18.91,12.3Z"/><path class="cls-2" d="M22.85,9l-.65.89a.05.05,0,0,0,0,.08l1.1.81a.08.08,0,0,0,.09,0L24,9.9a.05.05,0,0,0,0-.08L22.93,9A.05.05,0,0,0,22.85,9Z"/><path class="cls-2" d="M25.28,5c-.19.11-9.65,4.43-10.21,4.84a1.75,1.75,0,0,0-.61.92c-.13.54,0,1.08.33,1.15a.74.74,0,0,1,.44.28s.06,0,.08,0a.65.65,0,0,0-.41-1c-.19-.07-.26-.33.46-.75S24.85,5.91,25,5.81s.32-.17.41-.36.1-.22.15-.36S25.64,4.8,25.28,5Z"/><path class="cls-2" d="M3.26,3.24a4.45,4.45,0,0,0-.62,2.52A4.18,4.18,0,0,0,.81,3.49c-.1-.05-.3,0-.32.36s-.06.62.07.74a4.07,4.07,0,0,0,.56.4c.06,0,.13,0,.15,0s.1-.24.23-.12a3.84,3.84,0,0,1,1.1,1.8c.06.16.2.17.23,0C2.91,6.05,3,5.12,3,4.84s.25-1.21.75-.79L4,4.28c.11.13.24.28.31.13a1.27,1.27,0,0,0,.07-.83C4.31,3.49,3.69,2.7,3.26,3.24Z"/><path class="cls-2" d="M28.42,14c-.1-.84-1.17-8.79-1.17-8.79l.76.73c.1.11.23,0,.17-.13s-1.4-3.41-1.44-3.52-.09-.19-.14-.06l-.48,1.07a6.21,6.21,0,0,1,.18.79c.07.49,1.59,11.9,1.61,12.18s0,.33-.06.41a3.75,3.75,0,0,1-2.76.72,1.87,1.87,0,0,1-1.27-.7,3.12,3.12,0,0,0,1.46-2.1,2.7,2.7,0,0,0-.78-2.44,1,1,0,0,0-1.26,0,2.54,2.54,0,0,0-.92,2.21,8.89,8.89,0,0,0,.34,1.78,15.73,15.73,0,0,1-1.53.71,10.6,10.6,0,0,1-4.86.73c-1-.07-2.63-.62-3.21-4-.09-.8-1.42-9.66-1.53-10.1s-.15-.29-.23-.13A2.64,2.64,0,0,0,11,4.74c.07.64.82,5.49.89,6.07,0,.25.17,1.14.34,2.13a4.19,4.19,0,0,1-.15.52,3,3,0,0,1-1.64,1.35A4.39,4.39,0,0,0,9,13.1c-.71-.5-1.54.39-1.7.69-.69,1.23-.4,1.83-.28,2,.7,1,2.27.62,2.71.53l.43-.11a4.24,4.24,0,0,1,.2.6.62.62,0,0,1-.16.49A15.33,15.33,0,0,1,7.1,19.65c-2.9,1.58-4.63.52-5.09.27-2.12-1.13-1.2-4.1-.86-5a2,2,0,0,0,.66-1.17c.05-.23.08-.42.11-.52s-.06-.31-.16,0c-.24.63-.82,1.07-1.22.19a4,4,0,0,1,.24-2.66c.12-.33.27-.82.27-.82.12-.37,0-.57-.19-.12A9.2,9.2,0,0,0,0,13.71c0,.41.22,1.19.73,1.3a.56.56,0,0,0-.07.13,6.72,6.72,0,0,0-.49,3.33,3.54,3.54,0,0,0,4,3.35c2.82,0,5.58-2.7,6.15-3.3a2.48,2.48,0,0,0,.58-1.67,4.44,4.44,0,0,0-.08-.84,2.84,2.84,0,0,0,1.62-1.9c.16.94.31,1.77.38,2.06.17.69,1,3.57,5.84,2.62a22.36,22.36,0,0,0,4.41-1.62,2.83,2.83,0,0,0,1.11,1.32A3.37,3.37,0,0,0,28,17.71C28.34,17.14,28.73,16.5,28.42,14ZM8,15.08c-.27-.06-.35-.24-.13-.43a.94.94,0,0,1,.89-.19,1.84,1.84,0,0,1,.75.59A5.85,5.85,0,0,1,8,15.08ZM23,15.13c-.1-.27-.45-1.1.05-1.59.16-.16.69-.51,1-.17s.84,1.06.66,1.29a6.15,6.15,0,0,1-1.43,1.11A5.71,5.71,0,0,1,23,15.13Z"/><path class="cls-2" d="M18.19,2.36A4.62,4.62,0,0,0,17.77,5a4.23,4.23,0,0,0-2.11-2.18c-.1-.05-.3.07-.29.4s0,.64.13.76a4.51,4.51,0,0,0,.63.36c.06,0,.14,0,.15,0s.08-.27.22-.15A4,4,0,0,1,17.81,6c.08.15.23.15.24-.08,0-.56,0-1.53,0-1.82s.15-1.28.71-.89l.26.21c.12.13.28.28.33.11a1.24,1.24,0,0,0,0-.87C19.3,2.52,18.58,1.76,18.19,2.36Z"/><path class="cls-2" d="M30.17,2.13c-.06.13-.46,1.11-.46,1.11s.12.49.14.65c.19,1.42,1.35,9.79,1.68,12.44.17,1.31.29,2.48.31,3.11,0,.19.07.26.16.08a4.08,4.08,0,0,0,.31-1.6,21.32,21.32,0,0,0-.25-3.8c0-.25-1.24-9-1.24-9s.65.61.75.72.24.06.18-.12-1.4-3.41-1.44-3.53S30.22,2,30.17,2.13Z"/><path class="cls-2" d="M14.62.1c-.19.11-7.35,3.3-7.9,3.71a1.72,1.72,0,0,0-.62.92c-.13.53,0,1.08.33,1.15a.71.71,0,0,1,.44.28s.06,0,.08,0A.65.65,0,0,0,6.54,5.1C6.35,5,6.28,4.77,7,4.35S14.19,1,14.34.91s.32-.18.4-.37.1-.22.15-.35S15-.1,14.62.1Z"/></g></g></g></svg>