<svg xmlns="http://www.w3.org/2000/svg" viewBox="0 0 33.58 18.9"><defs><style>.cls-1{isolation:isolate;}.cls-2{fill-rule:evenodd;mix-blend-mode:darken;}</style></defs><g class="cls-1"><g id="Layer_2" data-name="Layer 2"><g id="سور_الٌقرآن_الكريم" data-name="سور الٌقرآن الكريم"><path class="cls-2" d="M14.92,16.8c-.07.1-.11.18-.14.22s0,.16.09,0,.59-.37.67.11A1.8,1.8,0,0,1,15,18.38c-.11.13-.26.34-.26.34-.12.15-.08.27.08.09a4.27,4.27,0,0,0,1-1.68c.06-.21.06-.65-.24-.76S15.23,16.36,14.92,16.8Z"/><path class="cls-2" d="M10.22,16c-.22.11-2.88,1.13-3.11,1.26s-.3.16-.35.32-.07.26-.08.29-.08.25.25.06c.11-.06,2.81-1.1,3-1.21s.3-.15.38-.32a2.1,2.1,0,0,0,.15-.31C10.51,16,10.56,15.87,10.22,16Z"/><path class="cls-2" d="M22.71,14.75a4.62,4.62,0,0,0-.5,2.29c0,.25.22.73.63.74.21,0,.49-.15.67-.77,0-.14,0-.25.07-.31s0-.18-.12,0c-.15.38-.55.65-.86.15-.06-.09-.27-.55.09-1.55.07-.2.16-.49.16-.49C22.93,14.6,22.83,14.48,22.71,14.75Z"/><path class="cls-2" d="M30.34,14.7a4.49,4.49,0,0,0-.5,2.28c0,.25.21.74.62.74.22,0,.49-.15.68-.77,0-.13.05-.25.06-.3s-.05-.18-.11,0c-.15.38-.56.65-.87.15a1.92,1.92,0,0,1,.09-1.56c.08-.19.17-.48.17-.48C30.56,14.55,30.45,14.43,30.34,14.7Z"/><path class="cls-2" d="M5.2,10.39a4.75,4.75,0,0,0-.47,2.18c0,.24.17.71.53.72.19,0,.43-.13.6-.72q0-.21.06-.3c0-.08,0-.17-.1,0-.13.36-.49.61-.76.13a2,2,0,0,1,.11-1.49c.07-.19.15-.46.15-.46C5.4,10.25,5.31,10.13,5.2,10.39Z"/><path class="cls-2" d="M11.15,7.28A4.54,4.54,0,0,0,10.5,9.9,4.27,4.27,0,0,0,8.59,7.54c-.1-.06-.3,0-.32.37s-.07.64.06.77a5.28,5.28,0,0,0,.59.42c.07,0,.14,0,.16,0s.1-.26.23-.13a4,4,0,0,1,1.15,1.88c.06.16.21.17.24-.05.08-.56.13-1.52.17-1.82s.26-1.26.78-.82a3.24,3.24,0,0,1,.25.24c.11.14.24.29.31.13a1.18,1.18,0,0,0,.08-.86C12.24,7.53,11.59,6.72,11.15,7.28Z"/><path class="cls-2" d="M26.45,5.78A4.75,4.75,0,0,0,26,7.92c0,.24.18.7.53.71.19,0,.43-.13.59-.71,0-.13,0-.24.06-.29s0-.17-.1,0c-.13.35-.48.6-.74.13a2,2,0,0,1,.1-1.47c.07-.18.15-.45.15-.45C26.64,5.64,26.56,5.53,26.45,5.78Z"/><path class="cls-2" d="M5.67,5.13A4.79,4.79,0,0,0,5.2,7.31c0,.24.17.71.54.72.18,0,.43-.13.6-.72L6.4,7c0-.08,0-.18-.1,0-.14.36-.5.62-.76.13a1.94,1.94,0,0,1,.1-1.49c.07-.19.15-.46.15-.46C5.87,5,5.78,4.87,5.67,5.13Z"/><path class="cls-2" d="M1.17,1.41A4.75,4.75,0,0,0,.7,3.59c0,.24.17.71.54.72.18,0,.43-.14.6-.72q0-.21.06-.3c0-.08,0-.17-.1,0-.14.36-.5.61-.76.13a2,2,0,0,1,.1-1.49c.07-.19.15-.46.15-.46C1.37,1.27,1.28,1.15,1.17,1.41Z"/><path class="cls-2" d="M13.46,4a4.57,4.57,0,0,0-.64.91c-.16.25,0,.37.23.17a.88.88,0,0,1,.84-.38c.54,0,1.81,0,1.34.32s-.8.55-.8.55c-.31.22-.59.64,0,.41a3.85,3.85,0,0,0,1.83-1.44c.16-.24.35-.56-.4-.68S13.85,3.59,13.46,4Z"/><path class="cls-2" d="M27.06,3c-.27.13-8.66,3.51-8.93,3.66s-.37.19-.43.39l-.09.35c-.06.13-.1.3.3.07C18,7.41,26.48,4,26.7,3.88s.36-.18.46-.38.13-.24.19-.39S27.47,2.8,27.06,3Z"/><path class="cls-2" d="M10.3,2.29a4.79,4.79,0,0,0-.47,2.18c0,.24.17.71.53.72.19,0,.43-.13.6-.72,0-.13,0-.24.07-.29s0-.18-.11,0c-.13.37-.49.62-.76.13a2,2,0,0,1,.11-1.49c.07-.19.15-.46.15-.46C10.5,2.15,10.41,2,10.3,2.29Z"/><path class="cls-2" d="M21.61.28A4.66,4.66,0,0,0,21,2.9,4.3,4.3,0,0,0,19.06.55c-.1-.06-.31,0-.33.37s-.06.64.07.77a5.3,5.3,0,0,0,.58.42c.07,0,.14,0,.16,0s.11-.26.23-.13a4,4,0,0,1,1.15,1.88c.06.16.21.17.25,0,.08-.56.12-1.53.17-1.82s.25-1.26.78-.82l.24.23c.11.14.25.3.32.14a1.23,1.23,0,0,0,.07-.86C22.7.54,22.05-.28,21.61.28Z"/><path class="cls-2" d="M29.71,8c-.07-.58-.6-5.31-.6-5.31s.52.54.61.65.22.06.17-.11S28.81.25,28.77.15,28.69,0,28.64.08l-.49,1a5.08,5.08,0,0,1,.15.75c0,.34.09.79.15,1.29,0,0,.63,6.39.68,7s.37,2.61.06,3a2.69,2.69,0,0,1-3.51.26c-.07-.06-.21-.21-.4-.42a16.9,16.9,0,0,1,1.93-.87c.12-.2.66-1,.35-1.23a6.83,6.83,0,0,0-6.19-.27,1.85,1.85,0,0,0-.66,1.16c0,.14.06.28.25.17a1.21,1.21,0,0,1,1.11-.09,13.85,13.85,0,0,1,1.3,1A19.6,19.6,0,0,1,20,13.88l-.18,0A6,6,0,0,0,20.36,12c0-1.38-1.46-1.76-2-1.89-2.1-.48-3.75,1.8-4,2.18-.15.2-.72,1.05-1.26,1.87a2.34,2.34,0,0,1-.64-.37,9.52,9.52,0,0,1-.78-.87c-.31-.35-1.53-1.05-3.39-.16a24.56,24.56,0,0,0-4.36,3.46c-.44.43-1.84,1.63-3,1.06C.57,17.09,0,16.18.84,14.15c.18-.43.66-1.44.83-1.8h.08c.3,0,.71-.23,1-1.31.06-.25.1-.45.12-.54s0-.33-.16,0c-.25.67-.85,1.11-1.24.19a4.13,4.13,0,0,1,.29-2.77c.12-.35.27-.86.27-.86.14-.38,0-.6-.18-.13a10,10,0,0,0-.95,4,1.88,1.88,0,0,0,.46,1.22c-.54,1-2.74,5.37-.16,6.23.43.14,1.59.13,2.88-1.19a20.26,20.26,0,0,1,4.22-3.31c.75-.33,2.09-.8,2.93.2a3.64,3.64,0,0,0,1.09,1,7.13,7.13,0,0,0-.38.63c-.23.53.24.23.46-.18l.2-.3a5.23,5.23,0,0,0,2.38.36c5.94-.28,8.15-1.51,9.19-2.12.28.26.54.53.78.8a3,3,0,0,0,4.23,0A4.42,4.42,0,0,0,30,11.39C30,10.83,29.77,8.56,29.71,8Zm-10.2,5c-2,1.64-5.43,1.36-6.12,1.27l.49-.67c1.32-1.66,2.23-2.23,3-2.39a2.8,2.8,0,0,1,2.67,1.15A.39.39,0,0,1,19.51,13Zm5.1-.65a6.13,6.13,0,0,0-1.27-1,5.57,5.57,0,0,1,2.77.29C26,11.62,25.46,11.92,24.61,12.3Z"/><path class="cls-2" d="M32,.07c-.06.12-.46,1-.46,1s.09.46.11.62c.13,1.34,1,9.29,1.23,11.81.11,1.23.2,2.34.2,2.94,0,.18.06.26.15.08a4,4,0,0,0,.33-1.5,19.87,19.87,0,0,0-.12-3.6c0-.24-.92-8.54-.92-8.54l.7.7c.1.11.22.06.17-.11L32.11.14C32.07,0,32,0,32,.07Z"/><path class="cls-2" d="M13.4.13a4.5,4.5,0,0,0-.43,2c0,.22.16.64.49.66.17,0,.39-.13.55-.67,0-.12,0-.22.06-.26s0-.16-.1,0c-.12.33-.45.56-.69.12a1.79,1.79,0,0,1,.1-1.36c.06-.17.13-.42.13-.42C13.58,0,13.5-.1,13.4.13Z"/><path class="cls-2" d="M7.06.69a4.54,4.54,0,0,0-.65,2.62A4.32,4.32,0,0,0,4.5,1c-.1,0-.3.05-.32.37s-.07.64.06.77,1.07.46.56,1c-.23.24-1.37,1.43-1.62,1.72s-.27.34,0,.19a3.35,3.35,0,0,0,2-2.25.82.82,0,0,0-.07-.45l.07,0A4,4,0,0,1,6.37,4.22c.06.16.21.18.24,0,.08-.56.13-1.52.17-1.82s.26-1.26.78-.81c.12.1.25.23.25.23s.25.3.31.14A1.21,1.21,0,0,0,8.2,1C8.15.94,7.5.13,7.06.69Z"/></g></g></g></svg>