<svg xmlns="http://www.w3.org/2000/svg" viewBox="0 0 31.45 20.74"><defs><style>.cls-1{isolation:isolate;}.cls-2{fill-rule:evenodd;mix-blend-mode:darken;}</style></defs><g class="cls-1"><g id="Layer_2" data-name="Layer 2"><g id="سور_الٌقرآن_الكريم" data-name="سور الٌقرآن الكريم"><path class="cls-2" d="M19.17,18.67l-.66.91a.06.06,0,0,0,0,.08l1.13.82a.06.06,0,0,0,.09,0l.65-.9a.06.06,0,0,0,0-.09l-1.12-.82A.06.06,0,0,0,19.17,18.67Z"/><path class="cls-2" d="M10.09,18.79c-.06.1-.1.18-.12.22s0,.14.08,0,.53-.37.62.07a1.64,1.64,0,0,1-.43,1.14c-.1.13-.23.33-.23.33s-.06.25.08.08A3.88,3.88,0,0,0,11,19.06c0-.19,0-.59-.25-.69S10.36,18.38,10.09,18.79Z"/><path class="cls-2" d="M2.55,16c-.17.09-2.09,1.12-2.27,1.23s-.22.16-.24.29,0,.21,0,.23-.06.17.2,0,2-1.07,2.19-1.18a.5.5,0,0,0,.26-.28l.08-.27C2.77,16,2.8,15.9,2.55,16Z"/><path class="cls-2" d="M28.53,15.69a1.54,1.54,0,0,0-.12.53l0,.42a.75.75,0,0,1-.92,0c0-.09.08-.27.1-.37s-.05-.27-.13-.11a3.76,3.76,0,0,1-.38.81c-.13.12-.28.56-1.26.11a.7.7,0,0,0-.95.18,6.65,6.65,0,0,1-3,1.49c-.14.07-.44.3-.08.26a3.89,3.89,0,0,0,2.69-.94c.17-.17.37-.61,1-.36.36.14,1,.72,1.76-.42.43.29,1.08.17,1.19-.14a3.56,3.56,0,0,0,.22-.85c0-.21,0-.49,0-.49C28.69,15.68,28.63,15.43,28.53,15.69Z"/><path class="cls-2" d="M7.49,10.21a6.28,6.28,0,0,0-.44,2.84c0,.3.27.89.73.88.23,0,.53-.2.7-1,0-.17,0-.31,0-.38s-.06-.22-.12,0c-.15.47-.58.82-.94.22a2.59,2.59,0,0,1,0-1.92c.07-.24.16-.61.16-.61C7.72,10,7.6,9.88,7.49,10.21Z"/><path class="cls-2" d="M13.39,9.42A5.41,5.41,0,0,0,13,11.89c0,.26.25.77.65.76.21,0,.47-.18.62-.85,0-.15,0-.27.05-.33s-.06-.19-.11,0c-.13.42-.51.72-.84.2a2.19,2.19,0,0,1,0-1.67c.06-.21.13-.52.13-.52C13.6,9.25,13.49,9.13,13.39,9.42Z"/><path class="cls-2" d="M23.64,6.39a1.07,1.07,0,0,0,0,.79c.12.3.43,1,.48,1.1s.07.21-.1.28A.77.77,0,0,1,22.88,8a6.62,6.62,0,0,0-.24-1.23c-.07-.14-.14-.16-.2,0a2.6,2.6,0,0,0-.09.49.16.16,0,0,0,0,.13s.34,1,.2,1.25-.85.73-1.22.24a3.84,3.84,0,0,1-.07-1.41c0-.2-.07-.27-.15-.11a.75.75,0,0,0-.13.42c0,.15,0,.78,0,1s0,.84.38,1,.93,0,1.35-.77a.92.92,0,0,0,1.08.37,1.1,1.1,0,0,0,.55-.88,1.58,1.58,0,0,0-.19-1,3.75,3.75,0,0,1-.33-.87C23.78,6.32,23.73,6.13,23.64,6.39Z"/><path class="cls-2" d="M13.83,6.45a4.55,4.55,0,0,0-.6.86c-.16.25,0,.35.21.16a.88.88,0,0,1,.81-.36c.51,0,1.73,0,1.28.3s-.77.53-.77.53c-.3.22-.56.62,0,.39A3.67,3.67,0,0,0,16.47,7c.16-.23.34-.54-.38-.65S14.21,6,13.83,6.45Z"/><path class="cls-2" d="M3.14,3.85l-.57.78L1.48,3.84a.06.06,0,0,0-.08,0l-.66.91a.06.06,0,0,0,0,.09l1.12.82a.08.08,0,0,0,.09,0l.57-.78,1.09.8a.08.08,0,0,0,.09,0l.65-.9a.06.06,0,0,0,0-.09L3.23,3.84A.07.07,0,0,0,3.14,3.85Z"/><path class="cls-2" d="M24.65,3.14c-.26.13-6,2.36-6.23,2.51s-.36.19-.42.38-.08.31-.09.34-.1.3.29.07c.13-.07,5.88-2.32,6.11-2.45s.35-.17.45-.37.12-.24.18-.38S25.05,2.93,24.65,3.14Z"/><path class="cls-2" d="M14.58,1.93a5.38,5.38,0,0,0-.37,2.46c0,.27.25.78.66.77.2,0,.46-.19.61-.85,0-.15,0-.27,0-.33s-.06-.19-.11,0c-.13.41-.51.72-.84.2a2.2,2.2,0,0,1,0-1.67c.06-.21.13-.52.13-.52C14.79,1.76,14.68,1.64,14.58,1.93Z"/><path class="cls-2" d="M26.63,3.4s.69.63.79.74.24.06.18-.13S26.18.53,26.13.42,26,.22,26,.35l-.5,1.1a4.47,4.47,0,0,1,.19.8c.07.51.56,4,.84,6.13,0,0,.43,3.69.43,3.83s0,.25-.12.33a1.65,1.65,0,0,1-2.19-.63c.05-.3.05-.25.07-.38s-.06-.41-.23-.1S23.89,13,23,12.92a.94.94,0,0,1-.86-.68c.11-.24.14-.33.18-.42s0-.31-.2-.12-1,1.45-2,1.27a1.93,1.93,0,0,1-1.42-1.61c-.1-.29-.21-1.37-.95-.78A5,5,0,0,0,16.6,12c-.23.33-.45,1.12-3.52,2.53a6.81,6.81,0,0,0-.52.93c-.06.14,0,.21.1.2a24.36,24.36,0,0,1,5.13.88c-.14.11-3.12,1.66-4.53,1.05-.5-.18-1.28-.67-1.61-2.8a34.81,34.81,0,0,0-1.41-6.07c-.22-.54-1-2.13-1.12-2.34s-.22-.32-.27-.06a3.37,3.37,0,0,0-.08,1.46c.15.34,1.22,3.34,1.46,4.35l.38,1.55a.14.14,0,0,0,0-.05c-.05.4-1.05,3.05-5.18,4.74-.4.16-2.4.73-2.08-1.77.05-.42.35-1.9.48-2.45a2.75,2.75,0,0,0,1.32-1.39A1.91,1.91,0,0,0,5,10.93,7.37,7.37,0,0,0,3.52,9.77s.93-1.29,1-1.44A10,10,0,0,0,5,6.93c0-.25.06-.37-.12-.14s-2,2.6-2,2.6L1.58,8.45l.63-.16c.09,0,.15-.15,0-.24S.43,7.33.31,7.28s-.17-.1-.18,0,0,1.17,0,1.17,0,.07.11.15A2.22,2.22,0,0,1,.61,9c.11.12,1.59,1.28,1.66,1.32a7.17,7.17,0,0,0-.83,2.32c-.1,1,0,2.42,1.41,2a3.9,3.9,0,0,0,.57-.23c-.38,1.17-1.51,5,.66,5.54.33.09,2.11.24,4.94-2.42A6.37,6.37,0,0,0,10.93,15c.27,1.06.53,2,.6,2.28A2.4,2.4,0,0,0,14.13,19a13.6,13.6,0,0,0,4.63-1.86,7.65,7.65,0,0,1,3.72-.53c.17-.24.64-1.18.64-1.18-.24,0-5.44.06-7.86-.79a9.41,9.41,0,0,0,1.39-1.56,5.12,5.12,0,0,1,1-1.27c.28-.19.41-.31.47,0s.2,2,1.74,2.29a2,2,0,0,0,1.86-.8c.92,1.69,2.32.6,2.5-.36a1.82,1.82,0,0,0,1.37.94c.3,0,1.44.18,2-1.83a14.85,14.85,0,0,0-.11-2.9C27.36,8.71,26.63,3.4,26.63,3.4Zm-24,9.88c-.3,0-1.11-.12-.76-.94.12-.27.93-1.66.93-1.66.3.17,2.25,1.16,1.74,1.59A6.25,6.25,0,0,1,2.66,13.28Z"/><path class="cls-2" d="M29.24.35c-.06.13-.38,1-.38,1,.09.58.86,6.81.91,7.23S30.9,16.07,31,18c0,.19.07.27.16.08s.72-1.49,0-6.26C31,11.45,29.9,3.4,29.9,3.4s.67.62.78.74.23.05.17-.13S29.43.53,29.38.41,29.3.22,29.24.35Z"/><path class="cls-2" d="M20.88.43a4.52,4.52,0,0,0-.33,2.63A4.21,4.21,0,0,0,18.43,1c-.11,0-.3.09-.28.4s0,.64.16.75a5.19,5.19,0,0,0,.61.34c.07,0,.14,0,.15-.06s.08-.26.21-.15A3.93,3.93,0,0,1,20.62,4c.07.15.22.15.23-.08,0-.55-.06-1.5-.05-1.79s.11-1.26.67-.89c.12.08.26.2.26.2s.28.26.32.1a1.15,1.15,0,0,0,0-.86C22,.56,21.24-.17,20.88.43Z"/><path class="cls-2" d="M5.61.36a5.25,5.25,0,0,0-.37,2.46c0,.27.25.78.65.77.21,0,.47-.19.62-.85,0-.15,0-.28,0-.33s0-.19-.11,0c-.12.41-.5.72-.83.2A2.2,2.2,0,0,1,5.62,1c.06-.21.13-.53.13-.53C5.82.19,5.71.07,5.61.36Z"/><path class="cls-2" d="M15.25.14C15,.31,7.31,4.08,7,4.28s-.41.25-.45.49-.07.37-.08.41-.09.35.35.05c.14-.09,7.84-3.89,8.09-4.06s.4-.23.49-.48a3.81,3.81,0,0,0,.18-.46C15.64.05,15.7-.14,15.25.14Z"/></g></g></g></svg>