<svg xmlns="http://www.w3.org/2000/svg" viewBox="0 0 34.78 21.02"><defs><style>.cls-1{isolation:isolate;}.cls-2{fill-rule:evenodd;mix-blend-mode:darken;}</style></defs><g class="cls-1"><g id="Layer_2" data-name="Layer 2"><g id="سور_الٌقرآن_الكريم" data-name="سور الٌقرآن الكريم"><path class="cls-2" d="M10.33,18.85c-.2.11-3.41,1.32-3.62,1.44s-.28.16-.32.32l-.07.27c0,.1-.07.23.24.05.1-.06,3.35-1.29,3.52-1.39s.27-.15.35-.31.09-.19.13-.3S10.65,18.68,10.33,18.85Z"/><path class="cls-2" d="M20.21,17.67a4.5,4.5,0,0,0-.45,2.06c0,.22.17.67.51.68.17,0,.4-.13.56-.69,0-.12.05-.22.06-.27s0-.17-.09,0c-.13.34-.47.57-.72.12a1.92,1.92,0,0,1,.1-1.41c.06-.17.14-.43.14-.43C20.39,17.54,20.31,17.43,20.21,17.67Z"/><path class="cls-2" d="M27.75,13.59a5.09,5.09,0,0,0-.32,2.27c0,.25.2.72.54.72.18,0,.4-.17.53-.78,0-.14,0-.25,0-.3s-.05-.18-.1,0c-.1.38-.43.66-.7.17a2.17,2.17,0,0,1,0-1.54c.05-.19.11-.48.11-.48C27.92,13.44,27.83,13.33,27.75,13.59Z"/><path class="cls-2" d="M16.48,11a7.08,7.08,0,0,0-.57,3.36c0,.36.32,1.06.87,1.06.28,0,.64-.24.86-1.15,0-.21.06-.37.07-.45s-.07-.26-.15,0c-.18.56-.71,1-1.15.25a3.06,3.06,0,0,1,.06-2.28c.09-.29.19-.72.19-.72C16.76,10.73,16.62,10.56,16.48,11Z"/><path class="cls-2" d="M23.57,10.05l-.58.79a.06.06,0,0,0,0,.08l1,.72a.06.06,0,0,0,.08,0l.58-.79s0-.06,0-.07l-1-.72A0,0,0,0,0,23.57,10.05Z"/><path class="cls-2" d="M19.62,9.64l-.58.79s0,.06,0,.07l1,.72s.05,0,.07,0l.58-.78a.06.06,0,0,0,0-.08l-1-.72A.06.06,0,0,0,19.62,9.64Z"/><path class="cls-2" d="M5.43,10.38a9.53,9.53,0,0,0-.51,3.87c0,.43.34,1.24.89,1.23.29,0,.65-.28.85-1.33,0-.24,0-.43.06-.52s-.08-.3-.15,0c-.17.65-.69,1.12-1.15.3a4.12,4.12,0,0,1,0-2.64c.08-.33.18-.82.18-.82C5.71,10.11,5.57,9.92,5.43,10.38Z"/><path class="cls-2" d="M4,6.26a4.75,4.75,0,0,0-.43,2.38c0,.25.25.75.68.74.22,0,.5-.18.66-.82,0-.15,0-.26.06-.32s-.06-.18-.12,0c-.14.39-.55.69-.89.18-.06-.09-.3-.55,0-1.6l.14-.51C4.26,6.1,4.15,6,4,6.26Z"/><path class="cls-2" d="M21.13,5.1c-.18.13-7.3,4-7.84,4.51a1.74,1.74,0,0,0-.55,1c-.1.56.07,1.12.43,1.16a.7.7,0,0,1,.48.26s.07,0,.08,0A.68.68,0,0,0,13.22,11c-.2,0-.3-.32.41-.81S20.76,6.07,20.91,6s.31-.21.38-.41.09-.24.13-.38S21.49,4.86,21.13,5.1Z"/><path class="cls-2" d="M4.31,2.36A4.37,4.37,0,0,0,3.7,4.82,4.13,4.13,0,0,0,1.9,2.6c-.09-.05-.29,0-.3.36s-.07.6.06.72,1,.43.52.94C2,4.85.89,6,.66,6.24s-.26.32,0,.18A3.14,3.14,0,0,0,2.58,4.3a.71.71,0,0,0-.07-.42.09.09,0,0,1,.07,0A3.77,3.77,0,0,1,3.66,5.69c.06.15.2.16.23-.05C4,5.11,4,4.2,4.05,3.93s.24-1.19.74-.78L5,3.37c.1.13.23.28.29.13a1.1,1.1,0,0,0,.07-.81C5.34,2.6,4.73,1.83,4.31,2.36Z"/><path class="cls-2" d="M24.36,13.26c-.05,0-.08,0-.1.16s-.1.89-.1.89c.14.21,1.17,1.54.76,1.77s-2,1.24-3.22.05a2.4,2.4,0,0,0,.81-1.69,2.71,2.71,0,0,0-.68-2.35c-.22-.22-.84-.54-1.37.31a3.51,3.51,0,0,0,0,3.32,9.47,9.47,0,0,1-5.73,1.37A3,3,0,0,1,12,14.23c-.2-1.37-.76-8.74-.9-9.55s-.42-2.27-.46-2.41-.11-.16-.22,0a3.19,3.19,0,0,0-.29.63c-.06.17,0,.36.11,1,.35,1.6.82,7.29.87,8a20,20,0,0,0,.56,4.11c.27.73,1.18,2.88,5.07,2.16A18.23,18.23,0,0,0,21,16.64a2.53,2.53,0,0,0,1.83,1.28,3.5,3.5,0,0,0,2.48-1,2.33,2.33,0,0,0,.28-1.05A3.14,3.14,0,0,0,24.36,13.26ZM21.1,15.34a3,3,0,0,1-.57-1.14.83.83,0,0,1,.5-1.06c.43-.21,1,.75,1.07,1.21S21.1,15.34,21.1,15.34Z"/><path class="cls-2" d="M7.45,2.1c-.06.11-.47.95-.47.95C7,3.28,8.6,13.68,8.65,14.3c.06.84.13,1.33-.15,1.65S5.39,18.89,3,18.77c-.57-.05-3.73-.41-2.13-4.46A2.22,2.22,0,0,0,.93,14H1c.28,0,.64-.28.84-1.33,0-.24.05-.42.07-.52s-.08-.3-.16,0c-.17.65-.69,1.13-1.14.3a4,4,0,0,1,0-2.64C.65,9.45.76,9,.76,9,.85,8.58.7,8.39.57,8.85a9.21,9.21,0,0,0-.51,3.88,1.71,1.71,0,0,0,.55,1.11c0,.05,0,.1-.07.16-.4.86-1.21,4.23.54,5.45.4.25,1.93,1.65,6.23-1.26a4.06,4.06,0,0,0,2-4c-.12-1-1.4-9.36-1.4-9.36s.56.58.64.68.21.06.16-.1S7.6,2.27,7.57,2.16,7.5,2,7.45,2.1Z"/><path class="cls-2" d="M30.28,2l-.42.94c0,.31.54,4.68.85,8.11a32.11,32.11,0,0,1,.4,4.13,3.35,3.35,0,0,1-.36.92,5.77,5.77,0,0,0-.56-3c-1.11-2.17-4.32-4.25-5.53-6.38a.1.1,0,0,1,0,0s.61.24.7.26.34,0,.2-.1S23.42,5,23.23,4.87,23,4.6,23,4.76,23,6,23,6.06a.28.28,0,0,0,.12.24A11,11,0,0,1,24,7.39a29.58,29.58,0,0,0,3.77,4.05c.3.28,2.71,2.55,2.72,4.58,0,.2,0,.32,0,.47-.73,1-2.28,2.25-5.61,3.29-.43.21-.28.35,0,.31s4.46-.27,6-2.93a7.22,7.22,0,0,0,.66-4.59c-.06-.72-.84-7.85-.84-7.85s.56.59.65.7.2,0,.15-.11S30.43,2.13,30.4,2,30.33,1.85,30.28,2Z"/><path class="cls-2" d="M33.4,1.93l-.44,1s.09.44.1.58c.11,1.27.84,8.77,1,11.14.1,1.17.17,2.22.16,2.78,0,.17.06.24.14.08a3.69,3.69,0,0,0,.34-1.42,19.74,19.74,0,0,0-.09-3.39c0-.22-.78-8.06-.78-8.06l.65.67c.09.1.2.06.16-.11S33.56,2.1,33.52,2,33.45,1.82,33.4,1.93Z"/><path class="cls-2" d="M27.66,2a5.59,5.59,0,0,0-.48,2.45c0,.27.18.8.55.81.19,0,.44-.15.62-.81,0-.15,0-.27.06-.33s0-.2-.11,0c-.14.4-.5.69-.78.15a2.49,2.49,0,0,1,.11-1.68c.07-.21.15-.52.15-.52C27.86,1.87,27.76,1.74,27.66,2Z"/><path class="cls-2" d="M23,1.91c-.48.23-1,1-.78,1.27a2.08,2.08,0,0,0,.47.47c-.15.09-.32.13-.37.29a1.6,1.6,0,0,0-.06.32c0,.06,0,.1.08.07l.13,0a12.63,12.63,0,0,1,2-.8,2.34,2.34,0,0,0,.09-.35c0-.13-.11-.11-.31-.07s-.91.25-1.29-.07-.37-.4-.26-.47.45-.28.66,0,.2.15.25.05.21-.34.17-.44A.51.51,0,0,0,23,1.91Z"/><path class="cls-2" d="M16.2,1a4.36,4.36,0,0,0-.43,2.5,4.09,4.09,0,0,0-1.95-2.08c-.1,0-.29.07-.28.38s0,.6.11.71a3.06,3.06,0,0,0,.58.35c.07,0,.13,0,.15,0s.07-.24.21-.14a3.74,3.74,0,0,1,1.09,1.24,1.41,1.41,0,0,1-.27,1.59C15.18,5.81,14.2,6.65,14,7s.51-.13,1.42-.94.66-3.14.67-3.5.15-1.2.67-.82a2.43,2.43,0,0,1,.25.2c.11.12.25.26.31.1a1.19,1.19,0,0,0,0-.81C17.24,1.13,16.57.41,16.2,1Z"/><path class="cls-2" d="M24.33.08c-.23.1-3.68,1.34-3.93,1.47s-.33.15-.38.32l-.1.3c-.06.12-.1.26.26.08C20.29,2.19,23.79.93,24,.83s.32-.14.42-.32a2.64,2.64,0,0,0,.17-.33C24.64.05,24.7-.09,24.33.08Z"/></g></g></g></svg>