<svg xmlns="http://www.w3.org/2000/svg" viewBox="0 0 37.04 18.7"><defs><style>.cls-1{isolation:isolate;}.cls-2{fill-rule:evenodd;mix-blend-mode:darken;}</style></defs><g class="cls-1"><g id="Layer_2" data-name="Layer 2"><g id="سور_الٌقرآن_الكريم" data-name="سور الٌقرآن الكريم"><path class="cls-2" d="M22.61,16.79c-.19.1-2.44.95-2.64,1.06s-.27.14-.31.28-.06.24-.07.26-.07.22.22.05c.09-.05,2.38-.92,2.54-1s.27-.12.34-.27.09-.18.13-.28S22.91,16.64,22.61,16.79Z"/><path class="cls-2" d="M14.1,15.92l-.46.63-.89-.65s-.06,0-.07,0l-.54.74a0,0,0,0,0,0,.07l.92.67a.05.05,0,0,0,.07,0l.46-.63.89.65a.06.06,0,0,0,.08,0l.53-.73a.05.05,0,0,0,0-.08l-.91-.67A.06.06,0,0,0,14.1,15.92Z"/><path class="cls-2" d="M8.83,15.86,4.32,18c-.21.1-.26.16-.29.3a2.11,2.11,0,0,1-.06.26c0,.1-.06.19.23,0l4.41-2.11c.17-.09.26-.14.32-.3A1.36,1.36,0,0,0,9,15.92C9.08,15.81,9.14,15.72,8.83,15.86Z"/><path class="cls-2" d="M9.25,10.53c-.05.17-.23,1-.23,1,.18.23,1,1.22.78,1.42s-2.11,1.76-6.58,2c-.5,0-2.82,0-2.71-1.82A4.64,4.64,0,0,1,1,11.57c.08-.19-.12-.3-.24-.09s-1.61,2.48-.12,4c.12.14,1.34,1.36,6,0a6.79,6.79,0,0,0,3.4-1.87,2.17,2.17,0,0,0,.24-1.83,10.27,10.27,0,0,0-.8-1.3C9.38,10.38,9.3,10.36,9.25,10.53Z"/><path class="cls-2" d="M6,10.1l-.47.63-.89-.64a0,0,0,0,0-.07,0l-.54.74a0,0,0,0,0,0,.07l.92.67a.05.05,0,0,0,.07,0l.46-.63.89.65a.06.06,0,0,0,.08,0L7,10.83a.05.05,0,0,0,0-.08l-.91-.66S6,10.07,6,10.1Z"/><path class="cls-2" d="M15.31,9.2a4.38,4.38,0,0,0-.45,2c0,.23.16.66.5.67.18,0,.4-.12.56-.67L16,11c0-.08,0-.17-.09,0-.13.34-.46.57-.71.12a1.86,1.86,0,0,1,.1-1.39c.06-.17.14-.43.14-.43C15.49,9.07,15.4,9,15.31,9.2Z"/><path class="cls-2" d="M19.76,6.45a6.09,6.09,0,0,0-.21,2.7c.06.29.31.83.73.8.22,0,.47-.23.58-1,0-.17,0-.3,0-.36s-.07-.21-.11,0c-.1.46-.47.82-.85.27a2.53,2.53,0,0,1-.11-1.82c.05-.23.1-.58.1-.58C20,6.24,19.84,6.12,19.76,6.45Z"/><path class="cls-2" d="M5.22,6.16A4.6,4.6,0,0,0,4.9,8.22c0,.22.2.65.53.64.17,0,.38-.15.51-.71C6,8,6,7.93,6,7.88s-.05-.16-.09,0c-.11.34-.42.6-.69.16a2,2,0,0,1,0-1.4c0-.17.11-.44.11-.44C5.39,6,5.3,5.91,5.22,6.16Z"/><path class="cls-2" d="M.83,5.41A8.74,8.74,0,0,0,.16,9c0,.4.25,1.17.77,1.19.27,0,.62-.23.86-1.2,0-.22.07-.39.08-.48s-.05-.29-.14,0c-.19.6-.7,1-1.09.22A3.81,3.81,0,0,1,.79,6.28C.88,6,1,5.52,1,5.52,1.1,5.17,1,5,.83,5.41Z"/><path class="cls-2" d="M9.26,4.72a7.53,7.53,0,0,0-.56,3c0,.33.22,1,.65,1,.23,0,.52-.19.72-1,0-.18.06-.33.08-.4s-.05-.24-.13,0c-.16.5-.59.85-.91.18a3.22,3.22,0,0,1,.12-2.07c.08-.25.18-.64.18-.64C9.5,4.52,9.39,4.36,9.26,4.72Z"/><path class="cls-2" d="M28.13,4.52l-.54.73a.06.06,0,0,0,0,.08l.92.67a.05.05,0,0,0,.07,0l.54-.74a.06.06,0,0,0,0-.07L28.2,4.5S28.14,4.49,28.13,4.52Z"/><path class="cls-2" d="M21.64,2.49,13.41,7c-.23.13-.3.18-.33.35s-.05.25-.06.29-.08.23.25,0c.1-.06,8-4.32,8.13-4.44s.28-.16.35-.33a1.42,1.42,0,0,0,.13-.32C21.93,2.44,22,2.32,21.64,2.49Z"/><path class="cls-2" d="M22.94,2.39a4.33,4.33,0,0,0-.44,2c0,.22.16.66.5.67.17,0,.4-.13.56-.68,0-.12,0-.22.05-.27s0-.16-.09,0c-.13.33-.46.57-.71.12a1.86,1.86,0,0,1,.1-1.39l.14-.43C23.12,2.26,23,2.15,22.94,2.39Z"/><path class="cls-2" d="M5.35,2.41a3.65,3.65,0,0,0-.5,2A3.35,3.35,0,0,0,3.38,2.62c-.08,0-.24,0-.26.29s-.05.49.06.59a2.77,2.77,0,0,0,.45.32c.05,0,.1,0,.12,0s.08-.2.18-.1a3.12,3.12,0,0,1,.89,1.45c0,.12.16.13.19,0,.06-.43.1-1.18.13-1.41s.2-1,.6-.63a1.85,1.85,0,0,1,.19.18c.09.11.2.23.25.11a.93.93,0,0,0,.05-.67C6.2,2.61,5.7,2,5.35,2.41Z"/><path class="cls-2" d="M10.84,2.25a1.9,1.9,0,0,0-.24,1,59.71,59.71,0,0,1,.8,6.21c.11,1.35.12,4.39,1.22,5.36,1.7,1.46,6,.3,6.47-1a2.82,2.82,0,0,0-1-3.08c-.12-.1-.17-.07-.2.1s-.1.82-.1.82a7.73,7.73,0,0,1,.91,1.13c.09.24.24.47-.34.78s-3.35,1.44-5,.46c-.29-.19-1.13-.51-1.31-3.27a70.78,70.78,0,0,0-1-8.4C11,2.08,10.89,2.12,10.84,2.25Z"/><path class="cls-2" d="M29,2.18a.69.69,0,0,0-.09.35A3.31,3.31,0,0,1,29,3c0,.07-.42.32-.58.14s0-.34,0-.47,0-.28-.12-.1a.52.52,0,0,0-.08.37c0,.12,0,.27-.06.38s-.56.41-.77,0a.82.82,0,0,1,0-.31c0-.1-.08-.21-.13,0a1.32,1.32,0,0,0-.08.67c.06.21.45.68,1.06-.05.15.08.62.25.95-.49a2.06,2.06,0,0,0,.06-.8C29.18,2.08,29.13,2,29,2.18Z"/><path class="cls-2" d="M25,1.73c0,.11-.31.84-.31.84.07.47.52,3.68.57,4s.92,6.1,1,7.69c0,.16.06.22.14.07s.58-1.22,0-5.11c0-.33-.8-5-.8-5s.54.51.63.61.2,0,.15-.11S25.14,1.88,25.1,1.78,25,1.62,25,1.73Z"/><path class="cls-2" d="M32.29,1.64l-.41.89a3.44,3.44,0,0,1,.16.66c.06.41.14,1,.24,1.66,0,0,1.5,9.53,1.36,9.73s-1.39,1.07-2.21.62a1.66,1.66,0,0,1-.89-1.32c-.09-.45-.52-5.12-2.06-7.1-.11-.16-.19,0-.22.09a1.52,1.52,0,0,0,0,1.07,20.28,20.28,0,0,1,1.42,4.85c0,.32.12.52-.21.88a13,13,0,0,1-3.4,2.42c-.34.12-2.08.94-2.25-.56a9.6,9.6,0,0,1,0-1.07.46.46,0,0,0,0-.21,5,5,0,0,0,.88-1.06,2.23,2.23,0,0,0-.06-1.89c-.21-.39-.9-1.48-.9-1.48l.55,0c.05,0,.15-.05,0-.18S23.09,8.57,23,8.49s-.12-.13-.16,0-.12.6-.14.7a.37.37,0,0,0,0,.29c0,.08.19.38.3.62s1.14,2.08,1.23,2.24.12.28,0,.39c-3.34,3.22-9.8,5.2-10,5.31s-.15.2.2.14a28.46,28.46,0,0,0,4.25-.89,21.37,21.37,0,0,0,4.69-2.73c0,.71-.28,2.61,1.25,2.85.24,0,1.41.08,3.4-1.48a7.28,7.28,0,0,0,1.64-1.69,2.12,2.12,0,0,1,.2-.51s.34,2.07,1.18,2.47a1.93,1.93,0,0,0,2.39-.41,2.29,2.29,0,0,0,.65-2.1c0-.39-1.28-9.48-1.28-9.48a5.42,5.42,0,0,1,.51.39c.09.09.19,0,.14-.11s-1.08-2.7-1.12-2.79S32.33,1.53,32.29,1.64Z"/><path class="cls-2" d="M35.24,1.64c-.05.1-.31.83-.31.83.07.48.69,5.56.73,5.91s.93,6.1,1,7.69c0,.16.06.22.14.07s.58-1.22,0-5.11c0-.33-1-6.9-1-6.9l.63.6c.09.1.19,0,.14-.1s-1.16-2.85-1.2-2.94S35.28,1.53,35.24,1.64Z"/><path class="cls-2" d="M15.22,1.45a4.53,4.53,0,0,0-.33,2.38,3.88,3.88,0,0,0-1.68-2c-.09,0-.24.07-.24.35s0,.58.11.69a4.66,4.66,0,0,0,.5.33c.05,0,.11,0,.12,0s.07-.24.17-.13a3.57,3.57,0,0,1,1.05,1.6c.06.14.18.15.19-.06,0-.5,0-1.37,0-1.63s.11-1.14.56-.78c.1.08.21.19.21.19s.22.25.26.1a1.19,1.19,0,0,0,0-.77C16.1,1.62,15.53.93,15.22,1.45Z"/><path class="cls-2" d="M30,.07c-.19.1-3.21,1.23-3.41,1.34s-.27.14-.31.29-.06.23-.07.25-.07.22.22.05C26.56,2,29.62.8,29.78.71s.27-.13.34-.28.09-.18.13-.28S30.34-.08,30,.07Z"/></g></g></g></svg>