<svg xmlns="http://www.w3.org/2000/svg" viewBox="0 0 33.9 19.08"><defs><style>.cls-1{isolation:isolate;}.cls-2{fill-rule:evenodd;mix-blend-mode:darken;}</style></defs><g class="cls-1"><g id="Layer_2" data-name="Layer 2"><g id="سور_الٌقرآن_الكريم" data-name="سور الٌقرآن الكريم"><path class="cls-2" d="M10.55,16.83c-.23.07-2.87,1-3.13,1.12s-.3.16-.35.32-.07.27-.08.29-.1.21.25.06c.17-.07,2.77-1,3-1.07a.68.68,0,0,0,.38-.32c.08-.16.1-.19.15-.31S10.9,16.72,10.55,16.83Z"/><path class="cls-2" d="M16.3,16a3.84,3.84,0,0,0-.44,1.89c0,.2.16.61.49.62.17,0,.39-.12.55-.63,0-.11,0-.2.06-.25s0-.15-.1,0-.45.53-.69.11a1.66,1.66,0,0,1,.1-1.29c.06-.17.13-.41.13-.41C16.47,15.91,16.39,15.81,16.3,16Z"/><path class="cls-2" d="M22.72,16.11c0,.08-.19.35-.21.4s0,.12,0,.07,0-.26.73-.25c.1,0,.13,0,.09.08a2.89,2.89,0,0,0-.83,1.31c-.2,1.05.81.86,1,.78a2.91,2.91,0,0,0,1.27-1.1c.07-.11.11-.27,0-.11a2.56,2.56,0,0,1-1.52.81c-.56,0-.64-.51-.49-.73s.68-.76.78-.9a2.3,2.3,0,0,0,.17-.35c.05-.15.08-.25-.08-.25S23,15.76,22.72,16.11Z"/><path class="cls-2" d="M31.52,14.75a3.91,3.91,0,0,0-.44,1.89c0,.21.16.62.49.63.17,0,.39-.12.55-.63,0-.11.05-.21.06-.25s0-.15-.1,0c-.12.32-.45.54-.69.12a1.7,1.7,0,0,1,.1-1.3c.06-.16.14-.4.14-.4C31.69,14.63,31.61,14.53,31.52,14.75Z"/><path class="cls-2" d="M15.93,9.64l-.53.72-1-.74a.06.06,0,0,0-.08,0l-.61.83a.06.06,0,0,0,0,.08l1,.76a.05.05,0,0,0,.08,0l.53-.72,1,.73a.05.05,0,0,0,.08,0l.61-.84a.06.06,0,0,0,0-.08l-1-.76A.05.05,0,0,0,15.93,9.64Z"/><path class="cls-2" d="M14.72,7.64l-.61.84a.06.06,0,0,0,0,.08l1,.76a.05.05,0,0,0,.08,0l.61-.83s0-.07,0-.08l-1-.76A.06.06,0,0,0,14.72,7.64Z"/><path class="cls-2" d="M21.59,6.89a3.93,3.93,0,0,0-.44,1.9c0,.2.16.61.5.62.17,0,.39-.12.54-.63,0-.11,0-.21.06-.25s0-.15-.09,0c-.13.31-.45.53-.7.11a1.7,1.7,0,0,1,.1-1.3c.06-.16.14-.4.14-.4C21.77,6.77,21.69,6.67,21.59,6.89Z"/><path class="cls-2" d="M5.61,6.84a4.53,4.53,0,0,0-.4,2.23c0,.24.24.7.64.69.2,0,.46-.16.62-.76,0-.14,0-.25,0-.3s0-.18-.11,0c-.13.37-.51.65-.83.18-.06-.09-.28-.52,0-1.51.06-.19.14-.48.14-.48C5.82,6.69,5.72,6.58,5.61,6.84Z"/><path class="cls-2" d="M9.58,6.64a9.15,9.15,0,0,0-.7,3.52c0,.39.2,1.15.68,1.18.24,0,.56-.21.81-1.15,0-.22.07-.39.09-.47s-.05-.29-.14,0c-.19.57-.66,1-1,.18A4,4,0,0,1,9.52,7.5c.09-.3.21-.74.21-.74C9.84,6.42,9.73,6.23,9.58,6.64Z"/><path class="cls-2" d="M26.25,5.24a9.09,9.09,0,0,0-.7,3.51c0,.39.2,1.15.67,1.18.25,0,.57-.2.81-1.15,0-.22.08-.39.09-.47s0-.28-.13,0c-.19.58-.66,1-1,.19a3.86,3.86,0,0,1,.19-2.41c.09-.3.21-.75.21-.75C26.51,5,26.4,4.83,26.25,5.24Z"/><path class="cls-2" d="M13.27,4.4a4.44,4.44,0,0,0-.65.92c-.16.26.05.37.23.17a.9.9,0,0,1,.86-.38c.54,0,1.84,0,1.36.32s-.82.56-.82.56c-.31.23-.59.65,0,.42A4,4,0,0,0,16.07,5c.17-.25.36-.58-.4-.69S13.67,4,13.27,4.4Z"/><path class="cls-2" d="M27.25,2.39c-.26.1-9.56,4.08-9.83,4.2s-.35.16-.41.35-.08.28-.1.32-.11.25.28.08c.12-.06,9.49-4,9.7-4.15s.35-.15.45-.34.12-.22.18-.35S27.65,2.23,27.25,2.39Z"/><path class="cls-2" d="M3.75,1.63a4.5,4.5,0,0,0-.4,2.23c0,.24.23.7.64.69.2,0,.46-.16.62-.77,0-.13,0-.24,0-.29s0-.18-.11,0c-.13.37-.51.65-.83.18-.06-.09-.28-.53,0-1.51.06-.19.14-.48.14-.48C4,1.48,3.85,1.37,3.75,1.63Z"/><path class="cls-2" d="M9.67.91A4.62,4.62,0,0,0,9,3.53a4.28,4.28,0,0,0-1.9-2.36c-.1,0-.31.06-.33.37s-.06.65.07.77a5.3,5.3,0,0,0,.58.42c.07,0,.14,0,.16,0s.11-.26.23-.13A4,4,0,0,1,9,4.44c.06.16.21.17.24-.05.09-.56.13-1.52.17-1.82s.26-1.25.78-.81c.12.1.25.23.25.23s.25.3.31.14a1.21,1.21,0,0,0,.08-.87C10.76,1.17,10.11.35,9.67.91Z"/><path class="cls-2" d="M13.54.61a4.24,4.24,0,0,0-.44,2c0,.22.16.64.49.65.17,0,.39-.12.55-.66,0-.12,0-.22.06-.26s0-.16-.1,0c-.12.33-.45.56-.69.12a1.85,1.85,0,0,1,.1-1.36c.06-.17.14-.42.14-.42C13.71.48,13.63.37,13.54.61Z"/><path class="cls-2" d="M20.1.62a4.62,4.62,0,0,0-.66,2.62A4.23,4.23,0,0,0,17.54.88c-.1-.05-.3.06-.32.38s-.07.64.06.76a5.28,5.28,0,0,0,.59.42c.06,0,.13,0,.15,0s.11-.26.24-.13A4.07,4.07,0,0,1,19.4,4.15c.07.16.21.17.25-.05.08-.56.12-1.52.17-1.82s.26-1.25.78-.81a3,3,0,0,1,.24.23c.11.14.25.3.32.14A1.26,1.26,0,0,0,21.23,1C21.18.88,20.54.06,20.1.62Z"/><path class="cls-2" d="M28.73.06c-.05.13-.46,1-.46,1s.06.3.17.74,1.3,11.06,1.33,11.59.14.71-.19.93-2.38,1.33-3.2.1a2.35,2.35,0,0,1-.28-1.18,11,11,0,0,1,2.33.12c.1-.18.56-1.23.56-1.23A23.41,23.41,0,0,1,21,10.69a1.24,1.24,0,0,0-.54,0,5.88,5.88,0,0,0-1.88.57.87.87,0,0,0-.26.25c-.05.11-.25.72-.27.8s0,.1.06.1l2.72-.17c0-.08.11-.16.31-.09s2.33.61,2.74.74c-.44.17-5,2.82-6.12.51,0-.18,0-.79-.19-.37S17,14.31,16.36,14.4a1.06,1.06,0,0,1-1.18-.65c0-.1.22-.6.24-.68s0-.4-.2-.13a4,4,0,0,1-1.91,1.62c-.16.06-.85.13-1.63-.69a2.65,2.65,0,0,0-2.44-.6c-.28.05-1.74.38-4.13,2.48-.35.31-1.83,1.58-2.11,1.78s-1.64,1.1-2.32.16a2.9,2.9,0,0,1,.24-2.84A19.29,19.29,0,0,1,2.2,12.79a1.21,1.21,0,0,0,.18-.32A2.22,2.22,0,0,0,3,11.25c0-.25.08-.44.1-.54s-.07-.33-.17,0c-.22.67-.8,1.14-1.23.24a4.27,4.27,0,0,1,.18-2.78c.11-.35.25-.87.25-.87.12-.39,0-.6-.19-.13a9.83,9.83,0,0,0-.79,4.07c0,.42.24,1.2.74,1.33v0c-.46.59-2.27,2.84-1.8,4.86A1.88,1.88,0,0,0,2.6,19c1.14-.32,3-2.45,3.5-2.8s2.9-2.43,4.58-1.53a13,13,0,0,1,1.34,1c.23.19,1.45.86,2.68-1a1.22,1.22,0,0,0,1.63,1.06c.72-.21,1.08-1.33,1.08-1.33.12.19.53,1.64,2.92,1.09a41.68,41.68,0,0,0,4.6-1.9,4.46,4.46,0,0,1,.88-.24c-.06.49-.5,2.28.77,2.81.38.15,2.57.35,3.46-1.14a4.9,4.9,0,0,0,.32-2.72c0-.54-1-9.36-1-9.36s.62.57.72.68.22.05.16-.12S28.9.23,28.86.12,28.78-.06,28.73.06Z"/><path class="cls-2" d="M31.86.06c-.06.13-.35,1-.35,1,.08.54.79,6.3.83,6.69s1,6.91,1.1,8.71c0,.19.07.25.15.08s.66-1.38,0-5.79c-.06-.37-1.1-7.81-1.1-7.81s.62.57.72.68.21.05.16-.12S32,.23,32,.12,31.91-.06,31.86.06Z"/></g></g></g></svg>