<svg xmlns="http://www.w3.org/2000/svg" viewBox="0 0 37.3 17.62"><defs><style>.cls-1{isolation:isolate;}.cls-2{fill-rule:evenodd;mix-blend-mode:darken;}</style></defs><g class="cls-1"><g id="Layer_2" data-name="Layer 2"><g id="سور_الٌقرآن_الكريم" data-name="سور الٌقرآن الكريم"><path class="cls-2" d="M12.27,15.8l-.48.65-.91-.67s-.06,0-.07,0l-.56.76a.06.06,0,0,0,0,.07l1,.69a.05.05,0,0,0,.07,0l.48-.65.91.67s.06,0,.07,0l.56-.75a.08.08,0,0,0,0-.08l-.94-.69A.06.06,0,0,0,12.27,15.8Z"/><path class="cls-2" d="M18.15,15.75c-.18.09-2.77,1.13-3,1.24s-.26.13-.29.26-.06.22-.07.24-.07.21.21.05c.08-.05,2.71-1.1,2.87-1.19s.25-.12.31-.26.09-.17.13-.27S18.43,15.61,18.15,15.75Z"/><path class="cls-2" d="M23.2,15.5c-.18.09-2.78,1.09-3,1.19S20,16.82,20,17s-.06.22-.07.24-.07.2.21.05c.08-.05,2.71-1.07,2.87-1.16s.24-.11.31-.26.09-.16.13-.26S23.48,15.36,23.2,15.5Z"/><path class="cls-2" d="M31.69,13.43a4.17,4.17,0,0,0-.37,2.08c0,.23.22.66.59.65.2,0,.44-.15.59-.71a2.69,2.69,0,0,0,0-.29c0-.07,0-.16-.1,0-.12.35-.48.61-.78.17a1.77,1.77,0,0,1,0-1.42c.06-.18.13-.44.13-.44C31.89,13.28,31.79,13.18,31.69,13.43Z"/><path class="cls-2" d="M4.45,11.59l-.55.75a.05.05,0,0,0,0,.08l.94.69a.05.05,0,0,0,.07,0l.55-.76a0,0,0,0,0,0-.07l-1-.69A.05.05,0,0,0,4.45,11.59Z"/><path class="cls-2" d="M15.59,7.49,15,8.25a0,0,0,0,0,0,.07L16,9a.06.06,0,0,0,.08,0l.55-.76a.06.06,0,0,0,0-.08l-.94-.68A.06.06,0,0,0,15.59,7.49Z"/><path class="cls-2" d="M6.05,7a4.22,4.22,0,0,0-.44,2c0,.22.16.65.49.66.17,0,.4-.12.55-.66l.06-.26c0-.08,0-.16-.1,0-.12.33-.44.56-.69.12A1.85,1.85,0,0,1,6,7.49c.06-.17.14-.42.14-.42C6.22,6.88,6.14,6.78,6.05,7Z"/><path class="cls-2" d="M20.2,6.82l-.56.76s0,.06,0,.07l1,.69a0,0,0,0,0,.07,0l.55-.76a0,0,0,0,0,0-.07l-.94-.69A0,0,0,0,0,20.2,6.82Z"/><path class="cls-2" d="M34.08,5.2A3.85,3.85,0,0,0,33.69,7c0,.19.14.58.44.59s.36-.11.5-.6c0-.11,0-.19,0-.24s0-.14-.08,0c-.12.3-.41.51-.63.11a1.62,1.62,0,0,1,.09-1.24l.12-.38C34.24,5.09,34.17,5,34.08,5.2Z"/><path class="cls-2" d="M12,5a4.39,4.39,0,0,0-.43,2c0,.22.16.65.49.66.17,0,.39-.12.55-.66,0-.12,0-.22,0-.26s0-.16-.09,0c-.12.33-.45.56-.69.12a1.85,1.85,0,0,1,.1-1.36c.06-.17.13-.42.13-.42C12.13,4.88,12.05,4.78,12,5Z"/><path class="cls-2" d="M20.24,3a.8.8,0,0,0,0,.61c.09.24.34.79.38.87s.05.16-.09.22a.61.61,0,0,1-.87-.47,5.48,5.48,0,0,0-.18-1c-.06-.11-.11-.12-.15,0a1.43,1.43,0,0,0-.08.38.12.12,0,0,0,0,.1s.27.78.16,1-.66.56-.95.18a3,3,0,0,1-.06-1.1c0-.16-.05-.21-.12-.09a.77.77,0,0,0-.1.33c0,.12,0,.61,0,.77s0,.66.3.8.73,0,1.06-.61a.71.71,0,0,0,.84.29.83.83,0,0,0,.43-.69,1.14,1.14,0,0,0-.15-.82,3.12,3.12,0,0,1-.25-.68C20.34,3,20.3,2.8,20.24,3Z"/><path class="cls-2" d="M12.48,2.29,3.16,6.7c-.25.13-.33.18-.38.36s-.07.28-.08.31-.1.25.27.07c.12-.06,9-4.24,9.2-4.36s.32-.16.41-.34a2.36,2.36,0,0,0,.16-.35C12.8,2.25,12.86,2.12,12.48,2.29Z"/><path class="cls-2" d="M4.39,1.18A4.45,4.45,0,0,0,4,3.59a3.87,3.87,0,0,0-1.77-2C2.17,1.55,2,1.66,2,2s0,.58.11.69A5.72,5.72,0,0,0,2.65,3c.06,0,.11,0,.13,0s.07-.24.18-.13A3.54,3.54,0,0,1,4.07,4.42c.06.14.19.14.2-.06,0-.51,0-1.38,0-1.65s.12-1.16.59-.8c.11.09.22.2.22.2s.24.25.28.1a1.16,1.16,0,0,0,0-.78C5.32,1.34,4.71.65,4.39,1.18Z"/><path class="cls-2" d="M17,.44a4.19,4.19,0,0,0-.57,2.31A3.73,3.73,0,0,0,14.78.67c-.09-.05-.26,0-.28.33s-.06.57.06.68a4.45,4.45,0,0,0,.5.37c.06,0,.12,0,.14,0s.09-.22.2-.11a3.23,3.23,0,0,1,.93,1.43c.16.67-1.5,2-1.59,2.1s-.1.18,0,.14a8.55,8.55,0,0,0,1-.61,1.82,1.82,0,0,0,.89-1.38.14.14,0,0,0,0-.07c.07-.49.11-1.34.15-1.6s.22-1.11.68-.72l.21.2c.1.12.22.27.27.12A1.13,1.13,0,0,0,18,.75C17.94.67,17.38,0,17,.44Z"/><path class="cls-2" d="M8.87.37a4.44,4.44,0,0,0-.43,2c0,.22.16.64.49.66.17,0,.39-.13.55-.66,0-.13,0-.22,0-.27s0-.16-.09,0c-.12.33-.45.56-.69.11A1.81,1.81,0,0,1,8.85.86C8.91.69,9,.43,9,.43,9.05.24,9,.14,8.87.37Z"/><path class="cls-2" d="M35.45.29l-.38,1s.1.41.12.55c.16,1.21,1.15,8.39,1.44,10.66.14,1.11.24,2.12.26,2.66,0,.17.06.23.14.07a3.58,3.58,0,0,0,.26-1.37,18.2,18.2,0,0,0-.21-3.26L36,2.85l.65.62c.09.1.2,0,.15-.11s-1.2-2.92-1.24-3S35.5.18,35.45.29Z"/><path class="cls-2" d="M30.21,5a1.45,1.45,0,0,0-.12-1.1c-.05-.09-.37-.39-.76.18-.15.21-.28.74-.07.9a2.62,2.62,0,0,0,.5.29,14.28,14.28,0,0,1-3,2.55c-.15.08-.12.15,0,.13A6.78,6.78,0,0,0,28.49,7,7.3,7.3,0,0,0,30,5.35l.27.25c.07.09.1.16.14.07A.53.53,0,0,0,30.21,5ZM30,4.85l-.4-.2c-.12-.06-.18-.14-.12-.21.19-.27.29-.26.36-.21A.76.76,0,0,1,30,4.85Z"/><path class="cls-2" d="M29.71,2.26c-.18.09-4.54,1.92-4.73,2s-.25.13-.29.27-.06.22-.07.24-.07.2.21,0c.08,0,4.48-1.9,4.64-2s.24-.12.31-.26.09-.16.13-.26S30,2.11,29.71,2.26Z"/><path class="cls-2" d="M34.47,11.07a5.82,5.82,0,0,0-1.32.23,5.83,5.83,0,0,1-.24-.82c-.24-1-1.17-7.86-1.17-7.86s.56.52.64.62.2,0,.15-.11S31.42.45,31.39.35s-.08-.16-.13,0-.41.92-.41.92a4.14,4.14,0,0,1,.16.67c.06.42.15,1,.25,1.7a78.25,78.25,0,0,0,1.18,8,4.73,4.73,0,0,0-.47.2,18.57,18.57,0,0,1-1.81.67c.06-.23.2-.76.38-1.25A1.27,1.27,0,0,0,30,9.73a3.39,3.39,0,0,0-3.45-.35,9.8,9.8,0,0,0-2.37,2.13,7,7,0,0,0,.22-2.75c-.14-1.34-.95-6.26-.95-6.26l.56.58c.09.09.2,0,.14-.11S23.1.26,23.07.16,23,0,23,.11L22.53,1a4.14,4.14,0,0,1,.16.67c.06.42.15,1,.25,1.7,0,0,.15,1,.41,2.33a38.07,38.07,0,0,1,.59,4.15A12.31,12.31,0,0,1,23.79,12c-.48.58-.85,1.08-1,1.31-.25,0-.49-.08-.73-.13l-.45-.14a2.56,2.56,0,0,0,.52-1.22c.22-1.77-.58-2.21-1-2.12a2.31,2.31,0,0,0-1.42,1.77,2.2,2.2,0,0,0,.14,1.78,4.64,4.64,0,0,1-.66.22,4.09,4.09,0,0,1-2.17,0,2.14,2.14,0,0,0,.45-.84,2.64,2.64,0,0,0-.2-2.06c-.11-.18-.44-.68-1-.28a3.54,3.54,0,0,0-1.18,1.84,2.26,2.26,0,0,0,0,1.41l-.29.08A2,2,0,0,1,12.55,13a6.39,6.39,0,0,1-.71-2.54A4.5,4.5,0,0,0,11.37,9c-.17-.23-.34-.24-.43-.09s-.46,1.09-.6,1.27a1.12,1.12,0,0,1-1.49.23,2.56,2.56,0,0,1-.33-.48c-.06-.08-.1-.05-.11,0s-.2.87-.2.87A9.38,9.38,0,0,1,9,12.5a1,1,0,0,1-.31,1.18c-.18.14-2.39,2.45-5.19,2.31C3,15.94.37,15.58.39,13.25a9.54,9.54,0,0,1,.49-2,.34.34,0,0,0,0-.19.51.51,0,0,0,.17,0c.27,0,.6-.26.8-1.25,0-.22,0-.39.06-.48s-.08-.29-.15,0c-.16.61-.65,1.05-1.07.28a3.74,3.74,0,0,1,0-2.47c.08-.32.17-.78.17-.78C1,6,.85,5.84.72,6.27A8.91,8.91,0,0,0,.24,9.9a1.67,1.67,0,0,0,.5,1,.38.38,0,0,0-.11.17c-.13.31-1.44,3.17.14,5,.29.26,2.24,2,5.61.33.61-.31,3.07-1.8,3.12-3.25,0-.52,0-1.15,0-1.33a2.2,2.2,0,0,0,1.43-1.41c.05-.15.16-.44.25-.17s.49,2.38.59,2.74.68,2.91,3.8,1.48l.31-.15a4.35,4.35,0,0,0,.51.17c.21.08,1.36.74,3.81-.35.05,0,.19-.09.38-.21l.21.1c.37.15,2.92,1.38,8.68-.43.53-.16,2.08-.75,3.24-1.13a1.78,1.78,0,0,0,.3.62,2.15,2.15,0,0,0,1.79,1c.23,0,.81-.27,1-1.7C35.79,12.12,35.72,11.18,34.47,11.07ZM16.1,13.21,15.66,13a.55.55,0,0,1-.22-.84c.32-.38.85-1.2,1.22-.62s.47.78.32,1A2.49,2.49,0,0,1,16.1,13.21Zm5.2-.84c-.1.08-.29.22-.52.37a2.69,2.69,0,0,1-.72-.44c-.08-.08-.24-.27,0-.73s.69-.91,1.09-.63a1,1,0,0,1,.49.81A.89.89,0,0,1,21.3,12.37Zm8.55-.66a12.83,12.83,0,0,1-6.18,1.7h-.11c.18-.29,1.82-2.66,3.07-3.07a3,3,0,0,1,3.24.86C30,11.36,30.14,11.52,29.85,11.71ZM35,12.91a1.66,1.66,0,0,1-1.22-.46,1.77,1.77,0,0,1-.18-.22,1.56,1.56,0,0,1,.36-.06,1.26,1.26,0,0,1,1.17.5C35.22,12.79,35.21,12.88,35,12.91Z"/><path class="cls-2" d="M26.36.12A4.12,4.12,0,0,0,26,1.93c0,.2.15.58.44.59s.36-.11.5-.6c0-.11,0-.19.05-.24s0-.14-.08,0c-.11.3-.41.51-.63.11A1.68,1.68,0,0,1,26.34.56l.12-.38C26.52,0,26.45-.09,26.36.12Z"/></g></g></g></svg>