<svg xmlns="http://www.w3.org/2000/svg" viewBox="0 0 36.15 18.41"><defs><style>.cls-1{isolation:isolate;}.cls-2{fill-rule:evenodd;mix-blend-mode:darken;}</style></defs><g class="cls-1"><g id="Layer_2" data-name="Layer 2"><g id="سور_الٌقرآن_الكريم" data-name="سور الٌقرآن الكريم"><path class="cls-2" d="M11.89,16l-3.6,1.74c-.21.1-.27.16-.3.31a2,2,0,0,1-.06.27c0,.1-.06.19.23,0,.1,0,3.33-1.59,3.51-1.69a.59.59,0,0,0,.33-.31,2.65,2.65,0,0,0,.12-.3C12.16,15.92,12.21,15.82,11.89,16Z"/><path class="cls-2" d="M28.65,14.94a3.92,3.92,0,0,0-.4,1.83c0,.2.14.59.45.6.15,0,.36-.11.5-.6,0-.12,0-.21.05-.25s0-.14-.08,0-.42.51-.64.11a1.65,1.65,0,0,1,.09-1.25c.06-.16.13-.39.13-.39C28.81,14.82,28.73,14.73,28.65,14.94Z"/><path class="cls-2" d="M5.63,11.68l-.56.77a.05.05,0,0,0,0,.08l1,.69a0,0,0,0,0,.07,0l.56-.77s0-.06,0-.07l-1-.7A0,0,0,0,0,5.63,11.68Z"/><path class="cls-2" d="M4.85,7.19a4.54,4.54,0,0,0-.31,2c0,.23.19.65.52.64.16,0,.37-.14.5-.7,0-.12,0-.22,0-.27s0-.16-.09,0c-.11.34-.41.59-.68.16a2,2,0,0,1,0-1.38c.05-.17.11-.43.11-.43C5,7.05,4.93,7,4.85,7.19Z"/><path class="cls-2" d="M.63,7.18a8.5,8.5,0,0,0-.44,3.5,1.72,1.72,0,0,0,.28.78C0,12.7-.86,16.31,2.23,17.26c.78.25,2.86.72,6.64-2.06.36-.27,2.11-1.36,1.64-3.15,0-.25-1-2.55-1-2.55l.47.18c.09,0,.23,0,.1-.22S9,8.24,9,8.17A.91.91,0,0,1,8.92,8c0-.09-.09-.07-.12,0s-.26.82-.28.89a6.34,6.34,0,0,0,.29,1.07,22.63,22.63,0,0,0,1,2.33.78.78,0,0,1,.05.85,10.88,10.88,0,0,1-5.24,3c-.49.12-2.57.57-3.69-1a3.77,3.77,0,0,1-.31-3.39.54.54,0,0,0,.3.1c.26,0,.57-.25.75-1.2,0-.22,0-.39.05-.47s-.07-.27-.13,0c-.15.58-.61,1-1,.26A3.7,3.7,0,0,1,.64,8c.07-.3.16-.74.16-.74C.88,6.94.75,6.76.63,7.18Z"/><path class="cls-2" d="M4.25,1.77a4.26,4.26,0,0,0-.6,2.4A4,4,0,0,0,1.91,2c-.09,0-.28.05-.3.34s-.06.59.06.71,1,.42.51.91C2,4.19.92,5.28.7,5.55s-.25.31,0,.17A3,3,0,0,0,2.56,3.66a.7.7,0,0,0-.06-.41s0,0,.07,0A3.79,3.79,0,0,1,3.62,5c0,.15.19.16.22,0C3.92,4.45,4,3.57,4,3.3s.23-1.16.71-.75c.11.09.23.21.23.21s.23.27.29.13a1.1,1.1,0,0,0,.06-.79C5.25,2,4.66,1.26,4.25,1.77Z"/><path class="cls-2" d="M8.06,1.6a8.81,8.81,0,0,0-.71,3.46c0,.38.21,1.14.7,1.16.25,0,.58-.2.83-1.13A4.39,4.39,0,0,0,9,4.62c0-.12,0-.27-.13,0-.2.58-.69,1-1,.19A3.78,3.78,0,0,1,8,2.45c.09-.3.21-.73.21-.73C8.33,1.38,8.21,1.2,8.06,1.6Z"/><path class="cls-2" d="M14.83,8.33a4.51,4.51,0,0,0-.31,2c0,.22.19.65.52.64.17,0,.37-.15.5-.7a2,2,0,0,0,0-.27c0-.08,0-.16-.09,0-.1.34-.4.59-.67.16a2,2,0,0,1,0-1.38c.05-.18.11-.44.11-.44C15,8.18,14.91,8.08,14.83,8.33Z"/><path class="cls-2" d="M20,7.37l-.56.76a.06.06,0,0,0,0,.08l1,.69a.06.06,0,0,0,.08,0L21,8.12a0,0,0,0,0,0-.07l-1-.7S20,7.34,20,7.37Z"/><path class="cls-2" d="M24,7.17a4.37,4.37,0,0,0-.41,2.26c0,.25.23.72.64.71.21,0,.48-.17.64-.78,0-.14,0-.25.05-.31s-.06-.17-.12,0c-.13.38-.51.66-.84.18-.06-.1-.28-.53,0-1.53.07-.2.14-.49.14-.49C24.2,7,24.09,6.9,24,7.17Z"/><path class="cls-2" d="M27.17,2.81a.81.81,0,0,0,0,.63c.09.25.35.82.39.9s0,.17-.09.23a.63.63,0,0,1-.9-.49,6.29,6.29,0,0,0-.19-1c-.06-.11-.11-.13-.16,0a2.06,2.06,0,0,0-.08.39.11.11,0,0,0,0,.11s.28.81.16,1-.69.59-1,.19a3,3,0,0,1-.06-1.14c0-.17,0-.22-.12-.09a.68.68,0,0,0-.11.34,6.82,6.82,0,0,1,0,.79c0,.16,0,.69.31.83s.76,0,1.1-.63a.76.76,0,0,0,.88.31.93.93,0,0,0,.45-.72,1.28,1.28,0,0,0-.16-.85,3.27,3.27,0,0,1-.27-.71C27.28,2.75,27.24,2.59,27.17,2.81Z"/><path class="cls-2" d="M23.2,1.49,13.91,6.56c-.25.14-.33.2-.37.39a3.09,3.09,0,0,1-.07.32c0,.13-.08.26.29.05.11-.07,9-4.87,9.17-5s.32-.18.4-.38.1-.23.15-.36S23.58,1.3,23.2,1.49Z"/><path class="cls-2" d="M16.08,1a4,4,0,0,0-.58,2.33,3.83,3.83,0,0,0-1.69-2.09c-.09-.05-.27,0-.29.33s-.06.56.06.68a4.42,4.42,0,0,0,.52.37c.06,0,.12,0,.14,0s.09-.23.2-.12a3.49,3.49,0,0,1,1,1.67c.06.14.19.15.22-.05.07-.49.11-1.35.15-1.61s.23-1.12.69-.73a2.5,2.5,0,0,1,.22.21c.1.12.22.26.28.12a1.07,1.07,0,0,0,.06-.76C17,1.24,16.47.52,16.08,1Z"/><path class="cls-2" d="M31,.67l-.4.94a5.84,5.84,0,0,1,.17.68L31,4s1.51,9,1.55,9.31.18,1.1-1.19,1.17a1.63,1.63,0,0,1-1.89-1.29c-.09-.28-.57-2.92-.73-3.47A11.58,11.58,0,0,0,27.13,6C27,5.9,27,6,27,6.09s-.13.83-.13.83a27.8,27.8,0,0,1,1.72,5.2,1,1,0,0,1-.32.87,12.55,12.55,0,0,1-3.85,3A1.59,1.59,0,0,1,22.83,16c-.32-.21-.64-.84-.2-2.25a.31.31,0,0,0,0-.08,8.59,8.59,0,0,1,1.21-.51,6.62,6.62,0,0,1,2.65-.27l.43-1.1a17.51,17.51,0,0,1-4-.15,40.32,40.32,0,0,0-4.7-.94c-.34.14-1.49.59-1.61.66a.43.43,0,0,0-.24.27c0,.13-.12.54-.14.65s0,.14.09.12,1.73-.18,1.91-.18.28,0,.32-.09a1.28,1.28,0,0,0,.09-.14c.92.09,3.68.75,3.75.74a18.64,18.64,0,0,1-5.72,2.24c-.54.06-2.19.4-3.18-.83a5.53,5.53,0,0,1-.94-2.73c-.13-1.19-.29-2.89-.33-3.52-.06-.94-.41-5.47-1-6.94-.08-.14-.13-.19-.21,0s-.31.81-.31.81c.86,3.22,1.1,9.07,1.32,10.58.27,1.73.8,3.55,2.66,3.82a8.21,8.21,0,0,0,4.66-.84c.75-.33,1.93-.95,2.92-1.45l0,.14c-.21.85-.43,2.54.44,3.17.22.16,1.34.69,3-.62A16.61,16.61,0,0,0,28.41,14a2.42,2.42,0,0,0,.4-.84,6.28,6.28,0,0,0,.74,1.79,1.86,1.86,0,0,0,3,0A3.62,3.62,0,0,0,33,12.28c0-.36-1.46-9-1.46-9s.58.52.67.62.2,0,.15-.12S31.11.82,31.07.73,31,.56,31,.67Z"/><path class="cls-2" d="M33.94.44c0,.11-.3.88-.3.88.08.49.87,5.75.92,6.11s1.12,6.32,1.22,8c0,.17.06.23.13.07s.58-1.28-.15-5.31C35.7,9.82,34.57,3,34.57,3l.67.61c.09.1.2,0,.15-.11S34.1.59,34.06.49,34,.32,33.94.44Z"/><path class="cls-2" d="M26,1.46A1.67,1.67,0,0,0,25.84.19c-.06-.11-.43-.46-.88.2-.18.25-.32.87-.08,1a3.83,3.83,0,0,0,.59.34,16,16,0,0,1-3.43,3c-.17.09-.14.18,0,.16a7.94,7.94,0,0,0,2-1.06,8.36,8.36,0,0,0,1.75-2,3.72,3.72,0,0,1,.31.29c.09.11.13.19.17.08A.61.61,0,0,0,26,1.46Zm-.25-.16-.46-.23c-.15-.06-.22-.16-.15-.25.23-.31.34-.29.42-.24A.87.87,0,0,1,25.73,1.3Z"/></g></g></g></svg>