<svg xmlns="http://www.w3.org/2000/svg" viewBox="0 0 32.07 19.95"><defs><style>.cls-1{isolation:isolate;}.cls-2{fill-rule:evenodd;mix-blend-mode:darken;}</style></defs><g class="cls-1"><g id="Layer_2" data-name="Layer 2"><g id="سور_الٌقرآن_الكريم" data-name="سور الٌقرآن الكريم"><path class="cls-2" d="M17.42,17.32c-.24.12-4.41,1.67-4.65,1.81s-.34.17-.38.35l-.09.31c-.05.12-.09.27.27.06.11-.06,4.33-1.63,4.53-1.75s.32-.16.41-.34a3.11,3.11,0,0,0,.16-.34C17.73,17.28,17.78,17.14,17.42,17.32Z"/><path class="cls-2" d="M2.9,14c-.18.09-2.31,1-2.5,1.11s-.27.13-.31.28a1.82,1.82,0,0,1-.06.24c0,.1-.08.22.21.05.09-.05,2.25-1,2.41-1.06s.26-.13.33-.27a3,3,0,0,0,.13-.28C3.15,14,3.2,13.83,2.9,14Z"/><path class="cls-2" d="M13.49,7.38c-.64.35-1.23,1.41-1,1.79a2.83,2.83,0,0,0,.68.6c-.21.13-.43.2-.49.42a2,2,0,0,0-.06.43c0,.08,0,.14.11.1a.92.92,0,0,0,.18-.07,18.92,18.92,0,0,1,2.61-1.23,2.32,2.32,0,0,0,.1-.48c0-.17-.15-.14-.42-.07s-1.22.41-1.77,0-.53-.51-.37-.62.58-.42.89-.07c.16.19.29.18.35.05s.26-.48.19-.61A.69.69,0,0,0,13.49,7.38Z"/><path class="cls-2" d="M7.67,9.25a4.72,4.72,0,0,0-.39,2.16c0,.24.2.7.55.7.19,0,.42-.15.57-.74,0-.13,0-.24,0-.29s0-.17-.1,0c-.12.36-.46.62-.74.15a1.94,1.94,0,0,1,0-1.47l.14-.46C7.86,9.1,7.77,9,7.67,9.25Z"/><path class="cls-2" d="M14.63,12.14c-.14-.14-.17-.12-.21,0s-.13,1.28-.13,1.28a5.49,5.49,0,0,1,1,1.2c.15.3.07.4-.11.55a1.75,1.75,0,0,1-2,.05c-1.1-.65-1.57-3-1.7-4a13.64,13.64,0,0,0-1.94-5.9c-.24-.41-.3.23-.33.56A5.09,5.09,0,0,0,9.3,7s1,3,1.18,3.74c.79,2.22-.19,2.66-.84,3.29s-3.46,3.07-5.18,2.6c-1.54-.42-.46-3.16-.38-3.73a.5.5,0,0,0,0-.12,2.69,2.69,0,0,0,1.31-1.33,1.86,1.86,0,0,0-.07-1.77A7.2,7.2,0,0,0,3.9,8.54s.9-1.22,1-1.37a10.32,10.32,0,0,0,.46-1.33c0-.23.05-.35-.12-.14L3.31,8.16l-1.25-.9.61-.15c.09,0,.14-.14,0-.22S1,6.18.86,6.14.71,6,.7,6.16s0,1.12,0,1.12,0,.07.11.14a2,2,0,0,1,.36.35C1.24,7.88,2.64,9,2.71,9a6.7,6.7,0,0,0-.81,2.2c-.1,1,0,2.3,1.32,1.88A2.51,2.51,0,0,0,3.67,13c-.12.44-.4,1.69-.45,2-.64,3.2,1.9,3.22,3.22,2.64a21.34,21.34,0,0,0,4-3A3.49,3.49,0,0,0,11,13.19s.41,1.26.58,1.72a2.69,2.69,0,0,0,2.39,2,1.59,1.59,0,0,0,1.84-1.47A4.19,4.19,0,0,0,14.63,12.14ZM3.06,11.87c-.29,0-1.06-.12-.72-.91.12-.25.9-1.56.9-1.56.28.16,2.14,1.12,1.64,1.52A5.7,5.7,0,0,1,3.06,11.87Z"/><path class="cls-2" d="M3.22,1.9l-.56.78-1.1-.8a.06.06,0,0,0-.08,0l-.66.9a.06.06,0,0,0,0,.09L2,3.71a.07.07,0,0,0,.09,0l.57-.78,1.09.8a.07.07,0,0,0,.09,0l.66-.9a.06.06,0,0,0,0-.09L3.31,1.88S3.25,1.87,3.22,1.9Z"/><path class="cls-2" d="M13,.78C12.79.92,7.22,4,7,4.17s-.31.2-.34.38,0,.29-.05.32-.06.28.27,0c.11-.08,5.72-3.19,5.91-3.33s.3-.18.37-.38.09-.22.13-.36S13.35.55,13,.78Z"/><path class="cls-2" d="M23.4,11.11a4.75,4.75,0,0,0-.46,2.16c0,.24.17.7.53.71.18,0,.42-.13.59-.72l.06-.28c0-.08,0-.18-.1,0-.14.36-.49.61-.75.13a2,2,0,0,1,.1-1.47c.07-.18.15-.46.15-.46C23.6,11,23.51,10.86,23.4,11.11Z"/><path class="cls-2" d="M24.93,8c-.24.14-5.31,2.47-5.56,2.63S19,10.82,19,11s-.06.3-.07.33-.08.29.29.06c.11-.08,5.22-2.43,5.43-2.56s.33-.18.41-.38.11-.23.16-.37S25.31,7.79,24.93,8Z"/><path class="cls-2" d="M21.88,3.64a4.61,4.61,0,0,0-.65,2.61A4.27,4.27,0,0,0,19.34,3.9c-.11-.06-.31.05-.33.37s-.06.64.07.77a4,4,0,0,0,.58.41c.07,0,.14,0,.16,0s.1-.26.23-.13a3.94,3.94,0,0,1,1.14,1.87c.06.16.21.17.24,0,.09-.56.13-1.52.18-1.81s.25-1.26.77-.82c.12.1.25.23.25.23s.24.3.31.14A1.18,1.18,0,0,0,23,4C23,3.89,22.32,3.08,21.88,3.64Z"/><path class="cls-2" d="M30.28,14.19c-.67-1.19-2.1-.73-2.67-.47a42.34,42.34,0,0,1-1-5.08c-.4-2.67-.76-5.44-.76-5.44l.77.74c.11.11.24.05.18-.13S25.38.33,25.34.21s-.09-.2-.15-.07l-.38,1c.06.41,1,7.32,1.61,11.1.09.52.42,1.9.42,1.9-.62.41-4.87,2.78-7.38,1.28-.61-.35-1.7-.93-2-4.27a44.35,44.35,0,0,0-1-8.9,13.25,13.25,0,0,0-.5-1.71c-.08-.17-.12-.06-.16,0s-.36,1.08-.36,1.08a38.47,38.47,0,0,1,1.1,6.75c0,.58.12,4.64,1,6.65,2.08,5,9.28.53,9.72.32a3.7,3.7,0,0,0,1.46,1.5,1.32,1.32,0,0,0,1.42,0A2.59,2.59,0,0,0,30.28,14.19Zm-.71,1.53a1.52,1.52,0,0,1-1.27-.88,1.67,1.67,0,0,1,1.53.56C29.89,15.53,29.86,15.71,29.57,15.72Z"/><path class="cls-2" d="M20.11.15a4.63,4.63,0,0,0-.47,2.15c0,.24.17.7.53.71.18,0,.42-.13.59-.71,0-.13,0-.24.06-.29s0-.17-.1,0c-.13.35-.48.6-.75.12A2,2,0,0,1,20.08.67c.07-.18.15-.46.15-.46C20.3,0,20.21-.1,20.11.15Z"/><path class="cls-2" d="M29.86.07c-.06.13-.38,1-.38,1,.09.58.85,6.82.91,7.24s1.13,7.48,1.18,9.43c0,.2.07.27.16.08s.72-1.49,0-6.26c-.06-.4-1.19-8.46-1.19-8.46l.78.74c.1.12.23.05.17-.13S30.05.25,30,.13,29.91-.06,29.86.07Z"/></g></g></g></svg>