<svg xmlns="http://www.w3.org/2000/svg" viewBox="0 0 35.39 17.81"><defs><style>.cls-1{isolation:isolate;}.cls-2{fill-rule:evenodd;mix-blend-mode:darken;}</style></defs><g class="cls-1"><g id="Layer_2" data-name="Layer 2"><g id="سور_الٌقرآن_الكريم" data-name="سور الٌقرآن الكريم"><path class="cls-2" d="M8.88,15.43C8.66,15.5,5.2,17,5,17.07s-.29.15-.33.3a2.06,2.06,0,0,1-.08.27c0,.11-.1.19.24.06L8.6,16.11A.57.57,0,0,0,9,15.82a2.37,2.37,0,0,0,.14-.3C9.15,15.4,9.21,15.33,8.88,15.43Z"/><path class="cls-2" d="M22,15.08c-.2.1-3.2,1.4-3.42,1.52s-.28.15-.33.31-.06.25-.07.27-.08.23.23.05c.1-.05,3.14-1.37,3.31-1.47s.28-.14.36-.3.1-.18.15-.3S22.28,14.92,22,15.08Z"/><path class="cls-2" d="M13.8,14.58a4.28,4.28,0,0,0-.39,2.14c0,.23.23.67.61.66.2,0,.45-.16.6-.74,0-.13,0-.23.05-.28s-.05-.17-.11,0c-.12.36-.49.63-.8.17a1.81,1.81,0,0,1,0-1.45c.06-.18.13-.45.13-.45C14,14.43,13.9,14.33,13.8,14.58Z"/><path class="cls-2" d="M32.67,13.9a4.17,4.17,0,0,0-.41,1.88c0,.2.15.61.47.62.16,0,.37-.12.51-.63,0-.11,0-.2.06-.25s0-.15-.09,0c-.12.31-.43.53-.66.11a1.76,1.76,0,0,1,.1-1.28l.13-.4C32.84,13.78,32.76,13.68,32.67,13.9Z"/><path class="cls-2" d="M10.37,7.64A4.17,4.17,0,0,0,10,9.52c0,.21.15.61.47.62.16,0,.37-.12.51-.62L11,9.27c0-.07,0-.15-.09,0-.12.31-.43.53-.66.11a1.76,1.76,0,0,1,.1-1.28l.13-.4C10.54,7.52,10.46,7.42,10.37,7.64Z"/><path class="cls-2" d="M1.39,7.25A4.54,4.54,0,0,0,1,9.53c0,.25.24.72.65.71.21,0,.48-.17.64-.78,0-.14,0-.25,0-.31s-.06-.18-.11,0c-.14.38-.53.66-.86.18a2,2,0,0,1,0-1.55c.06-.19.14-.49.14-.49C1.6,7.09,1.5,7,1.39,7.25Z"/><path class="cls-2" d="M6.05,7l-.5.68L4.6,7a0,0,0,0,0-.07,0L4,7.8a.06.06,0,0,0,0,.08l1,.72a.06.06,0,0,0,.08,0l.49-.68,1,.7s.06,0,.07,0l.58-.79a0,0,0,0,0,0-.07L6.13,7A.06.06,0,0,0,6.05,7Z"/><path class="cls-2" d="M30.16,5.09c-.21.07-2.7,1-2.95,1.06s-.29.15-.33.3-.06.25-.07.27-.1.2.23.06c.16-.07,2.62-.91,2.85-1a.61.61,0,0,0,.36-.3c.08-.16.09-.19.14-.3S30.49,5,30.16,5.09Z"/><path class="cls-2" d="M21.78,5l-.49.68-1-.7a.05.05,0,0,0-.07,0l-.58.79a0,0,0,0,0,0,.07l1,.72a.06.06,0,0,0,.08,0l.5-.69.95.7a.06.06,0,0,0,.08,0l.57-.79a.05.05,0,0,0,0-.08l-1-.72A.07.07,0,0,0,21.78,5Z"/><path class="cls-2" d="M16.48,5a4.5,4.5,0,0,0-.16,2.4,3.79,3.79,0,0,0-1.86-1.84c-.09,0-.24.08-.21.37s0,.57.16.67a5.66,5.66,0,0,0,.53.3c.06,0,.12,0,.12-.06s0-.24.17-.14a3.53,3.53,0,0,1,1.19,1.51c.07.13.19.13.19-.08,0-.5-.11-1.36-.12-1.62s0-1.15.51-.82a2.65,2.65,0,0,1,.23.17c.11.11.24.23.28.08a1.25,1.25,0,0,0-.07-.77C17.39,5,16.75,4.4,16.48,5Z"/><path class="cls-2" d="M3.84,1.67a4.39,4.39,0,0,0-.62,2.47A4,4,0,0,0,1.43,1.92c-.1,0-.29.05-.31.35s-.06.61.07.73,1,.43.52.93C1.49,4.16.42,5.28.18,5.55s-.25.32,0,.19A3.14,3.14,0,0,0,2.1,3.61.85.85,0,0,0,2,3.19l.06,0A3.81,3.81,0,0,1,3.19,5c.05.15.19.17.23,0,.07-.52.12-1.43.16-1.71s.24-1.19.73-.77a1.66,1.66,0,0,1,.23.22c.11.13.24.28.3.13A1.13,1.13,0,0,0,4.91,2C4.86,1.91,4.25,1.14,3.84,1.67Z"/><path class="cls-2" d="M7.41,1.22A9,9,0,0,0,6.92,5c0,.41.33,1.19.86,1.18.28,0,.62-.27.82-1.28,0-.23,0-.41.06-.5s-.08-.29-.15,0c-.17.62-.67,1.08-1.11.28a3.86,3.86,0,0,1,0-2.53c.08-.32.18-.8.18-.8C7.68,1,7.54.77,7.41,1.22Z"/><path class="cls-2" d="M28.21,1a4.11,4.11,0,0,0-.41,1.88c0,.21.15.61.46.62s.37-.11.52-.62c0-.11,0-.21,0-.25s0-.15-.08,0-.43.52-.66.11a1.81,1.81,0,0,1,.09-1.29c.06-.16.13-.4.13-.4C28.38.88,28.3.78,28.21,1Z"/><path class="cls-2" d="M22.2.84a4.08,4.08,0,0,0-.41,1.88c0,.21.15.61.46.62s.37-.11.52-.62c0-.12,0-.21.05-.25s0-.15-.08,0c-.12.32-.43.53-.66.12a1.75,1.75,0,0,1,.09-1.29c.06-.16.13-.4.13-.4C22.37.72,22.29.62,22.2.84Z"/><path class="cls-2" d="M12.44.81A4.16,4.16,0,0,0,12,2.68c0,.21.16.62.47.63.16,0,.37-.12.52-.63,0-.11,0-.2.05-.25s0-.15-.09,0-.42.53-.65.11a1.69,1.69,0,0,1,.09-1.29c.06-.16.13-.4.13-.4C12.61.68,12.54.59,12.44.81Z"/><path class="cls-2" d="M20.23.69C20,.82,10.3,5.73,10,5.87s-.37.21-.42.41-.07.31-.08.35-.11.28.3.06c.13-.07,9.86-5,10.08-5.11s.36-.19.45-.4a2.72,2.72,0,0,0,.17-.39C20.58.64,20.64.49,20.23.69Z"/><path class="cls-2" d="M24.58.06,24.25,1c.08.51.73,5.39.78,5.76s1,6.22,1,7.92c0,.18.06.24.14.07s.63-1,0-5.16c-.05-.35-1-6.82-1-6.82s.59.55.68.65.21,0,.15-.11S24.75.22,24.71.12,24.63-.06,24.58.06Z"/><path class="cls-2" d="M32.28,9.05c-.05-.41-1.07-6.32-1.07-6.32s.58.54.67.64.2,0,.15-.11S30.79.22,30.75.11s-.08-.16-.13,0L30.2,1a5.07,5.07,0,0,1,.15.7c.06.44.16,1.07.26,1.77,0,0,1.06,6,1.12,6.68s.06.8,0,.86a4.92,4.92,0,0,1-.92.52l0,0a3.49,3.49,0,0,0-.6-.87c-.76-.77-1.3-1.12-2.1-.24s-.86,2.22.24,2.62A3.89,3.89,0,0,0,30.08,13c.17,0,.72,0,.47.38s-2.47,3.09-5,3.28A2,2,0,0,1,23.3,14.2c0-.25.17-.85.22-1.12a.24.24,0,0,0,0-.12A2.73,2.73,0,0,0,24,11.49,4.35,4.35,0,0,0,22.68,8a1.13,1.13,0,0,0-1.42-.13c-.59.44-1.57,1.87-.71,2.72.14.14.59.39,1.74.32.32,0,1.1.14,1.3.53,0,.11,0,.34-.37.65a5,5,0,0,1-3.91,1.18,4.44,4.44,0,0,1-2-1.07,13,13,0,0,0,2.08-1.31,9.45,9.45,0,0,0,.22-1,9.23,9.23,0,0,0-6.46.12c-.24.11-.29.38-.41.62s-.18.5-.21.57,0,.17.14.09a3.13,3.13,0,0,1,.76-.32c.28-.08.89-.1,2.08,1l0,0a21.57,21.57,0,0,1-2.45,1.18c-.44.16-3.16,1-4.67-.67a13.09,13.09,0,0,1-1-1.5c-.17-.26-.63-.62-1.41-.1a6.31,6.31,0,0,0-2,2.9,10.47,10.47,0,0,1-.72,1.58c-.24.31-.57.8-1.41.14A5.07,5.07,0,0,1,.62,11.7c0-.26-.1-.45-.21,0s-.47,3.86,1.74,5.17c.25.15,1.25.47,1.74-.94.12-.37.75-2.65,2.09-3.67.28-.21.72-.53.92-.28s.47.66.47.66c.26.42,2,3.69,7.09,1.16.34-.17,1.11-.57,1.94-1a12.6,12.6,0,0,0,2,1.51c.39.2,1.56.77,4-.39a2.59,2.59,0,0,0,.78-.5c-.2.83-.78,3.41.86,4.24.29.15,2.66,1,6.24-2.56a3.83,3.83,0,0,0,.83-1.93,2.13,2.13,0,0,0,0-.56,2,2,0,0,0,1-1A4.83,4.83,0,0,0,32.28,9.05ZM28.65,12c-.62-.13-.43-.45-.28-.6a1,1,0,0,1,1.45.51A1.64,1.64,0,0,1,28.65,12ZM22.07,9.75a1.22,1.22,0,0,1-.94-.07c-.33-.2.11-.57.38-.68s.89.07,1.33.76A2.91,2.91,0,0,0,22.07,9.75ZM16.4,11.28a10.64,10.64,0,0,0-.79-.75,9,9,0,0,1,2.3.17c-.09.05-.63.37-1.35.76Z"/><path class="cls-2" d="M33.48.06c0,.11-.34.89-.34.89.08.51.73,5.39.78,5.76s1,6.52,1,8.22c0,.17.06.24.14.07s.63-1.3,0-5.46c0-.35-1-6.82-1-6.82s.58.55.67.65.21,0,.15-.11S33.64.22,33.6.12,33.52-.06,33.48.06Z"/></g></g></g></svg>