<svg xmlns="http://www.w3.org/2000/svg" viewBox="0 0 33.02 21.38"><defs><style>.cls-1{isolation:isolate;}.cls-2{fill-rule:evenodd;mix-blend-mode:darken;}</style></defs><g class="cls-1"><g id="Layer_2" data-name="Layer 2"><g id="سور_الٌقرآن_الكريم" data-name="سور الٌقرآن الكريم"><path class="cls-2" d="M11,18.71c-.24.12-4.3,1.7-4.55,1.84s-.33.17-.38.35L6,21.21c0,.12-.09.27.28.07.11-.07,4.21-1.67,4.42-1.79s.32-.15.41-.34a3.54,3.54,0,0,0,.17-.34C11.28,18.67,11.33,18.52,11,18.71Z"/><path class="cls-2" d="M16.29,17.66a5.37,5.37,0,0,0-.36,2.41c0,.26.24.76.64.74.2,0,.46-.18.6-.83,0-.15,0-.26,0-.32s-.06-.19-.11,0c-.13.4-.5.7-.82.19a2.21,2.21,0,0,1,0-1.63c.06-.21.13-.51.13-.51C16.5,17.49,16.39,17.38,16.29,17.66Z"/><path class="cls-2" d="M27.55,17.32c-.25.11-5.6,1.88-5.85,2s-.34.15-.4.33l-.1.31c-.06.12-.11.26.27.08.11-.06,5.51-1.86,5.72-2s.33-.14.43-.32a2.34,2.34,0,0,0,.18-.34C27.86,17.29,27.93,17.15,27.55,17.32Z"/><path class="cls-2" d="M13.21,17.12l-.67.91a.07.07,0,0,0,0,.09l1.14.83a.07.07,0,0,0,.09,0l.66-.91a.06.06,0,0,0,0-.09l-1.14-.82A.05.05,0,0,0,13.21,17.12Z"/><path class="cls-2" d="M5.46,7.45a5.7,5.7,0,0,0-.52,2.86c0,.31.3.91.82.89.26,0,.6-.21.8-1,0-.18.05-.32.06-.39s-.07-.22-.14,0c-.17.48-.65.83-1.07.23-.07-.12-.36-.67,0-1.94.09-.25.18-.61.18-.61C5.72,7.25,5.59,7.11,5.46,7.45Z"/><path class="cls-2" d="M11.15,4.15a4.83,4.83,0,0,0-.68,1c-.18.28,0,.4.24.19a1,1,0,0,1,.91-.42c.58,0,2,0,1.45.35s-.87.6-.87.6c-.34.24-.63.69,0,.44a4.2,4.2,0,0,0,2-1.55c.17-.27.38-.62-.44-.74S11.58,3.69,11.15,4.15Z"/><path class="cls-2" d="M18.56,1.28A10.7,10.7,0,0,0,18,5.76c.05.49.39,1.43,1,1.42.33,0,.74-.32,1-1.54,0-.27.06-.49.07-.6s-.09-.35-.18,0c-.2.75-.8,1.29-1.32.34a4.65,4.65,0,0,1,0-3.05c.1-.38.22-.95.22-.95C18.89,1,18.71.75,18.56,1.28Z"/><path class="cls-2" d="M5.78,1.08a5.37,5.37,0,0,0-.73,3A5,5,0,0,0,2.9,1.38c-.12-.06-.35.06-.37.43,0,.21-.07.73.08.88a4.1,4.1,0,0,0,.66.48c.07,0,.15,0,.17,0s.12-.3.27-.15a4.19,4.19,0,0,1,1.2,1.85C5.12,5.71,3,7.48,2.85,7.56s-.14.24-.05.19A10,10,0,0,0,4.1,7,2.42,2.42,0,0,0,5.26,5.16a.29.29,0,0,1,0-.09c.09-.64.14-1.74.19-2.08s.29-1.44.88-.94l.28.27c.12.16.28.34.35.16a1.38,1.38,0,0,0,.08-1C7,1.38,6.28.44,5.78,1.08Z"/><path class="cls-2" d="M12.41.18a4.7,4.7,0,0,0-.47,2.17c0,.24.17.7.53.72.19,0,.43-.14.6-.73,0-.13,0-.24.06-.29s0-.17-.1,0c-.13.36-.49.61-.76.13A2,2,0,0,1,12.38.71c.07-.19.15-.47.15-.47C12.6,0,12.52-.08,12.41.18Z"/><path class="cls-2" d="M30.37,13.39c-.06-.54-.14-1.13-.25-1.76-.06-.39-1.32-8-1.39-8.48.1.08.69.61.79.71s.24.05.18-.13S28.17.25,28.12.13,28-.06,28,.07l-.36,1c.1.59,1,6.85,1.09,7.28,0,.22.36,2.5.69,4.92a23.72,23.72,0,0,1-4.74-.83,6,6,0,0,0,.19-1.2,78,78,0,0,0-1.31-7.95l.8.73c.11.11.24.05.17-.14S23,.45,22.94.33s-.09-.2-.15-.06-.35,1-.35,1c0,.3.64,3.91,1.25,7.34a23.42,23.42,0,0,1,.36,3.11c-.17.22-3.62.36-3.78.65a10.94,10.94,0,0,0-.46,1c-.07.16,0,.19.09.16s1.88-.42,6.61.81c-.12.07-5,2.52-8.19,1.87a2.57,2.57,0,0,1-2-3.81c.9-.49,1.64-.95,2.16-1.28s.8-.55.8-.55.54-1.16.41-1.22a32.57,32.57,0,0,0-8.92-.66c-.31,0-2.09.27-2.43,1.68A1.7,1.7,0,0,0,8.84,12c.48.39,1.78,1.4,1.9,1.54a20.29,20.29,0,0,0-4.66,2.9c-.56.56-2.13,2.73-3,3.15S.69,20.2.51,18a7.39,7.39,0,0,1,1.35-4.35l0-.06c.28-.12.59-.5.78-1.49,0-.27.06-.49.07-.6s-.09-.35-.17,0c-.2.75-.8,1.3-1.33.34a4.59,4.59,0,0,1,0-3c.09-.39.21-1,.21-1,.11-.43-.06-.66-.22-.13a10.77,10.77,0,0,0-.59,4.48,1.84,1.84,0,0,0,.76,1.36l0,.07C1.05,14.29-.5,16.67.16,19.3a2.16,2.16,0,0,0,2.7,1.78c.6-.19,1.4-.54,2.92-2.49.43-.52,1.4-2.23,5.91-4.08a2.55,2.55,0,0,1,.45.76c.12.28.17.17.21,0a2.86,2.86,0,0,0,.07-1.06,28,28,0,0,0,3.41-1.51c-.19.82-1.19,3.65,1.6,4.76.68.27,2.08.91,6.76-.78a23.89,23.89,0,0,1,5.42-1.78c.22,1.66.4,3.19.43,3.91,0,.2.08.27.17.08a11.67,11.67,0,0,0,.28-4.09,7.83,7.83,0,0,1,1.93.11c.2-.35.6-1.39.6-1.39C32.78,13.52,31.72,13.49,30.37,13.39Zm-18.54-.33a19.42,19.42,0,0,0-2.56-2.17c-.46-.36.42-.61.65-.65,1.45-.41,5.71-.05,6.26,0s1.25.17,1.17.25A26.37,26.37,0,0,1,11.83,13.06Z"/></g></g></g></svg>