<svg xmlns="http://www.w3.org/2000/svg" viewBox="0 0 34.7 18.85"><defs><style>.cls-1{isolation:isolate;}.cls-2{fill-rule:evenodd;mix-blend-mode:darken;}</style></defs><g class="cls-1"><g id="Layer_2" data-name="Layer 2"><g id="سور_الٌقرآن_الكريم" data-name="سور الٌقرآن الكريم"><path class="cls-2" d="M6.46,16.21,2.51,17.74c-.23.09-.29.15-.34.31a1.94,1.94,0,0,1-.08.28c0,.11-.1.2.25.06.17-.07,3.59-1.37,3.83-1.48a.6.6,0,0,0,.37-.3l.15-.31C6.74,16.18,6.79,16.1,6.46,16.21Z"/><path class="cls-2" d="M17,15.67c-.22.1-3.77,1.54-4,1.66s-.29.16-.34.32-.07.25-.08.28-.08.24.25.05c.1-.05,3.69-1.51,3.87-1.61s.29-.14.37-.31.1-.19.15-.31S17.28,15.5,17,15.67Z"/><path class="cls-2" d="M32.25,13.82a4.09,4.09,0,0,0-.43,1.94c0,.21.16.63.48.64s.38-.12.53-.64c0-.12.05-.22.06-.26s0-.16-.09,0c-.12.32-.44.55-.68.12a1.77,1.77,0,0,1,.1-1.33c.06-.16.13-.41.13-.41C32.42,13.7,32.34,13.59,32.25,13.82Z"/><path class="cls-2" d="M14,6.85c0,.14-.14.74-.17.87a.52.52,0,0,0,0,.35,8.3,8.3,0,0,1,.33.78c.11.3,1.26,2.56,1.36,2.76s.13.35,0,.49c-3.7,4-10.82,6.42-11,6.56s-.16.24.22.17a29.58,29.58,0,0,0,4.69-1.1c.91-.45,5.26-2.64,6.51-5.05a3,3,0,0,0-.06-2.34c-.24-.48-1-1.83-1-1.83l.61,0c.05,0,.16-.06,0-.22S14.22,7,14.15,6.87,14,6.71,14,6.85Z"/><path class="cls-2" d="M4.81,9.08a5.94,5.94,0,0,0-.36,2.55c0,.28.23.81.62.8.19,0,.44-.18.59-.87,0-.16,0-.28,0-.34s0-.2-.1,0c-.13.43-.49.74-.8.2a2.57,2.57,0,0,1,0-1.73c.06-.22.13-.55.13-.55C5,8.91,4.91,8.78,4.81,9.08Z"/><path class="cls-2" d="M9,4.11l-.51.71-1-.72a.06.06,0,0,0-.08,0l-.6.82a.08.08,0,0,0,0,.08l1,.73a.05.05,0,0,0,.08,0L8.48,5l1,.71a.05.05,0,0,0,.08,0l.59-.81s0-.07,0-.08l-1-.74A.06.06,0,0,0,9,4.11Z"/><path class="cls-2" d="M10.84,8.57c-1.3-3.17-2.95-2-3.37-1.48S6.34,9.57,7.59,9.8s2.73-.13,3.16,1c.05.13,0,.65-1.31,1.56-.43.29-3.84,2.82-6.65,2.13C2.21,14.31-.4,13.36,1,9.15a.68.68,0,0,0,0-.38c.28,0,.6-.34.79-1.36,0-.25,0-.44.07-.54s-.08-.31-.16,0c-.17.67-.68,1.16-1.14.3a4.38,4.38,0,0,1,0-2.71c.08-.34.18-.86.18-.86C.89,3.24.74,3,.6,3.51a10.1,10.1,0,0,0-.49,4c0,.41.3,1.17.79,1.25A.76.76,0,0,0,.75,9c-.31.48-1.53,4,0,5.67,3.2,3.59,9.16-1.48,9.16-1.48C10.22,12.86,12.08,11.6,10.84,8.57ZM9,8.73a1.38,1.38,0,0,1-1-.14c-.33-.19-.15-.67.18-.75.88-.22,1.58.85,1.66,1A2.49,2.49,0,0,0,9,8.73Z"/><path class="cls-2" d="M5.33.72a4.11,4.11,0,0,0-.42,2.37,3.87,3.87,0,0,0-1.84-2c-.09,0-.27.07-.27.35s0,.58.11.69a3.57,3.57,0,0,0,.54.33c.06,0,.13,0,.14,0s.08-.24.2-.13a3.43,3.43,0,0,1,1,1.23c.33.62-.44,1.71-.42,2.87,0,.26.14.78.5.81.19,0,.43-.13.63-.76,0-.15.07-.26.08-.32s0-.19-.1,0c-.16.38-.52.64-.76.1a2.28,2.28,0,0,1,.18-1.62,8.66,8.66,0,0,0,.32-2.4c0-.37.15-1.14.64-.78l.23.2c.11.11.24.25.29.1a1.08,1.08,0,0,0,0-.77C6.32.88,5.69.19,5.33.72Z"/><path class="cls-2" d="M13.75.62a4.58,4.58,0,0,0-.64,2.55A4.1,4.1,0,0,0,11.26.88c-.1-.05-.3.05-.31.36s-.07.63.06.75a5,5,0,0,0,.57.41c.06,0,.13,0,.15,0s.11-.25.23-.13a4,4,0,0,1,1.12,1.83c.06.15.2.17.23,0,.08-.54.13-1.48.17-1.77s.25-1.22.76-.79l.24.22c.1.14.24.29.3.14A1.18,1.18,0,0,0,14.85,1C14.81.87,14.18.08,13.75.62Z"/><path class="cls-2" d="M20.81,7.59a5.27,5.27,0,0,0-.37,2.4c0,.26.23.75.61.75.19,0,.44-.18.58-.82,0-.15,0-.27,0-.33s-.05-.18-.1,0c-.12.4-.48.69-.78.18a2.23,2.23,0,0,1,0-1.62l.13-.51C21,7.43,20.9,7.31,20.81,7.59Z"/><path class="cls-2" d="M19.73,1a5.26,5.26,0,0,0-.36,2.39c0,.26.22.76.6.75.2,0,.44-.17.58-.82,0-.15,0-.26.05-.32s-.05-.19-.11,0c-.12.4-.47.7-.78.19a2.3,2.3,0,0,1,0-1.62c.06-.21.13-.52.13-.52C19.92.86,19.82.74,19.73,1Z"/><path class="cls-2" d="M28,5.48a.88.88,0,0,0,0,.64c.1.25.35.81.39.89s.06.17-.08.23a.63.63,0,0,1-.9-.49,5.74,5.74,0,0,0-.19-1c-.06-.12-.12-.13-.16,0a1.66,1.66,0,0,0-.08.39.14.14,0,0,0,0,.11s.28.81.17,1-.69.59-1,.19a3.26,3.26,0,0,1-.06-1.14c0-.17-.05-.22-.12-.09a.58.58,0,0,0-.1.34c0,.12,0,.63,0,.79s0,.68.3.83.76,0,1.1-.63a.76.76,0,0,0,.87.31.9.9,0,0,0,.45-.72,1.22,1.22,0,0,0-.16-.85,2.87,2.87,0,0,1-.26-.71C28.12,5.43,28.08,5.27,28,5.48Z"/><path class="cls-2" d="M28.66,2.37c-.21.11-3.77,1.54-4,1.67s-.3.15-.35.31a1.28,1.28,0,0,1-.08.28c0,.11-.08.24.25.06.1-.06,3.69-1.52,3.87-1.62s.29-.14.37-.3.1-.2.15-.31S29,2.2,28.66,2.37Z"/><path class="cls-2" d="M31.36,10.09C31.19,9,30.27,2.81,30.27,2.81s.6.56.69.66.22,0,.16-.11S29.84.22,29.8.12s-.08-.18-.13-.06l-.44,1a5,5,0,0,1,.16.72c.07.46,1.5,9.88,1.54,10.28s.56,1.56-1.61,2.06a6.37,6.37,0,0,0,.64-1.8c0-.54-.49-1.58-2.13-1.86-.78-.08-1.82.31-3.33,1.57l-.69.76c.16-.59.59-3.18-.89-10.12a5,5,0,0,1,.6.38c.2.17.34.1.2-.14S22.58.53,22.48.29s-.16-.22-.23-.08-.25.87-.25.87c.07.39.19.71.27,1.24s1,6.5,1.09,7.25.31,2.91-.17,3.85l0,.07L21.78,15a3,3,0,0,1-3.33-1.89C17.79,11.36,17.17,2.29,16.68.43c-.12-.36-.22-.36-.37,0a5.85,5.85,0,0,0-.28.9,38,38,0,0,1,1,7.14c.23,3.21.4,6,1.73,6.93.82.57,3.19,1.68,8.83.17,1.18-.33,3.05-.8,3.48-1.69S31.6,12.21,31.36,10.09ZM29,13.18A11.44,11.44,0,0,1,22.49,15c.34-.46,2.88-3.35,4.11-3.42a3,3,0,0,1,2.49.94C29.31,12.76,29.41,13,29,13.18Z"/><path class="cls-2" d="M32.72.06l-.42,1c0,.06.11.45.13.6.17,1.3,1.24,9,1.55,11.44.15,1.2.27,2.28.28,2.86,0,.18.07.25.15.07a3.76,3.76,0,0,0,.28-1.47,20.33,20.33,0,0,0-.23-3.49c0-.23-1.14-8.28-1.14-8.28s.6.56.69.66.22,0,.16-.11S32.89.22,32.85.12,32.77-.06,32.72.06Z"/></g></g></g></svg>