<svg xmlns="http://www.w3.org/2000/svg" viewBox="0 0 36.45 18.92"><defs><style>.cls-1{isolation:isolate;}.cls-2{fill-rule:evenodd;mix-blend-mode:darken;}</style></defs><g class="cls-1"><g id="Layer_2" data-name="Layer 2"><g id="سور_الٌقرآن_الكريم" data-name="سور الٌقرآن الكريم"><path class="cls-2" d="M8.08,16.13c-.21.11-4.8,1.9-5,2s-.29.15-.34.3-.06.25-.07.28-.08.23.23.05c.1-.05,4.73-1.87,4.91-2s.28-.14.36-.3l.15-.3C8.36,16.1,8.4,16,8.08,16.13Z"/><path class="cls-2" d="M20.07,15.51l-.58.79a.06.06,0,0,0,0,.08l1,.72a.05.05,0,0,0,.08,0l.58-.8a0,0,0,0,0,0-.07l-1-.73A.06.06,0,0,0,20.07,15.51Z"/><path class="cls-2" d="M17.39,15.39a4.21,4.21,0,0,0-.42,1.9c0,.21.16.61.47.63s.38-.12.53-.64c0-.11,0-.2.05-.25s0-.15-.09,0c-.12.31-.43.53-.66.11a1.72,1.72,0,0,1,.09-1.3c.06-.16.13-.4.13-.4C17.56,15.26,17.48,15.16,17.39,15.39Z"/><path class="cls-2" d="M29.86,15.15c0,.09-.22.39-.24.46s0,.13,0,.08,0-.3.83-.29c.12,0,.16,0,.11.09a3.37,3.37,0,0,0-1,1.5c-.22,1.2.93,1,1.17.89a3.34,3.34,0,0,0,1.45-1.26c.08-.12.13-.3,0-.12a3.06,3.06,0,0,1-1.75.92.57.57,0,0,1-.56-.84c.16-.25.78-.86.89-1a2.66,2.66,0,0,0,.21-.4c.05-.17.08-.28-.1-.29S30.12,14.75,29.86,15.15Z"/><path class="cls-2" d="M6.54,9.89l-.5.69-1-.7a.06.06,0,0,0-.08,0l-.58.8a.05.05,0,0,0,0,.08l1,.72a.06.06,0,0,0,.08,0l.5-.69,1,.7a.06.06,0,0,0,.08,0l.58-.8a.05.05,0,0,0,0-.08l-1-.72A.06.06,0,0,0,6.54,9.89Z"/><path class="cls-2" d="M5,6A4.15,4.15,0,0,0,4.6,8.09c0,.23.23.67.61.66.2,0,.44-.16.59-.74,0-.13,0-.23,0-.28s0-.17-.1,0c-.13.36-.49.62-.8.17A1.81,1.81,0,0,1,5,6.47C5,6.29,5.12,6,5.12,6,5.18,5.81,5.08,5.71,5,6Z"/><path class="cls-2" d="M8.9,4.3a7.18,7.18,0,0,0-.4,3c0,.32.26,1,.7.95.22,0,.5-.22.65-1,0-.18,0-.33.05-.4s-.06-.24-.12,0c-.13.5-.53.87-.89.23a3.12,3.12,0,0,1,0-2c.07-.26.15-.65.15-.65C9.12,4.09,9,3.94,8.9,4.3Z"/><path class="cls-2" d="M26.49,3.25a1,1,0,0,1,.18.82l-.51-.28c-.16-.08-.24-.19-.15-.28C26.28,3.17,26.4,3.19,26.49,3.25Z"/><path class="cls-2" d="M25.84,3c-.21.28-.39,1-.13,1.18a3.4,3.4,0,0,0,.65.4,20.48,20.48,0,0,1-2.75,2.55c-.25.19-.49.42.14.16a8.29,8.29,0,0,0,1.43-.87,7.36,7.36,0,0,0,1.48-1.7s.3.28.34.34.14.21.19.09a.7.7,0,0,0-.24-.9,1.84,1.84,0,0,0-.11-1.44C26.78,2.69,26.38,2.29,25.84,3Z"/><path class="cls-2" d="M20,2.24c-.2.12-6.08,3.23-6.29,3.37s-.27.18-.3.34,0,.26,0,.28-.06.24.24,0c.1-.06,6-3.19,6.19-3.31s.27-.17.33-.33.08-.2.12-.32S20.26,2,20,2.24Z"/><path class="cls-2" d="M5.35,1.18a4.39,4.39,0,0,0-.62,2.49A4.12,4.12,0,0,0,2.91,1.43c-.09-.06-.29.05-.31.35s-.06.61.06.74,1,.43.54.94C3,3.69,1.89,4.83,1.65,5.1s-.25.33,0,.19A3.17,3.17,0,0,0,3.59,3.14a.87.87,0,0,0-.06-.43l.06,0a3.82,3.82,0,0,1,1.1,1.79c.06.16.2.17.23,0C5,4,5,3,5.08,2.77s.25-1.21.75-.79c.11.1.23.23.23.23s.24.28.3.13a1.15,1.15,0,0,0,.07-.83C6.38,1.42,5.77.64,5.35,1.18Z"/><path class="cls-2" d="M11,.66l-.31.91c.09.51.91,6,1,6.36s1,5,1.12,6.71c0,.18.07.24.14.07s.6-1.33-.16-5.52c-.06-.35-1.1-5.85-1.1-5.85l.7.63c.1.1.21,0,.15-.11S11.21.82,11.17.72,11.09.54,11,.66Z"/><path class="cls-2" d="M14.94.64a4.18,4.18,0,0,0-.41,1.9c0,.21.15.62.46.63s.38-.12.53-.63c0-.12,0-.21.05-.25s0-.16-.09,0c-.12.32-.43.54-.66.12a1.78,1.78,0,0,1,.09-1.3L15.05.7C15.11.52,15,.42,14.94.64Z"/><path class="cls-2" d="M23,2.47A2.37,2.37,0,0,0,22.9.63c-.08-.16-.59-.68-1.28.24-.26.36-.5,1.23-.17,1.51a5,5,0,0,0,.83.51,20.19,20.19,0,0,1-4.37,3.8c-.26.12-.22.26-.07.23A7,7,0,0,0,20.05,5.8a12.43,12.43,0,0,0,2.62-2.74s.38.36.43.43.17.28.24.12A.88.88,0,0,0,23,2.47Zm-.35-.25L22,1.87c-.2-.1-.3-.24-.2-.37.35-.43.5-.4.62-.32A1.26,1.26,0,0,1,22.68,2.22Z"/><path class="cls-2" d="M34.63,11.68c-.06-.45-.14-1-.24-1.51L33.15,2.74l.7.64c.1.09.21,0,.15-.12S32.67.22,32.62.12,32.54,0,32.5.06s-.31.92-.31.92c.09.51.9,6,1,6.36,0,.21.39,2.25.72,4.3a23.44,23.44,0,0,1-4.13-.51,6.24,6.24,0,0,0,.18-2.4c-.16-1.26-1.11-5.87-1.11-5.87l.7.63c.1.1.21,0,.15-.12S28.33.33,28.29.23,28.2.06,28.16.18l-.41,1a4.74,4.74,0,0,1,.18.7c.07.41,1.42,7.53,1.46,8.56,0,.07-.2.08-.27.09-.49.15-2.7.18-3.21.72a3.52,3.52,0,0,0-.28.76c-.05.13.18.12.44.08s1.45-.3,4.74.54a21.7,21.7,0,0,1-4.74,1.82,3.52,3.52,0,0,1-3.18-.77,2.15,2.15,0,0,1-.18-2.25s0,0,0,0c1.12-.55,2-1,2.15-1.08s.59-1,.42-1.09a17.77,17.77,0,0,0-7.55-.72A2,2,0,0,0,16,10a1.48,1.48,0,0,0,.29,1.07,20.55,20.55,0,0,0,1.62,1.47l-.46.21c-2,.9-4.28,3.72-4.64,4.16-.89,1-2.23,1.33-2.8.46-.46-.71,0-2.58.24-3.34a1.36,1.36,0,0,0,.07-.22,3.3,3.3,0,0,0,.37-.38,2.45,2.45,0,0,0,.35-2A13,13,0,0,0,10.27,10c-.11-.18-.2-.21-.26,0s-.3,1.11-.3,1.11c.19.26,1,1.39.76,1.61s-2.34,1.82-7.1,1.89c-.54,0-3-.17-2.79-2.14A6,6,0,0,1,1,11c.26,0,.58-.29.77-1.23,0-.23,0-.4.05-.49s-.07-.28-.14,0c-.16.61-.64,1.05-1.07.28a3.81,3.81,0,0,1,0-2.45c.08-.31.17-.77.17-.77.09-.35,0-.53-.18-.1a8.86,8.86,0,0,0-.47,3.6A1.53,1.53,0,0,0,.75,10.9C.29,11.67-.61,13.54.61,15c.13.16,1.36,1.56,6.38.33a9.5,9.5,0,0,0,2.86-1.14c0,.06,0,.12-.07.19a7.31,7.31,0,0,0-.32,1.92c0,2,1.1,2.59,1.61,2.63,1.74.15,2.92-2.08,3.93-3.18a10.85,10.85,0,0,1,3.27-2.14c.07,0,.23-.12.44-.23l.36.41c.15.2.32-.16.26-.64a.25.25,0,0,0,0-.07l3-1.47a2.18,2.18,0,0,0-.06.22,4.94,4.94,0,0,0,0,2.47,2.3,2.3,0,0,0,2.11,1.4,9.75,9.75,0,0,0,4.47-1.07,36.9,36.9,0,0,1,3.5-1.48c.39-.08,1-.2,1.69-.28.18,1.16.32,2.2.35,2.76,0,.18.07.24.14.07a5.91,5.91,0,0,0,.2-2.9,5.25,5.25,0,0,1,1.14,0,8.2,8.2,0,0,0,.56-1.07C36.27,11.72,35.56,11.71,34.63,11.68Zm-15.88.49c-.24-.27-.58-.53-.86-.79-.56-.53-1.06-1-1.15-1.13-.25-.31.14-.48.41-.53a17.59,17.59,0,0,1,6.26.29Z"/></g></g></g></svg>