<svg xmlns="http://www.w3.org/2000/svg" viewBox="0 0 35.88 17.24"><defs><style>.cls-1{isolation:isolate;}.cls-2{fill-rule:evenodd;mix-blend-mode:darken;}</style></defs><g class="cls-1"><g id="Layer_2" data-name="Layer 2"><g id="سور_الٌقرآن_الكريم" data-name="سور الٌقرآن الكريم"><path class="cls-2" d="M7.75,14.64c-.2.1-2.58,1-2.79,1.12s-.28.15-.32.3-.07.24-.08.27-.07.22.23.05c.1-.06,2.52-1,2.69-1.08s.27-.13.35-.29A2.37,2.37,0,0,0,8,14.72C8,14.6,8.06,14.48,7.75,14.64Z"/><path class="cls-2" d="M19.46,14.59c-.2.1-2.53,1-2.74,1.12s-.28.15-.33.3l-.07.27c0,.1-.08.22.23,0,.1,0,2.47-1,2.64-1.08s.27-.13.35-.29a1.83,1.83,0,0,0,.14-.29C19.72,14.55,19.77,14.43,19.46,14.59Z"/><path class="cls-2" d="M16.66,7.31c0,.13-.15.66-.17.77a.41.41,0,0,0,0,.31c.05.1.18.43.27.69s1.07,2.3,1.16,2.48a.43.43,0,0,1-.08.48c-3.75,3.08-9.52,4.92-9.72,5s-.16.21.18.16a28,28,0,0,0,4.26-.85c.83-.37,4.5-1.77,5.69-3.87a2.69,2.69,0,0,0,0-2.07c-.2-.43-.85-1.63-.85-1.63l.55,0c.05,0,.14-.05,0-.19s-1.13-1.23-1.19-1.31S16.7,7.19,16.66,7.31Z"/><path class="cls-2" d="M5.56,6.67l-.48.66-.93-.68a.06.06,0,0,0-.08,0l-.56.77a0,0,0,0,0,0,.07l1,.7a0,0,0,0,0,.07,0L5,7.53,6,8.21A0,0,0,0,0,6,8.2l.56-.77a.05.05,0,0,0,0-.08l-1-.7A.05.05,0,0,0,5.56,6.67Z"/><path class="cls-2" d="M.45,6.25A9.86,9.86,0,0,0,0,9.9a2,2,0,0,0,.34.9c-.06,0-.11.1-.14.34-.06.55,0,3.84,1.84,4.71.4.18,1.1.23,1.48-.94.16-.49.63-2.65,2.08-3.67a.5.5,0,0,1,.82.17c.24.48.66,2.87,4.37,1.94.57-.14,3.76-1.73,4.26-2.56.15-.33.31-.65.31-.65.11-.33.3-.84,0-.57a13.81,13.81,0,0,1-2.71,1.9,2.15,2.15,0,0,1-2.48-.33A3.73,3.73,0,0,1,9.05,9a.71.71,0,0,1,.24-.66,7.29,7.29,0,0,1,2.79-1,2.71,2.71,0,0,1,1.69.23c.15.11.37-.09.17-.27a4.56,4.56,0,0,0-2.8-.63A2.74,2.74,0,0,0,8.71,8.26,3.37,3.37,0,0,0,8.77,11a5.57,5.57,0,0,0,1.1,1.4c-.39.09-2,.18-3.09-1.92-.19-.38-.52-.77-1.24-.31a5.15,5.15,0,0,0-1.92,3c-.28.8-.5,1.68-1.15,1.7s-2-1-2-3.64a.8.8,0,0,0,0-.3.5.5,0,0,0,.34.15c.24,0,.55-.26.71-1.24,0-.23,0-.4.05-.49s-.07-.29-.13,0c-.14.61-.58,1.05-1,.27a4.35,4.35,0,0,1,0-2.48c.07-.31.15-.77.15-.77C.69,6,.56,5.82.45,6.25Z"/><path class="cls-2" d="M16.43,2.35A5.86,5.86,0,0,0,16,4.84c0,.27.18.81.54.82.18,0,.43-.15.6-.83,0-.15.05-.27.06-.33s0-.2-.1,0c-.14.41-.5.7-.76.15A2.66,2.66,0,0,1,16.4,3l.15-.53C16.62,2.19,16.53,2.06,16.43,2.35Z"/><path class="cls-2" d="M1.16,2.28a3.88,3.88,0,0,0-.4,1.83c0,.2.15.6.45.61s.36-.12.51-.61l.05-.25c0-.06,0-.14-.09,0-.11.3-.41.51-.64.11a1.79,1.79,0,0,1,.09-1.26c.06-.15.13-.39.13-.39C1.32,2.16,1.25,2.06,1.16,2.28Z"/><path class="cls-2" d="M6.34,1a4,4,0,0,0-.57,2.29A3.76,3.76,0,0,0,4.11,1.18c-.09-.05-.27.05-.29.33s0,.56.06.67a5.12,5.12,0,0,0,.51.36c.06,0,.12,0,.14,0s.09-.23.2-.11A3.48,3.48,0,0,1,5.74,4c0,.14.18.16.21,0,.07-.49.11-1.33.15-1.58s.22-1.1.68-.72l.21.2c.1.13.22.26.28.12a1,1,0,0,0,.06-.75C7.29,1.18,6.72.46,6.34,1Z"/><path class="cls-2" d="M15.54.77c-.15.1-7.67,3.66-8.1,4A1.37,1.37,0,0,0,7,5.52c-.09.44,0,.87.3.91a.6.6,0,0,1,.36.21s0,0,.06,0a.53.53,0,0,0-.36-.83c-.15,0-.22-.25.34-.61s7.54-3.68,7.65-3.76.25-.15.31-.31l.11-.29C15.79.72,15.82.6,15.54.77Z"/><path class="cls-2" d="M24.4,9.2A4.77,4.77,0,0,0,24,11.62c0,.26.25.76.69.75.22,0,.5-.18.67-.83,0-.15.05-.27.06-.33s-.06-.18-.12,0c-.14.4-.56.7-.91.19a2.06,2.06,0,0,1,0-1.64c.07-.2.15-.51.15-.51C24.63,9,24.51,8.91,24.4,9.2Z"/><path class="cls-2" d="M27.05,6.69l-.56.77a.06.06,0,0,0,0,.08l1,.69a.05.05,0,0,0,.08,0L28,7.56l.93.67a.05.05,0,0,0,.08,0l.56-.77a0,0,0,0,0,0-.07l-1-.7a0,0,0,0,0-.07,0l-.49.67-.93-.68A0,0,0,0,0,27.05,6.69Z"/><path class="cls-2" d="M30.15,2.18c-.15.09-7.47,3.46-7.9,3.8a1.39,1.39,0,0,0-.46.75c-.09.44,0,.87.3.91a.57.57,0,0,1,.36.21,0,0,0,0,0,.07,0A.53.53,0,0,0,22.16,7c-.16,0-.22-.25.34-.61S29.84,2.91,30,2.83s.25-.15.31-.3.08-.19.11-.29S30.44,2,30.15,2.18Z"/><path class="cls-2" d="M24.09.42a4,4,0,0,0-.41,2.32A3.76,3.76,0,0,0,21.88.8c-.09,0-.27.07-.26.35s0,.56.1.66a3.57,3.57,0,0,0,.54.33c.06,0,.12,0,.13,0s.08-.23.19-.13A3.47,3.47,0,0,1,23.7,3.54c.06.13.19.14.21-.06,0-.49,0-1.33,0-1.59s.15-1.12.63-.76l.22.19c.11.11.24.24.29.1a1.1,1.1,0,0,0,0-.76C25.05.58,24.44-.09,24.09.42Z"/><path class="cls-2" d="M32.62,11.33c-.06-.8-1-8.77-1-8.77l.59.62c.09.1.2,0,.15-.11S31.22.21,31.18.11s-.07-.16-.12,0L30.64,1a4.75,4.75,0,0,1,.16.69c.06.42,1.2,9.94,1.22,10.83,0,.27,0,.25,0,.34a2.91,2.91,0,0,1-2.54.8,1.28,1.28,0,0,1-.72-.32,2.79,2.79,0,0,0,.74-.76,2.52,2.52,0,0,0-.09-2.85.73.73,0,0,0-1.16-.07,3.09,3.09,0,0,0-.58,3.24l-.21.08c-.5.21-3.45,1.58-5.63.47-.33-.19-1.15-.82-1.32-2.95-.1-1-.55-7.88-1.19-9.87-.18-.49-.23-.11-.27,0a4.17,4.17,0,0,0-.32,1c.72,2.29,1.15,10,1.49,11s.52,2.81,4.52,2.28A12.2,12.2,0,0,0,28,13.77c.07.13.15.26.23.39.34.39,1.26,1.16,3.07.34C32,14.15,32.83,13.34,32.62,11.33Zm-4.38,1.26c-.21-.48-.48-1.23-.31-1.51s.66-.87,1.11-.25.39.69.36.75A4.29,4.29,0,0,1,28.24,12.59Z"/><path class="cls-2" d="M34.13.06c-.05.11-.39,1-.39,1s.1.42.12.56c.16,1.23,1,7.78,1.33,10.08.14,1.13.25,2.15.27,2.7,0,.17.06.24.14.07a3.67,3.67,0,0,0,.27-1.39,18.9,18.9,0,0,0-.22-3.3L34.7,2.66l.66.63c.09.09.2,0,.15-.11S34.29.21,34.25.11,34.18,0,34.13.06Z"/></g></g></g></svg>