<svg xmlns="http://www.w3.org/2000/svg" viewBox="0 0 35.23 18.33"><defs><style>.cls-1{isolation:isolate;}.cls-2{fill-rule:evenodd;mix-blend-mode:darken;}</style></defs><g class="cls-1"><g id="Layer_2" data-name="Layer 2"><g id="سور_الٌقرآن_الكريم" data-name="سور الٌقرآن الكريم"><path class="cls-2" d="M15.62,16.47l-.13.2s0,.14.08,0,.53-.31.59.12c0,.08,0,.45-.5,1.06l-.24.3c-.11.13-.08.24.07.08a3.66,3.66,0,0,0,1-1.46c.06-.18.07-.57-.19-.68S15.91,16.09,15.62,16.47Z"/><path class="cls-2" d="M7.63,15.85,4.1,17.58c-.18.1-.23.16-.25.3a1.55,1.55,0,0,0,0,.25c0,.09-.07.17.21,0s3.24-1.57,3.43-1.68a.55.55,0,0,0,.29-.29,2.13,2.13,0,0,0,.09-.28C7.86,15.79,7.9,15.73,7.63,15.85Z"/><path class="cls-2" d="M7,6.07A8.06,8.06,0,0,0,6.31,9.3c0,.36.21,1.06.68,1.09.24,0,.56-.19.8-1.06,0-.2.07-.36.08-.44s0-.26-.13,0c-.19.54-.65.9-1,.18a3.32,3.32,0,0,1,.18-2.22c.09-.28.21-.69.21-.69C7.25,5.86,7.14,5.69,7,6.07Z"/><path class="cls-2" d="M1.64,11a5.63,5.63,0,0,0-.48,2.29c0,.25.15.74.48.76.17,0,.39-.13.56-.75l.06-.3c0-.09,0-.19-.09,0-.13.38-.46.64-.69.13a2.38,2.38,0,0,1,.12-1.57c.07-.19.15-.48.15-.48C1.82,10.89,1.74,10.77,1.64,11Z"/><path class="cls-2" d="M22.18,9.64a4.37,4.37,0,0,0-.5,2.46A4,4,0,0,0,19.88,10c-.1-.05-.28.06-.29.36s0,.6.09.71a3.5,3.5,0,0,0,.54.37c.06,0,.13,0,.14,0s.09-.24.21-.13A3.79,3.79,0,0,1,21.67,13c.06.15.19.15.22-.06.05-.52.06-1.42.09-1.69s.2-1.18.69-.79a2.5,2.5,0,0,1,.22.21c.11.13.24.27.3.12a1.19,1.19,0,0,0,0-.81C23.18,9.84,22.57,9.1,22.18,9.64Z"/><path class="cls-2" d="M27.79,6.7l-.5.7-1-.71a0,0,0,0,0-.07,0l-.59.81a0,0,0,0,0,0,.07l1,.73a.05.05,0,0,0,.08,0l.5-.69,1,.7a0,0,0,0,0,.07,0l.59-.8a.06.06,0,0,0,0-.08l-1-.73A.06.06,0,0,0,27.79,6.7Z"/><path class="cls-2" d="M28.4,1.82C28.12,2,18.11,6.64,17.81,6.77s-.37.2-.43.4-.08.32-.1.36-.11.28.31.07C17.72,7.54,27.81,2.84,28,2.71s.37-.18.47-.39.13-.24.19-.39S28.83,1.63,28.4,1.82Z"/><path class="cls-2" d="M13.41,1.15a3.48,3.48,0,0,0-.48.69c-.12.19,0,.28.17.13a.69.69,0,0,1,.65-.29c.41,0,1.38,0,1,.24l-.61.43c-.24.17-.45.48,0,.31a2.93,2.93,0,0,0,1.39-1.1c.13-.18.27-.43-.3-.52S13.72.82,13.41,1.15Z"/><path class="cls-2" d="M10.07.56A4.3,4.3,0,0,0,9.48,3,4,4,0,0,0,7.75.81c-.09-.06-.28,0-.29.34s-.06.6.06.72a4.94,4.94,0,0,0,.53.39c.06,0,.12,0,.14,0s.1-.24.21-.12a3.69,3.69,0,0,1,1,1.75c.06.15.19.17.22-.05.08-.51.12-1.41.16-1.69s.23-1.17.7-.76a2,2,0,0,1,.22.22c.1.13.23.28.29.12a1.18,1.18,0,0,0,.07-.8C11.05.8,10.47,0,10.07.56Z"/><path class="cls-2" d="M21.11.56A4.37,4.37,0,0,0,20.61,3,4,4,0,0,0,18.81.88c-.1-.05-.28.06-.29.36s0,.6.09.71a3.5,3.5,0,0,0,.54.37c.06,0,.13,0,.14,0s.09-.24.21-.12a3.66,3.66,0,0,1,1.1,1.71c.06.15.19.16.22-.06.05-.52.06-1.42.09-1.69s.2-1.18.69-.79a2.5,2.5,0,0,1,.22.21c.11.13.24.27.3.12a1.19,1.19,0,0,0,0-.81C22.11.76,21.5,0,21.11.56Z"/><path class="cls-2" d="M32.12,11.45c-.13-.8-1.47-8.74-1.47-8.74s.59.55.68.65.22,0,.16-.11S30.22.21,30.18.11s-.07-.17-.12,0l-.44,1a5.09,5.09,0,0,1,.16.7c.07.44,2,12,1.93,12.15a3.15,3.15,0,0,1-2.65.89A1.54,1.54,0,0,1,28,14a3.71,3.71,0,0,0,1.23-2,2.48,2.48,0,0,0-.67-2.31c-.17-.21-.91-.81-1.66.23a3.57,3.57,0,0,0-.22,2.86c0,.11.11.44.24.84A6.81,6.81,0,0,1,26,14a13.22,13.22,0,0,1-4,1.19,6.9,6.9,0,0,1-4.05-.67,2.69,2.69,0,0,1-1.18-1.93c-.12-.66-.34-4.92-2.45-7.46-.08-.11-.25,1.16-.25,1.16a26.87,26.87,0,0,1,1.88,5.58,1.7,1.7,0,0,1-.55,1.31,19.15,19.15,0,0,1-3.61,2.57c-.41.19-1.94,1-2.5-.71a3.55,3.55,0,0,1,.29-2.29.64.64,0,0,0,.06-.18,7,7,0,0,0,1.78-2,2.88,2.88,0,0,0-.05-2.26c-.24-.47-1-1.76-1-1.76H11s.15,0,0-.21S9.7,5.08,9.63,5s-.13-.16-.17,0-.13.72-.16.84a.49.49,0,0,0,0,.34,7.51,7.51,0,0,1,.32.75c.11.29,1.25,2.47,1.35,2.67s.13.34,0,.47C7.39,13.88.35,16.25.13,16.38s-.16.23.21.16A30.25,30.25,0,0,0,5,15.48,26,26,0,0,0,9.13,13c-.31,1-1.09,3.76,1.12,4.25.52.12,1.89.26,4.92-2.76a5.77,5.77,0,0,0,1-1.49,3.84,3.84,0,0,0,2.65,3.31,10.56,10.56,0,0,0,8-1.6c.07,0,.24-.11.47-.24a2.44,2.44,0,0,0,1.89,1.57c.29,0,2.51.09,3-1.94A8.9,8.9,0,0,0,32.12,11.45Zm-4.84,1.11c-.12-.38-.51-1.43-.12-1.78a.62.62,0,0,1,.94,0c.38.42,1,1.12.66,1.45a7.3,7.3,0,0,1-1.21,1C27.46,13,27.37,12.8,27.28,12.56Z"/><path class="cls-2" d="M33.27.06l-.41,1c0,.05.11.43.12.57.17,1.26,1.23,8.71,1.53,11.07.15,1.16.26,2.2.28,2.76,0,.17.07.24.15.07a3.81,3.81,0,0,0,.28-1.42A19.06,19.06,0,0,0,35,10.72l-1.13-8,.69.64c.09.1.21.05.15-.11S33.44.22,33.4.12,33.32,0,33.27.06Z"/><path class="cls-2" d="M3.45.62A5.33,5.33,0,0,0,2.9,3.71,5,5,0,0,0,.51,1.13c-.12-.06-.35.08-.35.45,0,.22,0,.75.13.89A6.11,6.11,0,0,0,1,2.91c.07,0,.16,0,.17-.06s.11-.3.27-.16A4.57,4.57,0,0,1,2.71,4.28c.43.82-.58,2.23-.55,3.74,0,.34.18,1,.65,1.05.24,0,.57-.17.83-1,0-.19.08-.34.1-.41s-.05-.25-.14,0c-.2.5-.68.83-1,.13a3,3,0,0,1,.24-2.1,10.91,10.91,0,0,0,.41-3.13c0-.49.2-1.48.84-1a2.34,2.34,0,0,1,.3.25c.14.15.32.32.38.13a1.41,1.41,0,0,0,0-1C4.73.84,3.92-.06,3.45.62Z"/></g></g></g></svg>