<svg xmlns="http://www.w3.org/2000/svg" viewBox="0 0 30.87 22.23"><defs><style>.cls-1{isolation:isolate;}.cls-2{fill-rule:evenodd;mix-blend-mode:darken;}</style></defs><g class="cls-1"><g id="Layer_2" data-name="Layer 2"><g id="سور_الٌقرآن_الكريم" data-name="سور الٌقرآن الكريم"><path class="cls-2" d="M9.3,17.09c-.24.13-5.44,2.44-5.68,2.59s-.33.19-.37.38-.06.29-.07.32-.08.27.27.05C3.57,20.36,8.81,18,9,17.9s.32-.17.4-.36a2.16,2.16,0,0,0,.15-.36C9.61,17,9.66,16.89,9.3,17.09Z"/><path class="cls-2" d="M25.06,17.13a5.07,5.07,0,0,0-.51,2.32c0,.25.19.75.58.77.19,0,.45-.15.63-.77,0-.14,0-.26.07-.31s0-.19-.11,0c-.15.39-.52.66-.81.14A2.18,2.18,0,0,1,25,17.7c.07-.2.16-.49.16-.49C25.26,17,25.17,16.86,25.06,17.13Z"/><path class="cls-2" d="M5.07,8.47a5.17,5.17,0,0,0-.47,2.62c0,.28.27.82.74.81.25,0,.55-.19.74-.9,0-.16,0-.29,0-.35s-.06-.21-.13,0c-.15.44-.6.77-1,.21-.07-.11-.33-.61,0-1.77.08-.23.17-.56.17-.56C5.31,8.29,5.19,8.16,5.07,8.47Z"/><path class="cls-2" d="M22.58,8.86a1.1,1.1,0,0,0,0,.84c.12.33.46,1.08.52,1.18a.2.2,0,0,1-.12.31.84.84,0,0,1-1.19-.65,8.15,8.15,0,0,0-.25-1.32c-.08-.16-.16-.17-.22,0a3.26,3.26,0,0,0-.11.52.24.24,0,0,0,0,.14c0,.06.37,1.07.22,1.35s-.92.78-1.32.26A4.23,4.23,0,0,1,20,10c0-.22-.07-.29-.17-.11a.8.8,0,0,0-.13.45c0,.15,0,.83,0,1.05s0,.9.41,1.1,1,0,1.45-.84a1,1,0,0,0,1.17.41,1.22,1.22,0,0,0,.59-1,1.7,1.7,0,0,0-.21-1.13A3.93,3.93,0,0,1,22.81,9C22.73,8.78,22.68,8.57,22.58,8.86Z"/><path class="cls-2" d="M21.3,4.24a5,5,0,0,0-.51,2.31c0,.26.19.75.57.77.2,0,.46-.15.64-.77,0-.14.05-.26.07-.31s0-.19-.11,0c-.15.38-.52.65-.81.13a2.18,2.18,0,0,1,.12-1.58c.07-.2.16-.49.16-.49C21.51,4.09,21.41,4,21.3,4.24Z"/><path class="cls-2" d="M10,1.3a4.84,4.84,0,0,0-.63.91c-.16.25,0,.37.22.17A.9.9,0,0,1,10.4,2c.54,0,1.82,0,1.34.32s-.8.55-.8.55c-.31.23-.59.64,0,.41a3.81,3.81,0,0,0,1.83-1.44c.17-.24.36-.57-.4-.68S10.36.87,10,1.3Z"/><path class="cls-2" d="M22.52,1.08c-.32.17-9.13,4.54-9.46,4.74s-.46.24-.52.49-.09.4-.11.44-.11.37.38.07c.15-.09,9-4.48,9.3-4.65s.44-.23.56-.49a3.35,3.35,0,0,0,.21-.48C23,1,23,.81,22.52,1.08Z"/><path class="cls-2" d="M4.33.46a5.06,5.06,0,0,0-.72,2.88A4.7,4.7,0,0,0,1.52.75c-.12-.06-.34.06-.36.41s-.07.7.07.85a5.63,5.63,0,0,0,.64.45c.08,0,.15,0,.18,0s.11-.28.25-.14A4.42,4.42,0,0,1,3.57,4.35c.06.17.23.19.26-.06.09-.61.14-1.68.19-2s.29-1.38.86-.9c.13.11.27.26.27.26.12.15.27.33.35.15A1.38,1.38,0,0,0,5.58.85C5.52.74,4.81-.16,4.33.46Z"/><path class="cls-2" d="M24.57.14l-.38,1C24.22,1.43,26,13.38,26,13.8s.2.65-.26.92a34,34,0,0,1-4.62,1.72,12.6,12.6,0,0,0-3.5,2.15,20.81,20.81,0,0,1-2.56,2c-.71.36-2.58,1-2.59-1.05a11.62,11.62,0,0,1,.92-2.8.13.13,0,0,0,0-.08l.46-.13c.78-.23,3.24-1.35,3.8-2.5A6,6,0,0,0,18.05,13c.07-.28.14-.55-.23-.17s-2.94,2.81-4.89,2.38a4.76,4.76,0,0,1-2.19-3.5c-.07-.34.25-.65.62-.8s3-1.31,4.65-.7c.27.1.53,0,.18-.27a3.79,3.79,0,0,0-3.36-.78,3.31,3.31,0,0,0-2.76,3,8.65,8.65,0,0,0,.53,2.64c-.23-.14-1.12-.48-1.81-3.65-.19-.9-.85-4.76-2.58-7C6,3.83,5.89,5.34,5.89,5.34a40.59,40.59,0,0,1,1.8,4.79c.1.36.24,1.07.26,1.16.1.46.23.87-.71,1.9A15.9,15.9,0,0,1,3.88,15.8C3.5,16,1.08,17.47.54,15a6.6,6.6,0,0,1,.81-3.75c.32,0,.72-.34,1-1.44.07-.27.11-.49.13-.6s0-.36-.18,0c-.27.73-.93,1.23-1.36.22A4.69,4.69,0,0,1,1.3,6.4c.13-.38.3-.94.3-.94.15-.43,0-.67-.2-.15a10.79,10.79,0,0,0-1,4.45c0,.44.21,1.28.73,1.48l-.05.1c-.29.7-2,4.17-.31,6,.35.3,1.8,1.28,5.21-1.5a7.73,7.73,0,0,0,2.38-3c.17.35.75,4.62,4.66,3.91,0,0,0,.05,0,.07-.18.47-2.18,3.89.48,5.26.76.39,1.72.15,4-1.95a14.45,14.45,0,0,1,5-2.84,9.36,9.36,0,0,0,2.73-1,3.17,3.17,0,0,0,1.34-1.91,13.74,13.74,0,0,0-.24-4.51c-.19-1.19-1-6.62-1-6.62L26,4c.11.12.24.06.18-.13S24.76.33,24.72.21,24.63,0,24.57.14Z"/><path class="cls-2" d="M28.62.07l-.38,1c.09.59.87,6.94.92,7.37s1.15,7.61,1.21,9.59c0,.21.07.28.16.09s.73-1.52,0-6.38c-.05-.4-1.2-8.6-1.2-8.6l.79.75c.11.12.24,0,.18-.13S28.81.25,28.77.14,28.68-.07,28.62.07Z"/></g></g></g></svg>