<svg xmlns="http://www.w3.org/2000/svg" viewBox="0 0 27.24 27.34"><defs><style>.cls-1{isolation:isolate;}.cls-2{fill-rule:evenodd;mix-blend-mode:darken;}</style></defs><g class="cls-1"><g id="Layer_2" data-name="Layer 2"><g id="سور_الٌقرآن_الكريم" data-name="سور الٌقرآن الكريم"><path class="cls-2" d="M12.61,20.36A5.75,5.75,0,0,0,12,23.05c0,.3.21.88.66.89.23,0,.53-.16.74-.89,0-.16.06-.3.08-.36s-.05-.22-.13,0c-.17.44-.6.76-.93.16A2.42,2.42,0,0,1,12.57,21c.08-.23.18-.57.18-.57C12.85,20.19,12.74,20.05,12.61,20.36Z"/><path class="cls-2" d="M17.93,20.6c-.06.13-.31.55-.34.64s0,.19.06.12,0-.43,1.17-.41c.17,0,.23,0,.16.13a4.66,4.66,0,0,0-1.34,2.13c-.32,1.7,1.31,1.39,1.65,1.25a4.71,4.71,0,0,0,2.06-1.78c.11-.17.17-.43-.07-.18a4.23,4.23,0,0,1-2.47,1.31c-.9-.06-1-.82-.8-1.18s1.12-1.23,1.27-1.46a2.92,2.92,0,0,0,.29-.56c.08-.24.12-.4-.13-.41S18.3,20,17.93,20.6Z"/><path class="cls-2" d="M9.53,19.88C9.24,20,4.7,22,4.4,22.2s-.42.21-.48.44-.09.35-.11.39-.11.33.34.08c.14-.08,4.73-2.11,5-2.26s.4-.19.51-.42a4.66,4.66,0,0,0,.2-.43C9.92,19.83,10,19.65,9.53,19.88Z"/><path class="cls-2" d="M5.68,17.22l-.83,1.13a.08.08,0,0,0,0,.11l1.41,1a.06.06,0,0,0,.1,0l.83-1.13a.08.08,0,0,0,0-.11l-1.41-1A.07.07,0,0,0,5.68,17.22Z"/><path class="cls-2" d="M15.88,9.85c-.29.15-4.83,2.15-5.13,2.32s-.42.21-.48.44-.09.35-.11.39-.11.33.34.07c.14-.08,4.73-2.1,5-2.25s.41-.19.52-.42a4.66,4.66,0,0,0,.2-.43C16.27,9.8,16.34,9.62,15.88,9.85Z"/><path class="cls-2" d="M4.85,2.07a1.28,1.28,0,0,0,0,1c.14.38.54,1.25.6,1.38s.08.26-.13.36A1,1,0,0,1,3.89,4,10.79,10.79,0,0,0,3.6,2.49c-.1-.17-.18-.2-.25,0a3.76,3.76,0,0,0-.13.61.22.22,0,0,0,0,.17c0,.06.43,1.24.25,1.56s-1.06.91-1.52.3a4.71,4.71,0,0,1-.09-1.76c0-.26-.08-.34-.19-.14a1,1,0,0,0-.16.53c0,.18,0,1,0,1.22s0,1,.48,1.28,1.17,0,1.69-1a1.16,1.16,0,0,0,1.35.47,1.43,1.43,0,0,0,.69-1.11,1.94,1.94,0,0,0-.24-1.31,4.6,4.6,0,0,1-.41-1.09C5,2,5,1.74,4.85,2.07Z"/><path class="cls-2" d="M12.28,1.21c-.78,1-.83,2.27-.93,3.72a6.1,6.1,0,0,0-2.7-3.35c-.15-.08-.44.07-.47.53,0,.26-.09.91.1,1.09a7.11,7.11,0,0,0,.83.59c.09,0,.19.06.22,0s.15-.37.33-.18a5.64,5.64,0,0,1,1.63,2.66c.09.23.3.25.35-.07.12-.79.18-2.16.24-2.58C12,3,12.25,1.78,13,2.41a4.62,4.62,0,0,1,.35.33c.16.2.35.42.45.19a1.74,1.74,0,0,0,.1-1.22C13.82,1.57,12.9.41,12.28,1.21Z"/><path class="cls-2" d="M23.89,15.44c-.07-.78-.18-1.67-.34-2.69L22.3,3.9l1,.92c.13.15.3.07.22-.16S21.7.31,21.65.16s-.11-.24-.18-.08S21,1.36,21,1.36c.11.73.83,6.8.9,7.33,0,.32.53,3.57.94,6.66a25.69,25.69,0,0,1-4.62-.85,11.18,11.18,0,0,0,.19-2.31c-.08-.87-1.33-8.2-1.33-8.2s.84.78,1,.93.3.06.22-.17S16.49.4,16.43.25,16.32,0,16.25.17s-.47,1.28-.47,1.28c.05.36.63,4.64,1.28,8.8a32.42,32.42,0,0,1,.54,3.38c-.59.33-3.77.25-4.28.82a8.29,8.29,0,0,0-.55,1.19c0,.16.11.24.24.18s2-.73,6.1.78c-.59.25-5,2.56-8.2,1C10.37,17.3,8,16,9.47,11.33l2.1-1s.49-1.38.36-1.45a33.27,33.27,0,0,0-9.16-.51c-.41,0-2.43.14-2.74,1.88a1.93,1.93,0,0,0,.65,1.82,18.66,18.66,0,0,1,2.57,1.79,8.23,8.23,0,0,0-1,1.22A11.08,11.08,0,0,0,.63,20,6.5,6.5,0,0,0,2.5,25.72c.57.47,2,1.83,6.64,1.59a17.28,17.28,0,0,0,6.06-1.53c.75-.39.87-.5-.32-.38s-7.49.91-11-.62a5.24,5.24,0,0,1-2.49-5.43A7.82,7.82,0,0,1,4,14.58a6.68,6.68,0,0,1,.54.74c.09.13.21.13.22-.22a2.49,2.49,0,0,0-.15-1,12.56,12.56,0,0,1,2.91-1.72c.24-.13.76-.39,1.36-.68-.31,1.23-1.6,6.24,2,7.79.68.3,4.09,1.11,8.51-1.32a8.44,8.44,0,0,1,3.74-1c.17,1.4.3,2.63.32,3.34,0,.25.09.34.2.1A7.53,7.53,0,0,0,24,17.07c.72,0,1.56-.05,2.53,0l.72-1.51C26.72,15.54,25.47,15.56,23.89,15.44ZM4.05,13.14a5.12,5.12,0,0,0-.46-.5,21.94,21.94,0,0,0-2.59-2c-.05,0-.2-.14,0-.29s2.81-1.2,7.87-.31A22.88,22.88,0,0,0,4.05,13.14Z"/></g></g></g></svg>