<svg xmlns="http://www.w3.org/2000/svg" viewBox="0 0 34.21 19.94"><defs><style>.cls-1{isolation:isolate;}.cls-2{fill-rule:evenodd;mix-blend-mode:darken;}</style></defs><g class="cls-1"><g id="Layer_2" data-name="Layer 2"><g id="سور_الٌقرآن_الكريم" data-name="سور الٌقرآن الكريم"><path class="cls-2" d="M17.12,17.78,17,18c0,.06,0,.16.09,0s.6-.39.69.1a1.84,1.84,0,0,1-.51,1.26c-.11.14-.26.36-.26.36-.13.16-.08.28.08.09a4.35,4.35,0,0,0,1-1.75c.05-.21,0-.66-.26-.77S17.44,17.32,17.12,17.78Z"/><path class="cls-2" d="M11.29,16.71,6.77,18.88c-.23.11-.29.18-.32.34a2,2,0,0,0-.06.29c0,.11-.07.2.24,0L11,17.43c.19-.1.29-.16.36-.33a1.93,1.93,0,0,0,.12-.32C11.56,16.66,11.62,16.55,11.29,16.71Z"/><path class="cls-2" d="M30.48,17.05c-.07.11-.11.2-.14.24s0,.16.09,0,.6-.39.69.1a1.78,1.78,0,0,1-.51,1.26c-.11.14-.26.36-.26.36-.12.16-.08.28.09.09a4.25,4.25,0,0,0,1-1.75c.05-.21.05-.66-.26-.77C31,16.55,30.79,16.59,30.48,17.05Z"/><path class="cls-2" d="M13.27,12a5.18,5.18,0,0,0-.46,2.58c0,.27.27.81.73.8.24,0,.54-.19.72-.89l.06-.34c0-.1-.06-.2-.13,0-.15.43-.59.75-1,.21a2.18,2.18,0,0,1,0-1.75c.07-.22.16-.55.16-.55C13.51,11.78,13.39,11.66,13.27,12Z"/><path class="cls-2" d="M4.18,11.64a4.83,4.83,0,0,0-.32,2.28c0,.24.24.71.61.7.19,0,.43-.18.56-.79,0-.14,0-.25,0-.31s-.06-.17-.11,0c-.11.38-.45.66-.76.19a2,2,0,0,1,0-1.54l.12-.49C4.37,11.48,4.27,11.37,4.18,11.64Z"/><path class="cls-2" d="M10.22,11.18C8.87,8.23,7.35,9.42,7,9.91s-1,2.39.21,2.56,2.6-.22,3.05.8c0,.13,0,.61-1.2,1.53-.39.29-3.55,2.81-6.24,2.26-.55-.11-3.06-.92-1.89-5,.1-.36,0-.64-.24-.17s-1.31,3.82.2,5.4C4,20.61,9.5,15.58,9.5,15.58,9.79,15.29,11.51,14,10.22,11.18Zm-1.76.23a1.32,1.32,0,0,1-1-.1c-.33-.17-.17-.63.13-.72.88-.25,1.63.87,1.63.87A2.25,2.25,0,0,0,8.46,11.41Z"/><path class="cls-2" d="M7.26,6.63l-.52.71-1-.73a.07.07,0,0,0-.08,0l-.6.82a.08.08,0,0,0,0,.08l1,.74a0,0,0,0,0,.07,0l.52-.71,1,.72a.06.06,0,0,0,.08,0l.6-.82a.08.08,0,0,0,0-.08l-1-.75A.06.06,0,0,0,7.26,6.63Z"/><path class="cls-2" d="M.79,5.63A9.27,9.27,0,0,0,0,9.5c0,.43.27,1.26.84,1.29.3,0,.69-.24,1-1.28.05-.24.08-.43.1-.52s-.06-.31-.16,0c-.22.64-.79,1.09-1.21.22A3.93,3.93,0,0,1,.74,6.57c.11-.33.24-.82.24-.82C1.1,5.38,1,5.17.79,5.63Z"/><path class="cls-2" d="M20,7.88a5,5,0,0,0-.51,2.32c0,.26.19.76.58.77.2,0,.45-.14.64-.77,0-.14,0-.26.06-.31s0-.19-.11,0c-.14.38-.52.65-.81.13A2.18,2.18,0,0,1,20,8.45c.07-.2.16-.5.16-.5C20.19,7.73,20.09,7.61,20,7.88Z"/><path class="cls-2" d="M5.56,2a5,5,0,0,0-.32,2.61,4.14,4.14,0,0,0-1.9-2.13c-.1,0-.27.08-.25.39s0,.63.13.75a4.67,4.67,0,0,0,.56.35c.06,0,.12,0,.13-.05s.07-.26.19-.15A4,4,0,0,1,5.3,5.46c.07.15.2.16.21-.07,0-.55,0-1.49,0-1.78s.1-1.25.6-.87A2.63,2.63,0,0,1,6.32,3c.11.12.25.27.29.1a1.3,1.3,0,0,0,0-.85C6.54,2.12,5.89,1.38,5.56,2Z"/><path class="cls-2" d="M29.76,4.17l.7.67c.1.1.21,0,.16-.11s-1.19-2.84-1.23-2.94-.08-.18-.13-.06l-.45,1a6.33,6.33,0,0,1,.17.73c.06.46.16,1.12.27,1.84,0,0,1.15,7.05,1.2,7.72s.12,1.29-.05,1.45a7.54,7.54,0,0,1-1.86.91A3.69,3.69,0,0,0,29.11,13c-.14-.47-1.16-2-3.56-1.09A10,10,0,0,0,23,14.05a16.4,16.4,0,0,0-.25-5.48c-.15-.81-.85-4.66-.85-4.66l.7.67c.1.11.21,0,.16-.12s-1.14-2.57-1.18-2.67-.08-.18-.13-.06l-.44,1a5.28,5.28,0,0,1,.16.73c.07.46.17,1.12.27,1.84s1,6,1,6.72.07,2,0,2.6c-.81,1-1.39,1.77-1.39,1.77s-2.47.08-2.95-3.58c-.17-1.18-.8-8-1.41-10.28-.1-.41-.23-.47-.32-.19s-.29,1.29-.29,1.29c.1.76,1,6.93,1.09,7.54a6.52,6.52,0,0,1,0,2.25,3.71,3.71,0,0,0-.71-1.95,26.25,26.25,0,0,0-2.91-2.89,29.67,29.67,0,0,1-2.56-2.68c-.35-.47-.76-1.1-.76-1.1.25.1.56.19.72.25s.37,0,.12-.23S9,3.15,8.83,3s-.16-.14-.18,0,0,.81,0,1,0,.29.14.36a1.15,1.15,0,0,1,.34.33,25.32,25.32,0,0,0,3.44,4.19c.2.21,3,2.33,4.08,4.39A2.77,2.77,0,0,1,17,14.32a6.14,6.14,0,0,1-2.51,2.78c-.53.36-3.51,2-3.77,2.14s-.15.25.21.16,4.07-.69,5.63-2.72a11.57,11.57,0,0,0,1.27-2.44c.18.83.69,4,5.3,3.42a21.13,21.13,0,0,0,6.6-1.74c.37-.22,1.52-.88,1.39-3.21C31.08,12,29.76,4.17,29.76,4.17ZM21.94,16.44a10.46,10.46,0,0,1,2.76-3.1,2.8,2.8,0,0,1,3.77.6c.13.21.11.29,0,.41C26.27,16.45,22.32,16.45,21.94,16.44Z"/><path class="cls-2" d="M32.22,1.73c-.06.12-.43,1-.43,1s.12.45.14.6c.17,1.31,1.24,9.07,1.55,11.52.15,1.21.27,2.29.29,2.88,0,.18.06.24.15.07a3.85,3.85,0,0,0,.28-1.48A20.64,20.64,0,0,0,34,12.83c0-.23-1.15-8.34-1.15-8.34l.7.67c.1.11.21,0,.16-.11s-1.29-3.16-1.34-3.26S32.27,1.61,32.22,1.73Z"/><path class="cls-2" d="M27.61,7.39a.86.86,0,0,0,0,.67c.09.25.36.84.41.93s.05.18-.1.24A.67.67,0,0,1,27,8.72a6.54,6.54,0,0,0-.19-1c-.06-.12-.12-.14-.17,0a1.78,1.78,0,0,0-.08.41.17.17,0,0,0,0,.12s.3.84.18,1.06-.73.61-1,.2a3.3,3.3,0,0,1-.06-1.19c0-.18-.05-.23-.13-.1a.75.75,0,0,0-.11.36c0,.12,0,.66,0,.83s0,.71.32.86.79,0,1.14-.66a.79.79,0,0,0,.92.32.94.94,0,0,0,.46-.75,1.35,1.35,0,0,0-.16-.89,3,3,0,0,1-.28-.73C27.72,7.34,27.68,7.17,27.61,7.39Z"/><path class="cls-2" d="M28.26,4.34C28.05,4.45,24,6,23.76,6.09s-.3.16-.34.32-.07.25-.08.28-.08.24.24.06c.11-.06,4.21-1.6,4.4-1.7s.29-.14.37-.31l.15-.31C28.55,4.3,28.6,4.17,28.26,4.34Z"/><path class="cls-2" d="M25.73,1.57a4.43,4.43,0,0,0-.43,2c0,.22.16.65.49.66.17,0,.39-.13.54-.66,0-.12.05-.22.06-.26s0-.16-.09,0c-.13.33-.45.56-.69.12a1.82,1.82,0,0,1,.1-1.35c.06-.17.13-.42.13-.42C25.91,1.45,25.83,1.34,25.73,1.57Z"/><path class="cls-2" d="M18.71.1C18.54.21,13.44,2.49,13,2.89a1.56,1.56,0,0,0-.53.86c-.1.49,0,1,.35,1a.66.66,0,0,1,.41.25s.06,0,.07,0a.6.6,0,0,0-.41-.95c-.17-.05-.25-.29.39-.71S18.35.94,18.48.85s.29-.17.36-.35A2.35,2.35,0,0,0,19,.17C19,0,19-.1,18.71.1Z"/></g></g></g></svg>