<svg xmlns="http://www.w3.org/2000/svg" viewBox="0 0 29.58 27.81"><defs><style>.cls-1{isolation:isolate;}.cls-2{fill-rule:evenodd;mix-blend-mode:darken;}</style></defs><g class="cls-1"><g id="Layer_2" data-name="Layer 2"><g id="سور_الٌقرآن_الكريم" data-name="سور الٌقرآن الكريم"><path class="cls-2" d="M18,25.84l-.61.84-1.17-.85a.06.06,0,0,0-.09,0l-.71,1a.06.06,0,0,0,0,.09l1.21.89a.07.07,0,0,0,.09,0l.61-.84,1.17.86a.08.08,0,0,0,.1,0l.71-1a.07.07,0,0,0,0-.09l-1.2-.88A.07.07,0,0,0,18,25.84Z"/><path class="cls-2" d="M11.44,24.73c-.22.11-5,2-5.25,2.12s-.3.16-.35.32-.07.26-.08.29-.08.25.25.06c.11-.06,5-2,5.14-2.07s.29-.15.38-.32l.15-.31C11.73,24.69,11.78,24.55,11.44,24.73Z"/><path class="cls-2" d="M6,15.74A6.58,6.58,0,0,0,5.23,19c0,.36.29,1.06.89,1.08.3,0,.7-.21,1-1.09,0-.2.08-.36.1-.44s-.07-.26-.17,0c-.22.54-.8.92-1.24.2a2.77,2.77,0,0,1,.16-2.23c.11-.28.25-.7.25-.7C6.31,15.53,6.16,15.36,6,15.74Z"/><path class="cls-2" d="M1.46,7.59A5,5,0,0,0,1,9.91c0,.26.18.75.56.77.2,0,.46-.15.64-.77,0-.14,0-.26.07-.31s0-.19-.11,0c-.15.38-.52.65-.81.13a2.18,2.18,0,0,1,.12-1.58c.07-.2.16-.5.16-.5C1.67,7.44,1.57,7.32,1.46,7.59Z"/><path class="cls-2" d="M15.06,15.61a4.56,4.56,0,0,0-.61.87c-.15.25,0,.35.22.17a.83.83,0,0,1,.8-.37c.51,0,1.73,0,1.28.31s-.77.53-.77.53c-.29.21-.55.61,0,.39a3.64,3.64,0,0,0,1.74-1.38c.16-.23.34-.54-.38-.65S15.43,15.2,15.06,15.61Z"/><path class="cls-2" d="M15.49,8.66a5.45,5.45,0,0,0-.19,3A4.7,4.7,0,0,0,13,9.35c-.11,0-.3.1-.26.46,0,.2.05.71.2.82a4.77,4.77,0,0,0,.65.37c.07,0,.14,0,.15-.07s.06-.3.21-.18a4.48,4.48,0,0,1,1.46,1.87c.09.17.24.16.23-.09,0-.62-.14-1.68-.15-2s0-1.42.63-1a2.36,2.36,0,0,1,.28.22c.14.13.3.28.34.1a1.45,1.45,0,0,0-.08-1C16.61,8.77,15.83,8,15.49,8.66Z"/><path class="cls-2" d="M1.37,11.68a12.43,12.43,0,0,0-1.1,5.06,2.34,2.34,0,0,0,.58,1.52c.17-.19.3-.07.31.17l.15,0c.38,0,.87-.3,1.26-1.66.07-.31.11-.56.14-.68s-.07-.41-.21,0c-.3.84-1,1.41-1.54.26-.08-.22-.41-1.25.31-3.47.15-.43.34-1.07.34-1.07C1.77,11.36,1.6,11.09,1.37,11.68Z"/><path class="cls-2" d="M23.71,5.14c-.06.14-.54,1.35-.54,1.35a3,3,0,0,1,.23.78c.08.54,1,5.56,1.4,8.64,0,.27.87,5.61.78,5.72a2.27,2.27,0,0,1-2.81.1c-.24-.17-1.16-.79-1.58-3.89-.09-.6-.9-7.22-.9-7.22s-.42-3.23-.55-3.93c-.06-.23-.12-.27-.19-.11a2.44,2.44,0,0,0-.47,1.75c.12,1,1.31,9.36,1.4,10.08s.5,3.35.11,3.76a2.32,2.32,0,0,1-2.58.39,1.4,1.4,0,0,1-.72-1.64c.06-.36-.11-.65-.37-.24s-1.46,2.78-3.28,2.43c-.44-.08-1.67-.2-2.24-2.45-.19-.73-1.06-7.84-1.26-9.27S9.34,5.93,9.2,5.5s-.32-.12-.47.2a2.41,2.41,0,0,0-.18,1.69c.18,1,1.44,10,1.52,10.8s.35,2.12-.65,3S5,25.09,2.49,24.12c-.64-.25-2.7-1.18-1.38-5.4a.84.84,0,0,0,0-.29.73.73,0,0,1-.31-.17.7.7,0,0,0-.14.23c-.29.61-1.64,4.27.38,6.35.43.44,2.64,2.18,6.36-.59.57-.43,2.83-2,3.05-3.88,0-.25.08.15.1.24s.37,3.91,3.23,4c.48,0,1.65,0,2.9-2a2.17,2.17,0,0,0,2.06,1.63A2.38,2.38,0,0,0,21.29,22c.56.66,1.3,1.92,3.18,1.59.58-.1,1.71-.33,1.71-2.95,0-.6-.24-2.59-.37-3.35L24.42,8.43s.72.67.83.8.26,0,.19-.14-1.53-3.76-1.58-3.88S23.77,5,23.71,5.14Z"/><path class="cls-2" d="M27.22,5.14l-.5,1.22c0,.07.13.54.15.72.21,1.56,1.58,10.77,1.94,13.69.18,1.43.23,2.73.25,3.42,0,.22.07.3.17.09a4.69,4.69,0,0,0,.34-1.76,23.37,23.37,0,0,0-.28-4.18c0-.28-1.36-9.91-1.36-9.91s.72.67.83.8.26,0,.19-.14-1.53-3.76-1.58-3.88S27.28,5,27.22,5.14Z"/><path class="cls-2" d="M5.56,4.7a4.85,4.85,0,0,0-.51,2.85,4.64,4.64,0,0,0-2.2-2.39c-.12,0-.33.08-.32.42s0,.69.12.82a5,5,0,0,0,.66.41c.07,0,.14,0,.16,0s.1-.29.24-.16A4.12,4.12,0,0,1,4.87,8.07c.4.76-.53,2.06-.5,3.45,0,.32.16.94.59,1,.23,0,.52-.15.76-.91,0-.17.08-.31.1-.38s0-.23-.13,0c-.18.46-.62.77-.91.12A2.78,2.78,0,0,1,5,9.39,10,10,0,0,0,5.38,6.5c0-.44.18-1.37.77-.93a3.3,3.3,0,0,1,.28.23c.13.14.29.3.35.12a1.3,1.3,0,0,0,0-.93C6.73,4.89,6,4.06,5.56,4.7Z"/><path class="cls-2" d="M19.93,2.5a1,1,0,0,0,0,.73c.1.29.4.94.45,1a.16.16,0,0,1-.1.26.73.73,0,0,1-1-.56A7.37,7.37,0,0,0,19,2.81c-.07-.13-.13-.14-.18,0a2.36,2.36,0,0,0-.1.45.15.15,0,0,0,0,.13c0,.05.33.93.19,1.17s-.79.69-1.14.23a3.58,3.58,0,0,1-.07-1.32c0-.2-.06-.26-.14-.11a.83.83,0,0,0-.12.4,9.07,9.07,0,0,1,0,.91c0,.19,0,.79.36,1s.87,0,1.26-.74a.86.86,0,0,0,1,.36,1.08,1.08,0,0,0,.52-.83,1.49,1.49,0,0,0-.18-1,3.26,3.26,0,0,1-.31-.81C20.06,2.43,20,2.25,19.93,2.5Z"/><path class="cls-2" d="M21.27.11c-.22.11-8.32,3.51-8.95,4a1.82,1.82,0,0,0-.71,1c-.17.6-.06,1.21.33,1.3a.86.86,0,0,1,.49.33s.07,0,.09,0a.74.74,0,0,0-.43-1.19c-.21-.08-.28-.38.53-.83S20.76,1.11,20.93,1s.36-.19.46-.4.12-.25.18-.4S21.68-.11,21.27.11Z"/></g></g></g></svg>