<svg xmlns="http://www.w3.org/2000/svg" viewBox="0 0 32.87 20.75"><defs><style>.cls-1{isolation:isolate;}.cls-2{fill-rule:evenodd;mix-blend-mode:darken;}</style></defs><g class="cls-1"><g id="Layer_2" data-name="Layer 2"><g id="سور_الٌقرآن_الكريم" data-name="سور الٌقرآن الكريم"><path class="cls-2" d="M28.22,16.21a4.35,4.35,0,0,0-.46,2.1c0,.23.17.68.51.69.18,0,.42-.13.58-.69,0-.13,0-.24.06-.29s0-.16-.1,0c-.13.35-.47.59-.73.13a2,2,0,0,1,.11-1.44c.06-.18.14-.45.14-.45C28.4,16.07,28.32,16,28.22,16.21Z"/><path class="cls-2" d="M13.42,15.24c-.22.15-5,2.76-5.21,2.92s-.3.21-.33.39,0,.28,0,.31-.06.27.26,0c.11-.08,4.93-2.72,5.11-2.86s.29-.19.35-.38a2.08,2.08,0,0,0,.12-.35C13.71,15.16,13.75,15,13.42,15.24Z"/><path class="cls-2" d="M13.9,12.18a6.48,6.48,0,0,0-1.15-2A.92.92,0,0,0,11.4,10a4.24,4.24,0,0,0-1.06,2,4.7,4.7,0,0,1-.51,1.39,11.82,11.82,0,0,1-4.07,3.1c-.59.31-5.67,2.87-5.67,2.87s-.14.15.06.1,3.4-.84,3.85-1A20.22,20.22,0,0,0,8.31,16,5,5,0,0,0,10.48,13a5,5,0,0,0,3.14.55c.14,0,.12-.09.16-.2A2.42,2.42,0,0,0,13.9,12.18Zm-1.13.12a4.47,4.47,0,0,1-1.92-.57s.17-.53.56-.64c.22-.05.72-.27,1.46,1C13,12.31,12.89,12.31,12.77,12.3Z"/><path class="cls-2" d="M25.36,7.66a1,1,0,0,0,0,.77c.12.3.43,1,.48,1.07a.18.18,0,0,1-.11.28.76.76,0,0,1-1.08-.59A8.31,8.31,0,0,0,24.38,8c-.07-.14-.14-.15-.19,0a2.57,2.57,0,0,0-.1.48.16.16,0,0,0,0,.13c0,.05.34,1,.2,1.22s-.83.71-1.19.23a3.63,3.63,0,0,1-.07-1.37c0-.2-.06-.27-.15-.11a.76.76,0,0,0-.12.41c0,.14,0,.76,0,.95s0,.83.37,1,.91,0,1.32-.76a.9.9,0,0,0,1.05.37,1.12,1.12,0,0,0,.54-.86,1.53,1.53,0,0,0-.19-1,3.68,3.68,0,0,1-.32-.85C25.49,7.6,25.44,7.4,25.36,7.66Z"/><path class="cls-2" d="M1.59,9.32a10.77,10.77,0,0,0-.87,4.45c0,.49.3,1.45.94,1.48.33,0,.76-.27,1.08-1.47l.11-.6c0-.16-.07-.35-.18,0-.25.73-.88,1.24-1.35.25a4.62,4.62,0,0,1,.21-3c.12-.38.27-.95.27-.95C1.94,9,1.78,8.8,1.59,9.32Z"/><path class="cls-2" d="M7.05,6.87a4.89,4.89,0,0,0-.51,2.31c0,.26.19.76.57.77.2,0,.46-.15.64-.77,0-.14,0-.25.06-.31s0-.19-.1,0c-.15.38-.53.65-.81.13A2.09,2.09,0,0,1,7,7.43c.07-.19.16-.49.16-.49C7.25,6.72,7.16,6.6,7.05,6.87Z"/><path class="cls-2" d="M17.38,2a5.33,5.33,0,0,0-.28,2.42c0,.26.27.76.66.73.21,0,.46-.19.58-.85a3,3,0,0,0,0-.33c0-.09-.06-.18-.1,0-.12.41-.48.72-.82.23a2.19,2.19,0,0,1,0-1.64c.05-.21.11-.52.11-.52C17.58,1.82,17.47,1.71,17.38,2Z"/><path class="cls-2" d="M13.52,1.19a5.19,5.19,0,0,0-.4,3,4.77,4.77,0,0,0-2.35-2.37c-.11-.05-.32.09-.31.45s0,.71.17.84a4.82,4.82,0,0,0,.68.39c.08,0,.15,0,.17-.06s.08-.3.24-.17a4.09,4.09,0,0,1,1.34,1.66c.3.82-1.6,2.75-1.7,2.84s-.1.24,0,.18A8.44,8.44,0,0,0,12.5,7a2.3,2.3,0,0,0,.93-1.84.28.28,0,0,0,0-.09c0-.62,0-1.69,0-2s.13-1.41.75-1c.14.1.29.23.29.23s.31.3.36.11a1.32,1.32,0,0,0,0-1C14.73,1.35,13.93.53,13.52,1.19Z"/><path class="cls-2" d="M5.16,1.78a5.16,5.16,0,0,0-.4,3A4.7,4.7,0,0,0,2.42,2.37c-.12-.05-.33.09-.31.44s0,.72.16.84A4.34,4.34,0,0,0,3,4c.07,0,.15,0,.16-.06s.09-.29.24-.17A4.17,4.17,0,0,1,4.7,5.47C5,6.3,3.11,8.22,3,8.31s-.11.24,0,.19a10.28,10.28,0,0,0,1.17-.9,2.34,2.34,0,0,0,.92-1.85.64.64,0,0,0,0-.09c0-.62,0-1.69,0-2s.13-1.41.75-1c.14.1.29.23.29.23s.3.3.36.11a1.43,1.43,0,0,0,0-1C6.37,1.93,5.57,1.11,5.16,1.78Z"/><path class="cls-2" d="M25,2A2.38,2.38,0,0,0,24.7.24c-.09-.15-.64-.62-1.23.36-.23.37-.38,1.26,0,1.5a4.4,4.4,0,0,0,.86.42A22.9,22.9,0,0,1,19.7,7c-.24.15-.19.27-.05.23a11.2,11.2,0,0,0,2.73-1.66A12,12,0,0,0,24.7,2.65s.41.32.47.39.19.25.24.09A.85.85,0,0,0,25,2Zm-.37-.22L24,1.54c-.21-.08-.32-.21-.23-.34.3-.46.46-.45.58-.38A1.23,1.23,0,0,1,24.64,1.82Z"/><path class="cls-2" d="M29.62,10c-.09-.55-1.42-6.93-1.42-6.93s.65.61.76.73.23.05.17-.13S27.74.25,27.69.14,27.61,0,27.56.08l-.49,1.07a3.74,3.74,0,0,1,.21.8c.07.49.2,1.15.32,1.93,0,0,1.47,7.89,1.52,8.33s.15.8-.29,1.1a23.73,23.73,0,0,1-3.77,1.48,9.2,9.2,0,0,0-3.56,3c-.29.36-1.15,1.58-2,1.87-.5.16-1.31.26-1.51-.66a5.25,5.25,0,0,1,.43-2.85,11.64,11.64,0,0,0,1.91-1.84,3.25,3.25,0,0,0,.47-3.14c-.85-2.93-2.48-2.41-3-2.06a2.67,2.67,0,0,0-1,2.17,1.14,1.14,0,0,0,1.39,1.05,9.51,9.51,0,0,1,1.45-.14c.36,0,1,.15.74.53-1.67,2.89-10.66,7.45-10.66,7.45-.22.12-.45.27-.41.36s.09.09.26,0,4.12-1.33,4.33-1.45a37.4,37.4,0,0,0,3.92-2.52c-.35,1.29-.88,4.14,1.35,4.17a3,3,0,0,0,2.29-1.43,13.43,13.43,0,0,1,3.26-3.13c.8-.37,2.87-1,3.39-1.23s1.32-.42,1.55-2.2A8.19,8.19,0,0,0,29.62,10ZM17.7,11c-.39-.12.05-.58.35-.66a1.54,1.54,0,0,1,1.57.57A4.15,4.15,0,0,1,17.7,11Z"/><path class="cls-2" d="M30.7.08l-.37,1c.09.57.85,5.77.9,6.19s1.1,7.29,1.15,9.19c0,.19.07.26.16.08s.71-1.46,0-6.11L31.35,3.06s.65.61.75.72.24.05.18-.13S30.88.26,30.84.14,30.76,0,30.7.08Z"/></g></g></g></svg>