<svg xmlns="http://www.w3.org/2000/svg" viewBox="0 0 38.3 17.45"><defs><style>.cls-1{isolation:isolate;}.cls-2{fill-rule:evenodd;mix-blend-mode:darken;}</style></defs><g class="cls-1"><g id="Layer_2" data-name="Layer 2"><g id="سور_الٌقرآن_الكريم" data-name="سور الٌقرآن الكريم"><path class="cls-2" d="M21.78,14.34c-.19.09-4.21,1.67-4.4,1.77s-.25.13-.29.27-.06.22-.07.24-.07.21.21.05c.09-.05,4.15-1.64,4.3-1.73s.25-.12.32-.26.09-.17.13-.27S22.06,14.2,21.78,14.34Z"/><path class="cls-2" d="M30.16,14.32a4.09,4.09,0,0,0-.41,1.85c0,.21.15.61.46.62.16,0,.36-.12.51-.62,0-.11,0-.2.05-.25s0-.15-.08,0-.42.52-.65.11a1.7,1.7,0,0,1,.09-1.27c.06-.16.13-.39.13-.39C30.32,14.2,30.25,14.1,30.16,14.32Z"/><path class="cls-2" d="M36.4,13.77A4,4,0,0,0,36,15.62c0,.21.15.61.46.62.16,0,.36-.12.51-.62,0-.11,0-.2,0-.25s0-.15-.09,0-.41.52-.64.11a1.69,1.69,0,0,1,.09-1.27c.06-.16.13-.39.13-.39C36.56,13.65,36.49,13.55,36.4,13.77Z"/><path class="cls-2" d="M4.48,9.61l-.51.7s0,.06,0,.07l.87.64a.05.05,0,0,0,.07,0l.51-.7a0,0,0,0,0,0-.06L4.55,9.6A.06.06,0,0,0,4.48,9.61Z"/><path class="cls-2" d="M2.92,9.66a3.89,3.89,0,0,0-.46,2c0,.22.18.65.54.65.19,0,.43-.13.6-.66,0-.12,0-.22,0-.26s0-.16-.1,0c-.13.33-.48.56-.75.13,0-.09-.23-.48.09-1.35C3,10,3,9.72,3,9.72,3.11,9.53,3,9.42,2.92,9.66Z"/><path class="cls-2" d="M16,7.75a4,4,0,0,0-.54,1.95c0,.22.15.65.51.67.19,0,.43-.1.62-.63,0-.12.06-.22.07-.26s0-.16-.1,0c-.15.32-.51.54-.76.09a1.69,1.69,0,0,1,.15-1.34c.08-.17.17-.42.17-.42C16.15,7.63,16.06,7.52,16,7.75Z"/><path class="cls-2" d="M20.36,7.68a1.2,1.2,0,0,0-1.62-.28,2,2,0,0,0-.87,1.7c0,.27.14.9,1.07.87a4.92,4.92,0,0,1,1.16-.08c.26.07,1.12.37.67.89a10.07,10.07,0,0,1-3.72,1.82,5.68,5.68,0,0,0-2.6,1.89,6.68,6.68,0,0,1-2,2,1.13,1.13,0,0,1-1.6-1.33c.06-.44.18-1.05.25-1.4a10.59,10.59,0,0,0,2-1.83,2.61,2.61,0,0,0,.38-2.49c-.68-2.33-2-1.91-2.35-1.64a2.13,2.13,0,0,0-.81,1.73c0,.27.17.89,1.1.83a8.28,8.28,0,0,1,1.15-.12c.28,0,.77.13.58.43-1.32,2.29-8.45,5.9-8.45,5.9-.17.1-.35.22-.32.29s.07.07.21,0,3.26-1,3.43-1.15A30.2,30.2,0,0,0,10.78,14c-.22.77-.66,2.58.61,3.24.41.21,1.87.64,3-1.26a7.34,7.34,0,0,1,2.54-2.32c.64-.22,3.32-1.15,3.79-1.76C22.22,9.94,20.47,7.81,20.36,7.68ZM18.6,8.88c-.31-.1,0-.45.29-.51a1.21,1.21,0,0,1,1.23.49A3.33,3.33,0,0,1,18.6,8.88Zm-7.53.4c-.32-.1,0-.46.27-.53a1.23,1.23,0,0,1,1.25.45A3.32,3.32,0,0,1,11.07,9.28Z"/><path class="cls-2" d="M7.74,6.28c0,.07-.22.76-.23.82a5.74,5.74,0,0,0,.27,1,22.36,22.36,0,0,0,1,2.1.7.7,0,0,1,.06.76A9.61,9.61,0,0,1,4.2,13.7c-.44.12-2.28.56-3.31-.83-.17-.23-.95-1.38-.17-3.59.08-.17,0-.36-.21,0S-1.18,13.88,2,14.82c.71.21,2.57.6,5.89-2,.31-.25,1.86-1.26,1.41-2.87-.06-.23-1-2.3-1-2.3.22.09.35.12.43.16s.2,0,.08-.21S8,6.53,7.92,6.47s0-.11-.08-.19S7.77,6.21,7.74,6.28Z"/><path class="cls-2" d="M18.66,4.93l-.51.69s0,.06,0,.07l.87.64a.06.06,0,0,0,.07,0l.51-.7s0-.06,0-.07l-.87-.64A.05.05,0,0,0,18.66,4.93Z"/><path class="cls-2" d="M8.15,3.77c-.14.09-6,3-6.37,3.3a1.21,1.21,0,0,0-.42.69c-.09.4,0,.8.27.84A.53.53,0,0,1,2,8.8s0,0,.05,0A.49.49,0,0,0,1.69,8c-.14,0-.2-.23.32-.57s5.85-3,6-3.07.23-.14.28-.29a1.87,1.87,0,0,0,.1-.26C8.38,3.72,8.41,3.61,8.15,3.77Z"/><path class="cls-2" d="M1.77,3.09a4,4,0,0,0-.54,2c0,.21.15.64.51.67.19,0,.43-.11.62-.64,0-.12.06-.21.07-.26s0-.16-.1,0c-.15.32-.51.54-.76.09a1.69,1.69,0,0,1,.15-1.34c.08-.17.17-.42.17-.42C2,3,1.88,2.86,1.77,3.09Z"/><path class="cls-2" d="M11.85,2.74a3.6,3.6,0,0,0-.38,2A3.21,3.21,0,0,0,9.9,3.06c-.08,0-.23,0-.23.3s0,.49.09.59a3,3,0,0,0,.46.29c.06,0,.11,0,.12,0s.07-.2.18-.11a3.22,3.22,0,0,1,1,1.39c0,.12.17.13.18-.05,0-.43,0-1.17.05-1.4s.14-1,.56-.67l.2.17c.09.1.2.22.25.09a.91.91,0,0,0,0-.67C12.7,2.88,12.17,2.28,11.85,2.74Z"/><path class="cls-2" d="M19.85,2.3A3.66,3.66,0,0,0,19.49,4c0,.18.13.54.41.55s.33-.11.46-.56c0-.1,0-.18.05-.22s0-.13-.08,0-.38.47-.58.1a1.57,1.57,0,0,1,.08-1.14c.05-.14.12-.36.12-.36C20,2.19,19.93,2.11,19.85,2.3Z"/><path class="cls-2" d="M32.27,8.14a3.52,3.52,0,0,0-.38,2,3.31,3.31,0,0,0-1.57-1.72c-.08,0-.24,0-.24.3s0,.5.09.59a3.58,3.58,0,0,0,.47.29c.05,0,.11,0,.12,0s.07-.2.17-.11a3.13,3.13,0,0,1,1,1.39c.06.12.17.13.19-.05,0-.43,0-1.17,0-1.4s.14-1,.56-.67l.2.17c.09.1.21.22.25.09a.92.92,0,0,0,0-.67C33.12,8.28,32.58,7.68,32.27,8.14Z"/><path class="cls-2" d="M27.84,6.07a4.44,4.44,0,0,0-.34,2c0,.22.19.65.53.65.17,0,.39-.15.53-.7,0-.13,0-.23,0-.28s-.05-.16-.09,0c-.11.35-.43.59-.7.16a1.86,1.86,0,0,1,0-1.39L28,6.12C28,5.93,27.93,5.82,27.84,6.07Z"/><path class="cls-2" d="M16.84,3.44a1.69,1.69,0,0,0-.13-1.27c-.06-.11-.43-.45-.88.2-.17.25-.32.86-.08,1a2.83,2.83,0,0,0,.58.34,15.68,15.68,0,0,1-3.41,2.94c-.17.09-.14.18,0,.16a7.76,7.76,0,0,0,2-1A8.12,8.12,0,0,0,16.6,3.86l.31.28c.08.11.12.19.17.08A.62.62,0,0,0,16.84,3.44Zm-.25-.17s-.31-.16-.46-.22-.21-.16-.14-.25c.23-.3.34-.29.42-.24A.88.88,0,0,1,16.59,3.27Z"/><path class="cls-2" d="M35.47,11.49C35.38,10.87,34.25,4,34.25,4s.52.48.6.57.18,0,.14-.1S33.88,2,33.85,1.86s-.07-.15-.11-.05-.38.84-.38.84a3.71,3.71,0,0,1,.14.61c0,.23,1.52,9.17,1.52,9.59a.31.31,0,0,1-.11.31,3.18,3.18,0,0,1-2.22.35,4.45,4.45,0,0,1-2-1.44,14.55,14.55,0,0,0-4.37-2.82c-.4-.16-2.46-.88-2.67-1s-.23-.14-.11-.25a30.63,30.63,0,0,1,7.14-4.57c.33-.11,1.24-.29,1,.23-.27.9-1.46,2.64-1.61,3.12-.05.23.09.21.2.08a12.24,12.24,0,0,0,1.89-3.82c.07-.5-.12-1-.89-.77A30.44,30.44,0,0,0,23.49,7a3.75,3.75,0,0,0-.43.65,2.27,2.27,0,0,0-.13.33,34.82,34.82,0,0,0-.84-5.67c-.1-.26-.17-.33-.27-.09a8.21,8.21,0,0,0-.24.8c.08.27.33,1.42.45,2.2s.71,6,.79,6.52.32,3.22,1.5,3.8c.29.15,1.16.8,3.52-.75a1.73,1.73,0,0,0,1-1.74,2.87,2.87,0,0,0-.58-1.62,10.15,10.15,0,0,1,2,1.41c.51.5,1.74,2.06,3.6,1.77a1.73,1.73,0,0,0,1.5-1.32A3.89,3.89,0,0,0,35.47,11.49Zm-7.09,1.45c.06.1.15.21,0,.34s-1.72,1.45-2.94,1.43a1.68,1.68,0,0,1-1.58-1.17,25,25,0,0,1-.77-4,3.09,3.09,0,0,1,0-.4.45.45,0,0,0,.18.1C23.89,9.48,27.61,11.34,28.38,12.94Z"/><path class="cls-2" d="M36.6,1.82c-.05.1-.36.86-.36.86s.09.38.11.51c.15,1.1,1.06,7.63,1.33,9.7.13,1,.23,1.93.24,2.42,0,.15.06.21.13.06a3.23,3.23,0,0,0,.24-1.25,15.69,15.69,0,0,0-.2-3c0-.19-1-7-1-7s.52.47.6.56.18,0,.14-.1S36.74,2,36.71,1.87,36.64,1.72,36.6,1.82Z"/><path class="cls-2" d="M30.91.07,23.77,4c-.19.1-.25.15-.28.29s0,.23,0,.26-.07.19.21,0c.09,0,6.89-3.74,7.05-3.84S31,.57,31,.42s.08-.18.11-.28S31.2-.07,30.91.07Z"/></g></g></g></svg>