<svg xmlns="http://www.w3.org/2000/svg" viewBox="0 0 30.67 22.13"><defs><style>.cls-1{isolation:isolate;}.cls-2{fill-rule:evenodd;mix-blend-mode:darken;}</style></defs><g class="cls-1"><g id="Layer_2" data-name="Layer 2"><g id="سور_الٌقرآن_الكريم" data-name="سور الٌقرآن الكريم"><path class="cls-2" d="M9.72,19.31c-.24.12-4.27,1.83-4.52,2s-.34.17-.39.36L4.72,22c0,.12-.09.28.28.07.11-.07,4.19-1.8,4.4-1.92s.33-.16.42-.35a2.64,2.64,0,0,0,.17-.35C10.05,19.26,10.1,19.11,9.72,19.31Z"/><path class="cls-2" d="M21.63,17.12a5.13,5.13,0,0,0-.47,2.57c0,.28.27.82.74.81.24,0,.54-.19.72-.89,0-.16,0-.28.06-.35s-.07-.2-.13,0c-.15.43-.59.75-1,.21-.07-.11-.33-.61,0-1.75.08-.22.17-.55.17-.55C21.87,16.94,21.75,16.82,21.63,17.12Z"/><path class="cls-2" d="M27.93,16.49a5.18,5.18,0,0,0-.46,2.58c0,.28.27.81.73.8.24,0,.54-.19.72-.89,0-.15,0-.28.06-.34s-.06-.2-.13,0c-.15.43-.59.75-1,.21a2.18,2.18,0,0,1,0-1.75c.07-.22.16-.55.16-.55C28.17,16.32,28.05,16.19,27.93,16.49Z"/><path class="cls-2" d="M2.16,10.33a11,11,0,0,0-.6,4.59c.05.5.4,1.46,1,1.45.34,0,.77-.33,1-1.57,0-.28.06-.51.07-.62s-.09-.36-.18,0c-.21.77-.82,1.33-1.36.35a4.76,4.76,0,0,1,0-3.12c.1-.4.22-1,.22-1C2.5,10,2.32,9.78,2.16,10.33Z"/><path class="cls-2" d="M20.64,9.38l-.68.93a.06.06,0,0,0,0,.09l1.17.85s.06,0,.09,0l.68-.93a.07.07,0,0,0,0-.09l-1.17-.85A.07.07,0,0,0,20.64,9.38Z"/><path class="cls-2" d="M21,5.24a1.07,1.07,0,0,0,0,.81c.12.31.44,1,.5,1.14s.06.21-.12.29a.8.8,0,0,1-1.14-.62A9.69,9.69,0,0,0,20,5.59c-.08-.15-.15-.17-.21,0a2.88,2.88,0,0,0-.1.5.18.18,0,0,0,0,.14s.36,1,.21,1.29-.88.75-1.27.25a4.12,4.12,0,0,1-.07-1.46c0-.21-.06-.28-.15-.11a.87.87,0,0,0-.14.43c0,.16,0,.81,0,1s0,.88.39,1.06,1,0,1.4-.8a1,1,0,0,0,1.12.39,1.17,1.17,0,0,0,.56-.92,1.59,1.59,0,0,0-.2-1.09,3.77,3.77,0,0,1-.33-.89C21.18,5.17,21.12,5,21,5.24Z"/><path class="cls-2" d="M5,1.4a5.23,5.23,0,0,0-.72,2.93A4.84,4.84,0,0,0,2.19,1.7c-.11-.06-.34.06-.36.41s-.08.72.07.86,1.19.51.62,1.11C2.27,4.35,1,5.68.71,6s-.3.38,0,.22A3.71,3.71,0,0,0,3,3.7a1,1,0,0,0-.08-.5l.08,0a4.52,4.52,0,0,1,1.28,2.1c.07.18.24.2.27-.06.09-.62.15-1.7.19-2s.29-1.4.88-.91c.13.11.27.26.27.26.12.16.28.33.35.15a1.3,1.3,0,0,0,.08-1C6.26,1.69,5.54.78,5,1.4Z"/><path class="cls-2" d="M10.59,1.12a5.94,5.94,0,0,0-.53,2.93c0,.32.31.93.84.92.27,0,.62-.22.82-1,0-.18,0-.32.07-.39s-.07-.23-.15,0c-.17.49-.67.85-1.09.23-.08-.12-.37-.69,0-2,.08-.25.18-.62.18-.62C10.87.91,10.73.77,10.59,1.12Z"/><path class="cls-2" d="M7,8.19a5.83,5.83,0,0,0-.53,2.93c0,.32.31.93.84.92.27,0,.61-.22.82-1,0-.17.05-.32.07-.39s-.08-.23-.15,0c-.17.49-.67.86-1.1.24a2.48,2.48,0,0,1,0-2c.08-.26.18-.63.18-.63C7.31,8,7.17,7.84,7,8.19Z"/><path class="cls-2" d="M26.67,13c-.05-.37-1.35-9.16-1.41-9.17l.74.77c.11.12.24,0,.18-.13S24.7.83,24.66.71s-.09-.2-.15-.06-.39,1.06-.39,1.06c0,.2.31,1.94.6,4.14.07.51,1.27,7.71,1.34,8.25s.23,1.24-.38,1.53-2,.89-2.88-.17a3.72,3.72,0,0,1-.46-2.07c0-.18-.06-.38-.31-.2a11.15,11.15,0,0,1-2.28,1.55,3.39,3.39,0,0,0-.67-1c-.85-.9-1.64-1.38-2.56-.37s-.87,2.76.42,3.17a4.24,4.24,0,0,0,2-.18c.19-.05.72-.08.43.39s-3.05,3.61-5.65,3.82a2.25,2.25,0,0,1-2.4-2.77c0-.28.39-1.8.48-2.22a5.32,5.32,0,0,0,.89-1.07,3.29,3.29,0,0,0,0-2.64c-.28-.53-1.15-2-1.15-2l0,0s.62.07.68.06.18-.06,0-.24-1.5-1.51-1.58-1.62-.15-.19-.2,0-.16.84-.18,1a.55.55,0,0,0,0,.4,7.21,7.21,0,0,1,.37.87c.13.34,1.48,2.83,1.6,3.06a.43.43,0,0,1-.08.53C8.15,17.38.41,19.9.15,20.05s-.19.27.25.2c.65-.12,3.56-.47,4.44-.77A25.43,25.43,0,0,0,11.38,16c-.32,1.14-1.39,4.76.61,5.72.33.16,3,1.2,7.09-3a4.39,4.39,0,0,0,1-2.17A5,5,0,0,0,20,16a5.48,5.48,0,0,0,1.59-1.17c.1-.08.17-.12.2.05s.18,2.05,1.46,2.5a2.9,2.9,0,0,0,3-.88C26.43,16.32,27,15.49,26.67,13Zm-9.32,2.18c-.94-.15-.59-.63-.41-.8a1.19,1.19,0,0,1,1.75.71A2.92,2.92,0,0,1,17.35,15.15Z"/><path class="cls-2" d="M28.25.57c-.06.14-.39,1.06-.39,1.06.09.6,1,6.23,1.07,6.67s1.37,7.39,1.23,9.75c0,.2.07.28.17.08s.74-1.54,0-6.47c-.06-.41-1.36-7.93-1.36-7.93s.69.64.8.76.24.06.18-.13S28.44.76,28.4.64,28.31.43,28.25.57Z"/><path class="cls-2" d="M19.07,2.28a2.57,2.57,0,0,0-.17-2c-.09-.16-.65-.72-1.37.29-.28.39-.52,1.33-.16,1.62a4.56,4.56,0,0,0,.9.54,24.78,24.78,0,0,1-5.4,4.49c-.27.14-.22.28-.07.25a12.5,12.5,0,0,0,3.12-1.57,13.27,13.27,0,0,0,2.77-3,6.43,6.43,0,0,1,.47.46c.12.16.19.29.26.12A1,1,0,0,0,19.07,2.28ZM18.69,2s-.49-.26-.71-.36-.33-.26-.22-.39c.37-.47.54-.45.66-.36A1.32,1.32,0,0,1,18.69,2Z"/></g></g></g></svg>