<svg xmlns="http://www.w3.org/2000/svg" viewBox="0 0 32.46 20.73"><defs><style>.cls-1{isolation:isolate;}.cls-2{fill-rule:evenodd;mix-blend-mode:darken;}</style></defs><g class="cls-1"><g id="Layer_2" data-name="Layer 2"><g id="سور_الٌقرآن_الكريم" data-name="سور الٌقرآن الكريم"><path class="cls-2" d="M11.25,18c-.23.12-4,1.6-4.23,1.74s-.32.16-.37.34-.07.27-.08.3-.09.26.26.06c.11-.06,3.92-1.57,4.11-1.68s.32-.15.4-.33a3.11,3.11,0,0,0,.16-.34C11.56,17.94,11.61,17.8,11.25,18Z"/><path class="cls-2" d="M21.73,16.39a4.76,4.76,0,0,0-.48,2.22c0,.24.17.72.54.74.19,0,.44-.14.61-.74l.06-.3c0-.08,0-.18-.1,0-.14.37-.5.62-.77.13a2.05,2.05,0,0,1,.11-1.52c.07-.19.15-.47.15-.47C21.93,16.25,21.84,16.13,21.73,16.39Z"/><path class="cls-2" d="M29.21,15.63a4.72,4.72,0,0,0-.49,2.22c0,.25.18.72.55.73.19,0,.43-.13.61-.73l.06-.3c0-.08,0-.18-.1,0-.14.37-.5.62-.77.13a2,2,0,0,1,.1-1.52c.07-.19.16-.47.16-.47C29.4,15.49,29.31,15.37,29.21,15.63Z"/><path class="cls-2" d="M23.57,9l-.65.88a.06.06,0,0,0,0,.08l1.1.8a.07.07,0,0,0,.09,0l.64-.88a.07.07,0,0,0,0-.09L23.65,9A.05.05,0,0,0,23.57,9Z"/><path class="cls-2" d="M10.34,8.64A5.14,5.14,0,0,0,9.83,11c0,.26.19.76.58.77.2,0,.46-.14.64-.77,0-.15,0-.26.07-.32s0-.18-.11,0c-.15.39-.53.66-.82.14a2.18,2.18,0,0,1,.12-1.6c.07-.2.16-.49.16-.49C10.55,8.49,10.46,8.37,10.34,8.64Z"/><path class="cls-2" d="M5.7,8a6.06,6.06,0,0,0-.44,2.76c0,.3.27.88.72.87.23,0,.52-.2.69-1,0-.17,0-.3,0-.37s-.06-.22-.12,0c-.15.46-.57.8-.93.21a2.56,2.56,0,0,1,0-1.87c.07-.24.15-.59.15-.59C5.93,7.83,5.81,7.69,5.7,8Z"/><path class="cls-2" d="M13.18,8a4.7,4.7,0,0,0-.65.93c-.16.26.05.37.23.17a.93.93,0,0,1,.87-.39c.55,0,1.85,0,1.37.33s-.82.57-.82.57c-.32.23-.6.65,0,.41A3.92,3.92,0,0,0,16,8.51c.16-.25.36-.59-.41-.7S13.58,7.51,13.18,8Z"/><path class="cls-2" d="M24,4.36A.91.91,0,0,0,24,5c.1.26.37.85.41.94s.06.18-.09.24a.66.66,0,0,1-.95-.51,5,5,0,0,0-.2-1c-.06-.13-.12-.14-.17,0a1.69,1.69,0,0,0-.08.41.13.13,0,0,0,0,.12s.29.85.17,1.07-.73.62-1.05.2A3.33,3.33,0,0,1,22,5.23c0-.17-.06-.23-.13-.09a.58.58,0,0,0-.11.36c0,.12,0,.66,0,.83s0,.72.32.88.8,0,1.16-.67a.79.79,0,0,0,.92.32,1,1,0,0,0,.47-.75,1.3,1.3,0,0,0-.17-.9,3.47,3.47,0,0,1-.27-.74C24.14,4.3,24.09,4.13,24,4.36Z"/><path class="cls-2" d="M4.76,2.15a4.82,4.82,0,0,0-.57,2.79A4.52,4.52,0,0,0,2.08,2.55c-.11,0-.32.07-.33.41s0,.67.11.8,1.14.43.63,1C2.26,5.05,1.11,6.35.87,6.66S.6,7,.87,6.87a3.49,3.49,0,0,0,2-2.47.76.76,0,0,0-.09-.46s.05,0,.08,0A4.27,4.27,0,0,1,4.19,5.9c.07.17.23.18.25-.06.06-.59.07-1.61.1-1.92s.21-1.34.78-.9a3.31,3.31,0,0,1,.27.24c.12.14.28.3.34.12a1.3,1.3,0,0,0,0-.91C5.91,2.38,5.19,1.54,4.76,2.15Z"/><path class="cls-2" d="M13.84,1.33a5.18,5.18,0,0,0-.51,2.34c0,.26.19.76.58.78.2,0,.46-.15.64-.78,0-.15,0-.26.07-.32s0-.18-.11,0c-.15.39-.53.66-.82.14a2.18,2.18,0,0,1,.12-1.6c.07-.2.16-.49.16-.49C14.05,1.18,14,1.06,13.84,1.33Z"/><path class="cls-2" d="M25.57,1.25C25.3,1.39,16.08,5,15.8,5.19s-.37.2-.43.4-.09.32-.1.36-.1.3.31.07c.13-.08,9.4-3.75,9.63-3.88s.36-.18.47-.39a3,3,0,0,0,.18-.39C25.92,1.21,26,1,25.57,1.25Z"/><path class="cls-2" d="M9.69,1.25a10.64,10.64,0,0,0-.77,4.3C9,6,9.23,6.94,9.85,7c.32,0,.73-.28,1-1.44,0-.26.07-.47.09-.57s-.07-.34-.17,0c-.23.72-.83,1.22-1.29.27A4.41,4.41,0,0,1,9.65,2.3c.11-.37.25-.92.25-.92C10,1,9.87.75,9.69,1.25Z"/><path class="cls-2" d="M17.5.85a3.73,3.73,0,0,0-.39,1.78c0,.19.14.58.44.59.15,0,.34-.12.48-.59,0-.11,0-.2,0-.24s0-.14-.08,0c-.11.3-.4.5-.62.11a1.66,1.66,0,0,1,.09-1.21c.06-.15.12-.38.12-.38C17.65.74,17.58.65,17.5.85Z"/><path class="cls-2" d="M27.45,2.88s.65.61.75.72.23.06.17-.12S27.09.25,27.05.14,27-.06,26.91.07s-.48,1.07-.48,1.07a6.32,6.32,0,0,1,.18.78c.05.37,1.48,11,1.52,11.44A2,2,0,0,1,28,14.51a2.14,2.14,0,0,1-2.39.36c-.26-.11-.71-.26-.84-1.54,0-.16.19-.58-.29-.36a32.51,32.51,0,0,1-3.31,1.57l-.66.19a14.07,14.07,0,0,0,.94-1.87,1.86,1.86,0,0,0-.62-2c-1.66-1.19-2.62-.87-3-.77-1.82.32-3.58,3.59-3.83,4-.11.2-.41.69-.7,1.18a1.54,1.54,0,0,1-.61-.37c-2.15-2.11-3.62-1.35-4.5-.81a14.39,14.39,0,0,0-3.89,3.71c-.43.56-1.73,2.1-3.15,1.76-.56-.14-1.44-1.27.36-5a.68.68,0,0,0,.27.07c.33,0,.74-.27,1-1.43.05-.26.08-.47.1-.58s-.08-.34-.18,0c-.22.71-.83,1.21-1.29.27A4.52,4.52,0,0,1,1.62,10c.11-.36.25-.91.25-.91.12-.41,0-.64-.2-.13a10.39,10.39,0,0,0-.78,4.29,2.2,2.2,0,0,0,.36,1.06A9.35,9.35,0,0,0,0,17.65C-.1,19,.09,20.55,2,20.73c.45,0,1.49-.06,2.62-1.67A25.87,25.87,0,0,1,7.24,16.2c.48-.43,2.62-2.16,4.33-.66a4.93,4.93,0,0,0,1.13.85l-.13.22c-.19.4-.19.65-.1.72s.28-.14.5-.55l.12-.21a7.1,7.1,0,0,0,3.63.12,25,25,0,0,0,7.53-2.43,2.15,2.15,0,0,0,2.2,2.2,2.44,2.44,0,0,0,2.32-2.58C29,12.78,27.45,2.88,27.45,2.88ZM14,15.49l-.25-.05a17.36,17.36,0,0,1,2.79-3.58c.5-.41,2-1.29,4.15.65.38.37,0,.62-.17.79A9.33,9.33,0,0,1,14,15.49Z"/><path class="cls-2" d="M30.31.07l-.45,1.1c0,.06.12.49.14.65.19,1.41,1.34,9.75,1.67,12.38.17,1.3.29,2.47.31,3.09,0,.2.07.27.16.08a4,4,0,0,0,.31-1.59A22.12,22.12,0,0,0,32.2,12c0-.25-1.24-9-1.24-9s.65.61.75.72.23.05.17-.12S30.5.24,30.45.13,30.37-.06,30.31.07Z"/></g></g></g></svg>