<svg xmlns="http://www.w3.org/2000/svg" viewBox="0 0 32.63 19.89"><defs><style>.cls-1{isolation:isolate;}.cls-2{fill-rule:evenodd;mix-blend-mode:darken;}</style></defs><g class="cls-1"><g id="Layer_2" data-name="Layer 2"><g id="سور_الٌقرآن_الكريم" data-name="سور الٌقرآن الكريم"><path class="cls-2" d="M24.61,16.19a4.19,4.19,0,0,0-.68,2.08c0,.24.13.71.53.75.2,0,.48-.09.71-.65,0-.13.07-.23.09-.28s0-.18-.11,0c-.18.34-.59.55-.84.06,0-.1-.2-.54.23-1.45.09-.18.2-.44.2-.44C24.84,16.06,24.75,16,24.61,16.19Z"/><path class="cls-2" d="M2.6,15.83c-.18.09-2,.8-2.24.91s-.25.13-.28.26,0,.21-.06.23-.06.19.22,0c.08-.05,2-.77,2.14-.86s.25-.12.31-.26a2.59,2.59,0,0,0,.12-.25C2.84,15.79,2.88,15.69,2.6,15.83Z"/><path class="cls-2" d="M12,15.67a5.33,5.33,0,0,0-.79,2.42c0,.28.12.83.53.88.21,0,.5-.1.77-.75,0-.15.08-.27.1-.33s0-.2-.12,0c-.19.4-.63.64-.88.06a2.3,2.3,0,0,1,.29-1.68c.1-.21.23-.51.23-.51C12.28,15.53,12.19,15.39,12,15.67Z"/><path class="cls-2" d="M9.54,10l-.63.87a.06.06,0,0,0,0,.08l1.08.79a.06.06,0,0,0,.08,0l.63-.86a.06.06,0,0,0,0-.09L9.63,10A.07.07,0,0,0,9.54,10Z"/><path class="cls-2" d="M23.5,7.64a2.3,2.3,0,0,0,0-1.78c-.07-.16-.53-.69-1.25.17-.27.32-.55,1.15-.24,1.43a4.13,4.13,0,0,0,.76.54,22.28,22.28,0,0,1-5.1,3.66c-.25.11-.22.24-.08.22a11.48,11.48,0,0,0,2.88-1.2,11.78,11.78,0,0,0,2.67-2.49s.35.37.39.44.15.28.23.13A.85.85,0,0,0,23.5,7.64Zm-.33-.26L22.56,7c-.19-.11-.28-.24-.17-.36.36-.39.51-.36.62-.28A1.2,1.2,0,0,1,23.17,7.38Z"/><path class="cls-2" d="M19.43,5.58c-.21.13-6.46,3-6.68,3.1s-.31.19-.34.36-.05.28-.06.31-.07.26.26,0c.11-.07,6.39-2.92,6.58-3s.29-.17.37-.35.09-.22.13-.34S19.77,5.38,19.43,5.58Z"/><path class="cls-2" d="M3.8,5l-.55.74L2.21,5a.07.07,0,0,0-.09,0l-.63.86A.07.07,0,0,0,1.5,6l1.08.78a.06.06,0,0,0,.08,0L3.21,6l1,.76a.07.07,0,0,0,.09,0L5,5.87a.06.06,0,0,0,0-.08L3.88,5A.05.05,0,0,0,3.8,5Z"/><path class="cls-2" d="M28.84,5.06a6.18,6.18,0,0,0-.39,2.71c0,.29.25.86.66.85.22,0,.48-.19.64-.93,0-.16,0-.3.05-.36s-.06-.21-.12,0c-.13.46-.52.79-.86.21a2.69,2.69,0,0,1,0-1.84c.06-.23.14-.58.14-.58C29.05,4.87,28.94,4.74,28.84,5.06Z"/><path class="cls-2" d="M17.45,2.64c-.27.13-8.94,4.08-9.21,4.24s-.37.19-.43.39l-.09.35c-.06.13-.11.3.3.07.13-.07,8.84-4.05,9.07-4.18s.36-.17.46-.38.13-.24.19-.38S17.86,2.43,17.45,2.64Z"/><path class="cls-2" d="M3.23.72a4.42,4.42,0,0,0-.45,2.07c0,.22.16.67.51.68.17,0,.4-.13.56-.69,0-.12,0-.22.06-.27s0-.17-.1,0c-.12.35-.46.58-.71.13a1.92,1.92,0,0,1,.1-1.41L3.34.79C3.41.59,3.33.48,3.23.72Z"/><path class="cls-2" d="M21.66.65a4.37,4.37,0,0,0-.45,2.06c0,.23.16.67.51.68.17,0,.4-.13.56-.68l.06-.28c0-.07,0-.16-.09,0-.13.34-.47.58-.72.12a1.91,1.91,0,0,1,.1-1.41c.06-.17.14-.44.14-.44C21.84.52,21.76.41,21.66.65Z"/><path class="cls-2" d="M9.91.39A4.86,4.86,0,0,0,9.23,3.1a4.43,4.43,0,0,0-2-2.43c-.11-.06-.32,0-.34.38s-.07.66.07.8a5.55,5.55,0,0,0,.6.43c.07,0,.14,0,.16,0S7.88,2,8,2.11A4,4,0,0,1,9.19,4.05c.07.16.22.18.26-.06.08-.57.13-1.57.17-1.87s.27-1.31.81-.85a3.24,3.24,0,0,1,.25.24c.12.14.26.31.33.14a1.26,1.26,0,0,0,.07-.89C11,.66,10.37-.19,9.91.39Z"/><path class="cls-2" d="M30.86.22c-.05.13-.47,1.08-.47,1.08s.11.48.13.64c.15,1.39,1.09,9.6,1.36,12.2.13,1.28.23,2.43.23,3,0,.19.07.27.16.09a4.17,4.17,0,0,0,.34-1.56A21.42,21.42,0,0,0,32.44,12c0-.25-1-8.83-1-8.83s.63.61.73.73.22,0,.17-.13S31,.4,31,.29,30.92.1,30.86.22Z"/><path class="cls-2" d="M29.53,12c-.91-.43-2.33-.34-3-2.36-.27-.8-1.1-7-1.1-7l.73.73c.1.1.22,0,.17-.12S25.12.25,25.08.13,25-.06,25,.07l-.5,1a7.16,7.16,0,0,1,.16.79c.05.45.09,1.09.18,1.78.06.48.64,4.8.75,5.39,0,.18.1.57.22,1a1.59,1.59,0,0,0-.53.08A3.88,3.88,0,0,0,23.4,12.9a2.31,2.31,0,0,0,.2,2c-.26.06-.54.13-.85.18-.69.07-5.55.6-7.82-2-.23-.26-.26-.33-.35-.08a2.24,2.24,0,0,0-.06.33,4.39,4.39,0,0,0-.85,0c-.69,0-1.91,0-4,1.7-.73.59-3.29,3-3.7,3.33-.56.44-1.75.85-2.43.15-.31-.3-.68-1.65.64-3.77a.38.38,0,0,0,0-.26,2.56,2.56,0,0,0,1.14-1.27,1.84,1.84,0,0,0-.08-1.77,6.82,6.82,0,0,0-1.45-1.11s.89-1.24,1-1.39a9.14,9.14,0,0,0,.46-1.34c0-.23,0-.35-.12-.14S3.21,9.91,3.21,9.91L2,9l.6-.16c.09,0,.14-.14,0-.22S.85,8,.74,7.9s-.16-.1-.17,0,0,1.13,0,1.13,0,.07.11.14A2.37,2.37,0,0,1,1,9.53c.11.11,1.52,1.24,1.59,1.28A6.77,6.77,0,0,0,1.81,13c-.09,1,0,2.32,1.35,1.88a3.57,3.57,0,0,0,.54-.2c-.05.07-.11.14-.17.24-.68,1.08-1.69,4.59,1.1,4.93.57.07,1.54.08,3.49-2.12a14.75,14.75,0,0,1,2.67-2.25,6.12,6.12,0,0,1,2.67-.89,2.43,2.43,0,0,1,.68,0,3.11,3.11,0,0,0,.69,2.53c1.31,1.12,1.61.43,1.68.16a4.34,4.34,0,0,0,.19-1.4h0a10.62,10.62,0,0,0,7.83-.33,3.66,3.66,0,0,0,.71.25A9,9,0,0,0,29,15.56a1.29,1.29,0,0,0,1.14-1.12C30.41,13.5,30.43,12.48,29.53,12ZM3,13.65c-.29,0-1.07-.11-.73-.91.11-.26.89-1.58.89-1.58.29.16,2.16,1.11,1.66,1.51A5.89,5.89,0,0,1,3,13.65Zm22,.73-.25-.11c-.4-.22-1.21-.56-.7-1.55.81-1.54,1.69-1.79,2.14-.85.19.39.44,1,.26,1.28A3.14,3.14,0,0,1,25,14.38Zm4.57-.24a11.42,11.42,0,0,1-3.27.48,4.41,4.41,0,0,0,.79-2.25,2.23,2.23,0,0,0,.63.39c.59.22,1.27.51,1.55.65S30.05,14,29.56,14.14Z"/></g></g></g></svg>