<svg xmlns="http://www.w3.org/2000/svg" viewBox="0 0 33.53 22.67"><defs><style>.cls-1{isolation:isolate;}.cls-2{fill-rule:evenodd;mix-blend-mode:darken;}</style></defs><g class="cls-1"><g id="Layer_2" data-name="Layer 2"><g id="سور_الٌقرآن_الكريم" data-name="سور الٌقرآن الكريم"><path class="cls-2" d="M21,20.27c-.19.14-3.51,1.42-3.72,1.58s-.27.2-.29.37,0,.27,0,.3,0,.25.26,0c.09-.08,3.45-1.38,3.62-1.52s.27-.18.32-.36a1.7,1.7,0,0,0,.1-.34C21.3,20.19,21.33,20.05,21,20.27Z"/><path class="cls-2" d="M13.45,18.79l-.52.72-1-.73a.06.06,0,0,0-.08,0l-.6.84a.06.06,0,0,0,0,.08l1,.75a.06.06,0,0,0,.08,0l.52-.72,1,.73a.06.06,0,0,0,.08,0l.6-.84a.05.05,0,0,0,0-.08l-1-.75A.06.06,0,0,0,13.45,18.79Z"/><path class="cls-2" d="M18.47,18.59l-.61.83a.06.06,0,0,0,0,.08l1,.75a.06.06,0,0,0,.08,0l.6-.84a.05.05,0,0,0,0-.08l-1-.75A.06.06,0,0,0,18.47,18.59Z"/><path class="cls-2" d="M4.86,18.83l-.16.22c0,.06,0,.16.1,0s.67-.33.74.19c0,.09,0,.53-.63,1.22l-.31.33c-.14.15-.1.28.09.11A4.2,4.2,0,0,0,5.9,19.26c.08-.21.1-.67-.23-.82C5.5,18.37,5.23,18.39,4.86,18.83Z"/><path class="cls-2" d="M4.39,16.6C4.19,16.75.87,18,.67,18.19s-.28.2-.3.37,0,.26,0,.29-.05.26.25,0C.68,18.8,4,17.49,4.21,17.36s.27-.19.33-.37.07-.21.1-.33S4.7,16.39,4.39,16.6Z"/><path class="cls-2" d="M26,13.77A4.54,4.54,0,0,0,25.47,16c0,.25.19.74.58.75.21,0,.47-.14.65-.75a2.78,2.78,0,0,0,.07-.31c0-.08-.05-.18-.11,0-.15.38-.53.64-.83.14a2,2,0,0,1,.11-1.54c.08-.2.17-.48.17-.48C26.19,13.62,26.09,13.5,26,13.77Z"/><path class="cls-2" d="M1.6,12.73C1,13.22-.49,14.63.17,15.3c.38.3.55.46.55.46a.84.84,0,0,0-.44.45c-.11.22-.12.26-.18.39s-.09.29.22.11a7.16,7.16,0,0,1,2.94-1.27c.27-.06.51-.5.51-.5.11-.18.33-.61,0-.4A4,4,0,0,1,1.89,15,2.24,2.24,0,0,1,.8,14.31c-.12-.19-.1-.39.26-.6s.74-.34,1,.11c.05.08.11.07.23,0s.34-.44.4-.53a.32.32,0,0,0,0-.36A.73.73,0,0,0,1.6,12.73Z"/><path class="cls-2" d="M9.8,11.58a4.72,4.72,0,0,0-.41,2.6A4.29,4.29,0,0,0,7.46,12c-.09-.05-.28.07-.27.39s0,.63.11.75a4.75,4.75,0,0,0,.57.37c.07,0,.13,0,.15,0s.08-.26.2-.14a3.92,3.92,0,0,1,1.19,1.76c.07.15.21.16.22-.06,0-.55,0-1.5,0-1.79s.15-1.25.66-.86c.11.09.24.22.24.22s.25.27.3.11a1.24,1.24,0,0,0,0-.85C10.82,11.76,10.17,11,9.8,11.58Z"/><path class="cls-2" d="M21.38,11l-.6.84a.06.06,0,0,0,0,.08l1,.75a.06.06,0,0,0,.08,0l.6-.83a.06.06,0,0,0,0-.08l-1-.75A.06.06,0,0,0,21.38,11Z"/><path class="cls-2" d="M13.9,8.85a8.93,8.93,0,0,0-.39,3.45c0,.37.28,1.09.74,1.08.23,0,.52-.24.68-1.18,0-.21,0-.37.05-.46s-.06-.27-.12,0c-.14.58-.56,1-.94.26a3.82,3.82,0,0,1,0-2.34c.07-.3.14-.74.14-.74C14.13,8.61,14,8.44,13.9,8.85Z"/><path class="cls-2" d="M.94,8a4.71,4.71,0,0,0-.46,2.16c0,.24.18.7.54.71.18,0,.42-.14.59-.72,0-.13,0-.24.06-.29s0-.17-.1,0c-.14.36-.49.61-.75.13a1.92,1.92,0,0,1,.1-1.48C1,8.29,1.06,8,1.06,8,1.14,7.8,1.05,7.69.94,8Z"/><path class="cls-2" d="M18.42,6.64A4.73,4.73,0,0,0,18,8.81c0,.23.18.7.54.71.19,0,.42-.14.59-.72,0-.13.05-.24.06-.29s0-.17-.1,0c-.13.35-.48.61-.75.13a2,2,0,0,1,.1-1.48c.07-.19.15-.46.15-.46C18.61,6.5,18.52,6.39,18.42,6.64Z"/><path class="cls-2" d="M18,4C17.7,4.15,6.83,9.1,6.55,9.28s-.38.21-.43.42a2.63,2.63,0,0,1-.09.37c0,.14-.09.32.32.06.13-.08,11.06-5.06,11.29-5.21s.37-.19.47-.41.12-.26.17-.41S18.39,3.76,18,4Z"/><path class="cls-2" d="M25.68,4a4.67,4.67,0,0,0-.3,2.12c0,.23.22.66.57.65.18,0,.4-.16.52-.74,0-.13,0-.23,0-.28s-.05-.16-.1,0c-.1.36-.43.62-.71.18a1.87,1.87,0,0,1,0-1.43c0-.18.11-.45.11-.45C25.86,3.82,25.76,3.72,25.68,4Z"/><path class="cls-2" d="M.63,3.62A4.71,4.71,0,0,0,.17,5.78c0,.24.17.7.53.71.19,0,.43-.13.6-.72,0-.13,0-.24.06-.29s0-.17-.1,0c-.14.36-.49.61-.76.13A2,2,0,0,1,.6,4.14c.07-.18.15-.46.15-.46C.82,3.48.74,3.36.63,3.62Z"/><path class="cls-2" d="M3.65,3.11c0,.1-.32.89-.32.89a38.68,38.68,0,0,1,.81,5.44c.06.84.35,4.23.41,4.76s.09,4.33,4.76,4.19a13.36,13.36,0,0,0,5.82-2c.06.25.22,1.9,1.94,1.58a2,2,0,0,0,1.39-1.41,2.62,2.62,0,0,0,1.81,1.23c1.05.07,2.23,0,2.72-.66a2.37,2.37,0,0,0,.37-1.75,4.42,4.42,0,0,0-.78-1.54c-.17-.22-.23-.12-.27,0s-.28.83-.18.94a4.65,4.65,0,0,1,.68,1,.42.42,0,0,1-.26.51c-.29.11-2.13.81-3.21-.2a2.74,2.74,0,0,1-.71-1.47,13.91,13.91,0,0,0-1-3.21c-.08-.12-.38.92-.38.92a27.7,27.7,0,0,1,.82,3.66c0,.1,0,.18-.19.31S16.13,17.76,15.6,16a5.33,5.33,0,0,0,.13-.65c0-.13,0-.32-.19-.23s-3.87,2.52-7,2.09A3.68,3.68,0,0,1,5.12,13.6C5,13,4.65,8.15,4.54,7.33a23.85,23.85,0,0,0-.71-4.22C3.76,2.93,3.69,3,3.65,3.11Z"/><path class="cls-2" d="M9.21,2.66a4.81,4.81,0,0,0-.42,2.6A4.19,4.19,0,0,0,6.87,3.08c-.1-.05-.28.07-.27.39s0,.63.11.75a4.07,4.07,0,0,0,.57.37c.06,0,.13,0,.14,0s.08-.26.21-.14A3.92,3.92,0,0,1,8.82,6.16c.07.15.21.16.22-.06,0-.55,0-1.5,0-1.79s.15-1.25.66-.86a2.8,2.8,0,0,1,.25.22c.11.12.25.27.3.11a1.24,1.24,0,0,0,0-.85C10.23,2.84,9.58,2.08,9.21,2.66Z"/><path class="cls-2" d="M28.72,2.5,28.2,3.59c0,.3.67,4.57,1.05,8a29.17,29.17,0,0,1,.45,4,2.11,2.11,0,0,1-.31.66,4.52,4.52,0,0,0-.45-2.39c-.71-1.58-4.89-4.7-6.31-6.81,0,0,.07,0,.07,0l.62.16c.15,0,.36,0,.22-.1s-2.1-1.47-2.3-1.62S21,5.24,21,5.4s0,1,0,1.14,0,.18.13.25A5.29,5.29,0,0,1,22,7.86,39.8,39.8,0,0,0,26,12c.32.28,3,2.39,3.08,4.41a1,1,0,0,1,0,.31c-.8,1-2.5,2.4-5.86,3.64-.45.21-.27.35,0,.31s4.46-.45,6.24-3.21A6.35,6.35,0,0,0,30.17,13c-.09-.71-.92-7.78-.92-7.78s.59.57.69.68.21,0,.16-.11-1.22-3.14-1.25-3.25S28.77,2.38,28.72,2.5Z"/><path class="cls-2" d="M31.79,2.41c-.06.12-.38.93-.38.93.07.54.65,5.59.68,6s1.09,7.08.67,9.74c0,.18.05.25.14.08s1.14-1.93.32-6.81c0-.36-.9-7.1-.9-7.1l.69.7c.09.11.21.06.16-.11S32,2.58,31.92,2.48,31.84,2.29,31.79,2.41Z"/><path class="cls-2" d="M21.57,2.36c-.54.23-1.1,1-.92,1.36a2.24,2.24,0,0,0,.5.54c-.18.08-.37.13-.42.3a1.92,1.92,0,0,0-.09.34c0,.06,0,.11.08.09l.15,0a13.09,13.09,0,0,1,2.2-.79,1.86,1.86,0,0,0,.11-.38c0-.13-.11-.12-.33-.09s-1,.24-1.42-.14-.38-.45-.25-.52.5-.29.72,0,.22.17.27.07.25-.37.21-.48A.56.56,0,0,0,21.57,2.36Z"/><path class="cls-2" d="M14.94,1.31a4.53,4.53,0,0,0-.3,2.12c0,.22.22.66.56.65.18,0,.4-.16.53-.74,0-.13,0-.23,0-.28s0-.16-.09,0c-.11.36-.43.62-.72.18a1.9,1.9,0,0,1,0-1.43c.05-.18.11-.45.11-.45C15.11,1.16,15,1.06,14.94,1.31Z"/><path class="cls-2" d="M23.92.07c-.25.1-4.12,1.4-4.39,1.52s-.35.14-.42.32L19,2.22c-.06.12-.12.26.27.09.12-.05,4-1.37,4.26-1.47s.35-.13.46-.31a2.88,2.88,0,0,0,.2-.34C24.25.06,24.32-.09,23.92.07Z"/></g></g></g></svg>