<svg xmlns="http://www.w3.org/2000/svg" viewBox="0 0 29.17 23.42"><defs><style>.cls-1{isolation:isolate;}.cls-2{fill-rule:evenodd;mix-blend-mode:darken;}</style></defs><g class="cls-1"><g id="Layer_2" data-name="Layer 2"><g id="سور_الٌقرآن_الكريم" data-name="سور الٌقرآن الكريم"><path class="cls-2" d="M10.69,20.91c-.27.09-4.21,1.52-4.51,1.64s-.35.18-.41.38l-.09.33c0,.13-.12.24.29.07.2-.09,4.1-1.45,4.38-1.58a.72.72,0,0,0,.45-.36c.09-.2.12-.23.17-.37S11.1,20.78,10.69,20.91Z"/><path class="cls-2" d="M14.82,20.8l-.62.84L13,20.79a.07.07,0,0,0-.1,0l-.71,1a.07.07,0,0,0,0,.09l1.21.89a.07.07,0,0,0,.09,0l.61-.84,1.18.86a.07.07,0,0,0,.09,0l.71-1a.06.06,0,0,0,0-.09l-1.21-.88A.06.06,0,0,0,14.82,20.8Z"/><path class="cls-2" d="M23.66,19.61c-.27.09-4.78,1.6-5.08,1.72s-.36.18-.41.37l-.09.34c-.06.13-.13.23.29.07.2-.09,4.66-1.54,4.95-1.66a.72.72,0,0,0,.44-.37,4,4,0,0,0,.18-.37C24,19.57,24.06,19.48,23.66,19.61Z"/><path class="cls-2" d="M25.6,18.84l-.18.27c0,.07,0,.19.11,0,.27-.31.72-.42.8.16,0,.11,0,.61-.67,1.44-.14.16-.32.4-.32.4-.16.18-.11.33.09.11a5,5,0,0,0,1.3-2c.07-.25.09-.77-.26-.92C26.28,18.28,26,18.32,25.6,18.84Z"/><path class="cls-2" d="M5.8,15a4.94,4.94,0,0,0-.5,2.32c0,.25.18.75.57.77.2,0,.45-.15.64-.78,0-.14,0-.25.06-.3s0-.19-.11,0c-.14.39-.52.66-.81.14a2.19,2.19,0,0,1,.12-1.58c.07-.2.16-.5.16-.5C6,14.88,5.91,14.76,5.8,15Z"/><path class="cls-2" d="M5.86,11.56l-.71,1a.07.07,0,0,0,0,.1l1.21.88a.07.07,0,0,0,.09,0l.71-1a.07.07,0,0,0,0-.1L6,11.54A.07.07,0,0,0,5.86,11.56Z"/><path class="cls-2" d="M19.17,11l-.71,1a.08.08,0,0,0,0,.1l1.21.88a.07.07,0,0,0,.09,0l.61-.84,1.18.86a.07.07,0,0,0,.09,0l.71-1a.08.08,0,0,0,0-.1L21.15,11a.07.07,0,0,0-.09,0l-.62.84L19.27,11A.08.08,0,0,0,19.17,11Z"/><path class="cls-2" d="M19.65,5.66a1,1,0,0,0,0,.77c.12.3.43,1,.48,1.08a.18.18,0,0,1-.11.28.76.76,0,0,1-1.09-.59A8.28,8.28,0,0,0,18.66,6c-.07-.14-.14-.16-.2,0a2.39,2.39,0,0,0-.09.48.16.16,0,0,0,0,.13s.34,1,.2,1.23-.84.72-1.21.24a4,4,0,0,1-.06-1.39c0-.2-.07-.27-.15-.11A.71.71,0,0,0,17,7c0,.14,0,.76,0,1s0,.83.38,1,.92,0,1.33-.77a.92.92,0,0,0,1.06.37,1.1,1.1,0,0,0,.54-.87,1.56,1.56,0,0,0-.19-1,3.85,3.85,0,0,1-.32-.85C19.78,5.59,19.73,5.39,19.65,5.66Z"/><path class="cls-2" d="M11.71,1.14a13.24,13.24,0,0,0-1.2,5c0,.56.23,1.67.91,1.74.35,0,.83-.27,1.23-1.62.08-.31.13-.55.16-.67s-.05-.41-.19,0c-.31.83-1,1.38-1.45.22a5.69,5.69,0,0,1,.41-3.47c.15-.42.35-1.06.35-1.06C12.09.83,11.94.55,11.71,1.14Z"/><path class="cls-2" d="M6,.82a5.41,5.41,0,0,0-.56,3.09A5,5,0,0,0,3.08,1.32c-.12-.05-.35.09-.35.46,0,.22,0,.75.14.89a5.37,5.37,0,0,0,.71.44c.08,0,.16,0,.18-.06s.11-.31.26-.17a4.62,4.62,0,0,1,1.27,1.6c.43.81-.58,2.23-.55,3.73,0,.35.18,1,.65,1.06.24,0,.56-.17.82-1,0-.19.08-.34.1-.41s0-.25-.13,0c-.2.51-.68.84-1,.14A3,3,0,0,1,5.43,5.9a10.82,10.82,0,0,0,.41-3.12c0-.49.2-1.49.84-1A3.54,3.54,0,0,1,7,2c.14.15.31.32.38.13a1.47,1.47,0,0,0,0-1C7.31,1,6.5.14,6,.82Z"/><path class="cls-2" d="M18.63.62a5.39,5.39,0,0,0-.6,2.9,4.73,4.73,0,0,0-2-2.57c-.11-.06-.31.06-.32.42,0,.2-.05.7.08.84a3.57,3.57,0,0,0,.6.45c.06,0,.13,0,.15,0s.1-.29.23-.15A4.53,4.53,0,0,1,18,4.53c.07.17.22.19.25-.06.07-.62.09-1.69.13-2s.24-1.4.77-.92c.12.11.25.26.25.26s.26.32.32.14A1.49,1.49,0,0,0,19.78,1C19.72.88,19.06,0,18.63.62Z"/><path class="cls-2" d="M22.9.07c0,.15-.53,1.18-.53,1.18a4.86,4.86,0,0,1,.2.87c.07.46,1.8,12.53,1.83,12.82a9.93,9.93,0,0,1,0,1.79,2.35,2.35,0,0,1-2.71.18,1.77,1.77,0,0,1-.78-1.3c0-.25,0-.28,0-.43s0-.31-.17-.13-.94,1.85-2.21,2.33a2.15,2.15,0,0,1-2.76-.78,10.44,10.44,0,0,1-.84-3.55,3.66,3.66,0,0,0-.6-2,.21.21,0,0,0-.36,0,2.91,2.91,0,0,0-.35.8c-.06.2-.32,2.28-2.29,1.53,0,0-.6-1-.68-1.11s-.12-.21-.18,0-.21,1-.21,1c.17.34,1.49,2.49.83,3.51-.22.3-3.58,3.29-7.09,3A3.22,3.22,0,0,1,.58,16.72a6.51,6.51,0,0,1,.54-2.6,1.36,1.36,0,0,0,0-.17h0c.35,0,.82-.3,1.17-1.67.06-.31.1-.56.13-.68s-.07-.41-.19,0c-.28.84-1,1.41-1.44.28a5.65,5.65,0,0,1,.28-3.48c.13-.44.3-1.08.3-1.08.15-.48,0-.76-.22-.16a13.28,13.28,0,0,0-1,5.07,2.2,2.2,0,0,0,.67,1.6l0,0c-.21.41-2.17,4.74.6,6.77.31.23,2,1.52,5,.46,1-.37,4.07-1.69,4.89-3.31a5.33,5.33,0,0,0,.43-2.68s1.69-.05,2.11-2.27c0-.16,0-.54.23-.11a8.58,8.58,0,0,1,.49,2.65c0,.59.26,3.71,2.94,3.67a3.41,3.41,0,0,0,2.69-2,2.67,2.67,0,0,0,3.19,1.57c.43-.1,1.92-.83,1.75-3.56,0-.64-1.58-11.71-1.58-11.71s.61.56.73.69.25.05.18-.14S23.11.27,23.06.14,23-.07,22.9.07Z"/><path class="cls-2" d="M26.79.07l-.5,1.23c0,.06.13.53.16.71.2,1.56,1.48,10.77,1.85,13.68.18,1.44.32,2.73.34,3.42,0,.22.07.29.17.09a4.26,4.26,0,0,0,.34-1.76,24.12,24.12,0,0,0-.27-4.18c0-.27-1.37-9.9-1.37-9.9s.72.67.83.8.26,0,.19-.14S27,.27,27,.14,26.85-.07,26.79.07Z"/></g></g></g></svg>