<svg xmlns="http://www.w3.org/2000/svg" viewBox="0 0 31.76 20.21"><defs><style>.cls-1{isolation:isolate;}.cls-2{fill-rule:evenodd;mix-blend-mode:darken;}</style></defs><g class="cls-1"><g id="Layer_2" data-name="Layer 2"><g id="سور_الٌقرآن_الكريم" data-name="سور الٌقرآن الكريم"><path class="cls-2" d="M10.35,17.87C10.11,18,7,19.24,6.76,19.38s-.33.17-.38.35a2.77,2.77,0,0,1-.09.32c0,.12-.09.27.28.06.11-.06,3.26-1.34,3.46-1.46s.32-.15.41-.34a2.12,2.12,0,0,0,.17-.34C10.66,17.83,10.72,17.68,10.35,17.87Z"/><path class="cls-2" d="M27.92,17.22l-.16.25c0,.07,0,.18.1,0,.25-.3.67-.42.76.13A2,2,0,0,1,28,19l-.3.39c-.14.17-.09.31.09.1A4.56,4.56,0,0,0,29,17.59c.06-.23.07-.73-.27-.86C28.55,16.67,28.27,16.72,27.92,17.22Z"/><path class="cls-2" d="M5.48,9.44A5.7,5.7,0,0,0,5,12.3c0,.31.3.91.82.9.27,0,.6-.22.8-1,0-.18,0-.32.07-.39s-.07-.22-.15,0c-.17.48-.65.84-1.07.23a2.42,2.42,0,0,1,0-1.94c.09-.25.19-.61.19-.61C5.75,9.24,5.61,9.1,5.48,9.44Z"/><path class="cls-2" d="M20,7.62a1,1,0,0,0,0,.72c.11.28.4.93.45,1s.06.19-.1.26a.72.72,0,0,1-1-.55,6.29,6.29,0,0,0-.21-1.14c-.07-.13-.13-.15-.18,0a2.36,2.36,0,0,0-.1.45.25.25,0,0,0,0,.12s.32.92.19,1.16-.79.67-1.13.22a3.67,3.67,0,0,1-.06-1.3c0-.19-.06-.25-.14-.1a.68.68,0,0,0-.12.39c0,.13,0,.72,0,.9s0,.78.35.95.86,0,1.25-.72a.87.87,0,0,0,1,.35,1.05,1.05,0,0,0,.51-.82,1.43,1.43,0,0,0-.18-1,3.52,3.52,0,0,1-.3-.81C20.16,7.55,20.12,7.37,20,7.62Z"/><path class="cls-2" d="M10.06,7.54l-.66.91a.06.06,0,0,0,0,.09l1.14.83a.06.06,0,0,0,.08,0l.67-.92a.06.06,0,0,0,0-.09l-1.14-.82A.06.06,0,0,0,10.06,7.54Z"/><path class="cls-2" d="M1,6.12a11.65,11.65,0,0,0-.9,4.41C.15,11,.38,12,1,12c.3,0,.7-.26,1-1.45L2.1,10c0-.16-.05-.36-.16,0-.25.73-.84,1.22-1.24.23a5.05,5.05,0,0,1,.26-3c.12-.37.27-.93.27-.93C1.37,5.84,1.23,5.6,1,6.12Z"/><path class="cls-2" d="M24.15,5.75a5.7,5.7,0,0,0-.52,2.86c0,.31.31.91.82.89.27,0,.6-.21.8-1,0-.18.05-.32.07-.39s-.07-.22-.15,0c-.16.48-.65.83-1.07.23a2.45,2.45,0,0,1,0-1.94c.08-.25.18-.61.18-.61C24.42,5.55,24.28,5.41,24.15,5.75Z"/><path class="cls-2" d="M10.84,3.55a1,1,0,0,0,0,.72c.11.28.4.93.45,1s.06.19-.1.26a.72.72,0,0,1-1-.55,6.29,6.29,0,0,0-.21-1.14c-.07-.13-.13-.15-.19,0a3.18,3.18,0,0,0-.09.45.13.13,0,0,0,0,.12s.32.92.19,1.16-.79.67-1.13.22a3.67,3.67,0,0,1-.06-1.3c0-.19-.06-.25-.14-.1a.68.68,0,0,0-.12.39c0,.13,0,.72,0,.9s0,.78.35,1,.86,0,1.25-.72a.87.87,0,0,0,1,.35,1.05,1.05,0,0,0,.51-.82,1.43,1.43,0,0,0-.18-1,3.52,3.52,0,0,1-.3-.81C11,3.48,10.92,3.3,10.84,3.55Z"/><path class="cls-2" d="M24.14,1.85C23.86,2,14.23,7.25,14,7.41s-.36.21-.4.42-.07.32-.08.36-.1.28.31.05c.13-.07,9.83-5.34,10-5.48s.36-.2.44-.42.12-.25.17-.4S24.55,1.64,24.14,1.85Z"/><path class="cls-2" d="M5.49.71a5.27,5.27,0,0,0-.74,3A4.9,4.9,0,0,0,2.6,1c-.11-.06-.35.06-.37.43,0,.21-.07.73.08.88A5.54,5.54,0,0,0,3,2.8c.07,0,.15,0,.17,0s.13-.29.27-.15a4.32,4.32,0,0,1,1.2,1.86c.21.88-1.95,2.65-2.06,2.73s-.14.24,0,.19a10,10,0,0,0,1.3-.8A2.42,2.42,0,0,0,5,4.79s0-.06,0-.09c.09-.64.14-1.75.19-2.08s.29-1.45.88-.94a2.92,2.92,0,0,1,.28.26c.12.16.28.35.36.16a1.49,1.49,0,0,0,.08-1C6.71,1,6,.07,5.49.71Z"/><path class="cls-2" d="M16.39.49a5.06,5.06,0,0,0-.71,2.85A4.62,4.62,0,0,0,13.61.78c-.11-.06-.34,0-.36.4s-.07.7.08.84a4,4,0,0,0,.63.45c.08,0,.15,0,.17,0s.12-.28.26-.14a4.48,4.48,0,0,1,1.25,2.05c.07.17.23.19.27-.06.08-.6.13-1.66.18-2s.28-1.38.85-.9c.13.11.27.26.27.26.12.15.27.32.34.15a1.27,1.27,0,0,0,.08-.95C17.58.77,16.87-.12,16.39.49Z"/><path class="cls-2" d="M26.94,3.15a5.82,5.82,0,0,1,.57.41c.11.11.24,0,.17-.13S26.46.25,26.41.14s-.09-.2-.13-.07-.44,1.12-.44,1.12a3.58,3.58,0,0,1,.23.81c.06.47.06,1.13.17,1.86,0,0,.8,5.65.84,6.05s.55,3.32.55,3.71.25.94-1.56,1.54c.1-.3.56-1.62.35-2.07a2.88,2.88,0,0,0-3.69-1.49c-.4.15-1.85.52-4.33,4.39a2.77,2.77,0,0,1-1.67-1.66c0-.32,0-.91-.3-.57s-.62,1.7-1.68,2.22c-.25.15-2.25.75-3.08-.74a2.77,2.77,0,0,0,1.07-2.44c-.12-2.08-1.51-2.58-2-2a4.07,4.07,0,0,0-.95,2.72,11.13,11.13,0,0,0,.45,1.33c-.38.26-4.6,2.49-8,1.34C1.9,16-.19,15.3.84,12.26c.08-.19-.11-.48-.29-.08S-1.17,16,1.87,17.45c.37.18,2.92,1.36,8.92-1.59.36.52,1.6,2.25,3.61,1.57a2.91,2.91,0,0,0,1.79-1.79,4.37,4.37,0,0,0,1.65,1.49c-.1.23-.36.83-.44,1s0,.21.11.11l.72-.92a5.69,5.69,0,0,0,2.34.26,28.51,28.51,0,0,0,5.94-1.3c.41-.2,1.5-.74,1.72-2.85C28.3,12.64,26.94,3.15,26.94,3.15ZM11,14.38s-.5-1-.58-1.2a1,1,0,0,1,.3-1.11c.73-.66,1.43,1.06,1.48,1.21s0,.19-.1.28A12.58,12.58,0,0,1,11,14.38Zm14.55.19A11.43,11.43,0,0,1,19,16.12s1.71-2.79,3.56-3.43a2.85,2.85,0,0,1,3,1.34C25.86,14.38,25.71,14.47,25.58,14.57Z"/><path class="cls-2" d="M29.59.07c-.06.13-.38,1-.38,1,.08.59.86,6.88.91,7.3s1.08,6.87,1.14,8.83c0,.2.07.28.17.09s.72-1.51,0-6.32c-.06-.4-1.14-7.85-1.14-7.85s.67.63.78.75.24.05.18-.13S29.78.25,29.73.13,29.65-.07,29.59.07Z"/></g></g></g></svg>