<svg xmlns="http://www.w3.org/2000/svg" viewBox="0 0 35.42 19.57"><defs><style>.cls-1{isolation:isolate;}.cls-2{fill-rule:evenodd;mix-blend-mode:darken;}</style></defs><g class="cls-1"><g id="Layer_2" data-name="Layer 2"><g id="سور_الٌقرآن_الكريم" data-name="سور الٌقرآن الكريم"><path class="cls-2" d="M32.23,18c-.19.09-2.14.79-2.33.9s-.25.13-.29.27-.06.22-.07.24-.07.21.21,0c.09,0,2.07-.77,2.23-.86s.25-.12.32-.26.09-.17.13-.27S32.51,17.88,32.23,18Z"/><path class="cls-2" d="M18.93,17.29l-.13.23c0,.06,0,.15.08,0s.59-.37.67.11c0,.09,0,.5-.52,1.2-.11.13-.26.34-.26.34s-.08.27.08.09a4.13,4.13,0,0,0,1-1.66c.06-.21.06-.64-.23-.75S19.24,16.85,18.93,17.29Z"/><path class="cls-2" d="M31,16.1c-.35.28-1.18,1.09-.81,1.46l.31.26a.51.51,0,0,0-.24.26c-.07.13-.07.15-.11.22s-.05.17.13.07a4,4,0,0,1,1.67-.73c.15,0,.29-.28.29-.28s.19-.35,0-.23a2.31,2.31,0,0,1-1,.25,1.22,1.22,0,0,1-.62-.38c-.06-.1-.06-.22.15-.34s.42-.19.57.06c0,.05.07.05.13,0a2.42,2.42,0,0,0,.23-.3.16.16,0,0,0,0-.2A.42.42,0,0,0,31,16.1Z"/><path class="cls-2" d="M11.34,15.83c-.21.11-3.94,1.58-4.16,1.7s-.29.15-.33.31-.07.25-.08.28-.08.24.24.05c.1-.05,3.87-1.54,4.05-1.65s.28-.14.36-.3.1-.19.15-.3S11.67,15.67,11.34,15.83Z"/><path class="cls-2" d="M27.43,10.77a4.34,4.34,0,0,0-.44,2c0,.22.16.66.49.67.17,0,.4-.13.56-.67,0-.12,0-.22.05-.27s0-.16-.09,0c-.13.33-.46.56-.7.12a1.84,1.84,0,0,1,.1-1.38c.06-.17.14-.43.14-.43C27.6,10.64,27.52,10.54,27.43,10.77Z"/><path class="cls-2" d="M15.2,9.86a4.22,4.22,0,0,0-.44,2c0,.22.16.66.49.67.17,0,.4-.13.56-.67,0-.12,0-.22,0-.27s0-.16-.09,0c-.13.33-.46.56-.7.12a1.84,1.84,0,0,1,.1-1.38c.06-.17.14-.43.14-.43C15.37,9.73,15.29,9.63,15.2,9.86Z"/><path class="cls-2" d="M18.61,7.76a7.15,7.15,0,0,0-.42,3.06c0,.33.27,1,.73,1,.23,0,.53-.22.69-1,0-.18.05-.33.06-.41s-.07-.24-.13,0c-.14.51-.57.89-.94.23a3.05,3.05,0,0,1,0-2.07c.07-.26.15-.65.15-.65C18.85,7.55,18.73,7.4,18.61,7.76Z"/><path class="cls-2" d="M5.41,11.14,4.82,12a0,0,0,0,0,0,.07l1,.73a.06.06,0,0,0,.08,0l.59-.81a0,0,0,0,0,0-.07l-1-.73A.06.06,0,0,0,5.41,11.14Z"/><path class="cls-2" d="M4.73,6.58a4.44,4.44,0,0,0-.44,2c0,.22.17.65.5.66.17,0,.4-.12.56-.66,0-.13,0-.23.05-.27s0-.16-.09,0c-.13.34-.46.57-.7.12a1.81,1.81,0,0,1,.1-1.37c.06-.17.14-.43.14-.43C4.91,6.45,4.83,6.34,4.73,6.58Z"/><path class="cls-2" d="M22.22,6.05l-.58.81a.05.05,0,0,0,0,.08l1,.73s.06,0,.07,0l.59-.8a.05.05,0,0,0,0-.08L22.3,6A.06.06,0,0,0,22.22,6.05Z"/><path class="cls-2" d="M.67,5.91a9.3,9.3,0,0,0-.49,3.8,1.92,1.92,0,0,0,.4,1c-.3.66-1.8,5.08,1.66,6.13.79.24,2.86.7,6.62-2.11.36-.26,1.89-1.56,1.63-3.15C10.43,11.31,9.42,9,9.42,9l.47.17c.09,0,.23,0,.1-.22S9,7.74,9,7.67s-.06-.12-.09-.21-.08-.08-.12,0-.25.83-.27.9a7.86,7.86,0,0,0,.29,1.07,20.59,20.59,0,0,0,1.07,2.33c.1.21.35.62.13.93a11.51,11.51,0,0,1-5.3,2.92c-.49.13-2.56.59-3.69-1-.18-.25-1-1.47-.2-3.79a.49.49,0,0,0,.27.06c.28,0,.62-.27.82-1.3,0-.23,0-.41.06-.51s-.08-.29-.15,0c-.17.63-.67,1.1-1.11.28a3.9,3.9,0,0,1,0-2.58C.76,6.5.86,6,.86,6,1,5.65.8,5.46.67,5.91Z"/><path class="cls-2" d="M21.47,3.77c-.24.12-7.06,3.66-7.3,3.8s-.32.19-.36.37l-.07.32c0,.12-.08.25.28,0,.11-.06,7-3.61,7.18-3.73s.31-.18.39-.37a3.13,3.13,0,0,0,.14-.35C21.78,3.71,21.83,3.58,21.47,3.77Z"/><path class="cls-2" d="M28.75,4.43a4.34,4.34,0,0,0-.44,2c0,.23.16.66.49.67.18,0,.4-.13.56-.67,0-.12,0-.22.05-.27s0-.16-.09,0c-.13.33-.46.56-.7.12a1.84,1.84,0,0,1,.1-1.38c.06-.17.14-.42.14-.42C28.93,4.3,28.84,4.2,28.75,4.43Z"/><path class="cls-2" d="M8,1.32a8.68,8.68,0,0,0-.46,3.55c0,.38.31,1.12.81,1.11.26,0,.58-.25.76-1.21,0-.22,0-.39.06-.47s-.07-.28-.14,0c-.15.59-.62,1-1,.27a3.86,3.86,0,0,1,0-2.41c.07-.3.16-.76.16-.76C8.29,1.08,8.16.91,8,1.32Z"/><path class="cls-2" d="M4.59.94A4.44,4.44,0,0,0,4,3.45,4.16,4.16,0,0,0,2.14,1.19c-.1-.05-.3.05-.32.36s-.06.61.07.74a6.39,6.39,0,0,0,.56.4c.06,0,.13,0,.15,0s.1-.25.23-.12a3.84,3.84,0,0,1,1.1,1.8c.06.16.2.17.23,0,.08-.53.13-1.46.17-1.74s.25-1.21.75-.79L5.31,2c.11.14.24.29.31.14a1.27,1.27,0,0,0,.07-.83C5.64,1.18,5,.4,4.59.94Z"/><path class="cls-2" d="M16.05.8a4.48,4.48,0,0,0-.63,2.52,4.07,4.07,0,0,0-1.83-2.26c-.09-.06-.29.05-.31.35s-.06.62.06.74a3.37,3.37,0,0,0,.57.4c.06,0,.13,0,.15,0s.1-.25.22-.13a3.9,3.9,0,0,1,1.1,1.81c.06.15.21.17.24,0,.08-.54.12-1.47.16-1.75s.25-1.21.75-.78a2.12,2.12,0,0,1,.24.22c.1.13.24.29.3.13a1.15,1.15,0,0,0,.07-.83C17.09,1.05,16.47.26,16.05.8Z"/><path class="cls-2" d="M19.31.66a4.23,4.23,0,0,0-.44,2c0,.22.16.65.49.66.17,0,.4-.13.56-.67,0-.12,0-.22,0-.27s0-.16-.09,0c-.13.33-.45.57-.7.12a1.84,1.84,0,0,1,.1-1.38l.14-.42C19.49.53,19.4.43,19.31.66Z"/><path class="cls-2" d="M30.36.35l-.46.94a4.47,4.47,0,0,1,.17.69l.28,1.75s1.32,8.38,1.07,9.1a3.64,3.64,0,0,1-.49.92,3.89,3.89,0,0,0-.59-3.15,29.17,29.17,0,0,0-3-3,30.3,30.3,0,0,1-2.61-2.75C24.4,4.39,24,3.75,24,3.75c.27.11.59.2.76.27s.39,0,.13-.23S22.65,2.07,22.5,1.9s-.17-.15-.19,0,0,.81,0,1a.38.38,0,0,0,.14.36,1.23,1.23,0,0,1,.35.34,36,36,0,0,0,3.49,4.29c.21.21,3.13,2.42,4.16,4.5a2.83,2.83,0,0,1,.29,1.43,1.3,1.3,0,0,0,0,.24c-.82,1-2.44,2.22-5.63,3.42-.29.13-.38.4.22.24s4.62-.33,6.13-3.64c.3-.65,1-1.83.42-4.8C31.67,8.06,31,3,31,3s.62.54.72.64.22.05.16-.11S30.53.5,30.49.41,30.41.24,30.36.35Z"/><path class="cls-2" d="M33.45.35c0,.11-.41,1-.41,1s.11.42.13.56c.17,1.21,1.22,8.39,1.53,10.65.15,1.12.26,2.12.28,2.66,0,.17.06.23.14.07a3.11,3.11,0,0,0,.28-1.37,16.58,16.58,0,0,0-.22-3.25c0-.22-1.13-7.71-1.13-7.71s.65.74.74.83.22,0,.16-.11S33.62.5,33.58.4,33.5.24,33.45.35Z"/><path class="cls-2" d="M11,.3a2.33,2.33,0,0,0-.34,1.06c.74,3.05,1.3,11.24,1.4,11.83s.46,3.24,2.69,3.13a2.85,2.85,0,0,0,2.14-1.19,1.44,1.44,0,0,0,2,.75,2.89,2.89,0,0,0,1.21-.94,1.18,1.18,0,0,0,1.33.81,1.56,1.56,0,0,0,1.14-1.18,2.1,2.1,0,0,0,2.08.62c.22,0,.79-.35.88-1.54a2.9,2.9,0,0,0-.38-1.8l-1-1.82.64.19c.12,0,.2,0,.11-.14s-1.44-1.55-1.5-1.61-.08,0-.09,0-.17.62-.2.75a.36.36,0,0,0,0,.34,2.79,2.79,0,0,1,.29.44c0,.1.77,1.92,1,2.29a7,7,0,0,1,.6,1.39c0,.08,0,.21-.23.28a2,2,0,0,1-1.89-.72c.09-.47-.11-.43-.21-.22a4.91,4.91,0,0,1-.61,1.24A.9.9,0,0,1,20.55,14c.11-.3.16-.45.2-.54s.05-.42-.18-.13-.79,1.21-1.38,1.43a1.21,1.21,0,0,1-1.72-.47c.05-.11.13-.5.16-.61s0-.38-.26-.12-1.1,1.54-2.36,1.58a2,2,0,0,1-2-1.33,12.61,12.61,0,0,1-.45-2.67c0-.34-.56-8.46-1.21-10.65C11.18,0,11.15.11,11,.3Z"/><path class="cls-2" d="M27.45.17a4.17,4.17,0,0,0-.59,2.35A3.77,3.77,0,0,0,25.16.41c-.09,0-.28.05-.29.33s-.06.58.06.69a4.68,4.68,0,0,0,.52.38c.06,0,.12,0,.14,0s.1-.23.21-.11a3.48,3.48,0,0,1,1,1.68c.05.14.19.15.22,0,.07-.5.11-1.36.15-1.62s.23-1.13.7-.74l.22.21c.1.13.22.27.28.12a1.09,1.09,0,0,0,.07-.77C28.42.4,27.84-.33,27.45.17Z"/></g></g></g></svg>