<svg xmlns="http://www.w3.org/2000/svg" viewBox="0 0 32.33 22.68"><defs><style>.cls-1{isolation:isolate;}.cls-2{fill-rule:evenodd;mix-blend-mode:darken;}</style></defs><g class="cls-1"><g id="Layer_2" data-name="Layer 2"><g id="سور_الٌقرآن_الكريم" data-name="سور الٌقرآن الكريم"><path class="cls-2" d="M29.85,20.87C29.64,21,27,21.93,26.78,22s-.3.11-.35.26l-.1.26c0,.1-.11.2.22.08.11,0,2.79-1,3-1.11s.29-.11.38-.26l.17-.28C30.12,20.86,30.19,20.73,29.85,20.87Z"/><path class="cls-2" d="M27.9,18.72c-.39.31-1.3,1.19-.89,1.6l.34.29a.55.55,0,0,0-.27.29,1.45,1.45,0,0,0-.11.24c0,.08-.06.18.13.07a4.59,4.59,0,0,1,1.85-.8c.16,0,.31-.31.31-.31s.21-.38,0-.25a2.56,2.56,0,0,1-1.15.27,1.48,1.48,0,0,1-.69-.41c-.07-.12-.06-.25.16-.38s.47-.21.64.07c0,.05.07.05.14,0a2.21,2.21,0,0,0,.25-.33.18.18,0,0,0,0-.22A.45.45,0,0,0,27.9,18.72Z"/><path class="cls-2" d="M9.52,19c-.08.11-.13.2-.17.24s0,.17.11,0,.72-.36.84.18c0,.1,0,.57-.62,1.31-.13.14-.31.36-.31.36-.15.16-.09.3.1.11a4.16,4.16,0,0,0,1.23-1.79.73.73,0,0,0-.31-.87C10.19,18.5,9.89,18.53,9.52,19Z"/><path class="cls-2" d="M19.85,17.15a1.6,1.6,0,0,0-.13.58c0,.11.05.46.05.46a.83.83,0,0,1-1,0,2.73,2.73,0,0,0,.1-.41c.05-.16-.05-.29-.14-.11a4.42,4.42,0,0,1-.41.88c-.14.13-.31.61-1.39.12a.78.78,0,0,0-1,.2,7.32,7.32,0,0,1-3.28,1.64c-.15.07-.49.32-.09.28a4.24,4.24,0,0,0,3-1c.19-.19.41-.67,1.12-.39.4.15,1.14.78,1.94-.46.47.31,1.18.18,1.3-.16a3.86,3.86,0,0,0,.24-.93c0-.23,0-.54,0-.54C20,17.13,20,16.86,19.85,17.15Z"/><path class="cls-2" d="M3.62,14.29C3.39,14.41.81,15.87.56,16s-.29.22-.31.4,0,.28,0,.31-.07.23.27,0c.17-.11,2.72-1.5,3-1.66a.62.62,0,0,0,.34-.39,2,2,0,0,0,.1-.36C3.91,14.2,4,14.11,3.62,14.29Z"/><path class="cls-2" d="M23.9,13.56a4.16,4.16,0,0,0-.34,2.14c0,.23.26.67.66.65.21,0,.46-.18.6-.76,0-.13,0-.24,0-.29s-.06-.16-.11,0c-.12.36-.49.64-.83.2a1.76,1.76,0,0,1,0-1.45c.06-.18.13-.46.13-.46C24.1,13.4,24,13.3,23.9,13.56Z"/><path class="cls-2" d="M21.16,12.28c0,.06-.36.87-.36.87.11.31.6,1.18.26,1.3s-1.51.29-1.85-.75a4.13,4.13,0,0,1,.23-.55c.07-.17,0-.47-.25-.19s-.83,2-2.14,2.13a2.37,2.37,0,0,1-2-.81c-.37-.33-2-1-4.33.88-.19.15-2.84,2.76-3.31,3.2s-2.32,2.22-3.27.9c-.21-.29-.8-2,1.48-4.84.17-.23-.07-.45-.55.22s-3,4.1-.63,5.75c.41.29,1.53.93,3.47-1.1.47-.49,2.52-2.88,4.21-3.65a2.53,2.53,0,0,1,3,.31A1.81,1.81,0,0,0,18,15.89a8.49,8.49,0,0,0,.77-1.12,1.45,1.45,0,0,0,1.11,1,1.43,1.43,0,0,0,1.59-.68,3.24,3.24,0,0,0-.09-2.8C21.26,12.05,21.19,12.23,21.16,12.28Z"/><path class="cls-2" d="M1.58,10.12C1,10.61-.49,12,.16,12.66l.55.46a.83.83,0,0,0-.43.45c-.11.21-.12.26-.18.38s-.08.29.21.12A7.31,7.31,0,0,1,3.23,12.8c.27-.05.5-.49.5-.49.11-.18.34-.61,0-.4a3.92,3.92,0,0,1-1.81.43,2.12,2.12,0,0,1-1.09-.66c-.11-.18-.1-.38.26-.59s.73-.34,1,.11c.05.08.11.07.22,0a5.1,5.1,0,0,0,.41-.52.3.3,0,0,0,0-.36A.72.72,0,0,0,1.58,10.12Z"/><path class="cls-2" d="M12.12,9.91a4.19,4.19,0,0,0-.34,2.15c0,.23.25.66.66.64.2,0,.46-.18.6-.76,0-.13,0-.24,0-.29s-.06-.16-.11,0c-.12.36-.49.64-.83.2-.06-.09-.29-.49,0-1.45.06-.18.13-.46.13-.46C12.32,9.75,12.21,9.65,12.12,9.91Z"/><path class="cls-2" d="M16,8.91a3.81,3.81,0,0,0-.56.8c-.15.23,0,.33.2.15a.79.79,0,0,1,.75-.34c.47,0,1.61,0,1.18.29s-.71.49-.71.49c-.27.2-.52.57,0,.36a3.36,3.36,0,0,0,1.62-1.27c.15-.22.32-.51-.35-.61S16.35,8.53,16,8.91Z"/><path class="cls-2" d="M16.34,5.12C16.11,5.25,9.47,8,8.82,8.49a1.9,1.9,0,0,0-.73,1c-.17.62-.06,1.25.35,1.34a.82.82,0,0,1,.5.34,0,0,0,0,0,.09,0A.75.75,0,0,0,8.59,10c-.22-.08-.3-.39.55-.86s6.68-3,6.85-3.06.37-.2.47-.42a4.19,4.19,0,0,0,.19-.41C16.71,5.07,16.76,4.89,16.34,5.12Z"/><path class="cls-2" d="M1.14,3.11A8.66,8.66,0,0,0,.68,6.62c0,.38.31,1.11.81,1.11.26,0,.58-.25.77-1.21,0-.21,0-.38.06-.47s-.08-.27-.14,0c-.16.58-.63,1-1,.26A3.62,3.62,0,0,1,1.15,4c.08-.3.17-.75.17-.75C1.4,2.87,1.27,2.69,1.14,3.11Z"/><path class="cls-2" d="M24.57,5.11a4.06,4.06,0,0,0-.34,2.14c0,.23.25.67.65.64.21,0,.47-.17.61-.75,0-.13,0-.24,0-.29s-.06-.16-.11,0c-.12.36-.49.64-.83.2-.06-.09-.29-.49,0-1.45.06-.18.13-.46.13-.46C24.77,5,24.66,4.85,24.57,5.11Z"/><path class="cls-2" d="M13.48,1.08a4.14,4.14,0,0,0-.34,2.14c0,.23.26.66.66.64.21,0,.46-.17.6-.76,0-.13,0-.23,0-.28s-.06-.17-.11,0c-.12.36-.49.64-.83.2a1.73,1.73,0,0,1,0-1.44c.06-.19.13-.46.13-.46C13.68.92,13.58.82,13.48,1.08Z"/><path class="cls-2" d="M10.28.78a5.77,5.77,0,0,0-.5,2.94,4.82,4.82,0,0,0-2-2.54c-.11-.06-.3.07-.3.43,0,.2,0,.71.1.85a4.65,4.65,0,0,0,.59.44c.06,0,.13,0,.15,0s.09-.29.22-.15a4.43,4.43,0,0,1,1.2,2c.07.18.21.19.24-.06.05-.62,0-1.7.07-2s.19-1.4.72-.94l.25.25c.11.15.25.32.31.14a1.51,1.51,0,0,0,0-1C11.34,1,10.68.14,10.28.78Z"/><path class="cls-2" d="M5.26.61l-.37,1c.09.56.84,6.66.89,7.08s1,6.57,1.06,8.48c0,.2,0,.24.16.08s.8-.72.07-5.39C7,11.48,5.91,3.6,5.91,3.6l.76.72c.1.12.23.06.17-.12S5.44.79,5.4.68,5.32.48,5.26.61Z"/><path class="cls-2" d="M26.2.46l-.44,1c0,.33,2,12.73,1.93,13.41l-.07.29a7.46,7.46,0,0,0-1.17-2.87c-1.33-2.17-5.92-5.93-7.34-8.17a.1.1,0,0,1,0,0l.67.16c.16,0,.38,0,.23-.12s-2.26-1.55-2.48-1.71-.3-.29-.3-.12,0,1.14,0,1.24a.27.27,0,0,0,.13.26,12.09,12.09,0,0,1,1,1.15c2.24,2.58,5,5.33,5.33,5.62s3.18,3,3.57,5.25a.13.13,0,0,1,0,.06c-.63,1.06-2.27,2.65-6.52,4.06-.48.24-.28.38.05.34S25.73,20,27.6,17c.84-1.44.87-2.74.54-5.18C28,11,26.8,3.41,26.8,3.41l.75.72c.1.11.23.06.17-.12S26.38.64,26.33.53,26.25.33,26.2.46Z"/><path class="cls-2" d="M30.09.41l-.37,1c.09.57.84,6.66.89,7.08s1.19,7.79,1.25,9.7c0,.2.07.27.16.08s.72-1.63-.12-6.6c0-.39-1.16-8.28-1.16-8.28l.76.73c.1.11.23,0,.17-.13S30.27.58,30.23.47,30.15.28,30.09.41Z"/><path class="cls-2" d="M23,.23a5.06,5.06,0,0,0-.6,2.94A4.82,4.82,0,0,0,20.13.65c-.11-.06-.34.07-.34.43,0,.21,0,.71.11.85a3.82,3.82,0,0,0,.67.43c.07,0,.15,0,.17,0s.11-.3.25-.16a4.47,4.47,0,0,1,1.37,2c.07.17.24.18.26-.07.07-.62.07-1.69.11-2s.23-1.41.82-1c.14.11.29.25.29.25.13.15.29.32.36.13a1.39,1.39,0,0,0,0-1C24.17.47,23.42-.41,23,.23Z"/></g></g></g></svg>