<svg xmlns="http://www.w3.org/2000/svg" viewBox="0 0 30.56 23.4"><defs><style>.cls-1{isolation:isolate;}.cls-2{fill-rule:evenodd;mix-blend-mode:darken;}</style></defs><g class="cls-1"><g id="Layer_2" data-name="Layer 2"><g id="سور_الٌقرآن_الكريم" data-name="سور الٌقرآن الكريم"><path class="cls-2" d="M12.08,21c-.24.12-4.22,1.48-4.47,1.62s-.33.17-.38.35-.08.29-.09.31-.09.27.27.07c.12-.07,4.15-1.45,4.35-1.57s.32-.16.42-.34a3.12,3.12,0,0,0,.16-.35C12.4,20.91,12.45,20.76,12.08,21Z"/><path class="cls-2" d="M19.18,19.34,19,19.6c-.05.06,0,.17.1,0s.66-.4.75.14c0,.1,0,.57-.61,1.35-.12.15-.29.39-.29.39-.14.17-.1.3.09.1a4.81,4.81,0,0,0,1.18-1.87c.06-.24.07-.73-.26-.86C19.81,18.81,19.54,18.85,19.18,19.34Z"/><path class="cls-2" d="M27.27,18.71c-.06.12-.1.22-.13.26s0,.18.1,0,.63-.46.76.07a2,2,0,0,1-.48,1.4c-.11.16-.26.41-.26.41-.13.18-.07.31.1.09a4.66,4.66,0,0,0,1-2c0-.23,0-.72-.34-.83C27.85,18.12,27.59,18.19,27.27,18.71Z"/><path class="cls-2" d="M7.24,13.31a5.65,5.65,0,0,0-.52,2.85c0,.31.3.9.82.89.26,0,.6-.21.8-1,0-.18.05-.32.06-.39s-.07-.22-.14,0c-.17.48-.65.83-1.07.23a2.43,2.43,0,0,1,0-1.93c.08-.25.17-.61.17-.61C7.5,13.11,7.37,13,7.24,13.31Z"/><path class="cls-2" d="M7.24,8.1a5,5,0,0,0-.71,2.84A4.63,4.63,0,0,0,4.46,8.39c-.11-.07-.33,0-.35.4s-.07.69.07.83a5.08,5.08,0,0,0,.64.46c.07,0,.14,0,.16,0s.12-.28.26-.14a4.27,4.27,0,0,1,1.25,2c.06.17.22.19.26-.06.09-.6.14-1.65.19-2s.28-1.37.84-.89c.13.11.27.25.27.25.12.15.27.32.35.15a1.29,1.29,0,0,0,.07-.94C8.42,8.38,7.72,7.49,7.24,8.1Z"/><path class="cls-2" d="M17.12,10.73a5,5,0,0,0-.71,2.84A4.63,4.63,0,0,0,14.35,11c-.11-.06-.34.06-.36.41,0,.2-.07.69.07.83a4.58,4.58,0,0,0,.64.45c.07,0,.15.05.17,0s.12-.28.25-.14a4.39,4.39,0,0,1,1.25,2c.07.18.23.19.27-.05.08-.61.13-1.66.18-2s.28-1.37.85-.89a2.13,2.13,0,0,1,.26.25c.12.15.28.32.35.15a1.35,1.35,0,0,0,.08-.94C18.3,11,17.6,10.12,17.12,10.73Z"/><path class="cls-2" d="M22.4,7.48l-.58.78-1.1-.8a.06.06,0,0,0-.08,0L20,8.39a.06.06,0,0,0,0,.08l1.14.83s.06,0,.09,0l.57-.78,1.1.8a.06.06,0,0,0,.08,0l.67-.91a.06.06,0,0,0,0-.08l-1.13-.83A.05.05,0,0,0,22.4,7.48Z"/><path class="cls-2" d="M23.8,2.75c-.23.12-10.26,4.35-10.93,4.83a2.11,2.11,0,0,0-.74,1.09c-.17.64,0,1.29.37,1.38a.81.81,0,0,1,.52.34s.08,0,.1,0a.78.78,0,0,0-.47-1.26c-.22-.08-.31-.4.56-.89S23.27,3.82,23.45,3.71s.38-.21.48-.43a4.15,4.15,0,0,0,.19-.43C24.18,2.69,24.24,2.51,23.8,2.75Z"/><path class="cls-2" d="M15.31,1.78A4.77,4.77,0,0,0,14.84,4c0,.24.17.7.53.72.19,0,.43-.14.6-.72L16,3.66c0-.08,0-.18-.1,0-.14.36-.49.61-.75.13a1.92,1.92,0,0,1,.1-1.48c.07-.18.15-.46.15-.46C15.51,1.64,15.42,1.53,15.31,1.78Z"/><path class="cls-2" d="M29,1.45c-.07.13-.52,1.12-.52,1.12s.1.51.12.67c.12,1.47.95,10.12,1.17,12.85.11,1.35.19,2.56.18,3.2,0,.2.06.28.16.09a4.3,4.3,0,0,0,.39-1.63,22.64,22.64,0,0,0-.09-3.91c0-.26-.88-9.29-.88-9.29l.75.77c.1.12.23.07.18-.12s-1.28-3.56-1.32-3.68S29.07,1.32,29,1.45Z"/><path class="cls-2" d="M27.16,12.53,26.1,4s.65.66.75.78.24.06.18-.12S25.9,1.49,25.86,1.38s-.08-.21-.14-.07-.55,1.08-.55,1.08a4.88,4.88,0,0,1,.16.81c.05.48.12,1.16.19,1.91s1,8.86,1,9.26,0,.59-.15.77a4,4,0,0,1-2.73.79,2.36,2.36,0,0,1-1.54-.82,4.22,4.22,0,0,0,1.39-1.7,3.13,3.13,0,0,0-.4-2.76c-.31-.43-.51-.69-1.14-.55s-1,.55-1.21,1.42a5.36,5.36,0,0,0,.09,3.12l-.14.07c-.38.22-4.28,2.06-6.91,1.11a3.82,3.82,0,0,1-2.76-3.46c-.09-.61-.55-6.62-.55-6.62s-.35-3.28-.38-3.49S10,1.8,9.84,2.17a4.19,4.19,0,0,0-.32,1.72c0,.49.59,8.2.6,8.79s.1,4.9.52,5.56a12.33,12.33,0,0,0-4.29,1.54c-.6.37-3.21,1.93-3.7,2.08s-1.4.41-2-.27c-.14-.16-.59-.76,0-2.32a8.86,8.86,0,0,1,1.59-2.41.31.31,0,0,0,.13-.24.66.66,0,0,0,.43.15c.33,0,.74-.32,1-1.53,0-.27.06-.49.07-.6s-.09-.35-.17,0c-.2.74-.8,1.29-1.33.34a4.75,4.75,0,0,1,0-3c.1-.38.21-1,.21-1,.11-.43-.06-.66-.21-.13a10.68,10.68,0,0,0-.59,4.47,2.25,2.25,0,0,0,.42,1.08.39.39,0,0,0-.2.14,11.71,11.71,0,0,0-1.4,1.93A6,6,0,0,0,0,20.81c-.11,1.27.58,2.75,2.27,2.48,1.34-.21,3.9-2.08,4.66-2.47s4.27-2.31,6.91-.13A5,5,0,0,0,14,19.16s-1.83-1.07-2.08-1.25-1.23-.83-1.22-3.12a4.65,4.65,0,0,0,4.42,2.72,12.29,12.29,0,0,0,6-1.67l.23-.14c.12.2.25.41.41.63s1.34,1.77,3.81.71a2.09,2.09,0,0,0,1.49-1.66A14.33,14.33,0,0,0,27.16,12.53Zm-5.55,1.65a4.7,4.7,0,0,1-.19-.63c-.19-.68-.37-1.38-.17-1.58s.48-.52.88-.44.45.38.65.79.35.62.23.74A10.57,10.57,0,0,1,21.61,14.18Z"/><path class="cls-2" d="M11,.12C10.79.24,1.49,4.4.82,4.89A2,2,0,0,0,.07,6c-.17.64,0,1.29.38,1.38A.8.8,0,0,1,1,7.7s.08,0,.09,0A.78.78,0,0,0,.59,6.42c-.22-.08-.3-.4.56-.89s9.35-4.34,9.52-4.45.39-.21.49-.43a3.73,3.73,0,0,0,.18-.43C11.4.06,11.46-.12,11,.12Z"/></g></g></g></svg>