<svg xmlns="http://www.w3.org/2000/svg" viewBox="0 0 36.81 16.91"><defs><style>.cls-1{isolation:isolate;}.cls-2{fill-rule:evenodd;mix-blend-mode:darken;}</style></defs><g class="cls-1"><g id="Layer_2" data-name="Layer 2"><g id="سور_الٌقرآن_الكريم" data-name="سور الٌقرآن الكريم"><path class="cls-2" d="M14.81,15.05l-.55.75a0,0,0,0,0,0,.07l.93.68a0,0,0,0,0,.07,0l.55-.75a0,0,0,0,0,0-.07L14.88,15A0,0,0,0,0,14.81,15.05Z"/><path class="cls-2" d="M18.78,14.8l-.15.19s0,.14.08,0,.58-.28.6.17c0,.09,0,.47-.59,1.06l-.28.29c-.12.13-.1.25.07.09a3.86,3.86,0,0,0,1.11-1.44c.07-.18.12-.58-.15-.72S19.11,14.42,18.78,14.8Z"/><path class="cls-2" d="M5.28,14.51c-.23.1-2.86,1.45-3.1,1.57s-.28.17-.32.33a2.42,2.42,0,0,1-.06.28c0,.11-.06.21.25,0l3-1.51c.19-.1.28-.16.35-.33a3.05,3.05,0,0,0,.13-.31C5.56,14.46,5.62,14.36,5.28,14.51Z"/><path class="cls-2" d="M28.82,14.76l-.15.19c0,.05,0,.14.08,0s.58-.28.61.17a1.75,1.75,0,0,1-.6,1.06l-.28.29c-.12.13-.1.24.07.09a3.76,3.76,0,0,0,1.11-1.44c.07-.18.12-.59-.14-.72S29.15,14.38,28.82,14.76Z"/><path class="cls-2" d="M34.18,14.08l-.15.19c0,.06,0,.15.08,0s.58-.28.6.17c0,.09,0,.47-.59,1.07l-.28.28c-.12.13-.1.25.07.1A3.93,3.93,0,0,0,35,14.47c.07-.18.12-.58-.15-.72S34.51,13.71,34.18,14.08Z"/><path class="cls-2" d="M3.56,8.71,3,9.45a.08.08,0,0,0,0,.08L4,10.2a0,0,0,0,0,.07,0l.47-.64.91.65a0,0,0,0,0,.07,0L6,9.44a0,0,0,0,0,0-.07l-.93-.68a.05.05,0,0,0-.07,0l-.47.64-.9-.66S3.57,8.68,3.56,8.71Z"/><path class="cls-2" d="M7,4.4a4.21,4.21,0,0,0-.37,2.1c0,.22.22.66.59.65.2,0,.44-.16.59-.73l0-.28c0-.07,0-.16-.11,0-.12.35-.48.61-.78.16,0-.08-.26-.49,0-1.42.06-.18.13-.44.13-.44C7.18,4.25,7.08,4.15,7,4.4Z"/><path class="cls-2" d="M12,5.77a1.8,1.8,0,0,0-.19-1.39c-.07-.12-.47-.49-.94.24-.19.29-.33,1-.06,1.15a3.12,3.12,0,0,0,.64.34A7.65,7.65,0,0,1,8.69,8.32c-.19.11-.15.21,0,.18a5.43,5.43,0,0,0,2.14-1,3.71,3.71,0,0,0,1-1.25,3.92,3.92,0,0,1,.35.31c.09.1.14.19.19.07A.66.66,0,0,0,12,5.77Zm-.27-.18-.52-.24c-.16-.06-.23-.16-.17-.26.25-.34.37-.33.46-.27A1,1,0,0,1,11.74,5.59Z"/><path class="cls-2" d="M5.62.84a4.3,4.3,0,0,0-.49,2.48A4.12,4.12,0,0,0,3.27,1.19c-.1,0-.28.07-.29.37s0,.6.1.71a3.52,3.52,0,0,0,.55.37c.07,0,.13,0,.15,0s.09-.25.21-.13A3.46,3.46,0,0,1,5,3.94c.2.72-1.5,2.24-1.59,2.31s-.1.2,0,.16a8.68,8.68,0,0,0,1-.7A1.94,1.94,0,0,0,5.33,4.2a.19.19,0,0,0,0-.07c.05-.53.05-1.44.08-1.71s.19-1.2.69-.8l.23.2c.11.13.25.27.3.12a1.09,1.09,0,0,0,0-.81C6.63,1,6,.3,5.62.84Z"/><path class="cls-2" d="M9.21.69a4.2,4.2,0,0,0-.38,2.1c0,.23.22.66.6.65.19,0,.44-.15.58-.72,0-.13,0-.23.05-.28s-.05-.17-.1,0c-.13.35-.48.61-.79.17-.05-.09-.26-.49,0-1.42L9.34.75C9.4.55,9.31.45,9.21.69Z"/><path class="cls-2" d="M17,.26c-.24.1-4.7,2.24-4.94,2.36s-.28.17-.32.33a2.42,2.42,0,0,1-.06.28c0,.11-.06.21.25,0L16.71,1c.18-.1.28-.16.35-.33a2.3,2.3,0,0,0,.12-.31C17.22.2,17.28.1,17,.26Z"/><path class="cls-2" d="M24.13,8.5l-.54.75a0,0,0,0,0,0,.07l.93.68a.05.05,0,0,0,.07,0l.54-.74a.05.05,0,0,0,0-.08l-.93-.67A0,0,0,0,0,24.13,8.5Z"/><path class="cls-2" d="M30,5.59a4.61,4.61,0,0,0-.43,2.35c0,.25.25.74.67.73.22,0,.49-.18.66-.81,0-.15,0-.26.05-.32s-.06-.18-.12,0c-.13.39-.53.68-.87.19a1.94,1.94,0,0,1,0-1.6c.07-.2.15-.5.15-.5C30.24,5.43,30.13,5.31,30,5.59Z"/><path class="cls-2" d="M18.9,4.62a3.89,3.89,0,0,0-.38,1.78c0,.19.14.58.43.59s.36-.11.5-.59a2.28,2.28,0,0,0,0-.24c0-.07,0-.14-.08,0-.11.3-.4.5-.62.11a1.69,1.69,0,0,1,.09-1.22L19,4.67C19.06,4.5,19,4.41,18.9,4.62Z"/><path class="cls-2" d="M31.12,3.34l-9.32,4c-.25.11-.33.16-.39.33l-.09.31c-.05.12-.11.24.26.07.12,0,9-3.81,9.2-3.91s.32-.15.41-.32.12-.21.18-.34S31.49,3.19,31.12,3.34Z"/><path class="cls-2" d="M35,.16c0,.11-.31.85-.31.85.07.48.7,5.63.75,6s.93,6.17,1,7.78c0,.17.06.23.13.07s.59-1.23,0-5.17c0-.33-1-7-1-7l.64.61c.09.1.19,0,.14-.1S35.14.31,35.1.21,35,.05,35,.16Z"/><path class="cls-2" d="M34.09,10.39c0-.49-1.29-7.65-1.29-7.65l.64.61c.09.1.2,0,.15-.11S32.41.37,32.38.28,32.3.11,32.26.22s-.36.88-.36.88a3,3,0,0,1,.16.52c.31,1.95,1.52,9.8,1.55,10.05a.57.57,0,0,1-.24.63,2.58,2.58,0,0,1-2.53.33,2.42,2.42,0,0,1-.36-.27,14.42,14.42,0,0,0,1.63-1c.1-.19.38-.77.28-.88a5.79,5.79,0,0,0-5.16.24c-.08.06-.09.23-.11.3s-.1.44-.11.54,0,.16.09.11a1.27,1.27,0,0,1,.95-.17,4.33,4.33,0,0,1,1,.72l-.24.15c-.39.23-2.65,1.52-3.16-.29,0-.27,0-.56-.21-.33s-1,2-2.73,1.55c-.45-.11-1-.4-2.58-2.35a30.22,30.22,0,0,0-3.78-3.25c-.36-.28-2.54-1.88-2.65-2s-.41-.23-.09-.48a55.68,55.68,0,0,1,6-2.93,26.2,26.2,0,0,1,2.9-1c.5-.1,1.49-.16,1,.5S21.42,4.31,21.3,4.51a3.26,3.26,0,0,0-.41.84c-.05.21-.07.41.1.19s1.8-2.14,2-2.37a5.58,5.58,0,0,0,1-1.82c.12-.54.21-1.5-.92-1.19a36.69,36.69,0,0,0-9.42,4.1,1.74,1.74,0,0,0-.58,1.15c0,.31,0,.85.17,1.07S16.94,9.56,18,11.4c.15.23.12.28,0,.39a2.3,2.3,0,0,1-2.35.61A1.59,1.59,0,0,1,15,11c.05-.27.13-.58-.19-.37a16.92,16.92,0,0,1-2.08,1.14,3.14,3.14,0,0,0-.55-.81c-.64-.6-1.19-.93-1.82-.19A1.36,1.36,0,0,0,10.74,13a2.87,2.87,0,0,0,1.44-.09c.14,0,.58-.13.38.21s-1.9,2.58-3.94,2.8c-.27,0-2.11,0-1.76-1.88,0-.21.1-.69.14-.92v-.07A3.84,3.84,0,0,0,8.49,12a1.91,1.91,0,0,0,.21-1.6A9.65,9.65,0,0,0,8,9.23c-.1-.15-.17-.16-.21,0s-.2.88-.2.88c.16.21.84,1.08.67,1.26S6.5,12.89,2.73,13.12c-.43,0-2.39,0-2.29-1.59a4.32,4.32,0,0,1,.39-1.35H.94c.27,0,.6-.25.8-1.25,0-.23.05-.4.06-.49s-.08-.29-.15,0C1.49,9.08,1,9.53.57,8.74a3.77,3.77,0,0,1,0-2.49c.08-.32.17-.78.17-.78C.84,5.12.7,4.93.58,5.36A8.94,8.94,0,0,0,.09,9,1.55,1.55,0,0,0,.63,10.1c-.22.38-1.26,2.2-.07,3.47.11.12,1.13,1.19,5.06,0a8.25,8.25,0,0,0,1.14-.4.5.5,0,0,0,0,.13c-.12.56-.73,2.81.68,3.47.23.11,2.17.72,5-2.25A3,3,0,0,0,13,13a2.45,2.45,0,0,0,0-.34,7.07,7.07,0,0,0,1.67-1c.13.39.22,2.1,2.29,1.85.23,0,1.74-.36,1.63-1.66a4.21,4.21,0,0,0-.39-1.52,8.07,8.07,0,0,1,2,1.88c.2.25,1.6,2.19,2.76,2.23A2.21,2.21,0,0,0,25.19,13a1.79,1.79,0,0,0,2.34,1,8.66,8.66,0,0,0,1.84-1l.31-.2a.68.68,0,0,0,.12.12,2.38,2.38,0,0,0,2.17.86,2.24,2.24,0,0,0,1.83-1.22A4.77,4.77,0,0,0,34.09,10.39ZM11,12.07c-.66-.1-.44-.43-.32-.55a.84.84,0,0,1,1.25.45A1.36,1.36,0,0,1,11,12.07Zm18-.94,0,0a2.93,2.93,0,0,1,1.81.09l-1,.57A7.91,7.91,0,0,0,29,11.13Z"/><path class="cls-2" d="M28.9.19a4,4,0,0,0-.46,2.32,3.79,3.79,0,0,0-1.77-2c-.09-.05-.27,0-.27.34s0,.56.09.67a3.74,3.74,0,0,0,.53.34c.06,0,.12,0,.13,0s.09-.23.2-.12a3.47,3.47,0,0,1,1.09,1.6c.06.13.19.14.21-.06.05-.49.05-1.34.08-1.6s.17-1.12.64-.75c.11.08.23.19.23.19s.23.25.28.11a1.06,1.06,0,0,0,0-.76C29.86.37,29.26-.32,28.9.19Z"/></g></g></g></svg>