<svg xmlns="http://www.w3.org/2000/svg" viewBox="0 0 34.53 21.51"><defs><style>.cls-1{isolation:isolate;}.cls-2{fill-rule:evenodd;mix-blend-mode:darken;}</style></defs><g class="cls-1"><g id="Layer_2" data-name="Layer 2"><g id="سور_الٌقرآن_الكريم" data-name="سور الٌقرآن الكريم"><path class="cls-2" d="M7.92,18.87c-.19.14-3.38,1.7-3.59,1.85s-.27.19-.3.35a2.3,2.3,0,0,1,0,.29c0,.11-.05.25.25,0,.09-.07,3.32-1.66,3.49-1.78s.27-.18.33-.35a3.43,3.43,0,0,0,.1-.33C8.2,18.8,8.23,18.67,7.92,18.87Z"/><path class="cls-2" d="M18.21,18.34a4.58,4.58,0,0,0-.46,2.12c0,.24.17.69.52.71.18,0,.42-.14.59-.71,0-.13,0-.24.06-.29s0-.17-.1,0c-.14.35-.48.6-.74.13a1.93,1.93,0,0,1,.1-1.46c.07-.18.15-.45.15-.45C18.4,18.2,18.31,18.09,18.21,18.34Z"/><path class="cls-2" d="M27,13.61a6,6,0,0,0-.36,2.56c0,.28.23.81.62.8.2,0,.44-.18.59-.87,0-.16,0-.28,0-.35s-.05-.2-.1,0c-.13.43-.49.74-.8.2a2.53,2.53,0,0,1,0-1.74c.06-.22.13-.55.13-.55C27.17,13.44,27.07,13.31,27,13.61Z"/><path class="cls-2" d="M12.58,14.23a4.84,4.84,0,0,0-.38,2.24c0,.24.22.71.58.71.19,0,.43-.16.58-.77,0-.14,0-.24.05-.3s-.05-.17-.11,0c-.12.38-.47.65-.76.17a2,2,0,0,1,0-1.52l.13-.48C12.77,14.08,12.68,14,12.58,14.23Z"/><path class="cls-2" d="M21,10l-.59.82a.05.05,0,0,0,0,.08l1,.74a0,0,0,0,0,.07,0l.6-.81a.06.06,0,0,0,0-.08l-1-.74A.05.05,0,0,0,21,10Z"/><path class="cls-2" d="M15.87,9.11a4.54,4.54,0,0,0-.51,2.22c0,.24.19.72.57.73.2,0,.46-.14.65-.73l.06-.3c0-.08,0-.18-.11,0-.14.36-.52.62-.81.13a1.94,1.94,0,0,1,.11-1.52c.08-.19.17-.47.17-.47C16.08,9,16,8.85,15.87,9.11Z"/><path class="cls-2" d="M18.27,8a3.18,3.18,0,0,0-.46.66c-.12.19,0,.27.16.13a.64.64,0,0,1,.62-.28c.39,0,1.32,0,1,.23s-.58.41-.58.41c-.23.16-.43.46,0,.29a2.77,2.77,0,0,0,1.33-1c.12-.18.26-.42-.29-.5S18.56,7.72,18.27,8Z"/><path class="cls-2" d="M4.5,7.65a5,5,0,0,0-.45,2.46c0,.27.26.77.7.76.23,0,.52-.18.69-.84,0-.15,0-.27.06-.33s-.06-.19-.12,0c-.15.41-.57.72-.92.2a2.05,2.05,0,0,1,0-1.67c.07-.21.16-.52.16-.52C4.73,7.48,4.61,7.36,4.5,7.65Z"/><path class="cls-2" d="M19.23,5.41c-.22.11-5.54,2.19-5.78,2.33s-.31.16-.36.33-.07.27-.08.3-.09.25.26.05c.1-.06,5.47-2.16,5.66-2.27s.31-.15.39-.32a3.11,3.11,0,0,0,.16-.33C19.53,5.37,19.58,5.23,19.23,5.41Z"/><path class="cls-2" d="M24.76,15c-.2-.37-.91-1.43-.91-1.43.35,0,.93,0,.66-.21S22.91,12,22.91,12s0-.06-.08.11-.14,1-.14,1a16.93,16.93,0,0,0,1.45,2.57c.24.37.51.73.31.95a4.17,4.17,0,0,1-3.3,1,3.13,3.13,0,0,1-1.61-1,24.7,24.7,0,0,1,2.24-1.12c.07-.14.39-1,.16-1.14a6.82,6.82,0,0,0-6.69.12.83.83,0,0,0-.2.41c-.06.17-.32,1,.09.77s1.15-.73,2.57.68A9.73,9.73,0,0,1,11.24,18a3.34,3.34,0,0,1-2.92-2.55c0-.14-.06-.37-.1-.67l2.68-1.33.2.42c0,.08.13,0,.16,0a1.59,1.59,0,0,0,.1-.62l1.73-.87a.5.5,0,0,0,.29-.38c.07-.16.25-.77.12-.9a5.7,5.7,0,0,0-2-1.48,1.23,1.23,0,0,0-1.32.49,1.67,1.67,0,0,0-.35,2c.15.24.32.49.32.49L8.11,13.63A85.93,85.93,0,0,0,7,3.8c-.13-.51-.42-1.31-.54-.9S6.12,4,6.12,4c.07.25.35,1.56.51,2.36.38,1.94.57,5.27.71,6.91,0,.25,0,.5.07.75A16.52,16.52,0,0,0,5.67,15.1,15.28,15.28,0,0,0,3.5,17.75a3.2,3.2,0,0,1-2.16,1.3c-.18,0-1.36,0-.79-2.55a6.59,6.59,0,0,1,.93-2.13h.05c.3,0,.67-.29.88-1.37,0-.25,0-.44.07-.54s-.09-.31-.16,0c-.18.67-.72,1.16-1.19.31a4.18,4.18,0,0,1,0-2.73c.09-.34.2-.85.2-.85.09-.39-.06-.59-.2-.12a9.76,9.76,0,0,0-.53,4,1.86,1.86,0,0,0,.55,1.14C.72,15-1.37,19,1.46,20c.43.12,1.32.38,2.69-1.51a9.89,9.89,0,0,1,3.17-3.26l.21-.11A5.11,5.11,0,0,0,9,18.52a5,5,0,0,0,3.88.86,15.48,15.48,0,0,0,5.69-2.15,4.12,4.12,0,0,0,3.23,1.66c.48,0,2.27-.27,3-1.47A2.77,2.77,0,0,0,24.76,15ZM10.61,10.8c.55-.25,1.55.54,1.62.61a.12.12,0,0,1,0,.19l-1.28.63s-.55-.64-.68-.85S10.07,11.05,10.61,10.8Zm8.14,5a5.69,5.69,0,0,0-1-.85,3.23,3.23,0,0,1,2.35.13S19.08,15.6,18.75,15.83Z"/><path class="cls-2" d="M3.05,3a4.48,4.48,0,0,0-.63,2.55A4.2,4.2,0,0,0,.56,3.23c-.1,0-.3,0-.32.37s-.06.62.07.75a4.77,4.77,0,0,0,.57.4c.06,0,.13,0,.15,0s.11-.26.23-.13A4,4,0,0,1,2.38,6.42c.06.16.2.17.24,0,.08-.54.12-1.48.16-1.77s.26-1.23.77-.8c.11.1.23.23.23.23s.25.29.31.13a1.18,1.18,0,0,0,.07-.84C4.11,3.23,3.49,2.43,3.05,3Z"/><path class="cls-2" d="M26,2.79a5.76,5.76,0,0,0-.37,2.56c0,.27.24.81.62.8.2,0,.45-.18.59-.88,0-.15,0-.28.05-.34s-.06-.2-.11,0c-.12.42-.48.74-.8.19a2.52,2.52,0,0,1,0-1.73c.06-.22.13-.55.13-.55C26.19,2.61,26.09,2.49,26,2.79Z"/><path class="cls-2" d="M14.66,2.59a4.65,4.65,0,0,0-.32,2.2c0,.24.22.69.58.68.19,0,.42-.16.55-.76,0-.14,0-.24,0-.3s0-.17-.1,0c-.11.37-.45.64-.75.18a2,2,0,0,1,0-1.49c.06-.19.12-.47.12-.47C14.84,2.44,14.74,2.33,14.66,2.59Z"/><path class="cls-2" d="M29,2.3l-.39,1c.05.31.77,4.69,1.24,8.13a32.42,32.42,0,0,1,.49,4.16,2.57,2.57,0,0,1-.21.64,6.07,6.07,0,0,0-.73-2.75c-1-2.15-5.45-4.84-6.8-6.93a.1.1,0,0,1,0,0l.73.23c.14,0,.35,0,.21-.11s-2.29-1.66-2.49-1.81-.28-.26-.28-.11.1,1.21.11,1.31a.24.24,0,0,0,.13.24A10.83,10.83,0,0,1,22,7.28a45,45,0,0,0,4.89,4.66c.32.27,2.92,2.45,3,4.5a2.07,2.07,0,0,1,0,.25c-.62,1-2,2.31-5.23,3.64-.44.23-.29.35,0,.3s4.06-.72,5.57-3.23a6.49,6.49,0,0,0,.61-4.49c-.1-.71-1.22-7.86-1.22-7.86l.7.67c.1.1.21,0,.16-.12S29.2,2.46,29.16,2.36,29.08,2.18,29,2.3Z"/><path class="cls-2" d="M32.54,2.25l-.42,1c0,.06.11.45.13.6.17,1.31,1.24,9,1.55,11.48.15,1.2.27,2.28.28,2.86,0,.18.07.25.15.08a4,4,0,0,0,.29-1.48,19.68,19.68,0,0,0-.24-3.5c0-.23-1.14-8.31-1.14-8.31s.6.57.69.67.22,0,.16-.12-1.28-3.14-1.32-3.24S32.59,2.13,32.54,2.25Z"/><path class="cls-2" d="M20.24,2.16c-.5.24-1,1-.8,1.32a2.18,2.18,0,0,0,.48.48c-.16.09-.33.14-.38.31a1.09,1.09,0,0,0-.06.32c0,.06,0,.11.08.08l.14,0a12.93,12.93,0,0,1,2-.84,1.37,1.37,0,0,0,.09-.36c0-.13-.11-.11-.31-.07s-1,.26-1.35-.07-.38-.41-.26-.48.46-.3.68,0,.21.15.26,0,.22-.36.17-.46A.53.53,0,0,0,20.24,2.16Z"/><path class="cls-2" d="M11.47,1.54A4.43,4.43,0,0,0,11,4.13,4.22,4.22,0,0,0,9,2c-.1-.05-.29.07-.29.38s0,.63.13.75a5,5,0,0,0,.59.36c.07,0,.14,0,.15-.05s.08-.25.22-.14a3.78,3.78,0,0,1,1.13,1.28,1.45,1.45,0,0,1-.28,1.65c-.24.34-1.25,1.21-1.49,1.57s.54-.14,1.47-1,.68-3.25.69-3.62.16-1.25.7-.86l.26.21c.11.13.26.27.31.11a1.11,1.11,0,0,0,0-.84C12.55,1.71,11.86,1,11.47,1.54Z"/><path class="cls-2" d="M21.81.1c-.23.12-4.11,2.05-4.35,2.2s-.34.18-.38.37S17,3,17,3s-.08.28.28.06c.11-.07,4-2,4.23-2.14s.33-.17.41-.36.11-.22.16-.35S22.18-.1,21.81.1Z"/></g></g></g></svg>