<svg xmlns="http://www.w3.org/2000/svg" viewBox="0 0 33.01 20.21"><defs><style>.cls-1{isolation:isolate;}.cls-2{fill-rule:evenodd;mix-blend-mode:darken;}</style></defs><g class="cls-1"><g id="Layer_2" data-name="Layer 2"><g id="سور_الٌقرآن_الكريم" data-name="سور الٌقرآن الكريم"><path class="cls-2" d="M7.17,17.36c-.23.11-4,1.57-4.28,1.7s-.32.17-.36.34l-.09.3c0,.11-.08.25.26.06.11-.06,4-1.54,4.16-1.65s.31-.15.4-.33a3.11,3.11,0,0,0,.16-.33C7.47,17.32,7.52,17.18,7.17,17.36Z"/><path class="cls-2" d="M23.12,15.51a5,5,0,0,0-.6,2.61,4.24,4.24,0,0,0-1.74-2.34c-.1-.06-.28.05-.3.36s-.06.64.06.77a3.49,3.49,0,0,0,.54.41c.06,0,.12.05.14,0s.1-.26.21-.13A4,4,0,0,1,22.49,19c.06.16.19.17.22-.05.08-.56.12-1.52.16-1.81s.23-1.25.71-.81c.11.1.23.23.23.23s.22.3.29.13a1.26,1.26,0,0,0,.06-.85C24.12,15.77,23.52,15,23.12,15.51Z"/><path class="cls-2" d="M29.21,14.66A5.25,5.25,0,0,0,28.7,17c0,.26.19.77.58.79.2,0,.46-.15.65-.79,0-.14.05-.26.07-.32s-.05-.18-.11,0c-.15.39-.54.67-.83.14a2.2,2.2,0,0,1,.12-1.61c.07-.2.16-.5.16-.5C29.42,14.51,29.33,14.39,29.21,14.66Z"/><path class="cls-2" d="M15.88,6.84a5,5,0,0,0-.52,2.36c0,.26.19.77.58.78.21,0,.47-.15.65-.79,0-.14.06-.26.07-.31s0-.19-.11,0c-.15.39-.53.66-.82.14a2.2,2.2,0,0,1,.11-1.62c.08-.2.17-.5.17-.5C16.09,6.69,16,6.56,15.88,6.84Z"/><path class="cls-2" d="M9.6.83a5.17,5.17,0,0,0-.51,2.36c0,.26.19.76.58.78.2,0,.46-.15.65-.79,0-.14,0-.26.07-.31s-.05-.19-.11,0c-.15.39-.54.67-.83.14A2.2,2.2,0,0,1,9.57,1.4c.07-.2.16-.5.16-.5C9.81.67,9.72.55,9.6.83Z"/><path class="cls-2" d="M6.56,6.16A10.25,10.25,0,0,0,6,10.43c0,.47.37,1.36,1,1.35.32,0,.71-.3.94-1.46,0-.26,0-.47.07-.57s-.09-.34-.17,0c-.19.72-.77,1.24-1.27.33a4.54,4.54,0,0,1,0-2.91c.09-.37.2-.91.2-.91C6.87,5.87,6.71,5.65,6.56,6.16Z"/><path class="cls-2" d="M1.25,9a10.49,10.49,0,0,0-.56,4.28c.05.46.37,1.36,1,1.35.31,0,.71-.31.93-1.47,0-.26.05-.47.07-.57s-.09-.33-.17,0c-.19.71-.76,1.23-1.27.32a4.49,4.49,0,0,1,0-2.9c.09-.37.2-.92.2-.92C1.57,8.69,1.4,8.47,1.25,9Z"/><path class="cls-2" d="M10.12,5.66c0,.15-.15.78-.17.91a.47.47,0,0,0,0,.37c.06.11.23.5.35.81s1.35,2.68,1.46,2.89.14.37,0,.51C7.88,15.31.39,17.38.14,17.52s-.18.25.23.18A41,41,0,0,0,6,16.41c1-.47,4.86-2.13,6.19-4.65a3.13,3.13,0,0,0-.06-2.45c-.25-.5-1.06-1.91-1.06-1.91l.65,0c.06,0,.17-.06,0-.23s-1.4-1.41-1.47-1.51S10.16,5.51,10.12,5.66Z"/><path class="cls-2" d="M15.16.78a9.19,9.19,0,0,0-1,3.73c0,.42.16,1.25.7,1.32.29,0,.67-.18,1-1.19.07-.22.11-.41.14-.5s0-.3-.16,0c-.25.6-.83,1-1.16.13A4,4,0,0,1,15,1.7c.13-.32.3-.79.3-.79C15.47.56,15.35.35,15.16.78Z"/><path class="cls-2" d="M25.25,4.14a.89.89,0,0,0,0,.7c.1.27.38.9.43,1s.06.19-.1.26a.69.69,0,0,1-1-.54,6,6,0,0,0-.21-1.1c-.06-.12-.12-.14-.17,0a3,3,0,0,0-.09.43.14.14,0,0,0,0,.12s.31.89.18,1.12-.76.65-1.09.21a3.48,3.48,0,0,1-.07-1.26c0-.18-.05-.24-.13-.09a.7.7,0,0,0-.12.37c0,.13,0,.7,0,.87s0,.76.34.92.83,0,1.2-.7a.84.84,0,0,0,1,.34A1,1,0,0,0,25.9,6,1.41,1.41,0,0,0,25.72,5a3.62,3.62,0,0,1-.29-.78C25.37,4.08,25.33,3.9,25.25,4.14Z"/><path class="cls-2" d="M4.71,1.75A4.9,4.9,0,0,0,4,4.48,4.45,4.45,0,0,0,2.05,2c-.1-.06-.32.05-.34.38s-.06.67.07.8,1.11.48.58,1C2.13,4.5.94,5.74.68,6s-.28.35,0,.2A3.48,3.48,0,0,0,2.8,3.89a.86.86,0,0,0-.07-.46s0,0,.07,0A4.28,4.28,0,0,1,4,5.43c.07.16.22.18.26-.06.08-.57.13-1.58.17-1.88s.27-1.31.82-.86l.25.25c.11.14.26.31.33.14a1.23,1.23,0,0,0,.07-.9C5.84,2,5.17,1.17,4.71,1.75Z"/><path class="cls-2" d="M28.22,3l.6.6c.1.11.23.05.17-.12S27.81.31,27.77.2,27.68,0,27.63.14s-.47,1.06-.47,1.06a5.46,5.46,0,0,1,.18.77c.21,3.83,1.65,9.35,1.14,9.7a7.88,7.88,0,0,1-1.86.86c.08-.15.89-1.59.49-2.49a2.76,2.76,0,0,0-3.37-1,14.41,14.41,0,0,0-3.43,2.63c.11-.81.45-2.2-1-8.74,0-.09,0-.11.06-.06s.49.41.59.51.47.18,0-.58S18.83.68,18.67.35q0-.06-.06,0c-.08.19-.35.85-.38.91s.07.27.15.52.86,4.14,1,5.17a19.84,19.84,0,0,1,.4,5.24c-.85.88-1.43,1.58-1.43,1.58l-.81.11a4.9,4.9,0,0,0-.65-1.15c-.69-.94-1.55-1.39-2.51-.48a1.79,1.79,0,0,0,.25,3,4.09,4.09,0,0,0,2,.05c.2,0,.83-.11.52.32s-3,3.25-5.89,3.3c-.36,0-3-.22-2.23-2.75,0-.27.24-.91.32-1.21s-.19-.53-.42.21-1.38,3.68.52,4.74c.32.18,2.95,1.23,7.24-2.42a4,4,0,0,0,1.06-2.05,3.26,3.26,0,0,0,0-.37c1.41-.15,7.9-.91,9.48-1.75a3.18,3.18,0,0,0,1.9-2.9C29.21,9.53,28.22,3,28.22,3ZM15.13,14c-.92-.22-.55-.55-.37-.7a1.15,1.15,0,0,1,1.7.68A2,2,0,0,1,15.13,14Zm11-2.21C25,13,19.74,13.59,19.25,13.66a22.21,22.21,0,0,1,3.88-3.13,2.61,2.61,0,0,1,2.85.15C26.64,11.28,26.39,11.55,26.12,11.81Z"/><path class="cls-2" d="M30.89.14c-.06.13-.37,1-.37,1,.08.56.82,6.56.87,7s1.09,7.19,1.14,9.07c0,.19.07.26.16.08s.69-1.44,0-6c-.06-.38-1.15-8.14-1.15-8.14s.65.6.75.71.23,0,.17-.12S31.07.31,31,.2,30.94,0,30.89.14Z"/><path class="cls-2" d="M24.52,1.76A2,2,0,0,0,24.37.23c-.07-.13-.5-.55-1.05.23-.22.3-.39,1-.11,1.25a3.5,3.5,0,0,0,.69.41,15.79,15.79,0,0,1-3,3c-.19.14-.17.22-.06.2A6.82,6.82,0,0,0,23.1,3.86a4.48,4.48,0,0,0,1.13-1.6s.32.29.36.35.15.22.2.09A.72.72,0,0,0,24.52,1.76Zm-.3-.21-.55-.27c-.17-.08-.25-.19-.17-.3.28-.37.41-.35.51-.28A1,1,0,0,1,24.22,1.55Z"/></g></g></g></svg>