<svg xmlns="http://www.w3.org/2000/svg" viewBox="0 0 36.58 17"><defs><style>.cls-1{isolation:isolate;}.cls-2{fill-rule:evenodd;mix-blend-mode:darken;}</style></defs><g class="cls-1"><g id="Layer_2" data-name="Layer 2"><g id="سور_الٌقرآن_الكريم" data-name="سور الٌقرآن الكريم"><path class="cls-2" d="M24.51,15c-.19.1-3.28,1.24-3.49,1.36s-.27.14-.31.29l-.07.26c0,.1-.08.22.22.05.1-.05,3.23-1.21,3.39-1.31s.27-.13.34-.28a1.83,1.83,0,0,0,.14-.29C24.77,14.93,24.82,14.81,24.51,15Z"/><path class="cls-2" d="M11.11,14.76,7.25,16.2c-.22.09-.28.14-.32.29s-.06.24-.07.26-.09.19.22.05l3.76-1.39c.18-.08.27-.13.34-.28a1.83,1.83,0,0,0,.14-.29C11.36,14.73,11.41,14.66,11.11,14.76Z"/><path class="cls-2" d="M29.79,10.23a4.16,4.16,0,0,0-.41,1.91c0,.21.15.63.47.64.16,0,.37-.12.52-.64,0-.12,0-.21.06-.26s0-.15-.09,0c-.12.32-.43.54-.67.11a1.83,1.83,0,0,1,.1-1.31l.13-.4C30,10.1,29.89,10,29.79,10.23Z"/><path class="cls-2" d="M4.44,10.49A4.16,4.16,0,0,0,4,12.4c0,.21.15.63.47.64.16,0,.37-.12.52-.64,0-.12,0-.21.05-.26s0-.15-.08,0c-.12.32-.43.54-.67.11a1.74,1.74,0,0,1,.1-1.3c0-.17.13-.41.13-.41C4.61,10.36,4.53,10.26,4.44,10.49Z"/><path class="cls-2" d="M21.44,8.84l-.55.75s0,.06,0,.07l.93.69s.06,0,.07,0l.48-.65.9.67a.05.05,0,0,0,.07,0l.55-.75s0-.06,0-.07L23,8.83a.06.06,0,0,0-.08,0l-.47.65-.9-.66A0,0,0,0,0,21.44,8.84Z"/><path class="cls-2" d="M15.69,8.25,15.14,9a.06.06,0,0,0,0,.08l.93.68a0,0,0,0,0,.07,0l.47-.65.91.66a0,0,0,0,0,.07,0L18.14,9a0,0,0,0,0,0-.07l-.93-.68a0,0,0,0,0-.07,0l-.47.65-.9-.66A0,0,0,0,0,15.69,8.25Z"/><path class="cls-2" d="M21.78,6.93l-.54.75a.06.06,0,0,0,0,.08l.93.68a0,0,0,0,0,.07,0l.55-.76a.06.06,0,0,0,0-.07l-.93-.68A.06.06,0,0,0,21.78,6.93Z"/><path class="cls-2" d="M7.93,5.39,7.46,6l-.91-.66a0,0,0,0,0-.07,0l-.54.76a0,0,0,0,0,0,.07l.93.68a0,0,0,0,0,.07,0l.47-.65.9.66a0,0,0,0,0,.07,0l.55-.75a.06.06,0,0,0,0-.08L8,5.38A0,0,0,0,0,7.93,5.39Z"/><path class="cls-2" d="M24.79,5.07l-.54.75a0,0,0,0,0,0,.07l.93.68a0,0,0,0,0,.07,0l.54-.75a0,0,0,0,0,0-.07l-.93-.68A0,0,0,0,0,24.79,5.07Z"/><path class="cls-2" d="M9.67,9.69c-1.13-2.78-2.61-1.76-3-1.32s-1,2.15.08,2.36,2.43-.09,2.81.87c.05.11,0,.55-1.18,1.34C8,13.19,5,15.36,2.47,14.73,2,14.61-.36,13.76.91,10.1A.74.74,0,0,0,1,9.83c.22-.09.47-.39.66-1.2,0-.21.07-.4.09-.49s-.06-.3-.14,0c-.18.61-.68,1-1,.22A4.32,4.32,0,0,1,.72,5.81C.82,5.49.94,5,.94,5c.1-.36,0-.56-.17-.12A10,10,0,0,0,.09,8.62c0,.4.21,1.15.65,1.24l-.05.07c-.27.43-1.38,3.44,0,5C3.48,18,8.82,13.68,8.82,13.68,9.1,13.42,10.76,12.33,9.67,9.69ZM8,9.81a1.36,1.36,0,0,1-.91-.13C6.83,9.51,7,9.09,7.28,9c.83-.2,1.49.86,1.49.86A2.24,2.24,0,0,0,8,9.81Z"/><path class="cls-2" d="M19.08,4.71a4.18,4.18,0,0,0-.42,1.92c0,.21.15.62.47.63.16,0,.38-.12.53-.64,0-.11,0-.21.05-.25s0-.16-.09,0c-.12.32-.43.54-.66.12a1.74,1.74,0,0,1,.09-1.31c.06-.16.13-.41.13-.41C19.25,4.59,19.17,4.49,19.08,4.71Z"/><path class="cls-2" d="M7,1.28a4.59,4.59,0,0,0-.41,2.26c0,.25.24.71.64.7.21,0,.48-.16.63-.78,0-.13,0-.24,0-.3s0-.17-.11,0c-.13.37-.51.65-.84.18A2,2,0,0,1,7,1.82c.07-.19.15-.48.15-.48C7.17,1.12,7.06,1,7,1.28Z"/><path class="cls-2" d="M4.23,1A4.16,4.16,0,0,0,3.8,3.43,3.85,3.85,0,0,0,2,1.43c-.1,0-.28.06-.27.35s0,.58.1.69a4.41,4.41,0,0,0,.55.34c.06,0,.12,0,.13-.05s.09-.23.21-.13a3.81,3.81,0,0,1,1,1.23c.33.63-.45,1.72-.42,2.89,0,.26.13.78.49.81.19,0,.44-.13.64-.76,0-.15.06-.26.07-.32s0-.19-.1,0c-.15.38-.52.64-.76.1A2.3,2.3,0,0,1,3.76,5a8.31,8.31,0,0,0,.32-2.41c0-.37.15-1.14.65-.78C4.84,1.85,5,2,5,2s.24.26.29.11a1.16,1.16,0,0,0,0-.78C5.21,1.21,4.59.51,4.23,1Z"/><path class="cls-2" d="M27.7,11.57a6.15,6.15,0,0,0-.77-1.48,7.58,7.58,0,0,1-.57-1.15s.51.11.6.15.1-.08,0-.21-1-1.07-1.16-1.2-.12,0-.15.06a7.12,7.12,0,0,0-.16.75,11.7,11.7,0,0,0,1,2.2c.29.51.79,1.3,1,1.78.09.21-.05.34-.25.39a1.86,1.86,0,0,1-1.51-.2.67.67,0,0,1-.27-.77c.06-.36-.18-.15-.23,0-.26,1.13-.74,1.42-1,1.46a.7.7,0,0,1-.84-.62c0-.09.12-.34.2-.51s-.07-.18-.18,0-.2.3-.41.58c-1.4,1.68-2.35.57-2.47.38s0-.4.07-.59-.05-.19-.24,0-.37.47-.59.68a3.1,3.1,0,0,1-2.38.56,2.38,2.38,0,0,0,.4-.87,2.09,2.09,0,0,0-.38-2.27c-.4-.49-.8-.23-1.12.12a4.07,4.07,0,0,0-1,2.45,1.61,1.61,0,0,0,.2.83,3.88,3.88,0,0,1-.73.22,1.81,1.81,0,0,1-2.15-1.08,8.9,8.9,0,0,1-.48-2.08c-.06-.51-.5-7.59-1.43-10.2-.11-.31-.21,0-.3.31s-.24.4-.14.75a60.31,60.31,0,0,1,1.33,9c.16,2.52.71,3.42.93,3.73,1.16,1.54,3,.41,3.4.23l.43-.25a4.38,4.38,0,0,0,.56.11A3.3,3.3,0,0,0,20,13.91a1.33,1.33,0,0,0,1.77.76,3.25,3.25,0,0,0,1.12-.87,1.35,1.35,0,0,0,.83.68c.79.08,1.18-.79,1.35-1.11a2.67,2.67,0,0,0,.75.56,1.69,1.69,0,0,0,1.6-.14A2.47,2.47,0,0,0,27.7,11.57Zm-11.19,2a2.58,2.58,0,0,1-.73-.47c-.16-.18-.13-.31,0-.52a2.28,2.28,0,0,1,.67-.86c.4-.31.68.1.87.45a.58.58,0,0,1-.07.76A3.17,3.17,0,0,1,16.51,13.55Z"/><path class="cls-2" d="M23.22.93a4.16,4.16,0,0,0-.41,1.91c0,.21.15.62.47.63.16,0,.37-.11.52-.63,0-.12,0-.21.06-.26s0-.15-.09,0c-.12.32-.43.54-.67.11a1.84,1.84,0,0,1,.1-1.31c.06-.16.13-.4.13-.4C23.39.8,23.32.7,23.22.93Z"/><path class="cls-2" d="M21.58.79,13.23,5.36c-.23.13-.29.18-.33.35s-.05.26-.06.3-.08.23.25,0c.11-.06,8.06-4.39,8.24-4.51s.29-.17.36-.34.09-.21.13-.33S21.92.62,21.58.79Z"/><path class="cls-2" d="M14.29.59a3.91,3.91,0,0,0-.39,1.79c0,.2.14.58.44.59.15,0,.35-.11.49-.59,0-.11,0-.2.05-.24s0-.14-.08,0-.41.5-.62.1A1.6,1.6,0,0,1,14.26,1c.06-.15.13-.38.13-.38C14.45.48,14.37.38,14.29.59Z"/><path class="cls-2" d="M29,.55a4,4,0,0,0-.42,1.91c0,.21.15.62.47.63.16,0,.37-.12.52-.63l.06-.26c0-.07,0-.15-.09,0s-.43.54-.67.11A1.84,1.84,0,0,1,29,1c.06-.16.13-.4.13-.4C29.17.42,29.1.32,29,.55Z"/><path class="cls-2" d="M32,.06,31.55,1a4.84,4.84,0,0,1,.15.67c.06.42.15,1,.25,1.68,0,0,1.43,7.89,1.21,8.59,0,.09-.07.22-.13.36A3.7,3.7,0,0,0,32.32,10a23.41,23.41,0,0,0-2.7-2.65,26.64,26.64,0,0,1-2.38-2.46c-.32-.43-.71-1-.71-1,.23.09.52.17.67.22s.34,0,.1-.22-2-1.5-2.13-1.66S25,2,25,2.16s0,.76,0,1,.06.27.14.33a1.09,1.09,0,0,1,.32.3,24.14,24.14,0,0,0,3.2,3.85c.19.2,2.81,2.12,3.8,4a2.77,2.77,0,0,1,.3,1.13c-.59,1-1.94,2.46-5,3.72-.26.12-.22.3.32.14s4-.61,5.11-3.18c.28-.62.8-1.9.26-4.77-.14-1.17-.93-6.07-.93-6.07s.55.52.64.62.19,0,.14-.11S32.11.21,32.07.11,32,0,32,.06Z"/><path class="cls-2" d="M34.75.06c0,.11-.38.94-.38.94s.1.41.12.55c.16,1.2,1.14,8.31,1.42,10.56.14,1.11.25,2.1.26,2.64,0,.16.06.22.13.06a3.3,3.3,0,0,0,.27-1.35,19.11,19.11,0,0,0-.22-3.23L35.3,2.59s.55.52.64.62.2,0,.15-.11S34.91.21,34.87.11,34.8,0,34.75.06Z"/></g></g></g></svg>