<svg xmlns="http://www.w3.org/2000/svg" viewBox="0 0 35.09 18"><defs><style>.cls-1{isolation:isolate;}.cls-2{fill-rule:evenodd;mix-blend-mode:darken;}</style></defs><g class="cls-1"><g id="Layer_2" data-name="Layer 2"><g id="سور_الٌقرآن_الكريم" data-name="سور الٌقرآن الكريم"><path class="cls-2" d="M29.88,14.8a1.4,1.4,0,0,0-.14.23c0,.06,0,.15.09,0s.63-.36.73.14c0,.09,0,.52-.55,1.22l-.28.34c-.13.16-.08.28.09.1a4,4,0,0,0,1.09-1.68c.06-.21.06-.66-.27-.79C30.47,14.32,30.21,14.36,29.88,14.8Z"/><path class="cls-2" d="M16.84,14.13a4.55,4.55,0,0,0-.47,2.16c0,.24.17.7.53.72.18,0,.43-.14.59-.72,0-.13.05-.24.07-.29s0-.18-.1,0c-.14.35-.49.6-.76.12a2,2,0,0,1,.11-1.48l.15-.46C17,14,16.94,13.87,16.84,14.13Z"/><path class="cls-2" d="M4,14a4.14,4.14,0,0,0-.47,2.05c0,.23.17.67.53.68.18,0,.42-.13.6-.68a1.57,1.57,0,0,1,.06-.28c0-.07,0-.16-.1,0-.14.34-.49.58-.76.12a1.81,1.81,0,0,1,.11-1.4l.15-.44C4.15,13.91,4.06,13.8,4,14Z"/><path class="cls-2" d="M3,8.19a4.53,4.53,0,0,0-.36,2.11c0,.23.2.67.55.67.18,0,.41-.15.54-.72,0-.13,0-.24,0-.29s0-.16-.1,0c-.11.35-.44.61-.72.16A1.93,1.93,0,0,1,3,8.7c.06-.18.13-.45.13-.45C3.15,8.05,3.06,7.94,3,8.19Z"/><path class="cls-2" d="M5.1,7.7l-.58.81a0,0,0,0,0,0,.07l1,.73a.06.06,0,0,0,.08,0l.58-.81a0,0,0,0,0,0-.07l-1-.73A.06.06,0,0,0,5.1,7.7Z"/><path class="cls-2" d="M25,13.34c-.21.1-2.34.95-2.56,1.07s-.29.15-.34.31S22,15,22,15s-.08.24.25.05c.09-.05,2.27-.92,2.44-1s.29-.14.37-.3.1-.19.15-.31S25.28,13.17,25,13.34Z"/><path class="cls-2" d="M25.89,7.22c-.44.34-1.45,1.32-1,1.78l.38.32a.63.63,0,0,0-.3.32,2.9,2.9,0,0,0-.13.27c0,.08-.06.2.15.08a5.11,5.11,0,0,1,2.05-.89c.19,0,.35-.34.35-.34s.24-.43,0-.29a2.67,2.67,0,0,1-1.27.3,1.48,1.48,0,0,1-.76-.46c-.08-.12-.07-.27.18-.41s.51-.24.7.07c0,.06.08.06.16,0s.24-.31.28-.37a.21.21,0,0,0,0-.25A.5.5,0,0,0,25.89,7.22Z"/><path class="cls-2" d="M15.85,6.24l-.58.8a.05.05,0,0,0,0,.08l1,.73a0,0,0,0,0,.07,0l.59-.8a.06.06,0,0,0,0-.08l-1-.73A.07.07,0,0,0,15.85,6.24Z"/><path class="cls-2" d="M21,4.29a4.4,4.4,0,0,0-.38,2.53,4.05,4.05,0,0,0-2-2.05c-.1,0-.28.08-.27.38s0,.61.13.72a5.19,5.19,0,0,0,.59.34c.07,0,.13,0,.14,0s.08-.25.21-.14a3.78,3.78,0,0,1,1.26,1.66c.07.15.21.15.22-.07,0-.53,0-1.45,0-1.73S21,4.67,21.57,5l.25.2c.12.12.26.26.31.1a1.1,1.1,0,0,0,0-.82C22.07,4.43,21.38,3.72,21,4.29Z"/><path class="cls-2" d="M6.31,4.15a4.45,4.45,0,0,0-.45,2.09c0,.23.16.68.51.69.18,0,.41-.13.58-.69C7,6.11,7,6,7,6s0-.17-.1,0c-.13.35-.47.59-.73.13a2,2,0,0,1,.1-1.43c.07-.18.15-.45.15-.45C6.5,4,6.41,3.9,6.31,4.15Z"/><path class="cls-2" d="M22.89,1.79a3.48,3.48,0,0,0-.48.69c-.13.2,0,.28.17.13a.68.68,0,0,1,.64-.29c.41,0,1.39,0,1,.24s-.61.43-.61.43c-.24.17-.45.48,0,.31A3,3,0,0,0,25,2.2c.12-.18.26-.43-.31-.52S23.19,1.46,22.89,1.79Z"/><path class="cls-2" d="M12.39,1.17a4.49,4.49,0,0,0-.45,2.09c0,.23.16.68.51.69.18,0,.41-.13.58-.69,0-.13,0-.23.06-.28s0-.17-.1,0c-.13.34-.47.58-.73.12a2,2,0,0,1,.1-1.43c.07-.18.15-.45.15-.45C12.58,1,12.49.92,12.39,1.17Z"/><path class="cls-2" d="M1.79,1a4.58,4.58,0,0,0-.45,2.09c0,.23.17.68.51.69.18,0,.42-.13.58-.69l.06-.28c0-.08,0-.17-.1,0-.13.35-.47.59-.73.13a1.94,1.94,0,0,1,.11-1.43c.06-.18.14-.45.14-.45C2,.83,1.9.72,1.79,1Z"/><path class="cls-2" d="M10.17.74,2,4.77c-.24.13-.31.19-.34.37s-.06.29-.07.31-.07.23.27,0l8-4c.2-.11.31-.18.38-.36a3.13,3.13,0,0,0,.14-.35C10.47.68,10.53.57,10.17.74Z"/><path class="cls-2" d="M20.16.64a4.49,4.49,0,0,0-.45,2.09c0,.23.16.68.51.69.18,0,.42-.13.58-.69l.06-.28c0-.08,0-.17-.1,0-.13.34-.47.58-.73.12a2,2,0,0,1,.1-1.43c.07-.18.15-.45.15-.45C20.35.5,20.26.39,20.16.64Z"/><path class="cls-2" d="M16.87,2.16A2.23,2.23,0,0,0,16.64.45c-.09-.15-.59-.61-1.18.3-.23.34-.4,1.17-.07,1.41a4.11,4.11,0,0,0,.8.43A22,22,0,0,1,11.68,6.7c-.23.13-.19.25,0,.22a11.13,11.13,0,0,0,2.64-1.49,11.34,11.34,0,0,0,2.29-2.7s.38.32.43.38.17.25.23.1A.82.82,0,0,0,16.87,2.16Zm-.35-.22-.62-.29c-.2-.08-.3-.2-.21-.33.3-.42.45-.4.56-.33A1.11,1.11,0,0,1,16.52,1.94Z"/><path class="cls-2" d="M27.88,1.93A2.07,2.07,0,0,0,27.67.37c-.08-.13-.53-.54-1.07.28-.2.31-.36,1.07-.07,1.28a4.22,4.22,0,0,0,.73.4,19.71,19.71,0,0,1-4.09,3.72c-.21.12-.17.23-.05.2a10.13,10.13,0,0,0,2.4-1.35A10.35,10.35,0,0,0,27.6,2.45l.39.34c.1.13.16.23.2.09A.73.73,0,0,0,27.88,1.93Zm-.31-.2L27,1.47c-.18-.07-.27-.19-.19-.3.27-.38.41-.37.51-.3A1,1,0,0,1,27.57,1.73Z"/><path class="cls-2" d="M31.29,10.8c-.31-.86-1.43-8-1.43-8l.69.66c.09.1.21,0,.16-.12S29.44.29,29.4.19,29.32,0,29.27.13s-.33.91-.33.91c0,.18.27,1.87.57,3.92,0,.27.91,5.51,1.06,6.22,0,0-1.76.68-2,.69a4,4,0,0,0-1.14-1.5c-.19-.15-1-.57-1.72.67-.17.29-.83,1.62.3,2.1a3,3,0,0,0,1.74,0c.19-.05.58-.08.52.29a8.13,8.13,0,0,1-3.09,2.6c-.37.16-4.14,1.89-4-1.7a15.47,15.47,0,0,1,.52-2.06,4.05,4.05,0,0,0,1,.15c.19,0,1.17.11,1-1.08a4,4,0,0,0-1.16-2.44c-.14-.11-.94-.54-1.68.86A7.5,7.5,0,0,1,20,11.69c-.37.33-2,1.43-2.92-.33a5.73,5.73,0,0,1-.16-1.31c0-.24-.11-.23-.22-.11a9.42,9.42,0,0,1-2.3,1.87,3.82,3.82,0,0,0-1.24-1.41,1.06,1.06,0,0,0-1.49.19c-.13.14-1.06,1.32-.36,2.32a2.4,2.4,0,0,0,2.6.28c.1,0,.37.05.25.36s-1.06,1.89-4.38,3c-.42.14-2.93.87-3.23-1.72a7,7,0,0,1,.18-2.1,17.71,17.71,0,0,0,2-1.2c.35-.26,2.09-1.29,1.65-3,0-.25-1-2.49-1-2.49.23.1.38.14.46.18S10,6.15,9.9,6s-1-1.2-1-1.26-.06-.12-.08-.21-.08-.08-.12,0-.27.8-.28.86a5.29,5.29,0,0,0,.26,1,23,23,0,0,0,1,2.28.73.73,0,0,1,0,.82,10.64,10.64,0,0,1-5.18,2.82c-.49.11-2.53.51-3.61-1C.77,11.06,0,9.81.89,7.47c.09-.18,0-.39-.22,0s-2,4.91,1.48,6c.59.19,1.94.53,4.25-.56-.35,1.07-1.24,4,1.25,4.95,2.15.81,5.33-1.58,6.06-2.35a2.81,2.81,0,0,0,.85-1.64c.06-.25.14-1,.14-1a6.35,6.35,0,0,0,1.72-1.48c.45,2.47,2.43,2.07,2.64,2a2.49,2.49,0,0,0,1.56-1.61,3.29,3.29,0,0,0,.85.41c-.24.64-1.82,4.34.6,5.41.41.19,2.58.51,5.15-1.81.45-.41,1.71-1.23,1.51-2.76.11-.05,1.75-.65,2.06-.78.05.12.68,1.64,1.85,1.87.16,0,.94.17,1.1-1.28C33.78,12.52,34.16,10.3,31.29,10.8ZM26.37,12c-.43-.1-.11-.4.08-.52s.74-.2,1.14.56A2.92,2.92,0,0,1,26.37,12ZM11.91,12c-.4-.17,0-.55.16-.58s.67-.17,1.36.7A3.13,3.13,0,0,1,11.91,12ZM21,10.68a1.94,1.94,0,0,1,.51-.64c.14-.11.77-.37,1.28,1,.09.28,0,.22-.15.21A2.92,2.92,0,0,1,21,10.68Zm12,2.23A1.49,1.49,0,0,1,31.67,12c.14,0,1.25-.18,1.55.63C33.26,12.72,33.29,12.88,33.08,12.91Z"/><path class="cls-2" d="M33.13.06c-.05.12-.34.91-.34.91.08.52.76,5.05.8,5.43s1,6.64,1.06,8.37c0,.18.06.24.14.07s.64-1.32,0-5.56c-.05-.35-1.05-6.51-1.05-6.51l.69.66c.09.1.21,0,.15-.12S33.29.22,33.25.12,33.18-.06,33.13.06Z"/></g></g></g></svg>