<svg xmlns="http://www.w3.org/2000/svg" viewBox="0 0 33.21 19.88"><defs><style>.cls-1{isolation:isolate;}.cls-2{fill-rule:evenodd;mix-blend-mode:darken;}</style></defs><g class="cls-1"><g id="Layer_2" data-name="Layer 2"><g id="سور_الٌقرآن_الكريم" data-name="سور الٌقرآن الكريم"><path class="cls-2" d="M25.53,15.82a1.52,1.52,0,0,0-.13.56c0,.11.05.45.05.45a.82.82,0,0,1-1,0,2.22,2.22,0,0,0,.1-.39c.05-.16-.05-.28-.13-.11a4.43,4.43,0,0,1-.4.85c-.14.13-.3.59-1.34.12a.73.73,0,0,0-1,.2,7.22,7.22,0,0,1-3.17,1.57c-.15.07-.47.31-.09.27a4,4,0,0,0,2.85-1c.18-.18.39-.65,1.08-.38.39.15,1.09.76,1.87-.44.45.3,1.14.18,1.25-.16a3.51,3.51,0,0,0,.24-.89c0-.23,0-.53,0-.53C25.69,15.8,25.63,15.55,25.53,15.82Z"/><path class="cls-2" d="M13.34,15.76A6.35,6.35,0,0,0,13,18.57c0,.3.25.89.66.88.22,0,.49-.2.64-1,0-.17,0-.31.05-.38s-.06-.22-.11,0c-.14.47-.53.81-.87.21a2.87,2.87,0,0,1,0-1.9c.06-.24.14-.6.14-.6C13.55,15.57,13.44,15.43,13.34,15.76Z"/><path class="cls-2" d="M30.74,15a4.51,4.51,0,0,0-.44,2c0,.22.16.66.5.67.17,0,.4-.12.56-.67l.06-.28c0-.07,0-.16-.1,0-.12.34-.46.57-.7.12a1.81,1.81,0,0,1,.1-1.39c.06-.17.14-.43.14-.43C30.92,14.89,30.84,14.79,30.74,15Z"/><path class="cls-2" d="M3.67,14C3.45,14.06.83,15.2.6,15.33s-.32.16-.36.33A2.1,2.1,0,0,1,.15,16c0,.11-.08.25.26.06.11-.06,2.77-1.21,3-1.32s.3-.15.38-.32.11-.21.16-.33S4,13.78,3.67,14Z"/><path class="cls-2" d="M2,9.88c-.59.46-1.95,1.78-1.34,2.4l.52.43a.8.8,0,0,0-.41.42c-.1.2-.12.25-.17.36s-.08.27.2.11A6.9,6.9,0,0,1,3.6,12.41c.25-.05.46-.46.46-.46.11-.17.32-.58,0-.38a3.62,3.62,0,0,1-1.71.4,2,2,0,0,1-1-.61c-.11-.18-.1-.37.23-.56s.7-.32,1,.1c0,.07.11.07.21,0a6,6,0,0,0,.38-.49.3.3,0,0,0,0-.34A.69.69,0,0,0,2,9.88Z"/><path class="cls-2" d="M9.15,9.31a5.71,5.71,0,0,0-.34,2.44c0,.26.22.77.58.76.18,0,.42-.17.55-.83,0-.15,0-.27,0-.33s-.05-.19-.1,0c-.11.4-.45.7-.75.18a2.52,2.52,0,0,1,0-1.65l.12-.52C9.33,9.14,9.23,9,9.15,9.31Z"/><path class="cls-2" d="M24.77,8.65l-.54.74-1-.75a.05.05,0,0,0-.08,0l-.62.85a.06.06,0,0,0,0,.09l1.06.77a.05.05,0,0,0,.08,0l.54-.74,1,.75a.05.05,0,0,0,.08,0l.63-.85a.07.07,0,0,0,0-.09l-1.07-.77A.05.05,0,0,0,24.77,8.65Z"/><path class="cls-2" d="M23.82,7l-.62.85s0,.07,0,.08l1.06.78a.06.06,0,0,0,.08,0L25,7.81a.06.06,0,0,0,0-.08L23.9,7A.06.06,0,0,0,23.82,7Z"/><path class="cls-2" d="M18.22,5.92a6.5,6.5,0,0,0-.37,2.68c0,.29.24.85.64.84.21,0,.46-.19.61-.92,0-.16,0-.29,0-.35s-.06-.21-.11,0c-.13.45-.5.78-.83.21a2.73,2.73,0,0,1,0-1.82c.06-.23.13-.57.13-.57C18.43,5.74,18.32,5.61,18.22,5.92Z"/><path class="cls-2" d="M24.4,3.53a1,1,0,0,0,0,.74c.11.29.41.94.46,1a.17.17,0,0,1-.1.27A.74.74,0,0,1,23.68,5a6.8,6.8,0,0,0-.22-1.16c-.07-.14-.14-.15-.19,0a2.14,2.14,0,0,0-.09.46.13.13,0,0,0,0,.12s.32.94.19,1.19-.81.68-1.16.22a3.61,3.61,0,0,1-.06-1.33c0-.19-.06-.26-.15-.1a.8.8,0,0,0-.12.4c0,.13,0,.73,0,.92s0,.79.36,1,.89,0,1.28-.74a.87.87,0,0,0,1,.36,1.08,1.08,0,0,0,.52-.84,1.43,1.43,0,0,0-.18-1,3.43,3.43,0,0,1-.31-.82C24.54,3.46,24.49,3.27,24.4,3.53Z"/><path class="cls-2" d="M2.66,3.1a4.42,4.42,0,0,0-.39,2.56,4.12,4.12,0,0,0-2-2.09C.18,3.52,0,3.64,0,4s0,.61.13.73A4.68,4.68,0,0,0,.71,5c.07,0,.14,0,.15,0s.08-.26.21-.14A3.54,3.54,0,0,1,2.2,6.29C2.44,7,.78,8.64.69,8.72s-.1.21,0,.16a9.75,9.75,0,0,0,1-.76,2,2,0,0,0,.83-1.58s0,0,0-.08c0-.53,0-1.46,0-1.74s.13-1.23.66-.85a2.43,2.43,0,0,1,.25.2c.12.12.26.26.31.11a1.21,1.21,0,0,0,0-.84C3.7,3.26,3,2.53,2.66,3.1Z"/><path class="cls-2" d="M19.78,1.76,9.19,7.53c-.3.16-.38.23-.43.44a2.9,2.9,0,0,1-.08.38c0,.14-.1.29.33.05.13-.07,10.22-5.55,10.45-5.7s.37-.21.46-.43.12-.26.17-.42S20.21,1.54,19.78,1.76Z"/><path class="cls-2" d="M5.06,1.26l-.4,1c.09.54.81,3.85.86,4.25s1.4,6.39,1.18,8.65c0,.18.07.25.16.08s.68-1.38,0-5.78c0-.37-1.14-5.41-1.14-5.41s.63.57.73.68.22,0,.17-.12S5.24,1.42,5.2,1.32,5.11,1.13,5.06,1.26Z"/><path class="cls-2" d="M13.31,1.28C13,1.42,7.69,4.36,7.4,4.51s-.34.23-.37.43,0,.32,0,.36-.07.25.3,0l5.79-3.16c.22-.13.33-.21.4-.43a4,4,0,0,0,.14-.39C13.65,1.19,13.71,1.07,13.31,1.28Z"/><path class="cls-2" d="M30,12.27C29.9,11.82,28.64,3,28.64,3l.73.69c.1.11.22,0,.16-.12S28.19.29,28.14.18,28.06,0,28,.12l-.47,1.3c0,.15.18.29.25.71.4,2.51,1.51,10.51,1.54,10.75s.16.79-.12.85a1.68,1.68,0,0,1-1.93-.88c0-.09,0-.14,0-.24s-.1-.28-.24,0-.45,1.74-1.41,1.67c-.31,0-1-.39-.89-.67s.16-.43.21-.56-.05-.37-.24-.11a4.45,4.45,0,0,1-1.37,1.4,1.48,1.48,0,0,1-2-.71c.05-.18.11-.33.14-.47s0-.35-.19-.19-2.6,3.36-5.31.46c.27-.15,1.07-.54,2.11-1a4.42,4.42,0,0,0,.38-1,6.79,6.79,0,0,0-6.82-.24,1.41,1.41,0,0,0-.62,1.2c0,.2.1.22.25.12s1.19-1,2.71.49a19.47,19.47,0,0,0-4.05,1.94c-1.09.74-3.73,3.58-4.24,3.77S3.55,19,4,16.63A13,13,0,0,1,5.29,14c.28-.39.16-.75-.3-.19s-2.67,3.62-.78,5.63c.55.58,1.84.91,3.34-.79.67-.75,2.12-3,7.37-4.73a4.78,4.78,0,0,0,3.42,1.94,3.06,3.06,0,0,0,2.5-1.38,1.65,1.65,0,0,0,2.26,1.06,4.67,4.67,0,0,0,1.24-.92,1.26,1.26,0,0,0,1.27.84c.2,0,.82,0,1.35-1.19a2,2,0,0,0,2.45.59C29.57,14.75,30.11,14.25,30,12.27Zm-14.85.28s-.84-.7-1.22-.93a3.6,3.6,0,0,1,2.73.25S15.65,12.34,15.11,12.55Z"/><path class="cls-2" d="M31.12.12c-.05.12-.36,1-.36,1,.08.53.81,6.29.86,6.68s1.06,6.9,1.12,8.7c0,.19.06.26.15.08s.68-1.38,0-5.78c-.06-.37-1.12-7.81-1.12-7.81l.73.68c.1.11.22,0,.16-.12S31.3.28,31.25.18,31.17,0,31.12.12Z"/><path class="cls-2" d="M23.9,1.8A2,2,0,0,0,23.8.25c-.07-.14-.5-.58-1.08.2-.23.3-.43,1-.15,1.27a4.17,4.17,0,0,0,.69.43A19.11,19.11,0,0,1,19,5.58c-.21.11-.18.22-.05.19a9.75,9.75,0,0,0,2.46-1.18A10.25,10.25,0,0,0,23.59,2.3s.32.3.36.36.15.24.2.11A.74.74,0,0,0,23.9,1.8Zm-.3-.21-.54-.3c-.17-.09-.26-.2-.17-.31.3-.36.43-.34.53-.27A1.06,1.06,0,0,1,23.6,1.59Z"/></g></g></g></svg>