<svg xmlns="http://www.w3.org/2000/svg" viewBox="0 0 34.6 19.09"><defs><style>.cls-1{isolation:isolate;}.cls-2{fill-rule:evenodd;mix-blend-mode:darken;}</style></defs><g class="cls-1"><g id="Layer_2" data-name="Layer 2"><g id="سور_الٌقرآن_الكريم" data-name="سور الٌقرآن الكريم"><path class="cls-2" d="M23.19,17.45l-.51.7-1-.72a.05.05,0,0,0-.08,0l-.59.81a.05.05,0,0,0,0,.08l1,.74a.07.07,0,0,0,.08,0l.51-.7,1,.72a.06.06,0,0,0,.08,0l.59-.81a.05.05,0,0,0,0-.08l-1-.74A.06.06,0,0,0,23.19,17.45Z"/><path class="cls-2" d="M8.14,16.36c-.22.11-3.72,1.76-3.94,1.89s-.3.15-.34.31-.07.26-.08.28-.08.24.24.06c.1-.06,3.65-1.74,3.83-1.84s.29-.14.37-.3l.15-.31C8.42,16.32,8.46,16.19,8.14,16.36Z"/><path class="cls-2" d="M31.28,16.17l-4,1.82c-.23.11-.29.17-.32.34s-.05.26-.06.28-.07.21.24,0c.11,0,3.75-1.66,3.94-1.76s.28-.16.35-.33a2.69,2.69,0,0,0,.13-.31C31.56,16.12,31.62,16,31.28,16.17Z"/><path class="cls-2" d="M15,15.49a4.83,4.83,0,0,0-.66,2.19c0,.25.14.74.51.78.2,0,.46-.11.68-.7,0-.13.07-.24.08-.29s0-.18-.1,0c-.17.36-.56.59-.8.08A2,2,0,0,1,14.93,16c.08-.18.19-.46.19-.46C15.21,15.36,15.12,15.24,15,15.49Z"/><path class="cls-2" d="M14.54,11.46a.85.85,0,0,0-1.33,0,9.4,9.4,0,0,0-1,1.73,2.33,2.33,0,0,1-1.94,1.29c-.32,0-1.48.11-2.26-1.7-.65-1.47-1.53-1-1.93-.8a6.16,6.16,0,0,0-2.47,3.14c-.16.38-.47,1.34-1.1,1.31-.19,0-.95-.12-1.54-1.43a8,8,0,0,1-.43-2.43c0-.26-.08-.52-.19-.19a6.62,6.62,0,0,0,.8,4.35c1.17,1.64,2.11.49,2.24.22s1.25-2.95,2.43-3.63c.18-.11,1.22-.64,1.55,0,.22.44.88,1.93,2,2.29a2.26,2.26,0,0,0,2.52-.87c.16-.28.41-.81.41-.81a3.62,3.62,0,0,0,2.74.74c.24-.07.47-.18.48-.53A4.07,4.07,0,0,0,14.54,11.46Zm-.16,2A2.52,2.52,0,0,1,12.94,13a1,1,0,0,1,.41-.46c.42-.28.94.28,1.15.59S14.53,13.49,14.38,13.49Z"/><path class="cls-2" d="M6.74,8.66l-.51.7-1-.72a.06.06,0,0,0-.08,0l-.59.81a.05.05,0,0,0,0,.08l1,.74a.06.06,0,0,0,.08,0l.51-.7,1,.72a.05.05,0,0,0,.08,0l.59-.81a.05.05,0,0,0,0-.08l-1-.74A.07.07,0,0,0,6.74,8.66Z"/><path class="cls-2" d="M15.46,6.27c-.16.1-5.28,2.62-5.77,3a1.54,1.54,0,0,0-.51.85c-.1.49,0,1,.34,1a.6.6,0,0,1,.4.24,0,0,0,0,0,.07,0,.6.6,0,0,0-.4-.94c-.17,0-.25-.28.38-.69S15.11,7.1,15.24,7s.28-.16.35-.34.08-.2.12-.32S15.78,6.07,15.46,6.27Z"/><path class="cls-2" d="M.57,6.41a9.61,9.61,0,0,0-.53,4c.06.44.35,1.27.93,1.26.29,0,.66-.28.87-1.37,0-.24,0-.43.06-.53s-.08-.31-.16,0c-.17.67-.71,1.16-1.18.31a4.2,4.2,0,0,1,0-2.72c.08-.34.19-.85.19-.85C.86,6.13.71,5.93.57,6.41Z"/><path class="cls-2" d="M8.89,1.89a6.08,6.08,0,0,0-.67,2.48c0,.28.13.83.5.87.2,0,.46-.12.68-.79,0-.15.07-.27.09-.33s0-.21-.11,0c-.17.41-.56.67-.79.09A2.53,2.53,0,0,1,8.82,2.5L9,2C9.11,1.74,9,1.6,8.89,1.89Z"/><path class="cls-2" d="M5.51.93A4.73,4.73,0,0,0,4.86,3.6,4.4,4.4,0,0,0,2.94,1.2c-.1-.06-.31.05-.33.38s-.06.65.07.78a4.71,4.71,0,0,0,.59.43c.06,0,.13,0,.15,0s.11-.26.24-.13A3.73,3.73,0,0,1,4.73,4.27C4.92,5.05,3,6.63,2.89,6.71s-.12.21,0,.16A7.74,7.74,0,0,0,4,6.16a2.11,2.11,0,0,0,1-1.6.15.15,0,0,0,0-.08c.08-.56.13-1.55.17-1.85s.26-1.29.79-.84c.12.11.24.24.24.24s.26.31.32.14a1.24,1.24,0,0,0,.08-.88C6.61,1.19,6,.36,5.51.93Z"/><path class="cls-2" d="M12.28.73a8.22,8.22,0,0,0-.41,3.33c0,.36.28,1.06.74,1.05.24,0,.53-.24.7-1.14,0-.2,0-.37,0-.45s-.06-.26-.13,0c-.14.56-.57,1-1,.25a3.59,3.59,0,0,1,0-2.26c.07-.28.15-.71.15-.71C12.52.5,12.4.33,12.28.73Z"/><path class="cls-2" d="M28.06,7.67l-.51.7-1-.71a.05.05,0,0,0-.08,0l-.59.81a.05.05,0,0,0,0,.08l1,.74a.06.06,0,0,0,.08,0l.51-.71,1,.72a.06.06,0,0,0,.08,0l.59-.82a.05.05,0,0,0,0-.08l-1-.73A.05.05,0,0,0,28.06,7.67Z"/><path class="cls-2" d="M22.48,7.53a4.58,4.58,0,0,0-.31,2.6,4.14,4.14,0,0,0-2-2.07c-.1,0-.28.09-.26.4s0,.62.15.73a3.89,3.89,0,0,0,.59.34c.06,0,.13,0,.14,0s.07-.26.2-.15A3.88,3.88,0,0,1,22.24,11c.07.14.21.14.22-.08,0-.55-.06-1.48-.05-1.77s.1-1.24.63-.88l.26.2c.11.12.26.26.31.1a1.26,1.26,0,0,0,0-.84C23.52,7.66,22.83,6.94,22.48,7.53Z"/><path class="cls-2" d="M27.58,3.17a4.38,4.38,0,0,0-.45,2c0,.23.17.67.51.68.17,0,.4-.13.56-.68,0-.12,0-.22.05-.27s0-.16-.09,0c-.13.33-.46.57-.71.12a1.86,1.86,0,0,1,.1-1.39l.14-.44C27.76,3,27.68,2.93,27.58,3.17Z"/><path class="cls-2" d="M28,.86C27.78,1,19.2,5.67,19,5.81s-.32.19-.36.37-.06.29-.07.32-.08.26.28,0c.11-.06,8.76-4.76,9-4.89s.31-.17.39-.36a3.14,3.14,0,0,0,.14-.36C28.34.8,28.4.67,28,.86Z"/><path class="cls-2" d="M20.63.65a4.28,4.28,0,0,0-.44,2c0,.23.16.66.5.68.17,0,.4-.13.56-.68,0-.12,0-.22.06-.27s0-.16-.1,0c-.13.33-.46.57-.71.12a1.89,1.89,0,0,1,.1-1.4c.06-.17.14-.43.14-.43C20.81.52,20.73.41,20.63.65Z"/><path class="cls-2" d="M31.59,11.68c-.12-.84-1.21-9.18-1.21-9.18s.6.54.7.65.21,0,.16-.12S30,.22,29.91.12s-.08-.18-.13-.06l-.44,1a5.87,5.87,0,0,1,.17.72c.06.45,1.5,10.76,1.53,11.06A1,1,0,0,1,30.53,14a3.84,3.84,0,0,1-1.89.05,2.11,2.11,0,0,0,.18-.27A3.27,3.27,0,0,0,29,11.34c-.14-.39-.57-1-1.5-.39a3.38,3.38,0,0,0-1.28,2.84,1.41,1.41,0,0,0,.27.48l-.24.08c-.28.12-2.63,1-3-1.14.08-.47.1-.91-.22-.51s-1.08,2-2.53,2.17c-.56.06-1.85.24-2.48-1.71-.32-1-.91-10-1.75-12.69-.1-.31-.18-.17-.26,0a1.68,1.68,0,0,0-.24,1.17,93.69,93.69,0,0,1,1.37,10.73c.08.74.23,3.45,2.63,3.82a3,3,0,0,0,3-1.84,2.18,2.18,0,0,0,2.75,1.47A10.47,10.47,0,0,0,27.45,15a3.76,3.76,0,0,0,1,.32c.5.09,2.24.36,2.77-.68A5.74,5.74,0,0,0,31.59,11.68Zm-3.88,2.07-.29-.14c-.27-.11-.85-.45-.5-1,.23-.32.95-1,1.3-.63s.58.82.41,1A2.83,2.83,0,0,1,27.71,13.75Z"/><path class="cls-2" d="M32.62.06l-.42,1c0,.06.11.45.13.6.17,1.3,1.24,9,1.54,11.43.15,1.2.27,2.28.29,2.85,0,.18.06.25.14.08a3.77,3.77,0,0,0,.29-1.47,20.28,20.28,0,0,0-.23-3.49c0-.23-1.15-8.27-1.15-8.27l.7.66c.1.1.21,0,.16-.11S32.79.22,32.75.12,32.67-.06,32.62.06Z"/></g></g></g></svg>