<svg xmlns="http://www.w3.org/2000/svg" viewBox="0 0 32.56 22.76"><defs><style>.cls-1{isolation:isolate;}.cls-2{fill-rule:evenodd;mix-blend-mode:darken;}</style></defs><g class="cls-1"><g id="Layer_2" data-name="Layer 2"><g id="سور_الٌقرآن_الكريم" data-name="سور الٌقرآن الكريم"><path class="cls-2" d="M14.75,18.18a.54.54,0,0,0,.05.54,1.11,1.11,0,0,0,.66.28c-.62.67-.77,1.9.18,2.3a2.74,2.74,0,0,0,1.53,0A3.4,3.4,0,0,0,18,21a2.75,2.75,0,0,1,.36-.15.37.37,0,0,0,.16-.1s0-.08,0-.09a.75.75,0,0,0-.2,0l-.24.05-.56.14a4.76,4.76,0,0,1-1.13.1,1.29,1.29,0,0,1-.9-.36.76.76,0,0,1-.15-.8c.2-.59.87-1,1.46-1.4.07,0,.15-.08.16-.15a1.29,1.29,0,0,0,0-.19c0-.19-.26,0-.33,0a1.87,1.87,0,0,1-.92.46,1.17,1.17,0,0,1-.66-.2s-.07-.05,0-.08a.74.74,0,0,1,.12-.13,3.87,3.87,0,0,1,.34-.21,1.35,1.35,0,0,1,.68-.17.23.23,0,0,0,.14,0s.05-.07,0-.1a.75.75,0,0,0-.34-.09A1.14,1.14,0,0,0,14.75,18.18Z"/><path class="cls-2" d="M23,13.55a8.73,8.73,0,0,0-.7,3.52c0,.39.22,1.15.72,1.18.25,0,.59-.22.83-1.17a4.39,4.39,0,0,0,.09-.47c0-.13-.05-.28-.13,0-.2.58-.69,1-1.05.2a3.92,3.92,0,0,1,.18-2.42c.1-.3.22-.74.22-.74C23.21,13.32,23.09,13.13,23,13.55Z"/><path class="cls-2" d="M4,13.1a5,5,0,0,0-.25.65,7.73,7.73,0,0,1,1.54,5.67c-.06.32.05.28.13.14a6.79,6.79,0,0,0-1.08-6.4C4.07,12.87,4.06,13,4,13.1Z"/><path class="cls-2" d="M7.51,11A4.55,4.55,0,0,0,7.05,13c0,.23.17.68.52.69.18,0,.41-.13.58-.7l0-.28c0-.07,0-.16-.09,0-.14.35-.48.59-.73.13a1.92,1.92,0,0,1,.1-1.43L7.63,11C7.7,10.81,7.61,10.7,7.51,11Z"/><path class="cls-2" d="M14.12,6.42a4.08,4.08,0,0,0-.58.84c-.15.23,0,.33.2.15a.83.83,0,0,1,.78-.35c.5,0,1.68,0,1.24.29s-.74.52-.74.52c-.29.2-.54.59,0,.37a3.6,3.6,0,0,0,1.69-1.32c.15-.23.32-.53-.37-.63S14.49,6,14.12,6.42Z"/><path class="cls-2" d="M8.4,6.1a4.59,4.59,0,0,0-.46,2.09c0,.23.17.68.52.69.18,0,.41-.13.57-.69,0-.13.05-.23.06-.28s0-.17-.09,0c-.14.35-.48.59-.73.13a1.9,1.9,0,0,1,.1-1.43c.06-.18.14-.45.14-.45C8.58,6,8.5,5.85,8.4,6.1Z"/><path class="cls-2" d="M18.55,4.71c0,.13,0,.84,0,1.07s.06.29.17.36a1.62,1.62,0,0,1,.39.34,27.48,27.48,0,0,0,3.93,4.31c.23.22,2.86,1.81,4.07,3.94a3,3,0,0,1,.39,1.48c-.08.51.13.33.23-.08A4,4,0,0,0,27,12.85a19.56,19.56,0,0,0-2.73-2.4A31.92,31.92,0,0,1,21.3,7.7c-.4-.48-.87-1.12-.87-1.12l.82.24c.19,0,.41,0,.12-.24s-2.45-1.69-2.62-1.86S18.56,4.57,18.55,4.71Z"/><path class="cls-2" d="M5,4.34a4.28,4.28,0,0,0-.45,2.5A4,4,0,0,0,2.64,4.75c-.09,0-.28.06-.28.37s0,.6.11.71a3.43,3.43,0,0,0,.58.36c.06,0,.13,0,.14-.05s.09-.25.21-.13a3.49,3.49,0,0,1,1,1.29C4.77,8,4,9.1,4,10.31c0,.28.15.83.53.86.19,0,.45-.14.66-.8,0-.15.07-.27.08-.33s0-.2-.1,0c-.17.41-.55.68-.81.11a2.44,2.44,0,0,1,.2-1.7,8.9,8.9,0,0,0,.33-2.53c0-.39.16-1.2.68-.82a2.63,2.63,0,0,1,.24.21c.12.12.26.26.31.11a1.16,1.16,0,0,0,0-.82C6.06,4.51,5.4,3.79,5,4.34Z"/><path class="cls-2" d="M10.11,3.62a4.2,4.2,0,0,0-.25.94c0,.23.91,5.46,1,6s.64,2.63-.33,3.29-2.83,1.65-2.83,1.65a5.8,5.8,0,0,0-.3.94c-.06.17,0,.31.53.46s3.08.55,3.33.63,1,.29.6.72S7.31,21.77,4,21.35c-.8-.11-4.14-.82-3.46-4.44a11.91,11.91,0,0,1,.82-2.28h0c.31,0,.71-.31.94-1.48,0-.26.05-.47.07-.58s-.09-.33-.17,0c-.2.72-.77,1.25-1.28.33A4.52,4.52,0,0,1,1,10c.09-.37.2-.92.2-.92.1-.42-.06-.63-.21-.12A10.37,10.37,0,0,0,.4,13.27a1.89,1.89,0,0,0,.66,1.26c-.46.88-2.19,4.69.09,6.94.49.48,2.54,2.64,7.79,0,.64-.32,3.46-1.66,3.73-3.3.09-.58.14-1.63-.69-1.83s-2.41-.48-2.41-.48c.43-.32,1.31-.86,1.56-1.58a7.78,7.78,0,0,1,.3-.75c.26.6,1.12,4.06,4.94,2.86a9.94,9.94,0,0,0,4-2.78,8,8,0,0,0,.41-1.05c.08-.22,0-.23-.14-.12s-3,2.77-4.22,2.55a3.87,3.87,0,0,1-2.73-3.41c0-.34.4-.46.68-.61a8.41,8.41,0,0,1,3.09-1c.83.13,1.33.24,1.49.26s.34-.1.06-.25a6.11,6.11,0,0,0-2.92-.75,3.23,3.23,0,0,0-2.33,1.12,3.44,3.44,0,0,0-.67,2.8A14.17,14.17,0,0,0,13.81,15c-.11,0-1.45-.54-1.93-2.76-.1-.48-.72-4.49-.9-5.53s-.57-2.84-.68-3.13S10.12,3.54,10.11,3.62Z"/><path class="cls-2" d="M23.88,2.34a5.17,5.17,0,0,0-.53,2.43c0,.27.19.79.59.8.21,0,.48-.15.67-.81a2.82,2.82,0,0,0,.07-.32c0-.09,0-.19-.11,0-.15.4-.55.68-.85.14a2.21,2.21,0,0,1,.12-1.66c.08-.2.17-.51.17-.51C24.09,2.18,24,2.06,23.88,2.34Z"/><path class="cls-2" d="M18.35,2.1c-.39.3-1.3,1.18-.89,1.59L17.8,4a.59.59,0,0,0-.27.29c-.06.13-.08.16-.11.24s-.05.17.13.07a4.41,4.41,0,0,1,1.83-.79c.17,0,.31-.31.31-.31s.21-.38,0-.25a2.36,2.36,0,0,1-1.14.26,1.41,1.41,0,0,1-.68-.4c-.07-.12-.06-.25.16-.37s.46-.22.63.06c0,0,.07,0,.14,0A2.21,2.21,0,0,0,19,2.42a.18.18,0,0,0,0-.22A.44.44,0,0,0,18.35,2.1Z"/><path class="cls-2" d="M27.05,2l-.5,1a6.25,6.25,0,0,1,.19.74c.07.47.18,1.15.3,1.89,0,0,1.36,9.1,1.13,9.89-.32,1.09-1.89,3.22-7.08,5.16-.32.13-.27.33.39.15s4.94-.5,6.82-3.91c.34-.69.87-1.63.3-5.22-.17-1.32-.88-6.89-.88-6.89s.68.58.79.69.24.05.18-.12-1.45-3.24-1.5-3.34S27.1,1.87,27.05,2Z"/><path class="cls-2" d="M30.42,2,30,3.07c0,.05.12.47.14.62.19,1.37,1.34,9.45,1.67,12,.16,1.25.29,2.38.31,3,0,.19.07.26.15.08a3.84,3.84,0,0,0,.31-1.55,19.85,19.85,0,0,0-.25-3.66c0-.24-1.23-8.68-1.23-8.68s.65.59.75.7.23,0,.17-.13-1.38-3.28-1.43-3.39S30.48,1.87,30.42,2Z"/><path class="cls-2" d="M12.71,1c-.23.12-5.27,2.09-5.51,2.23s-.32.16-.37.33-.07.28-.08.31S6.66,4.15,7,4c.11-.06,5.2-2.06,5.4-2.17s.31-.15.4-.33.11-.21.15-.33S13.07.84,12.71,1Z"/><path class="cls-2" d="M20.1.08C19.87.2,15.8,1.87,15.56,2s-.32.17-.37.34a2.88,2.88,0,0,1-.08.3c0,.12-.09.26.26.06C15.48,2.64,19.59,1,19.79.84s.31-.15.4-.33.11-.21.16-.33S20.45-.09,20.1.08Z"/></g></g></g></svg>