<svg xmlns="http://www.w3.org/2000/svg" viewBox="0 0 32.4 22.84"><defs><style>.cls-1{isolation:isolate;}.cls-2{fill-rule:evenodd;mix-blend-mode:darken;}</style></defs><g class="cls-1"><g id="Layer_2" data-name="Layer 2"><g id="سور_الٌقرآن_الكريم" data-name="سور الٌقرآن الكريم"><path class="cls-2" d="M12.09,20.12c-.24.11-4.56,1.78-4.8,1.91s-.33.17-.37.34l-.09.31c0,.11-.09.26.27.06.11-.06,4.48-1.75,4.68-1.86s.31-.15.4-.33a3.11,3.11,0,0,0,.16-.34C12.39,20.08,12.44,19.94,12.09,20.12Z"/><path class="cls-2" d="M21.75,18.72l-.17.23c0,.06,0,.17.09,0s.68-.34.72.19a2,2,0,0,1-.69,1.27c-.14.13-.32.34-.32.34-.15.16-.12.29.07.11a4.48,4.48,0,0,0,1.3-1.72c.09-.22.14-.7-.18-.85C22.41,18.25,22.14,18.27,21.75,18.72Z"/><path class="cls-2" d="M29.22,18c-.06.12-.1.21-.13.26s0,.17.1,0,.61-.45.74.07a1.93,1.93,0,0,1-.46,1.37l-.26.4c-.12.17-.06.3.1.09a4.69,4.69,0,0,0,1-1.93c0-.22,0-.7-.33-.8C29.79,17.43,29.53,17.5,29.22,18Z"/><path class="cls-2" d="M4.45,14.49A5.34,5.34,0,0,0,4,17c0,.27.26.79.68.78.22,0,.49-.18.66-.86,0-.16,0-.28,0-.34s-.06-.2-.12,0c-.14.42-.54.74-.88.2a2.19,2.19,0,0,1,0-1.71c.06-.22.14-.54.14-.54C4.67,14.32,4.56,14.19,4.45,14.49Z"/><path class="cls-2" d="M8.24,9.93l-.56.77L6.61,9.92a.05.05,0,0,0-.08,0l-.65.89a.06.06,0,0,0,0,.08l1.1.81a.07.07,0,0,0,.09,0l.56-.76,1.07.78a.06.06,0,0,0,.08,0l.65-.88a.06.06,0,0,0,0-.09l-1.1-.8A.06.06,0,0,0,8.24,9.93Z"/><path class="cls-2" d="M3.39,8a5.77,5.77,0,0,0-.46,2.77c0,.31.27.88.74.87.24,0,.55-.2.73-1,0-.17,0-.31,0-.37s-.06-.22-.13,0c-.15.47-.59.81-1,.22a2.49,2.49,0,0,1,0-1.88c.07-.24.16-.6.16-.6C3.63,7.79,3.51,7.66,3.39,8Z"/><path class="cls-2" d="M4.1,3.23A4.38,4.38,0,0,0,3.49,5.7a4.1,4.1,0,0,0-1.8-2.22c-.1-.06-.29,0-.31.35s-.06.6.07.72A3.87,3.87,0,0,0,2,4.94c.06,0,.13,0,.14,0s.11-.24.23-.12A3.77,3.77,0,0,1,3.45,6.56c.06.15.2.16.23,0,.08-.52.12-1.43.16-1.71s.24-1.19.74-.77c.11.09.23.21.23.21s.23.29.3.13a1.14,1.14,0,0,0,.06-.81C5.13,3.47,4.52,2.7,4.1,3.23Z"/><path class="cls-2" d="M16.72,11.82a4.56,4.56,0,0,0-.46,2.11c0,.23.17.69.52.7.18,0,.41-.13.58-.7,0-.13.05-.23.06-.28s0-.17-.1,0c-.13.35-.48.6-.73.13a1.88,1.88,0,0,1,.1-1.44l.15-.45C16.91,11.69,16.82,11.58,16.72,11.82Z"/><path class="cls-2" d="M24.76,7.87A4.66,4.66,0,0,0,24.3,10c0,.23.17.69.52.7.18,0,.42-.14.58-.71,0-.12.05-.23.06-.28s0-.17-.09,0c-.14.35-.48.59-.74.13a2,2,0,0,1,.1-1.45c.07-.18.15-.44.15-.44C25,7.73,24.87,7.62,24.76,7.87Z"/><path class="cls-2" d="M25,5c-.28.12-9.87,4.76-10.15,4.89s-.36.2-.41.4-.08.3-.1.34-.1.27.3.06c.13-.06,9.8-4.7,10-4.83s.35-.17.45-.38.12-.24.17-.38S25.43,4.8,25,5Z"/><path class="cls-2" d="M17.29,2.61a4.28,4.28,0,0,0-.19,2.54A4.08,4.08,0,0,0,15,3.27c-.1,0-.28.09-.24.4s0,.6.18.7a4.46,4.46,0,0,0,.61.29c.07,0,.14,0,.14-.06s.06-.25.2-.15A3.76,3.76,0,0,1,17.21,6c.08.14.22.13.22-.09,0-.53-.13-1.43-.14-1.71s0-1.22.6-.89a2.77,2.77,0,0,1,.26.18c.13.11.28.24.32.07a1.11,1.11,0,0,0-.07-.81C18.34,2.68,17.61,2,17.29,2.61Z"/><path class="cls-2" d="M21.79,2.36a4.4,4.4,0,0,0-.46,2.11c0,.23.16.68.51.69.19,0,.42-.13.59-.7a1.57,1.57,0,0,1,.06-.28c0-.08,0-.17-.1,0-.13.35-.48.59-.74.12a2,2,0,0,1,.11-1.44c.06-.18.14-.45.14-.45C22,2.22,21.89,2.11,21.79,2.36Z"/><path class="cls-2" d="M28.59,11.6,27.12,4.7l.81.68c.11.1.23,0,.16-.14s-1.61-3.32-1.66-3.43-.1-.19-.14-.06l-.42,1.11a4.88,4.88,0,0,1,.23.77c.11.49,2.09,10.5,2.2,11s.14.82-.11,1a3.23,3.23,0,0,1-3.53.53,3.72,3.72,0,0,1-.72-.57c.89-.5,1.85-1,2.62-1.35.1-.34.28-1.28.28-1.28a9.94,9.94,0,0,0-7,.06,1.29,1.29,0,0,0-.65.65,4.69,4.69,0,0,0-.13.75c0,.12.06.22.17.14A1.81,1.81,0,0,1,21,14.43a7.42,7.42,0,0,1,1.2,1,16.44,16.44,0,0,1-1.48.73c-.47.21-4.58,2.27-6.33-.37-.42-.53-.92-2.58-1.61-6.92-.15-.92-.93-5.47-1-5.85s-.2-.07-.26.06-.33,1-.33,1c0,.33.76,4.51.83,5,0,.28.34,2,.6,3.44a3.74,3.74,0,0,1-2.09,2.07,5.1,5.1,0,0,0-.61-1.09c-1-1.44-1.94-.76-2.22-.54-.91.73-1.21,2.36-.21,3a3.11,3.11,0,0,0,2.38.1l.38-.11c.16.7,0,1.73-2.66,3.37-3.14,2-4.9.9-5.28.73C0,19,.9,15.64,1,15.2c0,0,0-.07,0-.11h0c.32,0,.72-.31.95-1.49,0-.27.05-.48.07-.59s-.09-.34-.17,0c-.2.72-.78,1.26-1.29.33a4.48,4.48,0,0,1,0-3c.1-.37.21-.93.21-.93.1-.42-.06-.64-.21-.12a10.52,10.52,0,0,0-.58,4.35A1.84,1.84,0,0,0,.76,15a13.1,13.1,0,0,0-.51,2.63c-.14,2.42,1.15,3.64,2.39,4,3,.78,5.62-1.37,6-1.64,2.08-1.48,2.13-2.87,2.14-3.19a6,6,0,0,0,0-1,4,4,0,0,0,2-2.09c.07.41.14.72.18.88.18.73.58,4.17,4.78,3.93a9.19,9.19,0,0,0,3.54-1.24c.21-.11.86-.51,1.68-1A5.74,5.74,0,0,0,25.75,18a2.85,2.85,0,0,0,3.11-2.51A12.16,12.16,0,0,0,28.59,11.6ZM7.84,14.7c-.28-.13-.19-.3,0-.43a1.4,1.4,0,0,1,1.29.06,2,2,0,0,1,.55.49A3.86,3.86,0,0,1,7.84,14.7Zm14.25-.93a11.54,11.54,0,0,1,2.86,0s-.8.5-1.76,1.06A12.62,12.62,0,0,0,22.09,13.77Z"/><path class="cls-2" d="M30.24,1.71l-.45,1.12c0,.06.12.48.14.65.18,1.41,1.35,9.8,1.68,12.45.16,1.31.29,2.48.31,3.11,0,.2.07.27.16.08a4,4,0,0,0,.31-1.6,21.56,21.56,0,0,0-.26-3.8c0-.25-1.24-9-1.24-9l.76.72c.1.11.23.05.17-.13s-1.4-3.41-1.44-3.52S30.29,1.58,30.24,1.71Z"/><path class="cls-2" d="M14.82.06l-5,2.17a4.85,4.85,0,0,0-2,1.35c-.49.8-.25,1.25,0,1.39a1.13,1.13,0,0,1,.47.51c.55-1-.19-.86-.53-1.33-.17-.24,1.2-1,2.29-1.48,3.15-1.39,4.59-2,4.63-2a.17.17,0,0,0,.1-.08S15,.12,15,0,14.91,0,14.82.06Z"/></g></g></g></svg>