<svg xmlns="http://www.w3.org/2000/svg" viewBox="0 0 32.89 23.04"><defs><style>.cls-1{isolation:isolate;}.cls-2{fill-rule:evenodd;mix-blend-mode:darken;}</style></defs><g class="cls-1"><g id="Layer_2" data-name="Layer 2"><g id="سور_الٌقرآن_الكريم" data-name="سور الٌقرآن الكريم"><path class="cls-2" d="M11.35,19.21c-.24.12-5.34,2.11-5.58,2.25s-.33.17-.37.34l-.09.31c0,.11-.09.26.27.06.11-.06,5.26-2.08,5.45-2.2s.32-.15.41-.33a3.11,3.11,0,0,0,.16-.34C11.65,19.17,11.7,19,11.35,19.21Z"/><path class="cls-2" d="M19.56,17.2c-.23.12-5.34,2.12-5.58,2.25s-.32.17-.37.34-.07.28-.08.31-.09.26.26.06c.11-.06,5.26-2.08,5.46-2.19s.31-.16.4-.34.11-.21.16-.33S19.92,17,19.56,17.2Z"/><path class="cls-2" d="M26.51,17.09a4.92,4.92,0,0,0-.5,2.27c0,.25.18.74.56.75.19,0,.45-.14.63-.75,0-.14.05-.25.06-.31s0-.18-.11,0c-.14.38-.51.64-.79.14a2.16,2.16,0,0,1,.11-1.56c.07-.19.16-.48.16-.48C26.71,16.94,26.62,16.82,26.51,17.09Z"/><path class="cls-2" d="M21.88,9.94l-.64.88a.06.06,0,0,0,0,.09l1.1.81a.07.07,0,0,0,.09,0l.65-.89a.06.06,0,0,0,0-.08L22,9.92A.07.07,0,0,0,21.88,9.94Z"/><path class="cls-2" d="M16.5,8.47a1,1,0,0,0,0,.69c.11.27.38.89.43,1a.17.17,0,0,1-.1.26.69.69,0,0,1-1-.53,7.47,7.47,0,0,0-.2-1.09c-.07-.13-.13-.14-.18,0a3,3,0,0,0-.09.43.27.27,0,0,0,0,.12s.31.88.18,1.11-.75.64-1.08.21a3.64,3.64,0,0,1-.06-1.25c0-.18-.06-.24-.13-.09a.7.7,0,0,0-.12.37,8.05,8.05,0,0,1,0,.86c0,.17,0,.74.34.9s.82,0,1.2-.68a.82.82,0,0,0,.95.33,1,1,0,0,0,.48-.78A1.32,1.32,0,0,0,17,9.35a3.62,3.62,0,0,1-.29-.77C16.62,8.41,16.58,8.23,16.5,8.47Z"/><path class="cls-2" d="M5.09,11.69a5.85,5.85,0,0,0-.57,2.64c0,.29.21.86.65.88.23,0,.52-.17.73-.88,0-.16.06-.29.07-.36s0-.21-.12,0c-.17.44-.6.75-.92.16a2.4,2.4,0,0,1,.13-1.81c.08-.22.18-.56.18-.56C5.33,11.52,5.22,11.38,5.09,11.69Z"/><path class="cls-2" d="M7.86,7.43A5,5,0,0,0,7.37,9.7c0,.25.18.74.56.75.19,0,.45-.14.63-.76,0-.14,0-.25.06-.3s0-.18-.11,0c-.14.37-.51.64-.79.13A2.13,2.13,0,0,1,7.83,8c.07-.2.16-.49.16-.49C8.07,7.28,8,7.16,7.86,7.43Z"/><path class="cls-2" d="M21.3,3.9a.87.87,0,0,0,0,.69c.1.27.38.89.42,1a.16.16,0,0,1-.09.26.69.69,0,0,1-1-.54,5.59,5.59,0,0,0-.21-1.08c-.06-.13-.12-.14-.17,0a3,3,0,0,0-.09.43.14.14,0,0,0,0,.12s.3.87.18,1.1-.75.64-1.08.21a3.35,3.35,0,0,1-.06-1.24c0-.18-.06-.24-.14-.1a.71.71,0,0,0-.11.37c0,.13,0,.69,0,.87s0,.74.33.9.83,0,1.2-.69a.82.82,0,0,0,.95.34,1,1,0,0,0,.49-.79,1.35,1.35,0,0,0-.17-.92A3.1,3.1,0,0,1,21.48,4C21.42,3.84,21.37,3.66,21.3,3.9Z"/><path class="cls-2" d="M24.76,5.05a2,2,0,0,0-.16-1.51c-.07-.13-.5-.54-1,.24-.21.3-.38,1-.1,1.24a4.16,4.16,0,0,0,.69.39,18.72,18.72,0,0,1-4,3.5c-.2.11-.16.22,0,.19A9.63,9.63,0,0,0,22.4,7.86a10,10,0,0,0,2.08-2.32s.32.29.36.34S25,6.1,25,6A.71.71,0,0,0,24.76,5.05Zm-.3-.2-.54-.27c-.17-.08-.26-.19-.17-.29.27-.36.4-.35.5-.29A1,1,0,0,1,24.46,4.85Z"/><path class="cls-2" d="M6,2.5a5.21,5.21,0,0,0-.51,3A4.75,4.75,0,0,0,3.18,3c-.11-.06-.33.08-.33.44,0,.2,0,.71.14.85a4.67,4.67,0,0,0,.67.41c.08,0,.15,0,.17-.05s.1-.3.24-.16A3.92,3.92,0,0,1,5.36,6.2C5.63,7,3.66,8.9,3.55,9s-.11.24,0,.18a8,8,0,0,0,1.21-.86,2.35,2.35,0,0,0,1-1.82s0,0,0-.09c0-.62,0-1.7,0-2S6,3,6.58,3.4c.13.1.28.24.28.24s.3.31.36.13a1.41,1.41,0,0,0,0-1C7.17,2.7,6.4,1.84,6,2.5Z"/><path class="cls-2" d="M12.4,1.7A4.92,4.92,0,0,0,11.9,4c0,.25.19.74.56.75.2,0,.45-.14.63-.75l.06-.3c0-.09,0-.19-.1,0-.15.38-.52.64-.79.14a2,2,0,0,1,.11-1.56c.07-.19.15-.48.15-.48C12.6,1.55,12.51,1.43,12.4,1.7Z"/><path class="cls-2" d="M18.19,12.61a.87.87,0,0,0-1.25,0,5.83,5.83,0,0,0-1.24,2c-.2.51-.68,1.91-2.1,1.92a1.87,1.87,0,0,1-2-1.29,17.31,17.31,0,0,1-.59-2.88c-.06-.46-.64-4.84-.75-5.49s-.88-5-.94-5.23-.14-.14-.19-.06-.27,1-.32,1.18a3.07,3.07,0,0,0,.06,1.13C9,4.29,10,10.53,10.07,11s.35,2.19.35,2.38A1.71,1.71,0,0,1,10,14.77c-.54.64-2.91,3.37-5.56,3.69-.32.05-2.3.46-3.33-1A4.45,4.45,0,0,1,1,13.15.3.3,0,0,0,1.09,13c.31,0,.68-.35,1-1.42.06-.26.09-.47.11-.57S2.1,10.64,2,11c-.25.71-.86,1.21-1.31.24a4.51,4.51,0,0,1,.21-3c.12-.37.27-.91.27-.91.13-.42,0-.65-.21-.14a10.74,10.74,0,0,0-.86,4.31C.11,12,.34,12.8.85,13a.62.62,0,0,0-.08.12c-.19.41-1.86,4.12.42,6.07.51.43,2.45,1.65,5.65-.34a11.31,11.31,0,0,0,3.31-2.87,2.59,2.59,0,0,0,.48-1.17c.13.32.55,2.72,2.2,3a2.5,2.5,0,0,0,2.63-1.29c.12-.25.46-1,.46-1a3.93,3.93,0,0,0,2.31.77,1,1,0,0,0,1-.9A3.76,3.76,0,0,0,18.19,12.61ZM18,14.83a3.39,3.39,0,0,1-1.56-.57,1.56,1.56,0,0,1,.56-.55c.53-.29,1.07.49,1.22.81S18.25,14.84,18,14.83Z"/><path class="cls-2" d="M30.71,14.5c-.21-.15-.55-.5-1.9-.19l-.38.13c-.05-.14-.09-.28-.12-.39-.12-.54-.73-4.11-.73-4.11s-.79-5.51-.91-5.86c.1.08.65.6.75.7s.23,0,.17-.12-1.23-3.09-1.27-3.2-.09-.2-.14-.07-.49,1.08-.49,1.08a4.24,4.24,0,0,1,.19.79c.07.47.1,1.13.21,1.87,0,0,1.26,8.47,1.32,8.78,0,.11.07.43.17.84l-.25.09a4.28,4.28,0,0,1-3.91.06,8.34,8.34,0,0,0-.68-1.55c-.13-.27-.21,0-.25.11s-.2.93-.2.93c.25.6,1.22,2.64.95,3C21.6,19.9,12.9,22.69,12.9,22.69c-.38.12-.84.33-.31.35s5.15-.84,5.15-.84c.68-.28,5.28-2.54,5.77-4.06a5,5,0,0,0,.21-1.52A6.72,6.72,0,0,0,27,16.23c.13-.06.52-.22,1-.37a4.09,4.09,0,0,0,.9,1.43c.19.19,1.5,1.09,2,0C30.91,17.16,31.66,15.29,30.71,14.5Zm-.33,2a1.64,1.64,0,0,1-1.27-.58,1.62,1.62,0,0,1-.19-.32,2,2,0,0,1,.6-.06,1.51,1.51,0,0,1,1,.51C30.64,16.18,30.66,16.44,30.38,16.46Z"/><path class="cls-2" d="M30.73,1.39c-.06.13-.46,1.11-.46,1.11s.12.49.14.65C30.6,4.57,31.76,13,32.1,15.63c.16,1.31.29,2.48.31,3.11,0,.2.07.27.16.08a4.24,4.24,0,0,0,.31-1.6,21.66,21.66,0,0,0-.26-3.81c0-.25-1.24-9-1.24-9l.76.72c.1.11.23,0,.17-.13s-1.4-3.41-1.44-3.53S30.78,1.26,30.73,1.39Z"/><path class="cls-2" d="M15.82,1.34A8.76,8.76,0,0,0,14.93,5c0,.41.22,1.23.77,1.27.29,0,.67-.2,1-1.2.06-.22.09-.4.12-.49s-.05-.3-.16,0c-.24.6-.8,1-1.18.17a3.8,3.8,0,0,1,.28-2.54L16,1.47C16.13,1.11,16,.91,15.82,1.34Z"/><path class="cls-2" d="M23.91.09c-.23.11-5.34,2.11-5.58,2.25S18,2.5,18,2.68a2,2,0,0,1-.09.3c-.05.12-.09.26.27.06C18.25,3,23.4,1,23.6.85s.31-.15.4-.33a3.11,3.11,0,0,0,.16-.34C24.21.05,24.27-.1,23.91.09Z"/></g></g></g></svg>