<svg xmlns="http://www.w3.org/2000/svg" viewBox="0 0 32.44 20.98"><defs><style>.cls-1{fill-rule:evenodd;}</style></defs><g id="Layer_2" data-name="Layer 2"><g id="سور_الٌقرآن_الكريم" data-name="سور الٌقرآن الكريم"><path class="cls-1" d="M9.79,18c-.23.11-4,2-4.29,2.18s-.3.21-.32.39a3.06,3.06,0,0,1,0,.31c0,.12-.08.23.27,0,.17-.1,3.94-2,4.18-2.12s.29-.19.35-.38.08-.23.11-.36S10.13,17.78,9.79,18Z"/><path class="cls-1" d="M23.58,18l-.15.24c0,.07,0,.17.1,0s.65-.39.73.14a2,2,0,0,1-.6,1.31c-.13.15-.3.37-.3.37-.13.16-.09.3.09.1a4.54,4.54,0,0,0,1.17-1.81c.06-.22.08-.7-.25-.84C24.2,17.45,23.94,17.49,23.58,18Z"/><path class="cls-1" d="M29.92,17l-.15.25c-.05.06,0,.17.09,0s.66-.38.73.14c0,.1,0,.56-.6,1.32l-.29.36c-.14.17-.09.3.09.11A4.61,4.61,0,0,0,31,17.4c.07-.22.08-.7-.24-.83S30.28,16.55,29.92,17Z"/><path class="cls-1" d="M5.59,8.8a10.68,10.68,0,0,0-.92,4.29c0,.48.27,1.41.89,1.45.32,0,.74-.25,1.07-1.41l.11-.57c0-.16-.06-.35-.17,0-.25.71-.87,1.19-1.31.22a4.48,4.48,0,0,1,.26-2.94c.12-.36.28-.91.28-.91C5.93,8.53,5.79,8.3,5.59,8.8Z"/><path class="cls-1" d="M4.83,1.58a5.19,5.19,0,0,0-.51,3A4.76,4.76,0,0,0,2.06,2.06C2,2,1.73,2.14,1.73,2.5s0,.71.13.85a5.29,5.29,0,0,0,.67.41c.08,0,.15,0,.17,0s.1-.29.25-.16A4.25,4.25,0,0,1,4.23,5.27C4.49,6.1,2.52,8,2.41,8s-.11.24,0,.19a11.17,11.17,0,0,0,1.21-.86,2.32,2.32,0,0,0,1-1.81s0,0,0-.09c.05-.62,0-1.69.06-2s.18-1.42.79-1c.13.1.28.24.28.24s.3.32.36.13a1.38,1.38,0,0,0,0-1C6,1.79,5.27.93,4.83,1.58Z"/><path class="cls-1" d="M20.29,10.2A5.52,5.52,0,0,0,19.78,13c0,.3.3.87.8.86.26,0,.58-.2.77-1,0-.17,0-.3.07-.37s-.07-.21-.14,0c-.16.46-.64.81-1,.22-.07-.12-.35-.65,0-1.88.08-.24.18-.59.18-.59C20.54,10,20.41,9.87,20.29,10.2Z"/><path class="cls-1" d="M23.7,9.65l-.65.89a.06.06,0,0,0,0,.08l1.11.81a.07.07,0,0,0,.08,0l.65-.89a.06.06,0,0,0,0-.08l-1.1-.8A.05.05,0,0,0,23.7,9.65Z"/><path class="cls-1" d="M15.27,9.79a4.23,4.23,0,0,0-.61.88c-.16.24,0,.35.21.16a.85.85,0,0,1,.82-.36c.51,0,1.74,0,1.28.3s-.77.53-.77.53c-.3.22-.56.62,0,.4a3.8,3.8,0,0,0,1.76-1.38c.15-.24.34-.55-.39-.66S15.64,9.38,15.27,9.79Z"/><path class="cls-1" d="M23.93,5.21a1,1,0,0,0,0,.76c.11.3.42,1,.47,1.08s.07.21-.1.28a.76.76,0,0,1-1.09-.59A7,7,0,0,0,23,5.54c-.07-.14-.14-.16-.19,0a2.67,2.67,0,0,0-.1.47.15.15,0,0,0,0,.13c0,.06.34,1,.2,1.23s-.83.71-1.2.23a3.88,3.88,0,0,1-.06-1.38c0-.19-.07-.26-.15-.1a.78.78,0,0,0-.13.41c0,.14,0,.76,0,1s0,.83.38,1,.91,0,1.32-.76a.9.9,0,0,0,1.06.36,1.09,1.09,0,0,0,.53-.86,1.43,1.43,0,0,0-.19-1,3.61,3.61,0,0,1-.31-.85C24.07,5.14,24,4.94,23.93,5.21Z"/><path class="cls-1" d="M14.31,1.26a4.7,4.7,0,0,0-.66,2.66,4.37,4.37,0,0,0-1.94-2.39c-.1-.06-.31.05-.33.38s-.06.65.07.78a3.73,3.73,0,0,0,.6.42c.06,0,.13.05.15,0s.11-.27.24-.13a3.93,3.93,0,0,1,1.17,1.9c.06.16.21.18.24,0C13.94,4.24,14,3.25,14,3s.26-1.28.79-.84l.25.24c.11.14.25.3.32.14a1.24,1.24,0,0,0,.07-.88C15.41,1.52,14.76.69,14.31,1.26Z"/><path class="cls-1" d="M25.16,1.13c-.21.14-12.88,7-13.49,7.55a1.92,1.92,0,0,0-.62,1.11c-.11.64.07,1.25.48,1.3a.87.87,0,0,1,.54.29s.08,0,.09,0a.76.76,0,0,0-.57-1.18c-.22-.06-.33-.36.46-.91s12.7-7.06,12.86-7.18.35-.23.43-.46a4.1,4.1,0,0,0,.14-.43C25.52,1,25.56.86,25.16,1.13Z"/><path class="cls-1" d="M27.05.07l-.43,1.1a2.05,2.05,0,0,1,.18.48c.38,2.26,1.93,11.91,2,12.43s.38,1.24-1.23,1.59a1.5,1.5,0,0,1-1.91-1.35,2,2,0,0,1,0-.45c0-.15,0-.56-.4-.26a9.08,9.08,0,0,1-5.21,2.46,5.14,5.14,0,0,1-4.38-1.63c-.14-.09-.24,0-.35.12s-.87,1.56-1.54,1.82-2.64.7-3.55-2.23c-.13-.51-.72-4.64-.72-4.64A80.45,80.45,0,0,0,8.14,1.34c-.07-.25-.13-.38-.29,0s-.35,1-.35,1c.11.63,1.65,9.73,1.6,11.32a1.4,1.4,0,0,1-.36,1.07c-.37.47-3.1,3.61-6.18,2.94-.36-.08-3.38-.75-1.45-5.76.28-.11.59-.46.85-1.37,0-.26.09-.47.12-.58S2,9.6,1.9,10c-.25.71-.87,1.19-1.31.23A4.56,4.56,0,0,1,.85,7.24c.12-.37.28-.91.28-.91.13-.41,0-.64-.21-.14A10.64,10.64,0,0,0,0,10.48c0,.43.23,1.23.73,1.41a.08.08,0,0,0,0,0c-.19.49-2.11,6,1.66,7.11.35.1,3.05.48,6.14-2.8a3.06,3.06,0,0,0,.93-1.7s.33.75.68,1.49a3,3,0,0,0,2.51,1.86,3,3,0,0,0,2.68-1.83c0,.39-.17,2.45,1.88,3,.3.08.62.07.68-.23s.16-1.58.16-1.58a7.67,7.67,0,0,0,7.07-2.28,2,2,0,0,0,2.22,2c.34,0,2.25-.16,2.13-3,0-.48-.57-4.26-.57-4.26L27.7,3.05l.76.73c.1.11.23.05.17-.13S27.23.24,27.19.13,27.11-.06,27.05.07Z"/><path class="cls-1" d="M30.28.07c-.06.13-.37,1-.37,1,.08.57.83,6.66.88,7.08S31.9,15.46,32,17.37c0,.19.07.27.16.08s.71-1.46,0-6.12c-.06-.39-1.16-8.28-1.16-8.28s.65.62.75.73.23.05.17-.13S30.46.24,30.42.13,30.33-.06,30.28.07Z"/></g></g></svg>