<svg xmlns="http://www.w3.org/2000/svg" viewBox="0 0 34.74 19.99"><defs><style>.cls-1{isolation:isolate;}.cls-2{fill-rule:evenodd;mix-blend-mode:darken;}</style></defs><g class="cls-1"><g id="Layer_2" data-name="Layer 2"><g id="سور_الٌقرآن_الكريم" data-name="سور الٌقرآن الكريم"><path class="cls-2" d="M9.44,18c-.2.11-4,1.17-4.18,1.3s-.28.17-.32.32-.05.25-.06.28-.07.24.24,0c.09-.06,3.9-1.14,4.08-1.24s.27-.15.34-.32a1.34,1.34,0,0,0,.13-.3C9.72,17.9,9.76,17.78,9.44,18Z"/><path class="cls-2" d="M18.85,16.09a4.55,4.55,0,0,0-.45,2.07c0,.23.16.67.51.68.17,0,.4-.13.57-.69,0-.12,0-.22.05-.27s0-.17-.09,0c-.13.34-.47.58-.72.12a1.92,1.92,0,0,1,.1-1.41l.14-.44C19,16,19,15.85,18.85,16.09Z"/><path class="cls-2" d="M23.94,13.56a6.52,6.52,0,0,0-.41,2.88c0,.31.26.92.7.91.22,0,.5-.21.67-1,0-.18,0-.32.05-.39s-.06-.22-.12,0c-.14.48-.55.83-.9.22a2.85,2.85,0,0,1,0-2c.07-.25.15-.61.15-.61C24.16,13.36,24.05,13.21,23.94,13.56Z"/><path class="cls-2" d="M5.17,10a9.32,9.32,0,0,0-.62,3.88c0,.43.31,1.25.86,1.26.29,0,.66-.26.89-1.32,0-.23.06-.42.08-.52s-.07-.3-.16,0c-.19.65-.72,1.11-1.16.27a4.09,4.09,0,0,1,.09-2.65c.09-.33.2-.82.2-.82C5.46,9.72,5.31,9.52,5.17,10Z"/><path class="cls-2" d="M16,9.06a4.5,4.5,0,0,0-.5,2.16c0,.24.18.7.56.71.19,0,.45-.13.62-.72a2.74,2.74,0,0,1,.07-.28c0-.08,0-.18-.11,0-.14.36-.51.61-.79.13A1.93,1.93,0,0,1,16,9.59c.07-.19.16-.46.16-.46C16.21,8.92,16.12,8.81,16,9.06Z"/><path class="cls-2" d="M8.75,7.9l-.58.79a.05.05,0,0,0,0,.08l1,.72a.06.06,0,0,0,.08,0l.58-.8a0,0,0,0,0,0-.07l-1-.72A0,0,0,0,0,8.75,7.9Z"/><path class="cls-2" d="M25.47,11c-.26.15-3,1.5-3.42,1.59a2.09,2.09,0,0,1-2-.32,3.93,3.93,0,0,1-1.54-1.85c-.07-.22-.08-.45.29-.72a6.33,6.33,0,0,1,4.2-1c.5.15.64.06.33-.23a4.51,4.51,0,0,0-2.45-.59A3.25,3.25,0,0,0,18.62,9a2.85,2.85,0,0,0-.39,3,4.52,4.52,0,0,0,1.55,1.58c-.33.16-3,1.64-3.47,2-1.25.82-2.38,2.49-2.86,2.76-.7.45-2.74,1.1-2.37-1.41.13-.57.54-1.65.6-1.82a.31.31,0,0,0,0-.14s0-.05,0-.08a2.94,2.94,0,0,0,.11-1.75c-.75-2.85-2.09-2.83-2.74-2.58a1.78,1.78,0,0,0-.52.41c-.39.51-1,1.62-.16,2.38a2.79,2.79,0,0,0,1.91.25.91.91,0,0,1,1.07.56c0,.15-.13.35-.53.58s-5.15,2.82-8.09,2A2.59,2.59,0,0,1,.54,14.05a7.93,7.93,0,0,1,.33-1.41.43.43,0,0,0,.22.06c.29,0,.66-.26.89-1.31,0-.24.06-.43.08-.52s-.07-.31-.16,0c-.19.64-.72,1.1-1.16.26A4.09,4.09,0,0,1,.83,8.5c.09-.33.2-.82.2-.82.11-.38,0-.57-.18-.12a9.32,9.32,0,0,0-.62,3.88,1.89,1.89,0,0,0,.41,1c-.31.69-1.57,3.33.61,4.93.44.3,2,1.31,5.63.22a14.13,14.13,0,0,0,4.18-1.91c-.4,1.19-.84,3.42.82,4,.56.14,1.68.38,3.13-1.55a8,8,0,0,1,1.84-1.79,20.94,20.94,0,0,1,2.73-1.47c1.1-.55,5.6-2.57,5.66-2.66s.34-.85.41-1S25.72,10.89,25.47,11ZM10,12.43a1.53,1.53,0,0,1-1,0c-.46-.15-.27-.62.05-.73.14,0,.72-.27,1.44.66A2.1,2.1,0,0,0,10,12.43Z"/><path class="cls-2" d="M18.84,6a2.93,2.93,0,0,0-.45.64c-.12.18,0,.26.16.12a.63.63,0,0,1,.6-.27c.37,0,1.28,0,.94.22s-.57.4-.57.4c-.22.15-.41.45,0,.29a2.83,2.83,0,0,0,1.3-1c.11-.17.24-.4-.29-.48S19.12,5.64,18.84,6Z"/><path class="cls-2" d="M18.85,4c-.21.13-4.19,2.11-4.4,2.26s-.29.18-.32.35-.05.27-.06.3-.06.25.26,0c.1-.07,4.12-2.07,4.29-2.2s.28-.17.35-.34a2.35,2.35,0,0,0,.12-.33C19.13,3.92,19.17,3.78,18.85,4Z"/><path class="cls-2" d="M9.38,2.84A5.13,5.13,0,0,0,9,5.22c0,.26.23.76.63.75.2,0,.46-.17.61-.82,0-.15,0-.26,0-.32s-.06-.19-.11,0c-.13.39-.5.69-.82.18a2.11,2.11,0,0,1,0-1.62c.06-.2.14-.5.14-.5C9.59,2.67,9.48,2.56,9.38,2.84Z"/><path class="cls-2" d="M30.35,2.26l-.41.88c0,.29.6,4.36.95,7.56a26.89,26.89,0,0,1,.35,3.87,2,2,0,0,1-.33.68,5.67,5.67,0,0,0-.51-2.7c-.88-2-4.41-4.12-5.65-6.09a.1.1,0,0,1,0,0l.6.15c.13,0,.34,0,.2-.1s-2-1.38-2.19-1.53-.27-.25-.27-.1,0,1,0,1.07a.26.26,0,0,0,.12.23,11.13,11.13,0,0,1,.89,1A32.9,32.9,0,0,0,28,11c.3.26,2.62,2.4,2.66,4.31,0,.12,0,.22,0,.32A12.79,12.79,0,0,1,25.05,19c-.43.2-.26.33,0,.29s4.26-.4,6-3a5.89,5.89,0,0,0,.64-4.14c-.08-.67-.85-7.3-.85-7.3s.56.54.65.64.21,0,.16-.11-1.15-2.95-1.19-3S30.4,2.15,30.35,2.26Z"/><path class="cls-2" d="M33.16,2.17l-.43,1s.09.44.11.58c.13,1.28,1,8.81,1.21,11.19.12,1.17.2,2.22.21,2.79,0,.17.05.24.14.07a3.85,3.85,0,0,0,.31-1.43,19.07,19.07,0,0,0-.14-3.4c0-.23-.9-8.09-.9-8.09s.57.56.66.66.21,0,.16-.11-1.17-3.08-1.21-3.19S33.21,2.06,33.16,2.17Z"/><path class="cls-2" d="M22.49,2.16c-.5.21-1,.95-.85,1.25a2,2,0,0,0,.45.49c-.16.08-.33.12-.38.28a.91.91,0,0,0-.08.31c0,.06,0,.1.07.08l.14,0a11.27,11.27,0,0,1,2-.71A1.6,1.6,0,0,0,24,3.47c0-.12-.1-.11-.3-.08s-.94.21-1.3-.13-.36-.42-.24-.48.47-.27.66,0,.2.15.26.06.23-.33.18-.44A.5.5,0,0,0,22.49,2.16Z"/><path class="cls-2" d="M5.29,2.26a4,4,0,0,0-.4,2.37A3.87,3.87,0,0,0,3,2.67c-.1,0-.27.06-.27.35s0,.57.11.68A5.64,5.64,0,0,0,3.43,4c.06,0,.12,0,.14,0s.07-.23.2-.14A3.58,3.58,0,0,1,4.8,5a1.32,1.32,0,0,1-.26,1.51C4.32,6.84,3.4,7.64,3.18,8s.49-.12,1.34-.89.63-3,.63-3.31S5.3,2.62,5.79,3A2.33,2.33,0,0,1,6,3.17c.1.12.24.25.29.1a1.07,1.07,0,0,0,0-.77C6.27,2.42,5.65,1.73,5.29,2.26Z"/><path class="cls-2" d="M12.19,2c0,.12-.31.91-.31.91.09.51.76,4.22.81,4.59s1.48,6.69,1.23,9.25c0,.18.07.24.14.07s.9-1.67-.07-6.5c-.06-.35-1.14-5.66-1.14-5.66l.7.63c.09.1.21,0,.15-.11s-1.34-3-1.38-3.12S12.23,1.92,12.19,2Z"/><path class="cls-2" d="M27.61,2.18a3.92,3.92,0,0,0-.14,2.3,3.65,3.65,0,0,0-2-1.68c-.09,0-.25.09-.21.36s0,.55.17.64a3.5,3.5,0,0,0,.56.25c.06,0,.12,0,.12,0s.05-.23.18-.15a3.6,3.6,0,0,1,1.25,1.4c.07.12.2.11.19-.08,0-.48-.13-1.3-.14-1.55s0-1.09.53-.81L28.4,3c.11.1.25.21.29.07a1.09,1.09,0,0,0-.08-.74C28.56,2.23,27.89,1.65,27.61,2.18Z"/><path class="cls-2" d="M15.26,1.1a4.38,4.38,0,0,0-.3,2c0,.22.21.63.54.62.17,0,.38-.15.5-.7,0-.12,0-.22,0-.27s0-.15-.09,0c-.1.33-.41.59-.69.16a1.84,1.84,0,0,1,0-1.36c.05-.18.11-.44.11-.44C15.42,1,15.34.86,15.26,1.1Z"/><path class="cls-2" d="M23.64.09C23.41.22,20,1.83,19.79,2s-.32.17-.37.35-.06.28-.07.31-.09.27.26.06C19.72,2.63,23.15,1,23.34.87s.32-.16.4-.35a1.77,1.77,0,0,0,.15-.34C23.94.05,24-.1,23.64.09Z"/></g></g></g></svg>