<svg xmlns="http://www.w3.org/2000/svg" viewBox="0 0 34.54 19.32"><defs><style>.cls-1{isolation:isolate;}.cls-2{fill-rule:evenodd;mix-blend-mode:darken;}</style></defs><g class="cls-1"><g id="Layer_2" data-name="Layer 2"><g id="سور_الٌقرآن_الكريم" data-name="سور الٌقرآن الكريم"><path class="cls-2" d="M7,17.5,3.9,18.6c-.23.09-.29.15-.34.31a2.54,2.54,0,0,1-.08.28c0,.11-.1.2.25.06.16-.07,2.7-.94,2.94-1.05A.6.6,0,0,0,7,17.9l.15-.31C7.24,17.47,7.29,17.39,7,17.5Z"/><path class="cls-2" d="M17.33,16.3c-.21.11-3.27,1.35-3.49,1.48s-.3.15-.34.31-.07.26-.08.28-.08.24.24.06c.11-.06,3.2-1.32,3.38-1.42s.29-.14.37-.31a1.42,1.42,0,0,0,.15-.31C17.61,16.27,17.66,16.14,17.33,16.3Z"/><path class="cls-2" d="M19.13,15.41c0,.09-.22.4-.25.46s0,.14.05.09,0-.31.85-.3c.11,0,.16,0,.11.1a3.38,3.38,0,0,0-1,1.53c-.23,1.23.95,1,1.19.91a3.47,3.47,0,0,0,1.49-1.29c.08-.12.12-.31-.05-.13a3,3,0,0,1-1.79.95c-.64-.05-.74-.59-.57-.86s.8-.88.92-1.05a2.23,2.23,0,0,0,.2-.4c.06-.18.09-.29-.09-.3S19.4,15,19.13,15.41Z"/><path class="cls-2" d="M27.75,14.79a4.29,4.29,0,0,0-.42,1.94c0,.22.15.64.47.65.17,0,.39-.12.54-.65,0-.12,0-.21.05-.26s0-.15-.09,0c-.12.32-.44.54-.67.11a1.78,1.78,0,0,1,.09-1.33c.06-.16.14-.41.14-.41C27.92,14.67,27.84,14.56,27.75,14.79Z"/><path class="cls-2" d="M32.51,13.91a4.31,4.31,0,0,0-.43,1.94c0,.21.16.63.48.64.17,0,.39-.12.54-.64,0-.12,0-.22,0-.26s0-.16-.09,0c-.12.32-.44.55-.67.12a1.8,1.8,0,0,1,.09-1.33l.14-.41C32.68,13.78,32.6,13.68,32.51,13.91Z"/><path class="cls-2" d="M5.4,7.78A4.59,4.59,0,0,0,4.91,10c0,.24.18.71.55.72.2,0,.44-.14.62-.72q0-.21.06-.3c0-.08,0-.17-.1,0-.14.36-.51.61-.78.13,0-.09-.23-.53.11-1.49.07-.19.15-.46.15-.46C5.6,7.64,5.51,7.52,5.4,7.78Z"/><path class="cls-2" d="M11,14.55l-.51.7-1-.72a0,0,0,0,0-.07,0l-.6.81a.06.06,0,0,0,0,.08l1,.74a0,0,0,0,0,.07,0l.52-.71,1,.72a.06.06,0,0,0,.08,0l.6-.82a.06.06,0,0,0,0-.08l-1-.74A.06.06,0,0,0,11,14.55Z"/><path class="cls-2" d="M27.85,7.6l-.51.7-1-.72a.06.06,0,0,0-.08,0l-.6.81a.06.06,0,0,0,0,.08l1,.74a.05.05,0,0,0,.08,0l.51-.71,1,.72s.07,0,.08,0L29,8.4a.06.06,0,0,0,0-.08l-1-.74A.07.07,0,0,0,27.85,7.6Z"/><path class="cls-2" d="M12.5,5.14a8.26,8.26,0,0,0-.42,3.31c0,.36.29,1.05.75,1,.24,0,.53-.23.7-1.13,0-.2,0-.36.05-.44s-.06-.26-.12,0c-.15.55-.58,1-1,.25a3.56,3.56,0,0,1,0-2.25c.07-.28.15-.71.15-.71C12.74,4.91,12.62,4.75,12.5,5.14Z"/><path class="cls-2" d="M26.75,3.56a.81.81,0,0,0,0,.63c.09.25.35.81.39.89s.05.17-.09.23a.63.63,0,0,1-.9-.48,6.29,6.29,0,0,0-.19-1c-.06-.11-.11-.13-.16,0a3.38,3.38,0,0,0-.08.39.22.22,0,0,0,0,.11s.28.8.16,1-.68.59-1,.19a3,3,0,0,1-.06-1.14c0-.16-.05-.22-.12-.08a.68.68,0,0,0-.11.34c0,.11,0,.63,0,.79s0,.68.31.82.76,0,1.09-.63a.76.76,0,0,0,.88.31.92.92,0,0,0,.44-.72,1.25,1.25,0,0,0-.16-.85,3.39,3.39,0,0,1-.26-.7C26.87,3.5,26.82,3.34,26.75,3.56Z"/><path class="cls-2" d="M4,1.58A4.26,4.26,0,0,0,3.75,4a3.88,3.88,0,0,0-1.9-1.86c-.1,0-.26.08-.23.37s0,.57.15.67a3.09,3.09,0,0,0,.54.3c.06,0,.12,0,.13-.05s.06-.24.18-.14A3.55,3.55,0,0,1,3.83,4.79c.07.13.19.13.2-.07C4,4.21,4,3.35,4,3.09s.07-1.15.56-.82l.24.18c.11.11.24.24.28.08a1.12,1.12,0,0,0,0-.77C4.93,1.68,4.29,1,4,1.58Z"/><path class="cls-2" d="M7.62,1.5a4.86,4.86,0,0,0-.5,2.26c0,.25.19.73.56.75.19,0,.45-.14.62-.75,0-.14,0-.25.07-.31s0-.18-.11,0c-.14.38-.51.64-.79.14a2.11,2.11,0,0,1,.12-1.55l.15-.48C7.82,1.35,7.73,1.24,7.62,1.5Z"/><path class="cls-2" d="M16.19,1.48a3.77,3.77,0,0,0-.56.82c-.15.22,0,.32.2.15a.77.77,0,0,1,.76-.34c.48,0,1.62,0,1.19.28s-.71.5-.71.5c-.28.2-.53.57,0,.37A3.41,3.41,0,0,0,18.67,2c.15-.22.32-.51-.36-.61S16.55,1.1,16.19,1.48Z"/><path class="cls-2" d="M27.62.94,18.3,5.48c-.26.12-.34.18-.39.36a2.24,2.24,0,0,1-.08.32c0,.12-.1.25.28.06.11-.06,9-4.36,9.21-4.48s.32-.17.41-.35A3.14,3.14,0,0,0,27.89,1C27.94.9,28,.77,27.62.94Z"/><path class="cls-2" d="M12.49.75a4.2,4.2,0,0,0-.23,2.4,3.88,3.88,0,0,0-1.91-1.87c-.09,0-.25.08-.23.37s0,.57.15.67a3.52,3.52,0,0,0,.55.3c.06,0,.12,0,.13-.05s.06-.24.18-.14A3.65,3.65,0,0,1,12.33,4c.07.13.2.13.2-.07,0-.51-.07-1.37-.07-1.63s.06-1.15.56-.82l.23.18c.11.11.25.23.29.09a1.09,1.09,0,0,0,0-.78C13.44.85,12.79.2,12.49.75Z"/><path class="cls-2" d="M31,9,29.9,2.49l.7.67c.1.1.21,0,.16-.12S29.6.23,29.56.13,29.48,0,29.43.07l-.45,1a4.59,4.59,0,0,1,.17.73c.07.44.16,1.08.26,1.78,0,0,1.36,7.65,1.42,8.67,0,.39.15.78-.1.94s-2.33,1.14-2.91-.85c.09-.29.1-.9-.24-.43a3.87,3.87,0,0,1-3.4,2.31c-.26,0-3.13.25-2.17-2.81l2-1a1.51,1.51,0,0,0,.42-.27,8.68,8.68,0,0,0,.32-.93c0-.13-.05-.1-.11-.14a24.39,24.39,0,0,0-7.95-.73c-.29,0-.94.27-1.28,1.28a1.5,1.5,0,0,0,.2,1.25,21.31,21.31,0,0,1,1.93,1.57l-.15.06a14.81,14.81,0,0,0-4.32,2.76c-1.14,1.26-2.52,3-3.91,2.86-.37-.05-2-.55-.05-4.74a3.41,3.41,0,0,1,2.91.36s.07-.5.07-.75.18-.56-.69-1a3.65,3.65,0,0,1-2.2-1.88C9,9.58,8.81,8,8.81,8s.52.42.58.45.14,0,.07-.18-1.12-1.94-1.16-2-.12-.14-.16,0-.27.9-.27.9.59,3.76,1.3,4.87a14.15,14.15,0,0,0-4.29,3c-.47.56-2.52,2.59-3.78,2.07-.36-.15-1.52-1.29.51-4.35a5.48,5.48,0,0,0,.32-.5c.29,0,.62-.35.81-1.36,0-.25.06-.45.07-.54s-.08-.31-.16,0c-.18.67-.71,1.16-1.19.31A4.32,4.32,0,0,1,1.48,8c.09-.34.19-.85.19-.85.1-.39-.06-.59-.2-.11A9.54,9.54,0,0,0,1,11a1.72,1.72,0,0,0,.6,1.17c-.68,1-3.24,5.25.21,6,.54.11,1.72-.09,3.14-1.65a15.7,15.7,0,0,1,2.24-2.08,7.6,7.6,0,0,1,1.36-.82l0,.07c-.49,1.1-2,5,1.11,5.42.59.07,1.74-.23,3.09-1.95a11.58,11.58,0,0,1,5.18-3.69l.45-.2a3.28,3.28,0,0,1,.26.43c.05.16.22.06.25-.16a1.57,1.57,0,0,0,0-.5l2.87-1.43c-.19.67-.83,3.09,1.17,3.75.32.09,3.3.61,4.56-1.84a1.9,1.9,0,0,0,2.23,1.29c.3-.06,1.75-.09,1.82-2.26A30.32,30.32,0,0,0,31,9ZM18.36,12a3.88,3.88,0,0,0-.55-.65c-.2-.2-1.7-1.37-1.76-1.42s-.15-.14.06-.24,2.42-.74,6.61.22C22.43,10.09,19.82,11.34,18.36,12Z"/><path class="cls-2" d="M32.54.06l-.41,1s.11.44.13.59c.17,1.31,1.24,9,1.54,11.48.16,1.2.27,2.28.29,2.86,0,.18.06.25.15.07a3.76,3.76,0,0,0,.28-1.47,20.38,20.38,0,0,0-.23-3.5c0-.24-1.15-8.3-1.15-8.3s.61.56.7.66.22,0,.16-.11S32.71.22,32.67.12,32.59-.06,32.54.06Z"/></g></g></g></svg>