<svg xmlns="http://www.w3.org/2000/svg" viewBox="0 0 33.73 20.06"><defs><style>.cls-1{isolation:isolate;}.cls-2{fill-rule:evenodd;mix-blend-mode:darken;}</style></defs><g class="cls-1"><g id="Layer_2" data-name="Layer 2"><g id="سور_الٌقرآن_الكريم" data-name="سور الٌقرآن الكريم"><path class="cls-2" d="M9.86,18c-.21.11-2.9,1.15-3.12,1.27s-.3.16-.35.32a1.28,1.28,0,0,1-.08.28c0,.11-.08.25.25.06.1-.06,2.83-1.12,3-1.22s.3-.14.38-.31l.15-.31C10.14,18,10.19,17.87,9.86,18Z"/><path class="cls-2" d="M23.43,16.19a4,4,0,0,0-.49,2.32,3.81,3.81,0,0,0-1.75-2c-.09-.05-.27.05-.27.33s0,.57.08.68a4,4,0,0,0,.53.35c.06,0,.12,0,.13,0s.09-.23.2-.12a3.48,3.48,0,0,1,1.07,1.62c.06.13.19.14.21-.06.06-.49.07-1.34.1-1.6s.19-1.12.66-.74a2.18,2.18,0,0,1,.22.19c.1.12.23.26.28.11a1,1,0,0,0,0-.76C24.4,16.38,23.8,15.68,23.43,16.19Z"/><path class="cls-2" d="M30.79,15.43a5.18,5.18,0,0,0-.56,2.4c0,.26.18.78.58.8.21,0,.48-.14.69-.79,0-.14.05-.26.07-.32s0-.19-.11,0c-.16.4-.56.67-.85.13A2.21,2.21,0,0,1,30.75,16c.08-.2.18-.5.18-.5C31,15.28,30.92,15.15,30.79,15.43Z"/><path class="cls-2" d="M15.56,9.7a2.75,2.75,0,0,0-.39.55c-.1.16,0,.23.14.11a.54.54,0,0,1,.51-.24c.33,0,1.11,0,.82.2l-.49.34c-.19.13-.36.39,0,.25A2.41,2.41,0,0,0,17.25,10c.1-.15.21-.35-.25-.42S15.8,9.44,15.56,9.7Z"/><path class="cls-2" d="M3.16,3.21A4.88,4.88,0,0,0,2.48,6a4.55,4.55,0,0,0-2-2.49c-.11-.06-.32,0-.34.39s-.07.68.07.82a5.82,5.82,0,0,0,.61.44c.07,0,.14,0,.16,0s.12-.27.25-.14A4,4,0,0,1,2.35,6.68C2.54,7.49.55,9.13.44,9.2s-.12.22,0,.18a8.89,8.89,0,0,0,1.2-.74A2.24,2.24,0,0,0,2.67,7s0-.05,0-.08c.09-.59.13-1.62.18-1.93s.27-1.33.81-.86c.12.1.26.24.26.24.11.15.26.32.33.15a1.35,1.35,0,0,0,.07-.92C4.29,3.48,3.62,2.62,3.16,3.21Z"/><path class="cls-2" d="M12.35,5.6l-.53.73-1-.74a.07.07,0,0,0-.09,0l-.61.85a.05.05,0,0,0,0,.08l1.05.76a.05.05,0,0,0,.08,0l.53-.73,1,.74a.05.05,0,0,0,.08,0l.62-.84a.07.07,0,0,0,0-.09l-1-.76A.07.07,0,0,0,12.35,5.6Z"/><path class="cls-2" d="M11.27,3.78l-.62.84a.06.06,0,0,0,0,.08l1.05.77s.07,0,.08,0l.62-.84a.06.06,0,0,0,0-.08l-1.05-.77A.05.05,0,0,0,11.27,3.78Z"/><path class="cls-2" d="M1.33,11.78A8.23,8.23,0,0,0,.5,15.59c0,.42.31,1.25.94,1.27.33,0,.75-.24,1.05-1.27.06-.24.09-.42.11-.51s-.07-.31-.18,0c-.24.63-.86,1.07-1.33.23a3.58,3.58,0,0,1,.19-2.62c.12-.32.27-.81.27-.81C1.68,11.53,1.52,11.33,1.33,11.78Z"/><path class="cls-2" d="M5.73,8.12A7.33,7.33,0,0,0,5,11.52c0,.38.28,1.11.84,1.13.29,0,.67-.21.94-1.13a4.34,4.34,0,0,0,.09-.46c0-.12-.06-.27-.15,0-.22.57-.77,1-1.19.21A3.11,3.11,0,0,1,5.68,9c.1-.29.23-.72.23-.72C6,7.9,5.89,7.72,5.73,8.12Z"/><path class="cls-2" d="M32.06,1.5l-.46,1c0,.06.1.47.11.62.14,1.36,1,9.37,1.29,11.9.12,1.25.22,2.37.22,3,0,.18.06.25.15.08a3.91,3.91,0,0,0,.33-1.52A19.59,19.59,0,0,0,33.56,13c0-.25-1-8.61-1-8.61s.61.6.7.71.22,0,.17-.12-1.24-3.28-1.28-3.39S32.11,1.38,32.06,1.5Z"/><path class="cls-2" d="M26.19,7.64a4.07,4.07,0,0,0-.5,2.32A3.72,3.72,0,0,0,24,8c-.09,0-.27,0-.28.33s0,.57.09.68a3.94,3.94,0,0,0,.52.35c.06,0,.12,0,.14,0s.09-.23.2-.12a3.49,3.49,0,0,1,1.07,1.61c.06.14.19.15.21,0,.05-.49.06-1.34.09-1.6s.19-1.11.67-.74l.22.19c.1.12.23.26.28.12a1.14,1.14,0,0,0,0-.77C27.15,7.83,26.56,7.13,26.19,7.64Z"/><path class="cls-2" d="M20.5,4.21a4.72,4.72,0,0,0-.36,2.19c0,.24.22.7.58.69.19,0,.42-.16.56-.75,0-.14,0-.25,0-.3s0-.17-.1,0c-.12.36-.46.63-.76.17a2,2,0,0,1,0-1.49l.12-.47C20.68,4.06,20.59,4,20.5,4.21Z"/><path class="cls-2" d="M13.63.49c-.18.09-6.09,2.58-6.6,3a1.56,1.56,0,0,0-.58.83c-.14.5,0,1,.28,1.07a.62.62,0,0,1,.39.27,0,0,0,0,0,.08,0,.61.61,0,0,0-.36-1c-.17-.06-.23-.3.44-.68s5.94-2.63,6.07-2.72.3-.15.38-.32a3.13,3.13,0,0,0,.14-.33C13.92.44,14,.3,13.63.49Z"/><path class="cls-2" d="M17.89.32,13.55,2.39c-.24.12-.3.18-.34.35a2.31,2.31,0,0,1-.06.29c0,.12-.07.22.26.05.1-.06,4-1.91,4.24-2S17.94.9,18,.73s.09-.21.13-.33S18.24.16,17.89.32Z"/><path class="cls-2" d="M30,11.42c-.08-.76-.86-7.46-.86-7.46s.61.57.7.68.22.06.17-.11-1.17-2.94-1.21-3.05-.07-.18-.13-.06-.49,1-.49,1a5.56,5.56,0,0,1,.16.75c0,.24,1.09,10.29,1.09,10.51s0,.31-.12.43a3.53,3.53,0,0,1-2.88.23,15.81,15.81,0,0,1-2.55-2.16c-.52-.51-3-2.77-9-6.37-.27-.23-.61-.4-.19-.63a55,55,0,0,1,8.87-3.74c.93-.26,3.65-.65,2.72.44S23.64,4.3,23,5.46c-.34.53-.25.66.25.18S26.92,2.3,27.08,1c0-.46-.12-1.13-1.45-1A39,39,0,0,0,14.82,4a1.43,1.43,0,0,0-.53.64c-.07.15-.55,1.4-.09,1.83s5.16,3.92,6.34,5.86c.05.12.34.73-1.49,1.17A4.55,4.55,0,0,0,18.8,13c-1-1.83-2.05-1.36-2.34-1.06a2.74,2.74,0,0,0-.79,1.67c0,.69.3,1.47,1.68,1.44a6,6,0,0,0,1.55-.19.58.58,0,0,1,0,.46,11.28,11.28,0,0,1-3.83,3c-.56.2-4.62,1.56-3.85-3.11a1,1,0,0,0,0-.24,1.65,1.65,0,0,0,.34-.59A5.28,5.28,0,0,0,11.67,12a3,3,0,0,0,2.06-1.34c.15-.25.31-.31.33,0s.08.9.08,1.09.13.17.16,0a15,15,0,0,0,.24-1.91c0-.35-.27-.78-.62-.48a6.53,6.53,0,0,0-.82.88,1.51,1.51,0,0,1-2,.26,5.13,5.13,0,0,0-.44-.67c-.13-.19-.12,0-.15.11s-.18.89-.18.89c.16.37.86,1.71,1,2.07s.14.66-.07.87-3.36,3.11-11,5.3c-.2.1-.29.28.05.24s4.59-.61,4.59-.61C5,18.6,9.19,16.9,10.9,15.32v0c-.12.62-.69,3.74,1.29,4.4.37.12,2.07.76,5.07-1.54.45-.34,2.27-1.53,2.12-3.51A4.35,4.35,0,0,0,20.67,14c.23-.19.56-.47.4-1.78a3.88,3.88,0,0,0-.49-1.43,26.22,26.22,0,0,1,2.65,2.12c.86.88,2.65,2.91,4.13,3A2.3,2.3,0,0,0,30,14.18,10.94,10.94,0,0,0,30,11.42ZM17.85,13.68c-1.34.16-1.49-.23-1.38-.38a.87.87,0,0,1,1.42.11l.2.24Z"/></g></g></g></svg>