<svg xmlns="http://www.w3.org/2000/svg" viewBox="0 0 35.79 19.33"><defs><style>.cls-1{isolation:isolate;}.cls-2{fill-rule:evenodd;mix-blend-mode:darken;}</style></defs><g class="cls-1"><g id="Layer_2" data-name="Layer 2"><g id="سور_الٌقرآن_الكريم" data-name="سور الٌقرآن الكريم"><path class="cls-2" d="M9.56,17.11c-.24.07-4.07,1.37-4.33,1.47s-.31.16-.36.33-.07.26-.08.29-.1.21.25.06c.18-.07,4-1.32,4.22-1.43a.65.65,0,0,0,.39-.31l.15-.33C9.85,17.07,9.91,17,9.56,17.11Z"/><path class="cls-2" d="M30.55,15.72A5.24,5.24,0,0,0,30,18.1c0,.26.19.77.59.78.2,0,.46-.15.65-.79,0-.14.06-.26.07-.31s-.05-.19-.11,0c-.15.4-.54.67-.83.15a2.2,2.2,0,0,1,.12-1.63c.07-.2.16-.5.16-.5C30.76,15.57,30.67,15.44,30.55,15.72Z"/><path class="cls-2" d="M15.67,15.26a5.28,5.28,0,0,0-.52,2.38c0,.26.19.77.59.78.2,0,.47-.14.65-.78,0-.15.06-.27.07-.32s0-.19-.11,0c-.15.39-.54.66-.83.14a2.26,2.26,0,0,1,.12-1.63c.07-.2.16-.5.16-.5C15.88,15.11,15.79,15,15.67,15.26Z"/><path class="cls-2" d="M14.23,10.49C13.5,9.41,12.46,9,11.55,9.74a2.2,2.2,0,0,0-.27,2.64,2,2,0,0,0,1.7.27c.27-.06,1.24-.13,1.5.63.06.18.11.23-.07.4a6,6,0,0,1-4.52,1A3.3,3.3,0,0,1,7.8,12.6c-.1-.23-.3-.71-.9-.49a4,4,0,0,0-2.32,2c-.12.23-.84,2.27-1,2.51s-.66,1.13-1.49.51a4,4,0,0,1-1.4-4c0-.23-.07-.45-.18-.15s-.79,4.52,2.09,5.47c.19.07.83.12,1.15-.76.09-.26.84-3,2.09-3.9a4.2,4.2,0,0,1,1-.5.45.45,0,0,1,.56.3A3.44,3.44,0,0,0,11.58,16c.46-.07,3.35-.52,3.44-2.25A5.37,5.37,0,0,0,14.23,10.49Zm-1.26,1a1.49,1.49,0,0,1-1,0c-.44-.18-.25-.59.08-.78s1.18-.06,1.67.81A1.74,1.74,0,0,0,13,11.45Z"/><path class="cls-2" d="M6.53,8.81,6,9.54,5,8.8a.05.05,0,0,0-.08,0l-.62.84a.07.07,0,0,0,0,.09l1,.76a.06.06,0,0,0,.08,0L6,9.76l1,.74a.06.06,0,0,0,.08,0l.62-.85a.06.06,0,0,0,0-.08l-1-.76A.05.05,0,0,0,6.53,8.81Z"/><path class="cls-2" d="M13,6.73l-.53.72-1-.74a.05.05,0,0,0-.08,0l-.62.84a.06.06,0,0,0,0,.08l1,.77a.06.06,0,0,0,.08,0l.53-.73,1,.75a.06.06,0,0,0,.08,0l.62-.84a.06.06,0,0,0,0-.08l-1.05-.77A.05.05,0,0,0,13,6.73Z"/><path class="cls-2" d="M.54,6.84A9.3,9.3,0,0,0,0,10.65c0,.41.34,1.21.88,1.2.28,0,.63-.27.83-1.3,0-.23.05-.42.06-.51s-.07-.3-.15,0c-.17.64-.68,1.1-1.12.29a3.92,3.92,0,0,1,0-2.59C.63,7.44.73,7,.73,7,.82,6.58.68,6.39.54,6.84Z"/><path class="cls-2" d="M12.42,3.06a1,1,0,0,0,0,.73c.11.29.4.93.45,1s.06.19-.1.26a.73.73,0,0,1-1-.56,8.22,8.22,0,0,0-.21-1.15c-.07-.13-.14-.14-.19,0a2.93,2.93,0,0,0-.09.45.13.13,0,0,0,0,.12s.32.93.19,1.17-.8.68-1.14.22A3.52,3.52,0,0,1,10.21,4c0-.19-.06-.25-.14-.1A.77.77,0,0,0,10,4.3c0,.14,0,.73,0,.91s0,.79.36,1,.87,0,1.26-.73a.85.85,0,0,0,1,.35A1.06,1.06,0,0,0,13.1,5a1.5,1.5,0,0,0-.18-1,3.42,3.42,0,0,1-.31-.81C12.55,3,12.5,2.81,12.42,3.06Z"/><path class="cls-2" d="M4.06,1.12a4.63,4.63,0,0,0-.65,2.64A4.31,4.31,0,0,0,1.49,1.39c-.1-.06-.31.05-.33.37s-.06.65.07.78A3.56,3.56,0,0,0,1.82,3C1.89,3,2,3,2,2.92s.1-.26.23-.13A4,4,0,0,1,3.37,4.68c.06.16.21.17.24,0,.09-.56.13-1.54.17-1.83s.27-1.27.79-.83l.25.24c.11.14.25.3.32.14a1.26,1.26,0,0,0,.07-.87C5.16,1.38,4.51.56,4.06,1.12Z"/><path class="cls-2" d="M21,11.26a5.23,5.23,0,0,0-.52,2.37c0,.26.2.78.59.79.2,0,.47-.15.65-.79,0-.15.06-.26.07-.32s0-.19-.11,0c-.15.39-.54.67-.83.14A2.23,2.23,0,0,1,21,11.84c.07-.21.16-.51.16-.51C21.23,11.11,21.14,11,21,11.26Z"/><path class="cls-2" d="M25.4,6.17c-.26.16-6,2.95-6.26,3.13s-.37.23-.41.44-.06.33-.07.36-.08.31.32.05c.12-.09,5.91-2.91,6.13-3.06s.35-.21.44-.42a2.72,2.72,0,0,0,.15-.41C25.75,6.1,25.8,5.93,25.4,6.17Z"/><path class="cls-2" d="M30.78.33l-.43,1.06c0,.06.11.47.13.62C30.64,3.22,31.55,9.8,32,12.94c-1.76-.14-3.54-.32-4-.44a3.49,3.49,0,0,0,.28-2C28.11,9.66,27,3.18,27,3.18s.62.58.72.69.22,0,.17-.12S26.53.5,26.49.4,26.4.21,26.35.33s-.46,1-.46,1a5.19,5.19,0,0,1,.18.75c.07.47.65,4,1,6.22a23.13,23.13,0,0,1,.45,3.53c0,.12-2.55.3-3.26.45a.58.58,0,0,0-.36.24,4.12,4.12,0,0,0-.42.84c-.07.21.08.29.2.22s.71-.53,6.21.59c-.48.27-5.13,2.6-8.1,2.53a4.07,4.07,0,0,1-4.25-3.92c-.07-.59-.7-6.14-.79-7A35.3,35.3,0,0,0,15.84.61c-.11-.41-.19-.32-.31-.12a4.41,4.41,0,0,0-.23.7.86.86,0,0,0,0,.57c0,.24.79,4.72,1.09,7a60.66,60.66,0,0,0,.92,6.32c.3.92,1.32,3.3,5.24,2.84A20.38,20.38,0,0,0,29,15.76a15.36,15.36,0,0,1,3.15-1.23c.12,1,.2,1.8.21,2.29,0,.18.07.25.16.07a4.11,4.11,0,0,0,.29-1.52c0-.27,0-.6,0-1a5.48,5.48,0,0,1,2.35.09,12.84,12.84,0,0,0,.62-1.3c-.3,0-1.6-.07-3.06-.19,0-.38-.09-.8-.15-1.25,0-.24-1.18-8.57-1.18-8.57s.62.58.72.69.22,0,.16-.12S31,.5,30.91.4,30.83.21,30.78.33Z"/><path class="cls-2" d="M22.21.38a4.9,4.9,0,0,0-.68,2.77,4.59,4.59,0,0,0-2-2.49c-.1-.06-.32.06-.34.4,0,.19-.06.67.07.81a5.42,5.42,0,0,0,.61.44c.07,0,.14,0,.16,0s.12-.27.25-.13A3.83,3.83,0,0,1,21.4,3.85c.19.81-1.8,2.45-1.9,2.52s-.13.22,0,.17a9,9,0,0,0,1.19-.73,2.21,2.21,0,0,0,1.07-1.66.19.19,0,0,0,0-.08c.09-.59.13-1.61.18-1.92s.27-1.34.81-.87a3.51,3.51,0,0,1,.26.25c.11.14.26.31.33.14a1.32,1.32,0,0,0,.07-.91C23.34.65,22.67-.21,22.21.38Z"/><path class="cls-2" d="M13.94.11c-.2.11-7.44,3.43-8,3.85a1.71,1.71,0,0,0-.61.94c-.13.54,0,1.09.35,1.16a.7.7,0,0,1,.45.29s.06,0,.08,0a.67.67,0,0,0-.43-1.07c-.19-.06-.27-.33.46-.77S13.51,1,13.66.93s.32-.18.4-.38l.15-.36C14.25,0,14.3-.11,13.94.11Z"/></g></g></g></svg>