<svg xmlns="http://www.w3.org/2000/svg" viewBox="0 0 32.4 22.38"><defs><style>.cls-1{isolation:isolate;}.cls-2{fill-rule:evenodd;mix-blend-mode:darken;}</style></defs><g class="cls-1"><g id="Layer_2" data-name="Layer 2"><g id="سور_الٌقرآن_الكريم" data-name="سور الٌقرآن الكريم"><path class="cls-2" d="M21.59,19.82l-5.26,1.8c-.26.09-.33.15-.39.32l-.1.3c-.05.11-.1.22.26.08l5.14-1.75a.72.72,0,0,0,.42-.31c.1-.18.12-.21.18-.33S22,19.7,21.59,19.82Z"/><path class="cls-2" d="M24.21,18l-.65.88a.07.07,0,0,0,0,.09l1.11.8a.05.05,0,0,0,.08,0l.65-.89a.07.07,0,0,0,0-.09L24.29,18A.06.06,0,0,0,24.21,18Z"/><path class="cls-2" d="M19.23,17.82l-.56.77-1.07-.78a.05.05,0,0,0-.08,0l-.65.89a.06.06,0,0,0,0,.09l1.1.8a.07.07,0,0,0,.09,0l.56-.77,1.07.78a.06.06,0,0,0,.08,0l.65-.89a.06.06,0,0,0,0-.09l-1.1-.8A.06.06,0,0,0,19.23,17.82Z"/><path class="cls-2" d="M8.46,17.84c-.24.12-4,1.58-4.24,1.71s-.33.17-.38.35-.07.27-.08.3-.09.26.26.06C4.13,20.2,8,18.72,8.14,18.6s.32-.15.41-.33a3.11,3.11,0,0,0,.16-.34C8.76,17.8,8.81,17.66,8.46,17.84Z"/><path class="cls-2" d="M13.12,17.89a2.45,2.45,0,0,0-.12.25c0,.07,0,.16.09,0s.59-.44.72.06a1.93,1.93,0,0,1-.44,1.33c-.11.15-.24.38-.24.38-.12.17-.07.29.09.09a4.52,4.52,0,0,0,.93-1.86c0-.22,0-.69-.32-.78C13.66,17.33,13.41,17.4,13.12,17.89Z"/><path class="cls-2" d="M12.8,9.23l-.65.89a.06.06,0,0,0,0,.08l1.11.81a.06.06,0,0,0,.08,0L14,10.1A.06.06,0,0,0,14,10l-1.11-.81A.07.07,0,0,0,12.8,9.23Z"/><path class="cls-2" d="M6.47,8.55l-.56.77L4.84,8.54a.05.05,0,0,0-.08,0l-.65.89a.06.06,0,0,0,0,.08l1.11.81a.06.06,0,0,0,.08,0l.56-.76,1.07.78a.07.07,0,0,0,.09,0l.64-.88a.06.06,0,0,0,0-.09l-1.1-.8A.06.06,0,0,0,6.47,8.55Z"/><path class="cls-2" d="M1,6.35a11.45,11.45,0,0,0-1,4.28c0,.48.2,1.42.77,1.47.29,0,.68-.24,1-1.39.06-.26.1-.47.13-.57s0-.35-.16,0c-.25.7-.84,1.17-1.2.19A4.92,4.92,0,0,1,.86,7.4c.12-.36.28-.9.28-.9C1.28,6.09,1.15,5.86,1,6.35Z"/><path class="cls-2" d="M24.33,6.23a11.44,11.44,0,0,0-1,4.27c0,.48.2,1.42.77,1.47.29,0,.68-.23,1-1.38.06-.27.1-.48.12-.58s0-.34-.16,0c-.25.7-.83,1.17-1.2.2a5,5,0,0,1,.32-3c.12-.36.28-.9.28-.9C24.65,6,24.52,5.73,24.33,6.23Z"/><path class="cls-2" d="M18,4.4a.86.86,0,0,0,0,.67c.1.26.37.86.41.94a.16.16,0,0,1-.09.25.67.67,0,0,1-.95-.52,7.58,7.58,0,0,0-.2-1c-.06-.12-.12-.13-.17,0a1.69,1.69,0,0,0-.08.41.17.17,0,0,0,0,.12s.3.85.18,1.07-.73.62-1.05.2a3.35,3.35,0,0,1-.06-1.2c0-.18-.05-.24-.13-.1a.78.78,0,0,0-.11.36,7.72,7.72,0,0,1,0,.84c0,.17,0,.72.33.87s.8,0,1.16-.66a.79.79,0,0,0,.92.32,1,1,0,0,0,.47-.76,1.31,1.31,0,0,0-.17-.9,3.54,3.54,0,0,1-.28-.74C18.07,4.35,18,4.18,18,4.4Z"/><path class="cls-2" d="M26.14,3.7c-.27.08-5.41,1.84-5.69,1.94s-.33.15-.39.32l-.1.3c-.06.11-.1.21.26.08.12,0,5.35-1.81,5.57-1.9a.65.65,0,0,0,.42-.31,2.92,2.92,0,0,0,.18-.33C26.45,3.67,26.52,3.57,26.14,3.7Z"/><path class="cls-2" d="M14.75,3.54,8.6,5.74c-.27.09-.35.15-.41.34l-.1.31c-.06.11-.1.2.15.12l.1,0h0c.35-.11,5.31-1.88,6-2.16A.68.68,0,0,0,14.82,4c.1-.18.13-.22.19-.35S15.15,3.41,14.75,3.54Z"/><path class="cls-2" d="M8.29.91a5.38,5.38,0,0,0-.55,2.51c0,.28.2.82.62.83.21,0,.49-.15.69-.83,0-.16.06-.28.07-.34s0-.2-.12,0c-.15.41-.56.71-.87.15a2.31,2.31,0,0,1,.12-1.72c.08-.21.18-.53.18-.53C8.51.74,8.41.61,8.29.91Z"/><path class="cls-2" d="M5,.83A4.58,4.58,0,0,0,4.5,3.49,4.29,4.29,0,0,0,2.43,1.28c-.1-.05-.3.07-.3.39s0,.64.12.76a4.34,4.34,0,0,0,.62.38c.07,0,.14,0,.15-.05s.09-.27.23-.15a4.06,4.06,0,0,1,1.27,1.8c.08.15.22.16.24-.07,0-.56,0-1.53,0-1.82s.17-1.28.72-.88l.26.22c.12.13.27.28.33.11a1.21,1.21,0,0,0,0-.86C6.07,1,5.37.24,5,.83Z"/><path class="cls-2" d="M22.54.65a4.49,4.49,0,0,0-.46,2.11c0,.23.17.68.52.7.18,0,.41-.13.58-.71,0-.12.05-.23.06-.28s0-.17-.1,0c-.13.35-.48.59-.74.13a2,2,0,0,1,.11-1.45c.06-.18.14-.45.14-.45C22.73.51,22.64.4,22.54.65Z"/><path class="cls-2" d="M27,.07c-.05.13-.48,1.07-.48,1.07a6.21,6.21,0,0,1,.18.79c.07.49,1.7,12.86,1.51,13.06a2.12,2.12,0,0,1-2.19.44,1.7,1.7,0,0,1-1-1.16,4.57,4.57,0,0,0,0-.49c0-.14-.06-.32-.21-.16s-.89,1.22-1.09,1.43a3,3,0,0,1-3.55.34c-.42-.27-1.07-.93-1.37-2.77A18.86,18.86,0,0,0,17.94,9c-.08-.13-.13,0-.16.06s-.35,1-.35,1a21.33,21.33,0,0,1,.78,4.32c0,.29-.22,1.09-1.9,1.2A1.6,1.6,0,0,1,14.51,14a2,2,0,0,1,.07-.43c0-.12,0-.47-.18-.24s-1.36,2.5-3.47,2.42c-.26,0-1.84,0-2.62-2.23-.14-.39-.49-1.76-1.64-1.1a5,5,0,0,0-2.62,3,12.13,12.13,0,0,1-.83,1.82c-.22.25-1.13,1.12-2.16-.57-.15-.26-.6-1-.55-3.52,0-.21-.15-.45-.25,0s-.38,4.72,1.57,5.63c.24.11,1.16.54,1.77-.78.19-.41,1.26-3.57,3-4.23.32-.12.77-.32,1,.16s.74,3.11,3.11,3.21c.3,0,1.89.23,3.32-2.13.18.76.44,2,2.23,2a2.44,2.44,0,0,0,2.26-1.83,3.24,3.24,0,0,0,5.94.19,2.18,2.18,0,0,0,3,1.45c.46-.17,1.17-.4,1.37-2.08a17.74,17.74,0,0,0-.15-3.46c-.41-3.42-1-8.13-1-8.13l.64.64c.11.11.24,0,.18-.13S27.21.24,27.17.13,27.09-.06,27,.07Z"/><path class="cls-2" d="M30.24.07c-.06.13-.46,1.11-.46,1.11s.12.49.14.65c.19,1.42,1.36,9.82,1.69,12.47.16,1.31.29,2.48.31,3.11,0,.2.07.27.16.08a4,4,0,0,0,.31-1.6,22.43,22.43,0,0,0-.25-3.81c0-.25-1.25-9-1.25-9l.76.73c.11.11.23,0,.17-.13S30.42.24,30.38.13,30.29-.06,30.24.07Z"/></g></g></g></svg>