<svg xmlns="http://www.w3.org/2000/svg" viewBox="0 0 39.04 18.28"><defs><style>.cls-1{isolation:isolate;}.cls-2{fill-rule:evenodd;mix-blend-mode:darken;}</style></defs><g class="cls-1"><g id="Layer_2" data-name="Layer 2"><g id="سور_الٌقرآن_الكريم" data-name="سور الٌقرآن الكريم"><path class="cls-2" d="M26.29,15.67c-.2.1-4.56,1.81-4.77,1.92s-.28.15-.32.3l-.07.26c0,.1-.07.22.23.05.09-.05,4.49-1.78,4.66-1.88s.27-.13.35-.28a3,3,0,0,0,.13-.29C26.55,15.64,26.59,15.52,26.29,15.67Z"/><path class="cls-2" d="M11.65,14.81c-.2.09-4.56,1.8-4.77,1.92s-.27.14-.31.29-.07.24-.08.26-.07.22.23,0c.09,0,4.49-1.78,4.66-1.87s.27-.13.35-.29l.14-.28C11.91,14.77,12,14.65,11.65,14.81Z"/><path class="cls-2" d="M5.86,7.78a8.4,8.4,0,0,0-.46,3.46c0,.38.31,1.1.8,1.09.26,0,.57-.25.76-1.18,0-.21,0-.38,0-.47s-.07-.27-.13,0c-.16.57-.62,1-1,.26a3.61,3.61,0,0,1,0-2.35c.08-.3.17-.74.17-.74C6.11,7.55,6,7.37,5.86,7.78Z"/><path class="cls-2" d="M28.68,7.22,28.13,8a0,0,0,0,0,0,.07l.94.69a.06.06,0,0,0,.08,0L29.71,8a.06.06,0,0,0,0-.08l-.94-.68A.06.06,0,0,0,28.68,7.22Z"/><path class="cls-2" d="M25.18,6.42l-.56.76a.08.08,0,0,0,0,.08l.95.68a0,0,0,0,0,.07,0l.55-.76a0,0,0,0,0,0-.07l-.94-.69A0,0,0,0,0,25.18,6.42Z"/><path class="cls-2" d="M8.93,6.45c0,.13-.13.68-.16.8a.45.45,0,0,0,0,.32,6.22,6.22,0,0,1,.3.7c.11.28,1.18,2.34,1.28,2.52s.12.32,0,.44C7,14.86.34,17.09.12,17.21s-.15.22.2.16a27.53,27.53,0,0,0,4.37-1C5.54,16,9.6,14,10.76,11.76a2.75,2.75,0,0,0-.06-2.13C10.48,9.2,9.78,8,9.78,8l.56,0c.05,0,.15-.06,0-.2S9.15,6.56,9.09,6.47,9,6.32,8.93,6.45Z"/><path class="cls-2" d="M21.87,6.13A4.13,4.13,0,0,0,21.45,8c0,.21.15.62.47.63.17,0,.38-.12.53-.64,0-.11,0-.21.05-.25s0-.15-.09,0-.43.53-.66.11a1.74,1.74,0,0,1,.09-1.31c.06-.16.13-.4.13-.4C22,6,22,5.91,21.87,6.13Z"/><path class="cls-2" d="M25.12,2C25,2,19.3,4.78,18.87,5.12a1.37,1.37,0,0,0-.47.75c-.1.44,0,.87.29.92a.57.57,0,0,1,.36.21s.05,0,.06,0a.52.52,0,0,0-.35-.83c-.15,0-.22-.26.35-.62s5.69-2.86,5.8-2.94A.41.41,0,0,0,25,2.53a5,5,0,0,0-.28,1.85c0,.26.17.77.52.78.19,0,.42-.15.59-.78,0-.15,0-.26.06-.32s0-.19-.1,0c-.13.39-.48.66-.74.14a2.37,2.37,0,0,1,.11-1.61c.06-.2.14-.5.14-.5s0-.08,0-.12S25.38,1.79,25.12,2Z"/><path class="cls-2" d="M8.48,1.37a4.24,4.24,0,0,0-.59,2.37A3.86,3.86,0,0,0,6.17,1.61c-.1-.05-.28,0-.3.33s-.06.58.06.7,1,.41.51.9C6.23,3.76,5.19,4.84,5,5.1s-.24.31,0,.17a3,3,0,0,0,1.85-2,.75.75,0,0,0-.06-.4s0,0,.06,0a3.58,3.58,0,0,1,1,1.7c.06.14.19.16.23-.05.07-.5.11-1.38.15-1.64s.23-1.14.71-.74l.22.21c.1.12.22.27.28.12a1.07,1.07,0,0,0,.07-.78C9.47,1.6,8.88.86,8.48,1.37Z"/><path class="cls-2" d="M15.46,8.49A4.45,4.45,0,0,0,15,10.61c0,.23.16.69.52.7.18,0,.41-.13.58-.7,0-.13,0-.24.06-.29s0-.17-.1,0c-.13.35-.48.59-.74.13A2,2,0,0,1,15.43,9c.06-.18.14-.45.14-.45C15.65,8.36,15.56,8.25,15.46,8.49Z"/><path class="cls-2" d="M14.08,1.59a4.66,4.66,0,0,0-.46,2.11c0,.24.17.69.52.7.18,0,.42-.13.59-.7,0-.13,0-.23,0-.28s0-.17-.09,0c-.14.35-.48.6-.74.13a2,2,0,0,1,.1-1.45c.07-.18.15-.45.15-.45C14.27,1.45,14.19,1.34,14.08,1.59Z"/><path class="cls-2" d="M30.85,12.55a3.65,3.65,0,0,0-1-1.82c-.1-.09-.19-.17-.24,0s-.17.73-.18.82a5.68,5.68,0,0,1,1,1.37c.14.3-.16.52-.46.67a4.11,4.11,0,0,1-3,.1,2.22,2.22,0,0,1-.58-.48,3.66,3.66,0,0,0,.67-.69,4.65,4.65,0,0,0,.42-1.77,2.57,2.57,0,0,0-1-1.66c-.44-.27-.92.28-1.13.58A4.12,4.12,0,0,0,25,12a4.69,4.69,0,0,0,.33.95l-.57.27s-.56.19-1.42.44a5.28,5.28,0,0,0,.4-1.62,1.76,1.76,0,0,0-1.26-1.51,2.91,2.91,0,0,0-2.87.38,8.64,8.64,0,0,0-1.54,1.44,7.52,7.52,0,0,0,.09-2.57C18,9.07,17,3.21,17,3.21s.42.27.5.35.17,0,.12-.1-1-2.37-1.06-2.46-.07-.14-.11,0l-.37,1s.1.37.12.49,1.8,7.42,1.56,10.3a19,19,0,0,0-1.54,2.18l-.34,0a3.36,3.36,0,0,1-3.05-3.51c-.16-1.1-.48-6.8-1.51-10.18-.15-.47-.31.22-.4.45a1.35,1.35,0,0,0,.07.82,76.86,76.86,0,0,1,1.27,9c.36,4.55,3.24,4.54,3.71,4.56,3.67.21,8.74-1.83,9.18-2a5.58,5.58,0,0,0,.6-.31,4.32,4.32,0,0,0,.42.66c1.3,1.43,3.67.59,4.1.22C30.93,14,30.85,12.86,30.85,12.55Zm-7.92.33a13.72,13.72,0,0,1-5.73,2l-.42,0a12.06,12.06,0,0,1,2.12-2.67,3.71,3.71,0,0,1,2.34-.87,2.44,2.44,0,0,1,1.78,1C23.21,12.63,23.06,12.77,22.93,12.88Zm3-.29a8,8,0,0,1-.56-1.31c-.09-.27-.05-.53.45-1s1.06.66,1.22,1,0,.36-.08.48A4.78,4.78,0,0,1,25.9,12.59Z"/><path class="cls-2" d="M32,.94a4.49,4.49,0,0,0-.47,2.11c0,.23.17.69.52.7.19,0,.42-.13.59-.7,0-.13,0-.23.06-.29s0-.16-.1,0c-.13.35-.48.6-.74.13a2,2,0,0,1,.11-1.45c.06-.18.14-.45.14-.45C32.13.8,32.05.69,32,.94Z"/><path class="cls-2" d="M20.42.83A4,4,0,0,0,20,2.64c0,.2.15.58.45.59s.35-.11.5-.6c0-.11,0-.2.05-.24s0-.14-.09,0c-.11.3-.41.51-.63.11a1.74,1.74,0,0,1,.09-1.24c.06-.15.13-.38.13-.38C20.58.71,20.5.62,20.42.83Z"/><path class="cls-2" d="M34.35.25c0,.11-.41.92-.41.92a4.14,4.14,0,0,1,.16.67c.06.43.15,1,.24,1.7,0,0,1.46,8,1.24,8.67,0,.09-.08.22-.14.36a3.73,3.73,0,0,0-.71-2.34A26.35,26.35,0,0,0,32,7.56a25.61,25.61,0,0,1-2.41-2.48c-.33-.44-.73-1-.73-1,.24.09.53.17.68.22s.34,0,.11-.22-2-1.52-2.17-1.68-.16-.13-.16,0,0,.77,0,1,.06.27.14.33a1.26,1.26,0,0,1,.33.3A23.7,23.7,0,0,0,31,7.86c.19.2,2.85,2.15,3.85,4.06a2.79,2.79,0,0,1,.31,1.14c-.6,1-2,2.48-5.09,3.75-.26.12-.22.31.32.14s4-.74,5.15-3.33c.28-.63.84-1.79.3-4.69-.14-1.18-1-6.12-1-6.12s.56.52.65.62.2,0,.15-.11S34.51.4,34.47.3,34.4.14,34.35.25Z"/><path class="cls-2" d="M37.19.06c0,.11-.39,1-.39,1s.1.42.12.55c.16,1.22,1.16,8.39,1.44,10.66.14,1.12.25,2.12.27,2.66,0,.17.06.23.13.07A3.46,3.46,0,0,0,39,13.58a18.34,18.34,0,0,0-.22-3.25L37.75,2.62s.56.52.65.62.2,0,.14-.11S37.35.21,37.31.11,37.24,0,37.19.06Z"/></g></g></g></svg>