<svg xmlns="http://www.w3.org/2000/svg" viewBox="0 0 34.68 19.4"><defs><style>.cls-1{fill-rule:evenodd;}</style></defs><g id="Layer_2" data-name="Layer 2"><g id="سور_الٌقرآن_الكريم" data-name="سور الٌقرآن الكريم"><path class="cls-1" d="M11.22,16.64c-.21.11-4.82,1.91-5,2s-.29.15-.33.31-.07.25-.08.28-.08.23.24,0c.1,0,4.75-1.87,4.93-2s.28-.14.36-.3.1-.19.15-.3S11.54,16.48,11.22,16.64Z"/><path class="cls-1" d="M24,14.78a4.94,4.94,0,0,0-.46,2.51c0,.28.27.8.72.79.23,0,.53-.19.7-.87,0-.15.05-.28.06-.34s-.06-.19-.12,0c-.15.42-.58.73-.94.2a2.07,2.07,0,0,1,0-1.7c.07-.22.16-.54.16-.54C24.2,14.61,24.08,14.48,24,14.78Z"/><path class="cls-1" d="M5.23,9.45a6.74,6.74,0,0,0-.53,3.21c0,.35.32,1,.86,1,.28,0,.63-.24.83-1.11,0-.19.06-.35.07-.43s-.07-.25-.15,0c-.18.54-.68.94-1.12.26a2.86,2.86,0,0,1,0-2.18c.08-.28.18-.69.18-.69C5.51,9.23,5.36,9.07,5.23,9.45Z"/><path class="cls-1" d="M9.44,7.42l-.59.8a.06.06,0,0,0,0,.08l1,.73a.06.06,0,0,0,.08,0l.58-.81a0,0,0,0,0,0-.07l-1-.73A0,0,0,0,0,9.44,7.42Z"/><path class="cls-1" d="M13.06,7.5a3.2,3.2,0,0,0-.49.71c-.13.2,0,.28.17.13A.7.7,0,0,1,13.4,8c.42,0,1.41,0,1,.25s-.62.43-.62.43c-.25.18-.46.5,0,.32a2.92,2.92,0,0,0,1.42-1.12c.13-.19.28-.44-.31-.53S13.37,7.17,13.06,7.5Z"/><path class="cls-1" d="M9,2a7,7,0,0,0-.5,3.21c0,.35.31,1,.83,1,.26,0,.6-.24.8-1.11,0-.19.05-.35.06-.43s-.07-.25-.14,0c-.17.54-.66.93-1.08.25A3,3,0,0,1,9,2.81c.08-.27.18-.68.18-.68C9.23,1.82,9.09,1.66,9,2Z"/><path class="cls-1" d="M5.13,1.54a4.79,4.79,0,0,0-.65,2.64A4.22,4.22,0,0,0,2.6,1.81c-.1-.06-.31.05-.33.37s-.06.65.07.78a5.3,5.3,0,0,0,.58.42c.07,0,.14,0,.15,0s.11-.26.24-.13A3.71,3.71,0,0,1,4.36,4.84c.19.77-1.71,2.32-1.81,2.39s-.12.21,0,.17a9.15,9.15,0,0,0,1.14-.7,2.14,2.14,0,0,0,1-1.58.64.64,0,0,0,0-.07c.08-.56.12-1.54.17-1.83S5.11,2,5.63,2.4a3,3,0,0,1,.24.23c.11.14.25.3.32.14a1.26,1.26,0,0,0,.07-.87C6.21,1.8,5.57,1,5.13,1.54Z"/><path class="cls-1" d="M33,1.11l-.36.9c.07.52.63,6.05.66,6.43s.86,6.64.87,8.36c0,.18.06.25.14.08s.67-1.31.1-5.54l-.88-7.51.67.67c.09.1.21,0,.15-.11s-1.19-3.12-1.23-3.22S33.07,1,33,1.11Z"/><path class="cls-1" d="M27.57,7.66a4.87,4.87,0,0,0-.52,2.66A4.28,4.28,0,0,0,25.17,8c-.09-.06-.28.06-.29.38s0,.65.09.77a3.83,3.83,0,0,0,.57.4c.06,0,.13,0,.14,0s.1-.27.22-.14a4.06,4.06,0,0,1,1.15,1.85c.06.16.2.17.22-.06.06-.56.07-1.54.1-1.83s.19-1.28.7-.85c.11.09.24.22.24.22s.24.29.3.13a1.25,1.25,0,0,0,0-.87C28.59,7.89,28,7.08,27.57,7.66Z"/><path class="cls-1" d="M22.35,4.25a4.51,4.51,0,0,0-.46,2.1c0,.23.17.68.52.69.18,0,.41-.13.57-.7,0-.12.05-.23.06-.28s0-.16-.09,0c-.14.35-.48.59-.73.12a1.85,1.85,0,0,1,.1-1.43c.06-.18.14-.45.14-.45C22.53,4.11,22.45,4,22.35,4.25Z"/><path class="cls-1" d="M17.42.55l-6,2.74c-.22.11-.28.17-.31.33a2.42,2.42,0,0,1-.06.28c0,.11-.06.2.24,0,.1,0,5.66-2.58,5.85-2.68s.28-.16.35-.32.08-.2.12-.32S17.75.4,17.42.55Z"/><path class="cls-1" d="M31.27,11.42c0-.43-1-7.6-1-7.6l.66.67c.1.1.21,0,.16-.11s-1.19-3.12-1.24-3.21S29.74,1,29.7,1.1l-.42,1c0,.34,1.41,11.14,1.44,11.46s.12.74-.63,1a3.22,3.22,0,0,1-3.38-.66,50.08,50.08,0,0,0-5-4.86c-.76-.55-4-2.89-4.63-3.31-.22-.15-.26-.28-.13-.47a30.5,30.5,0,0,1,8.91-3.91c.44-.09,2.18-.36,1.61.72s-2,2.88-2.27,3.41,0,.58.21.24,1.94-2.56,2.17-2.94c1.65-2.8-.49-2.87-1-2.79A28.06,28.06,0,0,0,17.39,3.8a2,2,0,0,0-.94,2.07,3.24,3.24,0,0,0,1.43,2,22,22,0,0,1,3.94,4.29c.23.4.73,1.19-.55,1.74a16.92,16.92,0,0,1-4.76,1.35c.2-.3,1.23-1.72-.12-4.7-.09-.2-.14-.17-.21,0S14.75,15,14.74,15.1s-2.68.54-3.64-.73a2.89,2.89,0,0,0,.75-3.49c-.13-.32-.91-1.41-1.67-.51A3.31,3.31,0,0,0,9.84,14c-.12.08-3.18,1.82-5.52,1.83a4.13,4.13,0,0,1-3.07-1.16A2.16,2.16,0,0,1,.88,12a.64.64,0,0,0,.05-.2H1c.3,0,.65-.29.87-1.36,0-.23,0-.43.06-.52s-.09-.31-.16,0c-.18.65-.71,1.13-1.16.29a4,4,0,0,1,0-2.67c.08-.34.19-.85.19-.85.09-.38-.06-.57-.2-.1A9.73,9.73,0,0,0,0,10.54a1.62,1.62,0,0,0,.69,1.2l-.08.14c-.19.43-1.54,2.87.8,4.54a5.76,5.76,0,0,0,5.08.25A21.11,21.11,0,0,0,10.27,15a3.31,3.31,0,0,0,3.42,1.49c.09.22.1.3.23.31s.76,0,.76,0A3.46,3.46,0,0,0,17,19.19a1.21,1.21,0,0,0,1.46-.87,3.13,3.13,0,0,0-.33-2.1,20.93,20.93,0,0,0,3.67-1.49,2.18,2.18,0,0,0,.77-2.06,4,4,0,0,0-.73-2.09,24.64,24.64,0,0,1,3.27,3c.51.6,1.57,2.48,4,2.43a2.29,2.29,0,0,0,2.17-2A20.22,20.22,0,0,0,31.27,11.42ZM10.52,13.56s-.39-.78-.51-1.07a.83.83,0,0,1,.34-1.06c.53-.44,1.13.59,1.27.89s0,.36-.12.46A4.33,4.33,0,0,1,10.52,13.56Zm5.63-1.29c.13-.26.37,1,.44,1.46s-1.07,1.09-1.26,1.17A11.65,11.65,0,0,1,16.15,12.27Zm1.54,5.66c-1.12.22-2.1-1-2.23-1.21a4.2,4.2,0,0,1,2.44.57C18.22,17.54,17.93,17.87,17.69,17.93Z"/></g></g></svg>