<svg xmlns="http://www.w3.org/2000/svg" viewBox="0 0 33.8 19.48"><defs><style>.cls-1{isolation:isolate;}.cls-2{fill-rule:evenodd;mix-blend-mode:darken;}</style></defs><g class="cls-1"><g id="Layer_2" data-name="Layer 2"><g id="سور_الٌقرآن_الكريم" data-name="سور الٌقرآن الكريم"><path class="cls-2" d="M16.49,16.09c-.22.12-6,2.5-6.21,2.63s-.31.16-.36.32a1.48,1.48,0,0,1-.08.29c0,.11-.08.25.26.06.1-.06,5.91-2.46,6.1-2.57s.29-.14.38-.32l.15-.31C16.78,16.06,16.83,15.92,16.49,16.09Z"/><path class="cls-2" d="M18.34,15.9a4.5,4.5,0,0,0-.43,2c0,.23.16.66.49.67.17,0,.39-.13.55-.67,0-.12.05-.22.06-.27s0-.16-.1,0c-.12.33-.45.56-.69.12a1.81,1.81,0,0,1,.1-1.37c.06-.17.14-.43.14-.43C18.52,15.77,18.44,15.66,18.34,15.9Z"/><path class="cls-2" d="M29.05,14.9a1.48,1.48,0,0,0-.13.55c0,.11,0,.44,0,.44a.79.79,0,0,1-1,0,2.34,2.34,0,0,0,.09-.38c0-.16-.05-.28-.12-.11a4.06,4.06,0,0,1-.4.84c-.14.12-.29.58-1.32.12a.72.72,0,0,0-1,.19,6.92,6.92,0,0,1-3.11,1.55c-.15.07-.46.31-.09.27a4,4,0,0,0,2.8-1c.18-.18.39-.64,1.07-.37.37.14,1.07.74,1.83-.44.44.3,1.12.18,1.23-.15a3.48,3.48,0,0,0,.23-.88c0-.23,0-.52,0-.52C29.21,14.88,29.14,14.63,29.05,14.9Z"/><path class="cls-2" d="M5.44,11.17A6.07,6.07,0,0,0,4.61,14c0,.31.16.94.64,1,.25,0,.58-.14.87-.88l.1-.38c0-.1,0-.23-.13,0-.22.46-.71.75-1,.1a2.55,2.55,0,0,1,.28-1.93c.11-.23.25-.59.25-.59C5.71,11,5.61,10.84,5.44,11.17Z"/><path class="cls-2" d="M10.09,8.31a4.84,4.84,0,0,0-.55,2.5A4.1,4.1,0,0,0,7.88,8.57c-.08-.06-.26,0-.28.35s0,.61.06.74a4.67,4.67,0,0,0,.51.39c.06,0,.12,0,.14,0s.09-.25.2-.13a4,4,0,0,1,1,1.79c.05.16.18.17.21,0,.07-.53.1-1.45.14-1.73s.22-1.2.67-.78a2.7,2.7,0,0,1,.21.22c.1.13.22.28.28.13a1.26,1.26,0,0,0,.06-.83C11,8.55,10.47,7.77,10.09,8.31Z"/><path class="cls-2" d="M25.62,7.51l-.53.72-1-.74a.05.05,0,0,0-.08,0l-.61.84a.05.05,0,0,0,0,.08l1,.77a.06.06,0,0,0,.08,0l.53-.73,1,.75a.06.06,0,0,0,.08,0l.61-.84s0-.07,0-.08l-1-.77A.06.06,0,0,0,25.62,7.51Z"/><path class="cls-2" d="M18,6.67a3.82,3.82,0,0,0-.55.78c-.13.22,0,.31.2.15a.75.75,0,0,1,.72-.33c.45,0,1.55,0,1.14.27s-.69.48-.69.48c-.26.19-.49.55,0,.35a3.38,3.38,0,0,0,1.57-1.23c.14-.21.3-.49-.35-.59S18.28,6.3,18,6.67Z"/><path class="cls-2" d="M24.33,5.44l-.61.84a.05.05,0,0,0,0,.08l1,.77a.06.06,0,0,0,.08,0l.62-.84a.06.06,0,0,0,0-.08l-1.05-.77A.06.06,0,0,0,24.33,5.44Z"/><path class="cls-2" d="M24.57,2.54a.77.77,0,0,0,0,.58c.09.23.32.75.36.82s.05.16-.08.22A.58.58,0,0,1,24,3.71a4.78,4.78,0,0,0-.18-.92c-.05-.1-.1-.12-.14,0a1.86,1.86,0,0,0-.08.36.18.18,0,0,0,0,.1s.26.74.15.93-.63.54-.91.18a3,3,0,0,1-.05-1c0-.15,0-.2-.11-.08a.66.66,0,0,0-.1.31c0,.11,0,.58,0,.73s0,.63.28.76.7,0,1-.58a.68.68,0,0,0,.8.28.84.84,0,0,0,.41-.66A1.17,1.17,0,0,0,25,3.28a3,3,0,0,1-.24-.64C24.67,2.49,24.63,2.34,24.57,2.54Z"/><path class="cls-2" d="M11.73,1.56a9.44,9.44,0,0,0-.83,3.93c0,.44.25,1.3.82,1.33.29,0,.68-.23,1-1.3.05-.24.08-.43.1-.53s0-.31-.16,0c-.22.65-.79,1.09-1.19.21a4.14,4.14,0,0,1,.22-2.7c.11-.34.25-.84.25-.84C12,1.3,11.9,1.09,11.73,1.56Z"/><path class="cls-2" d="M8.62,1.31a5.74,5.74,0,0,0-.71,2.58c0,.29.16.86.59.9.22,0,.52-.14.76-.83a2.53,2.53,0,0,0,.09-.34c0-.1,0-.21-.12,0-.18.42-.62.7-.91.1A2.36,2.36,0,0,1,8.55,2c.09-.22.21-.55.21-.55C8.86,1.16,8.76,1,8.62,1.31Z"/><path class="cls-2" d="M5.4,1.25a4.69,4.69,0,0,0-.65,2.64A4.28,4.28,0,0,0,2.84,1.52c-.1-.06-.31.05-.32.37s-.07.65.06.78,1.07.45.56,1c-.23.24-1.38,1.44-1.62,1.73s-.27.34,0,.19A3.33,3.33,0,0,0,3.56,3.32a.82.82,0,0,0-.07-.45l.07,0a4,4,0,0,1,1,1.55,1.64,1.64,0,0,1,0,.66A5.29,5.29,0,0,0,4,7.46c0,.29.16.86.59.9.22,0,.52-.13.76-.83,0-.15.08-.28.1-.34s0-.21-.13,0c-.18.42-.62.7-.91.11a2.19,2.19,0,0,1,.23-1.78,11.61,11.61,0,0,0,.45-2.59c.07-.42.26-1.27.79-.83l.24.24c.11.14.25.3.32.14a1.26,1.26,0,0,0,.07-.87C6.49,1.51,5.85.69,5.4,1.25Z"/><path class="cls-2" d="M29.57,3.75c-.06-.17-1.2-2.92-1.24-3s-.08-.18-.14-.06l-.45,1a7.35,7.35,0,0,1,.17.75C28,2.9,29,10.29,29,10.63c0,.16.16.89-.53.83a2.1,2.1,0,0,1-1.48-1,1.87,1.87,0,0,0,.08-.32c0-.12,0-.36-.13-.13s-.48,1.22-.89,1.45a.87.87,0,0,1-1.31-.69c.09-.25.14-.38.16-.46s0-.33-.16-.12-.78,1.36-1.84,1.4c-.3,0-1.11.17-1.83-1.39-.15-.29-.44-.65-1.12-.3a3.51,3.51,0,0,0-1.77,3.26l-.21.09c-.41.16-2.74.75-3.15-.73,0-.16.05-.76-.17-.42s-.58,1.54-1.26,1.68a.9.9,0,0,1-1.07-.72,6.56,6.56,0,0,1,.17-.78c0-.18,0-.49-.22-.21s-1.49,2.38-3,1.1c-.07-.13-.36-.79-.46-1s-.14-.13-.18,0-.21.91-.21.91a6.69,6.69,0,0,1,.73,2.49,6.17,6.17,0,0,1-6.22,2.5A2.67,2.67,0,0,1,.57,14.68a5.94,5.94,0,0,1,.56-1.51.28.28,0,0,0,0-.24c.25-.1.55-.4.85-1.15.07-.24.13-.42.16-.52s0-.32-.16,0c-.3.62-.91,1-1.21.08a4.08,4.08,0,0,1,.51-2.66c.15-.32.34-.81.34-.81.17-.36.05-.58-.17-.14A9.62,9.62,0,0,0,.25,11.55c0,.44.1,1.31.66,1.41H1l-.07.12c-.19.39-2.32,4.24.67,6a6.18,6.18,0,0,0,5.76-.63c.23-.15,1.92-1.26,2.07-2.33.11-.48.21-1.26.21-1.26A2.43,2.43,0,0,0,11.79,14c.24.48,1.07,1.72,2.2.44l.47-.63c.16.22,1,1.52,3.67.61a3.3,3.3,0,0,0,.34-.15,3.21,3.21,0,0,0,.22.46,2.69,2.69,0,0,0,1.72,1.43c.32,0,1.33,0,1.32-1.72a1.57,1.57,0,0,0-1.07-1.63,3.42,3.42,0,0,0-1.88.17A1.58,1.58,0,0,1,19,11.82c.12-.22,1.18-1.22,1.6-.48s1.48,2.31,3.21.95a3.74,3.74,0,0,0,.41-.42c.24,1.05,1.46,1.42,2.36-.07,1.44,1.38,2.42.52,2.57.17a3.6,3.6,0,0,0,.33-2.24c-.07-.57-.74-6.38-.74-6.38s.54.41.64.52S29.62,3.92,29.57,3.75ZM20.79,14.26c.31.23.54.67,0,.6a1.76,1.76,0,0,1-1.18-.56l-.3-.31A1.76,1.76,0,0,1,20.79,14.26Z"/><path class="cls-2" d="M31.76.66l-.43,1.06c0,.05.11.46.13.61.18,1.35,1.28,9.32,1.59,11.84.16,1.24.28,2.36.3,3,0,.18.06.25.15.07a4.11,4.11,0,0,0,.29-1.52,20.89,20.89,0,0,0-.24-3.61c0-.24-1.18-8.57-1.18-8.57l.72.69c.1.11.22,0,.17-.12S31.93.83,31.89.72,31.81.54,31.76.66Z"/><path class="cls-2" d="M16,.29a4.34,4.34,0,0,0-.44,2c0,.22.16.65.49.66s.4-.13.55-.67L16.67,2c0-.08,0-.16-.09,0-.13.33-.45.57-.7.12A1.87,1.87,0,0,1,16,.78c.06-.17.14-.43.14-.43C16.19.16,16.1.06,16,.29Z"/><path class="cls-2" d="M26.73.11C26.5.23,15.2,4.72,14.54,5.18a1.93,1.93,0,0,0-.75,1.05c-.18.63-.06,1.26.34,1.36a.85.85,0,0,1,.51.35s.07,0,.09,0a.77.77,0,0,0-.44-1.25c-.22-.08-.29-.4.56-.86S26.19,1.15,26.37,1.05s.37-.2.48-.42A3.72,3.72,0,0,0,27,.22C27.1.06,27.16-.12,26.73.11Z"/></g></g></g></svg>