<svg xmlns="http://www.w3.org/2000/svg" viewBox="0 0 33.13 20.15"><defs><style>.cls-1{isolation:isolate;}.cls-2{fill-rule:evenodd;mix-blend-mode:darken;}</style></defs><g class="cls-1"><g id="Layer_2" data-name="Layer 2"><g id="سور_الٌقرآن_الكريم" data-name="سور الٌقرآن الكريم"><path class="cls-2" d="M23.9,17.35c-.06.11-.1.21-.12.25s0,.17.09,0c.21-.3.59-.45.72.05A1.89,1.89,0,0,1,24.15,19l-.24.38c-.12.18-.06.3.09.09a4.28,4.28,0,0,0,.93-1.87c0-.23,0-.69-.32-.78C24.44,16.78,24.19,16.85,23.9,17.35Z"/><path class="cls-2" d="M10.39,16.47c-.22.12-5.63,2.73-5.85,2.87s-.31.18-.35.36-.05.27-.06.3-.07.26.26,0c.1-.06,5.56-2.7,5.74-2.82s.3-.16.37-.34a2.47,2.47,0,0,0,.14-.34C10.68,16.41,10.73,16.27,10.39,16.47Z"/><path class="cls-2" d="M30,16.67l-.16.23c0,.06,0,.17.09,0s.65-.36.71.16A1.91,1.91,0,0,1,30,18.34c-.13.14-.3.35-.3.35-.14.16-.1.29.08.1A4.35,4.35,0,0,0,31,17.07c.07-.21.1-.68-.21-.82C30.58,16.19,30.32,16.22,30,16.67Z"/><path class="cls-2" d="M16.11,15.31l-.62.86a.06.06,0,0,0,0,.09l1.07.78a.07.07,0,0,0,.08,0l.63-.86a.06.06,0,0,0,0-.08L16.2,15.3A.06.06,0,0,0,16.11,15.31Z"/><path class="cls-2" d="M6.93,8.1l-.54.74-1-.76a.06.06,0,0,0-.08,0L4.64,9a.06.06,0,0,0,0,.08l1.07.78a.07.07,0,0,0,.09,0l.54-.75,1,.76a.06.06,0,0,0,.08,0L8.1,9a.07.07,0,0,0,0-.09L7,8.08A.07.07,0,0,0,6.93,8.1Z"/><path class="cls-2" d="M24.74,8l-.54.74-1-.75a.06.06,0,0,0-.08,0l-.63.86a.07.07,0,0,0,0,.09l1.06.78a.07.07,0,0,0,.09,0L24.16,9l1,.76a.06.06,0,0,0,.08,0l.63-.86a.06.06,0,0,0,0-.08L24.83,8A.07.07,0,0,0,24.74,8Z"/><path class="cls-2" d="M17.87,7.59a4,4,0,0,0-.52.74c-.13.21,0,.3.19.14a.73.73,0,0,1,.69-.31c.43,0,1.48,0,1.09.26s-.66.45-.66.45c-.25.18-.47.52,0,.33A3.14,3.14,0,0,0,20.13,8c.13-.2.28-.46-.33-.55S18.19,7.24,17.87,7.59Z"/><path class="cls-2" d="M12.4,7.26a5,5,0,0,0-.51,2.32c0,.26.19.76.58.77.2,0,.45-.14.64-.77,0-.14.05-.26.06-.31s0-.19-.11,0c-.14.38-.52.65-.81.13a2.21,2.21,0,0,1,.12-1.59c.07-.19.16-.49.16-.49C12.61,7.11,12.51,7,12.4,7.26Z"/><path class="cls-2" d="M.6,6.35a10.22,10.22,0,0,0-.55,4.22c.05.46.37,1.34,1,1.33.31,0,.7-.3.92-1.44C2,10.2,2,10,2,9.89s-.08-.33-.16,0c-.19.7-.76,1.22-1.26.32a4.41,4.41,0,0,1,0-2.87c.09-.37.2-.91.2-.91C.91,6.06.75,5.85.6,6.35Z"/><path class="cls-2" d="M24.49,4.21c-.15.3-.19.39-.18.53a3.18,3.18,0,0,1,0,.69c0,.11-.68.46-.92.17-.08-.11,0-.53,0-.73s0-.44-.18-.16a.79.79,0,0,0-.15.56c0,.19,0,.43-.12.59s-.9.6-1.2,0a1.15,1.15,0,0,1,0-.48c0-.16-.1-.33-.19-.09a2.08,2.08,0,0,0-.18,1c.08.34.65,1.09,1.66,0,.23.13,1,.44,1.52-.69a3.44,3.44,0,0,0,.16-1.26C24.71,4.05,24.63,3.91,24.49,4.21Z"/><path class="cls-2" d="M8.53,2a4.94,4.94,0,0,0-.48,2.23c0,.25.17.73.55.74.19,0,.43-.14.61-.74l.06-.3c0-.08,0-.18-.1,0-.14.37-.5.62-.78.13A2.08,2.08,0,0,1,8.5,2.5c.07-.19.16-.47.16-.47C8.73,1.82,8.64,1.7,8.53,2Z"/><path class="cls-2" d="M5.08,1.57a4.82,4.82,0,0,0-.67,2.7,4.42,4.42,0,0,0-2-2.42c-.1-.06-.31,0-.33.38s-.07.66.07.79a4.71,4.71,0,0,0,.6.43c.07,0,.14,0,.16,0s.11-.27.24-.13A4.11,4.11,0,0,1,4.37,5.21c.06.16.22.18.25-.06.09-.57.13-1.56.18-1.86s.26-1.3.8-.84c.12.1.25.23.25.23s.26.31.33.15a1.32,1.32,0,0,0,.07-.89C6.2,1.84,5.53,1,5.08,1.57Z"/><path class="cls-2" d="M17.86.79c-.22.13-8.14,4.08-8.75,4.57a1.89,1.89,0,0,0-.64,1.06c-.13.61,0,1.22.42,1.28A.82.82,0,0,1,9.4,8s.08,0,.09,0A.74.74,0,0,0,9,6.82c-.21-.07-.31-.36.48-.87s8-4.12,8.11-4.24.35-.21.44-.43.11-.26.15-.41S18.25.54,17.86.79Z"/><path class="cls-2" d="M29.5,13c0-.42-1.22-9.1-1.22-9.1-.06-.33-.09-.53-.09-.53s.64.59.74.7.23.05.17-.12S27.74.66,27.7.56s-.08-.19-.14-.07l-.36,1c0,.14,1.59,11.51,1.64,11.84s.13.69-.12.87S27,15.1,26,14.5a2.35,2.35,0,0,1-.82-2.33c0-.26.05-.52-.43-.23a17.48,17.48,0,0,1-2.17,1.14,5.24,5.24,0,0,0-1.22-1.56,1.22,1.22,0,0,0-1.78.25,2,2,0,0,0-.25,2.67c.73.72,2.73,0,2.8,0s.29.25.1.54-3.17,3.75-5.9,3.67c-.65,0-2.84-.82-2.07-3.67a.72.72,0,0,0,0-.28,5.88,5.88,0,0,0,1.89-1.09,3.62,3.62,0,0,0,.37-2.82c-.17-.44-.79-1.67-1-1.18a4.39,4.39,0,0,0-.19,1.09c.26.37,1.11,1.33.67,1.68A7.18,7.18,0,0,1,11,14a3.69,3.69,0,0,1-2.94-2,.93.93,0,0,0-1.42-.49A5.34,5.34,0,0,0,4.52,14c-.16.42-.67,2.1-.81,2.36S3,17.43,2.27,17A3.44,3.44,0,0,1,.84,14.34a17.61,17.61,0,0,1,0-1.77c0-.35-.21-.31-.25,0s-.52,4.13,1.3,5.55a1.15,1.15,0,0,0,1.69-.31c.36-.5,1.42-3.38,1.61-3.73a2.52,2.52,0,0,1,1.91-1.37.63.63,0,0,1,.48.28,4.82,4.82,0,0,0,2.53,2.18,7.18,7.18,0,0,0,3.79-.31l-.06.16c-.17.62-.79,4.15,1.53,4.78.62.16,3.35.75,6.9-3.51a3.32,3.32,0,0,0,.51-2c.14-.11,1.48-.83,1.61-.91s.15-.1.18.05.21,2.82,2.51,2.57a3.52,3.52,0,0,0,1.87-.74A3.33,3.33,0,0,0,29.5,13Zm-9.59.4a.31.31,0,0,1-.16-.56c.12-.11.9-.66,1.64.47A3,3,0,0,1,19.91,13.43Z"/><path class="cls-2" d="M25.48.48C25.19.66,16.57,4.79,16.27,5s-.42.25-.47.49-.07.37-.09.41-.09.35.36.05c.14-.09,8.82-4.25,9.07-4.42s.4-.23.5-.47.13-.29.19-.46S25.94.22,25.48.48Z"/><path class="cls-2" d="M31,.06l-.44,1.08c0,.06.11.48.13.63.18,1.38,1.31,9.52,1.64,12.09.16,1.27.28,2.41.3,3,0,.19.07.26.15.08a4,4,0,0,0,.3-1.56,20.7,20.7,0,0,0-.24-3.68c0-.25-1.21-8.75-1.21-8.75l.74.7c.1.11.22.05.16-.12S31.21.24,31.16.13,31.08-.06,31,.06Z"/></g></g></g></svg>