<svg xmlns="http://www.w3.org/2000/svg" viewBox="0 0 36.28 17.49"><defs><style>.cls-1{isolation:isolate;}.cls-2{fill-rule:evenodd;mix-blend-mode:darken;}</style></defs><g class="cls-1"><g id="Layer_2" data-name="Layer 2"><g id="سور_الٌقرآن_الكريم" data-name="سور الٌقرآن الكريم"><path class="cls-2" d="M9.33,15.07c-.19.1-4.19,1.61-4.39,1.73s-.28.14-.32.29-.06.24-.07.26-.08.23.22.06c.1-.06,4.13-1.59,4.3-1.68s.27-.13.34-.29a2.38,2.38,0,0,0,.14-.28C9.59,15,9.64,14.92,9.33,15.07Z"/><path class="cls-2" d="M16.86,15.47c0,.09-.05.17-.06.21s0,.13.07,0,.4-.42.57,0a1.49,1.49,0,0,1-.17,1.1c-.06.13-.14.33-.14.33-.07.15,0,.24.08.06a3.6,3.6,0,0,0,.49-1.58c0-.18-.08-.54-.35-.57S17,15,16.86,15.47Z"/><path class="cls-2" d="M33.49,14.28c-.06.08-.09.15-.12.19s0,.13.08,0,.49-.31.56.09a1.51,1.51,0,0,1-.44,1,3,3,0,0,0-.22.29c-.11.13-.07.23.06.07a3.42,3.42,0,0,0,.88-1.4c0-.18.05-.54-.2-.64S33.75,13.91,33.49,14.28Z"/><path class="cls-2" d="M4.64,10.46a3.69,3.69,0,0,0-.22,1.67c0,.18.18.52.46.51s.31-.13.4-.58c0-.11,0-.19,0-.23s0-.13-.08,0-.33.5-.56.15a1.51,1.51,0,0,1,0-1.13c0-.15.08-.36.08-.36C4.78,10.34,4.71,10.26,4.64,10.46Z"/><path class="cls-2" d="M8.6,9.78c0,.16-.23,1-.23,1,.16.23.89,1.22.69,1.41S7.07,13.86,3,14c-.47,0-2.61-.08-2.46-1.84A4.87,4.87,0,0,1,1,10.62c.08-.18-.1-.3-.22-.09s-1.54,2.39-.2,3.94c.11.14,1.21,1.36,5.53.16a6.32,6.32,0,0,0,3.17-1.76,2.28,2.28,0,0,0,.26-1.79,11.18,11.18,0,0,0-.7-1.28C8.73,9.63,8.65,9.61,8.6,9.78Z"/><path class="cls-2" d="M5.1,8l-.48.65L3.71,8a.05.05,0,0,0-.08,0l-.55.75a.06.06,0,0,0,0,.08L4,9.54a.06.06,0,0,0,.08,0l.47-.65.92.66a0,0,0,0,0,.07,0l.55-.76a0,0,0,0,0,0-.07L5.17,8S5.12,8,5.1,8Z"/><path class="cls-2" d="M13.82,7.25,13.27,8a0,0,0,0,0,0,.07l.94.69a0,0,0,0,0,.07,0L14.84,8a.05.05,0,0,0,0-.08l-.94-.68A0,0,0,0,0,13.82,7.25Z"/><path class="cls-2" d="M1,4.45A8.32,8.32,0,0,0,.5,7.89C.55,8.27.8,9,1.3,9c.25,0,.57-.25.75-1.18,0-.21,0-.38.05-.46S2,7.07,2,7.36c-.16.57-.62,1-1,.26A3.59,3.59,0,0,1,1,5.28c.08-.29.17-.73.17-.73C1.21,4.21,1.08,4,1,4.45Z"/><path class="cls-2" d="M14.74,3.84a.74.74,0,0,0,0,.53c.08.2.29.67.33.74a.13.13,0,0,1-.08.2.53.53,0,0,1-.75-.41,5.37,5.37,0,0,0-.15-.83C14,4,14,4,13.93,4.05a2.49,2.49,0,0,0-.07.33.15.15,0,0,0,0,.09s.23.67.14.85-.58.49-.83.16a2.64,2.64,0,0,1,0-1c0-.14,0-.19-.1-.08a.57.57,0,0,0-.09.29c0,.1,0,.52,0,.66s0,.57.26.69.63,0,.91-.52a.63.63,0,0,0,.73.25.75.75,0,0,0,.38-.6,1,1,0,0,0-.14-.71,2.69,2.69,0,0,1-.22-.59C14.84,3.79,14.8,3.66,14.74,3.84Z"/><path class="cls-2" d="M7.7,1.89a9,9,0,0,0-.49,3.73c0,.4.32,1.18.85,1.17.28,0,.62-.26.82-1.27,0-.23,0-.41.06-.5s-.08-.29-.15,0c-.17.62-.66,1.08-1.1.28a3.91,3.91,0,0,1,0-2.53c.08-.32.18-.79.18-.79C8,1.64,7.83,1.45,7.7,1.89Z"/><path class="cls-2" d="M15.83,1,12.13,2.5c-.22.09-.27.15-.32.3s-.06.24-.07.26-.07.19.23,0c.1,0,3.42-1.4,3.6-1.49s.27-.13.34-.28l.14-.29C16.09.93,16.15.84,15.83,1Z"/><path class="cls-2" d="M4.7.68A4.25,4.25,0,0,0,4.12,3,3.79,3.79,0,0,0,2.44.92c-.09-.05-.27,0-.29.33s-.06.58.06.69a3.17,3.17,0,0,0,.52.38c.06,0,.12,0,.13,0s.1-.23.21-.11A3.26,3.26,0,0,1,4,3.62c.17.69-1.52,2.08-1.61,2.15s-.11.18,0,.14a7.2,7.2,0,0,0,1-.62,1.88,1.88,0,0,0,.91-1.41.64.64,0,0,0,0-.07c.07-.5.11-1.37.15-1.63s.23-1.14.69-.74l.21.21c.1.12.23.27.29.12A1.1,1.1,0,0,0,5.71,1C5.67.91,5.09.17,4.7.68Z"/><path class="cls-2" d="M15.36,10.1a1.17,1.17,0,0,0-1.67,0,1.77,1.77,0,0,0-.22,2.36A1.92,1.92,0,0,0,15,12.7c.28,0,1.05,0,1.22.21s0,.34-.11.45a4.25,4.25,0,0,1-2.35.89c-.4,0-1.57.05-2.08-1.88-.13-.46-.36-2.75-.41-3.15S10.64,1.89,10.13.46C10.07.3,10,.21,9.87.48a5.06,5.06,0,0,0-.25.75c.4,1.65,1,8.15,1.07,8.47,0,.13.07,1,.2,2,.2,1.4.45,3,1.66,3.5A3.25,3.25,0,0,0,15.2,15a2.26,2.26,0,0,0,1.46-2.12A3.3,3.3,0,0,0,15.36,10.1Zm-.7,1.55c-.34,0-.56.09-.82-.1s0-.47.15-.56.73-.25,1.4.64A3.84,3.84,0,0,0,14.66,11.65Z"/><path class="cls-2" d="M22.4,8.5a4.34,4.34,0,0,0-.44,2c0,.22.16.66.5.67.17,0,.39-.13.55-.67,0-.12,0-.22.06-.27s0-.16-.1,0c-.12.33-.45.56-.7.12A1.9,1.9,0,0,1,22.37,9l.14-.42C22.58,8.37,22.5,8.27,22.4,8.5Z"/><path class="cls-2" d="M28.17,6.14a.88.88,0,0,0,0,.66c.1.26.36.84.41.92a.16.16,0,0,1-.09.24.64.64,0,0,1-.93-.5,6.9,6.9,0,0,0-.2-1c-.06-.12-.12-.14-.17,0a4,4,0,0,0-.08.41.11.11,0,0,0,0,.11s.29.83.17,1.05-.72.61-1,.2a3.22,3.22,0,0,1,0-1.18c0-.17-.06-.23-.13-.09a.74.74,0,0,0-.11.35c0,.12,0,.65,0,.82s0,.71.32.86.78,0,1.13-.65a.79.79,0,0,0,.91.31.93.93,0,0,0,.46-.74A1.31,1.31,0,0,0,28.62,7a3,3,0,0,1-.28-.73C28.29,6.09,28.24,5.92,28.17,6.14Z"/><path class="cls-2" d="M30.42,2.36c-.28.12-10.07,4.69-10.35,4.82s-.37.2-.43.4-.08.3-.09.34-.12.28.3.07c.13-.06,10-4.63,10.22-4.76s.35-.18.46-.38.12-.24.18-.38S30.84,2.17,30.42,2.36Z"/><path class="cls-2" d="M26.08.56a4.48,4.48,0,0,0-.44,2c0,.22.16.66.5.67.17,0,.39-.13.55-.67,0-.12,0-.22.06-.27s0-.16-.09,0c-.13.33-.46.56-.7.12a1.86,1.86,0,0,1,.09-1.38c.07-.17.14-.42.14-.42C26.26.43,26.18.33,26.08.56Z"/><path class="cls-2" d="M22.61.54A4.55,4.55,0,0,0,22,3,4.09,4.09,0,0,0,20.29.79c-.09-.05-.27,0-.29.35s-.06.61.06.74a3.86,3.86,0,0,0,.53.39c.06,0,.12,0,.14,0s.1-.25.21-.13A3.87,3.87,0,0,1,22,3.9c.06.15.19.17.22,0,.08-.53.12-1.45.16-1.72s.23-1.2.7-.78a2,2,0,0,1,.22.22c.11.13.23.28.29.13a1.18,1.18,0,0,0,.07-.82C23.59.78,23,0,22.61.54Z"/><path class="cls-2" d="M34.43.23c0,.11-.39,1-.39,1s.1.42.12.55c.16,1.22,1.16,8.39,1.44,10.66.14,1.12.25,2.12.27,2.66,0,.17.06.23.13.07a3.62,3.62,0,0,0,.27-1.37,18.34,18.34,0,0,0-.22-3.25L35,2.79s.56.52.65.62.19,0,.14-.11S34.59.38,34.55.28,34.48.12,34.43.23Z"/><path class="cls-2" d="M33.38,10.46c-.07-.47-1-7.84-1-7.84s.47.37.56.47.2,0,.15-.11S32,.21,31.94.12,31.87,0,31.82.06L31.41,1a5.72,5.72,0,0,1,.15.68c.06.42.15,1,.25,1.7,0,0,1.12,8.29,1.14,8.54s0,1.18-1.79,1.49c.1-.24.78-1.44.3-2.26a2.72,2.72,0,0,0-3.93-.78,10.67,10.67,0,0,0-3.05,3.75,2.07,2.07,0,0,1-1.37-1.27,1,1,0,0,0,.06-.26c0-.1-.06-.32-.23-.06s-1.13,2.08-2.41,1.94c-.27,0-1.35-.18-1.74-2.45-.11-.68-.36-6.69-.89-9.48-.1-.58-.33-1.87-.39-2.09s-.12-.16-.18,0l-.4.81c1,3.77.91,10.45,1.59,12.58a2.29,2.29,0,0,0,2,1.81A2.56,2.56,0,0,0,22.65,14a3.08,3.08,0,0,0,1.27,1.13,7.46,7.46,0,0,0-.35.7c0,.08,0,.24.12.12s.42-.58.5-.7a3.84,3.84,0,0,0,1.8.21,28.21,28.21,0,0,0,5.23-1.08c.54-.17,1.89-.6,2.08-1.73A4.37,4.37,0,0,0,33.38,10.46Zm-2.81,2.35a9.38,9.38,0,0,1-5.74,1.41c.21-.33,1.74-2.88,3.45-3.19a2.47,2.47,0,0,1,2.6,1.17C31,12.32,31,12.51,30.57,12.81Z"/></g></g></g></svg>