<svg xmlns="http://www.w3.org/2000/svg" viewBox="0 0 33.87 19.12"><defs><style>.cls-1{isolation:isolate;}.cls-2{fill-rule:evenodd;mix-blend-mode:darken;}</style></defs><g class="cls-1"><g id="Layer_2" data-name="Layer 2"><g id="سور_الٌقرآن_الكريم" data-name="سور الٌقرآن الكريم"><path class="cls-2" d="M9.92,16.49c-.21.11-2.66,1.45-2.89,1.59s-.28.21-.3.38,0,.26,0,.29-.07.22.25,0c.16-.1,2.57-1.38,2.8-1.52s.27-.19.32-.37a2.82,2.82,0,0,0,.1-.34C10.2,16.41,10.25,16.33,9.92,16.49Z"/><path class="cls-2" d="M18.55,16.06l-.61.83A.05.05,0,0,0,18,17l1,.75s.07,0,.08,0l.61-.83s0-.07,0-.08l-1-.76A.05.05,0,0,0,18.55,16.06Z"/><path class="cls-2" d="M14.75,15.78a4.59,4.59,0,0,0-.44,2.16c0,.24.2.7.57.7.2,0,.44-.14.61-.73,0-.13,0-.24,0-.29s0-.17-.1,0c-.13.36-.5.62-.78.15a1.87,1.87,0,0,1,.07-1.48c.06-.18.14-.46.14-.46C14.94,15.64,14.85,15.53,14.75,15.78Z"/><path class="cls-2" d="M26.18,15.59a4.35,4.35,0,0,0-.43,2c0,.22.16.64.49.65.17,0,.39-.12.55-.66,0-.12,0-.21.05-.26s0-.16-.09,0c-.13.32-.45.55-.69.11a1.81,1.81,0,0,1,.1-1.35c.06-.17.13-.42.13-.42C26.36,15.46,26.28,15.35,26.18,15.59Z"/><path class="cls-2" d="M25.25,8.1l-.61.83a.06.06,0,0,0,0,.08l1,.75a.05.05,0,0,0,.08,0l.61-.83s0-.07,0-.08l-1-.76A.05.05,0,0,0,25.25,8.1Z"/><path class="cls-2" d="M5.26,7.91a4.49,4.49,0,0,0-.43,2.16c0,.24.19.7.57.7.19,0,.44-.14.6-.73,0-.13,0-.24.06-.29s0-.17-.11,0c-.13.36-.49.62-.78.15a1.92,1.92,0,0,1,.07-1.48c.07-.18.15-.46.15-.46C5.46,7.77,5.36,7.65,5.26,7.91Z"/><path class="cls-2" d="M19.23,6a4.84,4.84,0,0,0-.43,2.62A4.22,4.22,0,0,0,17,6.38c-.1,0-.28.06-.27.38s0,.64.1.76a3.69,3.69,0,0,0,.55.38c.06,0,.12,0,.14,0s.08-.26.2-.14a4.06,4.06,0,0,1,1.14,1.8c.06.15.19.16.21-.07,0-.55,0-1.51,0-1.8s.16-1.26.65-.85A2.73,2.73,0,0,1,20,7c.11.13.24.28.3.12a1.41,1.41,0,0,0,0-.86C20.22,6.19,19.6,5.41,19.23,6Z"/><path class="cls-2" d="M9.09,5.83a9.24,9.24,0,0,0-.65,3.82c0,.42.29,1.23.84,1.25.28,0,.65-.26.89-1.29,0-.23.06-.42.08-.51s-.07-.3-.15,0c-.2.63-.73,1.08-1.15.25a4,4,0,0,1,.11-2.61c.09-.33.21-.81.21-.81C9.38,5.58,9.24,5.38,9.09,5.83Z"/><path class="cls-2" d="M25.39,4.2a.94.94,0,0,0,0,.72c.11.28.4.92.44,1a.17.17,0,0,1-.1.27.72.72,0,0,1-1-.56,6.29,6.29,0,0,0-.21-1.13c-.07-.13-.13-.15-.18,0a2.36,2.36,0,0,0-.1.45.27.27,0,0,0,0,.12c0,.05.32.92.19,1.16s-.78.66-1.13.21a3.62,3.62,0,0,1-.06-1.29c0-.19-.06-.25-.14-.1a.76.76,0,0,0-.12.38,8.87,8.87,0,0,1,0,.9c0,.19,0,.78.35.95s.86,0,1.25-.72a.87.87,0,0,0,1,.35,1.05,1.05,0,0,0,.51-.82,1.39,1.39,0,0,0-.18-1,3.35,3.35,0,0,1-.3-.8C25.52,4.14,25.47,4,25.39,4.2Z"/><path class="cls-2" d="M12.4,1.87a3.79,3.79,0,0,0-.5.72c-.13.2,0,.29.18.13a.7.7,0,0,1,.67-.3c.42,0,1.43,0,1.05.25s-.63.44-.63.44c-.25.18-.46.51,0,.32A3,3,0,0,0,14.58,2.3c.13-.19.28-.45-.31-.54S12.71,1.53,12.4,1.87Z"/><path class="cls-2" d="M5.61,1.66A4.65,4.65,0,0,0,5,4.26,4.21,4.21,0,0,0,3.07,1.92c-.1-.06-.3.05-.32.37s-.07.64.06.77,1.06.45.56,1C3.14,4.28,2,5.47,1.76,5.75s-.27.34,0,.19a3.27,3.27,0,0,0,2-2.24.91.91,0,0,0-.06-.44l.06,0A4,4,0,0,1,4.93,5.17c.06.16.2.17.24,0,.08-.55.12-1.51.17-1.81s.25-1.25.77-.81a3,3,0,0,1,.24.23c.12.14.25.3.32.14A1.23,1.23,0,0,0,6.74,2C6.69,1.91,6.05,1.1,5.61,1.66Z"/><path class="cls-2" d="M25.74.74C25.49.87,14,6.12,13.67,6.29s-.32.24-.35.44,0,.32,0,.35-.08.26.31,0C13.77,7,25.27,1.8,25.53,1.63a.71.71,0,0,0,.39-.43A3.13,3.13,0,0,0,26,.8C26.07.64,26.13.54,25.74.74Z"/><path class="cls-2" d="M28.31.06l-.45,1a6.19,6.19,0,0,1,.17.74c.1.69,1.28,8.74,1.32,9.08a18.92,18.92,0,0,1,.17,1.94c0,.27.1.58-.46.79a1.69,1.69,0,0,1-2.36-1.08c0-.17,0-.13,0-.21s-.05-.38-.27-.13a3.62,3.62,0,0,1-3.7,2A1.28,1.28,0,0,1,21.6,13a9.63,9.63,0,0,1,1.72.06l.55-1.17a22.56,22.56,0,0,1-5.29-.73c-.57-.17-2.29-.73-2.64-.91a1,1,0,0,0-.77,0,8.55,8.55,0,0,0-1.92.57c-.08.14-.55,1.11-.4,1.13s2.39,0,2.52,0,.2,0,.23-.07.11-.24.11-.24a20.6,20.6,0,0,1,3,1,10.56,10.56,0,0,1-4.38,1.37,4.62,4.62,0,0,1-2.93-1.06c-.25-.2-.3-.22-.4-.12s-.19.19-.19.19a4.91,4.91,0,0,0-3.7,1,43.35,43.35,0,0,0-3.58,3.26c-.62.52-2,1.65-2.92.3-.27-.41-.5-1.56,1.25-4.23h.07c.28,0,.64-.25.88-1.28,0-.24.07-.42.09-.52s-.07-.3-.16,0c-.19.64-.72,1.09-1.14.25A4,4,0,0,1,1.7,9.12c.09-.32.21-.81.21-.81.1-.37,0-.56-.19-.11A9.25,9.25,0,0,0,1.08,12a1.75,1.75,0,0,0,.49,1.11A8.76,8.76,0,0,0,0,16.61a2.08,2.08,0,0,0,1.4,2.47c.52.13,1.65,0,3.1-1.59.65-.72,4-4.19,6.23-3.31a2.78,2.78,0,0,0,1,2.07,3.35,3.35,0,0,0,.81.41.31.31,0,0,0,.42-.31c0-.36.08-1.22.08-1.22a8,8,0,0,0,5.5-1.32A5.82,5.82,0,0,1,21.17,13c0,.55-.43,2.5,2.13,2.5a4.07,4.07,0,0,0,2.9-1.91,2,2,0,0,0,3.15,1c.29-.16.93-.8.84-2.51-.05-.9-1.27-9.21-1.27-9.21l.71.68c.1.11.22.05.17-.12S28.48.23,28.44.12,28.36-.06,28.31.06Z"/><path class="cls-2" d="M31.84.06c-.05.12-.35.93-.35.93.08.53.79,6.2.84,6.59s1,6.8,1.09,8.58c0,.18.06.25.15.07s.66-1.36,0-5.69c0-.37-1.09-7.7-1.09-7.7s.62.57.71.67.22.05.17-.11S32,.23,32,.12,31.89-.06,31.84.06Z"/></g></g></g></svg>