<svg xmlns="http://www.w3.org/2000/svg" viewBox="0 0 26.92 26.25"><defs><style>.cls-1{isolation:isolate;}.cls-2{fill-rule:evenodd;mix-blend-mode:darken;}</style></defs><g class="cls-1"><g id="Layer_2" data-name="Layer 2"><g id="سور_الٌقرآن_الكريم" data-name="سور الٌقرآن الكريم"><path class="cls-2" d="M4.38,24.16c-.18.09-3.27,1.33-3.46,1.44s-.26.14-.3.28-.05.22-.06.24-.07.21.21.05c.08-.05,3.21-1.32,3.37-1.41s.25-.12.32-.26l.12-.27C4.63,24.12,4.67,24,4.38,24.16Z"/><path class="cls-2" d="M4.6,22.89c-.18.09-3.27,1.33-3.46,1.44s-.26.14-.29.28-.06.22-.07.24-.07.21.21,0c.09,0,3.21-1.32,3.37-1.41s.25-.12.32-.26.09-.17.13-.27S4.89,22.74,4.6,22.89Z"/><path class="cls-2" d="M9.2,21.38l-.79,1.08a.08.08,0,0,0,0,.11l1.35,1a.08.08,0,0,0,.1,0l.79-1.08a.08.08,0,0,0,0-.11l-1.34-1A.08.08,0,0,0,9.2,21.38Z"/><path class="cls-2" d="M2.79,20.14c-.49.38-1.63,1.49-1.12,2,.3.24.43.36.43.36a.67.67,0,0,0-.34.36,2.24,2.24,0,0,0-.14.3c0,.1-.07.23.17.09a5.74,5.74,0,0,1,2.31-1c.21,0,.39-.39.39-.39s.27-.48,0-.31A3.07,3.07,0,0,1,3,21.89a1.77,1.77,0,0,1-.87-.51c-.09-.15-.07-.31.21-.47s.58-.27.79.08c0,.06.09.06.18,0a4.68,4.68,0,0,0,.32-.41.26.26,0,0,0,0-.29A.58.58,0,0,0,2.79,20.14Z"/><path class="cls-2" d="M24.11,19.59a1.71,1.71,0,0,0-.16.71c0,.13.05.56.05.56a1,1,0,0,1-1.23.05,3.65,3.65,0,0,0,.13-.5c.06-.2-.07-.35-.17-.14a5.63,5.63,0,0,1-.51,1.08c-.17.16-.38.75-1.69.15a.94.94,0,0,0-1.27.24c-1.42,1.33-2.4,1.43-4,2-.19.09-.6.39-.11.34s2.5,0,3.6-1.26c.23-.22.49-.81,1.37-.47.48.18,1.38.95,2.35-.57.58.39,1.45.23,1.59-.19a4.44,4.44,0,0,0,.3-1.13c0-.29,0-.66,0-.66C24.31,19.57,24.23,19.24,24.11,19.59Z"/><path class="cls-2" d="M16.72,10.78A6.39,6.39,0,0,0,16.13,14c0,.36.34,1,.93,1,.3,0,.68-.24.91-1.13,0-.2.06-.36.08-.43s-.08-.26-.16,0c-.2.54-.75,1-1.23.26a2.77,2.77,0,0,1,.05-2.22c.09-.28.21-.7.21-.7C17,10.55,16.87,10.39,16.72,10.78Z"/><path class="cls-2" d="M.62,8.81A8.23,8.23,0,0,0,0,12.56c0,.41.36,1.19,1,1.18.31,0,.7-.27.92-1.29C2,12.22,2,12,2,12s-.09-.29-.17,0c-.19.63-.75,1.09-1.24.29a3.48,3.48,0,0,1,0-2.54c.09-.32.2-.8.2-.8C.92,8.55.76,8.37.62,8.81Z"/><path class="cls-2" d="M24.24,7.74a7.71,7.71,0,0,0-.69,3.84c.05.42.4,1.22,1.1,1.2.35,0,.8-.29,1.07-1.33.05-.23.07-.42.09-.51s-.09-.3-.19,0c-.23.65-.88,1.12-1.44.31-.09-.16-.48-.9.06-2.61.11-.33.24-.82.24-.82C24.6,7.47,24.42,7.28,24.24,7.74Z"/><path class="cls-2" d="M26.16,4.28,11.82,11c-.39.18-.51.27-.59.54s-.11.43-.13.48-.15.38.42.1c.18-.09,13.84-6.42,14.15-6.6s.5-.24.64-.53a5.6,5.6,0,0,0,.25-.53C26.64,4.22,26.74,4,26.16,4.28Z"/><path class="cls-2" d="M2.47,3.55c0,.24.51,4.8.66,7.33.06.91.32,5.75.59,6.68s.79,3,3.33,2.51c1.27-.22,2.11-1.89,2.11-1.89a3.09,3.09,0,0,0,2.25,1.7,10.32,10.32,0,0,0,2,.09,13,13,0,0,0,5.86-2.11,2,2,0,0,0,2,1.69,2.62,2.62,0,0,0,2.14-1.47c.57.5,1.43,1.49,2.64.63.44-.34,1.56-1.49.42-3.74-.14-.26-.17-.08-.23,0s-.41,1.11-.41,1.11c.13.34.58,1.32.3,1.41A1.93,1.93,0,0,1,24,16.64c.11-.23.24-.58.33-.84s-.06-.63-.27-.23c-.69,2.09-3.37,3.66-4.05,1.29.18-.43.36-1-.18-.65s-3.43,2.43-6.42,2.3c-.83,0-3.17-.21-3.59-1.85.06-.21-.07-.76-.43-.22s-1.09,2.44-3.18,2.15c-.48-.06-1.72-.47-2.07-3.71-.08-.63-.67-11.29-.93-12.29C3.17,2.39,2.47,3.31,2.47,3.55Z"/><path class="cls-2" d="M24,.78c-.25.14-17.26,7.75-18,8.29a2.19,2.19,0,0,0-.78,1.18c-.17.7,0,1.4.43,1.49a.89.89,0,0,1,.57.36c0,.05.08,0,.1,0a.85.85,0,0,0-.53-1.36c-.24-.08-.34-.43.59-1S23.48,1.94,23.67,1.82s.41-.22.51-.47a3.25,3.25,0,0,0,.19-.46C24.44.7,24.5.51,24,.78Z"/><path class="cls-2" d="M10.29.26a6.44,6.44,0,0,0-.85,3.56A5.85,5.85,0,0,0,6.94.62c-.13-.07-.4.07-.43.51,0,.25-.09.86.09,1a5.15,5.15,0,0,0,.77.56c.08,0,.17.06.2,0s.14-.35.31-.17a5.32,5.32,0,0,1,1.5,2.54c.09.22.28.24.32-.06.11-.76.17-2.07.23-2.47C10,2,10.27.82,11,1.41a4.23,4.23,0,0,1,.32.32c.15.19.33.4.42.19A1.74,1.74,0,0,0,11.78.74C11.72.61,10.87-.5,10.29.26Z"/></g></g></g></svg>