<svg xmlns="http://www.w3.org/2000/svg" viewBox="0 0 31.03 22.49"><defs><style>.cls-1{isolation:isolate;}.cls-2{fill-rule:evenodd;mix-blend-mode:darken;}</style></defs><g class="cls-1"><g id="Layer_2" data-name="Layer 2"><g id="سور_الٌقرآن_الكريم" data-name="سور الٌقرآن الكريم"><path class="cls-2" d="M26.1,16.23a5.93,5.93,0,0,0-.54,3c0,.33.31.95.85.93.28,0,.63-.22.84-1,0-.18.05-.33.07-.4s-.07-.23-.15,0c-.18.5-.69.87-1.12.24a2.55,2.55,0,0,1,0-2c.09-.26.19-.64.19-.64C26.37,16,26.23,15.88,26.1,16.23Z"/><path class="cls-2" d="M5.42,13.89A6,6,0,0,0,5,16.73c0,.3.28.9.75.89.24,0,.54-.21.72-1,0-.17,0-.31.05-.38s-.06-.22-.13,0c-.15.47-.59.82-1,.22a2.53,2.53,0,0,1,0-1.93c.07-.24.16-.6.16-.6C5.66,13.69,5.53,13.55,5.42,13.89Z"/><path class="cls-2" d="M16.46,13.49A5.94,5.94,0,0,0,16,16.33c0,.3.27.9.74.89.24,0,.54-.21.72-1,0-.17.05-.31.06-.38s-.07-.22-.13,0c-.15.47-.59.82-1,.22a2.59,2.59,0,0,1,0-1.93c.07-.24.16-.6.16-.6C16.7,13.29,16.58,13.15,16.46,13.49Z"/><path class="cls-2" d="M11,11.46a11.39,11.39,0,0,0-.62,4.69c.06.51.41,1.5,1.08,1.48.35,0,.78-.33,1-1.6,0-.29.06-.52.07-.63s-.09-.37-.18,0c-.21.78-.84,1.35-1.39.35a4.85,4.85,0,0,1,0-3.18c.1-.41.22-1,.22-1C11.32,11.14,11.14,10.91,11,11.46Z"/><path class="cls-2" d="M29.57,9.4a3.56,3.56,0,0,0-4.62.68,20.7,20.7,0,0,0-2.89,4.2,5.29,5.29,0,0,1-.71-.22,7.2,7.2,0,0,0-.8-1.39c-.21-.23-.24-.14-.29.05s-.15,1-.15,1a10.67,10.67,0,0,1,1,2.36c-.08.28-2,3.49-8.21,4.61-.38.05-7.42,1.19-12.48-2.64-.37-.22-.61-.25-.29.23s5,6.09,14.13,3.54c7-2,7.31-5.58,7.31-5.58a4.27,4.27,0,0,0,.07-.54,10.78,10.78,0,0,0,5.23-.25c3.87-1.22,4-3.07,4.12-3.63C31.22,10.79,30,9.68,29.57,9.4Zm.18,3.11a8.42,8.42,0,0,1-7,1.91c.11-.22,2.2-4.34,4.51-4.17A3.74,3.74,0,0,1,30,11.81C30.12,12,30.14,12.14,29.75,12.51Z"/><path class="cls-2" d="M4.16,9a5.49,5.49,0,0,0-.53,3.19,5.11,5.11,0,0,0-2.5-2.63C1,9.48.77,9.63.78,10s0,.77.15.92a6.11,6.11,0,0,0,.74.44c.08,0,.16,0,.18-.06s.1-.32.27-.18a4.85,4.85,0,0,1,1.55,2.14c.09.18.26.19.28-.09,0-.67,0-1.83,0-2.18,0-.5.19-1.53.85-1.06.15.11.32.26.32.26.14.15.32.33.39.13a1.43,1.43,0,0,0,0-1C5.48,9.18,4.63,8.27,4.16,9Z"/><path class="cls-2" d="M16.51,6.39a6.06,6.06,0,0,0-.46,2.84c0,.31.28.9.75.89.24,0,.54-.21.72-1,0-.17.05-.31.06-.38s-.07-.22-.13,0c-.15.48-.59.83-1,.22a2.56,2.56,0,0,1,0-1.92c.07-.25.16-.61.16-.61C16.75,6.2,16.63,6.06,16.51,6.39Z"/><path class="cls-2" d="M2.56,3.09a5.93,5.93,0,0,0-.54,3c0,.32.31,1,.85.93.28,0,.63-.22.84-1,0-.18.06-.33.07-.4s-.07-.24-.15,0c-.17.5-.68.87-1.12.24a2.54,2.54,0,0,1,.05-2c.08-.25.18-.64.18-.64C2.84,2.88,2.7,2.74,2.56,3.09Z"/><path class="cls-2" d="M28.68,2.48c-4.27,2.66-7.45,1.67-7.62,1.59s-.36-.13-.31.09.07.82.18.93a2,2,0,0,1,.5,1.06c0,.17.09.16.15.06a3.45,3.45,0,0,0,.14-.94A11.91,11.91,0,0,0,29,3.2c.3-.19.19.13.17.44S29,4.59,29,4.81s.1.09.16-.12a15.82,15.82,0,0,0,.38-1.9C29.62,1.93,29,2.33,28.68,2.48Z"/><path class="cls-2" d="M11.77,1.57a5.57,5.57,0,0,0-.5,3.19A5.23,5.23,0,0,0,8.79,2.13c-.13,0-.36.1-.35.48s0,.77.16.91A4.53,4.53,0,0,0,9.33,4c.08,0,.16,0,.18-.06s.1-.32.26-.17a4.33,4.33,0,0,1,1.41,1.83c.3.89-1.79,2.93-1.9,3s-.13.27,0,.2a10.11,10.11,0,0,0,1.28-.94,2.52,2.52,0,0,0,1.05-2s0-.06,0-.1c0-.67,0-1.83,0-2.18s.18-1.54.84-1.06c.15.11.31.25.31.25.14.16.32.34.38.14a1.43,1.43,0,0,0,0-1C13.08,1.77,12.23.85,11.77,1.57Z"/><path class="cls-2" d="M18.36.2A6,6,0,0,0,17.9,3c0,.31.28.9.75.89.24,0,.54-.2.72-1,0-.18,0-.31.06-.38s-.07-.22-.13,0c-.15.47-.59.82-1,.22a2.59,2.59,0,0,1,0-1.93c.07-.24.16-.6.16-.6C18.6,0,18.48-.14,18.36.2Z"/></g></g></g></svg>