<svg xmlns="http://www.w3.org/2000/svg" viewBox="0 0 28.19 25.01"><defs><style>.cls-1{isolation:isolate;}.cls-2{fill-rule:evenodd;mix-blend-mode:darken;}</style></defs><g class="cls-1"><g id="Layer_2" data-name="Layer 2"><g id="سور_الٌقرآن_الكريم" data-name="سور الٌقرآن الكريم"><path class="cls-2" d="M9,22.26l-.17.3c-.05.08,0,.21.12,0,.27-.35.75-.51.88.11a2.36,2.36,0,0,1-.63,1.61c-.14.18-.32.46-.32.46-.16.2-.1.36.11.11a5.45,5.45,0,0,0,1.26-2.23c.07-.27,0-.84-.34-1C9.68,21.61,9.37,21.67,9,22.26Z"/><path class="cls-2" d="M14.78,10.34a9.22,9.22,0,0,0-.59,4c.05.44.37,1.29,1,1.27.32,0,.73-.29,1-1.38,0-.25.06-.45.07-.54s-.08-.32-.17,0c-.2.67-.78,1.17-1.29.31a3.85,3.85,0,0,1,0-2.74c.09-.34.21-.86.21-.86C15.1,10.06,14.94,9.86,14.78,10.34Z"/><path class="cls-2" d="M6.71,9.17a5.9,5.9,0,0,0-.82,3.31,5.33,5.33,0,0,0-2.4-3c-.13-.07-.39.06-.41.46,0,.24-.08.81.08,1a5.8,5.8,0,0,0,.74.52c.09,0,.17,0,.2-.05s.13-.32.29-.16a5,5,0,0,1,1.45,2.37c.08.2.27.22.31-.07.1-.7.16-1.91.21-2.29s.33-1.58,1-1c.15.13.31.3.31.3.14.17.31.37.4.17a1.6,1.6,0,0,0,.09-1.09C8.09,9.5,7.27,8.47,6.71,9.17Z"/><path class="cls-2" d="M24.23,6.64a6.68,6.68,0,0,0-.68,3.08c0,.34.25,1,.76,1,.27,0,.61-.2.85-1,0-.19.07-.34.09-.41s-.06-.25-.14,0c-.2.51-.7.87-1.08.18a2.86,2.86,0,0,1,.15-2.1c.1-.27.22-.66.22-.66C24.5,6.44,24.38,6.27,24.23,6.64Z"/><path class="cls-2" d="M4.17,2.32a9,9,0,0,0-.59,4c0,.44.37,1.28,1,1.27.32,0,.72-.29,1-1.39,0-.24.06-.44.07-.54s-.08-.31-.17,0c-.2.67-.79,1.17-1.3.31a3.93,3.93,0,0,1,0-2.74c.1-.35.22-.86.22-.86C4.49,2,4.33,1.84,4.17,2.32Z"/><path class="cls-2" d="M14.24,1.71a6.16,6.16,0,0,0-.87,3.47,5.63,5.63,0,0,0-2.52-3.12c-.13-.08-.41.07-.43.49,0,.25-.09.85.09,1a5.51,5.51,0,0,0,.77.55c.09,0,.18.06.21,0s.14-.34.31-.17a5.38,5.38,0,0,1,1.52,2.49c.08.21.28.23.32-.07.11-.73.17-2,.23-2.4.08-.55.34-1.67,1-1.09.15.13.32.31.32.31.15.18.33.4.42.18a1.69,1.69,0,0,0,.1-1.14C15.68,2.05,14.82,1,14.24,1.71Z"/><path class="cls-2" d="M24.56.34a6.68,6.68,0,0,0-.68,3.08c0,.34.25,1,.76,1,.27,0,.61-.2.85-1,.05-.19.07-.34.09-.41s-.06-.25-.14,0c-.2.51-.7.87-1.08.18a2.86,2.86,0,0,1,.15-2.1c.1-.27.22-.66.22-.66C24.83.14,24.71,0,24.56.34Z"/><path class="cls-2" d="M26.2,15.18a5,5,0,0,0-4.8,1.49l-2,2a1.39,1.39,0,0,0,.18-.47,14.27,14.27,0,0,0,.35-5.2L19,3.68l.87.83c.13.13.28.06.21-.15S18.44.29,18.39.16s-.1-.23-.17-.08l-.54,1.39A5.44,5.44,0,0,1,18,2.84c.05.48.91,10.07,1,11.07a16.23,16.23,0,0,1-.19,5.39c-1,1-1.68,1.7-1.68,1.7-.7-.07-4.88-.13-6.41-3.55-.33-.51-.45-1.17-1.73-.48a6.29,6.29,0,0,0-3.22,3.64c-.23.59-.92,3.23-2.81,2.46C2.27,22.74.38,21.32,1,17.58a.64.64,0,0,0,.2,0c.36,0,.81-.39,1.06-1.89,0-.34.06-.61.07-.75s-.1-.43-.19,0c-.22.93-.87,1.61-1.45.41-.1-.23-.51-1.32,0-3.78.1-.47.22-1.18.22-1.18C1,9.91.84,9.63.67,10.29a15.34,15.34,0,0,0-.61,5.56,2.84,2.84,0,0,0,.62,1.51h0c-.1.46-1,4.91,2,7.16.42.22,1.86,1,2.74-1.24.32-.71,1.38-4.11,3.7-4.78.4-.14.63-.19.81,0s.46.7.46.7c.32.6,2.12,4.83,10.8,2.85a22.94,22.94,0,0,0,5.73-2.33,3.83,3.83,0,0,0,1.28-2.43C28.26,16.54,27.62,15.57,26.2,15.18Zm.71,3.08A22.41,22.41,0,0,1,18.21,21s2.59-3.34,5.17-4.13a3.14,3.14,0,0,1,3.49.89C27.14,18.05,27.13,18.09,26.91,18.26Z"/></g></g></g></svg>