<svg xmlns="http://www.w3.org/2000/svg" viewBox="0 0 30.45 20.57"><defs><style>.cls-1{isolation:isolate;}.cls-2{fill-rule:evenodd;mix-blend-mode:darken;}</style></defs><g class="cls-1"><g id="Layer_2" data-name="Layer 2"><g id="سور_الٌقرآن_الكريم" data-name="سور الٌقرآن الكريم"><path class="cls-2" d="M17.58,16.59a1.56,1.56,0,0,0-.13.57c0,.11.05.45.05.45a.82.82,0,0,1-1,0,3.69,3.69,0,0,0,.1-.39c0-.16-.06-.28-.14-.11a4.48,4.48,0,0,1-.4.86c-.14.12-.3.59-1.35.12a.74.74,0,0,0-1,.19,7.12,7.12,0,0,1-3.19,1.59c-.15.07-.47.31-.09.27a4.08,4.08,0,0,0,2.87-1c.19-.18.4-.65,1.09-.38.39.15,1.1.76,1.88-.45.46.31,1.16.18,1.27-.15a3.6,3.6,0,0,0,.23-.9c0-.23,0-.53,0-.53C17.75,16.58,17.68,16.32,17.58,16.59Z"/><path class="cls-2" d="M20.39,16.07l-.71,1a.07.07,0,0,0,0,.09l1.2.88A.07.07,0,0,0,21,18l.7-1a.06.06,0,0,0,0-.09l-1.2-.88A.07.07,0,0,0,20.39,16.07Z"/><path class="cls-2" d="M25.29,15.82a.56.56,0,0,0,.05.52.92.92,0,0,0,.55.31c-.52.61-.64,1.8.16,2.23a2,2,0,0,0,1.29.1,2.83,2.83,0,0,0,.66-.26l.3-.13a.24.24,0,0,0,.13-.08s0-.08,0-.09-.12,0-.17,0l-.2.05-.47.1a3.35,3.35,0,0,1-.95,0,1.07,1.07,0,0,1-.76-.39.87.87,0,0,1-.13-.78A2.76,2.76,0,0,1,27,16.16c.06,0,.13-.07.14-.13l0-.19c0-.18-.21,0-.27,0-.22.15-.49.42-.77.41a.91.91,0,0,1-.56-.23s-.06-.05,0-.08a.38.38,0,0,1,.1-.12,1.67,1.67,0,0,1,.28-.18.9.9,0,0,1,.57-.14s.09,0,.12,0a.06.06,0,0,0,0-.1.63.63,0,0,0-.28-.11A.86.86,0,0,0,25.29,15.82Z"/><path class="cls-2" d="M6.45,12.38A4.48,4.48,0,0,0,6.16,15,4.22,4.22,0,0,0,4,13c-.11,0-.29.09-.27.41s0,.63.17.74a4.32,4.32,0,0,0,.62.33c.07,0,.14,0,.15-.06s.07-.26.21-.15a3.93,3.93,0,0,1,1.37,1.67c.08.15.23.15.23-.08,0-.55-.08-1.5-.07-1.79s.08-1.27.65-.9c.13.08.27.19.27.19s.28.26.33.09a1.18,1.18,0,0,0-.05-.85C7.54,12.48,6.8,11.77,6.45,12.38Z"/><path class="cls-2" d="M1.08,7.48a9.89,9.89,0,0,0-.94,4c0,.45.22,1.33.81,1.38.3,0,.71-.22,1-1.31.06-.25.1-.45.13-.54s-.06-.33-.17,0c-.25.66-.85,1.11-1.24.19A4.32,4.32,0,0,1,1,8.47c.12-.35.28-.86.28-.86C1.41,7.23,1.27,7,1.08,7.48Z"/><path class="cls-2" d="M10.13,6.37a5,5,0,0,0-.5,2.3c0,.25.19.75.57.76.19,0,.45-.14.63-.76,0-.14.05-.26.06-.31s0-.18-.1,0c-.15.38-.52.64-.8.13a2.07,2.07,0,0,1,.11-1.57c.07-.19.16-.48.16-.48C10.34,6.22,10.24,6.1,10.13,6.37Z"/><path class="cls-2" d="M19,5.77a1.43,1.43,0,0,0-.11,1.14c.17.52,1,3.33,1,3.69S20.3,12,19.16,12a1.87,1.87,0,0,1-1.64-.87,2.23,2.23,0,0,0,.12-.39c.06-.22-.11-.41-.27-.13s-.5,1.07-.7,1.33-1.32,1.22-2-.2c.07-.19.23-.61.28-.76s0-.44-.2-.2-1.43,1.75-2.53,1.69c-.21,0-.82-.17-1.45-1.43-.12-.22-.17-.05-.18,0s-.17,1.06-.17,1.06a7.85,7.85,0,0,1,1.07,2.7c0,.28,0,.6-.63,1.14S7.23,19,4.47,19.11c-.4,0-2.65.07-3.45-1.7a4.91,4.91,0,0,1,.16-4.17C1.29,13,1,12.73.8,13.19s-1.93,4.3.44,6.5c.17.15,2.17,2.17,7-.46.38-.2,3-1.87,3.46-2.91A6.37,6.37,0,0,0,12.06,14,3,3,0,0,0,14,12.89a1.53,1.53,0,0,0,1.83,1,2.43,2.43,0,0,0,1.24-1.3,2.28,2.28,0,0,0,2.05.88c.78-.09,1.25-1.42,1.25-1.42s1.19,3.1,5.57,1.68a11.27,11.27,0,0,0,4-2.45A4.65,4.65,0,0,0,30.43,10c0-.19,0-.22-.15-.1s-2.9,2.53-4.9,2.37a3,3,0,0,1-2.52-2,5.78,5.78,0,0,1-.47-1.79c0-.21.1-.37.5-.57a10.23,10.23,0,0,1,3.76-1.09,5.75,5.75,0,0,1,1.83.25c.36.11.66,0,.36-.19A7.22,7.22,0,0,0,26,5.9a4.47,4.47,0,0,0-3.54,1.28,3.59,3.59,0,0,0-.68,3.23c.11.38.56,1.66.6,1.73a2.85,2.85,0,0,1-1.62-1.85,26.7,26.7,0,0,0-1.4-4.54C19.22,5.49,19.14,5.56,19,5.77Z"/><path class="cls-2" d="M3.9,1a4.59,4.59,0,0,0-.29,2.65,4.22,4.22,0,0,0-2.17-2c-.1,0-.29.09-.27.41s0,.63.17.74A6.7,6.7,0,0,0,2,3.06c.07,0,.14,0,.15-.06s.07-.27.21-.16A4.07,4.07,0,0,1,3.7,4.52c.08.15.22.14.23-.08,0-.55-.08-1.5-.08-1.79s.09-1.27.66-.91c.12.08.26.2.26.2s.29.26.33.09a1.17,1.17,0,0,0,0-.85C5,1.09,4.26.38,3.9,1Z"/><path class="cls-2" d="M15,.67,4.26,6.54c-.3.16-.39.23-.43.45s-.07.33-.08.38-.1.3.33,0c.13-.08,10.39-5.64,10.62-5.79s.38-.21.47-.44.12-.27.17-.43S15.46.44,15,.67Z"/><path class="cls-2" d="M22.05.19c-.22.14-6.89,3.69-7.5,4.21a1.88,1.88,0,0,0-.63,1.1c-.12.63.05,1.25.46,1.3a.77.77,0,0,1,.53.3s.08,0,.09,0a.76.76,0,0,0-.55-1.19c-.22,0-.33-.36.47-.9s6.7-3.73,6.86-3.85.35-.22.44-.45.1-.27.14-.42S22.45-.08,22.05.19Z"/><path class="cls-2" d="M28.28.11,21.16,3.93c-.29.16-.38.23-.43.45a2.9,2.9,0,0,1-.08.38c0,.15-.1.3.33,0,.14-.07,6.75-3.59,7-3.74s.37-.21.47-.44.12-.26.17-.42S28.72-.11,28.28.11Z"/></g></g></g></svg>