<svg xmlns="http://www.w3.org/2000/svg" viewBox="0 0 33.17 20.72"><defs><style>.cls-1{isolation:isolate;}.cls-2{fill-rule:evenodd;mix-blend-mode:darken;}</style></defs><g class="cls-1"><g id="Layer_2" data-name="Layer 2"><g id="سور_الٌقرآن_الكريم" data-name="سور الٌقرآن الكريم"><path class="cls-2" d="M9.6,19.13,7.05,20c-.22.09-.28.15-.33.31l-.07.27c-.05.1-.1.19.23,0,.16-.07,2.22-.75,2.45-.85a.59.59,0,0,0,.36-.29l.14-.3C9.87,19.1,9.93,19,9.6,19.13Z"/><path class="cls-2" d="M9.6,17.84c-.21.07-2.31.8-2.55.9s-.28.14-.33.3-.06.25-.07.27-.1.19.23.05c.16-.06,2.22-.74,2.45-.84a.61.61,0,0,0,.36-.3l.14-.29C9.87,17.81,9.93,17.74,9.6,17.84Z"/><path class="cls-2" d="M28.39,17.91l-.19.27c-.06.07,0,.2.1,0,.3-.31.78-.4.83.2a2.24,2.24,0,0,1-.77,1.47l-.36.4c-.17.18-.13.34.09.12a5.22,5.22,0,0,0,1.46-2c.09-.25.13-.79-.23-1C29.13,17.36,28.83,17.39,28.39,17.91Z"/><path class="cls-2" d="M16.13,15.78c-.24.12-3.86,1.54-4.11,1.67s-.33.17-.38.35-.07.28-.08.31-.09.27.27.06c.11-.06,3.78-1.5,4-1.61s.32-.16.41-.34a3.54,3.54,0,0,0,.17-.34C16.44,15.74,16.49,15.6,16.13,15.78Z"/><path class="cls-2" d="M21.36,10.35a6.87,6.87,0,0,0-.78,3.22c0,.36.25,1,.79,1.08.28,0,.65-.19.92-1.06.05-.19.08-.35.1-.43s-.06-.26-.15,0c-.22.53-.76.9-1.15.17a2.92,2.92,0,0,1,.21-2.2c.1-.28.23-.68.23-.68C21.65,10.15,21.52,10,21.36,10.35Z"/><path class="cls-2" d="M7.12,7.68a9.93,9.93,0,0,0-.94,3.94c0,.44.2,1.3.74,1.36.28,0,.66-.22,1-1.28.06-.24.1-.43.12-.52s0-.32-.15,0c-.24.65-.81,1.08-1.16.18A4.29,4.29,0,0,1,7,8.65c.12-.34.27-.83.27-.83C7.42,7.44,7.3,7.22,7.12,7.68Z"/><path class="cls-2" d="M12.89,8.57a1.27,1.27,0,0,0-1.72,0c-.94.7-1.46,2.21-.57,2.89.46.35.84.39,2,.38.45,0,1.76.2,1.17.9s-2.59,1.07-3,1.15A11.74,11.74,0,0,0,6,16.13a31.38,31.38,0,0,1-3.11,3c-.61.29-2,1-2.45-.92a8.29,8.29,0,0,1,1.66-4.37h0a3.15,3.15,0,0,0,.77-1.34l.18-.64c.06-.17,0-.4-.18,0-.33.78-1,1.27-1.35.13a5.81,5.81,0,0,1,.6-3.34c.16-.4.39-1,.39-1,.18-.45.06-.73-.19-.17a13.29,13.29,0,0,0-1.43,4.8c0,.54.1,1.6.71,1.73A7.73,7.73,0,0,0,0,18a2.31,2.31,0,0,0,1.91,2.57c.3.05,1.5.09,3.23-2a10.54,10.54,0,0,1,5-3.13A15.88,15.88,0,0,0,13.91,14C15.41,12.51,14.47,9.87,12.89,8.57Zm-.8,2c-1.21.22-1.12-.65-.45-.87s1.3.61,1.44.89A2.94,2.94,0,0,0,12.09,10.57Z"/><path class="cls-2" d="M26,5.78l-.66.9a.08.08,0,0,0,0,.09l1.13.81a.05.05,0,0,0,.08,0l.66-.9a.06.06,0,0,0,0-.09l-1.12-.82A.07.07,0,0,0,26,5.78Z"/><path class="cls-2" d="M11.31,5.55l-.66.9a.07.07,0,0,0,0,.09l1.13.82a.06.06,0,0,0,.08,0l.66-.9a.07.07,0,0,0,0-.09L11.4,5.53A.07.07,0,0,0,11.31,5.55Z"/><path class="cls-2" d="M7.74,1.27A5,5,0,0,0,7,4.09,4.56,4.56,0,0,0,5,1.56c-.1-.07-.33.05-.35.4s-.07.69.08.82,1.14.49.59,1.07c-.24.26-1.47,1.54-1.74,1.85s-.29.37,0,.21A3.56,3.56,0,0,0,5.75,3.49.83.83,0,0,0,5.68,3a.13.13,0,0,1,.07,0A4.27,4.27,0,0,1,7,5.07c.07.18.23.19.26-.05.09-.6.14-1.64.19-2s.28-1.35.84-.88l.26.25c.12.15.27.32.34.15A1.32,1.32,0,0,0,9,1.65C8.91,1.55,8.21.67,7.74,1.27Z"/><path class="cls-2" d="M12.86,1a5.07,5.07,0,0,0-.5,2.28c0,.25.19.74.57.75.19,0,.44-.14.62-.76,0-.14.06-.25.07-.3s0-.18-.11,0c-.14.37-.51.64-.79.13a2.1,2.1,0,0,1,.11-1.56c.07-.19.16-.48.16-.48C13.07.86,13,.74,12.86,1Z"/><path class="cls-2" d="M16.27,1c-.09.37-.36,1.15-.36,1.15a26.9,26.9,0,0,1,.65,6.44c0,.92-.11,7.13,1.63,8.57.34.29,2,1.89,7.23.22.74-.24,7.12-2.92,7.12-2.92s.5-1.08.58-1.28.08-.38-.21-.23-3.59,1.76-4.1,1.86a3.53,3.53,0,0,1-3.46-1.35A4,4,0,0,1,24.66,12a.56.56,0,0,1,.3-.6,6.8,6.8,0,0,1,5.58-1c.32.1.51.06.13-.28A4.54,4.54,0,0,0,27.85,9a4,4,0,0,0-3.71,2.67,3.09,3.09,0,0,0,.45,2.88c.25.29,1.4,1.31,1.4,1.31-.67.24-4.15,1.44-6.52.33-.72-.34-1.94-1.14-2.08-4.63C17.33,10,17.45,2.8,16.61.78,16.5.52,16.37.59,16.27,1Z"/><path class="cls-2" d="M21.25.23a5,5,0,0,0-.49,2.28c0,.25.18.74.56.75.19,0,.44-.14.62-.76,0-.14.06-.25.07-.3s0-.18-.11,0c-.14.37-.51.64-.79.13A2.1,2.1,0,0,1,21.22.78c.07-.19.16-.48.16-.48C21.46.08,21.36,0,21.25.23Z"/><path class="cls-2" d="M30.69.14c-.23.14-10.43,5-11.08,5.56a2,2,0,0,0-.69,1.14c-.14.66,0,1.32.45,1.38a.88.88,0,0,1,.55.33s.08,0,.1,0a.8.8,0,0,0-.55-1.26c-.23-.07-.34-.39.52-.93s10.22-5.09,10.4-5.21.37-.23.46-.46A4.08,4.08,0,0,0,31,.23C31.07.05,31.12-.13,30.69.14Z"/></g></g></g></svg>