<svg xmlns="http://www.w3.org/2000/svg" viewBox="0 0 32.76 22.01"><defs><style>.cls-1{isolation:isolate;}.cls-2{fill-rule:evenodd;mix-blend-mode:darken;}</style></defs><g class="cls-1"><g id="Layer_2" data-name="Layer 2"><g id="سور_الٌقرآن_الكريم" data-name="سور الٌقرآن الكريم"><path class="cls-2" d="M9.86,20.27c-.22.07-2.68.95-2.92,1.05s-.29.14-.33.3-.07.24-.08.27-.09.19.24.05c.16-.06,2.59-.9,2.82-1a.57.57,0,0,0,.35-.29,2.37,2.37,0,0,0,.14-.3C10.13,20.23,10.18,20.16,9.86,20.27Z"/><path class="cls-2" d="M9.82,19c-.22.07-2.68,1-2.92,1.05s-.29.15-.33.3-.07.24-.08.27-.09.19.24.05c.16-.06,2.59-.9,2.81-1a.57.57,0,0,0,.36-.29,2.37,2.37,0,0,0,.14-.3C10.09,19,10.14,18.88,9.82,19Z"/><path class="cls-2" d="M18.37,17.16l-4.75,2.25c-.26.13-.33.2-.37.38a3.1,3.1,0,0,1-.06.32c0,.13-.08.24.28.05.11-.06,4.41-2.07,4.62-2.18a.7.7,0,0,0,.4-.37l.15-.36C18.68,17.1,18.75,17,18.37,17.16Z"/><path class="cls-2" d="M24.38,11.62a6.27,6.27,0,0,0-.45,2.89c0,.31.28.92.75.9.24,0,.55-.21.73-1,0-.18,0-.32.06-.39s-.07-.22-.13,0c-.16.49-.6.84-1,.23a2.67,2.67,0,0,1,0-2c.08-.24.17-.61.17-.61C24.63,11.42,24.5,11.27,24.38,11.62Z"/><path class="cls-2" d="M6,10.7a5.43,5.43,0,0,0-.44,2.58c0,.29.24.83.67.82.22,0,.49-.18.66-.88,0-.16.05-.28.06-.35s-.06-.2-.12,0c-.14.43-.55.75-.88.19a2.33,2.33,0,0,1,0-1.76l.15-.55C6.23,10.52,6.11,10.39,6,10.7Z"/><path class="cls-2" d="M28.9,7.87l-.67.93a.06.06,0,0,0,0,.09l1.15.83a.05.05,0,0,0,.08,0l.68-.92a.07.07,0,0,0,0-.09L29,7.86A.07.07,0,0,0,28.9,7.87Z"/><path class="cls-2" d="M8.64,5.87A5.51,5.51,0,0,0,8.2,8.46c0,.28.24.82.66.82.22,0,.5-.18.67-.88,0-.16.05-.29.06-.35s-.06-.2-.12,0c-.14.43-.55.74-.88.19a2.37,2.37,0,0,1,0-1.76c.07-.22.16-.55.16-.55C8.86,5.7,8.75,5.57,8.64,5.87Z"/><path class="cls-2" d="M32.38,2c-.24.14-9.1,4.56-9.78,5.11a2.12,2.12,0,0,0-.72,1.18c-.14.69,0,1.37.47,1.44a.88.88,0,0,1,.57.33.06.06,0,0,0,.1,0,.83.83,0,0,0-.57-1.31c-.24-.07-.34-.41.54-1S31.88,3.14,32.06,3s.4-.24.49-.48a4.1,4.1,0,0,0,.17-.46C32.77,1.89,32.83,1.7,32.38,2Z"/><path class="cls-2" d="M6.14.93a5.05,5.05,0,0,0-.59,2.92,4.69,4.69,0,0,0-2.22-2.5c-.11-.06-.33.07-.34.43,0,.2,0,.71.12.84s1.2.45.66,1.07c-.24.27-1.43,1.64-1.69,2s-.28.39,0,.22A3.66,3.66,0,0,0,4.21,3.29a.93.93,0,0,0-.09-.49.15.15,0,0,1,.07.05,4.35,4.35,0,0,1,1.37,2c.07.17.24.18.26-.07.06-.62.06-1.69.1-2s.22-1.4.81-.94A2.63,2.63,0,0,1,7,2.08c.13.15.29.31.36.13a1.36,1.36,0,0,0,0-.95C7.35,1.16,6.59.29,6.14.93Z"/><path class="cls-2" d="M18.18,11.92a3.23,3.23,0,0,0-3.43-.87A10.57,10.57,0,0,0,12,12.92a11.75,11.75,0,0,0,.05-3.71L11,3.14s.5.34.61.45.24.06.18-.13S10.56.43,10.52.31s-.09-.2-.15-.06-.5,1.12-.5,1.12a5.58,5.58,0,0,1,.19.82c.07.51,1.81,9.31,1.4,11.4,0,.05-2.27,2.51-2.55,2.67a24,24,0,0,0-3.83,2.48c-.65.55-2.23,1.89-3.53,1.66-.36-.06-1.5-.45-.84-2.65A16.58,16.58,0,0,1,2.2,14.88h0c.34,0,.75-.34,1-1.64,0-.29.06-.53.07-.64s-.09-.38-.18,0c-.2.8-.8,1.39-1.34.36a5.3,5.3,0,0,1,0-3.26c.09-.41.21-1,.21-1,.11-.46-.07-.7-.22-.13a12.17,12.17,0,0,0-.59,4.79,2.38,2.38,0,0,0,.61,1.35c-.62.82-3.21,4.56-.76,6.53.44.36,1.78.7,3.55-.78.58-.49,3.69-3,5.63-3.38,1-.18,5.46-1.19,7.39-2.3.58-.33.85-1.42,1-1.74S18.66,12.5,18.18,11.92Zm-.7,1.8a27,27,0,0,1-7.27,2.11c.38-.46,2.65-2.95,4.36-3.51.27-.09,1.43-.47,3.08,1C17.79,13.45,17.8,13.55,17.48,13.72Z"/><path class="cls-2" d="M25.69.35a5.54,5.54,0,0,0-.72,3A4.93,4.93,0,0,0,22.88.65c-.11-.07-.34.06-.36.43,0,.22-.07.74.08.89a4.59,4.59,0,0,0,.64.48c.07,0,.15,0,.17,0s.12-.3.25-.15a4.69,4.69,0,0,1,1.27,2.18c.06.18.23.2.26-.06.09-.65.14-1.76.19-2.1s.28-1.46.86-.95a3.06,3.06,0,0,1,.27.27c.12.16.27.34.34.16a1.41,1.41,0,0,0,.08-1C26.88.64,26.17-.3,25.69.35Z"/><path class="cls-2" d="M30.57,11.8A1.43,1.43,0,0,0,28.3,12c-1.1,1.27-.71,2.66.38,3a6.63,6.63,0,0,0,1.83,0,.94.94,0,0,1,.92.52c.06.25.05.26-.59.62a12.47,12.47,0,0,1-6.47,1.69,3.33,3.33,0,0,1-3.69-3.23c-.27-1.81-.37-4.61-.4-5S20,3,19.15.33C19,0,18.94.11,18.82.35s-.37,1-.37,1a55.15,55.15,0,0,1,1.08,7.88c0,.65.25,4.71.31,5.29s0,4.62,4.37,4.72c.64,0,2.85.28,6.54-1.73a1.69,1.69,0,0,0,1.19-1.58A4.48,4.48,0,0,0,30.57,11.8Zm-.42,1.86a4,4,0,0,1-1.26,0c-.66-.1-.2-.65.11-.8s1.09-.09,1.63.85A1.8,1.8,0,0,0,30.15,13.66Z"/><path class="cls-2" d="M15.35.33a12.17,12.17,0,0,0-.7,4.78c0,.52.36,1.53,1,1.54.33,0,.76-.32,1-1.61,0-.3.07-.53.08-.64s-.08-.38-.17,0c-.23.79-.85,1.36-1.35.32a5.18,5.18,0,0,1,.09-3.26c.1-.4.23-1,.23-1C15.69,0,15.53-.24,15.35.33Z"/></g></g></g></svg>