<svg xmlns="http://www.w3.org/2000/svg" viewBox="0 0 34.95 20.21"><defs><style>.cls-1{isolation:isolate;}.cls-2{fill-rule:evenodd;mix-blend-mode:darken;}</style></defs><g class="cls-1"><g id="Layer_2" data-name="Layer 2"><g id="سور_الٌقرآن_الكريم" data-name="سور الٌقرآن الكريم"><path class="cls-2" d="M27,17.81c-.22.11-4.88,1.52-5.11,1.64s-.3.16-.34.32-.07.26-.08.29-.08.24.25.06c.1-.06,4.8-1.5,5-1.6s.29-.14.37-.31a1.7,1.7,0,0,0,.15-.32C27.25,17.77,27.3,17.64,27,17.81Z"/><path class="cls-2" d="M10.37,16.9a3.87,3.87,0,0,0-.4,1.82c0,.2.15.59.45.6.15,0,.35-.11.5-.6,0-.11,0-.2.05-.25s0-.14-.09,0-.41.51-.63.11a1.74,1.74,0,0,1,.09-1.24c.06-.16.13-.39.13-.39C10.53,16.79,10.45,16.69,10.37,16.9Z"/><path class="cls-2" d="M18.9,9a5,5,0,0,0-.47,2.59c0,.28.27.82.74.81.24,0,.54-.19.73-.9,0-.15,0-.28.05-.34s-.06-.2-.13,0c-.15.44-.59.76-1,.21a2.2,2.2,0,0,1,0-1.76c.08-.22.17-.55.17-.55C19.14,8.78,19,8.65,18.9,9Z"/><path class="cls-2" d="M31.61,7.5l-.6.82a.06.06,0,0,0,0,.08l1,.75a.05.05,0,0,0,.08,0l.6-.83a.05.05,0,0,0,0-.08l-1-.75A.06.06,0,0,0,31.61,7.5Z"/><path class="cls-2" d="M25.14,7.51a.91.91,0,0,0,0,.71c.1.29.39.92.44,1a.16.16,0,0,1-.1.26.71.71,0,0,1-1-.54,6.06,6.06,0,0,0-.21-1.13c-.07-.13-.13-.15-.18,0a3.1,3.1,0,0,0-.09.44.15.15,0,0,0,0,.13s.32.91.18,1.14-.77.67-1.11.22A3.42,3.42,0,0,1,23,8.44c0-.18-.06-.25-.14-.1a.67.67,0,0,0-.11.39c0,.13,0,.71,0,.89s0,.77.34.94.86,0,1.24-.71a.85.85,0,0,0,1,.34,1,1,0,0,0,.5-.81,1.35,1.35,0,0,0-.18-1,3.83,3.83,0,0,1-.29-.8C25.27,7.45,25.22,7.26,25.14,7.51Z"/><path class="cls-2" d="M7,11.38l-.52.71-1-.73a.06.06,0,0,0-.08,0l-.61.83a.06.06,0,0,0,0,.08l1,.75a.06.06,0,0,0,.08,0l.52-.71,1,.73a.06.06,0,0,0,.08,0l.61-.82s0-.07,0-.08l-1-.76A.06.06,0,0,0,7,11.38Z"/><path class="cls-2" d="M11.68,7.71a5.61,5.61,0,0,0-.42,2.59c0,.29.25.83.69.82.23,0,.51-.19.68-.9,0-.16,0-.28,0-.34s-.06-.21-.12,0c-.14.44-.55.76-.91.21a2.39,2.39,0,0,1,0-1.76c.07-.23.15-.56.15-.56C11.91,7.53,11.79,7.4,11.68,7.71Z"/><path class="cls-2" d="M5.08,6.81a4.4,4.4,0,0,0-.57.82c-.14.22,0,.33.21.15a.77.77,0,0,1,.76-.34c.48,0,1.63,0,1.2.28s-.72.5-.72.5c-.28.2-.53.58,0,.37A3.5,3.5,0,0,0,7.57,7.3c.15-.22.32-.52-.36-.62S5.44,6.42,5.08,6.81Z"/><path class="cls-2" d="M34.8,12.5c-.78-2.89-2.6-2.36-3.06-2s-1.52,1.9-.6,2.62a4,4,0,0,0,2.22.43c.24,0,.63,0,.8.21s.3.28.13.38A22.55,22.55,0,0,1,29.44,16c.16-.21,1.3-1.58.81-2.63a3,3,0,0,0-3.63-1.54c-.41.1-2.28.8-4.11,4.2a2,2,0,0,1-1.39-1.55c.15-.36,0-.56-.23-.29s-1.24,2.29-3,2.08c-.27,0-1.3-.28-1.73-1.93-.19-.75-.53-4.2-.53-4.2s-.62-6-1-7.32c-.06-.24-.1-.29-.2-.08a1.63,1.63,0,0,0-.28,1.16c.08.67.6,5.1.65,5.47a43,43,0,0,1,.39,5.15c0,.41-.37,1.3-2,1.35-.26,0-1.26,0-1.34-1,0-.14,0-.65.06-.79s0-.3-.24-.18a21.22,21.22,0,0,1-6.45,2.52c-.55.07-4.25.55-4.75-2.2a3.37,3.37,0,0,1,.46-2.16.45.45,0,0,0,.28.07c.3,0,.67-.29.88-1.39,0-.25.06-.44.07-.54s-.08-.32-.16,0c-.18.68-.73,1.18-1.2.31a4.19,4.19,0,0,1,0-2.76c.09-.35.2-.87.2-.87.09-.39-.06-.59-.2-.11a9.9,9.9,0,0,0-.54,4.06,2.1,2.1,0,0,0,.46,1.07l0,.05C.55,12.44-1,15.1,1,16.91c.61.57,3.33,1.74,7.46-.21.56-.26,2.82-1.39,3-1.49,0,0,.1,1.85,1.63,1.82a2.3,2.3,0,0,0,2.52-1.94,2.78,2.78,0,0,0,2.52,2.26c.34,0,1.47.07,2.55-1.74a2.44,2.44,0,0,0,1.28,1.44c-.12.27-.27.53-.34.71s.05.32.18.14.4-.52.54-.69a3.75,3.75,0,0,0,.9.19A20,20,0,0,0,30,16.79c.69-.16,3.4-.86,4.46-1.87A2.41,2.41,0,0,0,34.8,12.5Zm-3-.39c-.57-.2-.15-.51.17-.61a1.46,1.46,0,0,1,1.62.82A6.32,6.32,0,0,1,31.84,12.11Zm-8.84,4s2.11-3.55,4.2-3.33,2.57,1.63,2.47,1.75C27.32,16.72,23.14,16.2,23,16.15Z"/><path class="cls-2" d="M26.61,2.06a4.69,4.69,0,0,0-.48,2.2c0,.24.18.71.54.72.19,0,.43-.14.61-.73,0-.13,0-.24.06-.29s0-.18-.1,0c-.14.36-.5.61-.77.13a2.07,2.07,0,0,1,.11-1.5c.07-.19.15-.47.15-.47C26.81,1.92,26.72,1.81,26.61,2.06Z"/><path class="cls-2" d="M22.24,2.08a4.5,4.5,0,0,0-.75,2.56,4.2,4.2,0,0,0-1.79-2.4c-.09-.06-.3,0-.33.36s-.09.63,0,.76,1,.49.52,1c-.24.23-1.41,1.36-1.67,1.64s-.28.32,0,.19A3.3,3.3,0,0,0,20.34,4a.82.82,0,0,0-.05-.44s0,0,.07,0a4,4,0,0,1,1.06,1.9c0,.16.2.18.24,0,.1-.55.18-1.5.24-1.79s.3-1.23.8-.78l.23.24c.11.14.24.31.31.15a1.23,1.23,0,0,0,.11-.85C23.3,2.37,22.69,1.54,22.24,2.08Z"/><path class="cls-2" d="M32.43,3.4a2,2,0,0,0-.09-1.56c-.07-.14-.49-.59-1.09.19-.23.29-.44,1-.16,1.27a3.79,3.79,0,0,0,.69.45,19.77,19.77,0,0,1-4.37,3.39c-.21.1-.18.21-.06.19a9.9,9.9,0,0,0,2.49-1.15A10.52,10.52,0,0,0,32.11,3.9s.31.31.35.37.15.24.2.1A.75.75,0,0,0,32.43,3.4Zm-.3-.22-.55-.3c-.17-.09-.25-.21-.16-.32.3-.36.43-.33.53-.26A1.07,1.07,0,0,1,32.13,3.18Z"/><path class="cls-2" d="M5.91,1.42A4.52,4.52,0,0,0,5.27,4,4.28,4.28,0,0,0,3.39,1.68c-.1-.06-.31.05-.33.37s-.06.63.07.76a5.43,5.43,0,0,0,.58.41c.06,0,.13,0,.15,0s.11-.25.23-.13A3.93,3.93,0,0,1,5.23,4.91c.06.16.21.17.24,0,.08-.55.12-1.51.17-1.79s.25-1.25.77-.81a1.81,1.81,0,0,1,.24.23c.11.13.25.29.31.13A1.21,1.21,0,0,0,7,1.77C7,1.67,6.35.86,5.91,1.42Z"/><path class="cls-2" d="M17.62.09c-.19.09-7.45,2.86-8,3.24A1.7,1.7,0,0,0,9,4.2c-.16.52-.08,1.07.26,1.16a.66.66,0,0,1,.42.3s.06,0,.08,0a.65.65,0,0,0-.35-1.07c-.18-.07-.24-.34.5-.72S17.15,1,17.3.87s.32-.16.42-.34.11-.22.16-.34S18-.1,17.62.09Z"/></g></g></g></svg>