<svg xmlns="http://www.w3.org/2000/svg" viewBox="0 0 26.92 21.9"><defs><style>.cls-1{isolation:isolate;}.cls-2{fill-rule:evenodd;mix-blend-mode:darken;}</style></defs><g class="cls-1"><g id="Layer_2" data-name="Layer 2"><g id="سور_الٌقرآن_الكريم" data-name="سور الٌقرآن الكريم"><path class="cls-2" d="M26,16.69a6.26,6.26,0,0,0-.64,2.9c0,.32.24.95.72,1,.25,0,.57-.18.8-1,0-.18.06-.32.08-.39s-.05-.23-.13,0c-.19.48-.66.82-1,.17a2.73,2.73,0,0,1,.15-2l.2-.62C26.21,16.5,26.1,16.35,26,16.69Z"/><path class="cls-2" d="M7.77,11.14a6.08,6.08,0,0,0-.55,3c0,.33.32,1,.87,1,.28,0,.64-.23.85-1.05,0-.19.06-.34.07-.41s-.07-.24-.15,0c-.18.51-.7.88-1.14.24a2.54,2.54,0,0,1,0-2.06L8,11.22C8.05,10.93,7.91,10.78,7.77,11.14Z"/><path class="cls-2" d="M17.82,9.63a6.29,6.29,0,0,0-.63,2.9c0,.32.23,1,.72,1,.24,0,.57-.19.79-1,0-.18.07-.32.09-.39s-.06-.23-.14,0c-.18.48-.66.82-1,.17a2.63,2.63,0,0,1,.14-2c.09-.25.2-.62.2-.62C18.08,9.44,18,9.29,17.82,9.63Z"/><path class="cls-2" d="M12.76,9.65a11.64,11.64,0,0,0-.69,5c.06.54.45,1.58,1.19,1.57.38,0,.86-.36,1.14-1.7,0-.31.07-.55.08-.67s-.1-.39-.2,0c-.24.83-.93,1.44-1.54.38-.1-.21-.52-1.18,0-3.38.11-.42.25-1.06.25-1.06C13.14,9.31,13,9.06,12.76,9.65Z"/><path class="cls-2" d="M24.83,10a1.58,1.58,0,0,0-2.44-.12,3,3,0,0,0-.85,2.73,2,2,0,0,0,2.11.94c.34,0,1.44-.1,1.74.32.18.23.34.53-.39,1.28a21.24,21.24,0,0,1-14,5.26,18.22,18.22,0,0,1-2.32-.11A24.93,24.93,0,0,1,.41,17.45c-.38-.18-.58-.15-.22.24a20.24,20.24,0,0,0,5.55,3.54,21.13,21.13,0,0,0,3.85.63,21.62,21.62,0,0,0,13.59-3.8,7.74,7.74,0,0,0,2.59-2.61A5.4,5.4,0,0,0,24.83,10Zm-2.12,1.89c-.51-.26-.23-.59.09-.76s1.2-.38,1.9.86A5.72,5.72,0,0,1,22.71,11.87Z"/><path class="cls-2" d="M4.32,7.88a5.79,5.79,0,0,0-.8,3.26A5.34,5.34,0,0,0,1.18,8.21c-.12-.07-.37.06-.4.46,0,.23-.08.8.09,1a5,5,0,0,0,.71.51c.08,0,.17,0,.19,0s.14-.32.29-.16a4.43,4.43,0,0,1,1.3,2c.23,1-2.11,2.88-2.23,3s-.15.26,0,.21a11.26,11.26,0,0,0,1.41-.87A2.58,2.58,0,0,0,3.74,12.3l0-.09c.1-.69.15-1.9.21-2.26s.31-1.57.95-1c.15.13.3.29.3.29.14.17.31.37.39.17a1.49,1.49,0,0,0,.09-1.07C5.65,8.2,4.86,7.18,4.32,7.88Z"/><path class="cls-2" d="M23.47,6.06,22.79,7,21.5,6a.08.08,0,0,0-.1,0l-.78,1.07a.08.08,0,0,0,0,.11l1.33,1a.08.08,0,0,0,.1,0l.68-.92L24,8.21a.08.08,0,0,0,.1,0l.78-1.07a.08.08,0,0,0,0-.11L23.57,6A.08.08,0,0,0,23.47,6.06Z"/><path class="cls-2" d="M2.09,1.58a6.08,6.08,0,0,0-.55,3.05c0,.33.32,1,.87.94.28,0,.64-.22.85-1.05,0-.18.06-.33.07-.41s-.07-.23-.15,0C3,4.64,2.48,5,2,4.38a2.56,2.56,0,0,1,0-2.07c.08-.26.19-.65.19-.65C2.38,1.37,2.23,1.22,2.09,1.58Z"/><path class="cls-2" d="M12.62,1.46a5.93,5.93,0,0,0-.92,3.33A5.44,5.44,0,0,0,9.35,1.72c-.13-.08-.4.05-.43.46,0,.24-.11.82.06,1s1.34.61.68,1.28c-.31.31-1.81,1.79-2.13,2.15s-.36.42,0,.24S9.83,6,10.2,4a1.16,1.16,0,0,0-.07-.57.21.21,0,0,1,.08.06A5.08,5.08,0,0,1,11.62,6c.07.2.26.23.31-.06.13-.71.22-1.94.28-2.32s.37-1.6,1-1c.14.13.3.31.3.31.14.18.31.39.4.19A1.55,1.55,0,0,0,14.06,2C14,1.83,13.2.76,12.62,1.46Z"/><path class="cls-2" d="M24.73.24C20.49,3.11,17.33,2,17.15,2s-.35-.15-.3.09a4,4,0,0,0,.17,1,2.23,2.23,0,0,1,.5,1.14c0,.19.09.18.15.06a3.62,3.62,0,0,0,.13-1A11.26,11.26,0,0,0,25,1c.29-.2.19.14.16.48S25,2.52,25,2.76s.09.09.15-.14a15.5,15.5,0,0,0,.38-2C25.66-.35,25,.08,24.73.24Z"/></g></g></g></svg>