<svg xmlns="http://www.w3.org/2000/svg" viewBox="0 0 31.8 21.48"><defs><style>.cls-1{isolation:isolate;}.cls-2{fill-rule:evenodd;mix-blend-mode:darken;}</style></defs><g class="cls-1"><g id="Layer_2" data-name="Layer 2"><g id="سور_الٌقرآن_الكريم" data-name="سور الٌقرآن الكريم"><path class="cls-2" d="M15.79,18.23c-.24.12-3.37,1.34-3.62,1.48s-.33.18-.38.36l-.09.31c0,.12-.09.27.27.07.12-.07,3.29-1.31,3.5-1.43s.33-.16.42-.34.11-.22.16-.35S16.16,18,15.79,18.23Z"/><path class="cls-2" d="M15.52,16.86c-.24.12-3.37,1.35-3.61,1.49s-.34.17-.39.35l-.09.32c0,.12-.09.27.28.06.11-.06,3.29-1.31,3.49-1.43s.33-.15.42-.34.12-.22.17-.35S15.9,16.67,15.52,16.86Z"/><path class="cls-2" d="M20.73,15.31l-.58.8L19,15.3a.05.05,0,0,0-.08,0l-.67.92a.06.06,0,0,0,0,.09l1.14.83a.06.06,0,0,0,.09,0l.58-.79,1.1.8a.06.06,0,0,0,.09,0l.67-.92a.06.06,0,0,0,0-.09l-1.14-.83A.06.06,0,0,0,20.73,15.31Z"/><path class="cls-2" d="M28.9,15.37a5.79,5.79,0,0,0-.52,2.88c0,.32.3.92.82.9.27,0,.6-.21.81-1,0-.18,0-.32.06-.39s-.07-.22-.14,0c-.17.48-.66.84-1.08.23a2.4,2.4,0,0,1,0-1.95c.09-.25.19-.62.19-.62C29.17,15.17,29,15,28.9,15.37Z"/><path class="cls-2" d="M31.32,11c-.17-1-1.27-3.68-3-2.92A2.21,2.21,0,0,0,27.14,11c.25.34.52.77,2.27.64,1.34,0,1.49.67,1.28.83s-2.62,1.55-4.27.42c-.11-.29-.25-.57-.36-.81s-.11-.13-.19,0a8.58,8.58,0,0,0-.21.87s.63,1.53.73,1.91a1.12,1.12,0,0,1-.47,1.49c-.82.65-4,3-11.28,4.75-.35.1-.52.4,0,.37s4.5-.42,4.5-.42a17.47,17.47,0,0,0,7-3.61A3.19,3.19,0,0,0,27,14.82s0-.1,0-.18a8.64,8.64,0,0,0,1.94-.12c1-.21,2.06-.51,2.35-1.75A4.53,4.53,0,0,0,31.32,11Zm-2.63-.75c-.75,0-1.1-.38-.73-.68a1.22,1.22,0,0,1,1.59.23,6.08,6.08,0,0,1,.38.53A7.91,7.91,0,0,0,28.69,10.29Z"/><path class="cls-2" d="M26.05,7.77c-.24.12-3.54,1.41-3.78,1.55s-.34.17-.39.35a2.77,2.77,0,0,1-.09.32c-.05.12-.09.27.28.06.11-.06,3.46-1.38,3.66-1.49s.33-.16.42-.35a3.52,3.52,0,0,0,.17-.35C26.37,7.73,26.43,7.58,26.05,7.77Z"/><path class="cls-2" d="M6.26,10.45a9.2,9.2,0,0,0-.89,3.76c0,.41.21,1.24.75,1.29.29,0,.66-.21,1-1.22l.11-.51c0-.13,0-.3-.15,0-.24.62-.79,1-1.16.17a4,4,0,0,1,.28-2.58c.12-.32.26-.8.26-.8C6.56,10.21,6.44,10,6.26,10.45Z"/><path class="cls-2" d="M15.54,6.82,15,7.61,13.85,6.8a.06.06,0,0,0-.08,0l-.68.92a.06.06,0,0,0,0,.08l1.14.84a.07.07,0,0,0,.09,0l.58-.79,1.1.81a.07.07,0,0,0,.09,0l.67-.92a.06.06,0,0,0,0-.09L15.63,6.8A.07.07,0,0,0,15.54,6.82Z"/><path class="cls-2" d="M19.28,5.79a2.37,2.37,0,0,0-.06,1.58c.24.68,1.09,3.21,1.25,3.64s.38.94.11,1.08a2,2,0,0,1-2.64-.92c0-.13.07-.25.09-.34s-.07-.27-.18-.1a15.1,15.1,0,0,1-.73,1.44A1.16,1.16,0,0,1,15,11.71c.06-.13.19-.46.22-.55s0-.37-.2-.14-1.49,2.67-3.76,1.34a8.81,8.81,0,0,0-.47-.93c-.08-.16-.18-.24-.25-.12a10.36,10.36,0,0,0-.27,1.06c.33.7.26.58.33.7a12.72,12.72,0,0,1,.64,1.45c.06.25.14.6,0,.78S8,18.54,4.15,18.6c-.63-.06-3.3-.23-3.63-2.68a6,6,0,0,1,.33-2.48s0-.09.05-.13h0c.34,0,.78-.24,1.14-1.43.06-.27.11-.49.13-.6s-.05-.36-.18,0c-.27.73-.93,1.22-1.36.21A4.67,4.67,0,0,1,1,8.45c.14-.37.31-.94.31-.94.15-.42,0-.66-.21-.14a10.9,10.9,0,0,0-1,4.42A1.93,1.93,0,0,0,.62,13.2l-.06.14c-.2.57-1.61,4.25,1,6,.53.32,2.81,1.44,6.34-.45.94-.5,3.41-2,3.64-2.81A5,5,0,0,0,11.72,14a2.59,2.59,0,0,0,2.52-1l.1-.16A2.19,2.19,0,0,0,15.43,14,1.44,1.44,0,0,0,17,13.57a5.17,5.17,0,0,0,.57-1,2.2,2.2,0,0,0,3.23.62,3.54,3.54,0,0,0,.34-3c-.15-.42-.9-2.6-.9-2.6l.64.35c.1,0,.19-.08,0-.35s-1.23-1.75-1.34-1.89S19.37,5.57,19.28,5.79Z"/><path class="cls-2" d="M29,5.2,28.46,6l-1.11-.81a.08.08,0,0,0-.09,0l-.67.92a.07.07,0,0,0,0,.09L27.75,7a.05.05,0,0,0,.08,0l.58-.8L29.52,7a.06.06,0,0,0,.09,0l.67-.92a.07.07,0,0,0,0-.09l-1.15-.84A.07.07,0,0,0,29,5.2Z"/><path class="cls-2" d="M14.28,4.84l-.67.92a.06.06,0,0,0,0,.09l1.14.83a.07.07,0,0,0,.09,0l.67-.92a.06.06,0,0,0,0-.09l-1.14-.83A.06.06,0,0,0,14.28,4.84Z"/><path class="cls-2" d="M9.44,2.79a11,11,0,0,0-1,4.43c0,.49.24,1.46.89,1.52.33,0,.77-.25,1.13-1.44.07-.27.11-.48.14-.59s-.06-.36-.18,0c-.28.72-.94,1.21-1.36.2a4.7,4.7,0,0,1,.32-3c.14-.37.31-.93.31-.93C9.8,2.52,9.65,2.28,9.44,2.79Z"/><path class="cls-2" d="M18.76,1.66a4.68,4.68,0,0,0-.65.94c-.17.26,0,.37.23.17a.91.91,0,0,1,.87-.39c.55,0,1.87,0,1.38.32s-.83.58-.83.58c-.32.23-.6.66,0,.42a4,4,0,0,0,1.88-1.48c.17-.25.36-.59-.41-.71S19.17,1.22,18.76,1.66Z"/><path class="cls-2" d="M5.38,1.17A5.35,5.35,0,0,0,4.9,4.24,5,5,0,0,0,2.51,1.71c-.12-.05-.34.09-.33.46s0,.74.15.88a4.57,4.57,0,0,0,.7.42c.08,0,.16,0,.18-.05s.09-.31.25-.17A4.12,4.12,0,0,1,4.81,5C5.1,5.87,3.09,7.82,3,7.92s-.12.25,0,.19A10.36,10.36,0,0,0,4.18,7.2a2.38,2.38,0,0,0,1-1.9.2.2,0,0,0,0-.09c0-.64,0-1.76,0-2.1s.17-1.47.8-1a2.77,2.77,0,0,1,.3.24c.14.15.31.32.37.13a1.38,1.38,0,0,0,0-1C6.64,1.36,5.83.49,5.38,1.17Z"/><path class="cls-2" d="M13.87.6a5.3,5.3,0,0,0-.54,2.45c0,.28.2.81.61.82.21,0,.48-.15.68-.82,0-.15.05-.27.07-.33s0-.19-.12,0c-.15.41-.56.69-.86.15a2.3,2.3,0,0,1,.12-1.69C13.91,1,14,.67,14,.67,14.09.44,14,.31,13.87.6Z"/><path class="cls-2" d="M27.77,2a2.24,2.24,0,0,0,0-1.68c-.07-.14-.48-.65-1.18.14-.26.3-.53,1.08-.26,1.35a4.29,4.29,0,0,0,.72.52,21.24,21.24,0,0,1-4.87,3.34c-.24.1-.21.22-.08.2a10.41,10.41,0,0,0,2.73-1.07,10.87,10.87,0,0,0,2.55-2.29s.32.35.36.42.14.26.21.12A.81.81,0,0,0,27.77,2Zm-.32-.25s-.38-.26-.56-.36-.26-.24-.16-.35c.35-.36.49-.33.59-.25A1.14,1.14,0,0,1,27.45,1.76Z"/><path class="cls-2" d="M31,.16a5,5,0,0,0-.67,2.47c0,.28.2.82.65.85.23,0,.54-.14.78-.81,0-.15.07-.27.08-.33s0-.2-.12,0c-.19.41-.64.68-1,.12A2.11,2.11,0,0,1,30.9.77c.09-.21.2-.52.2-.52C31.2,0,31.09-.12,31,.16Z"/></g></g></g></svg>