<svg xmlns="http://www.w3.org/2000/svg" viewBox="0 0 30.81 23.26"><defs><style>.cls-1{isolation:isolate;}.cls-2{fill-rule:evenodd;mix-blend-mode:darken;}</style></defs><g class="cls-1"><g id="Layer_2" data-name="Layer 2"><g id="سور_الٌقرآن_الكريم" data-name="سور الٌقرآن الكريم"><path class="cls-2" d="M25.73,20.69l-.21.25c-.06.07-.05.19.11,0,.32-.29.8-.35.81.26a2.26,2.26,0,0,1-.88,1.42c-.17.14-.39.37-.39.37-.19.17-.16.33.08.13a5.33,5.33,0,0,0,1.61-1.89c.11-.25.19-.79-.16-1C26.52,20.19,26.21,20.2,25.73,20.69Z"/><path class="cls-2" d="M10.72,19.6l-.21.26c-.06.07,0,.19.1,0,.33-.28.81-.34.82.27,0,.12-.06.64-.88,1.41-.17.15-.39.38-.39.38-.19.17-.16.33.08.13a5.29,5.29,0,0,0,1.61-1.9c.11-.24.19-.79-.16-1C11.51,19.1,11.2,19.11,10.72,19.6Z"/><path class="cls-2" d="M6.13,14.38l-.68.92a.07.07,0,0,0,0,.09l1.15.84a.06.06,0,0,0,.08,0l.68-.92a.07.07,0,0,0,0-.09l-1.15-.84A.07.07,0,0,0,6.13,14.38Z"/><path class="cls-2" d="M3.29,14.14a5.77,5.77,0,0,0-.37,2.55c0,.28.24.81.63.8.2,0,.45-.18.6-.87,0-.16,0-.28,0-.34s-.05-.2-.11,0c-.12.43-.49.74-.81.2a2.53,2.53,0,0,1,0-1.73c.06-.22.13-.54.13-.54C3.49,14,3.39,13.84,3.29,14.14Z"/><path class="cls-2" d="M1.44,8.77a9.62,9.62,0,0,0-1,3.8,1.63,1.63,0,0,0,.47,1.25A.49.49,0,0,0,.74,14c-.24.39-2.27,5.55,1.65,6.83.86.28,3.12.83,7.3-2.17.39-.29,2.33-1.46,1.85-3.43-.06-.28-1.12-2.82-1.12-2.82.26.11.42.16.51.21s.25-.05.11-.25S10,11,9.94,10.91s-.06-.14-.09-.24-.09-.08-.13,0-.3.91-.31,1a6.47,6.47,0,0,0,.29,1.18,26.08,26.08,0,0,0,1.12,2.58.84.84,0,0,1,0,.93,11.8,11.8,0,0,1-5.78,3.18c-.54.13-2.82.59-4-1.14C.86,18.09-.06,16.68,1,14a.93.93,0,0,0,0-.13l.08,0c.29,0,.68-.19,1-1.21.07-.23.11-.42.14-.51s0-.31-.16,0c-.26.62-.85,1-1.19.13a4.09,4.09,0,0,1,.39-2.62c.13-.32.3-.8.3-.8C1.76,8.55,1.64,8.33,1.44,8.77Z"/><path class="cls-2" d="M11.11,7.56c-.24.12-6.63,2.63-6.88,2.77s-.33.17-.38.35-.08.29-.09.32-.09.27.27.07c.12-.07,6.55-2.6,6.76-2.72s.33-.15.42-.34.11-.22.16-.35S11.48,7.37,11.11,7.56Z"/><path class="cls-2" d="M20.92,12.26a6.1,6.1,0,0,0-.46,2.89c0,.32.28.92.76.91.25,0,.56-.21.74-1,0-.17.05-.32.06-.39s-.07-.22-.14,0c-.15.49-.6.84-1,.23a2.68,2.68,0,0,1,0-2c.08-.25.17-.62.17-.62C21.17,12.06,21,11.91,20.92,12.26Z"/><path class="cls-2" d="M26.78,11.54l-.58.8-1.12-.81a.06.06,0,0,0-.09,0l-.67.93a.06.06,0,0,0,0,.09l1.15.84a.07.07,0,0,0,.09,0l.58-.8,1.11.82a.07.07,0,0,0,.09,0l.68-.92a.07.07,0,0,0,0-.09l-1.15-.84A.06.06,0,0,0,26.78,11.54Z"/><path class="cls-2" d="M23.34,8c-.28.14-8.16,4-8.44,4.14s-.37.22-.41.43-.07.32-.08.36-.1.29.32,0c.13-.07,8.08-3.92,8.3-4.06s.36-.2.45-.42.11-.26.16-.41S23.76,7.74,23.34,8Z"/><path class="cls-2" d="M16.83,5.86a5.77,5.77,0,0,0-.37,2.55c0,.28.24.81.63.8.2,0,.45-.18.6-.87,0-.15,0-.28,0-.34s-.05-.2-.11,0c-.12.42-.49.73-.8.19a2.43,2.43,0,0,1,0-1.73c.06-.22.13-.54.13-.54C17,5.69,16.93,5.56,16.83,5.86Z"/><path class="cls-2" d="M24.92,6.76a4.05,4.05,0,0,0-.55.8c-.14.22,0,.32.2.14a.76.76,0,0,1,.73-.33c.47,0,1.59,0,1.18.28s-.71.49-.71.49c-.27.19-.51.56,0,.35a3.39,3.39,0,0,0,1.61-1.25c.14-.22.3-.5-.36-.6S25.27,6.38,24.92,6.76Z"/><path class="cls-2" d="M5.58,2.37a5.12,5.12,0,0,0-.72,2.89,4.69,4.69,0,0,0-2.1-2.59c-.11-.07-.34.05-.36.41,0,.2-.07.7.07.84a4,4,0,0,0,.65.46c.07,0,.15,0,.17,0s.12-.28.26-.14A4.49,4.49,0,0,1,4.82,6.27c.07.18.23.2.27,0,.09-.62.14-1.68.18-2s.29-1.39.87-.9c.13.11.27.25.27.25.12.16.27.34.35.16a1.4,1.4,0,0,0,.08-1C6.78,2.66,6.07,1.75,5.58,2.37Z"/><path class="cls-2" d="M30.6,13.29c-.07-.57-.79-7.45-.79-7.45l.76.79c.1.12.23.07.18-.12S29.44,2.89,29.4,2.77s-.08-.2-.14-.07l-.55,1.1a3.56,3.56,0,0,1,.25.87C29,5.19,30.2,17,30.22,17.14s.09.77-.24.9a4.22,4.22,0,0,1-2,.17,3.84,3.84,0,0,0,.25-2.65c-.12-.32-.51-1.49-1.42-.7a3.32,3.32,0,0,0-1.23,3.44s-5.23,1.62-7.24-1.14c-.2-.17-.22-.12-.35.07a2.66,2.66,0,0,1-1.76,1.65c-.2.05-1.64.43-2.3-1.57C13.5,16,13.48,7.4,13.25,5.88a28.18,28.18,0,0,0-.55-3.7c-.11-.28-.18-.25-.27-.06a2.46,2.46,0,0,0-.33,1.35c.48,2.32.84,10.73.85,11.49s-.18,5.28,2.37,5.33c.56,0,1.33.1,2.41-1.24a2.33,2.33,0,0,0,1.72,2.68c.23.07.41,0,.5-.18a3.15,3.15,0,0,0,.21-1.66,11.45,11.45,0,0,0,6.4-.69,4.61,4.61,0,0,0,3.4,0c.2-.08.76-.4.82-1.86A20.59,20.59,0,0,0,30.6,13.29Zm-3.79,4.54a1.76,1.76,0,0,1-.73-.52c-.28-.36.19-.91.62-1.2s.85.08,1,.46C28.18,17.39,27,17.74,26.81,17.83Z"/><path class="cls-2" d="M21.57,1.75A11.9,11.9,0,0,0,20.48,6c0,.48.15,1.43.7,1.51.29,0,.68-.22,1-1.37.07-.26.12-.47.14-.58s0-.35-.15,0c-.27.7-.86,1.16-1.18.16a5,5,0,0,1,.41-3c.13-.36.3-.9.3-.9C21.89,1.49,21.77,1.25,21.57,1.75Z"/><path class="cls-2" d="M9.91,1.67a9.12,9.12,0,0,0-1,3.66c0,.41.16,1.23.7,1.3.28,0,.65-.18,1-1.16.06-.23.11-.41.13-.5s0-.3-.15,0c-.25.59-.82,1-1.14.12a3.88,3.88,0,0,1,.37-2.53l.29-.77C10.22,1.45,10.1,1.25,9.91,1.67Z"/><path class="cls-2" d="M17.21.55a4.62,4.62,0,0,0-.47,2.68A4.26,4.26,0,0,0,14.66,1c-.11-.05-.31.07-.3.4s0,.65.12.77a4.15,4.15,0,0,0,.62.37c.07,0,.14,0,.15,0s.09-.26.23-.14a4,4,0,0,1,1.29,1.8c.07.16.22.16.24-.07,0-.56,0-1.54,0-1.84s.17-1.28.73-.88l.26.22c.12.13.27.28.33.12a1.27,1.27,0,0,0,0-.88C18.32.73,17.61,0,17.21.55Z"/><path class="cls-2" d="M28.31,1.73a2,2,0,0,0-.2-1.52c-.08-.12-.53-.53-1,.27-.21.31-.36,1-.07,1.25a4,4,0,0,0,.71.38,8.18,8.18,0,0,1-3,2.41c-.2.12-.16.23,0,.2A5.78,5.78,0,0,0,27,3.6,4.08,4.08,0,0,0,28,2.24s.33.27.38.33.15.22.2.09A.72.72,0,0,0,28.31,1.73ZM28,1.54l-.56-.26c-.17-.07-.26-.18-.18-.29.26-.37.39-.36.49-.3A1.05,1.05,0,0,1,28,1.54Z"/></g></g></g></svg>