<svg xmlns="http://www.w3.org/2000/svg" viewBox="0 0 33.98 21.47"><defs><style>.cls-1{isolation:isolate;}.cls-2{fill-rule:evenodd;mix-blend-mode:darken;}</style></defs><g class="cls-1"><g id="Layer_2" data-name="Layer 2"><g id="سور_الٌقرآن_الكريم" data-name="سور الٌقرآن الكريم"><path class="cls-2" d="M9.28,19.5c-.25.08-3,1.08-3.3,1.19s-.32.16-.37.34-.07.27-.08.3-.11.21.26.06c.18-.07,2.92-1,3.18-1.13a.64.64,0,0,0,.4-.33c.09-.18.11-.21.16-.33S9.64,19.38,9.28,19.5Z"/><path class="cls-2" d="M9.28,18.12c-.25.08-3,1.07-3.3,1.18s-.32.17-.37.34-.07.28-.08.31-.11.21.26.06C6,19.93,8.71,19,9,18.88a.64.64,0,0,0,.4-.33,3.11,3.11,0,0,0,.16-.34C9.58,18.08,9.64,18,9.28,18.12Z"/><path class="cls-2" d="M28.4,16.71c0,.1-.24.43-.27.5s0,.15.05.1,0-.34.91-.33c.13,0,.18,0,.12.1a3.71,3.71,0,0,0-1,1.66c-.25,1.33,1,1.09,1.29,1a3.67,3.67,0,0,0,1.6-1.39c.09-.13.13-.33,0-.13a3.39,3.39,0,0,1-1.93,1c-.7,0-.8-.64-.62-.93s.87-1,1-1.13a2.33,2.33,0,0,0,.22-.44c.06-.19.1-.31-.1-.32S28.68,16.26,28.4,16.71Z"/><path class="cls-2" d="M5.1,9.51a5.2,5.2,0,0,0-.47,2.59c0,.28.28.82.74.81.24,0,.55-.19.73-.9,0-.15.05-.28.06-.34s-.07-.2-.13,0c-.15.44-.6.76-1,.21a2.2,2.2,0,0,1,0-1.76c.07-.22.16-.55.16-.55C5.34,9.33,5.22,9.2,5.1,9.51Z"/><path class="cls-2" d="M18.13,10.48a4.92,4.92,0,0,0-.5,2.27c0,.24.18.73.56.74.19,0,.44-.14.62-.75a2.81,2.81,0,0,1,.07-.3c0-.08-.05-.18-.11,0-.14.37-.51.63-.79.13A2.11,2.11,0,0,1,18.09,11c.07-.2.16-.48.16-.48C18.33,10.34,18.24,10.22,18.13,10.48Z"/><path class="cls-2" d="M14.18,8.34a.91.91,0,0,0,0,.71c.1.28.39.91.44,1s.06.19-.1.26a.71.71,0,0,1-1-.55,5.82,5.82,0,0,0-.21-1.11c-.07-.13-.13-.15-.18,0a3.1,3.1,0,0,0-.09.44.14.14,0,0,0,0,.12c0,.05.31.9.18,1.14s-.77.66-1.11.22A3.57,3.57,0,0,1,12,9.27c0-.19-.06-.25-.14-.1a.73.73,0,0,0-.12.38,8.63,8.63,0,0,1,0,.89c0,.18,0,.76.35.93s.85,0,1.23-.71a.83.83,0,0,0,1,.34,1,1,0,0,0,.5-.8,1.35,1.35,0,0,0-.18-1,3.63,3.63,0,0,1-.29-.79C14.31,8.28,14.26,8.09,14.18,8.34Z"/><path class="cls-2" d="M23.86,12.94A16.27,16.27,0,0,1,27.8,11a2.41,2.41,0,0,0,.3.47c.12.12.15-.18.21-.67.61-.24,1.17-.44,1.57-.59l.68-.26A2.56,2.56,0,0,0,30.88,9a5,5,0,0,0-2.37-1.95c-.9-.31-1.44.71-1.63,1.11a2.2,2.2,0,0,0,0,1.33,4.27,4.27,0,0,0,.28.5,25.88,25.88,0,0,0-4.54,2.35,2.87,2.87,0,0,0-1,1.45c-.09.29.08.29.18.3s6.1.38,6.1.51c-9.16,4.58-12.54.85-13.22-.07a.75.75,0,0,1-.1-.24c0-.22-.06-.6-.29-.33s-1.17,2.55-3,2.49c-.31,0-1.52.18-2-2.82-.07-.51-.57-4.91-2.82-7.9-.16-.15-.23,0-.25.07s-.15,1-.15,1a32.28,32.28,0,0,1,2.26,6.1,1.23,1.23,0,0,1-.37,1.25,12.1,12.1,0,0,1-4.52,3.29c-.63.24-1.93.94-2.86-.52C.42,16.53.24,15,1.2,13.11c0-.07,0-.13.05-.18a.58.58,0,0,0,.19,0c.31,0,.68-.3.9-1.41,0-.26.05-.46.07-.56s-.08-.32-.16,0c-.19.69-.74,1.19-1.22.31a4.32,4.32,0,0,1,0-2.8c.09-.35.2-.88.2-.88.1-.4-.06-.6-.21-.12a10.06,10.06,0,0,0-.54,4.13A2,2,0,0,0,1,12.75a1.38,1.38,0,0,0-.08.17c-.12.33-2.33,5.47.68,6.31.68.19,2-.1,3.93-1.46.93-.6,2.74-1.82,3.31-3.59.09.68.16,3.42,2.46,3.64a3,3,0,0,0,2.56-1.77c0,.21-.07,2.82,1.71,3.2.12,0,.64.14.76-.59a4.22,4.22,0,0,0,.09-1.05c4.57,1.71,10.27-1,11-1.4A10.73,10.73,0,0,1,33.15,15s.79-1.23.83-1.35A86.14,86.14,0,0,1,23.86,12.94Zm3.72-4.53c.51-.25,1.54.58,1.73.7s.08.24-.16.3c-.41.1-.82.22-1.21.35-.25-.49-.54-.95-.59-1S27.37,8.52,27.58,8.41Z"/><path class="cls-2" d="M21.55,5.84a7.42,7.42,0,0,0-.67,3.3c0,.36.25,1.07.76,1.09.27,0,.61-.21.85-1.1.05-.2.07-.36.09-.44s-.06-.27-.14,0c-.2.55-.7.93-1.08.2a3.23,3.23,0,0,1,.15-2.26c.09-.28.21-.7.21-.7C21.83,5.62,21.7,5.45,21.55,5.84Z"/><path class="cls-2" d="M25.6.67C25.33.8,16,5.72,15.67,5.86s-.35.2-.39.4-.07.3-.08.34-.1.28.29.06c.13-.07,9.59-5,9.8-5.12s.35-.19.44-.39.11-.24.16-.38S26,.47,25.6.67Z"/><path class="cls-2" d="M29.27,2.61A2.31,2.31,0,0,0,29.2.81c-.08-.16-.56-.69-1.26.2-.28.34-.53,1.19-.22,1.47a4.84,4.84,0,0,0,.8.53,14.72,14.72,0,0,1-4.16,3.14c-.25.12-.22.25-.08.22a8.11,8.11,0,0,0,2.9-1.3A6.39,6.39,0,0,0,28.9,3.19s.36.36.41.43.16.28.23.13A.87.87,0,0,0,29.27,2.61Zm-.34-.25S28.5,2.1,28.3,2s-.29-.25-.18-.37c.35-.41.51-.38.62-.3A1.23,1.23,0,0,1,28.93,2.36Z"/><path class="cls-2" d="M7.58.5a4.93,4.93,0,0,0-.69,2.76,4.48,4.48,0,0,0-2-2.48c-.11-.06-.32.06-.34.39s-.07.68.07.81,1.12.48.58,1C5,3.28,3.76,4.54,3.5,4.84s-.28.36,0,.2A3.47,3.47,0,0,0,5.64,2.67a.9.9,0,0,0-.07-.47.12.12,0,0,1,.07,0,4.08,4.08,0,0,1,1.21,2c.07.17.22.19.26,0,.09-.59.13-1.6.18-1.91s.27-1.33.82-.86c.12.1.26.24.26.24.11.15.26.31.33.15A1.27,1.27,0,0,0,8.78.88C8.72.77,8.05-.09,7.58.5Z"/><path class="cls-2" d="M17.91.13c-.22.13-8.33,4.18-9,4.68A1.94,1.94,0,0,0,8.29,5.9c-.13.62,0,1.25.44,1.31a.81.81,0,0,1,.52.31s.08,0,.09,0a.76.76,0,0,0-.52-1.2c-.22-.06-.32-.37.49-.89s8.15-4.22,8.31-4.33.36-.22.45-.45a3.74,3.74,0,0,0,.15-.42C18.27.05,18.32-.13,17.91.13Z"/></g></g></g></svg>