<svg xmlns="http://www.w3.org/2000/svg" viewBox="0 0 33.28 20.34"><defs><style>.cls-1{isolation:isolate;}.cls-2{fill-rule:evenodd;mix-blend-mode:darken;}</style></defs><g class="cls-1"><g id="Layer_2" data-name="Layer 2"><g id="سور_الٌقرآن_الكريم" data-name="سور الٌقرآن الكريم"><path class="cls-2" d="M15.94,17.49l-.53.73-1-.75a.06.06,0,0,0-.08,0l-.62.85a.06.06,0,0,0,0,.08l1.06.77a.06.06,0,0,0,.08,0l.54-.74,1,.75a.06.06,0,0,0,.08,0l.62-.85a.06.06,0,0,0,0-.09L16,17.47A.06.06,0,0,0,15.94,17.49Z"/><path class="cls-2" d="M8.49,16.17A4.89,4.89,0,0,0,8,18.39c0,.25.17.73.54.74.2,0,.44-.14.62-.74l.06-.3c0-.08,0-.18-.1,0-.14.37-.51.62-.78.13a2.05,2.05,0,0,1,.11-1.52c.07-.19.15-.47.15-.47C8.69,16,8.6,15.91,8.49,16.17Z"/><path class="cls-2" d="M30.14,15.43a5.29,5.29,0,0,0-1,2.52c0,.29.12.88.59,1,.25,0,.59-.08.91-.76.06-.15.1-.28.13-.34s0-.21-.14,0c-.24.4-.75.64-1,0A2.24,2.24,0,0,1,30,16.06c.12-.21.27-.53.27-.53C30.41,15.29,30.32,15.14,30.14,15.43Z"/><path class="cls-2" d="M24.54,9.92a3.14,3.14,0,0,0-.51.73c-.14.2,0,.29.18.13a.7.7,0,0,1,.68-.3c.43,0,1.46,0,1.07.25s-.64.45-.64.45c-.25.18-.47.52,0,.33a3.07,3.07,0,0,0,1.47-1.16c.13-.19.29-.46-.32-.55S24.85,9.57,24.54,9.92Z"/><path class="cls-2" d="M7.37,8.69A5.8,5.8,0,0,0,7,11.36c0,.28.25.84.68.83.22,0,.49-.19.66-.91,0-.17,0-.3,0-.36s-.06-.21-.12,0c-.14.44-.54.77-.88.2a2.46,2.46,0,0,1,0-1.8l.15-.57C7.59,8.51,7.48,8.38,7.37,8.69Z"/><path class="cls-2" d="M18,8.19a7.27,7.27,0,0,0-.64,3.15c0,.34.23,1,.72,1,.26,0,.58-.2.82-1.05,0-.19.06-.34.08-.42s-.05-.25-.14,0c-.18.52-.66.89-1,.19A3.13,3.13,0,0,1,18,9c.09-.27.2-.67.2-.67C18.26,8,18.14,7.82,18,8.19Z"/><path class="cls-2" d="M33.27,11.93c-.11-.1-1.31-1.24-1.5-1.4s-1.08-.82-1.69-.51a2.08,2.08,0,0,0-1,1.9,4.11,4.11,0,0,0,.5,1.25l-.46.14a20.27,20.27,0,0,0-3.24,1.21,11.92,11.92,0,0,0-3.07,2.63c-.31.39-2,2.23-3.32,2.18-.32,0-1.72.15-1.21-2.45A11.84,11.84,0,0,1,19,15.11a.52.52,0,0,0,.06-.22,9.66,9.66,0,0,0,1-.34c.35-.14,2.3-.77,2.64-2.47a3.22,3.22,0,0,0-1-2.76c-.17-.19-.17-.12-.22,0s-.24,1-.24,1A6.67,6.67,0,0,1,22,11.6a.62.62,0,0,1-.31.93,11.67,11.67,0,0,1-6.34,1.52c-.41,0-3.14-.26-4-1.56-.1-.09-.15-.1-.18,0l-.16.51c-.54,0-2.58-.09-5.24,2.67-.3.31-2.23,2.63-3.31,3.07C2,19,.41,19.45.38,17.49a6.56,6.56,0,0,1,1.63-4,.05.05,0,0,0,0,0l.14,0c.31,0,.68-.3.91-1.43a5.49,5.49,0,0,1,.07-.56c0-.15-.09-.32-.17,0-.19.69-.74,1.2-1.23.31A4.33,4.33,0,0,1,1.76,9c.09-.36.2-.89.2-.89.1-.41-.06-.61-.2-.12a9.7,9.7,0,0,0-.55,4.17,2,2,0,0,0,.53,1.16l0,0A8.22,8.22,0,0,0,0,17.11C0,17.72,0,20,1.81,20.09c.36,0,1.66,0,3.39-2.17a16.8,16.8,0,0,1,3.4-3A4.32,4.32,0,0,1,11,14.38a2.1,2.1,0,0,0,1.48,2.45c.23.07.63.25.72-.24a8.23,8.23,0,0,0,.07-1.49,13.09,13.09,0,0,0,5.4-.1s0,0,0,.05c-.29.55-1.82,3.59.1,5,.31.22,1.95,1,4-1.3A11.92,11.92,0,0,1,27.75,15c.44-.16,1.6-.55,2.52-.85.13.17.24.31.28.38s.15.14.18,0a2.26,2.26,0,0,0,0-.56l.62-.21c.62-.19,1.57-.6,1.57-.6S33.38,12,33.27,11.93Zm-2.83,1v0c-.29-.47-.58-.93-.66-1.08s0-.44.36-.45a1.6,1.6,0,0,1,1.13.37c.45.36.79.59.7.64A10.65,10.65,0,0,1,30.44,12.91Z"/><path class="cls-2" d="M32.22,4.34C32,4.47,26.65,6.8,26.4,7s-.34.19-.38.38-.07.3-.08.33-.08.28.29,0c.11-.07,5.48-2.42,5.69-2.55s.32-.17.41-.37a3.14,3.14,0,0,0,.16-.36C32.54,4.29,32.59,4.13,32.22,4.34Z"/><path class="cls-2" d="M23.61,3.32,11.72,8.13c-.33.13-.43.19-.5.41s-.11.34-.13.39-.14.3.34.1C11.58,9,22.9,4.41,23.16,4.28s.42-.18.54-.4.16-.27.23-.42S24.09,3.14,23.61,3.32Z"/><path class="cls-2" d="M16.9,1.59C16.81,1.63,8.29,5,6.48,5.75A7.1,7.1,0,0,0,4,7.35c-.65,1-.37,1.56-.06,1.74a1.42,1.42,0,0,1,.56.66c.73-1.23-.2-1.08-.61-1.69-.2-.3,1.55-1.21,2.92-1.75,4-1.62,10-4,10-4s.11-.06.12-.1l.21-.66C17.14,1.47,17,1.55,16.9,1.59Z"/><path class="cls-2" d="M5.56,1.08a4.69,4.69,0,0,0-.47,2.7A4.34,4.34,0,0,0,3,1.53c-.11-.05-.31.07-.31.4s0,.65.13.77a4.34,4.34,0,0,0,.62.38c.07,0,.14,0,.15-.05s.09-.26.23-.14a4.07,4.07,0,0,1,1.3,1.82c.07.15.22.16.24-.07,0-.57,0-1.55,0-1.85s.17-1.3.73-.89l.27.22c.12.13.27.28.33.12a1.27,1.27,0,0,0,0-.88C6.68,1.26,6,.48,5.56,1.08Z"/><path class="cls-2" d="M27.08.2a7,7,0,0,0-.61,3c0,.33.22,1,.69,1,.24,0,.56-.19.78-1C28,3,28,2.88,28,2.8s-.05-.24-.13,0c-.18.5-.64.85-1,.18A2.93,2.93,0,0,1,27,.93c.09-.25.2-.63.2-.63C27.33,0,27.22-.15,27.08.2Z"/></g></g></g></svg>