<svg xmlns="http://www.w3.org/2000/svg" viewBox="0 0 24.2 26.96"><defs><style>.cls-1{isolation:isolate;}.cls-2{fill-rule:evenodd;mix-blend-mode:darken;}</style></defs><g class="cls-1"><g id="Layer_2" data-name="Layer 2"><g id="سور_الٌقرآن_الكريم" data-name="سور الٌقرآن الكريم"><path class="cls-2" d="M23.19,12c-.05-.09.11,0,.22,0l.37.14c.08,0,.32,0,.2-.2L22.15,9.54c0-.07-.06,0-.11,0s-.32.89-.38,1.11a1.48,1.48,0,0,0,.11.83c.11.29,1.54,3.52,1.61,3.72s.19.34,0,.5a9.07,9.07,0,0,1-1.72,1c-1.05-2.65-2.88-2.24-3.43-1.84A3.18,3.18,0,0,0,17,17.55c.05.42.32,1.27,1.77,1.37a5.11,5.11,0,0,0,1.74-.14c1.25-.36,1.22.09.93.56-2.07,3.59-14.9,7.08-14.9,7.08-.27.14-.55.33-.52.45s.12.11.33,0,5.63-.55,5.89-.7,6.51-2,9.12-4.9a3.71,3.71,0,0,0,.75-3.14,2.91,2.91,0,0,0,2.06-2.34A5.15,5.15,0,0,0,23.19,12Zm-5,5.23c-.5-.15.05-.72.43-.82s.87-.25,1.78.69A4.18,4.18,0,0,1,18.24,17.19Z"/><path class="cls-2" d="M16.89,8.8a7.24,7.24,0,0,0-.66,3.66c.05.39.38,1.15,1,1.13.34,0,.77-.27,1-1.26.05-.22.07-.4.09-.49s-.09-.28-.19,0c-.21.61-.83,1.06-1.36.29a3,3,0,0,1,.05-2.48c.11-.31.23-.78.23-.78C17.23,8.55,17.06,8.37,16.89,8.8Z"/><path class="cls-2" d="M21,6.25l-.85,1.16a.09.09,0,0,0,0,.12l1.45,1a.07.07,0,0,0,.11,0l.85-1.16a.08.08,0,0,0,0-.11L21.09,6.23A.07.07,0,0,0,21,6.25Z"/><path class="cls-2" d="M10.2,17.06a4.16,4.16,0,0,1-.19.45.85.85,0,0,1-.5.46c-.34.17-4.64,2-4.87,2.08-.49.23-.41.09-.36-.06a3.77,3.77,0,0,0,.09-.41c.06-.23.14-.32.47-.47s4.7-2,5-2.16C10.34,16.77,10.26,16.88,10.2,17.06Z"/><path class="cls-2" d="M10,15.45c-.06.16-.09.21-.19.45a.87.87,0,0,1-.51.46c-.33.17-4.64,2-4.87,2.08-.48.23-.41.09-.35-.06L4.2,18c0-.23.14-.32.47-.47s4.7-2,5-2.16C10.16,15.16,10.09,15.27,10,15.45Z"/><path class="cls-2" d="M4.46,18.44c-.48.23-.41.09-.35-.06L4.2,18c0-.23.14-.32.47-.47s4.7-2,5-2.16c.47-.18.4-.07.34.11s-.09.21-.19.45a.87.87,0,0,1-.51.46C9,16.53,4.69,18.33,4.46,18.44Z"/><path class="cls-2" d="M10.2,17.06a4.16,4.16,0,0,1-.19.45.85.85,0,0,1-.5.46c-.34.17-4.64,2-4.87,2.08-.49.23-.41.09-.36-.06a3.77,3.77,0,0,0,.09-.41c.06-.23.14-.32.47-.47s4.7-2,5-2.16C10.34,16.77,10.26,16.88,10.2,17.06Z"/><path class="cls-2" d="M4.46,18.44c-.48.23-.41.09-.35-.06L4.2,18c0-.23.14-.32.47-.47s4.7-2,5-2.16c.47-.18.4-.07.34.11s-.09.21-.19.45a.87.87,0,0,1-.51.46C9,16.53,4.69,18.33,4.46,18.44Z"/><path class="cls-2" d="M10.2,17.06a4.16,4.16,0,0,1-.19.45.85.85,0,0,1-.5.46c-.34.17-4.64,2-4.87,2.08-.49.23-.41.09-.36-.06a3.77,3.77,0,0,0,.09-.41c.06-.23.14-.32.47-.47s4.7-2,5-2.16C10.34,16.77,10.26,16.88,10.2,17.06Z"/><path class="cls-2" d="M12.54,12.47A11,11,0,0,0,7.6,12c-.52,0-2.9.16-4.79.2a9.52,9.52,0,0,1,1.44-1.38,5,5,0,0,1,.51.53c.13.23.29.19.32,0a1.92,1.92,0,0,0,0-1.1c.18-.11.36-.22.55-.32l7.28-4.08c.25-.66.29-.82.38-1.1s.08-.38-.22-.47-8-1.22-11.26.07a1.73,1.73,0,0,0-1.09,1C.45,5.88,0,7.09.59,7.78A11.68,11.68,0,0,0,2.8,9.51c.1.07.34.28.62.54A11.17,11.17,0,0,0,1.73,12.2a9.51,9.51,0,0,1-1,0c-.3,0-.57,0-.22.28a3.42,3.42,0,0,0,.82.58q-.17.35-.3.69c-.14.37-2.38,6.1.36,9.52.45.56,3.33,3.37,8.06.74.7-.38,4.15-2.89,4.88-6.45C14.4,17,15.37,13.57,12.54,12.47ZM1.34,6.7c-.15-.12-.47-.35,0-.62s2-1,9-.38C10.17,5.82,7,7.54,6.52,7.81A12.87,12.87,0,0,0,4.45,9.14,4.12,4.12,0,0,0,4,8.7C3.72,8.39,1.49,6.82,1.34,6.7ZM13.71,17.52c-.13.34-2.16,5-6.67,5.57-.78.11-6.58.83-6.28-5.43A8.88,8.88,0,0,1,2,13.31a12.79,12.79,0,0,0,4.69.31c.41,0,4.36-.27,5.85.88A2.43,2.43,0,0,1,13.71,17.52Z"/><path class="cls-2" d="M15.11.61a6,6,0,0,0-.61,2.77c0,.31.23.91.68.92.24,0,.55-.17.77-.92,0-.17.06-.3.08-.37S16,2.79,15.9,3c-.17.46-.63.78-1,.16a2.58,2.58,0,0,1,.14-1.89L15.26.7C15.36.43,15.24.29,15.11.61Z"/><path class="cls-2" d="M21.49,2.42A2.78,2.78,0,0,0,21.27.31c-.1-.18-.71-.76-1.46.34-.29.41-.53,1.43-.14,1.73a5.78,5.78,0,0,0,1,.56A26.41,26.41,0,0,1,15,7.83c-.28.16-.23.31-.07.27a13.17,13.17,0,0,0,3.29-1.74A14,14,0,0,0,21.1,3.12s.45.4.51.48.21.3.28.12A1,1,0,0,0,21.49,2.42Zm-.41-.27-.77-.38c-.23-.11-.35-.26-.24-.41.38-.51.56-.48.7-.4A1.43,1.43,0,0,1,21.08,2.15Z"/></g></g></g></svg>