<svg xmlns="http://www.w3.org/2000/svg" viewBox="0 0 27.45 24.99"><defs><style>.cls-1{isolation:isolate;}.cls-2{fill-rule:evenodd;mix-blend-mode:darken;}</style></defs><g class="cls-1"><g id="Layer_2" data-name="Layer 2"><g id="سور_الٌقرآن_الكريم" data-name="سور الٌقرآن الكريم"><path class="cls-2" d="M6.49,23.09c-.23.1-3,1.07-3.21,1.15s-.32.16-.36.33a2.29,2.29,0,0,0-.08.3c0,.11,0,.17.25.06.12-.05,2.91-1,3.1-1.1s.25,0,.39-.32l.15-.33C6.78,23.05,6.82,23,6.49,23.09Z"/><path class="cls-2" d="M6.49,21.73,3.28,22.88C3,23,3,23,2.92,23.21a2.29,2.29,0,0,0-.08.3c0,.11,0,.16.25,0,.12,0,2.91-1,3.1-1.09s.25-.06.39-.33.1-.2.15-.32S6.82,21.59,6.49,21.73Z"/><path class="cls-2" d="M22.42,19.22a7.06,7.06,0,0,0-.52,3.24c.05.35.32,1,.85,1,.28,0,.62-.24.82-1.12,0-.2.06-.35.07-.43s-.07-.25-.15,0c-.17.54-.67.94-1.1.25a2.93,2.93,0,0,1,0-2.2c.08-.27.18-.69.18-.69C22.69,19,22.55,18.84,22.42,19.22Z"/><path class="cls-2" d="M25.93,13.28a22.24,22.24,0,0,1-3.1-1.71l.61-.13c.16,0,.3-.23,0-.33l-2.27-.82a6.34,6.34,0,0,0-.07,1.26c.08.06.12,0,.12,0a4.64,4.64,0,0,0-1.13,4.5,4.48,4.48,0,0,1-1.64.64,4.54,4.54,0,0,0-.74-1.32c-.91-1-1.74-1.61-2.81-.55s-1.09,2.93.27,3.52a4.7,4.7,0,0,0,2.27.06c.22-.05.93-.13.57.37s-3.33,3.78-6.57,3.84c-.41,0-3.31-.26-2.5-3.2,0-.32.27-1.06.36-1.41a.45.45,0,0,0,0-.16,7.29,7.29,0,0,0,.81-.58c.25-.21.7-.8.51-2.33a2.36,2.36,0,0,0-1.37-2,28.64,28.64,0,0,1-4-2.29L6,10.54c.08,0,.24-.1,0-.24S4.26,9.48,3.93,9.2c-.1-.09-.27-.27-.3,0s-.12,1.49-.12,1.49A12.16,12.16,0,0,0,7,13.45a11.42,11.42,0,0,1,3,1.91c.13.18.39.3-.32.79a51.8,51.8,0,0,1-7,4.15A1.36,1.36,0,0,1,.57,19.18c0-.36-.33-1.39,1.39-5a1.67,1.67,0,0,0,.65-1.12c0-.22.06-.39.08-.47s-.09-.27-.17,0c-.2.59-.77,1-1.26.28a3,3,0,0,1,0-2.38c.1-.3.21-.75.21-.75.11-.33-.05-.51-.21-.09a7.3,7.3,0,0,0-.6,3.5c.05.36.32,1,.87,1.09a4.06,4.06,0,0,0-.29.59c-.5,1.26-2.54,5.89-.14,7.07.46.19,1.37.3,3.62-1.14.5-.29,2.7-1.68,4.14-2.63l0,.1c-.26.85-1.54,4.3.58,5.53.35.2,3.32,1.48,8.1-2.77a4.75,4.75,0,0,0,1.17-2.45c0-.1,0-.26,0-.46a8.52,8.52,0,0,1,2.66-.83c.53.14,3.76.91,4.91.59.34-.1.89-.29,1.13-2.11C27.44,15.19,27.49,14.3,25.93,13.28ZM15.74,16.92c-1-.25-.62-.72-.41-.9a1.32,1.32,0,0,1,1.9.89A2.12,2.12,0,0,1,15.74,16.92Zm6.15-1.49c-.43.12-.94-.31-1.32-.71s.51-1.42,1-1.92,1.27.55,1.61,1.45C23.41,15,22.32,15.32,21.89,15.43Zm4.41.91a8.22,8.22,0,0,1-3.07-.27,5.83,5.83,0,0,0,.46-1,4.2,4.2,0,0,0,.2-1,6.26,6.26,0,0,1,2.84,1.7C26.82,15.87,27.13,16.28,26.3,16.34Z"/><path class="cls-2" d="M13.15,7.12a7.18,7.18,0,0,0-.72,3.3c0,.36.27,1.07.81,1.09.29,0,.65-.21.91-1.1,0-.2.07-.36.09-.44s-.06-.26-.15,0c-.21.54-.74.92-1.15.19a3.08,3.08,0,0,1,.16-2.26c.1-.27.23-.69.23-.69C13.44,6.91,13.31,6.74,13.15,7.12Z"/><path class="cls-2" d="M3.78,1.51A8.18,8.18,0,0,0,3,5.27c0,.41.31,1.22.93,1.24.32,0,.74-.24,1-1.25C5,5,5,4.85,5,4.76s-.07-.3-.17,0C4.61,5.39,4,5.83,3.54,5a3.41,3.41,0,0,1,.18-2.57c.12-.32.26-.8.26-.8C4.11,1.26,4,1.06,3.78,1.51Z"/><path class="cls-2" d="M14.15.33a6,6,0,0,0-1,3.3A5.55,5.55,0,0,0,10.88.51c-.13-.08-.4.05-.44.45,0,.24-.13.82,0,1s1.34.65.65,1.3C10.82,3.55,9.28,5,9,5.35s-.37.41,0,.24,2.33-.83,2.74-2.74a1.11,1.11,0,0,0-.05-.58.21.21,0,0,1,.08.06A5.08,5.08,0,0,1,13.05,4.8c.07.21.26.23.31,0,.14-.71.26-1.94.34-2.31s.41-1.59,1-1a3.15,3.15,0,0,1,.3.31c.13.18.3.39.4.19A1.57,1.57,0,0,0,15.58.86C15.53.73,14.75-.36,14.15.33Z"/><path class="cls-2" d="M23.63,2.67a3.11,3.11,0,0,0-.4-2.35c-.13-.2-.85-.81-1.62.47-.3.49-.49,1.65,0,2a5.8,5.8,0,0,0,1.12.56,29.82,29.82,0,0,1-6,5.9c-.3.2-.24.36-.05.3a14.52,14.52,0,0,0,3.58-2.18,15.72,15.72,0,0,0,3-3.85s.54.42.61.51.25.33.32.12A1.14,1.14,0,0,0,23.63,2.67Zm-.49-.28L22.26,2c-.27-.1-.42-.27-.3-.44.39-.6.6-.59.76-.5A1.6,1.6,0,0,1,23.14,2.39Z"/></g></g></g></svg>