<svg xmlns="http://www.w3.org/2000/svg" viewBox="0 0 25.36 24.57"><defs><style>.cls-1{isolation:isolate;}.cls-2{fill-rule:evenodd;mix-blend-mode:darken;}</style></defs><g class="cls-1"><g id="Layer_2" data-name="Layer 2"><g id="سور_الٌقرآن_الكريم" data-name="سور الٌقرآن الكريم"><path class="cls-2" d="M23.81,19l-.71,1-1.36-1a.07.07,0,0,0-.11,0l-.83,1.13a.08.08,0,0,0,0,.11l1.4,1a.07.07,0,0,0,.11,0l.71-1,1.37,1a.07.07,0,0,0,.11,0l.82-1.13a.08.08,0,0,0,0-.11l-1.41-1A.07.07,0,0,0,23.81,19Z"/><path class="cls-2" d="M16.9,18.51a7.56,7.56,0,0,0-.57,3.55c.05.38.35,1.12.93,1.11.3,0,.68-.26.91-1.22,0-.22,0-.39.07-.48s-.08-.27-.17,0c-.18.59-.74,1-1.21.27a3.19,3.19,0,0,1,0-2.4c.09-.31.2-.76.2-.76C17.2,18.27,17.05,18.09,16.9,18.51Z"/><path class="cls-2" d="M7.84,13a11.92,11.92,0,0,0-1,4.83c0,.54.31,1.59,1,1.62.35,0,.82-.29,1.16-1.6,0-.29.09-.53.12-.65s-.08-.39-.19,0c-.27.8-1,1.35-1.45.27a5.2,5.2,0,0,1,.24-3.32c.13-.41.3-1,.3-1C8.21,12.66,8.05,12.41,7.84,13Z"/><path class="cls-2" d="M22.26,7.3c-.07.19-.28,1.18-.31,1.28a13.94,13.94,0,0,0,.43,1.6c.14.42,1.42,3.63,1.5,3.87s.26.87-.46.89a2.83,2.83,0,0,1-2.48-1.17,2.83,2.83,0,0,1,.11-.42c.1-.23,0-.5-.21-.19s-.86,2.18-1.93,2.32c-.27,0-1.1.12-1.25-1.07a6.27,6.27,0,0,1,.21-.62c.1-.22,0-.46-.23-.18s-1.87,2.32-4.19,1.63c0,0-.67-1.49-.77-1.7s-.31-.11-.34.07L12.11,15s1.21,2.5,1.29,2.92.39,1.15-1,2.14c-.43.3-4,3.07-7.43,3-.85,0-5.7-.36-3.47-6.62.34-.18.73-.71,1-2,.07-.38.12-.69.15-.84s-.09-.51-.23,0c-.31,1-1.09,1.77-1.66.36C.66,13.6.28,12.32,1,9.54c.15-.54.34-1.34.34-1.34.17-.61,0-.95-.26-.21A17.66,17.66,0,0,0,0,14.33c0,.65.31,1.87,1,2.08l0,.1c-.29.88-2.66,7.27,3.05,8,.9.12,6.33-.24,9.41-4.08a2.6,2.6,0,0,0,.7-1.95A8.26,8.26,0,0,0,14,17.16a4.35,4.35,0,0,0,3-1.34,1.33,1.33,0,0,0,1.48,1.25c.3,0,1.22-.08,2-1.7a2.47,2.47,0,0,0,3.09.88c.36-.14,1.57-1.28,1-3.55-.12-.48-1.12-3-1.12-3l.63.24c.1,0,.39.07.21-.24s-1.64-2.18-1.75-2.34S22.33,7.12,22.26,7.3Z"/><path class="cls-2" d="M7,7.06a7.13,7.13,0,0,0-.72,3.29c0,.36.27,1.07.81,1.09.29,0,.65-.21.91-1.1,0-.2.07-.36.09-.43S8,9.64,8,9.92c-.21.54-.75.92-1.15.19A3.1,3.1,0,0,1,7,7.86c.1-.28.23-.7.23-.7C7.3,6.85,7.17,6.67,7,7.06Z"/><path class="cls-2" d="M17.15,6.72a5.6,5.6,0,0,0-.6,3.18,5.16,5.16,0,0,0-2.44-2.69c-.12-.06-.36.09-.36.47s0,.77.13.91a5.44,5.44,0,0,0,.73.46c.08,0,.16,0,.18-.05s.11-.32.27-.17A4.66,4.66,0,0,1,16.56,11c.09.19.27.2.29-.08.06-.67,0-1.82.08-2.18s.22-1.52.88-1a3.05,3.05,0,0,1,.3.26c.15.16.32.34.39.14a1.41,1.41,0,0,0,0-1C18.47,7,17.64,6,17.15,6.72Z"/><path class="cls-2" d="M20.42.69c-4.86,3-8.48,1.9-8.68,1.81s-.41-.15-.35.1a4.29,4.29,0,0,0,.19,1.06,2.27,2.27,0,0,1,.58,1.21c0,.2.11.19.17.07a3.88,3.88,0,0,0,.15-1.07,13.52,13.52,0,0,0,8.27-2.36c.34-.22.22.14.19.51s-.16,1.07-.18,1.32.11.1.18-.14A15.9,15.9,0,0,0,21.37,1C21.48.06,20.73.51,20.42.69Z"/><path class="cls-2" d="M7.24.26A6.24,6.24,0,0,0,6.36,3.8,5.75,5.75,0,0,0,3.79.62c-.14-.08-.42.07-.44.5,0,.25-.09.87.09,1s1.44.61.75,1.34C3.88,3.83,2.34,5.44,2,5.82s-.36.46,0,.27,2.41-1,2.75-3a1.06,1.06,0,0,0-.09-.6l.09.06A5.3,5.3,0,0,1,6.3,5c.09.22.29.24.34-.07.11-.75.17-2,.23-2.45s.34-1.7,1-1.1a4.09,4.09,0,0,1,.33.31c.15.19.34.4.43.19A1.6,1.6,0,0,0,8.77.74C8.71.61,7.84-.49,7.24.26Z"/></g></g></g></svg>