<svg xmlns="http://www.w3.org/2000/svg" viewBox="0 0 30.73 21.63"><defs><style>.cls-1{isolation:isolate;}.cls-2{fill-rule:evenodd;mix-blend-mode:darken;}</style></defs><g class="cls-1"><g id="Layer_2" data-name="Layer 2"><g id="سور_الٌقرآن_الكريم" data-name="سور الٌقرآن الكريم"><path class="cls-2" d="M29.42,17.08l-.6.82-1.16-.84a.07.07,0,0,0-.09,0l-.7,1a.06.06,0,0,0,0,.09l1.19.87a.08.08,0,0,0,.1,0l.6-.83,1.16.85A.07.07,0,0,0,30,19l.7-1a.06.06,0,0,0,0-.09l-1.2-.87A.07.07,0,0,0,29.42,17.08Z"/><path class="cls-2" d="M14.26,16.84a5.21,5.21,0,0,0-.35,2.65c.05.28.31.82.79.78.25,0,.55-.22.71-.94,0-.16,0-.29,0-.36s-.07-.2-.13,0c-.14.44-.58.79-1,.25-.07-.1-.36-.6,0-1.78.06-.23.14-.57.14-.57C14.5,16.64,14.37,16.52,14.26,16.84Z"/><path class="cls-2" d="M6.12,11.12a10.4,10.4,0,0,0-.58,4.4c0,.48.38,1.4,1,1.39.32,0,.73-.31,1-1.51,0-.26.06-.48.07-.58s-.09-.35-.17,0c-.2.74-.79,1.27-1.3.34a4.59,4.59,0,0,1,0-3c.1-.37.21-.93.21-.93C6.44,10.82,6.27,10.6,6.12,11.12Z"/><path class="cls-2" d="M10.57,7.16a5.11,5.11,0,0,0-.36,2.65c0,.29.32.82.8.79.25,0,.55-.22.7-.95,0-.16,0-.29,0-.35s-.08-.2-.14,0c-.13.45-.57.8-1,.26-.07-.11-.36-.6,0-1.79.06-.23.14-.57.14-.57C10.81,7,10.68,6.84,10.57,7.16Z"/><path class="cls-2" d="M28.83,10.14c-.15-.25-1.13-1.52-1.13-1.52.29,0,.5,0,.61.05s.27-.07.12-.21S27,7.3,26.91,7.22s-.24-.57-.32-.27a8.41,8.41,0,0,0-.2,1.19c0,.18,0,.28.14.39a1.43,1.43,0,0,1,.35.52,15.26,15.26,0,0,0,1.46,2.19c.25.26.41.56.24.7a5.48,5.48,0,0,1-1.5.81,6.84,6.84,0,0,0-1.58-1.57,1.15,1.15,0,0,0-1.57.24,2.64,2.64,0,0,0-.46,2.83,2,2,0,0,0,2.13.41c.33-.07,1.09-.23,1.2-.28s.11.18.05.31-2.25,4-5.47,4.53a2.73,2.73,0,0,1-3.13-1.95,7.11,7.11,0,0,1,.3-3l.39,0a1.49,1.49,0,0,0,1-.92,3.69,3.69,0,0,0,0-2.1,13,13,0,0,0-1.61-2.88l.73.11c.1,0,.3-.05.13-.22s-1.54-1.46-1.54-1.46-.18-.4-.23-.17S17.17,8,17.17,8a.3.3,0,0,0,.13.25,2.52,2.52,0,0,1,.29.55c.07.14,1.72,2.95,1.83,3.22s.32.9-.75.86S17.05,12.23,17,12s-.12-.55-.32-.07-.41,1.67-1.41,1.59c-.14,0-1-.17-1-.85a1.4,1.4,0,0,1,.12-.47c.09-.25,0-.48-.21-.17s-1.31,2.31-3.11,1.53c0,0-.63-.89-.74-1s-.2-.17-.21,0-.08,1.11-.08,1.11a11.41,11.41,0,0,1,1.19,2.56,1.06,1.06,0,0,1-.31.77c-.24.24-3.06,3-6.23,3.2-.54,0-3.38-.06-3.87-2.29a6.74,6.74,0,0,1,.37-3.71c.33-.08.7-.45.92-1.6,0-.28.06-.51.08-.63s-.1-.36-.19,0c-.21.78-.84,1.36-1.39.36a5,5,0,0,1,0-3.2c.11-.41.23-1,.23-1C1,7.64.83,7.4.67,8a11.27,11.27,0,0,0-.62,4.71c.05.45.33,1.28.86,1.45C.65,14.86-1,18.94,1.75,21c.3.21,3.27,1.89,7.34-1,.29-.21,2.27-1.54,2.53-2.79a8.39,8.39,0,0,0,.09-2.08A2.45,2.45,0,0,0,13.82,14s.6.94,1.23,1c.24,0,1.05.19,1.69-1.48a3.15,3.15,0,0,0,1.46.75v0C18,14.85,17,18.75,19,20.1c.42.28,2.47,1.46,5.91-1.37A8.64,8.64,0,0,0,27.16,16a6,6,0,0,0,.29-2c.31-.16,1.33-.56,1.52-1.27A3.41,3.41,0,0,0,28.83,10.14Zm-4.68,3.13c-.3-.12-.24-.31.1-.61s1.09-.3,1.64.52A2.52,2.52,0,0,1,24.15,13.27Z"/><path class="cls-2" d="M16.63,4l-.7,1a.06.06,0,0,0,0,.09l1.19.87a.08.08,0,0,0,.1,0l.69-1a.06.06,0,0,0,0-.09L16.72,4A.07.07,0,0,0,16.63,4Z"/><path class="cls-2" d="M13.37,2.27C13.14,2.41,4.68,6.62,4,7.15a2,2,0,0,0-.69,1.13c-.14.65,0,1.3.45,1.37a.82.82,0,0,1,.54.32s.08,0,.1,0A.8.8,0,0,0,3.89,8.7c-.23-.06-.33-.38.52-.92s8.48-4.4,8.65-4.52.38-.23.47-.46.11-.28.16-.44S13.79,2,13.37,2.27Z"/><path class="cls-2" d="M4.53,1.7A5.24,5.24,0,0,0,4,4.76a4.94,4.94,0,0,0-2.4-2.51c-.13,0-.35.09-.34.46,0,.21,0,.74.15.87A4.16,4.16,0,0,0,2.16,4c.08,0,.16,0,.17-.06s.1-.3.26-.17a4.68,4.68,0,0,1,1.49,2c.08.18.26.18.27-.08,0-.64,0-1.75,0-2.09s.17-1.46.81-1c.15.11.3.24.3.24s.32.32.38.13a1.4,1.4,0,0,0,0-1C5.79,1.89,5,1,4.53,1.7Z"/><path class="cls-2" d="M21.25,1.06a5.11,5.11,0,0,0-.36,2.65c.05.29.32.82.8.79.25,0,.55-.23.7-1,0-.16,0-.29.05-.35s-.08-.2-.14,0c-.13.45-.57.8-1,.26-.07-.11-.36-.6-.05-1.79.07-.23.14-.57.14-.57C21.49.86,21.36.74,21.25,1.06Z"/><path class="cls-2" d="M27,2.56A2.45,2.45,0,0,0,26.51.72c-.11-.15-.73-.58-1.25.49-.2.41-.27,1.35.12,1.56a4.58,4.58,0,0,0,.94.36,15.66,15.66,0,0,1-4,4.23c-.23.18-.16.31,0,.25A9.16,9.16,0,0,0,25.11,5.7a12.91,12.91,0,0,0,1.64-2.47s.45.29.52.36.22.24.26.07A.9.9,0,0,0,27,2.56Zm-1.13-.42c-.23-.06-.36-.18-.27-.33.27-.5.43-.51.56-.45a1.28,1.28,0,0,1,.44,1Z"/><path class="cls-2" d="M16.7,2A2.35,2.35,0,0,0,16.39.24c-.1-.15-.64-.61-1.22.37-.23.37-.38,1.24,0,1.48a4.4,4.4,0,0,0,.86.42,10,10,0,0,1-3.5,3c-.23.15-.18.27,0,.23a7,7,0,0,0,2.73-1.42A5,5,0,0,0,16.4,2.64s.4.32.46.38.19.25.24.09A.85.85,0,0,0,16.7,2Zm-.37-.22-.67-.27c-.21-.08-.32-.21-.23-.34.3-.45.45-.44.57-.38A1.22,1.22,0,0,1,16.33,1.81Z"/></g></g></g></svg>